<?xml version="1.0" encoding="utf-8" standalone="no"?>
<!DOCTYPE svg PUBLIC "-//W3C//DTD SVG 1.1//EN"
  "http://www.w3.org/Graphics/SVG/1.1/DTD/svg11.dtd">
<!-- Created with matplotlib (http://matplotlib.org/) -->
<svg height="279.516797pt" version="1.1" viewBox="0 0 316.86875 279.516797" width="316.86875pt" xmlns="http://www.w3.org/2000/svg" xmlns:xlink="http://www.w3.org/1999/xlink">
 <defs>
  <style type="text/css">
*{stroke-linecap:butt;stroke-linejoin:round;}
  </style>
 </defs>
 <g id="figure_1">
  <g id="patch_1">
   <path d="M 0 279.516797 
L 316.86875 279.516797 
L 316.86875 0 
L 0 0 
z
" style="fill:#ffffff;"/>
  </g>
  <g id="axes_1">
   <g id="patch_2">
    <path d="M 46.89875 236.578984 
L 313.36875 236.578984 
L 313.36875 4.938984 
L 46.89875 4.938984 
z
" style="fill:#ffffff;"/>
   </g>
   <g id="matplotlib.axis_1">
    <g id="xtick_1">
     <g id="line2d_1">
      <defs>
       <path d="M 0 0 
L 0 3.5 
" id="m148ae8f2c1" style="stroke:#000000;stroke-width:0.8;"/>
      </defs>
      <g>
       <use style="stroke:#000000;stroke-width:0.8;" x="52.903697" xlink:href="#m148ae8f2c1" y="236.578984"/>
      </g>
     </g>
     <g id="text_1">
      <!-- −30 -->
      <defs>
       <path d="M 10.59375 35.5 
L 73.1875 35.5 
L 73.1875 27.203125 
L 10.59375 27.203125 
z
" id="DejaVuSans-2212"/>
       <path d="M 40.578125 39.3125 
Q 47.65625 37.796875 51.625 33 
Q 55.609375 28.21875 55.609375 21.1875 
Q 55.609375 10.40625 48.1875 4.484375 
Q 40.765625 -1.421875 27.09375 -1.421875 
Q 22.515625 -1.421875 17.65625 -0.515625 
Q 12.796875 0.390625 7.625 2.203125 
L 7.625 11.71875 
Q 11.71875 9.328125 16.59375 8.109375 
Q 21.484375 6.890625 26.8125 6.890625 
Q 36.078125 6.890625 40.9375 10.546875 
Q 45.796875 14.203125 45.796875 21.1875 
Q 45.796875 27.640625 41.28125 31.265625 
Q 36.765625 34.90625 28.71875 34.90625 
L 20.21875 34.90625 
L 20.21875 43.015625 
L 29.109375 43.015625 
Q 36.375 43.015625 40.234375 45.921875 
Q 44.09375 48.828125 44.09375 54.296875 
Q 44.09375 59.90625 40.109375 62.90625 
Q 36.140625 65.921875 28.71875 65.921875 
Q 24.65625 65.921875 20.015625 65.03125 
Q 15.375 64.15625 9.8125 62.3125 
L 9.8125 71.09375 
Q 15.4375 72.65625 20.34375 73.4375 
Q 25.25 74.21875 29.59375 74.21875 
Q 40.828125 74.21875 47.359375 69.109375 
Q 53.90625 64.015625 53.90625 55.328125 
Q 53.90625 49.265625 50.4375 45.09375 
Q 46.96875 40.921875 40.578125 39.3125 
z
" id="DejaVuSans-33"/>
       <path d="M 31.78125 66.40625 
Q 24.171875 66.40625 20.328125 58.90625 
Q 16.5 51.421875 16.5 36.375 
Q 16.5 21.390625 20.328125 13.890625 
Q 24.171875 6.390625 31.78125 6.390625 
Q 39.453125 6.390625 43.28125 13.890625 
Q 47.125 21.390625 47.125 36.375 
Q 47.125 51.421875 43.28125 58.90625 
Q 39.453125 66.40625 31.78125 66.40625 
z
M 31.78125 74.21875 
Q 44.046875 74.21875 50.515625 64.515625 
Q 56.984375 54.828125 56.984375 36.375 
Q 56.984375 17.96875 50.515625 8.265625 
Q 44.046875 -1.421875 31.78125 -1.421875 
Q 19.53125 -1.421875 13.0625 8.265625 
Q 6.59375 17.96875 6.59375 36.375 
Q 6.59375 54.828125 13.0625 64.515625 
Q 19.53125 74.21875 31.78125 74.21875 
z
" id="DejaVuSans-30"/>
      </defs>
      <g transform="translate(39.18565 253.456953)scale(0.13 -0.13)">
       <use xlink:href="#DejaVuSans-2212"/>
       <use x="83.789062" xlink:href="#DejaVuSans-33"/>
       <use x="147.412109" xlink:href="#DejaVuSans-30"/>
      </g>
     </g>
    </g>
    <g id="xtick_2">
     <g id="line2d_2">
      <g>
       <use style="stroke:#000000;stroke-width:0.8;" x="95.313715" xlink:href="#m148ae8f2c1" y="236.578984"/>
      </g>
     </g>
     <g id="text_2">
      <!-- −20 -->
      <defs>
       <path d="M 19.1875 8.296875 
L 53.609375 8.296875 
L 53.609375 0 
L 7.328125 0 
L 7.328125 8.296875 
Q 12.9375 14.109375 22.625 23.890625 
Q 32.328125 33.6875 34.8125 36.53125 
Q 39.546875 41.84375 41.421875 45.53125 
Q 43.3125 49.21875 43.3125 52.78125 
Q 43.3125 58.59375 39.234375 62.25 
Q 35.15625 65.921875 28.609375 65.921875 
Q 23.96875 65.921875 18.8125 64.3125 
Q 13.671875 62.703125 7.8125 59.421875 
L 7.8125 69.390625 
Q 13.765625 71.78125 18.9375 73 
Q 24.125 74.21875 28.421875 74.21875 
Q 39.75 74.21875 46.484375 68.546875 
Q 53.21875 62.890625 53.21875 53.421875 
Q 53.21875 48.921875 51.53125 44.890625 
Q 49.859375 40.875 45.40625 35.40625 
Q 44.1875 33.984375 37.640625 27.21875 
Q 31.109375 20.453125 19.1875 8.296875 
z
" id="DejaVuSans-32"/>
      </defs>
      <g transform="translate(81.595668 253.456953)scale(0.13 -0.13)">
       <use xlink:href="#DejaVuSans-2212"/>
       <use x="83.789062" xlink:href="#DejaVuSans-32"/>
       <use x="147.412109" xlink:href="#DejaVuSans-30"/>
      </g>
     </g>
    </g>
    <g id="xtick_3">
     <g id="line2d_3">
      <g>
       <use style="stroke:#000000;stroke-width:0.8;" x="137.723732" xlink:href="#m148ae8f2c1" y="236.578984"/>
      </g>
     </g>
     <g id="text_3">
      <!-- −10 -->
      <defs>
       <path d="M 12.40625 8.296875 
L 28.515625 8.296875 
L 28.515625 63.921875 
L 10.984375 60.40625 
L 10.984375 69.390625 
L 28.421875 72.90625 
L 38.28125 72.90625 
L 38.28125 8.296875 
L 54.390625 8.296875 
L 54.390625 0 
L 12.40625 0 
z
" id="DejaVuSans-31"/>
      </defs>
      <g transform="translate(124.005685 253.456953)scale(0.13 -0.13)">
       <use xlink:href="#DejaVuSans-2212"/>
       <use x="83.789062" xlink:href="#DejaVuSans-31"/>
       <use x="147.412109" xlink:href="#DejaVuSans-30"/>
      </g>
     </g>
    </g>
    <g id="xtick_4">
     <g id="line2d_4">
      <g>
       <use style="stroke:#000000;stroke-width:0.8;" x="180.13375" xlink:href="#m148ae8f2c1" y="236.578984"/>
      </g>
     </g>
     <g id="text_4">
      <!-- 0 -->
      <g transform="translate(175.998125 253.456953)scale(0.13 -0.13)">
       <use xlink:href="#DejaVuSans-30"/>
      </g>
     </g>
    </g>
    <g id="xtick_5">
     <g id="line2d_5">
      <g>
       <use style="stroke:#000000;stroke-width:0.8;" x="222.543768" xlink:href="#m148ae8f2c1" y="236.578984"/>
      </g>
     </g>
     <g id="text_5">
      <!-- 10 -->
      <g transform="translate(214.272518 253.456953)scale(0.13 -0.13)">
       <use xlink:href="#DejaVuSans-31"/>
       <use x="63.623047" xlink:href="#DejaVuSans-30"/>
      </g>
     </g>
    </g>
    <g id="xtick_6">
     <g id="line2d_6">
      <g>
       <use style="stroke:#000000;stroke-width:0.8;" x="264.953785" xlink:href="#m148ae8f2c1" y="236.578984"/>
      </g>
     </g>
     <g id="text_6">
      <!-- 20 -->
      <g transform="translate(256.682535 253.456953)scale(0.13 -0.13)">
       <use xlink:href="#DejaVuSans-32"/>
       <use x="63.623047" xlink:href="#DejaVuSans-30"/>
      </g>
     </g>
    </g>
    <g id="xtick_7">
     <g id="line2d_7">
      <g>
       <use style="stroke:#000000;stroke-width:0.8;" x="307.363803" xlink:href="#m148ae8f2c1" y="236.578984"/>
      </g>
     </g>
     <g id="text_7">
      <!-- 30 -->
      <g transform="translate(299.092553 253.456953)scale(0.13 -0.13)">
       <use xlink:href="#DejaVuSans-33"/>
       <use x="63.623047" xlink:href="#DejaVuSans-30"/>
      </g>
     </g>
    </g>
    <g id="text_8">
     <!-- $x$ -->
     <defs>
      <path d="M 7.8125 2.875 
Q 9.578125 1.515625 12.796875 1.515625 
Q 15.921875 1.515625 18.3125 4.515625 
Q 20.703125 7.515625 21.578125 11.078125 
L 26.125 28.8125 
Q 27.203125 33.640625 27.203125 35.40625 
Q 27.203125 37.890625 25.8125 39.75 
Q 24.421875 41.609375 21.921875 41.609375 
Q 18.75 41.609375 15.96875 39.625 
Q 13.1875 37.640625 11.28125 34.59375 
Q 9.375 31.546875 8.59375 28.421875 
Q 8.40625 27.78125 7.8125 27.78125 
L 6.59375 27.78125 
Q 5.8125 27.78125 5.8125 28.71875 
L 5.8125 29 
Q 6.78125 32.71875 9.125 36.25 
Q 11.46875 39.796875 14.859375 41.984375 
Q 18.265625 44.1875 22.125 44.1875 
Q 25.78125 44.1875 28.734375 42.234375 
Q 31.6875 40.28125 32.90625 36.921875 
Q 34.625 39.984375 37.28125 42.078125 
Q 39.9375 44.1875 43.109375 44.1875 
Q 45.265625 44.1875 47.5 43.421875 
Q 49.75 42.671875 51.171875 41.109375 
Q 52.59375 39.546875 52.59375 37.203125 
Q 52.59375 34.671875 50.953125 32.828125 
Q 49.3125 31 46.78125 31 
Q 45.171875 31 44.09375 32.03125 
Q 43.015625 33.0625 43.015625 34.625 
Q 43.015625 36.71875 44.453125 38.296875 
Q 45.90625 39.890625 47.90625 40.1875 
Q 46.09375 41.609375 42.921875 41.609375 
Q 39.703125 41.609375 37.328125 38.625 
Q 34.96875 35.640625 33.984375 31.984375 
L 29.59375 14.3125 
Q 28.515625 10.296875 28.515625 7.71875 
Q 28.515625 5.171875 29.953125 3.34375 
Q 31.390625 1.515625 33.796875 1.515625 
Q 38.484375 1.515625 42.15625 5.640625 
Q 45.84375 9.765625 47.015625 14.703125 
Q 47.21875 15.28125 47.796875 15.28125 
L 49.03125 15.28125 
Q 49.421875 15.28125 49.65625 15.015625 
Q 49.90625 14.75 49.90625 14.40625 
Q 49.90625 14.3125 49.8125 14.109375 
Q 48.390625 8.15625 43.84375 3.515625 
Q 39.3125 -1.125 33.59375 -1.125 
Q 29.9375 -1.125 26.984375 0.84375 
Q 24.03125 2.828125 22.796875 6.203125 
Q 21.234375 3.265625 18.46875 1.0625 
Q 15.71875 -1.125 12.59375 -1.125 
Q 10.453125 -1.125 8.171875 -0.359375 
Q 5.90625 0.390625 4.484375 1.953125 
Q 3.078125 3.515625 3.078125 5.90625 
Q 3.078125 8.25 4.703125 10.171875 
Q 6.34375 12.109375 8.796875 12.109375 
Q 10.453125 12.109375 11.578125 11.109375 
Q 12.703125 10.109375 12.703125 8.5 
Q 12.703125 6.390625 11.296875 4.828125 
Q 9.90625 3.265625 7.8125 2.875 
z
" id="Cmmi10-78"/>
     </defs>
     <g transform="translate(174.33375 275.357422)scale(0.2 -0.2)">
      <use transform="translate(0 0.8125)" xlink:href="#Cmmi10-78"/>
     </g>
    </g>
   </g>
   <g id="matplotlib.axis_2">
    <g id="ytick_1">
     <g id="line2d_8">
      <defs>
       <path d="M 0 0 
L -3.5 0 
" id="m773f98bc9f" style="stroke:#000000;stroke-width:0.8;"/>
      </defs>
      <g>
       <use style="stroke:#000000;stroke-width:0.8;" x="46.89875" xlink:href="#m773f98bc9f" y="236.578984"/>
      </g>
     </g>
     <g id="text_9">
      <!-- 0 -->
      <g transform="translate(31.6275 241.517969)scale(0.13 -0.13)">
       <use xlink:href="#DejaVuSans-30"/>
      </g>
     </g>
    </g>
    <g id="ytick_2">
     <g id="line2d_9">
      <g>
       <use style="stroke:#000000;stroke-width:0.8;" x="46.89875" xlink:href="#m773f98bc9f" y="197.972318"/>
      </g>
     </g>
     <g id="text_10">
      <!-- 10 -->
      <g transform="translate(23.35625 202.911302)scale(0.13 -0.13)">
       <use xlink:href="#DejaVuSans-31"/>
       <use x="63.623047" xlink:href="#DejaVuSans-30"/>
      </g>
     </g>
    </g>
    <g id="ytick_3">
     <g id="line2d_10">
      <g>
       <use style="stroke:#000000;stroke-width:0.8;" x="46.89875" xlink:href="#m773f98bc9f" y="159.365651"/>
      </g>
     </g>
     <g id="text_11">
      <!-- 20 -->
      <g transform="translate(23.35625 164.304635)scale(0.13 -0.13)">
       <use xlink:href="#DejaVuSans-32"/>
       <use x="63.623047" xlink:href="#DejaVuSans-30"/>
      </g>
     </g>
    </g>
    <g id="ytick_4">
     <g id="line2d_11">
      <g>
       <use style="stroke:#000000;stroke-width:0.8;" x="46.89875" xlink:href="#m773f98bc9f" y="120.758984"/>
      </g>
     </g>
     <g id="text_12">
      <!-- 30 -->
      <g transform="translate(23.35625 125.697969)scale(0.13 -0.13)">
       <use xlink:href="#DejaVuSans-33"/>
       <use x="63.623047" xlink:href="#DejaVuSans-30"/>
      </g>
     </g>
    </g>
    <g id="ytick_5">
     <g id="line2d_12">
      <g>
       <use style="stroke:#000000;stroke-width:0.8;" x="46.89875" xlink:href="#m773f98bc9f" y="82.152318"/>
      </g>
     </g>
     <g id="text_13">
      <!-- 40 -->
      <defs>
       <path d="M 37.796875 64.3125 
L 12.890625 25.390625 
L 37.796875 25.390625 
z
M 35.203125 72.90625 
L 47.609375 72.90625 
L 47.609375 25.390625 
L 58.015625 25.390625 
L 58.015625 17.1875 
L 47.609375 17.1875 
L 47.609375 0 
L 37.796875 0 
L 37.796875 17.1875 
L 4.890625 17.1875 
L 4.890625 26.703125 
z
" id="DejaVuSans-34"/>
      </defs>
      <g transform="translate(23.35625 87.091302)scale(0.13 -0.13)">
       <use xlink:href="#DejaVuSans-34"/>
       <use x="63.623047" xlink:href="#DejaVuSans-30"/>
      </g>
     </g>
    </g>
    <g id="ytick_6">
     <g id="line2d_13">
      <g>
       <use style="stroke:#000000;stroke-width:0.8;" x="46.89875" xlink:href="#m773f98bc9f" y="43.545651"/>
      </g>
     </g>
     <g id="text_14">
      <!-- 50 -->
      <defs>
       <path d="M 10.796875 72.90625 
L 49.515625 72.90625 
L 49.515625 64.59375 
L 19.828125 64.59375 
L 19.828125 46.734375 
Q 21.96875 47.46875 24.109375 47.828125 
Q 26.265625 48.1875 28.421875 48.1875 
Q 40.625 48.1875 47.75 41.5 
Q 54.890625 34.8125 54.890625 23.390625 
Q 54.890625 11.625 47.5625 5.09375 
Q 40.234375 -1.421875 26.90625 -1.421875 
Q 22.3125 -1.421875 17.546875 -0.640625 
Q 12.796875 0.140625 7.71875 1.703125 
L 7.71875 11.625 
Q 12.109375 9.234375 16.796875 8.0625 
Q 21.484375 6.890625 26.703125 6.890625 
Q 35.15625 6.890625 40.078125 11.328125 
Q 45.015625 15.765625 45.015625 23.390625 
Q 45.015625 31 40.078125 35.4375 
Q 35.15625 39.890625 26.703125 39.890625 
Q 22.75 39.890625 18.8125 39.015625 
Q 14.890625 38.140625 10.796875 36.28125 
z
" id="DejaVuSans-35"/>
      </defs>
      <g transform="translate(23.35625 48.484635)scale(0.13 -0.13)">
       <use xlink:href="#DejaVuSans-35"/>
       <use x="63.623047" xlink:href="#DejaVuSans-30"/>
      </g>
     </g>
    </g>
    <g id="ytick_7">
     <g id="line2d_14">
      <g>
       <use style="stroke:#000000;stroke-width:0.8;" x="46.89875" xlink:href="#m773f98bc9f" y="4.938984"/>
      </g>
     </g>
     <g id="text_15">
      <!-- 60 -->
      <defs>
       <path d="M 33.015625 40.375 
Q 26.375 40.375 22.484375 35.828125 
Q 18.609375 31.296875 18.609375 23.390625 
Q 18.609375 15.53125 22.484375 10.953125 
Q 26.375 6.390625 33.015625 6.390625 
Q 39.65625 6.390625 43.53125 10.953125 
Q 47.40625 15.53125 47.40625 23.390625 
Q 47.40625 31.296875 43.53125 35.828125 
Q 39.65625 40.375 33.015625 40.375 
z
M 52.59375 71.296875 
L 52.59375 62.3125 
Q 48.875 64.0625 45.09375 64.984375 
Q 41.3125 65.921875 37.59375 65.921875 
Q 27.828125 65.921875 22.671875 59.328125 
Q 17.53125 52.734375 16.796875 39.40625 
Q 19.671875 43.65625 24.015625 45.921875 
Q 28.375 48.1875 33.59375 48.1875 
Q 44.578125 48.1875 50.953125 41.515625 
Q 57.328125 34.859375 57.328125 23.390625 
Q 57.328125 12.15625 50.6875 5.359375 
Q 44.046875 -1.421875 33.015625 -1.421875 
Q 20.359375 -1.421875 13.671875 8.265625 
Q 6.984375 17.96875 6.984375 36.375 
Q 6.984375 53.65625 15.1875 63.9375 
Q 23.390625 74.21875 37.203125 74.21875 
Q 40.921875 74.21875 44.703125 73.484375 
Q 48.484375 72.75 52.59375 71.296875 
z
" id="DejaVuSans-36"/>
      </defs>
      <g transform="translate(23.35625 9.877969)scale(0.13 -0.13)">
       <use xlink:href="#DejaVuSans-36"/>
       <use x="63.623047" xlink:href="#DejaVuSans-30"/>
      </g>
     </g>
    </g>
    <g id="text_16">
     <!-- $y$ -->
     <defs>
      <path d="M 8.40625 -14.3125 
Q 10.5 -17.921875 15.71875 -17.921875 
Q 20.453125 -17.921875 23.921875 -14.59375 
Q 27.390625 -11.28125 29.515625 -6.5625 
Q 31.640625 -1.859375 32.8125 3.078125 
Q 28.375 -1.125 23.1875 -1.125 
Q 19.234375 -1.125 16.453125 0.234375 
Q 13.671875 1.609375 12.125 4.3125 
Q 10.59375 7.03125 10.59375 10.890625 
Q 10.59375 14.15625 11.46875 17.59375 
Q 12.359375 21.046875 13.9375 25.265625 
Q 15.53125 29.5 16.703125 32.625 
Q 18.015625 36.28125 18.015625 38.625 
Q 18.015625 41.609375 15.828125 41.609375 
Q 11.859375 41.609375 9.296875 37.53125 
Q 6.734375 33.453125 5.515625 28.421875 
Q 5.328125 27.78125 4.6875 27.78125 
L 3.515625 27.78125 
Q 2.6875 27.78125 2.6875 28.71875 
L 2.6875 29 
Q 4.296875 34.96875 7.609375 39.578125 
Q 10.9375 44.1875 16.015625 44.1875 
Q 19.578125 44.1875 22.046875 41.84375 
Q 24.515625 39.5 24.515625 35.890625 
Q 24.515625 34.03125 23.6875 31.984375 
Q 23.25 30.765625 21.6875 26.65625 
Q 20.125 22.5625 19.28125 19.875 
Q 18.453125 17.1875 17.921875 14.59375 
Q 17.390625 12.015625 17.390625 9.421875 
Q 17.390625 6.109375 18.796875 3.8125 
Q 20.21875 1.515625 23.296875 1.515625 
Q 29.5 1.515625 34.421875 9.078125 
L 42 39.890625 
Q 42.328125 41.21875 43.546875 42.15625 
Q 44.78125 43.109375 46.1875 43.109375 
Q 47.40625 43.109375 48.3125 42.328125 
Q 49.21875 41.546875 49.21875 40.28125 
Q 49.21875 39.703125 49.125 39.5 
L 39.203125 -0.296875 
Q 37.890625 -5.421875 34.375 -10.109375 
Q 30.859375 -14.796875 25.90625 -17.65625 
Q 20.953125 -20.515625 15.578125 -20.515625 
Q 12.984375 -20.515625 10.4375 -19.5 
Q 7.90625 -18.5 6.34375 -16.5 
Q 4.78125 -14.5 4.78125 -11.8125 
Q 4.78125 -9.078125 6.390625 -7.078125 
Q 8.015625 -5.078125 10.6875 -5.078125 
Q 12.3125 -5.078125 13.40625 -6.078125 
Q 14.5 -7.078125 14.5 -8.6875 
Q 14.5 -10.984375 12.78125 -12.6875 
Q 11.078125 -14.40625 8.796875 -14.40625 
Q 8.6875 -14.359375 8.59375 -14.328125 
Q 8.5 -14.3125 8.40625 -14.3125 
z
" id="Cmmi10-79"/>
     </defs>
     <g transform="translate(15.15625 125.758984)rotate(-90)scale(0.2 -0.2)">
      <use transform="translate(0 0.8125)" xlink:href="#Cmmi10-79"/>
     </g>
    </g>
   </g>
   <g id="line2d_15">
    <path clip-path="url(#p3968012748)" d="M 46.89875 242.045405 
L 49.909861 236.787819 
L 51.521442 234.414307 
L 52.878562 232.791 
L 54.108453 231.653784 
L 55.253523 230.882786 
L 56.398594 230.369529 
L 57.628484 230.061231 
L 59.112835 229.928242 
L 63.184197 229.702849 
L 64.414087 229.325091 
L 65.559158 228.73229 
L 66.661818 227.910068 
L 67.849299 226.734805 
L 69.121599 225.151175 
L 70.60595 222.931208 
L 72.599221 219.504273 
L 76.882633 212.016724 
L 78.451803 209.787502 
L 79.766514 208.285424 
L 80.996404 207.211581 
L 82.141475 206.497108 
L 83.328955 206.020955 
L 84.601256 205.756489 
L 86.255246 205.661429 
L 89.393588 205.526172 
L 90.665888 205.215988 
L 91.810959 204.708419 
L 92.913619 203.977003 
L 94.05869 202.945612 
L 95.28858 201.529051 
L 96.688111 199.56061 
L 98.426921 196.699728 
L 104.491554 186.340785 
L 105.891085 184.582052 
L 107.120975 183.37089 
L 108.308456 182.506952 
L 109.453526 181.942462 
L 110.683417 181.589726 
L 112.125357 181.424771 
L 116.875279 181.092371 
L 118.06276 180.653765 
L 119.16542 180.010792 
L 120.310491 179.076048 
L 121.497971 177.811457 
L 122.812682 176.0788 
L 124.381852 173.625328 
L 126.671993 169.578937 
L 129.852745 164.012952 
L 131.464325 161.639948 
L 132.821446 160.01716 
L 134.051336 158.880439 
L 135.196407 158.109886 
L 136.341477 157.597026 
L 137.571368 157.289068 
L 139.055718 157.156331 
L 143.12708 156.930595 
L 144.356971 156.552467 
L 145.502041 155.95925 
L 146.604702 155.136591 
L 147.792182 153.960851 
L 149.064483 152.376745 
L 150.548833 150.156322 
L 152.542104 146.729035 
L 156.825516 139.241947 
L 158.394686 137.013246 
L 159.709397 135.511679 
L 160.939288 134.438331 
L 162.084358 133.724297 
L 163.271839 133.248539 
L 164.544139 132.984398 
L 166.19813 132.889559 
L 169.336471 132.754025 
L 170.608772 132.443493 
L 171.753842 131.935528 
L 172.856503 131.203685 
L 174.001573 130.171832 
L 175.231464 128.754793 
L 176.630994 126.785882 
L 178.369805 123.924593 
L 184.392027 113.625482 
L 185.791558 111.855572 
L 187.063858 110.597431 
L 188.251339 109.733962 
L 189.396409 109.169882 
L 190.6263 108.817506 
L 192.068241 108.652827 
L 196.818163 108.320008 
L 198.005643 107.881018 
L 199.108303 107.237631 
L 200.253374 106.302427 
L 201.440854 105.037365 
L 202.755565 103.304235 
L 204.324736 100.850327 
L 206.614877 96.803657 
L 209.795628 91.238086 
L 211.407209 88.865589 
L 212.764329 87.243319 
L 213.99422 86.107094 
L 215.13929 85.336987 
L 216.284361 84.824524 
L 217.514251 84.516906 
L 218.998602 84.384421 
L 223.069963 84.15834 
L 224.299854 83.779843 
L 225.444924 83.186209 
L 226.547585 82.363113 
L 227.735065 81.186896 
L 229.007366 79.602314 
L 230.491717 77.381436 
L 232.484987 73.953796 
L 236.768399 66.46717 
L 238.33757 64.238991 
L 239.65228 62.737936 
L 240.882171 61.665083 
L 242.027241 60.951486 
L 243.214722 60.476125 
L 244.487022 60.212307 
L 246.141013 60.117689 
L 249.279354 59.981877 
L 250.551655 59.670998 
L 251.696725 59.162637 
L 252.799386 58.430365 
L 253.944456 57.398051 
L 255.174347 55.980535 
L 256.573877 54.011152 
L 258.312688 51.149458 
L 264.334911 40.850996 
L 265.734441 39.081604 
L 267.006742 37.823973 
L 268.194222 36.960973 
L 269.339293 36.397302 
L 270.569183 36.045286 
L 272.011124 35.880884 
L 276.761046 35.547645 
L 277.948526 35.108271 
L 279.051187 34.464468 
L 280.196257 33.528806 
L 281.383738 32.263272 
L 282.698448 30.52967 
L 284.267619 28.075325 
L 286.55776 24.028378 
L 289.738511 18.46322 
L 291.350092 16.091231 
L 292.707213 14.46948 
L 293.937103 13.33375 
L 295.082173 12.564088 
L 296.227244 12.052022 
L 297.457134 11.744744 
L 298.941485 11.612511 
L 303.012847 11.386085 
L 304.242737 11.007217 
L 305.387808 10.413167 
L 306.490468 9.589634 
L 307.677949 8.412941 
L 308.950249 6.827883 
L 310.4346 4.606549 
L 312.427871 1.178557 
L 313.360891 -0.513128 
L 313.360891 -0.513128 
" style="fill:none;stroke:#0072b2;stroke-linecap:square;stroke-width:1.5;"/>
   </g>
   <g id="patch_3">
    <path d="M 46.89875 236.578984 
L 46.89875 4.938984 
" style="fill:none;stroke:#000000;stroke-linecap:square;stroke-linejoin:miter;stroke-width:0.8;"/>
   </g>
   <g id="patch_4">
    <path d="M 313.36875 236.578984 
L 313.36875 4.938984 
" style="fill:none;stroke:#000000;stroke-linecap:square;stroke-linejoin:miter;stroke-width:0.8;"/>
   </g>
   <g id="patch_5">
    <path d="M 46.89875 236.578984 
L 313.36875 236.578984 
" style="fill:none;stroke:#000000;stroke-linecap:square;stroke-linejoin:miter;stroke-width:0.8;"/>
   </g>
   <g id="patch_6">
    <path d="M 46.89875 4.938984 
L 313.36875 4.938984 
" style="fill:none;stroke:#000000;stroke-linecap:square;stroke-linejoin:miter;stroke-width:0.8;"/>
   </g>
   <g id="legend_1">
    <g id="patch_7">
     <path d="M 59.49875 45.796172 
L 137.61875 45.796172 
Q 141.21875 45.796172 141.21875 42.196172 
L 141.21875 17.538984 
Q 141.21875 13.938984 137.61875 13.938984 
L 59.49875 13.938984 
Q 55.89875 13.938984 55.89875 17.538984 
L 55.89875 42.196172 
Q 55.89875 45.796172 59.49875 45.796172 
z
" style="fill:#ffffff;opacity:0.8;stroke:#cccccc;stroke-linejoin:miter;"/>
    </g>
    <g id="line2d_16">
     <path d="M 63.09875 28.516172 
L 75.69875 28.516172 
" style="fill:none;stroke:#0072b2;stroke-linecap:square;stroke-width:1.5;"/>
    </g>
    <g id="line2d_17"/>
    <g id="text_17">
     <!-- $y=???$ -->
     <defs>
      <path d="M 7.515625 13.28125 
Q 6.6875 13.28125 6.140625 13.90625 
Q 5.609375 14.546875 5.609375 15.28125 
Q 5.609375 16.109375 6.140625 16.6875 
Q 6.6875 17.28125 7.515625 17.28125 
L 70.3125 17.28125 
Q 71.046875 17.28125 71.578125 16.6875 
Q 72.125 16.109375 72.125 15.28125 
Q 72.125 14.546875 71.578125 13.90625 
Q 71.046875 13.28125 70.3125 13.28125 
z
M 7.515625 32.71875 
Q 6.6875 32.71875 6.140625 33.296875 
Q 5.609375 33.890625 5.609375 34.71875 
Q 5.609375 35.453125 6.140625 36.078125 
Q 6.6875 36.71875 7.515625 36.71875 
L 70.3125 36.71875 
Q 71.046875 36.71875 71.578125 36.078125 
Q 72.125 35.453125 72.125 34.71875 
Q 72.125 33.890625 71.578125 33.296875 
Q 71.046875 32.71875 70.3125 32.71875 
z
" id="Cmr10-3d"/>
      <path d="M 16.703125 5.515625 
Q 16.703125 7.765625 18.359375 9.375 
Q 20.015625 10.984375 22.21875 10.984375 
Q 23.578125 10.984375 24.890625 10.25 
Q 26.21875 9.515625 26.953125 8.203125 
Q 27.6875 6.890625 27.6875 5.515625 
Q 27.6875 3.328125 26.078125 1.65625 
Q 24.46875 0 22.21875 0 
Q 20.015625 0 18.359375 1.65625 
Q 16.703125 3.328125 16.703125 5.515625 
z
M 20.796875 19.921875 
L 20.796875 25 
Q 20.796875 31.546875 23.1875 37.84375 
Q 25.59375 44.140625 29.984375 48.6875 
Q 31.453125 50.25 32.125 52.421875 
Q 32.8125 54.59375 32.8125 56.984375 
Q 32.8125 61.078125 31.875 63.421875 
Q 30.953125 65.765625 28.65625 66.84375 
Q 26.375 67.921875 22.21875 67.921875 
Q 18.359375 67.921875 15.015625 66.359375 
Q 11.671875 64.796875 9.8125 61.71875 
L 10.40625 61.71875 
Q 12.40625 61.71875 13.796875 60.328125 
Q 15.1875 58.9375 15.1875 56.890625 
Q 15.1875 54.9375 13.765625 53.515625 
Q 12.359375 52.09375 10.40625 52.09375 
Q 8.453125 52.09375 7.03125 53.515625 
Q 5.609375 54.9375 5.609375 56.890625 
Q 5.609375 60.984375 8.03125 64.078125 
Q 10.453125 67.1875 14.3125 68.84375 
Q 18.171875 70.515625 22.21875 70.515625 
Q 26.953125 70.515625 31.375 69.265625 
Q 35.796875 68.015625 38.640625 64.9375 
Q 41.5 61.859375 41.5 56.890625 
Q 41.5 53.953125 40.125 51.234375 
Q 38.765625 48.53125 36.28125 46.78125 
Q 30.5625 42.78125 27.125 37.015625 
Q 23.6875 31.25 23.6875 24.8125 
L 23.6875 19.921875 
Q 23.6875 19.578125 23.390625 19.28125 
Q 23.09375 19 22.796875 19 
L 21.578125 19 
Q 21.34375 19 21.0625 19.3125 
Q 20.796875 19.625 20.796875 19.921875 
z
" id="Cmr10-3f"/>
     </defs>
     <g transform="translate(79.29875 34.816172)scale(0.18 -0.18)">
      <use transform="translate(0 0.484375)" xlink:href="#Cmmi10-79"/>
      <use transform="translate(66.582031 0.484375)" xlink:href="#Cmr10-3d"/>
      <use transform="translate(161.826172 0.484375)" xlink:href="#Cmr10-3f"/>
      <use transform="translate(209.042969 0.484375)" xlink:href="#Cmr10-3f"/>
      <use transform="translate(256.259766 0.484375)" xlink:href="#Cmr10-3f"/>
     </g>
    </g>
   </g>
  </g>
 </g>
 <defs>
  <clipPath id="p3968012748">
   <rect height="231.64" width="266.47" x="46.89875" y="4.938984"/>
  </clipPath>
 </defs>
</svg>
