<?xml version="1.0" encoding="utf-8" standalone="no"?>
<!DOCTYPE svg PUBLIC "-//W3C//DTD SVG 1.1//EN"
  "http://www.w3.org/Graphics/SVG/1.1/DTD/svg11.dtd">
<!-- Created with matplotlib (http://matplotlib.org/) -->
<svg height="206.421562pt" version="1.1" viewBox="0 0 242.765 206.421562" width="242.765pt" xmlns="http://www.w3.org/2000/svg" xmlns:xlink="http://www.w3.org/1999/xlink">
 <defs>
  <style type="text/css">
*{stroke-linecap:butt;stroke-linejoin:round;}
  </style>
 </defs>
 <g id="figure_1">
  <g id="patch_1">
   <path d="M 0 206.421562 
L 242.765 206.421562 
L 242.765 0 
L 0 0 
z
" style="fill:#ffffff;"/>
  </g>
  <g id="axes_1">
   <g id="patch_2">
    <path d="M 57.665 169.26 
L 239.265 169.26 
L 239.265 3.5 
L 57.665 3.5 
z
" style="fill:#ffffff;"/>
   </g>
   <g id="patch_3">
    <path clip-path="url(#pe1be5c9c5d)" d="M 153.417727 157.771683 
L 156.719545 157.279327 
L 156.719545 157.771601 
L 173.228636 157.771601 
L 173.228636 157.771765 
L 156.719545 157.771765 
L 156.719545 158.26404 
z
" style="fill:#0072b2;stroke:#000000;stroke-linejoin:miter;stroke-width:0.8;"/>
   </g>
   <g id="matplotlib.axis_1">
    <g id="xtick_1">
     <g id="line2d_1">
      <defs>
       <path d="M 0 0 
L 0 3.5 
" id="mf95a8fb057" style="stroke:#000000;stroke-width:0.8;"/>
      </defs>
      <g>
       <use style="stroke:#000000;stroke-width:0.8;" x="107.192273" xlink:href="#mf95a8fb057" y="169.26"/>
      </g>
     </g>
     <g id="text_1">
      <!-- 800 -->
      <defs>
       <path d="M 31.78125 34.625 
Q 24.75 34.625 20.71875 30.859375 
Q 16.703125 27.09375 16.703125 20.515625 
Q 16.703125 13.921875 20.71875 10.15625 
Q 24.75 6.390625 31.78125 6.390625 
Q 38.8125 6.390625 42.859375 10.171875 
Q 46.921875 13.96875 46.921875 20.515625 
Q 46.921875 27.09375 42.890625 30.859375 
Q 38.875 34.625 31.78125 34.625 
z
M 21.921875 38.8125 
Q 15.578125 40.375 12.03125 44.71875 
Q 8.5 49.078125 8.5 55.328125 
Q 8.5 64.0625 14.71875 69.140625 
Q 20.953125 74.21875 31.78125 74.21875 
Q 42.671875 74.21875 48.875 69.140625 
Q 55.078125 64.0625 55.078125 55.328125 
Q 55.078125 49.078125 51.53125 44.71875 
Q 48 40.375 41.703125 38.8125 
Q 48.828125 37.15625 52.796875 32.3125 
Q 56.78125 27.484375 56.78125 20.515625 
Q 56.78125 9.90625 50.3125 4.234375 
Q 43.84375 -1.421875 31.78125 -1.421875 
Q 19.734375 -1.421875 13.25 4.234375 
Q 6.78125 9.90625 6.78125 20.515625 
Q 6.78125 27.484375 10.78125 32.3125 
Q 14.796875 37.15625 21.921875 38.8125 
z
M 18.3125 54.390625 
Q 18.3125 48.734375 21.84375 45.5625 
Q 25.390625 42.390625 31.78125 42.390625 
Q 38.140625 42.390625 41.71875 45.5625 
Q 45.3125 48.734375 45.3125 54.390625 
Q 45.3125 60.0625 41.71875 63.234375 
Q 38.140625 66.40625 31.78125 66.40625 
Q 25.390625 66.40625 21.84375 63.234375 
Q 18.3125 60.0625 18.3125 54.390625 
z
" id="DejaVuSans-38"/>
       <path d="M 31.78125 66.40625 
Q 24.171875 66.40625 20.328125 58.90625 
Q 16.5 51.421875 16.5 36.375 
Q 16.5 21.390625 20.328125 13.890625 
Q 24.171875 6.390625 31.78125 6.390625 
Q 39.453125 6.390625 43.28125 13.890625 
Q 47.125 21.390625 47.125 36.375 
Q 47.125 51.421875 43.28125 58.90625 
Q 39.453125 66.40625 31.78125 66.40625 
z
M 31.78125 74.21875 
Q 44.046875 74.21875 50.515625 64.515625 
Q 56.984375 54.828125 56.984375 36.375 
Q 56.984375 17.96875 50.515625 8.265625 
Q 44.046875 -1.421875 31.78125 -1.421875 
Q 19.53125 -1.421875 13.0625 8.265625 
Q 6.59375 17.96875 6.59375 36.375 
Q 6.59375 54.828125 13.0625 64.515625 
Q 19.53125 74.21875 31.78125 74.21875 
z
" id="DejaVuSans-30"/>
      </defs>
      <g transform="translate(94.785398 186.137969)scale(0.13 -0.13)">
       <use xlink:href="#DejaVuSans-38"/>
       <use x="63.623047" xlink:href="#DejaVuSans-30"/>
       <use x="127.246094" xlink:href="#DejaVuSans-30"/>
      </g>
     </g>
    </g>
    <g id="xtick_2">
     <g id="line2d_2">
      <g>
       <use style="stroke:#000000;stroke-width:0.8;" x="189.737727" xlink:href="#mf95a8fb057" y="169.26"/>
      </g>
     </g>
     <g id="text_2">
      <!-- 900 -->
      <defs>
       <path d="M 10.984375 1.515625 
L 10.984375 10.5 
Q 14.703125 8.734375 18.5 7.8125 
Q 22.3125 6.890625 25.984375 6.890625 
Q 35.75 6.890625 40.890625 13.453125 
Q 46.046875 20.015625 46.78125 33.40625 
Q 43.953125 29.203125 39.59375 26.953125 
Q 35.25 24.703125 29.984375 24.703125 
Q 19.046875 24.703125 12.671875 31.3125 
Q 6.296875 37.9375 6.296875 49.421875 
Q 6.296875 60.640625 12.9375 67.421875 
Q 19.578125 74.21875 30.609375 74.21875 
Q 43.265625 74.21875 49.921875 64.515625 
Q 56.59375 54.828125 56.59375 36.375 
Q 56.59375 19.140625 48.40625 8.859375 
Q 40.234375 -1.421875 26.421875 -1.421875 
Q 22.703125 -1.421875 18.890625 -0.6875 
Q 15.09375 0.046875 10.984375 1.515625 
z
M 30.609375 32.421875 
Q 37.25 32.421875 41.125 36.953125 
Q 45.015625 41.5 45.015625 49.421875 
Q 45.015625 57.28125 41.125 61.84375 
Q 37.25 66.40625 30.609375 66.40625 
Q 23.96875 66.40625 20.09375 61.84375 
Q 16.21875 57.28125 16.21875 49.421875 
Q 16.21875 41.5 20.09375 36.953125 
Q 23.96875 32.421875 30.609375 32.421875 
z
" id="DejaVuSans-39"/>
      </defs>
      <g transform="translate(177.330852 186.137969)scale(0.13 -0.13)">
       <use xlink:href="#DejaVuSans-39"/>
       <use x="63.623047" xlink:href="#DejaVuSans-30"/>
       <use x="127.246094" xlink:href="#DejaVuSans-30"/>
      </g>
     </g>
    </g>
    <g id="text_3">
     <!-- SqFeet (${\bf x}$) -->
     <defs>
      <path d="M 53.515625 70.515625 
L 53.515625 60.890625 
Q 47.90625 63.578125 42.921875 64.890625 
Q 37.9375 66.21875 33.296875 66.21875 
Q 25.25 66.21875 20.875 63.09375 
Q 16.5 59.96875 16.5 54.203125 
Q 16.5 49.359375 19.40625 46.890625 
Q 22.3125 44.4375 30.421875 42.921875 
L 36.375 41.703125 
Q 47.40625 39.59375 52.65625 34.296875 
Q 57.90625 29 57.90625 20.125 
Q 57.90625 9.515625 50.796875 4.046875 
Q 43.703125 -1.421875 29.984375 -1.421875 
Q 24.8125 -1.421875 18.96875 -0.25 
Q 13.140625 0.921875 6.890625 3.21875 
L 6.890625 13.375 
Q 12.890625 10.015625 18.65625 8.296875 
Q 24.421875 6.59375 29.984375 6.59375 
Q 38.421875 6.59375 43.015625 9.90625 
Q 47.609375 13.234375 47.609375 19.390625 
Q 47.609375 24.75 44.3125 27.78125 
Q 41.015625 30.8125 33.5 32.328125 
L 27.484375 33.5 
Q 16.453125 35.6875 11.515625 40.375 
Q 6.59375 45.0625 6.59375 53.421875 
Q 6.59375 63.09375 13.40625 68.65625 
Q 20.21875 74.21875 32.171875 74.21875 
Q 37.3125 74.21875 42.625 73.28125 
Q 47.953125 72.359375 53.515625 70.515625 
z
" id="DejaVuSans-53"/>
      <path d="M 14.796875 27.296875 
Q 14.796875 17.390625 18.875 11.75 
Q 22.953125 6.109375 30.078125 6.109375 
Q 37.203125 6.109375 41.296875 11.75 
Q 45.40625 17.390625 45.40625 27.296875 
Q 45.40625 37.203125 41.296875 42.84375 
Q 37.203125 48.484375 30.078125 48.484375 
Q 22.953125 48.484375 18.875 42.84375 
Q 14.796875 37.203125 14.796875 27.296875 
z
M 45.40625 8.203125 
Q 42.578125 3.328125 38.25 0.953125 
Q 33.9375 -1.421875 27.875 -1.421875 
Q 17.96875 -1.421875 11.734375 6.484375 
Q 5.515625 14.40625 5.515625 27.296875 
Q 5.515625 40.1875 11.734375 48.09375 
Q 17.96875 56 27.875 56 
Q 33.9375 56 38.25 53.625 
Q 42.578125 51.265625 45.40625 46.390625 
L 45.40625 54.6875 
L 54.390625 54.6875 
L 54.390625 -20.796875 
L 45.40625 -20.796875 
z
" id="DejaVuSans-71"/>
      <path d="M 9.8125 72.90625 
L 51.703125 72.90625 
L 51.703125 64.59375 
L 19.671875 64.59375 
L 19.671875 43.109375 
L 48.578125 43.109375 
L 48.578125 34.8125 
L 19.671875 34.8125 
L 19.671875 0 
L 9.8125 0 
z
" id="DejaVuSans-46"/>
      <path d="M 56.203125 29.59375 
L 56.203125 25.203125 
L 14.890625 25.203125 
Q 15.484375 15.921875 20.484375 11.0625 
Q 25.484375 6.203125 34.421875 6.203125 
Q 39.59375 6.203125 44.453125 7.46875 
Q 49.3125 8.734375 54.109375 11.28125 
L 54.109375 2.78125 
Q 49.265625 0.734375 44.1875 -0.34375 
Q 39.109375 -1.421875 33.890625 -1.421875 
Q 20.796875 -1.421875 13.15625 6.1875 
Q 5.515625 13.8125 5.515625 26.8125 
Q 5.515625 40.234375 12.765625 48.109375 
Q 20.015625 56 32.328125 56 
Q 43.359375 56 49.78125 48.890625 
Q 56.203125 41.796875 56.203125 29.59375 
z
M 47.21875 32.234375 
Q 47.125 39.59375 43.09375 43.984375 
Q 39.0625 48.390625 32.421875 48.390625 
Q 24.90625 48.390625 20.390625 44.140625 
Q 15.875 39.890625 15.1875 32.171875 
z
" id="DejaVuSans-65"/>
      <path d="M 18.3125 70.21875 
L 18.3125 54.6875 
L 36.8125 54.6875 
L 36.8125 47.703125 
L 18.3125 47.703125 
L 18.3125 18.015625 
Q 18.3125 11.328125 20.140625 9.421875 
Q 21.96875 7.515625 27.59375 7.515625 
L 36.8125 7.515625 
L 36.8125 0 
L 27.59375 0 
Q 17.1875 0 13.234375 3.875 
Q 9.28125 7.765625 9.28125 18.015625 
L 9.28125 47.703125 
L 2.6875 47.703125 
L 2.6875 54.6875 
L 9.28125 54.6875 
L 9.28125 70.21875 
z
" id="DejaVuSans-74"/>
      <path id="DejaVuSans-20"/>
      <path d="M 31 75.875 
Q 24.46875 64.65625 21.28125 53.65625 
Q 18.109375 42.671875 18.109375 31.390625 
Q 18.109375 20.125 21.3125 9.0625 
Q 24.515625 -2 31 -13.1875 
L 23.1875 -13.1875 
Q 15.875 -1.703125 12.234375 9.375 
Q 8.59375 20.453125 8.59375 31.390625 
Q 8.59375 42.28125 12.203125 53.3125 
Q 15.828125 64.359375 23.1875 75.875 
z
" id="DejaVuSans-28"/>
      <path d="M 1.703125 0 
L 1.703125 5.078125 
Q 9.8125 5.078125 10.59375 6 
L 21.578125 21.09375 
L 9.1875 39.3125 
L 2.203125 39.3125 
L 2.203125 44.390625 
L 25.09375 44.390625 
L 25.09375 39.3125 
L 20.796875 39.3125 
L 27.59375 29.390625 
L 34.078125 38.484375 
Q 34.078125 38.921875 32.375 39.109375 
Q 30.671875 39.3125 29.5 39.3125 
L 29.5 44.390625 
L 49.3125 44.390625 
L 49.3125 39.3125 
Q 41.21875 39.3125 40.375 38.375 
L 30.609375 24.90625 
L 44 5.078125 
L 51.125 5.078125 
L 51.125 0 
L 28.078125 0 
L 28.078125 5.078125 
L 32.421875 5.078125 
L 24.609375 16.609375 
L 16.890625 5.90625 
Q 16.890625 5.5625 18.640625 5.3125 
Q 20.40625 5.078125 21.578125 5.078125 
L 21.578125 0 
z
" id="Cmb10-78"/>
      <path d="M 8.015625 75.875 
L 15.828125 75.875 
Q 23.140625 64.359375 26.78125 53.3125 
Q 30.421875 42.28125 30.421875 31.390625 
Q 30.421875 20.453125 26.78125 9.375 
Q 23.140625 -1.703125 15.828125 -13.1875 
L 8.015625 -13.1875 
Q 14.5 -2 17.703125 9.0625 
Q 20.90625 20.125 20.90625 31.390625 
Q 20.90625 42.671875 17.703125 53.65625 
Q 14.5 64.65625 8.015625 75.875 
z
" id="DejaVuSans-29"/>
     </defs>
     <g transform="translate(112.765 203.481562)scale(0.14 -0.14)">
      <use transform="translate(0 0.125)" xlink:href="#DejaVuSans-53"/>
      <use transform="translate(63.476562 0.125)" xlink:href="#DejaVuSans-71"/>
      <use transform="translate(126.953125 0.125)" xlink:href="#DejaVuSans-46"/>
      <use transform="translate(184.472656 0.125)" xlink:href="#DejaVuSans-65"/>
      <use transform="translate(245.996094 0.125)" xlink:href="#DejaVuSans-65"/>
      <use transform="translate(307.519531 0.125)" xlink:href="#DejaVuSans-74"/>
      <use transform="translate(346.728516 0.125)" xlink:href="#DejaVuSans-20"/>
      <use transform="translate(378.515625 0.125)" xlink:href="#DejaVuSans-28"/>
      <use transform="translate(417.529297 0.125)" xlink:href="#Cmb10-78"/>
      <use transform="translate(470.214844 0.125)" xlink:href="#DejaVuSans-29"/>
     </g>
    </g>
   </g>
   <g id="matplotlib.axis_2">
    <g id="ytick_1">
     <g id="line2d_3">
      <defs>
       <path d="M 0 0 
L -3.5 0 
" id="m44c2a0af94" style="stroke:#000000;stroke-width:0.8;"/>
      </defs>
      <g>
       <use style="stroke:#000000;stroke-width:0.8;" x="57.665" xlink:href="#m44c2a0af94" y="138.077426"/>
      </g>
     </g>
     <g id="text_4">
      <!-- 1200 -->
      <defs>
       <path d="M 12.40625 8.296875 
L 28.515625 8.296875 
L 28.515625 63.921875 
L 10.984375 60.40625 
L 10.984375 69.390625 
L 28.421875 72.90625 
L 38.28125 72.90625 
L 38.28125 8.296875 
L 54.390625 8.296875 
L 54.390625 0 
L 12.40625 0 
z
" id="DejaVuSans-31"/>
       <path d="M 19.1875 8.296875 
L 53.609375 8.296875 
L 53.609375 0 
L 7.328125 0 
L 7.328125 8.296875 
Q 12.9375 14.109375 22.625 23.890625 
Q 32.328125 33.6875 34.8125 36.53125 
Q 39.546875 41.84375 41.421875 45.53125 
Q 43.3125 49.21875 43.3125 52.78125 
Q 43.3125 58.59375 39.234375 62.25 
Q 35.15625 65.921875 28.609375 65.921875 
Q 23.96875 65.921875 18.8125 64.3125 
Q 13.671875 62.703125 7.8125 59.421875 
L 7.8125 69.390625 
Q 13.765625 71.78125 18.9375 73 
Q 24.125 74.21875 28.421875 74.21875 
Q 39.75 74.21875 46.484375 68.546875 
Q 53.21875 62.890625 53.21875 53.421875 
Q 53.21875 48.921875 51.53125 44.890625 
Q 49.859375 40.875 45.40625 35.40625 
Q 44.1875 33.984375 37.640625 27.21875 
Q 31.109375 20.453125 19.1875 8.296875 
z
" id="DejaVuSans-32"/>
      </defs>
      <g transform="translate(17.58 143.01641)scale(0.13 -0.13)">
       <use xlink:href="#DejaVuSans-31"/>
       <use x="63.623047" xlink:href="#DejaVuSans-32"/>
       <use x="127.246094" xlink:href="#DejaVuSans-30"/>
       <use x="190.869141" xlink:href="#DejaVuSans-30"/>
      </g>
     </g>
    </g>
    <g id="ytick_2">
     <g id="line2d_4">
      <g>
       <use style="stroke:#000000;stroke-width:0.8;" x="57.665" xlink:href="#m44c2a0af94" y="105.253663"/>
      </g>
     </g>
     <g id="text_5">
      <!-- 1400 -->
      <defs>
       <path d="M 37.796875 64.3125 
L 12.890625 25.390625 
L 37.796875 25.390625 
z
M 35.203125 72.90625 
L 47.609375 72.90625 
L 47.609375 25.390625 
L 58.015625 25.390625 
L 58.015625 17.1875 
L 47.609375 17.1875 
L 47.609375 0 
L 37.796875 0 
L 37.796875 17.1875 
L 4.890625 17.1875 
L 4.890625 26.703125 
z
" id="DejaVuSans-34"/>
      </defs>
      <g transform="translate(17.58 110.192648)scale(0.13 -0.13)">
       <use xlink:href="#DejaVuSans-31"/>
       <use x="63.623047" xlink:href="#DejaVuSans-34"/>
       <use x="127.246094" xlink:href="#DejaVuSans-30"/>
       <use x="190.869141" xlink:href="#DejaVuSans-30"/>
      </g>
     </g>
    </g>
    <g id="ytick_3">
     <g id="line2d_5">
      <g>
       <use style="stroke:#000000;stroke-width:0.8;" x="57.665" xlink:href="#m44c2a0af94" y="72.429901"/>
      </g>
     </g>
     <g id="text_6">
      <!-- 1600 -->
      <defs>
       <path d="M 33.015625 40.375 
Q 26.375 40.375 22.484375 35.828125 
Q 18.609375 31.296875 18.609375 23.390625 
Q 18.609375 15.53125 22.484375 10.953125 
Q 26.375 6.390625 33.015625 6.390625 
Q 39.65625 6.390625 43.53125 10.953125 
Q 47.40625 15.53125 47.40625 23.390625 
Q 47.40625 31.296875 43.53125 35.828125 
Q 39.65625 40.375 33.015625 40.375 
z
M 52.59375 71.296875 
L 52.59375 62.3125 
Q 48.875 64.0625 45.09375 64.984375 
Q 41.3125 65.921875 37.59375 65.921875 
Q 27.828125 65.921875 22.671875 59.328125 
Q 17.53125 52.734375 16.796875 39.40625 
Q 19.671875 43.65625 24.015625 45.921875 
Q 28.375 48.1875 33.59375 48.1875 
Q 44.578125 48.1875 50.953125 41.515625 
Q 57.328125 34.859375 57.328125 23.390625 
Q 57.328125 12.15625 50.6875 5.359375 
Q 44.046875 -1.421875 33.015625 -1.421875 
Q 20.359375 -1.421875 13.671875 8.265625 
Q 6.984375 17.96875 6.984375 36.375 
Q 6.984375 53.65625 15.1875 63.9375 
Q 23.390625 74.21875 37.203125 74.21875 
Q 40.921875 74.21875 44.703125 73.484375 
Q 48.484375 72.75 52.59375 71.296875 
z
" id="DejaVuSans-36"/>
      </defs>
      <g transform="translate(17.58 77.368885)scale(0.13 -0.13)">
       <use xlink:href="#DejaVuSans-31"/>
       <use x="63.623047" xlink:href="#DejaVuSans-36"/>
       <use x="127.246094" xlink:href="#DejaVuSans-30"/>
       <use x="190.869141" xlink:href="#DejaVuSans-30"/>
      </g>
     </g>
    </g>
    <g id="ytick_4">
     <g id="line2d_6">
      <g>
       <use style="stroke:#000000;stroke-width:0.8;" x="57.665" xlink:href="#m44c2a0af94" y="39.606139"/>
      </g>
     </g>
     <g id="text_7">
      <!-- 1800 -->
      <g transform="translate(17.58 44.545123)scale(0.13 -0.13)">
       <use xlink:href="#DejaVuSans-31"/>
       <use x="63.623047" xlink:href="#DejaVuSans-38"/>
       <use x="127.246094" xlink:href="#DejaVuSans-30"/>
       <use x="190.869141" xlink:href="#DejaVuSans-30"/>
      </g>
     </g>
    </g>
    <g id="ytick_5">
     <g id="line2d_7">
      <g>
       <use style="stroke:#000000;stroke-width:0.8;" x="57.665" xlink:href="#m44c2a0af94" y="6.782376"/>
      </g>
     </g>
     <g id="text_8">
      <!-- 2000 -->
      <g transform="translate(17.58 11.721361)scale(0.13 -0.13)">
       <use xlink:href="#DejaVuSans-32"/>
       <use x="63.623047" xlink:href="#DejaVuSans-30"/>
       <use x="127.246094" xlink:href="#DejaVuSans-30"/>
       <use x="190.869141" xlink:href="#DejaVuSans-30"/>
      </g>
     </g>
    </g>
    <g id="text_9">
     <!-- Rent ($y$) -->
     <defs>
      <path d="M 44.390625 34.1875 
Q 47.5625 33.109375 50.5625 29.59375 
Q 53.5625 26.078125 56.59375 19.921875 
L 66.609375 0 
L 56 0 
L 46.6875 18.703125 
Q 43.0625 26.03125 39.671875 28.421875 
Q 36.28125 30.8125 30.421875 30.8125 
L 19.671875 30.8125 
L 19.671875 0 
L 9.8125 0 
L 9.8125 72.90625 
L 32.078125 72.90625 
Q 44.578125 72.90625 50.734375 67.671875 
Q 56.890625 62.453125 56.890625 51.90625 
Q 56.890625 45.015625 53.6875 40.46875 
Q 50.484375 35.9375 44.390625 34.1875 
z
M 19.671875 64.796875 
L 19.671875 38.921875 
L 32.078125 38.921875 
Q 39.203125 38.921875 42.84375 42.21875 
Q 46.484375 45.515625 46.484375 51.90625 
Q 46.484375 58.296875 42.84375 61.546875 
Q 39.203125 64.796875 32.078125 64.796875 
z
" id="DejaVuSans-52"/>
      <path d="M 54.890625 33.015625 
L 54.890625 0 
L 45.90625 0 
L 45.90625 32.71875 
Q 45.90625 40.484375 42.875 44.328125 
Q 39.84375 48.1875 33.796875 48.1875 
Q 26.515625 48.1875 22.3125 43.546875 
Q 18.109375 38.921875 18.109375 30.90625 
L 18.109375 0 
L 9.078125 0 
L 9.078125 54.6875 
L 18.109375 54.6875 
L 18.109375 46.1875 
Q 21.34375 51.125 25.703125 53.5625 
Q 30.078125 56 35.796875 56 
Q 45.21875 56 50.046875 50.171875 
Q 54.890625 44.34375 54.890625 33.015625 
z
" id="DejaVuSans-6e"/>
      <path d="M 8.40625 -14.3125 
Q 10.5 -17.921875 15.71875 -17.921875 
Q 20.453125 -17.921875 23.921875 -14.59375 
Q 27.390625 -11.28125 29.515625 -6.5625 
Q 31.640625 -1.859375 32.8125 3.078125 
Q 28.375 -1.125 23.1875 -1.125 
Q 19.234375 -1.125 16.453125 0.234375 
Q 13.671875 1.609375 12.125 4.3125 
Q 10.59375 7.03125 10.59375 10.890625 
Q 10.59375 14.15625 11.46875 17.59375 
Q 12.359375 21.046875 13.9375 25.265625 
Q 15.53125 29.5 16.703125 32.625 
Q 18.015625 36.28125 18.015625 38.625 
Q 18.015625 41.609375 15.828125 41.609375 
Q 11.859375 41.609375 9.296875 37.53125 
Q 6.734375 33.453125 5.515625 28.421875 
Q 5.328125 27.78125 4.6875 27.78125 
L 3.515625 27.78125 
Q 2.6875 27.78125 2.6875 28.71875 
L 2.6875 29 
Q 4.296875 34.96875 7.609375 39.578125 
Q 10.9375 44.1875 16.015625 44.1875 
Q 19.578125 44.1875 22.046875 41.84375 
Q 24.515625 39.5 24.515625 35.890625 
Q 24.515625 34.03125 23.6875 31.984375 
Q 23.25 30.765625 21.6875 26.65625 
Q 20.125 22.5625 19.28125 19.875 
Q 18.453125 17.1875 17.921875 14.59375 
Q 17.390625 12.015625 17.390625 9.421875 
Q 17.390625 6.109375 18.796875 3.8125 
Q 20.21875 1.515625 23.296875 1.515625 
Q 29.5 1.515625 34.421875 9.078125 
L 42 39.890625 
Q 42.328125 41.21875 43.546875 42.15625 
Q 44.78125 43.109375 46.1875 43.109375 
Q 47.40625 43.109375 48.3125 42.328125 
Q 49.21875 41.546875 49.21875 40.28125 
Q 49.21875 39.703125 49.125 39.5 
L 39.203125 -0.296875 
Q 37.890625 -5.421875 34.375 -10.109375 
Q 30.859375 -14.796875 25.90625 -17.65625 
Q 20.953125 -20.515625 15.578125 -20.515625 
Q 12.984375 -20.515625 10.4375 -19.5 
Q 7.90625 -18.5 6.34375 -16.5 
Q 4.78125 -14.5 4.78125 -11.8125 
Q 4.78125 -9.078125 6.390625 -7.078125 
Q 8.015625 -5.078125 10.6875 -5.078125 
Q 12.3125 -5.078125 13.40625 -6.078125 
Q 14.5 -7.078125 14.5 -8.6875 
Q 14.5 -10.984375 12.78125 -12.6875 
Q 11.078125 -14.40625 8.796875 -14.40625 
Q 8.6875 -14.359375 8.59375 -14.328125 
Q 8.5 -14.3125 8.40625 -14.3125 
z
" id="Cmmi10-79"/>
     </defs>
     <g transform="translate(10.64 113.89)rotate(-90)scale(0.14 -0.14)">
      <use transform="translate(0 0.125)" xlink:href="#DejaVuSans-52"/>
      <use transform="translate(69.482422 0.125)" xlink:href="#DejaVuSans-65"/>
      <use transform="translate(131.005859 0.125)" xlink:href="#DejaVuSans-6e"/>
      <use transform="translate(194.384766 0.125)" xlink:href="#DejaVuSans-74"/>
      <use transform="translate(233.59375 0.125)" xlink:href="#DejaVuSans-20"/>
      <use transform="translate(265.380859 0.125)" xlink:href="#DejaVuSans-28"/>
      <use transform="translate(304.394531 0.125)" xlink:href="#Cmmi10-79"/>
      <use transform="translate(353.417969 0.125)" xlink:href="#DejaVuSans-29"/>
     </g>
    </g>
   </g>
   <g id="line2d_8">
    <defs>
     <path d="M 0 2 
C 0.530406 2 1.03916 1.789267 1.414214 1.414214 
C 1.789267 1.03916 2 0.530406 2 0 
C 2 -0.530406 1.789267 -1.03916 1.414214 -1.414214 
C 1.03916 -1.789267 0.530406 -2 0 -2 
C -0.530406 -2 -1.03916 -1.789267 -1.414214 -1.414214 
C -1.789267 -1.03916 -2 -0.530406 -2 0 
C -2 0.530406 -1.789267 1.03916 -1.414214 1.414214 
C -1.03916 1.789267 -0.530406 2 0 2 
z
" id="mdbbae40cf4" style="stroke:#0072b2;"/>
    </defs>
    <g clip-path="url(#pe1be5c9c5d)">
     <use style="fill:#0072b2;stroke:#0072b2;" x="65.919545" xlink:href="#mdbbae40cf4" y="144.642178"/>
     <use style="fill:#0072b2;stroke:#0072b2;" x="107.192273" xlink:href="#mdbbae40cf4" y="138.077426"/>
     <use style="fill:#0072b2;stroke:#0072b2;" x="148.465" xlink:href="#mdbbae40cf4" y="124.947921"/>
     <use style="fill:#0072b2;stroke:#0072b2;" x="189.737727" xlink:href="#mdbbae40cf4" y="97.047723"/>
     <use style="fill:#0072b2;stroke:#0072b2;" x="231.010455" xlink:href="#mdbbae40cf4" y="6.782376"/>
    </g>
   </g>
   <g id="line2d_9">
    <path clip-path="url(#pe1be5c9c5d)" style="fill:none;stroke:#ff0000;stroke-linecap:square;stroke-width:0.8;"/>
   </g>
   <g id="line2d_10">
    <path clip-path="url(#pe1be5c9c5d)" d="M 57.665 124.947921 
L 239.265 124.947921 
" style="fill:none;stroke:#000000;stroke-dasharray:2.96,1.28;stroke-dashoffset:0;stroke-width:0.8;"/>
   </g>
   <g id="line2d_11">
    <path clip-path="url(#pe1be5c9c5d)" d="M 65.919545 124.947921 
L 65.919545 157.771683 
" style="fill:none;stroke:#ff0000;stroke-linecap:square;stroke-width:0.8;"/>
   </g>
   <g id="line2d_12">
    <path clip-path="url(#pe1be5c9c5d)" d="M 62.617727 153.635889 
L 65.919545 157.771683 
" style="fill:none;stroke:#ff0000;stroke-linecap:square;stroke-width:0.8;"/>
   </g>
   <g id="line2d_13">
    <path clip-path="url(#pe1be5c9c5d)" d="M 65.919545 157.771683 
L 69.221364 153.635889 
" style="fill:none;stroke:#ff0000;stroke-linecap:square;stroke-width:0.8;"/>
   </g>
   <g id="line2d_14">
    <path clip-path="url(#pe1be5c9c5d)" d="M 107.192273 124.947921 
L 107.192273 157.771683 
" style="fill:none;stroke:#ff0000;stroke-linecap:square;stroke-width:0.8;"/>
   </g>
   <g id="line2d_15">
    <path clip-path="url(#pe1be5c9c5d)" d="M 103.890455 153.635889 
L 107.192273 157.771683 
" style="fill:none;stroke:#ff0000;stroke-linecap:square;stroke-width:0.8;"/>
   </g>
   <g id="line2d_16">
    <path clip-path="url(#pe1be5c9c5d)" d="M 107.192273 157.771683 
L 110.494091 153.635889 
" style="fill:none;stroke:#ff0000;stroke-linecap:square;stroke-width:0.8;"/>
   </g>
   <g id="line2d_17">
    <path clip-path="url(#pe1be5c9c5d)" d="M 148.465 124.947921 
L 148.465 157.771683 
" style="fill:none;stroke:#ff0000;stroke-linecap:square;stroke-width:0.8;"/>
   </g>
   <g id="line2d_18">
    <path clip-path="url(#pe1be5c9c5d)" d="M 145.163182 153.635889 
L 148.465 157.771683 
" style="fill:none;stroke:#ff0000;stroke-linecap:square;stroke-width:0.8;"/>
   </g>
   <g id="line2d_19">
    <path clip-path="url(#pe1be5c9c5d)" d="M 148.465 157.771683 
L 151.766818 153.635889 
" style="fill:none;stroke:#ff0000;stroke-linecap:square;stroke-width:0.8;"/>
   </g>
   <g id="line2d_20">
    <path clip-path="url(#pe1be5c9c5d)" d="M 189.737727 124.947921 
L 189.737727 92.124158 
" style="fill:none;stroke:#ff0000;stroke-linecap:square;stroke-width:0.8;"/>
   </g>
   <g id="line2d_21">
    <path clip-path="url(#pe1be5c9c5d)" d="M 186.435909 96.259952 
L 189.737727 92.124158 
" style="fill:none;stroke:#ff0000;stroke-linecap:square;stroke-width:0.8;"/>
   </g>
   <g id="line2d_22">
    <path clip-path="url(#pe1be5c9c5d)" d="M 189.737727 92.124158 
L 193.039545 96.259952 
" style="fill:none;stroke:#ff0000;stroke-linecap:square;stroke-width:0.8;"/>
   </g>
   <g id="line2d_23">
    <path clip-path="url(#pe1be5c9c5d)" d="M 231.010455 124.947921 
L 231.010455 92.124158 
" style="fill:none;stroke:#ff0000;stroke-linecap:square;stroke-width:0.8;"/>
   </g>
   <g id="line2d_24">
    <path clip-path="url(#pe1be5c9c5d)" d="M 227.708636 96.259952 
L 231.010455 92.124158 
" style="fill:none;stroke:#ff0000;stroke-linecap:square;stroke-width:0.8;"/>
   </g>
   <g id="line2d_25">
    <path clip-path="url(#pe1be5c9c5d)" d="M 231.010455 92.124158 
L 234.312273 96.259952 
" style="fill:none;stroke:#ff0000;stroke-linecap:square;stroke-width:0.8;"/>
   </g>
   <g id="patch_4">
    <path d="M 57.665 169.26 
L 57.665 3.5 
" style="fill:none;stroke:#000000;stroke-linecap:square;stroke-linejoin:miter;stroke-width:0.8;"/>
   </g>
   <g id="patch_5">
    <path d="M 239.265 169.26 
L 239.265 3.5 
" style="fill:none;stroke:#000000;stroke-linecap:square;stroke-linejoin:miter;stroke-width:0.8;"/>
   </g>
   <g id="patch_6">
    <path d="M 57.665 169.26 
L 239.265 169.26 
" style="fill:none;stroke:#000000;stroke-linecap:square;stroke-linejoin:miter;stroke-width:0.8;"/>
   </g>
   <g id="patch_7">
    <path d="M 57.665 3.5 
L 239.265 3.5 
" style="fill:none;stroke:#000000;stroke-linecap:square;stroke-linejoin:miter;stroke-width:0.8;"/>
   </g>
   <g id="text_10">
    <!-- $f_0({\bf x})$ -->
    <defs>
     <path d="M 9.71875 -16.5 
Q 11.578125 -17.921875 14.203125 -17.921875 
Q 17.78125 -17.921875 20.015625 -10.015625 
Q 20.953125 -6.203125 25.09375 15.09375 
L 29.6875 39.59375 
L 21.09375 39.59375 
Q 20.125 39.59375 20.125 40.921875 
Q 20.515625 43.109375 21.390625 43.109375 
L 30.328125 43.109375 
L 31.5 49.609375 
Q 32.078125 52.640625 32.5625 54.8125 
Q 33.0625 56.984375 33.625 58.828125 
Q 34.1875 60.6875 35.296875 62.984375 
Q 37.015625 66.265625 39.921875 68.390625 
Q 42.828125 70.515625 46.1875 70.515625 
Q 48.390625 70.515625 50.46875 69.703125 
Q 52.546875 68.890625 53.859375 67.28125 
Q 55.171875 65.671875 55.171875 63.484375 
Q 55.171875 60.9375 53.484375 59.046875 
Q 51.8125 57.171875 49.421875 57.171875 
Q 47.796875 57.171875 46.65625 58.171875 
Q 45.515625 59.1875 45.515625 60.796875 
Q 45.515625 62.984375 47 64.625 
Q 48.484375 66.265625 50.6875 66.5 
Q 48.828125 67.921875 46.09375 67.921875 
Q 44.578125 67.921875 43.234375 66.5 
Q 41.890625 65.09375 41.5 63.484375 
Q 40.875 60.9375 38.71875 49.703125 
L 37.5 43.109375 
L 47.796875 43.109375 
Q 48.78125 43.109375 48.78125 41.796875 
Q 48.734375 41.546875 48.578125 40.9375 
Q 48.4375 40.328125 48.171875 39.953125 
Q 47.90625 39.59375 47.515625 39.59375 
L 36.8125 39.59375 
L 32.171875 15.1875 
Q 31.296875 9.859375 30.140625 4.359375 
Q 29 -1.125 26.921875 -6.90625 
Q 24.859375 -12.703125 21.625 -16.609375 
Q 18.40625 -20.515625 14.015625 -20.515625 
Q 10.640625 -20.515625 7.984375 -18.578125 
Q 5.328125 -16.65625 5.328125 -13.484375 
Q 5.328125 -10.9375 6.953125 -9.046875 
Q 8.59375 -7.171875 11.078125 -7.171875 
Q 12.75 -7.171875 13.859375 -8.171875 
Q 14.984375 -9.1875 14.984375 -10.796875 
Q 14.984375 -12.9375 13.390625 -14.71875 
Q 11.8125 -16.5 9.71875 -16.5 
z
" id="Cmmi10-66"/>
     <path d="M 25 -2.203125 
Q 12.75 -2.203125 8.328125 7.875 
Q 3.90625 17.96875 3.90625 31.890625 
Q 3.90625 40.578125 5.484375 48.234375 
Q 7.078125 55.90625 11.78125 61.25 
Q 16.5 66.609375 25 66.609375 
Q 31.59375 66.609375 35.78125 63.375 
Q 39.984375 60.15625 42.1875 55.046875 
Q 44.390625 49.953125 45.1875 44.109375 
Q 46 38.28125 46 31.890625 
Q 46 23.296875 44.40625 15.796875 
Q 42.828125 8.296875 38.1875 3.046875 
Q 33.546875 -2.203125 25 -2.203125 
z
M 25 0.390625 
Q 30.5625 0.390625 33.296875 6.09375 
Q 36.03125 11.8125 36.671875 18.75 
Q 37.3125 25.6875 37.3125 33.5 
Q 37.3125 41.015625 36.671875 47.359375 
Q 36.03125 53.71875 33.3125 58.859375 
Q 30.609375 64.015625 25 64.015625 
Q 19.34375 64.015625 16.609375 58.828125 
Q 13.875 53.65625 13.234375 47.328125 
Q 12.59375 41.015625 12.59375 33.5 
Q 12.59375 27.9375 12.859375 23 
Q 13.140625 18.0625 14.3125 12.8125 
Q 15.484375 7.5625 18.09375 3.96875 
Q 20.703125 0.390625 25 0.390625 
z
" id="Cmr10-30"/>
     <path d="M 31 -24.8125 
Q 25.4375 -20.40625 21.40625 -14.71875 
Q 17.390625 -9.03125 14.8125 -2.578125 
Q 12.25 3.859375 10.984375 10.890625 
Q 9.71875 17.921875 9.71875 25 
Q 9.71875 32.171875 10.984375 39.203125 
Q 12.25 46.234375 14.859375 52.734375 
Q 17.484375 59.234375 21.53125 64.890625 
Q 25.59375 70.5625 31 74.8125 
Q 31 75 31.5 75 
L 32.421875 75 
Q 32.71875 75 32.953125 74.734375 
Q 33.203125 74.46875 33.203125 74.125 
Q 33.203125 73.6875 33.015625 73.484375 
Q 28.125 68.703125 24.875 63.234375 
Q 21.625 57.765625 19.640625 51.578125 
Q 17.671875 45.40625 16.796875 38.78125 
Q 15.921875 32.171875 15.921875 25 
Q 15.921875 -6.78125 32.90625 -23.296875 
Q 33.203125 -23.578125 33.203125 -24.125 
Q 33.203125 -24.359375 32.9375 -24.671875 
Q 32.671875 -25 32.421875 -25 
L 31.5 -25 
Q 31 -25 31 -24.8125 
z
" id="Cmr10-28"/>
     <path d="M 6.5 -25 
Q 5.609375 -25 5.609375 -24.125 
Q 5.609375 -23.6875 5.8125 -23.484375 
Q 22.90625 -6.78125 22.90625 25 
Q 22.90625 56.78125 6 73.296875 
Q 5.609375 73.53125 5.609375 74.125 
Q 5.609375 74.46875 5.875 74.734375 
Q 6.15625 75 6.5 75 
L 7.421875 75 
Q 7.71875 75 7.90625 74.8125 
Q 15.09375 69.140625 19.875 61.03125 
Q 24.65625 52.9375 26.875 43.75 
Q 29.109375 34.578125 29.109375 25 
Q 29.109375 17.921875 27.90625 11.0625 
Q 26.703125 4.203125 24.09375 -2.453125 
Q 21.484375 -9.125 17.484375 -14.765625 
Q 13.484375 -20.40625 7.90625 -24.8125 
Q 7.71875 -25 7.421875 -25 
z
" id="Cmr10-29"/>
    </defs>
    <g transform="translate(107.192273 120.024356)scale(0.18 -0.18)">
     <use xlink:href="#Cmmi10-66"/>
     <use transform="translate(48.876953 -17.00625)scale(0.7)" xlink:href="#Cmr10-30"/>
     <use transform="translate(90.254297 0)" xlink:href="#Cmr10-28"/>
     <use transform="translate(129.072656 0)" xlink:href="#Cmb10-78"/>
     <use transform="translate(181.758203 0)" xlink:href="#Cmr10-29"/>
    </g>
   </g>
   <g id="text_11">
    <!-- Oops! -->
    <defs>
     <path d="M 39.40625 66.21875 
Q 28.65625 66.21875 22.328125 58.203125 
Q 16.015625 50.203125 16.015625 36.375 
Q 16.015625 22.609375 22.328125 14.59375 
Q 28.65625 6.59375 39.40625 6.59375 
Q 50.140625 6.59375 56.421875 14.59375 
Q 62.703125 22.609375 62.703125 36.375 
Q 62.703125 50.203125 56.421875 58.203125 
Q 50.140625 66.21875 39.40625 66.21875 
z
M 39.40625 74.21875 
Q 54.734375 74.21875 63.90625 63.9375 
Q 73.09375 53.65625 73.09375 36.375 
Q 73.09375 19.140625 63.90625 8.859375 
Q 54.734375 -1.421875 39.40625 -1.421875 
Q 24.03125 -1.421875 14.8125 8.828125 
Q 5.609375 19.09375 5.609375 36.375 
Q 5.609375 53.65625 14.8125 63.9375 
Q 24.03125 74.21875 39.40625 74.21875 
z
" id="DejaVuSans-4f"/>
     <path d="M 30.609375 48.390625 
Q 23.390625 48.390625 19.1875 42.75 
Q 14.984375 37.109375 14.984375 27.296875 
Q 14.984375 17.484375 19.15625 11.84375 
Q 23.34375 6.203125 30.609375 6.203125 
Q 37.796875 6.203125 41.984375 11.859375 
Q 46.1875 17.53125 46.1875 27.296875 
Q 46.1875 37.015625 41.984375 42.703125 
Q 37.796875 48.390625 30.609375 48.390625 
z
M 30.609375 56 
Q 42.328125 56 49.015625 48.375 
Q 55.71875 40.765625 55.71875 27.296875 
Q 55.71875 13.875 49.015625 6.21875 
Q 42.328125 -1.421875 30.609375 -1.421875 
Q 18.84375 -1.421875 12.171875 6.21875 
Q 5.515625 13.875 5.515625 27.296875 
Q 5.515625 40.765625 12.171875 48.375 
Q 18.84375 56 30.609375 56 
z
" id="DejaVuSans-6f"/>
     <path d="M 18.109375 8.203125 
L 18.109375 -20.796875 
L 9.078125 -20.796875 
L 9.078125 54.6875 
L 18.109375 54.6875 
L 18.109375 46.390625 
Q 20.953125 51.265625 25.265625 53.625 
Q 29.59375 56 35.59375 56 
Q 45.5625 56 51.78125 48.09375 
Q 58.015625 40.1875 58.015625 27.296875 
Q 58.015625 14.40625 51.78125 6.484375 
Q 45.5625 -1.421875 35.59375 -1.421875 
Q 29.59375 -1.421875 25.265625 0.953125 
Q 20.953125 3.328125 18.109375 8.203125 
z
M 48.6875 27.296875 
Q 48.6875 37.203125 44.609375 42.84375 
Q 40.53125 48.484375 33.40625 48.484375 
Q 26.265625 48.484375 22.1875 42.84375 
Q 18.109375 37.203125 18.109375 27.296875 
Q 18.109375 17.390625 22.1875 11.75 
Q 26.265625 6.109375 33.40625 6.109375 
Q 40.53125 6.109375 44.609375 11.75 
Q 48.6875 17.390625 48.6875 27.296875 
z
" id="DejaVuSans-70"/>
     <path d="M 44.28125 53.078125 
L 44.28125 44.578125 
Q 40.484375 46.53125 36.375 47.5 
Q 32.28125 48.484375 27.875 48.484375 
Q 21.1875 48.484375 17.84375 46.4375 
Q 14.5 44.390625 14.5 40.28125 
Q 14.5 37.15625 16.890625 35.375 
Q 19.28125 33.59375 26.515625 31.984375 
L 29.59375 31.296875 
Q 39.15625 29.25 43.1875 25.515625 
Q 47.21875 21.78125 47.21875 15.09375 
Q 47.21875 7.46875 41.1875 3.015625 
Q 35.15625 -1.421875 24.609375 -1.421875 
Q 20.21875 -1.421875 15.453125 -0.5625 
Q 10.6875 0.296875 5.421875 2 
L 5.421875 11.28125 
Q 10.40625 8.6875 15.234375 7.390625 
Q 20.0625 6.109375 24.8125 6.109375 
Q 31.15625 6.109375 34.5625 8.28125 
Q 37.984375 10.453125 37.984375 14.40625 
Q 37.984375 18.0625 35.515625 20.015625 
Q 33.0625 21.96875 24.703125 23.78125 
L 21.578125 24.515625 
Q 13.234375 26.265625 9.515625 29.90625 
Q 5.8125 33.546875 5.8125 39.890625 
Q 5.8125 47.609375 11.28125 51.796875 
Q 16.75 56 26.8125 56 
Q 31.78125 56 36.171875 55.265625 
Q 40.578125 54.546875 44.28125 53.078125 
z
" id="DejaVuSans-73"/>
     <path d="M 15.09375 12.40625 
L 25 12.40625 
L 25 0 
L 15.09375 0 
z
M 15.09375 72.90625 
L 25 72.90625 
L 25 40.921875 
L 24.03125 23.484375 
L 16.109375 23.484375 
L 15.09375 40.921875 
z
" id="DejaVuSans-21"/>
    </defs>
    <g transform="translate(175.705 160.233465)scale(0.12 -0.12)">
     <use xlink:href="#DejaVuSans-4f"/>
     <use x="78.710938" xlink:href="#DejaVuSans-6f"/>
     <use x="139.892578" xlink:href="#DejaVuSans-70"/>
     <use x="203.369141" xlink:href="#DejaVuSans-73"/>
     <use x="255.46875" xlink:href="#DejaVuSans-21"/>
    </g>
   </g>
   <g id="legend_1">
    <g id="patch_8">
     <path d="M 68.865 40.4575 
L 155.265 40.4575 
Q 158.465 40.4575 158.465 37.2575 
L 158.465 14.7 
Q 158.465 11.5 155.265 11.5 
L 68.865 11.5 
Q 65.665 11.5 65.665 14.7 
L 65.665 37.2575 
Q 65.665 40.4575 68.865 40.4575 
z
" style="fill:#ffffff;opacity:0.8;stroke:#cccccc;stroke-linejoin:miter;"/>
    </g>
    <g id="line2d_26">
     <path d="M 72.065 24.4575 
L 83.265 24.4575 
" style="fill:none;stroke:#ff0000;stroke-linecap:square;stroke-width:0.8;"/>
    </g>
    <g id="line2d_27"/>
    <g id="text_12">
     <!-- $200 \Delta_1({\bf x})$ -->
     <defs>
      <path d="M 4.984375 0 
L 4.984375 2.6875 
Q 4.984375 2.9375 5.171875 3.21875 
L 20.703125 20.40625 
Q 24.21875 24.21875 26.40625 26.796875 
Q 28.609375 29.390625 30.75 32.765625 
Q 32.90625 36.140625 34.15625 39.625 
Q 35.40625 43.109375 35.40625 47.015625 
Q 35.40625 51.125 33.890625 54.859375 
Q 32.375 58.59375 29.375 60.84375 
Q 26.375 63.09375 22.125 63.09375 
Q 17.78125 63.09375 14.3125 60.46875 
Q 10.84375 57.859375 9.421875 53.71875 
Q 9.8125 53.8125 10.5 53.8125 
Q 12.75 53.8125 14.328125 52.296875 
Q 15.921875 50.78125 15.921875 48.390625 
Q 15.921875 46.09375 14.328125 44.5 
Q 12.75 42.921875 10.5 42.921875 
Q 8.15625 42.921875 6.5625 44.546875 
Q 4.984375 46.1875 4.984375 48.390625 
Q 4.984375 52.15625 6.390625 55.4375 
Q 7.8125 58.734375 10.46875 61.296875 
Q 13.140625 63.875 16.484375 65.234375 
Q 19.828125 66.609375 23.578125 66.609375 
Q 29.296875 66.609375 34.21875 64.1875 
Q 39.15625 61.765625 42.03125 57.34375 
Q 44.921875 52.9375 44.921875 47.015625 
Q 44.921875 42.671875 43.015625 38.765625 
Q 41.109375 34.859375 38.125 31.65625 
Q 35.15625 28.46875 30.515625 24.40625 
Q 25.875 20.359375 24.421875 19 
L 13.09375 8.109375 
L 22.703125 8.109375 
Q 29.78125 8.109375 34.546875 8.21875 
Q 39.3125 8.34375 39.59375 8.59375 
Q 40.765625 9.859375 42 17.828125 
L 44.921875 17.828125 
L 42.09375 0 
z
" id="Cmr10-32"/>
      <path d="M 5.421875 0 
Q 4.59375 0 4.59375 0.78125 
Q 4.640625 0.875 4.65625 0.921875 
Q 4.6875 0.984375 4.6875 1.125 
L 39.109375 70.515625 
Q 39.546875 71.578125 40.921875 71.578125 
L 42.28125 71.578125 
Q 43.65625 71.578125 44.09375 70.515625 
L 78.515625 1.125 
Q 78.5625 1.03125 78.578125 0.953125 
Q 78.609375 0.875 78.609375 0.78125 
Q 78.609375 0 77.78125 0 
z
M 12.015625 8.015625 
L 64.703125 8.015625 
L 38.375 61.078125 
z
" id="Cmr10-a2"/>
      <path d="M 9.28125 0 
L 9.28125 3.515625 
Q 21.78125 3.515625 21.78125 6.6875 
L 21.78125 59.1875 
Q 16.609375 56.6875 8.6875 56.6875 
L 8.6875 60.203125 
Q 20.953125 60.203125 27.203125 66.609375 
L 28.609375 66.609375 
Q 28.953125 66.609375 29.265625 66.328125 
Q 29.59375 66.0625 29.59375 65.71875 
L 29.59375 6.6875 
Q 29.59375 3.515625 42.09375 3.515625 
L 42.09375 0 
z
" id="Cmr10-31"/>
     </defs>
     <g transform="translate(86.465 30.0575)scale(0.16 -0.16)">
      <use xlink:href="#Cmr10-32"/>
      <use transform="translate(50 0)" xlink:href="#Cmr10-30"/>
      <use transform="translate(100 0)" xlink:href="#Cmr10-30"/>
      <use transform="translate(150 0)" xlink:href="#Cmr10-a2"/>
      <use transform="translate(237.764922 -17.00625)scale(0.7)" xlink:href="#Cmr10-31"/>
      <use transform="translate(279.142266 0)" xlink:href="#Cmr10-28"/>
      <use transform="translate(317.960625 0)" xlink:href="#Cmb10-78"/>
      <use transform="translate(370.646172 0)" xlink:href="#Cmr10-29"/>
     </g>
    </g>
   </g>
  </g>
 </g>
 <defs>
  <clipPath id="pe1be5c9c5d">
   <rect height="165.76" width="181.6" x="57.665" y="3.5"/>
  </clipPath>
 </defs>
</svg>
