<?xml version="1.0" encoding="utf-8" standalone="no"?>
<!DOCTYPE svg PUBLIC "-//W3C//DTD SVG 1.1//EN"
  "http://www.w3.org/Graphics/SVG/1.1/DTD/svg11.dtd">
<!-- Created with matplotlib (https://matplotlib.org/) -->
<svg height="288pt" version="1.1" viewBox="0 0 345.6 288" width="345.6pt" xmlns="http://www.w3.org/2000/svg" xmlns:xlink="http://www.w3.org/1999/xlink">
 <defs>
  <style type="text/css">
*{stroke-linecap:butt;stroke-linejoin:round;}
  </style>
 </defs>
 <g id="figure_1">
  <g id="patch_1">
   <path d="M 0 288 
L 345.6 288 
L 345.6 0 
L 0 0 
z
" style="fill:#ffffff;"/>
  </g>
  <g id="axes_1">
   <g id="patch_2">
    <path d="M 66.26 242.44 
L 334.8 242.44 
L 334.8 37.968 
L 66.26 37.968 
z
" style="fill:#ffffff;"/>
   </g>
   <g id="patch_3">
    <path clip-path="url(#pbcb63113a4)" d="M 78.466364 184.019429 
L 79.371377 184.019429 
L 79.371377 188.711146 
L 78.466364 188.711146 
z
" style="fill:#1f77b4;"/>
   </g>
   <g id="patch_4">
    <path clip-path="url(#pbcb63113a4)" d="M 79.59763 184.019429 
L 80.502643 184.019429 
L 80.502643 160.205353 
L 79.59763 160.205353 
z
" style="fill:#1f77b4;"/>
   </g>
   <g id="patch_5">
    <path clip-path="url(#pbcb63113a4)" d="M 80.728896 184.019429 
L 81.633909 184.019429 
L 81.633909 178.495543 
L 80.728896 178.495543 
z
" style="fill:#1f77b4;"/>
   </g>
   <g id="patch_6">
    <path clip-path="url(#pbcb63113a4)" d="M 81.860163 184.019429 
L 82.765176 184.019429 
L 82.765176 170.792975 
L 81.860163 170.792975 
z
" style="fill:#1f77b4;"/>
   </g>
   <g id="patch_7">
    <path clip-path="url(#pbcb63113a4)" d="M 82.991429 184.019429 
L 83.896442 184.019429 
L 83.896442 153.336327 
L 82.991429 153.336327 
z
" style="fill:#1f77b4;"/>
   </g>
   <g id="patch_8">
    <path clip-path="url(#pbcb63113a4)" d="M 84.122695 184.019429 
L 85.027708 184.019429 
L 85.027708 180.256939 
L 84.122695 180.256939 
z
" style="fill:#1f77b4;"/>
   </g>
   <g id="patch_9">
    <path clip-path="url(#pbcb63113a4)" d="M 85.253962 184.019429 
L 86.158975 184.019429 
L 86.158975 63.568912 
L 85.253962 63.568912 
z
" style="fill:#1f77b4;"/>
   </g>
   <g id="patch_10">
    <path clip-path="url(#pbcb63113a4)" d="M 86.385228 184.019429 
L 87.290241 184.019429 
L 87.290241 153.575233 
L 86.385228 153.575233 
z
" style="fill:#1f77b4;"/>
   </g>
   <g id="patch_11">
    <path clip-path="url(#pbcb63113a4)" d="M 87.516494 184.019429 
L 88.421507 184.019429 
L 88.421507 185.827623 
L 87.516494 185.827623 
z
" style="fill:#1f77b4;"/>
   </g>
   <g id="patch_12">
    <path clip-path="url(#pbcb63113a4)" d="M 88.647761 184.019429 
L 89.552774 184.019429 
L 89.552774 182.101554 
L 88.647761 182.101554 
z
" style="fill:#1f77b4;"/>
   </g>
   <g id="patch_13">
    <path clip-path="url(#pbcb63113a4)" d="M 89.779027 184.019429 
L 90.68404 184.019429 
L 90.68404 158.318778 
L 89.779027 158.318778 
z
" style="fill:#1f77b4;"/>
   </g>
   <g id="patch_14">
    <path clip-path="url(#pbcb63113a4)" d="M 90.910293 184.019429 
L 91.815306 184.019429 
L 91.815306 142.78396 
L 90.910293 142.78396 
z
" style="fill:#1f77b4;"/>
   </g>
   <g id="patch_15">
    <path clip-path="url(#pbcb63113a4)" d="M 92.04156 184.019429 
L 92.946573 184.019429 
L 92.946573 209.65666 
L 92.04156 209.65666 
z
" style="fill:#1f77b4;"/>
   </g>
   <g id="patch_16">
    <path clip-path="url(#pbcb63113a4)" d="M 93.172826 184.019429 
L 94.077839 184.019429 
L 94.077839 157.852207 
L 93.172826 157.852207 
z
" style="fill:#1f77b4;"/>
   </g>
   <g id="patch_17">
    <path clip-path="url(#pbcb63113a4)" d="M 94.304092 184.019429 
L 95.209105 184.019429 
L 95.209105 153.332282 
L 94.304092 153.332282 
z
" style="fill:#1f77b4;"/>
   </g>
   <g id="patch_18">
    <path clip-path="url(#pbcb63113a4)" d="M 95.435358 184.019429 
L 96.340372 184.019429 
L 96.340372 171.381063 
L 95.435358 171.381063 
z
" style="fill:#1f77b4;"/>
   </g>
   <g id="patch_19">
    <path clip-path="url(#pbcb63113a4)" d="M 96.566625 184.019429 
L 97.471638 184.019429 
L 97.471638 191.408322 
L 96.566625 191.408322 
z
" style="fill:#1f77b4;"/>
   </g>
   <g id="patch_20">
    <path clip-path="url(#pbcb63113a4)" d="M 97.697891 184.019429 
L 98.602904 184.019429 
L 98.602904 208.005167 
L 97.697891 208.005167 
z
" style="fill:#1f77b4;"/>
   </g>
   <g id="patch_21">
    <path clip-path="url(#pbcb63113a4)" d="M 98.829157 184.019429 
L 99.734171 184.019429 
L 99.734171 180.621283 
L 98.829157 180.621283 
z
" style="fill:#1f77b4;"/>
   </g>
   <g id="patch_22">
    <path clip-path="url(#pbcb63113a4)" d="M 99.960424 184.019429 
L 100.865437 184.019429 
L 100.865437 180.87865 
L 99.960424 180.87865 
z
" style="fill:#1f77b4;"/>
   </g>
   <g id="patch_23">
    <path clip-path="url(#pbcb63113a4)" d="M 101.09169 184.019429 
L 101.996703 184.019429 
L 101.996703 204.259557 
L 101.09169 204.259557 
z
" style="fill:#1f77b4;"/>
   </g>
   <g id="patch_24">
    <path clip-path="url(#pbcb63113a4)" d="M 102.222956 184.019429 
L 103.12797 184.019429 
L 103.12797 144.629601 
L 102.222956 144.629601 
z
" style="fill:#1f77b4;"/>
   </g>
   <g id="patch_25">
    <path clip-path="url(#pbcb63113a4)" d="M 103.354223 184.019429 
L 104.259236 184.019429 
L 104.259236 214.566799 
L 103.354223 214.566799 
z
" style="fill:#1f77b4;"/>
   </g>
   <g id="patch_26">
    <path clip-path="url(#pbcb63113a4)" d="M 104.485489 184.019429 
L 105.390502 184.019429 
L 105.390502 136.241838 
L 104.485489 136.241838 
z
" style="fill:#1f77b4;"/>
   </g>
   <g id="patch_27">
    <path clip-path="url(#pbcb63113a4)" d="M 105.616755 184.019429 
L 106.521768 184.019429 
L 106.521768 136.86299 
L 105.616755 136.86299 
z
" style="fill:#1f77b4;"/>
   </g>
   <g id="patch_28">
    <path clip-path="url(#pbcb63113a4)" d="M 106.748022 184.019429 
L 107.653035 184.019429 
L 107.653035 130.882164 
L 106.748022 130.882164 
z
" style="fill:#1f77b4;"/>
   </g>
   <g id="patch_29">
    <path clip-path="url(#pbcb63113a4)" d="M 107.879288 184.019429 
L 108.784301 184.019429 
L 108.784301 167.947852 
L 107.879288 167.947852 
z
" style="fill:#1f77b4;"/>
   </g>
   <g id="patch_30">
    <path clip-path="url(#pbcb63113a4)" d="M 109.010554 184.019429 
L 109.915567 184.019429 
L 109.915567 173.626464 
L 109.010554 173.626464 
z
" style="fill:#1f77b4;"/>
   </g>
   <g id="patch_31">
    <path clip-path="url(#pbcb63113a4)" d="M 110.141821 184.019429 
L 111.046834 184.019429 
L 111.046834 109.2891 
L 110.141821 109.2891 
z
" style="fill:#1f77b4;"/>
   </g>
   <g id="patch_32">
    <path clip-path="url(#pbcb63113a4)" d="M 111.273087 184.019429 
L 112.1781 184.019429 
L 112.1781 190.242244 
L 111.273087 190.242244 
z
" style="fill:#1f77b4;"/>
   </g>
   <g id="patch_33">
    <path clip-path="url(#pbcb63113a4)" d="M 112.404353 184.019429 
L 113.309366 184.019429 
L 113.309366 159.199902 
L 112.404353 159.199902 
z
" style="fill:#1f77b4;"/>
   </g>
   <g id="patch_34">
    <path clip-path="url(#pbcb63113a4)" d="M 113.53562 184.019429 
L 114.440633 184.019429 
L 114.440633 188.08592 
L 113.53562 188.08592 
z
" style="fill:#1f77b4;"/>
   </g>
   <g id="patch_35">
    <path clip-path="url(#pbcb63113a4)" d="M 114.666886 184.019429 
L 115.571899 184.019429 
L 115.571899 150.806418 
L 114.666886 150.806418 
z
" style="fill:#1f77b4;"/>
   </g>
   <g id="patch_36">
    <path clip-path="url(#pbcb63113a4)" d="M 115.798152 184.019429 
L 116.703165 184.019429 
L 116.703165 128.869619 
L 115.798152 128.869619 
z
" style="fill:#1f77b4;"/>
   </g>
   <g id="patch_37">
    <path clip-path="url(#pbcb63113a4)" d="M 116.929419 184.019429 
L 117.834432 184.019429 
L 117.834432 198.722679 
L 116.929419 198.722679 
z
" style="fill:#1f77b4;"/>
   </g>
   <g id="patch_38">
    <path clip-path="url(#pbcb63113a4)" d="M 118.060685 184.019429 
L 118.965698 184.019429 
L 118.965698 184.615166 
L 118.060685 184.615166 
z
" style="fill:#1f77b4;"/>
   </g>
   <g id="patch_39">
    <path clip-path="url(#pbcb63113a4)" d="M 119.191951 184.019429 
L 120.096964 184.019429 
L 120.096964 180.375278 
L 119.191951 180.375278 
z
" style="fill:#1f77b4;"/>
   </g>
   <g id="patch_40">
    <path clip-path="url(#pbcb63113a4)" d="M 120.323218 184.019429 
L 121.228231 184.019429 
L 121.228231 163.043245 
L 120.323218 163.043245 
z
" style="fill:#1f77b4;"/>
   </g>
   <g id="patch_41">
    <path clip-path="url(#pbcb63113a4)" d="M 121.454484 184.019429 
L 122.359497 184.019429 
L 122.359497 182.003997 
L 121.454484 182.003997 
z
" style="fill:#1f77b4;"/>
   </g>
   <g id="patch_42">
    <path clip-path="url(#pbcb63113a4)" d="M 122.58575 184.019429 
L 123.490763 184.019429 
L 123.490763 217.741157 
L 122.58575 217.741157 
z
" style="fill:#1f77b4;"/>
   </g>
   <g id="patch_43">
    <path clip-path="url(#pbcb63113a4)" d="M 123.717017 184.019429 
L 124.62203 184.019429 
L 124.62203 139.345339 
L 123.717017 139.345339 
z
" style="fill:#1f77b4;"/>
   </g>
   <g id="patch_44">
    <path clip-path="url(#pbcb63113a4)" d="M 124.848283 184.019429 
L 125.753296 184.019429 
L 125.753296 233.162117 
L 124.848283 233.162117 
z
" style="fill:#1f77b4;"/>
   </g>
   <g id="patch_45">
    <path clip-path="url(#pbcb63113a4)" d="M 125.979549 184.019429 
L 126.884562 184.019429 
L 126.884562 231.334763 
L 125.979549 231.334763 
z
" style="fill:#1f77b4;"/>
   </g>
   <g id="patch_46">
    <path clip-path="url(#pbcb63113a4)" d="M 127.110816 184.019429 
L 128.015829 184.019429 
L 128.015829 187.879814 
L 127.110816 187.879814 
z
" style="fill:#1f77b4;"/>
   </g>
   <g id="patch_47">
    <path clip-path="url(#pbcb63113a4)" d="M 128.242082 184.019429 
L 129.147095 184.019429 
L 129.147095 182.384277 
L 128.242082 182.384277 
z
" style="fill:#1f77b4;"/>
   </g>
   <g id="patch_48">
    <path clip-path="url(#pbcb63113a4)" d="M 129.373348 184.019429 
L 130.278361 184.019429 
L 130.278361 200.773538 
L 129.373348 200.773538 
z
" style="fill:#1f77b4;"/>
   </g>
   <g id="patch_49">
    <path clip-path="url(#pbcb63113a4)" d="M 130.504615 184.019429 
L 131.409628 184.019429 
L 131.409628 209.794518 
L 130.504615 209.794518 
z
" style="fill:#1f77b4;"/>
   </g>
   <g id="patch_50">
    <path clip-path="url(#pbcb63113a4)" d="M 131.635881 184.019429 
L 132.540894 184.019429 
L 132.540894 187.448498 
L 131.635881 187.448498 
z
" style="fill:#1f77b4;"/>
   </g>
   <g id="patch_51">
    <path clip-path="url(#pbcb63113a4)" d="M 132.767147 184.019429 
L 133.67216 184.019429 
L 133.67216 222.682587 
L 132.767147 222.682587 
z
" style="fill:#1f77b4;"/>
   </g>
   <g id="patch_52">
    <path clip-path="url(#pbcb63113a4)" d="M 133.898414 184.019429 
L 134.803427 184.019429 
L 134.803427 122.6074 
L 133.898414 122.6074 
z
" style="fill:#1f77b4;"/>
   </g>
   <g id="patch_53">
    <path clip-path="url(#pbcb63113a4)" d="M 135.02968 184.019429 
L 135.934693 184.019429 
L 135.934693 93.030581 
L 135.02968 93.030581 
z
" style="fill:#1f77b4;"/>
   </g>
   <g id="patch_54">
    <path clip-path="url(#pbcb63113a4)" d="M 136.160946 184.019429 
L 137.065959 184.019429 
L 137.065959 209.196711 
L 136.160946 209.196711 
z
" style="fill:#1f77b4;"/>
   </g>
   <g id="patch_55">
    <path clip-path="url(#pbcb63113a4)" d="M 137.292212 184.019429 
L 138.197226 184.019429 
L 138.197226 192.577541 
L 137.292212 192.577541 
z
" style="fill:#1f77b4;"/>
   </g>
   <g id="patch_56">
    <path clip-path="url(#pbcb63113a4)" d="M 138.423479 184.019429 
L 139.328492 184.019429 
L 139.328492 198.373844 
L 138.423479 198.373844 
z
" style="fill:#1f77b4;"/>
   </g>
   <g id="patch_57">
    <path clip-path="url(#pbcb63113a4)" d="M 139.554745 184.019429 
L 140.459758 184.019429 
L 140.459758 197.63185 
L 139.554745 197.63185 
z
" style="fill:#1f77b4;"/>
   </g>
   <g id="patch_58">
    <path clip-path="url(#pbcb63113a4)" d="M 140.686011 184.019429 
L 141.591025 184.019429 
L 141.591025 179.717386 
L 140.686011 179.717386 
z
" style="fill:#1f77b4;"/>
   </g>
   <g id="patch_59">
    <path clip-path="url(#pbcb63113a4)" d="M 141.817278 184.019429 
L 142.722291 184.019429 
L 142.722291 116.491512 
L 141.817278 116.491512 
z
" style="fill:#1f77b4;"/>
   </g>
   <g id="patch_60">
    <path clip-path="url(#pbcb63113a4)" d="M 142.948544 184.019429 
L 143.853557 184.019429 
L 143.853557 188.364866 
L 142.948544 188.364866 
z
" style="fill:#1f77b4;"/>
   </g>
   <g id="patch_61">
    <path clip-path="url(#pbcb63113a4)" d="M 144.07981 184.019429 
L 144.984823 184.019429 
L 144.984823 181.18705 
L 144.07981 181.18705 
z
" style="fill:#1f77b4;"/>
   </g>
   <g id="patch_62">
    <path clip-path="url(#pbcb63113a4)" d="M 145.211077 184.019429 
L 146.11609 184.019429 
L 146.11609 181.622323 
L 145.211077 181.622323 
z
" style="fill:#1f77b4;"/>
   </g>
   <g id="patch_63">
    <path clip-path="url(#pbcb63113a4)" d="M 146.342343 184.019429 
L 147.247356 184.019429 
L 147.247356 185.85003 
L 146.342343 185.85003 
z
" style="fill:#1f77b4;"/>
   </g>
   <g id="patch_64">
    <path clip-path="url(#pbcb63113a4)" d="M 147.473609 184.019429 
L 148.378622 184.019429 
L 148.378622 194.771329 
L 147.473609 194.771329 
z
" style="fill:#1f77b4;"/>
   </g>
   <g id="patch_65">
    <path clip-path="url(#pbcb63113a4)" d="M 148.604876 184.019429 
L 149.509889 184.019429 
L 149.509889 183.503207 
L 148.604876 183.503207 
z
" style="fill:#1f77b4;"/>
   </g>
   <g id="patch_66">
    <path clip-path="url(#pbcb63113a4)" d="M 149.736142 184.019429 
L 150.641155 184.019429 
L 150.641155 174.350254 
L 149.736142 174.350254 
z
" style="fill:#1f77b4;"/>
   </g>
   <g id="patch_67">
    <path clip-path="url(#pbcb63113a4)" d="M 150.867408 184.019429 
L 151.772421 184.019429 
L 151.772421 179.964566 
L 150.867408 179.964566 
z
" style="fill:#1f77b4;"/>
   </g>
   <g id="patch_68">
    <path clip-path="url(#pbcb63113a4)" d="M 151.998675 184.019429 
L 152.903688 184.019429 
L 152.903688 183.36056 
L 151.998675 183.36056 
z
" style="fill:#1f77b4;"/>
   </g>
   <g id="patch_69">
    <path clip-path="url(#pbcb63113a4)" d="M 153.129941 184.019429 
L 154.034954 184.019429 
L 154.034954 188.925585 
L 153.129941 188.925585 
z
" style="fill:#1f77b4;"/>
   </g>
   <g id="patch_70">
    <path clip-path="url(#pbcb63113a4)" d="M 154.261207 184.019429 
L 155.16622 184.019429 
L 155.16622 173.743747 
L 154.261207 173.743747 
z
" style="fill:#1f77b4;"/>
   </g>
   <g id="patch_71">
    <path clip-path="url(#pbcb63113a4)" d="M 155.392474 184.019429 
L 156.297487 184.019429 
L 156.297487 184.367099 
L 155.392474 184.367099 
z
" style="fill:#1f77b4;"/>
   </g>
   <g id="patch_72">
    <path clip-path="url(#pbcb63113a4)" d="M 156.52374 184.019429 
L 157.428753 184.019429 
L 157.428753 165.742102 
L 156.52374 165.742102 
z
" style="fill:#1f77b4;"/>
   </g>
   <g id="patch_73">
    <path clip-path="url(#pbcb63113a4)" d="M 157.655006 184.019429 
L 158.560019 184.019429 
L 158.560019 192.810637 
L 157.655006 192.810637 
z
" style="fill:#1f77b4;"/>
   </g>
   <g id="patch_74">
    <path clip-path="url(#pbcb63113a4)" d="M 158.786273 184.019429 
L 159.691286 184.019429 
L 159.691286 180.701324 
L 158.786273 180.701324 
z
" style="fill:#1f77b4;"/>
   </g>
   <g id="patch_75">
    <path clip-path="url(#pbcb63113a4)" d="M 159.917539 184.019429 
L 160.822552 184.019429 
L 160.822552 181.443883 
L 159.917539 181.443883 
z
" style="fill:#1f77b4;"/>
   </g>
   <g id="patch_76">
    <path clip-path="url(#pbcb63113a4)" d="M 161.048805 184.019429 
L 161.953818 184.019429 
L 161.953818 183.10771 
L 161.048805 183.10771 
z
" style="fill:#1f77b4;"/>
   </g>
   <g id="patch_77">
    <path clip-path="url(#pbcb63113a4)" d="M 162.180072 184.019429 
L 163.085085 184.019429 
L 163.085085 194.563982 
L 162.180072 194.563982 
z
" style="fill:#1f77b4;"/>
   </g>
   <g id="patch_78">
    <path clip-path="url(#pbcb63113a4)" d="M 163.311338 184.019429 
L 164.216351 184.019429 
L 164.216351 188.193012 
L 163.311338 188.193012 
z
" style="fill:#1f77b4;"/>
   </g>
   <g id="patch_79">
    <path clip-path="url(#pbcb63113a4)" d="M 164.442604 184.019429 
L 165.347617 184.019429 
L 165.347617 204.643261 
L 164.442604 204.643261 
z
" style="fill:#1f77b4;"/>
   </g>
   <g id="patch_80">
    <path clip-path="url(#pbcb63113a4)" d="M 165.573871 184.019429 
L 166.478884 184.019429 
L 166.478884 176.671628 
L 165.573871 176.671628 
z
" style="fill:#1f77b4;"/>
   </g>
   <g id="patch_81">
    <path clip-path="url(#pbcb63113a4)" d="M 166.705137 184.019429 
L 167.61015 184.019429 
L 167.61015 178.848826 
L 166.705137 178.848826 
z
" style="fill:#1f77b4;"/>
   </g>
   <g id="patch_82">
    <path clip-path="url(#pbcb63113a4)" d="M 167.836403 184.019429 
L 168.741416 184.019429 
L 168.741416 187.222936 
L 167.836403 187.222936 
z
" style="fill:#1f77b4;"/>
   </g>
   <g id="patch_83">
    <path clip-path="url(#pbcb63113a4)" d="M 168.96767 184.019429 
L 169.872683 184.019429 
L 169.872683 180.864583 
L 168.96767 180.864583 
z
" style="fill:#1f77b4;"/>
   </g>
   <g id="patch_84">
    <path clip-path="url(#pbcb63113a4)" d="M 170.098936 184.019429 
L 171.003949 184.019429 
L 171.003949 188.249584 
L 170.098936 188.249584 
z
" style="fill:#1f77b4;"/>
   </g>
   <g id="patch_85">
    <path clip-path="url(#pbcb63113a4)" d="M 171.230202 184.019429 
L 172.135215 184.019429 
L 172.135215 182.944119 
L 171.230202 182.944119 
z
" style="fill:#1f77b4;"/>
   </g>
   <g id="patch_86">
    <path clip-path="url(#pbcb63113a4)" d="M 172.361469 184.019429 
L 173.266482 184.019429 
L 173.266482 181.992071 
L 172.361469 181.992071 
z
" style="fill:#1f77b4;"/>
   </g>
   <g id="patch_87">
    <path clip-path="url(#pbcb63113a4)" d="M 173.492735 184.019429 
L 174.397748 184.019429 
L 174.397748 202.720447 
L 173.492735 202.720447 
z
" style="fill:#1f77b4;"/>
   </g>
   <g id="patch_88">
    <path clip-path="url(#pbcb63113a4)" d="M 174.624001 184.019429 
L 175.529014 184.019429 
L 175.529014 181.916141 
L 174.624001 181.916141 
z
" style="fill:#1f77b4;"/>
   </g>
   <g id="patch_89">
    <path clip-path="url(#pbcb63113a4)" d="M 175.755268 184.019429 
L 176.660281 184.019429 
L 176.660281 168.408006 
L 175.755268 168.408006 
z
" style="fill:#1f77b4;"/>
   </g>
   <g id="patch_90">
    <path clip-path="url(#pbcb63113a4)" d="M 176.886534 184.019429 
L 177.791547 184.019429 
L 177.791547 183.800011 
L 176.886534 183.800011 
z
" style="fill:#1f77b4;"/>
   </g>
   <g id="patch_91">
    <path clip-path="url(#pbcb63113a4)" d="M 178.0178 184.019429 
L 178.922813 184.019429 
L 178.922813 185.279897 
L 178.0178 185.279897 
z
" style="fill:#1f77b4;"/>
   </g>
   <g id="patch_92">
    <path clip-path="url(#pbcb63113a4)" d="M 179.149066 184.019429 
L 180.05408 184.019429 
L 180.05408 193.352914 
L 179.149066 193.352914 
z
" style="fill:#1f77b4;"/>
   </g>
   <g id="patch_93">
    <path clip-path="url(#pbcb63113a4)" d="M 180.280333 184.019429 
L 181.185346 184.019429 
L 181.185346 149.142872 
L 180.280333 149.142872 
z
" style="fill:#1f77b4;"/>
   </g>
   <g id="patch_94">
    <path clip-path="url(#pbcb63113a4)" d="M 181.411599 184.019429 
L 182.316612 184.019429 
L 182.316612 196.339632 
L 181.411599 196.339632 
z
" style="fill:#1f77b4;"/>
   </g>
   <g id="patch_95">
    <path clip-path="url(#pbcb63113a4)" d="M 182.542865 184.019429 
L 183.447879 184.019429 
L 183.447879 187.268365 
L 182.542865 187.268365 
z
" style="fill:#1f77b4;"/>
   </g>
   <g id="patch_96">
    <path clip-path="url(#pbcb63113a4)" d="M 183.674132 184.019429 
L 184.579145 184.019429 
L 184.579145 193.99336 
L 183.674132 193.99336 
z
" style="fill:#1f77b4;"/>
   </g>
   <g id="patch_97">
    <path clip-path="url(#pbcb63113a4)" d="M 184.805398 184.019429 
L 185.710411 184.019429 
L 185.710411 205.281283 
L 184.805398 205.281283 
z
" style="fill:#1f77b4;"/>
   </g>
   <g id="patch_98">
    <path clip-path="url(#pbcb63113a4)" d="M 185.936664 184.019429 
L 186.841677 184.019429 
L 186.841677 185.670231 
L 185.936664 185.670231 
z
" style="fill:#1f77b4;"/>
   </g>
   <g id="patch_99">
    <path clip-path="url(#pbcb63113a4)" d="M 187.067931 184.019429 
L 187.972944 184.019429 
L 187.972944 156.98596 
L 187.067931 156.98596 
z
" style="fill:#1f77b4;"/>
   </g>
   <g id="patch_100">
    <path clip-path="url(#pbcb63113a4)" d="M 188.199197 184.019429 
L 189.10421 184.019429 
L 189.10421 181.998198 
L 188.199197 181.998198 
z
" style="fill:#1f77b4;"/>
   </g>
   <g id="patch_101">
    <path clip-path="url(#pbcb63113a4)" d="M 189.330463 184.019429 
L 190.235476 184.019429 
L 190.235476 184.640872 
L 189.330463 184.640872 
z
" style="fill:#1f77b4;"/>
   </g>
   <g id="patch_102">
    <path clip-path="url(#pbcb63113a4)" d="M 190.46173 184.019429 
L 191.366743 184.019429 
L 191.366743 189.540028 
L 190.46173 189.540028 
z
" style="fill:#1f77b4;"/>
   </g>
   <g id="patch_103">
    <path clip-path="url(#pbcb63113a4)" d="M 191.592996 184.019429 
L 192.498009 184.019429 
L 192.498009 181.211386 
L 191.592996 181.211386 
z
" style="fill:#1f77b4;"/>
   </g>
   <g id="patch_104">
    <path clip-path="url(#pbcb63113a4)" d="M 192.724262 184.019429 
L 193.629275 184.019429 
L 193.629275 184.019429 
L 192.724262 184.019429 
z
" style="fill:#1f77b4;"/>
   </g>
   <g id="patch_105">
    <path clip-path="url(#pbcb63113a4)" d="M 193.855529 184.019429 
L 194.760542 184.019429 
L 194.760542 186.20932 
L 193.855529 186.20932 
z
" style="fill:#1f77b4;"/>
   </g>
   <g id="patch_106">
    <path clip-path="url(#pbcb63113a4)" d="M 194.986795 184.019429 
L 195.891808 184.019429 
L 195.891808 149.771507 
L 194.986795 149.771507 
z
" style="fill:#1f77b4;"/>
   </g>
   <g id="patch_107">
    <path clip-path="url(#pbcb63113a4)" d="M 196.118061 184.019429 
L 197.023074 184.019429 
L 197.023074 184.367099 
L 196.118061 184.367099 
z
" style="fill:#1f77b4;"/>
   </g>
   <g id="patch_108">
    <path clip-path="url(#pbcb63113a4)" d="M 197.249328 184.019429 
L 198.154341 184.019429 
L 198.154341 162.96116 
L 197.249328 162.96116 
z
" style="fill:#1f77b4;"/>
   </g>
   <g id="patch_109">
    <path clip-path="url(#pbcb63113a4)" d="M 198.380594 184.019429 
L 199.285607 184.019429 
L 199.285607 200.278377 
L 198.380594 200.278377 
z
" style="fill:#1f77b4;"/>
   </g>
   <g id="patch_110">
    <path clip-path="url(#pbcb63113a4)" d="M 199.51186 184.019429 
L 200.416873 184.019429 
L 200.416873 184.268486 
L 199.51186 184.268486 
z
" style="fill:#1f77b4;"/>
   </g>
   <g id="patch_111">
    <path clip-path="url(#pbcb63113a4)" d="M 200.643127 184.019429 
L 201.54814 184.019429 
L 201.54814 178.598165 
L 200.643127 178.598165 
z
" style="fill:#1f77b4;"/>
   </g>
   <g id="patch_112">
    <path clip-path="url(#pbcb63113a4)" d="M 201.774393 184.019429 
L 202.679406 184.019429 
L 202.679406 190.963051 
L 201.774393 190.963051 
z
" style="fill:#1f77b4;"/>
   </g>
   <g id="patch_113">
    <path clip-path="url(#pbcb63113a4)" d="M 202.905659 184.019429 
L 203.810672 184.019429 
L 203.810672 185.214664 
L 202.905659 185.214664 
z
" style="fill:#1f77b4;"/>
   </g>
   <g id="patch_114">
    <path clip-path="url(#pbcb63113a4)" d="M 204.036926 184.019429 
L 204.941939 184.019429 
L 204.941939 205.4074 
L 204.036926 205.4074 
z
" style="fill:#1f77b4;"/>
   </g>
   <g id="patch_115">
    <path clip-path="url(#pbcb63113a4)" d="M 205.168192 184.019429 
L 206.073205 184.019429 
L 206.073205 174.205182 
L 205.168192 174.205182 
z
" style="fill:#1f77b4;"/>
   </g>
   <g id="patch_116">
    <path clip-path="url(#pbcb63113a4)" d="M 206.299458 184.019429 
L 207.204471 184.019429 
L 207.204471 206.658306 
L 206.299458 206.658306 
z
" style="fill:#1f77b4;"/>
   </g>
   <g id="patch_117">
    <path clip-path="url(#pbcb63113a4)" d="M 207.430725 184.019429 
L 208.335738 184.019429 
L 208.335738 186.157898 
L 207.430725 186.157898 
z
" style="fill:#1f77b4;"/>
   </g>
   <g id="patch_118">
    <path clip-path="url(#pbcb63113a4)" d="M 208.561991 184.019429 
L 209.467004 184.019429 
L 209.467004 230.357041 
L 208.561991 230.357041 
z
" style="fill:#1f77b4;"/>
   </g>
   <g id="patch_119">
    <path clip-path="url(#pbcb63113a4)" d="M 209.693257 184.019429 
L 210.59827 184.019429 
L 210.59827 150.266283 
L 209.693257 150.266283 
z
" style="fill:#1f77b4;"/>
   </g>
   <g id="patch_120">
    <path clip-path="url(#pbcb63113a4)" d="M 210.824524 184.019429 
L 211.729537 184.019429 
L 211.729537 186.843021 
L 210.824524 186.843021 
z
" style="fill:#1f77b4;"/>
   </g>
   <g id="patch_121">
    <path clip-path="url(#pbcb63113a4)" d="M 211.95579 184.019429 
L 212.860803 184.019429 
L 212.860803 168.611369 
L 211.95579 168.611369 
z
" style="fill:#1f77b4;"/>
   </g>
   <g id="patch_122">
    <path clip-path="url(#pbcb63113a4)" d="M 213.087056 184.019429 
L 213.992069 184.019429 
L 213.992069 180.660248 
L 213.087056 180.660248 
z
" style="fill:#1f77b4;"/>
   </g>
   <g id="patch_123">
    <path clip-path="url(#pbcb63113a4)" d="M 214.218323 184.019429 
L 215.123336 184.019429 
L 215.123336 186.552126 
L 214.218323 186.552126 
z
" style="fill:#1f77b4;"/>
   </g>
   <g id="patch_124">
    <path clip-path="url(#pbcb63113a4)" d="M 215.349589 184.019429 
L 216.254602 184.019429 
L 216.254602 161.319851 
L 215.349589 161.319851 
z
" style="fill:#1f77b4;"/>
   </g>
   <g id="patch_125">
    <path clip-path="url(#pbcb63113a4)" d="M 216.480855 184.019429 
L 217.385868 184.019429 
L 217.385868 181.206015 
L 216.480855 181.206015 
z
" style="fill:#1f77b4;"/>
   </g>
   <g id="patch_126">
    <path clip-path="url(#pbcb63113a4)" d="M 217.612121 184.019429 
L 218.517135 184.019429 
L 218.517135 210.104514 
L 217.612121 210.104514 
z
" style="fill:#1f77b4;"/>
   </g>
   <g id="patch_127">
    <path clip-path="url(#pbcb63113a4)" d="M 218.743388 184.019429 
L 219.648401 184.019429 
L 219.648401 185.279897 
L 218.743388 185.279897 
z
" style="fill:#1f77b4;"/>
   </g>
   <g id="patch_128">
    <path clip-path="url(#pbcb63113a4)" d="M 219.874654 184.019429 
L 220.779667 184.019429 
L 220.779667 183.801057 
L 219.874654 183.801057 
z
" style="fill:#1f77b4;"/>
   </g>
   <g id="patch_129">
    <path clip-path="url(#pbcb63113a4)" d="M 221.00592 184.019429 
L 221.910934 184.019429 
L 221.910934 183.23172 
L 221.00592 183.23172 
z
" style="fill:#1f77b4;"/>
   </g>
   <g id="patch_130">
    <path clip-path="url(#pbcb63113a4)" d="M 222.137187 184.019429 
L 223.0422 184.019429 
L 223.0422 217.155201 
L 222.137187 217.155201 
z
" style="fill:#1f77b4;"/>
   </g>
   <g id="patch_131">
    <path clip-path="url(#pbcb63113a4)" d="M 223.268453 184.019429 
L 224.173466 184.019429 
L 224.173466 185.338114 
L 223.268453 185.338114 
z
" style="fill:#1f77b4;"/>
   </g>
   <g id="patch_132">
    <path clip-path="url(#pbcb63113a4)" d="M 224.399719 184.019429 
L 225.304732 184.019429 
L 225.304732 181.61151 
L 224.399719 181.61151 
z
" style="fill:#1f77b4;"/>
   </g>
   <g id="patch_133">
    <path clip-path="url(#pbcb63113a4)" d="M 225.530986 184.019429 
L 226.435999 184.019429 
L 226.435999 184.019429 
L 225.530986 184.019429 
z
" style="fill:#1f77b4;"/>
   </g>
   <g id="patch_134">
    <path clip-path="url(#pbcb63113a4)" d="M 226.662252 184.019429 
L 227.567265 184.019429 
L 227.567265 183.33519 
L 226.662252 183.33519 
z
" style="fill:#1f77b4;"/>
   </g>
   <g id="patch_135">
    <path clip-path="url(#pbcb63113a4)" d="M 227.793518 184.019429 
L 228.698531 184.019429 
L 228.698531 185.538831 
L 227.793518 185.538831 
z
" style="fill:#1f77b4;"/>
   </g>
   <g id="patch_136">
    <path clip-path="url(#pbcb63113a4)" d="M 228.924785 184.019429 
L 229.829798 184.019429 
L 229.829798 188.781496 
L 228.924785 188.781496 
z
" style="fill:#1f77b4;"/>
   </g>
   <g id="patch_137">
    <path clip-path="url(#pbcb63113a4)" d="M 230.056051 184.019429 
L 230.961064 184.019429 
L 230.961064 146.375657 
L 230.056051 146.375657 
z
" style="fill:#1f77b4;"/>
   </g>
   <g id="patch_138">
    <path clip-path="url(#pbcb63113a4)" d="M 231.187317 184.019429 
L 232.09233 184.019429 
L 232.09233 183.172575 
L 231.187317 183.172575 
z
" style="fill:#1f77b4;"/>
   </g>
   <g id="patch_139">
    <path clip-path="url(#pbcb63113a4)" d="M 232.318584 184.019429 
L 233.223597 184.019429 
L 233.223597 180.634297 
L 232.318584 180.634297 
z
" style="fill:#1f77b4;"/>
   </g>
   <g id="patch_140">
    <path clip-path="url(#pbcb63113a4)" d="M 233.44985 184.019429 
L 234.354863 184.019429 
L 234.354863 185.876019 
L 233.44985 185.876019 
z
" style="fill:#1f77b4;"/>
   </g>
   <g id="patch_141">
    <path clip-path="url(#pbcb63113a4)" d="M 234.581116 184.019429 
L 235.486129 184.019429 
L 235.486129 183.474272 
L 234.581116 183.474272 
z
" style="fill:#1f77b4;"/>
   </g>
   <g id="patch_142">
    <path clip-path="url(#pbcb63113a4)" d="M 235.712383 184.019429 
L 236.617396 184.019429 
L 236.617396 190.207356 
L 235.712383 190.207356 
z
" style="fill:#1f77b4;"/>
   </g>
   <g id="patch_143">
    <path clip-path="url(#pbcb63113a4)" d="M 236.843649 184.019429 
L 237.748662 184.019429 
L 237.748662 180.752052 
L 236.843649 180.752052 
z
" style="fill:#1f77b4;"/>
   </g>
   <g id="patch_144">
    <path clip-path="url(#pbcb63113a4)" d="M 237.974915 184.019429 
L 238.879928 184.019429 
L 238.879928 174.106 
L 237.974915 174.106 
z
" style="fill:#1f77b4;"/>
   </g>
   <g id="patch_145">
    <path clip-path="url(#pbcb63113a4)" d="M 239.106182 184.019429 
L 240.011195 184.019429 
L 240.011195 193.932857 
L 239.106182 193.932857 
z
" style="fill:#1f77b4;"/>
   </g>
   <g id="patch_146">
    <path clip-path="url(#pbcb63113a4)" d="M 240.237448 184.019429 
L 241.142461 184.019429 
L 241.142461 165.502068 
L 240.237448 165.502068 
z
" style="fill:#1f77b4;"/>
   </g>
   <g id="patch_147">
    <path clip-path="url(#pbcb63113a4)" d="M 241.368714 184.019429 
L 242.273727 184.019429 
L 242.273727 172.173411 
L 241.368714 172.173411 
z
" style="fill:#1f77b4;"/>
   </g>
   <g id="patch_148">
    <path clip-path="url(#pbcb63113a4)" d="M 242.499981 184.019429 
L 243.404994 184.019429 
L 243.404994 182.690672 
L 242.499981 182.690672 
z
" style="fill:#1f77b4;"/>
   </g>
   <g id="patch_149">
    <path clip-path="url(#pbcb63113a4)" d="M 243.631247 184.019429 
L 244.53626 184.019429 
L 244.53626 199.322748 
L 243.631247 199.322748 
z
" style="fill:#1f77b4;"/>
   </g>
   <g id="patch_150">
    <path clip-path="url(#pbcb63113a4)" d="M 244.762513 184.019429 
L 245.667526 184.019429 
L 245.667526 200.408244 
L 244.762513 200.408244 
z
" style="fill:#1f77b4;"/>
   </g>
   <g id="patch_151">
    <path clip-path="url(#pbcb63113a4)" d="M 245.89378 184.019429 
L 246.798793 184.019429 
L 246.798793 199.506874 
L 245.89378 199.506874 
z
" style="fill:#1f77b4;"/>
   </g>
   <g id="patch_152">
    <path clip-path="url(#pbcb63113a4)" d="M 247.025046 184.019429 
L 247.930059 184.019429 
L 247.930059 190.357869 
L 247.025046 190.357869 
z
" style="fill:#1f77b4;"/>
   </g>
   <g id="patch_153">
    <path clip-path="url(#pbcb63113a4)" d="M 248.156312 184.019429 
L 249.061325 184.019429 
L 249.061325 198.082929 
L 248.156312 198.082929 
z
" style="fill:#1f77b4;"/>
   </g>
   <g id="patch_154">
    <path clip-path="url(#pbcb63113a4)" d="M 249.287579 184.019429 
L 250.192592 184.019429 
L 250.192592 193.698072 
L 249.287579 193.698072 
z
" style="fill:#1f77b4;"/>
   </g>
   <g id="patch_155">
    <path clip-path="url(#pbcb63113a4)" d="M 250.418845 184.019429 
L 251.323858 184.019429 
L 251.323858 183.864969 
L 250.418845 183.864969 
z
" style="fill:#1f77b4;"/>
   </g>
   <g id="patch_156">
    <path clip-path="url(#pbcb63113a4)" d="M 251.550111 184.019429 
L 252.455124 184.019429 
L 252.455124 189.437814 
L 251.550111 189.437814 
z
" style="fill:#1f77b4;"/>
   </g>
   <g id="patch_157">
    <path clip-path="url(#pbcb63113a4)" d="M 252.681378 184.019429 
L 253.586391 184.019429 
L 253.586391 133.187473 
L 252.681378 133.187473 
z
" style="fill:#1f77b4;"/>
   </g>
   <g id="patch_158">
    <path clip-path="url(#pbcb63113a4)" d="M 253.812644 184.019429 
L 254.717657 184.019429 
L 254.717657 165.293221 
L 253.812644 165.293221 
z
" style="fill:#1f77b4;"/>
   </g>
   <g id="patch_159">
    <path clip-path="url(#pbcb63113a4)" d="M 254.94391 184.019429 
L 255.848923 184.019429 
L 255.848923 186.92296 
L 254.94391 186.92296 
z
" style="fill:#1f77b4;"/>
   </g>
   <g id="patch_160">
    <path clip-path="url(#pbcb63113a4)" d="M 256.075177 184.019429 
L 256.98019 184.019429 
L 256.98019 191.78512 
L 256.075177 191.78512 
z
" style="fill:#1f77b4;"/>
   </g>
   <g id="patch_161">
    <path clip-path="url(#pbcb63113a4)" d="M 257.206443 184.019429 
L 258.111456 184.019429 
L 258.111456 184.019429 
L 257.206443 184.019429 
z
" style="fill:#1f77b4;"/>
   </g>
   <g id="patch_162">
    <path clip-path="url(#pbcb63113a4)" d="M 258.337709 184.019429 
L 259.242722 184.019429 
L 259.242722 192.076413 
L 258.337709 192.076413 
z
" style="fill:#1f77b4;"/>
   </g>
   <g id="patch_163">
    <path clip-path="url(#pbcb63113a4)" d="M 259.468975 184.019429 
L 260.373989 184.019429 
L 260.373989 192.463449 
L 259.468975 192.463449 
z
" style="fill:#1f77b4;"/>
   </g>
   <g id="patch_164">
    <path clip-path="url(#pbcb63113a4)" d="M 260.600242 184.019429 
L 261.505255 184.019429 
L 261.505255 179.590779 
L 260.600242 179.590779 
z
" style="fill:#1f77b4;"/>
   </g>
   <g id="patch_165">
    <path clip-path="url(#pbcb63113a4)" d="M 261.731508 184.019429 
L 262.636521 184.019429 
L 262.636521 170.072909 
L 261.731508 170.072909 
z
" style="fill:#1f77b4;"/>
   </g>
   <g id="patch_166">
    <path clip-path="url(#pbcb63113a4)" d="M 262.862774 184.019429 
L 263.767788 184.019429 
L 263.767788 185.20548 
L 262.862774 185.20548 
z
" style="fill:#1f77b4;"/>
   </g>
   <g id="patch_167">
    <path clip-path="url(#pbcb63113a4)" d="M 263.994041 184.019429 
L 264.899054 184.019429 
L 264.899054 188.874735 
L 263.994041 188.874735 
z
" style="fill:#1f77b4;"/>
   </g>
   <g id="patch_168">
    <path clip-path="url(#pbcb63113a4)" d="M 265.125307 184.019429 
L 266.03032 184.019429 
L 266.03032 210.213334 
L 265.125307 210.213334 
z
" style="fill:#1f77b4;"/>
   </g>
   <g id="patch_169">
    <path clip-path="url(#pbcb63113a4)" d="M 266.256573 184.019429 
L 267.161586 184.019429 
L 267.161586 177.994547 
L 266.256573 177.994547 
z
" style="fill:#1f77b4;"/>
   </g>
   <g id="patch_170">
    <path clip-path="url(#pbcb63113a4)" d="M 267.38784 184.019429 
L 268.292853 184.019429 
L 268.292853 167.740196 
L 267.38784 167.740196 
z
" style="fill:#1f77b4;"/>
   </g>
   <g id="patch_171">
    <path clip-path="url(#pbcb63113a4)" d="M 268.519106 184.019429 
L 269.424119 184.019429 
L 269.424119 187.3047 
L 268.519106 187.3047 
z
" style="fill:#1f77b4;"/>
   </g>
   <g id="patch_172">
    <path clip-path="url(#pbcb63113a4)" d="M 269.650372 184.019429 
L 270.555385 184.019429 
L 270.555385 209.601061 
L 269.650372 209.601061 
z
" style="fill:#1f77b4;"/>
   </g>
   <g id="patch_173">
    <path clip-path="url(#pbcb63113a4)" d="M 270.781639 184.019429 
L 271.686652 184.019429 
L 271.686652 129.98074 
L 270.781639 129.98074 
z
" style="fill:#1f77b4;"/>
   </g>
   <g id="patch_174">
    <path clip-path="url(#pbcb63113a4)" d="M 271.912905 184.019429 
L 272.817918 184.019429 
L 272.817918 184.31191 
L 271.912905 184.31191 
z
" style="fill:#1f77b4;"/>
   </g>
   <g id="patch_175">
    <path clip-path="url(#pbcb63113a4)" d="M 273.044171 184.019429 
L 273.949184 184.019429 
L 273.949184 202.018243 
L 273.044171 202.018243 
z
" style="fill:#1f77b4;"/>
   </g>
   <g id="patch_176">
    <path clip-path="url(#pbcb63113a4)" d="M 274.175438 184.019429 
L 275.080451 184.019429 
L 275.080451 194.600748 
L 274.175438 194.600748 
z
" style="fill:#1f77b4;"/>
   </g>
   <g id="patch_177">
    <path clip-path="url(#pbcb63113a4)" d="M 275.306704 184.019429 
L 276.211717 184.019429 
L 276.211717 178.30103 
L 275.306704 178.30103 
z
" style="fill:#1f77b4;"/>
   </g>
   <g id="patch_178">
    <path clip-path="url(#pbcb63113a4)" d="M 276.43797 184.019429 
L 277.342983 184.019429 
L 277.342983 186.349351 
L 276.43797 186.349351 
z
" style="fill:#1f77b4;"/>
   </g>
   <g id="patch_179">
    <path clip-path="url(#pbcb63113a4)" d="M 277.569237 184.019429 
L 278.47425 184.019429 
L 278.47425 183.707073 
L 277.569237 183.707073 
z
" style="fill:#1f77b4;"/>
   </g>
   <g id="patch_180">
    <path clip-path="url(#pbcb63113a4)" d="M 278.700503 184.019429 
L 279.605516 184.019429 
L 279.605516 185.024901 
L 278.700503 185.024901 
z
" style="fill:#1f77b4;"/>
   </g>
   <g id="patch_181">
    <path clip-path="url(#pbcb63113a4)" d="M 279.831769 184.019429 
L 280.736782 184.019429 
L 280.736782 183.013956 
L 279.831769 183.013956 
z
" style="fill:#1f77b4;"/>
   </g>
   <g id="patch_182">
    <path clip-path="url(#pbcb63113a4)" d="M 280.963036 184.019429 
L 281.868049 184.019429 
L 281.868049 207.672938 
L 280.963036 207.672938 
z
" style="fill:#1f77b4;"/>
   </g>
   <g id="patch_183">
    <path clip-path="url(#pbcb63113a4)" d="M 282.094302 184.019429 
L 282.999315 184.019429 
L 282.999315 184.43528 
L 282.094302 184.43528 
z
" style="fill:#1f77b4;"/>
   </g>
   <g id="patch_184">
    <path clip-path="url(#pbcb63113a4)" d="M 283.225568 184.019429 
L 284.130581 184.019429 
L 284.130581 177.863819 
L 283.225568 177.863819 
z
" style="fill:#1f77b4;"/>
   </g>
   <g id="patch_185">
    <path clip-path="url(#pbcb63113a4)" d="M 284.356835 184.019429 
L 285.261848 184.019429 
L 285.261848 184.489659 
L 284.356835 184.489659 
z
" style="fill:#1f77b4;"/>
   </g>
   <g id="patch_186">
    <path clip-path="url(#pbcb63113a4)" d="M 285.488101 184.019429 
L 286.393114 184.019429 
L 286.393114 184.245365 
L 285.488101 184.245365 
z
" style="fill:#1f77b4;"/>
   </g>
   <g id="patch_187">
    <path clip-path="url(#pbcb63113a4)" d="M 286.619367 184.019429 
L 287.52438 184.019429 
L 287.52438 186.868914 
L 286.619367 186.868914 
z
" style="fill:#1f77b4;"/>
   </g>
   <g id="patch_188">
    <path clip-path="url(#pbcb63113a4)" d="M 287.750634 184.019429 
L 288.655647 184.019429 
L 288.655647 139.770925 
L 287.750634 139.770925 
z
" style="fill:#1f77b4;"/>
   </g>
   <g id="patch_189">
    <path clip-path="url(#pbcb63113a4)" d="M 288.8819 184.019429 
L 289.786913 184.019429 
L 289.786913 178.819124 
L 288.8819 178.819124 
z
" style="fill:#1f77b4;"/>
   </g>
   <g id="patch_190">
    <path clip-path="url(#pbcb63113a4)" d="M 290.013166 184.019429 
L 290.918179 184.019429 
L 290.918179 212.008831 
L 290.013166 212.008831 
z
" style="fill:#1f77b4;"/>
   </g>
   <g id="patch_191">
    <path clip-path="url(#pbcb63113a4)" d="M 291.144433 184.019429 
L 292.049446 184.019429 
L 292.049446 206.994377 
L 291.144433 206.994377 
z
" style="fill:#1f77b4;"/>
   </g>
   <g id="patch_192">
    <path clip-path="url(#pbcb63113a4)" d="M 292.275699 184.019429 
L 293.180712 184.019429 
L 293.180712 149.181311 
L 292.275699 149.181311 
z
" style="fill:#1f77b4;"/>
   </g>
   <g id="patch_193">
    <path clip-path="url(#pbcb63113a4)" d="M 293.406965 184.019429 
L 294.311978 184.019429 
L 294.311978 195.882598 
L 293.406965 195.882598 
z
" style="fill:#1f77b4;"/>
   </g>
   <g id="patch_194">
    <path clip-path="url(#pbcb63113a4)" d="M 294.538232 184.019429 
L 295.443245 184.019429 
L 295.443245 100.630154 
L 294.538232 100.630154 
z
" style="fill:#1f77b4;"/>
   </g>
   <g id="patch_195">
    <path clip-path="url(#pbcb63113a4)" d="M 295.669498 184.019429 
L 296.574511 184.019429 
L 296.574511 185.164237 
L 295.669498 185.164237 
z
" style="fill:#1f77b4;"/>
   </g>
   <g id="patch_196">
    <path clip-path="url(#pbcb63113a4)" d="M 296.800764 184.019429 
L 297.705777 184.019429 
L 297.705777 209.803795 
L 296.800764 209.803795 
z
" style="fill:#1f77b4;"/>
   </g>
   <g id="patch_197">
    <path clip-path="url(#pbcb63113a4)" d="M 297.93203 184.019429 
L 298.837044 184.019429 
L 298.837044 240.479529 
L 297.93203 240.479529 
z
" style="fill:#1f77b4;"/>
   </g>
   <g id="patch_198">
    <path clip-path="url(#pbcb63113a4)" d="M 299.063297 184.019429 
L 299.96831 184.019429 
L 299.96831 178.486886 
L 299.063297 178.486886 
z
" style="fill:#1f77b4;"/>
   </g>
   <g id="patch_199">
    <path clip-path="url(#pbcb63113a4)" d="M 300.194563 184.019429 
L 301.099576 184.019429 
L 301.099576 159.314773 
L 300.194563 159.314773 
z
" style="fill:#1f77b4;"/>
   </g>
   <g id="patch_200">
    <path clip-path="url(#pbcb63113a4)" d="M 301.325829 184.019429 
L 302.230843 184.019429 
L 302.230843 208.960311 
L 301.325829 208.960311 
z
" style="fill:#1f77b4;"/>
   </g>
   <g id="patch_201">
    <path clip-path="url(#pbcb63113a4)" d="M 302.457096 184.019429 
L 303.362109 184.019429 
L 303.362109 189.315744 
L 302.457096 189.315744 
z
" style="fill:#1f77b4;"/>
   </g>
   <g id="patch_202">
    <path clip-path="url(#pbcb63113a4)" d="M 303.588362 184.019429 
L 304.493375 184.019429 
L 304.493375 91.167607 
L 303.588362 91.167607 
z
" style="fill:#1f77b4;"/>
   </g>
   <g id="patch_203">
    <path clip-path="url(#pbcb63113a4)" d="M 304.719628 184.019429 
L 305.624642 184.019429 
L 305.624642 182.367222 
L 304.719628 182.367222 
z
" style="fill:#1f77b4;"/>
   </g>
   <g id="patch_204">
    <path clip-path="url(#pbcb63113a4)" d="M 305.850895 184.019429 
L 306.755908 184.019429 
L 306.755908 225.881991 
L 305.850895 225.881991 
z
" style="fill:#1f77b4;"/>
   </g>
   <g id="patch_205">
    <path clip-path="url(#pbcb63113a4)" d="M 306.982161 184.019429 
L 307.887174 184.019429 
L 307.887174 236.660894 
L 306.982161 236.660894 
z
" style="fill:#1f77b4;"/>
   </g>
   <g id="patch_206">
    <path clip-path="url(#pbcb63113a4)" d="M 308.113427 184.019429 
L 309.01844 184.019429 
L 309.01844 195.698767 
L 308.113427 195.698767 
z
" style="fill:#1f77b4;"/>
   </g>
   <g id="patch_207">
    <path clip-path="url(#pbcb63113a4)" d="M 309.244694 184.019429 
L 310.149707 184.019429 
L 310.149707 180.141966 
L 309.244694 180.141966 
z
" style="fill:#1f77b4;"/>
   </g>
   <g id="patch_208">
    <path clip-path="url(#pbcb63113a4)" d="M 310.37596 184.019429 
L 311.280973 184.019429 
L 311.280973 177.63166 
L 310.37596 177.63166 
z
" style="fill:#1f77b4;"/>
   </g>
   <g id="patch_209">
    <path clip-path="url(#pbcb63113a4)" d="M 311.507226 184.019429 
L 312.412239 184.019429 
L 312.412239 164.846123 
L 311.507226 164.846123 
z
" style="fill:#1f77b4;"/>
   </g>
   <g id="patch_210">
    <path clip-path="url(#pbcb63113a4)" d="M 312.638493 184.019429 
L 313.543506 184.019429 
L 313.543506 201.778627 
L 312.638493 201.778627 
z
" style="fill:#1f77b4;"/>
   </g>
   <g id="patch_211">
    <path clip-path="url(#pbcb63113a4)" d="M 313.769759 184.019429 
L 314.674772 184.019429 
L 314.674772 180.12472 
L 313.769759 180.12472 
z
" style="fill:#1f77b4;"/>
   </g>
   <g id="patch_212">
    <path clip-path="url(#pbcb63113a4)" d="M 314.901025 184.019429 
L 315.806038 184.019429 
L 315.806038 187.914137 
L 314.901025 187.914137 
z
" style="fill:#1f77b4;"/>
   </g>
   <g id="patch_213">
    <path clip-path="url(#pbcb63113a4)" d="M 316.032292 184.019429 
L 316.937305 184.019429 
L 316.937305 217.590632 
L 316.032292 217.590632 
z
" style="fill:#1f77b4;"/>
   </g>
   <g id="patch_214">
    <path clip-path="url(#pbcb63113a4)" d="M 317.163558 184.019429 
L 318.068571 184.019429 
L 318.068571 183.346355 
L 317.163558 183.346355 
z
" style="fill:#1f77b4;"/>
   </g>
   <g id="patch_215">
    <path clip-path="url(#pbcb63113a4)" d="M 318.294824 184.019429 
L 319.199837 184.019429 
L 319.199837 170.588277 
L 318.294824 170.588277 
z
" style="fill:#1f77b4;"/>
   </g>
   <g id="patch_216">
    <path clip-path="url(#pbcb63113a4)" d="M 319.426091 184.019429 
L 320.331104 184.019429 
L 320.331104 202.295684 
L 319.426091 202.295684 
z
" style="fill:#1f77b4;"/>
   </g>
   <g id="patch_217">
    <path clip-path="url(#pbcb63113a4)" d="M 320.557357 184.019429 
L 321.46237 184.019429 
L 321.46237 182.867794 
L 320.557357 182.867794 
z
" style="fill:#1f77b4;"/>
   </g>
   <g id="patch_218">
    <path clip-path="url(#pbcb63113a4)" d="M 321.688623 184.019429 
L 322.593636 184.019429 
L 322.593636 147.427828 
L 321.688623 147.427828 
z
" style="fill:#1f77b4;"/>
   </g>
   <g id="matplotlib.axis_1">
    <g id="xtick_1">
     <g id="line2d_1">
      <defs>
       <path d="M 0 0 
L 0 3.5 
" id="m0753a51bb1" style="stroke:#000000;stroke-width:0.8;"/>
      </defs>
      <g>
       <use style="stroke:#000000;stroke-width:0.8;" x="78.91887" xlink:href="#m0753a51bb1" y="242.44"/>
      </g>
     </g>
     <g id="text_1">
      <!-- 0 -->
      <defs>
       <path d="M 31.78125 66.40625 
Q 24.171875 66.40625 20.328125 58.90625 
Q 16.5 51.421875 16.5 36.375 
Q 16.5 21.390625 20.328125 13.890625 
Q 24.171875 6.390625 31.78125 6.390625 
Q 39.453125 6.390625 43.28125 13.890625 
Q 47.125 21.390625 47.125 36.375 
Q 47.125 51.421875 43.28125 58.90625 
Q 39.453125 66.40625 31.78125 66.40625 
z
M 31.78125 74.21875 
Q 44.046875 74.21875 50.515625 64.515625 
Q 56.984375 54.828125 56.984375 36.375 
Q 56.984375 17.96875 50.515625 8.265625 
Q 44.046875 -1.421875 31.78125 -1.421875 
Q 19.53125 -1.421875 13.0625 8.265625 
Q 6.59375 17.96875 6.59375 36.375 
Q 6.59375 54.828125 13.0625 64.515625 
Q 19.53125 74.21875 31.78125 74.21875 
z
" id="DejaVuSans-48"/>
      </defs>
      <g transform="translate(75.73762 257.038437)scale(0.1 -0.1)">
       <use xlink:href="#DejaVuSans-48"/>
      </g>
     </g>
    </g>
    <g id="xtick_2">
     <g id="line2d_2">
      <g>
       <use style="stroke:#000000;stroke-width:0.8;" x="135.482186" xlink:href="#m0753a51bb1" y="242.44"/>
      </g>
     </g>
     <g id="text_2">
      <!-- 50 -->
      <defs>
       <path d="M 10.796875 72.90625 
L 49.515625 72.90625 
L 49.515625 64.59375 
L 19.828125 64.59375 
L 19.828125 46.734375 
Q 21.96875 47.46875 24.109375 47.828125 
Q 26.265625 48.1875 28.421875 48.1875 
Q 40.625 48.1875 47.75 41.5 
Q 54.890625 34.8125 54.890625 23.390625 
Q 54.890625 11.625 47.5625 5.09375 
Q 40.234375 -1.421875 26.90625 -1.421875 
Q 22.3125 -1.421875 17.546875 -0.640625 
Q 12.796875 0.140625 7.71875 1.703125 
L 7.71875 11.625 
Q 12.109375 9.234375 16.796875 8.0625 
Q 21.484375 6.890625 26.703125 6.890625 
Q 35.15625 6.890625 40.078125 11.328125 
Q 45.015625 15.765625 45.015625 23.390625 
Q 45.015625 31 40.078125 35.4375 
Q 35.15625 39.890625 26.703125 39.890625 
Q 22.75 39.890625 18.8125 39.015625 
Q 14.890625 38.140625 10.796875 36.28125 
z
" id="DejaVuSans-53"/>
      </defs>
      <g transform="translate(129.119686 257.038437)scale(0.1 -0.1)">
       <use xlink:href="#DejaVuSans-53"/>
       <use x="63.623047" xlink:href="#DejaVuSans-48"/>
      </g>
     </g>
    </g>
    <g id="xtick_3">
     <g id="line2d_3">
      <g>
       <use style="stroke:#000000;stroke-width:0.8;" x="192.045503" xlink:href="#m0753a51bb1" y="242.44"/>
      </g>
     </g>
     <g id="text_3">
      <!-- 100 -->
      <defs>
       <path d="M 12.40625 8.296875 
L 28.515625 8.296875 
L 28.515625 63.921875 
L 10.984375 60.40625 
L 10.984375 69.390625 
L 28.421875 72.90625 
L 38.28125 72.90625 
L 38.28125 8.296875 
L 54.390625 8.296875 
L 54.390625 0 
L 12.40625 0 
z
" id="DejaVuSans-49"/>
      </defs>
      <g transform="translate(182.501753 257.038437)scale(0.1 -0.1)">
       <use xlink:href="#DejaVuSans-49"/>
       <use x="63.623047" xlink:href="#DejaVuSans-48"/>
       <use x="127.246094" xlink:href="#DejaVuSans-48"/>
      </g>
     </g>
    </g>
    <g id="xtick_4">
     <g id="line2d_4">
      <g>
       <use style="stroke:#000000;stroke-width:0.8;" x="248.608819" xlink:href="#m0753a51bb1" y="242.44"/>
      </g>
     </g>
     <g id="text_4">
      <!-- 150 -->
      <g transform="translate(239.065069 257.038437)scale(0.1 -0.1)">
       <use xlink:href="#DejaVuSans-49"/>
       <use x="63.623047" xlink:href="#DejaVuSans-53"/>
       <use x="127.246094" xlink:href="#DejaVuSans-48"/>
      </g>
     </g>
    </g>
    <g id="xtick_5">
     <g id="line2d_5">
      <g>
       <use style="stroke:#000000;stroke-width:0.8;" x="305.172135" xlink:href="#m0753a51bb1" y="242.44"/>
      </g>
     </g>
     <g id="text_5">
      <!-- 200 -->
      <defs>
       <path d="M 19.1875 8.296875 
L 53.609375 8.296875 
L 53.609375 0 
L 7.328125 0 
L 7.328125 8.296875 
Q 12.9375 14.109375 22.625 23.890625 
Q 32.328125 33.6875 34.8125 36.53125 
Q 39.546875 41.84375 41.421875 45.53125 
Q 43.3125 49.21875 43.3125 52.78125 
Q 43.3125 58.59375 39.234375 62.25 
Q 35.15625 65.921875 28.609375 65.921875 
Q 23.96875 65.921875 18.8125 64.3125 
Q 13.671875 62.703125 7.8125 59.421875 
L 7.8125 69.390625 
Q 13.765625 71.78125 18.9375 73 
Q 24.125 74.21875 28.421875 74.21875 
Q 39.75 74.21875 46.484375 68.546875 
Q 53.21875 62.890625 53.21875 53.421875 
Q 53.21875 48.921875 51.53125 44.890625 
Q 49.859375 40.875 45.40625 35.40625 
Q 44.1875 33.984375 37.640625 27.21875 
Q 31.109375 20.453125 19.1875 8.296875 
z
" id="DejaVuSans-50"/>
      </defs>
      <g transform="translate(295.628385 257.038437)scale(0.1 -0.1)">
       <use xlink:href="#DejaVuSans-50"/>
       <use x="63.623047" xlink:href="#DejaVuSans-48"/>
       <use x="127.246094" xlink:href="#DejaVuSans-48"/>
      </g>
     </g>
    </g>
    <g id="text_6">
     <!-- Regression coefficient $\beta_i$ -->
     <defs>
      <path d="M 44.390625 34.1875 
Q 47.5625 33.109375 50.5625 29.59375 
Q 53.5625 26.078125 56.59375 19.921875 
L 66.609375 0 
L 56 0 
L 46.6875 18.703125 
Q 43.0625 26.03125 39.671875 28.421875 
Q 36.28125 30.8125 30.421875 30.8125 
L 19.671875 30.8125 
L 19.671875 0 
L 9.8125 0 
L 9.8125 72.90625 
L 32.078125 72.90625 
Q 44.578125 72.90625 50.734375 67.671875 
Q 56.890625 62.453125 56.890625 51.90625 
Q 56.890625 45.015625 53.6875 40.46875 
Q 50.484375 35.9375 44.390625 34.1875 
z
M 19.671875 64.796875 
L 19.671875 38.921875 
L 32.078125 38.921875 
Q 39.203125 38.921875 42.84375 42.21875 
Q 46.484375 45.515625 46.484375 51.90625 
Q 46.484375 58.296875 42.84375 61.546875 
Q 39.203125 64.796875 32.078125 64.796875 
z
" id="DejaVuSans-82"/>
      <path d="M 56.203125 29.59375 
L 56.203125 25.203125 
L 14.890625 25.203125 
Q 15.484375 15.921875 20.484375 11.0625 
Q 25.484375 6.203125 34.421875 6.203125 
Q 39.59375 6.203125 44.453125 7.46875 
Q 49.3125 8.734375 54.109375 11.28125 
L 54.109375 2.78125 
Q 49.265625 0.734375 44.1875 -0.34375 
Q 39.109375 -1.421875 33.890625 -1.421875 
Q 20.796875 -1.421875 13.15625 6.1875 
Q 5.515625 13.8125 5.515625 26.8125 
Q 5.515625 40.234375 12.765625 48.109375 
Q 20.015625 56 32.328125 56 
Q 43.359375 56 49.78125 48.890625 
Q 56.203125 41.796875 56.203125 29.59375 
z
M 47.21875 32.234375 
Q 47.125 39.59375 43.09375 43.984375 
Q 39.0625 48.390625 32.421875 48.390625 
Q 24.90625 48.390625 20.390625 44.140625 
Q 15.875 39.890625 15.1875 32.171875 
z
" id="DejaVuSans-101"/>
      <path d="M 45.40625 27.984375 
Q 45.40625 37.75 41.375 43.109375 
Q 37.359375 48.484375 30.078125 48.484375 
Q 22.859375 48.484375 18.828125 43.109375 
Q 14.796875 37.75 14.796875 27.984375 
Q 14.796875 18.265625 18.828125 12.890625 
Q 22.859375 7.515625 30.078125 7.515625 
Q 37.359375 7.515625 41.375 12.890625 
Q 45.40625 18.265625 45.40625 27.984375 
z
M 54.390625 6.78125 
Q 54.390625 -7.171875 48.1875 -13.984375 
Q 42 -20.796875 29.203125 -20.796875 
Q 24.46875 -20.796875 20.265625 -20.09375 
Q 16.0625 -19.390625 12.109375 -17.921875 
L 12.109375 -9.1875 
Q 16.0625 -11.328125 19.921875 -12.34375 
Q 23.78125 -13.375 27.78125 -13.375 
Q 36.625 -13.375 41.015625 -8.765625 
Q 45.40625 -4.15625 45.40625 5.171875 
L 45.40625 9.625 
Q 42.625 4.78125 38.28125 2.390625 
Q 33.9375 0 27.875 0 
Q 17.828125 0 11.671875 7.65625 
Q 5.515625 15.328125 5.515625 27.984375 
Q 5.515625 40.671875 11.671875 48.328125 
Q 17.828125 56 27.875 56 
Q 33.9375 56 38.28125 53.609375 
Q 42.625 51.21875 45.40625 46.390625 
L 45.40625 54.6875 
L 54.390625 54.6875 
z
" id="DejaVuSans-103"/>
      <path d="M 41.109375 46.296875 
Q 39.59375 47.171875 37.8125 47.578125 
Q 36.03125 48 33.890625 48 
Q 26.265625 48 22.1875 43.046875 
Q 18.109375 38.09375 18.109375 28.8125 
L 18.109375 0 
L 9.078125 0 
L 9.078125 54.6875 
L 18.109375 54.6875 
L 18.109375 46.1875 
Q 20.953125 51.171875 25.484375 53.578125 
Q 30.03125 56 36.53125 56 
Q 37.453125 56 38.578125 55.875 
Q 39.703125 55.765625 41.0625 55.515625 
z
" id="DejaVuSans-114"/>
      <path d="M 44.28125 53.078125 
L 44.28125 44.578125 
Q 40.484375 46.53125 36.375 47.5 
Q 32.28125 48.484375 27.875 48.484375 
Q 21.1875 48.484375 17.84375 46.4375 
Q 14.5 44.390625 14.5 40.28125 
Q 14.5 37.15625 16.890625 35.375 
Q 19.28125 33.59375 26.515625 31.984375 
L 29.59375 31.296875 
Q 39.15625 29.25 43.1875 25.515625 
Q 47.21875 21.78125 47.21875 15.09375 
Q 47.21875 7.46875 41.1875 3.015625 
Q 35.15625 -1.421875 24.609375 -1.421875 
Q 20.21875 -1.421875 15.453125 -0.5625 
Q 10.6875 0.296875 5.421875 2 
L 5.421875 11.28125 
Q 10.40625 8.6875 15.234375 7.390625 
Q 20.0625 6.109375 24.8125 6.109375 
Q 31.15625 6.109375 34.5625 8.28125 
Q 37.984375 10.453125 37.984375 14.40625 
Q 37.984375 18.0625 35.515625 20.015625 
Q 33.0625 21.96875 24.703125 23.78125 
L 21.578125 24.515625 
Q 13.234375 26.265625 9.515625 29.90625 
Q 5.8125 33.546875 5.8125 39.890625 
Q 5.8125 47.609375 11.28125 51.796875 
Q 16.75 56 26.8125 56 
Q 31.78125 56 36.171875 55.265625 
Q 40.578125 54.546875 44.28125 53.078125 
z
" id="DejaVuSans-115"/>
      <path d="M 9.421875 54.6875 
L 18.40625 54.6875 
L 18.40625 0 
L 9.421875 0 
z
M 9.421875 75.984375 
L 18.40625 75.984375 
L 18.40625 64.59375 
L 9.421875 64.59375 
z
" id="DejaVuSans-105"/>
      <path d="M 30.609375 48.390625 
Q 23.390625 48.390625 19.1875 42.75 
Q 14.984375 37.109375 14.984375 27.296875 
Q 14.984375 17.484375 19.15625 11.84375 
Q 23.34375 6.203125 30.609375 6.203125 
Q 37.796875 6.203125 41.984375 11.859375 
Q 46.1875 17.53125 46.1875 27.296875 
Q 46.1875 37.015625 41.984375 42.703125 
Q 37.796875 48.390625 30.609375 48.390625 
z
M 30.609375 56 
Q 42.328125 56 49.015625 48.375 
Q 55.71875 40.765625 55.71875 27.296875 
Q 55.71875 13.875 49.015625 6.21875 
Q 42.328125 -1.421875 30.609375 -1.421875 
Q 18.84375 -1.421875 12.171875 6.21875 
Q 5.515625 13.875 5.515625 27.296875 
Q 5.515625 40.765625 12.171875 48.375 
Q 18.84375 56 30.609375 56 
z
" id="DejaVuSans-111"/>
      <path d="M 54.890625 33.015625 
L 54.890625 0 
L 45.90625 0 
L 45.90625 32.71875 
Q 45.90625 40.484375 42.875 44.328125 
Q 39.84375 48.1875 33.796875 48.1875 
Q 26.515625 48.1875 22.3125 43.546875 
Q 18.109375 38.921875 18.109375 30.90625 
L 18.109375 0 
L 9.078125 0 
L 9.078125 54.6875 
L 18.109375 54.6875 
L 18.109375 46.1875 
Q 21.34375 51.125 25.703125 53.5625 
Q 30.078125 56 35.796875 56 
Q 45.21875 56 50.046875 50.171875 
Q 54.890625 44.34375 54.890625 33.015625 
z
" id="DejaVuSans-110"/>
      <path id="DejaVuSans-32"/>
      <path d="M 48.78125 52.59375 
L 48.78125 44.1875 
Q 44.96875 46.296875 41.140625 47.34375 
Q 37.3125 48.390625 33.40625 48.390625 
Q 24.65625 48.390625 19.8125 42.84375 
Q 14.984375 37.3125 14.984375 27.296875 
Q 14.984375 17.28125 19.8125 11.734375 
Q 24.65625 6.203125 33.40625 6.203125 
Q 37.3125 6.203125 41.140625 7.25 
Q 44.96875 8.296875 48.78125 10.40625 
L 48.78125 2.09375 
Q 45.015625 0.34375 40.984375 -0.53125 
Q 36.96875 -1.421875 32.421875 -1.421875 
Q 20.0625 -1.421875 12.78125 6.34375 
Q 5.515625 14.109375 5.515625 27.296875 
Q 5.515625 40.671875 12.859375 48.328125 
Q 20.21875 56 33.015625 56 
Q 37.15625 56 41.109375 55.140625 
Q 45.0625 54.296875 48.78125 52.59375 
z
" id="DejaVuSans-99"/>
      <path d="M 37.109375 75.984375 
L 37.109375 68.5 
L 28.515625 68.5 
Q 23.6875 68.5 21.796875 66.546875 
Q 19.921875 64.59375 19.921875 59.515625 
L 19.921875 54.6875 
L 34.71875 54.6875 
L 34.71875 47.703125 
L 19.921875 47.703125 
L 19.921875 0 
L 10.890625 0 
L 10.890625 47.703125 
L 2.296875 47.703125 
L 2.296875 54.6875 
L 10.890625 54.6875 
L 10.890625 58.5 
Q 10.890625 67.625 15.140625 71.796875 
Q 19.390625 75.984375 28.609375 75.984375 
z
" id="DejaVuSans-102"/>
      <path d="M 18.3125 70.21875 
L 18.3125 54.6875 
L 36.8125 54.6875 
L 36.8125 47.703125 
L 18.3125 47.703125 
L 18.3125 18.015625 
Q 18.3125 11.328125 20.140625 9.421875 
Q 21.96875 7.515625 27.59375 7.515625 
L 36.8125 7.515625 
L 36.8125 0 
L 27.59375 0 
Q 17.1875 0 13.234375 3.875 
Q 9.28125 7.765625 9.28125 18.015625 
L 9.28125 47.703125 
L 2.6875 47.703125 
L 2.6875 54.6875 
L 9.28125 54.6875 
L 9.28125 70.21875 
z
" id="DejaVuSans-116"/>
      <path d="M 13.625 3.375 
L 8.9375 -20.796875 
L -0.09375 -20.796875 
L 14.5 54.34375 
Q 18.84375 76.609375 39.65625 76.609375 
Q 60.75 76.609375 57.171875 57.8125 
Q 54.734375 44.4375 45.21875 39.546875 
Q 58.015625 35.15625 55.515625 22.125 
Q 51.125 -1.078125 27.484375 -1.03125 
Q 17.140625 -0.984375 13.625 3.375 
z
M 15.921875 15.09375 
Q 19.671875 6.59375 29.296875 6.640625 
Q 43.359375 6.640625 46.34375 21.96875 
Q 49.03125 35.75 26.171875 34.671875 
L 27.78125 42.96875 
Q 45.453125 42.671875 48.53125 58.59375 
Q 50.640625 69.34375 39.203125 69.28125 
Q 26.421875 69.28125 23.484375 54.046875 
z
" id="DejaVuSans-Oblique-946"/>
      <path d="M 18.3125 75.984375 
L 27.296875 75.984375 
L 25.09375 64.59375 
L 16.109375 64.59375 
z
M 14.203125 54.6875 
L 23.1875 54.6875 
L 12.5 0 
L 3.515625 0 
z
" id="DejaVuSans-Oblique-105"/>
     </defs>
     <g transform="translate(126.97 272.358125)scale(0.12 -0.12)">
      <use transform="translate(0 0.390625)" xlink:href="#DejaVuSans-82"/>
      <use transform="translate(69.482422 0.390625)" xlink:href="#DejaVuSans-101"/>
      <use transform="translate(131.005859 0.390625)" xlink:href="#DejaVuSans-103"/>
      <use transform="translate(194.482422 0.390625)" xlink:href="#DejaVuSans-114"/>
      <use transform="translate(235.595703 0.390625)" xlink:href="#DejaVuSans-101"/>
      <use transform="translate(297.119141 0.390625)" xlink:href="#DejaVuSans-115"/>
      <use transform="translate(349.21875 0.390625)" xlink:href="#DejaVuSans-115"/>
      <use transform="translate(401.318359 0.390625)" xlink:href="#DejaVuSans-105"/>
      <use transform="translate(429.101562 0.390625)" xlink:href="#DejaVuSans-111"/>
      <use transform="translate(490.283203 0.390625)" xlink:href="#DejaVuSans-110"/>
      <use transform="translate(553.662109 0.390625)" xlink:href="#DejaVuSans-32"/>
      <use transform="translate(585.449219 0.390625)" xlink:href="#DejaVuSans-99"/>
      <use transform="translate(640.429688 0.390625)" xlink:href="#DejaVuSans-111"/>
      <use transform="translate(701.611328 0.390625)" xlink:href="#DejaVuSans-101"/>
      <use transform="translate(763.134766 0.390625)" xlink:href="#DejaVuSans-102"/>
      <use transform="translate(798.339844 0.390625)" xlink:href="#DejaVuSans-102"/>
      <use transform="translate(833.544922 0.390625)" xlink:href="#DejaVuSans-105"/>
      <use transform="translate(861.328125 0.390625)" xlink:href="#DejaVuSans-99"/>
      <use transform="translate(916.308594 0.390625)" xlink:href="#DejaVuSans-105"/>
      <use transform="translate(944.091797 0.390625)" xlink:href="#DejaVuSans-101"/>
      <use transform="translate(1005.615234 0.390625)" xlink:href="#DejaVuSans-110"/>
      <use transform="translate(1068.994141 0.390625)" xlink:href="#DejaVuSans-116"/>
      <use transform="translate(1108.203125 0.390625)" xlink:href="#DejaVuSans-32"/>
      <use transform="translate(1139.990234 0.390625)" xlink:href="#DejaVuSans-Oblique-946"/>
      <use transform="translate(1203.808594 -16.015625)scale(0.7)" xlink:href="#DejaVuSans-Oblique-105"/>
     </g>
    </g>
   </g>
   <g id="matplotlib.axis_2">
    <g id="ytick_1">
     <g id="line2d_6">
      <defs>
       <path d="M 0 0 
L -3.5 0 
" id="m87c2ec6ef9" style="stroke:#000000;stroke-width:0.8;"/>
      </defs>
      <g>
       <use style="stroke:#000000;stroke-width:0.8;" x="66.26" xlink:href="#m87c2ec6ef9" y="220.532286"/>
      </g>
     </g>
     <g id="text_7">
      <!-- 5000 -->
      <defs>
       <path d="M 10.59375 35.5 
L 73.1875 35.5 
L 73.1875 27.203125 
L 10.59375 27.203125 
z
" id="DejaVuSans-8722"/>
      </defs>
      <g transform="translate(25.430313 224.331504)scale(0.1 -0.1)">
       <use xlink:href="#DejaVuSans-8722"/>
       <use x="83.789062" xlink:href="#DejaVuSans-53"/>
       <use x="147.412109" xlink:href="#DejaVuSans-48"/>
       <use x="211.035156" xlink:href="#DejaVuSans-48"/>
       <use x="274.658203" xlink:href="#DejaVuSans-48"/>
      </g>
     </g>
    </g>
    <g id="ytick_2">
     <g id="line2d_7">
      <g>
       <use style="stroke:#000000;stroke-width:0.8;" x="66.26" xlink:href="#m87c2ec6ef9" y="184.019429"/>
      </g>
     </g>
     <g id="text_8">
      <!-- 0 -->
      <g transform="translate(52.8975 187.818647)scale(0.1 -0.1)">
       <use xlink:href="#DejaVuSans-48"/>
      </g>
     </g>
    </g>
    <g id="ytick_3">
     <g id="line2d_8">
      <g>
       <use style="stroke:#000000;stroke-width:0.8;" x="66.26" xlink:href="#m87c2ec6ef9" y="147.506571"/>
      </g>
     </g>
     <g id="text_9">
      <!-- 5000 -->
      <g transform="translate(33.81 151.30579)scale(0.1 -0.1)">
       <use xlink:href="#DejaVuSans-53"/>
       <use x="63.623047" xlink:href="#DejaVuSans-48"/>
       <use x="127.246094" xlink:href="#DejaVuSans-48"/>
       <use x="190.869141" xlink:href="#DejaVuSans-48"/>
      </g>
     </g>
    </g>
    <g id="ytick_4">
     <g id="line2d_9">
      <g>
       <use style="stroke:#000000;stroke-width:0.8;" x="66.26" xlink:href="#m87c2ec6ef9" y="110.993714"/>
      </g>
     </g>
     <g id="text_10">
      <!-- 10000 -->
      <g transform="translate(27.4475 114.792933)scale(0.1 -0.1)">
       <use xlink:href="#DejaVuSans-49"/>
       <use x="63.623047" xlink:href="#DejaVuSans-48"/>
       <use x="127.246094" xlink:href="#DejaVuSans-48"/>
       <use x="190.869141" xlink:href="#DejaVuSans-48"/>
       <use x="254.492188" xlink:href="#DejaVuSans-48"/>
      </g>
     </g>
    </g>
    <g id="ytick_5">
     <g id="line2d_10">
      <g>
       <use style="stroke:#000000;stroke-width:0.8;" x="66.26" xlink:href="#m87c2ec6ef9" y="74.480857"/>
      </g>
     </g>
     <g id="text_11">
      <!-- 15000 -->
      <g transform="translate(27.4475 78.280076)scale(0.1 -0.1)">
       <use xlink:href="#DejaVuSans-49"/>
       <use x="63.623047" xlink:href="#DejaVuSans-53"/>
       <use x="127.246094" xlink:href="#DejaVuSans-48"/>
       <use x="190.869141" xlink:href="#DejaVuSans-48"/>
       <use x="254.492188" xlink:href="#DejaVuSans-48"/>
      </g>
     </g>
    </g>
    <g id="ytick_6">
     <g id="line2d_11">
      <g>
       <use style="stroke:#000000;stroke-width:0.8;" x="66.26" xlink:href="#m87c2ec6ef9" y="37.968"/>
      </g>
     </g>
     <g id="text_12">
      <!-- 20000 -->
      <g transform="translate(27.4475 41.767219)scale(0.1 -0.1)">
       <use xlink:href="#DejaVuSans-50"/>
       <use x="63.623047" xlink:href="#DejaVuSans-48"/>
       <use x="127.246094" xlink:href="#DejaVuSans-48"/>
       <use x="190.869141" xlink:href="#DejaVuSans-48"/>
       <use x="254.492188" xlink:href="#DejaVuSans-48"/>
      </g>
     </g>
    </g>
    <g id="text_13">
     <!-- Regression coefficient value -->
     <defs>
      <path d="M 2.984375 54.6875 
L 12.5 54.6875 
L 29.59375 8.796875 
L 46.6875 54.6875 
L 56.203125 54.6875 
L 35.6875 0 
L 23.484375 0 
z
" id="DejaVuSans-118"/>
      <path d="M 34.28125 27.484375 
Q 23.390625 27.484375 19.1875 25 
Q 14.984375 22.515625 14.984375 16.5 
Q 14.984375 11.71875 18.140625 8.90625 
Q 21.296875 6.109375 26.703125 6.109375 
Q 34.1875 6.109375 38.703125 11.40625 
Q 43.21875 16.703125 43.21875 25.484375 
L 43.21875 27.484375 
z
M 52.203125 31.203125 
L 52.203125 0 
L 43.21875 0 
L 43.21875 8.296875 
Q 40.140625 3.328125 35.546875 0.953125 
Q 30.953125 -1.421875 24.3125 -1.421875 
Q 15.921875 -1.421875 10.953125 3.296875 
Q 6 8.015625 6 15.921875 
Q 6 25.140625 12.171875 29.828125 
Q 18.359375 34.515625 30.609375 34.515625 
L 43.21875 34.515625 
L 43.21875 35.40625 
Q 43.21875 41.609375 39.140625 45 
Q 35.0625 48.390625 27.6875 48.390625 
Q 23 48.390625 18.546875 47.265625 
Q 14.109375 46.140625 10.015625 43.890625 
L 10.015625 52.203125 
Q 14.9375 54.109375 19.578125 55.046875 
Q 24.21875 56 28.609375 56 
Q 40.484375 56 46.34375 49.84375 
Q 52.203125 43.703125 52.203125 31.203125 
z
" id="DejaVuSans-97"/>
      <path d="M 9.421875 75.984375 
L 18.40625 75.984375 
L 18.40625 0 
L 9.421875 0 
z
" id="DejaVuSans-108"/>
      <path d="M 8.5 21.578125 
L 8.5 54.6875 
L 17.484375 54.6875 
L 17.484375 21.921875 
Q 17.484375 14.15625 20.5 10.265625 
Q 23.53125 6.390625 29.59375 6.390625 
Q 36.859375 6.390625 41.078125 11.03125 
Q 45.3125 15.671875 45.3125 23.6875 
L 45.3125 54.6875 
L 54.296875 54.6875 
L 54.296875 0 
L 45.3125 0 
L 45.3125 8.40625 
Q 42.046875 3.421875 37.71875 1 
Q 33.40625 -1.421875 27.6875 -1.421875 
Q 18.265625 -1.421875 13.375 4.4375 
Q 8.5 10.296875 8.5 21.578125 
z
M 31.109375 56 
z
" id="DejaVuSans-117"/>
     </defs>
     <g transform="translate(18.934688 224.98775)rotate(-90)scale(0.12 -0.12)">
      <use xlink:href="#DejaVuSans-82"/>
      <use x="69.419922" xlink:href="#DejaVuSans-101"/>
      <use x="130.943359" xlink:href="#DejaVuSans-103"/>
      <use x="194.419922" xlink:href="#DejaVuSans-114"/>
      <use x="235.501953" xlink:href="#DejaVuSans-101"/>
      <use x="297.025391" xlink:href="#DejaVuSans-115"/>
      <use x="349.125" xlink:href="#DejaVuSans-115"/>
      <use x="401.224609" xlink:href="#DejaVuSans-105"/>
      <use x="429.007812" xlink:href="#DejaVuSans-111"/>
      <use x="490.189453" xlink:href="#DejaVuSans-110"/>
      <use x="553.568359" xlink:href="#DejaVuSans-32"/>
      <use x="585.355469" xlink:href="#DejaVuSans-99"/>
      <use x="640.335938" xlink:href="#DejaVuSans-111"/>
      <use x="701.517578" xlink:href="#DejaVuSans-101"/>
      <use x="763.041016" xlink:href="#DejaVuSans-102"/>
      <use x="798.246094" xlink:href="#DejaVuSans-102"/>
      <use x="833.451172" xlink:href="#DejaVuSans-105"/>
      <use x="861.234375" xlink:href="#DejaVuSans-99"/>
      <use x="916.214844" xlink:href="#DejaVuSans-105"/>
      <use x="943.998047" xlink:href="#DejaVuSans-101"/>
      <use x="1005.521484" xlink:href="#DejaVuSans-110"/>
      <use x="1068.900391" xlink:href="#DejaVuSans-116"/>
      <use x="1108.109375" xlink:href="#DejaVuSans-32"/>
      <use x="1139.896484" xlink:href="#DejaVuSans-118"/>
      <use x="1199.076172" xlink:href="#DejaVuSans-97"/>
      <use x="1260.355469" xlink:href="#DejaVuSans-108"/>
      <use x="1288.138672" xlink:href="#DejaVuSans-117"/>
      <use x="1351.517578" xlink:href="#DejaVuSans-101"/>
     </g>
    </g>
   </g>
   <g id="patch_219">
    <path d="M 66.26 242.44 
L 66.26 37.968 
" style="fill:none;stroke:#000000;stroke-linecap:square;stroke-linejoin:miter;stroke-width:0.8;"/>
   </g>
   <g id="patch_220">
    <path d="M 334.8 242.44 
L 334.8 37.968 
" style="fill:none;stroke:#000000;stroke-linecap:square;stroke-linejoin:miter;stroke-width:0.8;"/>
   </g>
   <g id="patch_221">
    <path d="M 66.26 242.44 
L 334.8 242.44 
" style="fill:none;stroke:#000000;stroke-linecap:square;stroke-linejoin:miter;stroke-width:0.8;"/>
   </g>
   <g id="patch_222">
    <path d="M 66.26 37.968 
L 334.8 37.968 
" style="fill:none;stroke:#000000;stroke-linecap:square;stroke-linejoin:miter;stroke-width:0.8;"/>
   </g>
   <g id="text_14">
    <!-- AMES data Ridge(alpha=80) coefficients -->
    <defs>
     <path d="M 34.1875 63.1875 
L 20.796875 26.90625 
L 47.609375 26.90625 
z
M 28.609375 72.90625 
L 39.796875 72.90625 
L 67.578125 0 
L 57.328125 0 
L 50.6875 18.703125 
L 17.828125 18.703125 
L 11.1875 0 
L 0.78125 0 
z
" id="DejaVuSans-65"/>
     <path d="M 9.8125 72.90625 
L 24.515625 72.90625 
L 43.109375 23.296875 
L 61.8125 72.90625 
L 76.515625 72.90625 
L 76.515625 0 
L 66.890625 0 
L 66.890625 64.015625 
L 48.09375 14.015625 
L 38.1875 14.015625 
L 19.390625 64.015625 
L 19.390625 0 
L 9.8125 0 
z
" id="DejaVuSans-77"/>
     <path d="M 9.8125 72.90625 
L 55.90625 72.90625 
L 55.90625 64.59375 
L 19.671875 64.59375 
L 19.671875 43.015625 
L 54.390625 43.015625 
L 54.390625 34.71875 
L 19.671875 34.71875 
L 19.671875 8.296875 
L 56.78125 8.296875 
L 56.78125 0 
L 9.8125 0 
z
" id="DejaVuSans-69"/>
     <path d="M 53.515625 70.515625 
L 53.515625 60.890625 
Q 47.90625 63.578125 42.921875 64.890625 
Q 37.9375 66.21875 33.296875 66.21875 
Q 25.25 66.21875 20.875 63.09375 
Q 16.5 59.96875 16.5 54.203125 
Q 16.5 49.359375 19.40625 46.890625 
Q 22.3125 44.4375 30.421875 42.921875 
L 36.375 41.703125 
Q 47.40625 39.59375 52.65625 34.296875 
Q 57.90625 29 57.90625 20.125 
Q 57.90625 9.515625 50.796875 4.046875 
Q 43.703125 -1.421875 29.984375 -1.421875 
Q 24.8125 -1.421875 18.96875 -0.25 
Q 13.140625 0.921875 6.890625 3.21875 
L 6.890625 13.375 
Q 12.890625 10.015625 18.65625 8.296875 
Q 24.421875 6.59375 29.984375 6.59375 
Q 38.421875 6.59375 43.015625 9.90625 
Q 47.609375 13.234375 47.609375 19.390625 
Q 47.609375 24.75 44.3125 27.78125 
Q 41.015625 30.8125 33.5 32.328125 
L 27.484375 33.5 
Q 16.453125 35.6875 11.515625 40.375 
Q 6.59375 45.0625 6.59375 53.421875 
Q 6.59375 63.09375 13.40625 68.65625 
Q 20.21875 74.21875 32.171875 74.21875 
Q 37.3125 74.21875 42.625 73.28125 
Q 47.953125 72.359375 53.515625 70.515625 
z
" id="DejaVuSans-83"/>
     <path d="M 45.40625 46.390625 
L 45.40625 75.984375 
L 54.390625 75.984375 
L 54.390625 0 
L 45.40625 0 
L 45.40625 8.203125 
Q 42.578125 3.328125 38.25 0.953125 
Q 33.9375 -1.421875 27.875 -1.421875 
Q 17.96875 -1.421875 11.734375 6.484375 
Q 5.515625 14.40625 5.515625 27.296875 
Q 5.515625 40.1875 11.734375 48.09375 
Q 17.96875 56 27.875 56 
Q 33.9375 56 38.25 53.625 
Q 42.578125 51.265625 45.40625 46.390625 
z
M 14.796875 27.296875 
Q 14.796875 17.390625 18.875 11.75 
Q 22.953125 6.109375 30.078125 6.109375 
Q 37.203125 6.109375 41.296875 11.75 
Q 45.40625 17.390625 45.40625 27.296875 
Q 45.40625 37.203125 41.296875 42.84375 
Q 37.203125 48.484375 30.078125 48.484375 
Q 22.953125 48.484375 18.875 42.84375 
Q 14.796875 37.203125 14.796875 27.296875 
z
" id="DejaVuSans-100"/>
     <path d="M 31 75.875 
Q 24.46875 64.65625 21.28125 53.65625 
Q 18.109375 42.671875 18.109375 31.390625 
Q 18.109375 20.125 21.3125 9.0625 
Q 24.515625 -2 31 -13.1875 
L 23.1875 -13.1875 
Q 15.875 -1.703125 12.234375 9.375 
Q 8.59375 20.453125 8.59375 31.390625 
Q 8.59375 42.28125 12.203125 53.3125 
Q 15.828125 64.359375 23.1875 75.875 
z
" id="DejaVuSans-40"/>
     <path d="M 18.109375 8.203125 
L 18.109375 -20.796875 
L 9.078125 -20.796875 
L 9.078125 54.6875 
L 18.109375 54.6875 
L 18.109375 46.390625 
Q 20.953125 51.265625 25.265625 53.625 
Q 29.59375 56 35.59375 56 
Q 45.5625 56 51.78125 48.09375 
Q 58.015625 40.1875 58.015625 27.296875 
Q 58.015625 14.40625 51.78125 6.484375 
Q 45.5625 -1.421875 35.59375 -1.421875 
Q 29.59375 -1.421875 25.265625 0.953125 
Q 20.953125 3.328125 18.109375 8.203125 
z
M 48.6875 27.296875 
Q 48.6875 37.203125 44.609375 42.84375 
Q 40.53125 48.484375 33.40625 48.484375 
Q 26.265625 48.484375 22.1875 42.84375 
Q 18.109375 37.203125 18.109375 27.296875 
Q 18.109375 17.390625 22.1875 11.75 
Q 26.265625 6.109375 33.40625 6.109375 
Q 40.53125 6.109375 44.609375 11.75 
Q 48.6875 17.390625 48.6875 27.296875 
z
" id="DejaVuSans-112"/>
     <path d="M 54.890625 33.015625 
L 54.890625 0 
L 45.90625 0 
L 45.90625 32.71875 
Q 45.90625 40.484375 42.875 44.328125 
Q 39.84375 48.1875 33.796875 48.1875 
Q 26.515625 48.1875 22.3125 43.546875 
Q 18.109375 38.921875 18.109375 30.90625 
L 18.109375 0 
L 9.078125 0 
L 9.078125 75.984375 
L 18.109375 75.984375 
L 18.109375 46.1875 
Q 21.34375 51.125 25.703125 53.5625 
Q 30.078125 56 35.796875 56 
Q 45.21875 56 50.046875 50.171875 
Q 54.890625 44.34375 54.890625 33.015625 
z
" id="DejaVuSans-104"/>
     <path d="M 10.59375 45.40625 
L 73.1875 45.40625 
L 73.1875 37.203125 
L 10.59375 37.203125 
z
M 10.59375 25.484375 
L 73.1875 25.484375 
L 73.1875 17.1875 
L 10.59375 17.1875 
z
" id="DejaVuSans-61"/>
     <path d="M 31.78125 34.625 
Q 24.75 34.625 20.71875 30.859375 
Q 16.703125 27.09375 16.703125 20.515625 
Q 16.703125 13.921875 20.71875 10.15625 
Q 24.75 6.390625 31.78125 6.390625 
Q 38.8125 6.390625 42.859375 10.171875 
Q 46.921875 13.96875 46.921875 20.515625 
Q 46.921875 27.09375 42.890625 30.859375 
Q 38.875 34.625 31.78125 34.625 
z
M 21.921875 38.8125 
Q 15.578125 40.375 12.03125 44.71875 
Q 8.5 49.078125 8.5 55.328125 
Q 8.5 64.0625 14.71875 69.140625 
Q 20.953125 74.21875 31.78125 74.21875 
Q 42.671875 74.21875 48.875 69.140625 
Q 55.078125 64.0625 55.078125 55.328125 
Q 55.078125 49.078125 51.53125 44.71875 
Q 48 40.375 41.703125 38.8125 
Q 48.828125 37.15625 52.796875 32.3125 
Q 56.78125 27.484375 56.78125 20.515625 
Q 56.78125 9.90625 50.3125 4.234375 
Q 43.84375 -1.421875 31.78125 -1.421875 
Q 19.734375 -1.421875 13.25 4.234375 
Q 6.78125 9.90625 6.78125 20.515625 
Q 6.78125 27.484375 10.78125 32.3125 
Q 14.796875 37.15625 21.921875 38.8125 
z
M 18.3125 54.390625 
Q 18.3125 48.734375 21.84375 45.5625 
Q 25.390625 42.390625 31.78125 42.390625 
Q 38.140625 42.390625 41.71875 45.5625 
Q 45.3125 48.734375 45.3125 54.390625 
Q 45.3125 60.0625 41.71875 63.234375 
Q 38.140625 66.40625 31.78125 66.40625 
Q 25.390625 66.40625 21.84375 63.234375 
Q 18.3125 60.0625 18.3125 54.390625 
z
" id="DejaVuSans-56"/>
     <path d="M 8.015625 75.875 
L 15.828125 75.875 
Q 23.140625 64.359375 26.78125 53.3125 
Q 30.421875 42.28125 30.421875 31.390625 
Q 30.421875 20.453125 26.78125 9.375 
Q 23.140625 -1.703125 15.828125 -13.1875 
L 8.015625 -13.1875 
Q 14.5 -2 17.703125 9.0625 
Q 20.90625 20.125 20.90625 31.390625 
Q 20.90625 42.671875 17.703125 53.65625 
Q 14.5 64.65625 8.015625 75.875 
z
" id="DejaVuSans-41"/>
    </defs>
    <g transform="translate(78.798437 18.530625)scale(0.12 -0.12)">
     <use xlink:href="#DejaVuSans-65"/>
     <use x="68.408203" xlink:href="#DejaVuSans-77"/>
     <use x="154.6875" xlink:href="#DejaVuSans-69"/>
     <use x="217.871094" xlink:href="#DejaVuSans-83"/>
     <use x="281.347656" xlink:href="#DejaVuSans-32"/>
     <use x="313.134766" xlink:href="#DejaVuSans-100"/>
     <use x="376.611328" xlink:href="#DejaVuSans-97"/>
     <use x="437.890625" xlink:href="#DejaVuSans-116"/>
     <use x="477.099609" xlink:href="#DejaVuSans-97"/>
     <use x="538.378906" xlink:href="#DejaVuSans-32"/>
     <use x="570.166016" xlink:href="#DejaVuSans-82"/>
     <use x="639.648438" xlink:href="#DejaVuSans-105"/>
     <use x="667.431641" xlink:href="#DejaVuSans-100"/>
     <use x="730.908203" xlink:href="#DejaVuSans-103"/>
     <use x="794.384766" xlink:href="#DejaVuSans-101"/>
     <use x="855.908203" xlink:href="#DejaVuSans-40"/>
     <use x="894.921875" xlink:href="#DejaVuSans-97"/>
     <use x="956.201172" xlink:href="#DejaVuSans-108"/>
     <use x="983.984375" xlink:href="#DejaVuSans-112"/>
     <use x="1047.460938" xlink:href="#DejaVuSans-104"/>
     <use x="1110.839844" xlink:href="#DejaVuSans-97"/>
     <use x="1172.119141" xlink:href="#DejaVuSans-61"/>
     <use x="1255.908203" xlink:href="#DejaVuSans-56"/>
     <use x="1319.53125" xlink:href="#DejaVuSans-48"/>
     <use x="1383.154297" xlink:href="#DejaVuSans-41"/>
     <use x="1422.167969" xlink:href="#DejaVuSans-32"/>
     <use x="1453.955078" xlink:href="#DejaVuSans-99"/>
     <use x="1508.935547" xlink:href="#DejaVuSans-111"/>
     <use x="1570.117188" xlink:href="#DejaVuSans-101"/>
     <use x="1631.640625" xlink:href="#DejaVuSans-102"/>
     <use x="1666.845703" xlink:href="#DejaVuSans-102"/>
     <use x="1702.050781" xlink:href="#DejaVuSans-105"/>
     <use x="1729.833984" xlink:href="#DejaVuSans-99"/>
     <use x="1784.814453" xlink:href="#DejaVuSans-105"/>
     <use x="1812.597656" xlink:href="#DejaVuSans-101"/>
     <use x="1874.121094" xlink:href="#DejaVuSans-110"/>
     <use x="1937.5" xlink:href="#DejaVuSans-116"/>
     <use x="1976.708984" xlink:href="#DejaVuSans-115"/>
    </g>
    <!-- R^2 = 0.84, MAE = 18,822 dollars -->
    <defs>
     <path d="M 46.6875 72.90625 
L 73.1875 45.703125 
L 63.375 45.703125 
L 41.890625 64.984375 
L 20.40625 45.703125 
L 10.59375 45.703125 
L 37.109375 72.90625 
z
" id="DejaVuSans-94"/>
     <path d="M 10.6875 12.40625 
L 21 12.40625 
L 21 0 
L 10.6875 0 
z
" id="DejaVuSans-46"/>
     <path d="M 37.796875 64.3125 
L 12.890625 25.390625 
L 37.796875 25.390625 
z
M 35.203125 72.90625 
L 47.609375 72.90625 
L 47.609375 25.390625 
L 58.015625 25.390625 
L 58.015625 17.1875 
L 47.609375 17.1875 
L 47.609375 0 
L 37.796875 0 
L 37.796875 17.1875 
L 4.890625 17.1875 
L 4.890625 26.703125 
z
" id="DejaVuSans-52"/>
     <path d="M 11.71875 12.40625 
L 22.015625 12.40625 
L 22.015625 4 
L 14.015625 -11.625 
L 7.71875 -11.625 
L 11.71875 4 
z
" id="DejaVuSans-44"/>
    </defs>
    <g transform="translate(96.6025 31.968)scale(0.12 -0.12)">
     <use xlink:href="#DejaVuSans-82"/>
     <use x="69.482422" xlink:href="#DejaVuSans-94"/>
     <use x="153.271484" xlink:href="#DejaVuSans-50"/>
     <use x="216.894531" xlink:href="#DejaVuSans-32"/>
     <use x="248.681641" xlink:href="#DejaVuSans-61"/>
     <use x="332.470703" xlink:href="#DejaVuSans-32"/>
     <use x="364.257812" xlink:href="#DejaVuSans-48"/>
     <use x="427.880859" xlink:href="#DejaVuSans-46"/>
     <use x="459.667969" xlink:href="#DejaVuSans-56"/>
     <use x="523.291016" xlink:href="#DejaVuSans-52"/>
     <use x="586.914062" xlink:href="#DejaVuSans-44"/>
     <use x="618.701172" xlink:href="#DejaVuSans-32"/>
     <use x="650.488281" xlink:href="#DejaVuSans-77"/>
     <use x="736.767578" xlink:href="#DejaVuSans-65"/>
     <use x="805.175781" xlink:href="#DejaVuSans-69"/>
     <use x="868.359375" xlink:href="#DejaVuSans-32"/>
     <use x="900.146484" xlink:href="#DejaVuSans-61"/>
     <use x="983.935547" xlink:href="#DejaVuSans-32"/>
     <use x="1015.722656" xlink:href="#DejaVuSans-49"/>
     <use x="1079.345703" xlink:href="#DejaVuSans-56"/>
     <use x="1142.96875" xlink:href="#DejaVuSans-44"/>
     <use x="1174.755859" xlink:href="#DejaVuSans-56"/>
     <use x="1238.378906" xlink:href="#DejaVuSans-50"/>
     <use x="1302.001953" xlink:href="#DejaVuSans-50"/>
     <use x="1365.625" xlink:href="#DejaVuSans-32"/>
     <use x="1397.412109" xlink:href="#DejaVuSans-100"/>
     <use x="1460.888672" xlink:href="#DejaVuSans-111"/>
     <use x="1522.070312" xlink:href="#DejaVuSans-108"/>
     <use x="1549.853516" xlink:href="#DejaVuSans-108"/>
     <use x="1577.636719" xlink:href="#DejaVuSans-97"/>
     <use x="1638.916016" xlink:href="#DejaVuSans-114"/>
     <use x="1680.029297" xlink:href="#DejaVuSans-115"/>
    </g>
   </g>
  </g>
 </g>
 <defs>
  <clipPath id="pbcb63113a4">
   <rect height="204.472" width="268.54" x="66.26" y="37.968"/>
  </clipPath>
 </defs>
</svg>
