<?xml version="1.0" encoding="utf-8" standalone="no"?>
<!DOCTYPE svg PUBLIC "-//W3C//DTD SVG 1.1//EN"
  "http://www.w3.org/Graphics/SVG/1.1/DTD/svg11.dtd">
<!-- Created with matplotlib (https://matplotlib.org/) -->
<svg height="288pt" version="1.1" viewBox="0 0 360 288" width="360pt" xmlns="http://www.w3.org/2000/svg" xmlns:xlink="http://www.w3.org/1999/xlink">
 <defs>
  <style type="text/css">
*{stroke-linecap:butt;stroke-linejoin:round;}
  </style>
 </defs>
 <g id="figure_1">
  <g id="patch_1">
   <path d="M 0 288 
L 360 288 
L 360 0 
L 0 0 
z
" style="fill:#ffffff;"/>
  </g>
  <g id="axes_1">
   <g id="patch_2">
    <path d="M 91.748 242.44 
L 349.2 242.44 
L 349.2 37.968 
L 91.748 37.968 
z
" style="fill:#ffffff;"/>
   </g>
   <g id="patch_3">
    <path clip-path="url(#p269cbe35b7)" d="M 103.450364 140.204 
L 104.318009 140.204 
L 104.318009 140.204022 
L 103.450364 140.204022 
z
" style="fill:#1f77b4;"/>
   </g>
   <g id="patch_4">
    <path clip-path="url(#p269cbe35b7)" d="M 104.53492 140.204 
L 105.402565 140.204 
L 105.402565 47.262182 
L 104.53492 47.262182 
z
" style="fill:#1f77b4;"/>
   </g>
   <g id="patch_5">
    <path clip-path="url(#p269cbe35b7)" d="M 105.619476 140.204 
L 106.487122 140.204 
L 106.487122 140.203657 
L 105.619476 140.203657 
z
" style="fill:#1f77b4;"/>
   </g>
   <g id="patch_6">
    <path clip-path="url(#p269cbe35b7)" d="M 106.704033 140.204 
L 107.571678 140.204 
L 107.571678 140.202598 
L 106.704033 140.202598 
z
" style="fill:#1f77b4;"/>
   </g>
   <g id="patch_7">
    <path clip-path="url(#p269cbe35b7)" d="M 107.788589 140.204 
L 108.656234 140.204 
L 108.656234 140.201868 
L 107.788589 140.201868 
z
" style="fill:#1f77b4;"/>
   </g>
   <g id="patch_8">
    <path clip-path="url(#p269cbe35b7)" d="M 108.873146 140.204 
L 109.740791 140.204 
L 109.740791 233.145818 
L 108.873146 233.145818 
z
" style="fill:#1f77b4;"/>
   </g>
   <g id="patch_9">
    <path clip-path="url(#p269cbe35b7)" d="M 109.957702 140.204 
L 110.825347 140.204 
L 110.825347 140.194981 
L 109.957702 140.194981 
z
" style="fill:#1f77b4;"/>
   </g>
   <g id="patch_10">
    <path clip-path="url(#p269cbe35b7)" d="M 111.042258 140.204 
L 111.909904 140.204 
L 111.909904 140.203594 
L 111.042258 140.203594 
z
" style="fill:#1f77b4;"/>
   </g>
   <g id="patch_11">
    <path clip-path="url(#p269cbe35b7)" d="M 112.126815 140.204 
L 112.99446 140.204 
L 112.99446 140.203915 
L 112.126815 140.203915 
z
" style="fill:#1f77b4;"/>
   </g>
   <g id="patch_12">
    <path clip-path="url(#p269cbe35b7)" d="M 113.211371 140.204 
L 114.079016 140.204 
L 114.079016 233.145818 
L 113.211371 233.145818 
z
" style="fill:#1f77b4;"/>
   </g>
   <g id="patch_13">
    <path clip-path="url(#p269cbe35b7)" d="M 114.295928 140.204 
L 115.163573 140.204 
L 115.163573 140.202097 
L 114.295928 140.202097 
z
" style="fill:#1f77b4;"/>
   </g>
   <g id="patch_14">
    <path clip-path="url(#p269cbe35b7)" d="M 115.380484 140.204 
L 116.248129 140.204 
L 116.248129 140.197835 
L 115.380484 140.197835 
z
" style="fill:#1f77b4;"/>
   </g>
   <g id="patch_15">
    <path clip-path="url(#p269cbe35b7)" d="M 116.465041 140.204 
L 117.332686 140.204 
L 117.332686 140.20436 
L 116.465041 140.20436 
z
" style="fill:#1f77b4;"/>
   </g>
   <g id="patch_16">
    <path clip-path="url(#p269cbe35b7)" d="M 117.549597 140.204 
L 118.417242 140.204 
L 118.417242 233.145818 
L 117.549597 233.145818 
z
" style="fill:#1f77b4;"/>
   </g>
   <g id="patch_17">
    <path clip-path="url(#p269cbe35b7)" d="M 118.634153 140.204 
L 119.501798 140.204 
L 119.501798 140.195989 
L 118.634153 140.195989 
z
" style="fill:#1f77b4;"/>
   </g>
   <g id="patch_18">
    <path clip-path="url(#p269cbe35b7)" d="M 119.71871 140.204 
L 120.586355 140.204 
L 120.586355 140.203642 
L 119.71871 140.203642 
z
" style="fill:#1f77b4;"/>
   </g>
   <g id="patch_19">
    <path clip-path="url(#p269cbe35b7)" d="M 120.803266 140.204 
L 121.670911 140.204 
L 121.670911 140.203602 
L 120.803266 140.203602 
z
" style="fill:#1f77b4;"/>
   </g>
   <g id="patch_20">
    <path clip-path="url(#p269cbe35b7)" d="M 121.887823 140.204 
L 122.755468 140.204 
L 122.755468 140.207382 
L 121.887823 140.207382 
z
" style="fill:#1f77b4;"/>
   </g>
   <g id="patch_21">
    <path clip-path="url(#p269cbe35b7)" d="M 122.972379 140.204 
L 123.840024 140.204 
L 123.840024 140.203598 
L 122.972379 140.203598 
z
" style="fill:#1f77b4;"/>
   </g>
   <g id="patch_22">
    <path clip-path="url(#p269cbe35b7)" d="M 124.056935 140.204 
L 124.924581 140.204 
L 124.924581 140.202933 
L 124.056935 140.202933 
z
" style="fill:#1f77b4;"/>
   </g>
   <g id="patch_23">
    <path clip-path="url(#p269cbe35b7)" d="M 125.141492 140.204 
L 126.009137 140.204 
L 126.009137 140.206785 
L 125.141492 140.206785 
z
" style="fill:#1f77b4;"/>
   </g>
   <g id="patch_24">
    <path clip-path="url(#p269cbe35b7)" d="M 126.226048 140.204 
L 127.093693 140.204 
L 127.093693 140.194674 
L 126.226048 140.194674 
z
" style="fill:#1f77b4;"/>
   </g>
   <g id="patch_25">
    <path clip-path="url(#p269cbe35b7)" d="M 127.310605 140.204 
L 128.17825 140.204 
L 128.17825 140.203764 
L 127.310605 140.203764 
z
" style="fill:#1f77b4;"/>
   </g>
   <g id="patch_26">
    <path clip-path="url(#p269cbe35b7)" d="M 128.395161 140.204 
L 129.262806 140.204 
L 129.262806 233.145818 
L 128.395161 233.145818 
z
" style="fill:#1f77b4;"/>
   </g>
   <g id="patch_27">
    <path clip-path="url(#p269cbe35b7)" d="M 129.479717 140.204 
L 130.347363 140.204 
L 130.347363 233.145818 
L 129.479717 233.145818 
z
" style="fill:#1f77b4;"/>
   </g>
   <g id="patch_28">
    <path clip-path="url(#p269cbe35b7)" d="M 130.564274 140.204 
L 131.431919 140.204 
L 131.431919 140.202819 
L 130.564274 140.202819 
z
" style="fill:#1f77b4;"/>
   </g>
   <g id="patch_29">
    <path clip-path="url(#p269cbe35b7)" d="M 131.64883 140.204 
L 132.516475 140.204 
L 132.516475 140.198593 
L 131.64883 140.198593 
z
" style="fill:#1f77b4;"/>
   </g>
   <g id="patch_30">
    <path clip-path="url(#p269cbe35b7)" d="M 132.733387 140.204 
L 133.601032 140.204 
L 133.601032 140.203159 
L 132.733387 140.203159 
z
" style="fill:#1f77b4;"/>
   </g>
   <g id="patch_31">
    <path clip-path="url(#p269cbe35b7)" d="M 133.817943 140.204 
L 134.685588 140.204 
L 134.685588 47.262182 
L 133.817943 47.262182 
z
" style="fill:#1f77b4;"/>
   </g>
   <g id="patch_32">
    <path clip-path="url(#p269cbe35b7)" d="M 134.902499 140.204 
L 135.770145 140.204 
L 135.770145 140.205601 
L 134.902499 140.205601 
z
" style="fill:#1f77b4;"/>
   </g>
   <g id="patch_33">
    <path clip-path="url(#p269cbe35b7)" d="M 135.987056 140.204 
L 136.854701 140.204 
L 136.854701 140.201535 
L 135.987056 140.201535 
z
" style="fill:#1f77b4;"/>
   </g>
   <g id="patch_34">
    <path clip-path="url(#p269cbe35b7)" d="M 137.071612 140.204 
L 137.939257 140.204 
L 137.939257 233.145818 
L 137.071612 233.145818 
z
" style="fill:#1f77b4;"/>
   </g>
   <g id="patch_35">
    <path clip-path="url(#p269cbe35b7)" d="M 138.156169 140.204 
L 139.023814 140.204 
L 139.023814 140.2033 
L 138.156169 140.2033 
z
" style="fill:#1f77b4;"/>
   </g>
   <g id="patch_36">
    <path clip-path="url(#p269cbe35b7)" d="M 139.240725 140.204 
L 140.10837 140.204 
L 140.10837 140.201437 
L 139.240725 140.201437 
z
" style="fill:#1f77b4;"/>
   </g>
   <g id="patch_37">
    <path clip-path="url(#p269cbe35b7)" d="M 140.325281 140.204 
L 141.192927 140.204 
L 141.192927 233.145818 
L 140.325281 233.145818 
z
" style="fill:#1f77b4;"/>
   </g>
   <g id="patch_38">
    <path clip-path="url(#p269cbe35b7)" d="M 141.409838 140.204 
L 142.277483 140.204 
L 142.277483 233.145818 
L 141.409838 233.145818 
z
" style="fill:#1f77b4;"/>
   </g>
   <g id="patch_39">
    <path clip-path="url(#p269cbe35b7)" d="M 142.494394 140.204 
L 143.362039 140.204 
L 143.362039 233.145818 
L 142.494394 233.145818 
z
" style="fill:#1f77b4;"/>
   </g>
   <g id="patch_40">
    <path clip-path="url(#p269cbe35b7)" d="M 143.578951 140.204 
L 144.446596 140.204 
L 144.446596 233.145818 
L 143.578951 233.145818 
z
" style="fill:#1f77b4;"/>
   </g>
   <g id="patch_41">
    <path clip-path="url(#p269cbe35b7)" d="M 144.663507 140.204 
L 145.531152 140.204 
L 145.531152 233.145818 
L 144.663507 233.145818 
z
" style="fill:#1f77b4;"/>
   </g>
   <g id="patch_42">
    <path clip-path="url(#p269cbe35b7)" d="M 145.748064 140.204 
L 146.615709 140.204 
L 146.615709 233.145818 
L 145.748064 233.145818 
z
" style="fill:#1f77b4;"/>
   </g>
   <g id="patch_43">
    <path clip-path="url(#p269cbe35b7)" d="M 146.83262 140.204 
L 147.700265 140.204 
L 147.700265 233.145818 
L 146.83262 233.145818 
z
" style="fill:#1f77b4;"/>
   </g>
   <g id="patch_44">
    <path clip-path="url(#p269cbe35b7)" d="M 147.917176 140.204 
L 148.784821 140.204 
L 148.784821 233.145818 
L 147.917176 233.145818 
z
" style="fill:#1f77b4;"/>
   </g>
   <g id="patch_45">
    <path clip-path="url(#p269cbe35b7)" d="M 149.001733 140.204 
L 149.869378 140.204 
L 149.869378 233.145818 
L 149.001733 233.145818 
z
" style="fill:#1f77b4;"/>
   </g>
   <g id="patch_46">
    <path clip-path="url(#p269cbe35b7)" d="M 150.086289 140.204 
L 150.953934 140.204 
L 150.953934 233.145818 
L 150.086289 233.145818 
z
" style="fill:#1f77b4;"/>
   </g>
   <g id="patch_47">
    <path clip-path="url(#p269cbe35b7)" d="M 151.170846 140.204 
L 152.038491 140.204 
L 152.038491 233.145818 
L 151.170846 233.145818 
z
" style="fill:#1f77b4;"/>
   </g>
   <g id="patch_48">
    <path clip-path="url(#p269cbe35b7)" d="M 152.255402 140.204 
L 153.123047 140.204 
L 153.123047 233.145818 
L 152.255402 233.145818 
z
" style="fill:#1f77b4;"/>
   </g>
   <g id="patch_49">
    <path clip-path="url(#p269cbe35b7)" d="M 153.339958 140.204 
L 154.207604 140.204 
L 154.207604 233.145818 
L 153.339958 233.145818 
z
" style="fill:#1f77b4;"/>
   </g>
   <g id="patch_50">
    <path clip-path="url(#p269cbe35b7)" d="M 154.424515 140.204 
L 155.29216 140.204 
L 155.29216 233.145818 
L 154.424515 233.145818 
z
" style="fill:#1f77b4;"/>
   </g>
   <g id="patch_51">
    <path clip-path="url(#p269cbe35b7)" d="M 155.509071 140.204 
L 156.376716 140.204 
L 156.376716 233.145818 
L 155.509071 233.145818 
z
" style="fill:#1f77b4;"/>
   </g>
   <g id="patch_52">
    <path clip-path="url(#p269cbe35b7)" d="M 156.593628 140.204 
L 157.461273 140.204 
L 157.461273 233.145818 
L 156.593628 233.145818 
z
" style="fill:#1f77b4;"/>
   </g>
   <g id="patch_53">
    <path clip-path="url(#p269cbe35b7)" d="M 157.678184 140.204 
L 158.545829 140.204 
L 158.545829 233.145818 
L 157.678184 233.145818 
z
" style="fill:#1f77b4;"/>
   </g>
   <g id="patch_54">
    <path clip-path="url(#p269cbe35b7)" d="M 158.76274 140.204 
L 159.630386 140.204 
L 159.630386 233.145818 
L 158.76274 233.145818 
z
" style="fill:#1f77b4;"/>
   </g>
   <g id="patch_55">
    <path clip-path="url(#p269cbe35b7)" d="M 159.847297 140.204 
L 160.714942 140.204 
L 160.714942 233.145818 
L 159.847297 233.145818 
z
" style="fill:#1f77b4;"/>
   </g>
   <g id="patch_56">
    <path clip-path="url(#p269cbe35b7)" d="M 160.931853 140.204 
L 161.799498 140.204 
L 161.799498 233.145818 
L 160.931853 233.145818 
z
" style="fill:#1f77b4;"/>
   </g>
   <g id="patch_57">
    <path clip-path="url(#p269cbe35b7)" d="M 162.01641 140.204 
L 162.884055 140.204 
L 162.884055 233.145818 
L 162.01641 233.145818 
z
" style="fill:#1f77b4;"/>
   </g>
   <g id="patch_58">
    <path clip-path="url(#p269cbe35b7)" d="M 163.100966 140.204 
L 163.968611 140.204 
L 163.968611 233.145818 
L 163.100966 233.145818 
z
" style="fill:#1f77b4;"/>
   </g>
   <g id="patch_59">
    <path clip-path="url(#p269cbe35b7)" d="M 164.185522 140.204 
L 165.053168 140.204 
L 165.053168 233.145818 
L 164.185522 233.145818 
z
" style="fill:#1f77b4;"/>
   </g>
   <g id="patch_60">
    <path clip-path="url(#p269cbe35b7)" d="M 165.270079 140.204 
L 166.137724 140.204 
L 166.137724 233.145818 
L 165.270079 233.145818 
z
" style="fill:#1f77b4;"/>
   </g>
   <g id="patch_61">
    <path clip-path="url(#p269cbe35b7)" d="M 166.354635 140.204 
L 167.22228 140.204 
L 167.22228 233.145818 
L 166.354635 233.145818 
z
" style="fill:#1f77b4;"/>
   </g>
   <g id="patch_62">
    <path clip-path="url(#p269cbe35b7)" d="M 167.439192 140.204 
L 168.306837 140.204 
L 168.306837 47.262182 
L 167.439192 47.262182 
z
" style="fill:#1f77b4;"/>
   </g>
   <g id="patch_63">
    <path clip-path="url(#p269cbe35b7)" d="M 168.523748 140.204 
L 169.391393 140.204 
L 169.391393 47.262182 
L 168.523748 47.262182 
z
" style="fill:#1f77b4;"/>
   </g>
   <g id="patch_64">
    <path clip-path="url(#p269cbe35b7)" d="M 169.608304 140.204 
L 170.47595 140.204 
L 170.47595 47.262182 
L 169.608304 47.262182 
z
" style="fill:#1f77b4;"/>
   </g>
   <g id="patch_65">
    <path clip-path="url(#p269cbe35b7)" d="M 170.692861 140.204 
L 171.560506 140.204 
L 171.560506 47.262182 
L 170.692861 47.262182 
z
" style="fill:#1f77b4;"/>
   </g>
   <g id="patch_66">
    <path clip-path="url(#p269cbe35b7)" d="M 171.777417 140.204 
L 172.645062 140.204 
L 172.645062 47.262182 
L 171.777417 47.262182 
z
" style="fill:#1f77b4;"/>
   </g>
   <g id="patch_67">
    <path clip-path="url(#p269cbe35b7)" d="M 172.861974 140.204 
L 173.729619 140.204 
L 173.729619 233.145818 
L 172.861974 233.145818 
z
" style="fill:#1f77b4;"/>
   </g>
   <g id="patch_68">
    <path clip-path="url(#p269cbe35b7)" d="M 173.94653 140.204 
L 174.814175 140.204 
L 174.814175 233.145818 
L 173.94653 233.145818 
z
" style="fill:#1f77b4;"/>
   </g>
   <g id="patch_69">
    <path clip-path="url(#p269cbe35b7)" d="M 175.031087 140.204 
L 175.898732 140.204 
L 175.898732 233.145818 
L 175.031087 233.145818 
z
" style="fill:#1f77b4;"/>
   </g>
   <g id="patch_70">
    <path clip-path="url(#p269cbe35b7)" d="M 176.115643 140.204 
L 176.983288 140.204 
L 176.983288 233.145818 
L 176.115643 233.145818 
z
" style="fill:#1f77b4;"/>
   </g>
   <g id="patch_71">
    <path clip-path="url(#p269cbe35b7)" d="M 177.200199 140.204 
L 178.067844 140.204 
L 178.067844 233.145818 
L 177.200199 233.145818 
z
" style="fill:#1f77b4;"/>
   </g>
   <g id="patch_72">
    <path clip-path="url(#p269cbe35b7)" d="M 178.284756 140.204 
L 179.152401 140.204 
L 179.152401 233.145818 
L 178.284756 233.145818 
z
" style="fill:#1f77b4;"/>
   </g>
   <g id="patch_73">
    <path clip-path="url(#p269cbe35b7)" d="M 179.369312 140.204 
L 180.236957 140.204 
L 180.236957 233.145818 
L 179.369312 233.145818 
z
" style="fill:#1f77b4;"/>
   </g>
   <g id="patch_74">
    <path clip-path="url(#p269cbe35b7)" d="M 180.453869 140.204 
L 181.321514 140.204 
L 181.321514 233.145818 
L 180.453869 233.145818 
z
" style="fill:#1f77b4;"/>
   </g>
   <g id="patch_75">
    <path clip-path="url(#p269cbe35b7)" d="M 181.538425 140.204 
L 182.40607 140.204 
L 182.40607 233.145818 
L 181.538425 233.145818 
z
" style="fill:#1f77b4;"/>
   </g>
   <g id="patch_76">
    <path clip-path="url(#p269cbe35b7)" d="M 182.622981 140.204 
L 183.490627 140.204 
L 183.490627 233.145818 
L 182.622981 233.145818 
z
" style="fill:#1f77b4;"/>
   </g>
   <g id="patch_77">
    <path clip-path="url(#p269cbe35b7)" d="M 183.707538 140.204 
L 184.575183 140.204 
L 184.575183 233.145818 
L 183.707538 233.145818 
z
" style="fill:#1f77b4;"/>
   </g>
   <g id="patch_78">
    <path clip-path="url(#p269cbe35b7)" d="M 184.792094 140.204 
L 185.659739 140.204 
L 185.659739 233.145818 
L 184.792094 233.145818 
z
" style="fill:#1f77b4;"/>
   </g>
   <g id="patch_79">
    <path clip-path="url(#p269cbe35b7)" d="M 185.876651 140.204 
L 186.744296 140.204 
L 186.744296 233.145818 
L 185.876651 233.145818 
z
" style="fill:#1f77b4;"/>
   </g>
   <g id="patch_80">
    <path clip-path="url(#p269cbe35b7)" d="M 186.961207 140.204 
L 187.828852 140.204 
L 187.828852 233.145818 
L 186.961207 233.145818 
z
" style="fill:#1f77b4;"/>
   </g>
   <g id="patch_81">
    <path clip-path="url(#p269cbe35b7)" d="M 188.045763 140.204 
L 188.913409 140.204 
L 188.913409 233.145818 
L 188.045763 233.145818 
z
" style="fill:#1f77b4;"/>
   </g>
   <g id="patch_82">
    <path clip-path="url(#p269cbe35b7)" d="M 189.13032 140.204 
L 189.997965 140.204 
L 189.997965 233.145818 
L 189.13032 233.145818 
z
" style="fill:#1f77b4;"/>
   </g>
   <g id="patch_83">
    <path clip-path="url(#p269cbe35b7)" d="M 190.214876 140.204 
L 191.082521 140.204 
L 191.082521 47.262182 
L 190.214876 47.262182 
z
" style="fill:#1f77b4;"/>
   </g>
   <g id="patch_84">
    <path clip-path="url(#p269cbe35b7)" d="M 191.299433 140.204 
L 192.167078 140.204 
L 192.167078 47.262182 
L 191.299433 47.262182 
z
" style="fill:#1f77b4;"/>
   </g>
   <g id="patch_85">
    <path clip-path="url(#p269cbe35b7)" d="M 192.383989 140.204 
L 193.251634 140.204 
L 193.251634 47.262182 
L 192.383989 47.262182 
z
" style="fill:#1f77b4;"/>
   </g>
   <g id="patch_86">
    <path clip-path="url(#p269cbe35b7)" d="M 193.468545 140.204 
L 194.336191 140.204 
L 194.336191 233.145818 
L 193.468545 233.145818 
z
" style="fill:#1f77b4;"/>
   </g>
   <g id="patch_87">
    <path clip-path="url(#p269cbe35b7)" d="M 194.553102 140.204 
L 195.420747 140.204 
L 195.420747 233.145818 
L 194.553102 233.145818 
z
" style="fill:#1f77b4;"/>
   </g>
   <g id="patch_88">
    <path clip-path="url(#p269cbe35b7)" d="M 195.637658 140.204 
L 196.505303 140.204 
L 196.505303 233.145818 
L 195.637658 233.145818 
z
" style="fill:#1f77b4;"/>
   </g>
   <g id="patch_89">
    <path clip-path="url(#p269cbe35b7)" d="M 196.722215 140.204 
L 197.58986 140.204 
L 197.58986 233.145818 
L 196.722215 233.145818 
z
" style="fill:#1f77b4;"/>
   </g>
   <g id="patch_90">
    <path clip-path="url(#p269cbe35b7)" d="M 197.806771 140.204 
L 198.674416 140.204 
L 198.674416 233.145818 
L 197.806771 233.145818 
z
" style="fill:#1f77b4;"/>
   </g>
   <g id="patch_91">
    <path clip-path="url(#p269cbe35b7)" d="M 198.891327 140.204 
L 199.758973 140.204 
L 199.758973 233.145818 
L 198.891327 233.145818 
z
" style="fill:#1f77b4;"/>
   </g>
   <g id="patch_92">
    <path clip-path="url(#p269cbe35b7)" d="M 199.975884 140.204 
L 200.843529 140.204 
L 200.843529 47.262182 
L 199.975884 47.262182 
z
" style="fill:#1f77b4;"/>
   </g>
   <g id="patch_93">
    <path clip-path="url(#p269cbe35b7)" d="M 201.06044 140.204 
L 201.928085 140.204 
L 201.928085 47.262182 
L 201.06044 47.262182 
z
" style="fill:#1f77b4;"/>
   </g>
   <g id="patch_94">
    <path clip-path="url(#p269cbe35b7)" d="M 202.144997 140.204 
L 203.012642 140.204 
L 203.012642 47.262182 
L 202.144997 47.262182 
z
" style="fill:#1f77b4;"/>
   </g>
   <g id="patch_95">
    <path clip-path="url(#p269cbe35b7)" d="M 203.229553 140.204 
L 204.097198 140.204 
L 204.097198 47.262182 
L 203.229553 47.262182 
z
" style="fill:#1f77b4;"/>
   </g>
   <g id="patch_96">
    <path clip-path="url(#p269cbe35b7)" d="M 204.31411 140.204 
L 205.181755 140.204 
L 205.181755 47.262182 
L 204.31411 47.262182 
z
" style="fill:#1f77b4;"/>
   </g>
   <g id="patch_97">
    <path clip-path="url(#p269cbe35b7)" d="M 205.398666 140.204 
L 206.266311 140.204 
L 206.266311 47.262182 
L 205.398666 47.262182 
z
" style="fill:#1f77b4;"/>
   </g>
   <g id="patch_98">
    <path clip-path="url(#p269cbe35b7)" d="M 206.483222 140.204 
L 207.350867 140.204 
L 207.350867 47.262182 
L 206.483222 47.262182 
z
" style="fill:#1f77b4;"/>
   </g>
   <g id="patch_99">
    <path clip-path="url(#p269cbe35b7)" d="M 207.567779 140.204 
L 208.435424 140.204 
L 208.435424 47.262182 
L 207.567779 47.262182 
z
" style="fill:#1f77b4;"/>
   </g>
   <g id="patch_100">
    <path clip-path="url(#p269cbe35b7)" d="M 208.652335 140.204 
L 209.51998 140.204 
L 209.51998 47.262182 
L 208.652335 47.262182 
z
" style="fill:#1f77b4;"/>
   </g>
   <g id="patch_101">
    <path clip-path="url(#p269cbe35b7)" d="M 209.736892 140.204 
L 210.604537 140.204 
L 210.604537 47.262182 
L 209.736892 47.262182 
z
" style="fill:#1f77b4;"/>
   </g>
   <g id="patch_102">
    <path clip-path="url(#p269cbe35b7)" d="M 210.821448 140.204 
L 211.689093 140.204 
L 211.689093 47.262182 
L 210.821448 47.262182 
z
" style="fill:#1f77b4;"/>
   </g>
   <g id="patch_103">
    <path clip-path="url(#p269cbe35b7)" d="M 211.906004 140.204 
L 212.77365 140.204 
L 212.77365 233.145818 
L 211.906004 233.145818 
z
" style="fill:#1f77b4;"/>
   </g>
   <g id="patch_104">
    <path clip-path="url(#p269cbe35b7)" d="M 212.990561 140.204 
L 213.858206 140.204 
L 213.858206 47.262182 
L 212.990561 47.262182 
z
" style="fill:#1f77b4;"/>
   </g>
   <g id="patch_105">
    <path clip-path="url(#p269cbe35b7)" d="M 214.075117 140.204 
L 214.942762 140.204 
L 214.942762 233.145818 
L 214.075117 233.145818 
z
" style="fill:#1f77b4;"/>
   </g>
   <g id="patch_106">
    <path clip-path="url(#p269cbe35b7)" d="M 215.159674 140.204 
L 216.027319 140.204 
L 216.027319 233.145818 
L 215.159674 233.145818 
z
" style="fill:#1f77b4;"/>
   </g>
   <g id="patch_107">
    <path clip-path="url(#p269cbe35b7)" d="M 216.24423 140.204 
L 217.111875 140.204 
L 217.111875 233.145818 
L 216.24423 233.145818 
z
" style="fill:#1f77b4;"/>
   </g>
   <g id="patch_108">
    <path clip-path="url(#p269cbe35b7)" d="M 217.328786 140.204 
L 218.196432 140.204 
L 218.196432 233.145818 
L 217.328786 233.145818 
z
" style="fill:#1f77b4;"/>
   </g>
   <g id="patch_109">
    <path clip-path="url(#p269cbe35b7)" d="M 218.413343 140.204 
L 219.280988 140.204 
L 219.280988 233.145818 
L 218.413343 233.145818 
z
" style="fill:#1f77b4;"/>
   </g>
   <g id="patch_110">
    <path clip-path="url(#p269cbe35b7)" d="M 219.497899 140.204 
L 220.365544 140.204 
L 220.365544 233.145818 
L 219.497899 233.145818 
z
" style="fill:#1f77b4;"/>
   </g>
   <g id="patch_111">
    <path clip-path="url(#p269cbe35b7)" d="M 220.582456 140.204 
L 221.450101 140.204 
L 221.450101 233.145818 
L 220.582456 233.145818 
z
" style="fill:#1f77b4;"/>
   </g>
   <g id="patch_112">
    <path clip-path="url(#p269cbe35b7)" d="M 221.667012 140.204 
L 222.534657 140.204 
L 222.534657 233.145818 
L 221.667012 233.145818 
z
" style="fill:#1f77b4;"/>
   </g>
   <g id="patch_113">
    <path clip-path="url(#p269cbe35b7)" d="M 222.751568 140.204 
L 223.619214 140.204 
L 223.619214 233.145818 
L 222.751568 233.145818 
z
" style="fill:#1f77b4;"/>
   </g>
   <g id="patch_114">
    <path clip-path="url(#p269cbe35b7)" d="M 223.836125 140.204 
L 224.70377 140.204 
L 224.70377 233.145818 
L 223.836125 233.145818 
z
" style="fill:#1f77b4;"/>
   </g>
   <g id="patch_115">
    <path clip-path="url(#p269cbe35b7)" d="M 224.920681 140.204 
L 225.788326 140.204 
L 225.788326 233.145818 
L 224.920681 233.145818 
z
" style="fill:#1f77b4;"/>
   </g>
   <g id="patch_116">
    <path clip-path="url(#p269cbe35b7)" d="M 226.005238 140.204 
L 226.872883 140.204 
L 226.872883 233.145818 
L 226.005238 233.145818 
z
" style="fill:#1f77b4;"/>
   </g>
   <g id="patch_117">
    <path clip-path="url(#p269cbe35b7)" d="M 227.089794 140.204 
L 227.957439 140.204 
L 227.957439 233.145818 
L 227.089794 233.145818 
z
" style="fill:#1f77b4;"/>
   </g>
   <g id="patch_118">
    <path clip-path="url(#p269cbe35b7)" d="M 228.17435 140.204 
L 229.041996 140.204 
L 229.041996 233.145818 
L 228.17435 233.145818 
z
" style="fill:#1f77b4;"/>
   </g>
   <g id="patch_119">
    <path clip-path="url(#p269cbe35b7)" d="M 229.258907 140.204 
L 230.126552 140.204 
L 230.126552 233.145818 
L 229.258907 233.145818 
z
" style="fill:#1f77b4;"/>
   </g>
   <g id="patch_120">
    <path clip-path="url(#p269cbe35b7)" d="M 230.343463 140.204 
L 231.211108 140.204 
L 231.211108 233.145818 
L 230.343463 233.145818 
z
" style="fill:#1f77b4;"/>
   </g>
   <g id="patch_121">
    <path clip-path="url(#p269cbe35b7)" d="M 231.42802 140.204 
L 232.295665 140.204 
L 232.295665 233.145818 
L 231.42802 233.145818 
z
" style="fill:#1f77b4;"/>
   </g>
   <g id="patch_122">
    <path clip-path="url(#p269cbe35b7)" d="M 232.512576 140.204 
L 233.380221 140.204 
L 233.380221 47.262182 
L 232.512576 47.262182 
z
" style="fill:#1f77b4;"/>
   </g>
   <g id="patch_123">
    <path clip-path="url(#p269cbe35b7)" d="M 233.597133 140.204 
L 234.464778 140.204 
L 234.464778 47.262182 
L 233.597133 47.262182 
z
" style="fill:#1f77b4;"/>
   </g>
   <g id="patch_124">
    <path clip-path="url(#p269cbe35b7)" d="M 234.681689 140.204 
L 235.549334 140.204 
L 235.549334 47.262182 
L 234.681689 47.262182 
z
" style="fill:#1f77b4;"/>
   </g>
   <g id="patch_125">
    <path clip-path="url(#p269cbe35b7)" d="M 235.766245 140.204 
L 236.63389 140.204 
L 236.63389 47.262182 
L 235.766245 47.262182 
z
" style="fill:#1f77b4;"/>
   </g>
   <g id="patch_126">
    <path clip-path="url(#p269cbe35b7)" d="M 236.850802 140.204 
L 237.718447 140.204 
L 237.718447 47.262182 
L 236.850802 47.262182 
z
" style="fill:#1f77b4;"/>
   </g>
   <g id="patch_127">
    <path clip-path="url(#p269cbe35b7)" d="M 237.935358 140.204 
L 238.803003 140.204 
L 238.803003 233.145818 
L 237.935358 233.145818 
z
" style="fill:#1f77b4;"/>
   </g>
   <g id="patch_128">
    <path clip-path="url(#p269cbe35b7)" d="M 239.019915 140.204 
L 239.88756 140.204 
L 239.88756 47.262182 
L 239.019915 47.262182 
z
" style="fill:#1f77b4;"/>
   </g>
   <g id="patch_129">
    <path clip-path="url(#p269cbe35b7)" d="M 240.104471 140.204 
L 240.972116 140.204 
L 240.972116 47.262182 
L 240.104471 47.262182 
z
" style="fill:#1f77b4;"/>
   </g>
   <g id="patch_130">
    <path clip-path="url(#p269cbe35b7)" d="M 241.189027 140.204 
L 242.056673 140.204 
L 242.056673 47.262182 
L 241.189027 47.262182 
z
" style="fill:#1f77b4;"/>
   </g>
   <g id="patch_131">
    <path clip-path="url(#p269cbe35b7)" d="M 242.273584 140.204 
L 243.141229 140.204 
L 243.141229 47.262182 
L 242.273584 47.262182 
z
" style="fill:#1f77b4;"/>
   </g>
   <g id="patch_132">
    <path clip-path="url(#p269cbe35b7)" d="M 243.35814 140.204 
L 244.225785 140.204 
L 244.225785 47.262182 
L 243.35814 47.262182 
z
" style="fill:#1f77b4;"/>
   </g>
   <g id="patch_133">
    <path clip-path="url(#p269cbe35b7)" d="M 244.442697 140.204 
L 245.310342 140.204 
L 245.310342 64.953127 
L 244.442697 64.953127 
z
" style="fill:#1f77b4;"/>
   </g>
   <g id="patch_134">
    <path clip-path="url(#p269cbe35b7)" d="M 245.527253 140.204 
L 246.394898 140.204 
L 246.394898 47.262182 
L 245.527253 47.262182 
z
" style="fill:#1f77b4;"/>
   </g>
   <g id="patch_135">
    <path clip-path="url(#p269cbe35b7)" d="M 246.611809 140.204 
L 247.479455 140.204 
L 247.479455 47.262182 
L 246.611809 47.262182 
z
" style="fill:#1f77b4;"/>
   </g>
   <g id="patch_136">
    <path clip-path="url(#p269cbe35b7)" d="M 247.696366 140.204 
L 248.564011 140.204 
L 248.564011 47.262182 
L 247.696366 47.262182 
z
" style="fill:#1f77b4;"/>
   </g>
   <g id="patch_137">
    <path clip-path="url(#p269cbe35b7)" d="M 248.780922 140.204 
L 249.648567 140.204 
L 249.648567 47.262182 
L 248.780922 47.262182 
z
" style="fill:#1f77b4;"/>
   </g>
   <g id="patch_138">
    <path clip-path="url(#p269cbe35b7)" d="M 249.865479 140.204 
L 250.733124 140.204 
L 250.733124 47.262182 
L 249.865479 47.262182 
z
" style="fill:#1f77b4;"/>
   </g>
   <g id="patch_139">
    <path clip-path="url(#p269cbe35b7)" d="M 250.950035 140.204 
L 251.81768 140.204 
L 251.81768 47.262182 
L 250.950035 47.262182 
z
" style="fill:#1f77b4;"/>
   </g>
   <g id="patch_140">
    <path clip-path="url(#p269cbe35b7)" d="M 252.034591 140.204 
L 252.902237 140.204 
L 252.902237 47.262182 
L 252.034591 47.262182 
z
" style="fill:#1f77b4;"/>
   </g>
   <g id="patch_141">
    <path clip-path="url(#p269cbe35b7)" d="M 253.119148 140.204 
L 253.986793 140.204 
L 253.986793 47.262182 
L 253.119148 47.262182 
z
" style="fill:#1f77b4;"/>
   </g>
   <g id="patch_142">
    <path clip-path="url(#p269cbe35b7)" d="M 254.203704 140.204 
L 255.071349 140.204 
L 255.071349 47.262182 
L 254.203704 47.262182 
z
" style="fill:#1f77b4;"/>
   </g>
   <g id="patch_143">
    <path clip-path="url(#p269cbe35b7)" d="M 255.288261 140.204 
L 256.155906 140.204 
L 256.155906 47.262182 
L 255.288261 47.262182 
z
" style="fill:#1f77b4;"/>
   </g>
   <g id="patch_144">
    <path clip-path="url(#p269cbe35b7)" d="M 256.372817 140.204 
L 257.240462 140.204 
L 257.240462 47.262182 
L 256.372817 47.262182 
z
" style="fill:#1f77b4;"/>
   </g>
   <g id="patch_145">
    <path clip-path="url(#p269cbe35b7)" d="M 257.457373 140.204 
L 258.325019 140.204 
L 258.325019 47.262182 
L 257.457373 47.262182 
z
" style="fill:#1f77b4;"/>
   </g>
   <g id="patch_146">
    <path clip-path="url(#p269cbe35b7)" d="M 258.54193 140.204 
L 259.409575 140.204 
L 259.409575 47.262182 
L 258.54193 47.262182 
z
" style="fill:#1f77b4;"/>
   </g>
   <g id="patch_147">
    <path clip-path="url(#p269cbe35b7)" d="M 259.626486 140.204 
L 260.494131 140.204 
L 260.494131 47.262182 
L 259.626486 47.262182 
z
" style="fill:#1f77b4;"/>
   </g>
   <g id="patch_148">
    <path clip-path="url(#p269cbe35b7)" d="M 260.711043 140.204 
L 261.578688 140.204 
L 261.578688 47.262182 
L 260.711043 47.262182 
z
" style="fill:#1f77b4;"/>
   </g>
   <g id="patch_149">
    <path clip-path="url(#p269cbe35b7)" d="M 261.795599 140.204 
L 262.663244 140.204 
L 262.663244 47.262182 
L 261.795599 47.262182 
z
" style="fill:#1f77b4;"/>
   </g>
   <g id="patch_150">
    <path clip-path="url(#p269cbe35b7)" d="M 262.880156 140.204 
L 263.747801 140.204 
L 263.747801 47.262182 
L 262.880156 47.262182 
z
" style="fill:#1f77b4;"/>
   </g>
   <g id="patch_151">
    <path clip-path="url(#p269cbe35b7)" d="M 263.964712 140.204 
L 264.832357 140.204 
L 264.832357 47.262182 
L 263.964712 47.262182 
z
" style="fill:#1f77b4;"/>
   </g>
   <g id="patch_152">
    <path clip-path="url(#p269cbe35b7)" d="M 265.049268 140.204 
L 265.916913 140.204 
L 265.916913 47.262182 
L 265.049268 47.262182 
z
" style="fill:#1f77b4;"/>
   </g>
   <g id="patch_153">
    <path clip-path="url(#p269cbe35b7)" d="M 266.133825 140.204 
L 267.00147 140.204 
L 267.00147 47.262182 
L 266.133825 47.262182 
z
" style="fill:#1f77b4;"/>
   </g>
   <g id="patch_154">
    <path clip-path="url(#p269cbe35b7)" d="M 267.218381 140.204 
L 268.086026 140.204 
L 268.086026 47.262182 
L 267.218381 47.262182 
z
" style="fill:#1f77b4;"/>
   </g>
   <g id="patch_155">
    <path clip-path="url(#p269cbe35b7)" d="M 268.302938 140.204 
L 269.170583 140.204 
L 269.170583 47.262182 
L 268.302938 47.262182 
z
" style="fill:#1f77b4;"/>
   </g>
   <g id="patch_156">
    <path clip-path="url(#p269cbe35b7)" d="M 269.387494 140.204 
L 270.255139 140.204 
L 270.255139 47.262182 
L 269.387494 47.262182 
z
" style="fill:#1f77b4;"/>
   </g>
   <g id="patch_157">
    <path clip-path="url(#p269cbe35b7)" d="M 270.47205 140.204 
L 271.339696 140.204 
L 271.339696 47.262182 
L 270.47205 47.262182 
z
" style="fill:#1f77b4;"/>
   </g>
   <g id="patch_158">
    <path clip-path="url(#p269cbe35b7)" d="M 271.556607 140.204 
L 272.424252 140.204 
L 272.424252 233.145818 
L 271.556607 233.145818 
z
" style="fill:#1f77b4;"/>
   </g>
   <g id="patch_159">
    <path clip-path="url(#p269cbe35b7)" d="M 272.641163 140.204 
L 273.508808 140.204 
L 273.508808 233.145818 
L 272.641163 233.145818 
z
" style="fill:#1f77b4;"/>
   </g>
   <g id="patch_160">
    <path clip-path="url(#p269cbe35b7)" d="M 273.72572 140.204 
L 274.593365 140.204 
L 274.593365 233.145818 
L 273.72572 233.145818 
z
" style="fill:#1f77b4;"/>
   </g>
   <g id="patch_161">
    <path clip-path="url(#p269cbe35b7)" d="M 274.810276 140.204 
L 275.677921 140.204 
L 275.677921 140.204079 
L 274.810276 140.204079 
z
" style="fill:#1f77b4;"/>
   </g>
   <g id="patch_162">
    <path clip-path="url(#p269cbe35b7)" d="M 275.894832 140.204 
L 276.762478 140.204 
L 276.762478 233.145818 
L 275.894832 233.145818 
z
" style="fill:#1f77b4;"/>
   </g>
   <g id="patch_163">
    <path clip-path="url(#p269cbe35b7)" d="M 276.979389 140.204 
L 277.847034 140.204 
L 277.847034 233.145818 
L 276.979389 233.145818 
z
" style="fill:#1f77b4;"/>
   </g>
   <g id="patch_164">
    <path clip-path="url(#p269cbe35b7)" d="M 278.063945 140.204 
L 278.93159 140.204 
L 278.93159 233.145818 
L 278.063945 233.145818 
z
" style="fill:#1f77b4;"/>
   </g>
   <g id="patch_165">
    <path clip-path="url(#p269cbe35b7)" d="M 279.148502 140.204 
L 280.016147 140.204 
L 280.016147 233.145818 
L 279.148502 233.145818 
z
" style="fill:#1f77b4;"/>
   </g>
   <g id="patch_166">
    <path clip-path="url(#p269cbe35b7)" d="M 280.233058 140.204 
L 281.100703 140.204 
L 281.100703 233.145818 
L 280.233058 233.145818 
z
" style="fill:#1f77b4;"/>
   </g>
   <g id="patch_167">
    <path clip-path="url(#p269cbe35b7)" d="M 281.317614 140.204 
L 282.18526 140.204 
L 282.18526 233.145818 
L 281.317614 233.145818 
z
" style="fill:#1f77b4;"/>
   </g>
   <g id="patch_168">
    <path clip-path="url(#p269cbe35b7)" d="M 282.402171 140.204 
L 283.269816 140.204 
L 283.269816 233.145818 
L 282.402171 233.145818 
z
" style="fill:#1f77b4;"/>
   </g>
   <g id="patch_169">
    <path clip-path="url(#p269cbe35b7)" d="M 283.486727 140.204 
L 284.354372 140.204 
L 284.354372 233.145818 
L 283.486727 233.145818 
z
" style="fill:#1f77b4;"/>
   </g>
   <g id="patch_170">
    <path clip-path="url(#p269cbe35b7)" d="M 284.571284 140.204 
L 285.438929 140.204 
L 285.438929 233.145818 
L 284.571284 233.145818 
z
" style="fill:#1f77b4;"/>
   </g>
   <g id="patch_171">
    <path clip-path="url(#p269cbe35b7)" d="M 285.65584 140.204 
L 286.523485 140.204 
L 286.523485 47.262182 
L 285.65584 47.262182 
z
" style="fill:#1f77b4;"/>
   </g>
   <g id="patch_172">
    <path clip-path="url(#p269cbe35b7)" d="M 286.740396 140.204 
L 287.608042 140.204 
L 287.608042 47.262182 
L 286.740396 47.262182 
z
" style="fill:#1f77b4;"/>
   </g>
   <g id="patch_173">
    <path clip-path="url(#p269cbe35b7)" d="M 287.824953 140.204 
L 288.692598 140.204 
L 288.692598 47.262182 
L 287.824953 47.262182 
z
" style="fill:#1f77b4;"/>
   </g>
   <g id="patch_174">
    <path clip-path="url(#p269cbe35b7)" d="M 288.909509 140.204 
L 289.777154 140.204 
L 289.777154 47.262182 
L 288.909509 47.262182 
z
" style="fill:#1f77b4;"/>
   </g>
   <g id="patch_175">
    <path clip-path="url(#p269cbe35b7)" d="M 289.994066 140.204 
L 290.861711 140.204 
L 290.861711 47.262182 
L 289.994066 47.262182 
z
" style="fill:#1f77b4;"/>
   </g>
   <g id="patch_176">
    <path clip-path="url(#p269cbe35b7)" d="M 291.078622 140.204 
L 291.946267 140.204 
L 291.946267 47.262182 
L 291.078622 47.262182 
z
" style="fill:#1f77b4;"/>
   </g>
   <g id="patch_177">
    <path clip-path="url(#p269cbe35b7)" d="M 292.163179 140.204 
L 293.030824 140.204 
L 293.030824 47.262182 
L 292.163179 47.262182 
z
" style="fill:#1f77b4;"/>
   </g>
   <g id="patch_178">
    <path clip-path="url(#p269cbe35b7)" d="M 293.247735 140.204 
L 294.11538 140.204 
L 294.11538 47.262182 
L 293.247735 47.262182 
z
" style="fill:#1f77b4;"/>
   </g>
   <g id="patch_179">
    <path clip-path="url(#p269cbe35b7)" d="M 294.332291 140.204 
L 295.199936 140.204 
L 295.199936 47.262182 
L 294.332291 47.262182 
z
" style="fill:#1f77b4;"/>
   </g>
   <g id="patch_180">
    <path clip-path="url(#p269cbe35b7)" d="M 295.416848 140.204 
L 296.284493 140.204 
L 296.284493 47.262182 
L 295.416848 47.262182 
z
" style="fill:#1f77b4;"/>
   </g>
   <g id="patch_181">
    <path clip-path="url(#p269cbe35b7)" d="M 296.501404 140.204 
L 297.369049 140.204 
L 297.369049 47.262182 
L 296.501404 47.262182 
z
" style="fill:#1f77b4;"/>
   </g>
   <g id="patch_182">
    <path clip-path="url(#p269cbe35b7)" d="M 297.585961 140.204 
L 298.453606 140.204 
L 298.453606 233.145818 
L 297.585961 233.145818 
z
" style="fill:#1f77b4;"/>
   </g>
   <g id="patch_183">
    <path clip-path="url(#p269cbe35b7)" d="M 298.670517 140.204 
L 299.538162 140.204 
L 299.538162 233.145818 
L 298.670517 233.145818 
z
" style="fill:#1f77b4;"/>
   </g>
   <g id="patch_184">
    <path clip-path="url(#p269cbe35b7)" d="M 299.755073 140.204 
L 300.622719 140.204 
L 300.622719 233.145818 
L 299.755073 233.145818 
z
" style="fill:#1f77b4;"/>
   </g>
   <g id="patch_185">
    <path clip-path="url(#p269cbe35b7)" d="M 300.83963 140.204 
L 301.707275 140.204 
L 301.707275 233.145818 
L 300.83963 233.145818 
z
" style="fill:#1f77b4;"/>
   </g>
   <g id="patch_186">
    <path clip-path="url(#p269cbe35b7)" d="M 301.924186 140.204 
L 302.791831 140.204 
L 302.791831 233.145818 
L 301.924186 233.145818 
z
" style="fill:#1f77b4;"/>
   </g>
   <g id="patch_187">
    <path clip-path="url(#p269cbe35b7)" d="M 303.008743 140.204 
L 303.876388 140.204 
L 303.876388 233.145818 
L 303.008743 233.145818 
z
" style="fill:#1f77b4;"/>
   </g>
   <g id="patch_188">
    <path clip-path="url(#p269cbe35b7)" d="M 304.093299 140.204 
L 304.960944 140.204 
L 304.960944 233.145818 
L 304.093299 233.145818 
z
" style="fill:#1f77b4;"/>
   </g>
   <g id="patch_189">
    <path clip-path="url(#p269cbe35b7)" d="M 305.177855 140.204 
L 306.045501 140.204 
L 306.045501 233.145818 
L 305.177855 233.145818 
z
" style="fill:#1f77b4;"/>
   </g>
   <g id="patch_190">
    <path clip-path="url(#p269cbe35b7)" d="M 306.262412 140.204 
L 307.130057 140.204 
L 307.130057 233.145818 
L 306.262412 233.145818 
z
" style="fill:#1f77b4;"/>
   </g>
   <g id="patch_191">
    <path clip-path="url(#p269cbe35b7)" d="M 307.346968 140.204 
L 308.214613 140.204 
L 308.214613 233.145818 
L 307.346968 233.145818 
z
" style="fill:#1f77b4;"/>
   </g>
   <g id="patch_192">
    <path clip-path="url(#p269cbe35b7)" d="M 308.431525 140.204 
L 309.29917 140.204 
L 309.29917 233.145818 
L 308.431525 233.145818 
z
" style="fill:#1f77b4;"/>
   </g>
   <g id="patch_193">
    <path clip-path="url(#p269cbe35b7)" d="M 309.516081 140.204 
L 310.383726 140.204 
L 310.383726 233.145818 
L 309.516081 233.145818 
z
" style="fill:#1f77b4;"/>
   </g>
   <g id="patch_194">
    <path clip-path="url(#p269cbe35b7)" d="M 310.600637 140.204 
L 311.468283 140.204 
L 311.468283 233.145818 
L 310.600637 233.145818 
z
" style="fill:#1f77b4;"/>
   </g>
   <g id="patch_195">
    <path clip-path="url(#p269cbe35b7)" d="M 311.685194 140.204 
L 312.552839 140.204 
L 312.552839 233.145818 
L 311.685194 233.145818 
z
" style="fill:#1f77b4;"/>
   </g>
   <g id="patch_196">
    <path clip-path="url(#p269cbe35b7)" d="M 312.76975 140.204 
L 313.637395 140.204 
L 313.637395 233.145818 
L 312.76975 233.145818 
z
" style="fill:#1f77b4;"/>
   </g>
   <g id="patch_197">
    <path clip-path="url(#p269cbe35b7)" d="M 313.854307 140.204 
L 314.721952 140.204 
L 314.721952 233.145818 
L 313.854307 233.145818 
z
" style="fill:#1f77b4;"/>
   </g>
   <g id="patch_198">
    <path clip-path="url(#p269cbe35b7)" d="M 314.938863 140.204 
L 315.806508 140.204 
L 315.806508 47.262182 
L 314.938863 47.262182 
z
" style="fill:#1f77b4;"/>
   </g>
   <g id="patch_199">
    <path clip-path="url(#p269cbe35b7)" d="M 316.023419 140.204 
L 316.891065 140.204 
L 316.891065 47.262182 
L 316.023419 47.262182 
z
" style="fill:#1f77b4;"/>
   </g>
   <g id="patch_200">
    <path clip-path="url(#p269cbe35b7)" d="M 317.107976 140.204 
L 317.975621 140.204 
L 317.975621 47.262182 
L 317.107976 47.262182 
z
" style="fill:#1f77b4;"/>
   </g>
   <g id="patch_201">
    <path clip-path="url(#p269cbe35b7)" d="M 318.192532 140.204 
L 319.060177 140.204 
L 319.060177 47.262182 
L 318.192532 47.262182 
z
" style="fill:#1f77b4;"/>
   </g>
   <g id="patch_202">
    <path clip-path="url(#p269cbe35b7)" d="M 319.277089 140.204 
L 320.144734 140.204 
L 320.144734 233.145818 
L 319.277089 233.145818 
z
" style="fill:#1f77b4;"/>
   </g>
   <g id="patch_203">
    <path clip-path="url(#p269cbe35b7)" d="M 320.361645 140.204 
L 321.22929 140.204 
L 321.22929 233.145818 
L 320.361645 233.145818 
z
" style="fill:#1f77b4;"/>
   </g>
   <g id="patch_204">
    <path clip-path="url(#p269cbe35b7)" d="M 321.446202 140.204 
L 322.313847 140.204 
L 322.313847 233.145818 
L 321.446202 233.145818 
z
" style="fill:#1f77b4;"/>
   </g>
   <g id="patch_205">
    <path clip-path="url(#p269cbe35b7)" d="M 322.530758 140.204 
L 323.398403 140.204 
L 323.398403 233.145818 
L 322.530758 233.145818 
z
" style="fill:#1f77b4;"/>
   </g>
   <g id="patch_206">
    <path clip-path="url(#p269cbe35b7)" d="M 323.615314 140.204 
L 324.482959 140.204 
L 324.482959 47.262182 
L 323.615314 47.262182 
z
" style="fill:#1f77b4;"/>
   </g>
   <g id="patch_207">
    <path clip-path="url(#p269cbe35b7)" d="M 324.699871 140.204 
L 325.567516 140.204 
L 325.567516 47.262182 
L 324.699871 47.262182 
z
" style="fill:#1f77b4;"/>
   </g>
   <g id="patch_208">
    <path clip-path="url(#p269cbe35b7)" d="M 325.784427 140.204 
L 326.652072 140.204 
L 326.652072 47.262182 
L 325.784427 47.262182 
z
" style="fill:#1f77b4;"/>
   </g>
   <g id="patch_209">
    <path clip-path="url(#p269cbe35b7)" d="M 326.868984 140.204 
L 327.736629 140.204 
L 327.736629 47.262182 
L 326.868984 47.262182 
z
" style="fill:#1f77b4;"/>
   </g>
   <g id="patch_210">
    <path clip-path="url(#p269cbe35b7)" d="M 327.95354 140.204 
L 328.821185 140.204 
L 328.821185 47.262182 
L 327.95354 47.262182 
z
" style="fill:#1f77b4;"/>
   </g>
   <g id="patch_211">
    <path clip-path="url(#p269cbe35b7)" d="M 329.038096 140.204 
L 329.905742 140.204 
L 329.905742 47.262182 
L 329.038096 47.262182 
z
" style="fill:#1f77b4;"/>
   </g>
   <g id="patch_212">
    <path clip-path="url(#p269cbe35b7)" d="M 330.122653 140.204 
L 330.990298 140.204 
L 330.990298 47.262182 
L 330.122653 47.262182 
z
" style="fill:#1f77b4;"/>
   </g>
   <g id="patch_213">
    <path clip-path="url(#p269cbe35b7)" d="M 331.207209 140.204 
L 332.074854 140.204 
L 332.074854 47.262182 
L 331.207209 47.262182 
z
" style="fill:#1f77b4;"/>
   </g>
   <g id="patch_214">
    <path clip-path="url(#p269cbe35b7)" d="M 332.291766 140.204 
L 333.159411 140.204 
L 333.159411 47.262182 
L 332.291766 47.262182 
z
" style="fill:#1f77b4;"/>
   </g>
   <g id="patch_215">
    <path clip-path="url(#p269cbe35b7)" d="M 333.376322 140.204 
L 334.243967 140.204 
L 334.243967 47.262182 
L 333.376322 47.262182 
z
" style="fill:#1f77b4;"/>
   </g>
   <g id="patch_216">
    <path clip-path="url(#p269cbe35b7)" d="M 334.460878 140.204 
L 335.328524 140.204 
L 335.328524 47.262182 
L 334.460878 47.262182 
z
" style="fill:#1f77b4;"/>
   </g>
   <g id="patch_217">
    <path clip-path="url(#p269cbe35b7)" d="M 335.545435 140.204 
L 336.41308 140.204 
L 336.41308 47.262182 
L 335.545435 47.262182 
z
" style="fill:#1f77b4;"/>
   </g>
   <g id="patch_218">
    <path clip-path="url(#p269cbe35b7)" d="M 336.629991 140.204 
L 337.497636 140.204 
L 337.497636 47.262182 
L 336.629991 47.262182 
z
" style="fill:#1f77b4;"/>
   </g>
   <g id="matplotlib.axis_1">
    <g id="xtick_1">
     <g id="line2d_1">
      <defs>
       <path d="M 0 0 
L 0 3.5 
" id="m1d41547f85" style="stroke:#000000;stroke-width:0.8;"/>
      </defs>
      <g>
       <use style="stroke:#000000;stroke-width:0.8;" x="103.884186" xlink:href="#m1d41547f85" y="242.44"/>
      </g>
     </g>
     <g id="text_1">
      <!-- 0 -->
      <defs>
       <path d="M 31.78125 66.40625 
Q 24.171875 66.40625 20.328125 58.90625 
Q 16.5 51.421875 16.5 36.375 
Q 16.5 21.390625 20.328125 13.890625 
Q 24.171875 6.390625 31.78125 6.390625 
Q 39.453125 6.390625 43.28125 13.890625 
Q 47.125 21.390625 47.125 36.375 
Q 47.125 51.421875 43.28125 58.90625 
Q 39.453125 66.40625 31.78125 66.40625 
z
M 31.78125 74.21875 
Q 44.046875 74.21875 50.515625 64.515625 
Q 56.984375 54.828125 56.984375 36.375 
Q 56.984375 17.96875 50.515625 8.265625 
Q 44.046875 -1.421875 31.78125 -1.421875 
Q 19.53125 -1.421875 13.0625 8.265625 
Q 6.59375 17.96875 6.59375 36.375 
Q 6.59375 54.828125 13.0625 64.515625 
Q 19.53125 74.21875 31.78125 74.21875 
z
" id="DejaVuSans-48"/>
      </defs>
      <g transform="translate(100.702936 257.038437)scale(0.1 -0.1)">
       <use xlink:href="#DejaVuSans-48"/>
      </g>
     </g>
    </g>
    <g id="xtick_2">
     <g id="line2d_2">
      <g>
       <use style="stroke:#000000;stroke-width:0.8;" x="158.112007" xlink:href="#m1d41547f85" y="242.44"/>
      </g>
     </g>
     <g id="text_2">
      <!-- 50 -->
      <defs>
       <path d="M 10.796875 72.90625 
L 49.515625 72.90625 
L 49.515625 64.59375 
L 19.828125 64.59375 
L 19.828125 46.734375 
Q 21.96875 47.46875 24.109375 47.828125 
Q 26.265625 48.1875 28.421875 48.1875 
Q 40.625 48.1875 47.75 41.5 
Q 54.890625 34.8125 54.890625 23.390625 
Q 54.890625 11.625 47.5625 5.09375 
Q 40.234375 -1.421875 26.90625 -1.421875 
Q 22.3125 -1.421875 17.546875 -0.640625 
Q 12.796875 0.140625 7.71875 1.703125 
L 7.71875 11.625 
Q 12.109375 9.234375 16.796875 8.0625 
Q 21.484375 6.890625 26.703125 6.890625 
Q 35.15625 6.890625 40.078125 11.328125 
Q 45.015625 15.765625 45.015625 23.390625 
Q 45.015625 31 40.078125 35.4375 
Q 35.15625 39.890625 26.703125 39.890625 
Q 22.75 39.890625 18.8125 39.015625 
Q 14.890625 38.140625 10.796875 36.28125 
z
" id="DejaVuSans-53"/>
      </defs>
      <g transform="translate(151.749507 257.038437)scale(0.1 -0.1)">
       <use xlink:href="#DejaVuSans-53"/>
       <use x="63.623047" xlink:href="#DejaVuSans-48"/>
      </g>
     </g>
    </g>
    <g id="xtick_3">
     <g id="line2d_3">
      <g>
       <use style="stroke:#000000;stroke-width:0.8;" x="212.339827" xlink:href="#m1d41547f85" y="242.44"/>
      </g>
     </g>
     <g id="text_3">
      <!-- 100 -->
      <defs>
       <path d="M 12.40625 8.296875 
L 28.515625 8.296875 
L 28.515625 63.921875 
L 10.984375 60.40625 
L 10.984375 69.390625 
L 28.421875 72.90625 
L 38.28125 72.90625 
L 38.28125 8.296875 
L 54.390625 8.296875 
L 54.390625 0 
L 12.40625 0 
z
" id="DejaVuSans-49"/>
      </defs>
      <g transform="translate(202.796077 257.038437)scale(0.1 -0.1)">
       <use xlink:href="#DejaVuSans-49"/>
       <use x="63.623047" xlink:href="#DejaVuSans-48"/>
       <use x="127.246094" xlink:href="#DejaVuSans-48"/>
      </g>
     </g>
    </g>
    <g id="xtick_4">
     <g id="line2d_4">
      <g>
       <use style="stroke:#000000;stroke-width:0.8;" x="266.567647" xlink:href="#m1d41547f85" y="242.44"/>
      </g>
     </g>
     <g id="text_4">
      <!-- 150 -->
      <g transform="translate(257.023897 257.038437)scale(0.1 -0.1)">
       <use xlink:href="#DejaVuSans-49"/>
       <use x="63.623047" xlink:href="#DejaVuSans-53"/>
       <use x="127.246094" xlink:href="#DejaVuSans-48"/>
      </g>
     </g>
    </g>
    <g id="xtick_5">
     <g id="line2d_5">
      <g>
       <use style="stroke:#000000;stroke-width:0.8;" x="320.795468" xlink:href="#m1d41547f85" y="242.44"/>
      </g>
     </g>
     <g id="text_5">
      <!-- 200 -->
      <defs>
       <path d="M 19.1875 8.296875 
L 53.609375 8.296875 
L 53.609375 0 
L 7.328125 0 
L 7.328125 8.296875 
Q 12.9375 14.109375 22.625 23.890625 
Q 32.328125 33.6875 34.8125 36.53125 
Q 39.546875 41.84375 41.421875 45.53125 
Q 43.3125 49.21875 43.3125 52.78125 
Q 43.3125 58.59375 39.234375 62.25 
Q 35.15625 65.921875 28.609375 65.921875 
Q 23.96875 65.921875 18.8125 64.3125 
Q 13.671875 62.703125 7.8125 59.421875 
L 7.8125 69.390625 
Q 13.765625 71.78125 18.9375 73 
Q 24.125 74.21875 28.421875 74.21875 
Q 39.75 74.21875 46.484375 68.546875 
Q 53.21875 62.890625 53.21875 53.421875 
Q 53.21875 48.921875 51.53125 44.890625 
Q 49.859375 40.875 45.40625 35.40625 
Q 44.1875 33.984375 37.640625 27.21875 
Q 31.109375 20.453125 19.1875 8.296875 
z
" id="DejaVuSans-50"/>
      </defs>
      <g transform="translate(311.251718 257.038437)scale(0.1 -0.1)">
       <use xlink:href="#DejaVuSans-50"/>
       <use x="63.623047" xlink:href="#DejaVuSans-48"/>
       <use x="127.246094" xlink:href="#DejaVuSans-48"/>
      </g>
     </g>
    </g>
    <g id="text_6">
     <!-- Regression coefficient $\beta_i$ -->
     <defs>
      <path d="M 44.390625 34.1875 
Q 47.5625 33.109375 50.5625 29.59375 
Q 53.5625 26.078125 56.59375 19.921875 
L 66.609375 0 
L 56 0 
L 46.6875 18.703125 
Q 43.0625 26.03125 39.671875 28.421875 
Q 36.28125 30.8125 30.421875 30.8125 
L 19.671875 30.8125 
L 19.671875 0 
L 9.8125 0 
L 9.8125 72.90625 
L 32.078125 72.90625 
Q 44.578125 72.90625 50.734375 67.671875 
Q 56.890625 62.453125 56.890625 51.90625 
Q 56.890625 45.015625 53.6875 40.46875 
Q 50.484375 35.9375 44.390625 34.1875 
z
M 19.671875 64.796875 
L 19.671875 38.921875 
L 32.078125 38.921875 
Q 39.203125 38.921875 42.84375 42.21875 
Q 46.484375 45.515625 46.484375 51.90625 
Q 46.484375 58.296875 42.84375 61.546875 
Q 39.203125 64.796875 32.078125 64.796875 
z
" id="DejaVuSans-82"/>
      <path d="M 56.203125 29.59375 
L 56.203125 25.203125 
L 14.890625 25.203125 
Q 15.484375 15.921875 20.484375 11.0625 
Q 25.484375 6.203125 34.421875 6.203125 
Q 39.59375 6.203125 44.453125 7.46875 
Q 49.3125 8.734375 54.109375 11.28125 
L 54.109375 2.78125 
Q 49.265625 0.734375 44.1875 -0.34375 
Q 39.109375 -1.421875 33.890625 -1.421875 
Q 20.796875 -1.421875 13.15625 6.1875 
Q 5.515625 13.8125 5.515625 26.8125 
Q 5.515625 40.234375 12.765625 48.109375 
Q 20.015625 56 32.328125 56 
Q 43.359375 56 49.78125 48.890625 
Q 56.203125 41.796875 56.203125 29.59375 
z
M 47.21875 32.234375 
Q 47.125 39.59375 43.09375 43.984375 
Q 39.0625 48.390625 32.421875 48.390625 
Q 24.90625 48.390625 20.390625 44.140625 
Q 15.875 39.890625 15.1875 32.171875 
z
" id="DejaVuSans-101"/>
      <path d="M 45.40625 27.984375 
Q 45.40625 37.75 41.375 43.109375 
Q 37.359375 48.484375 30.078125 48.484375 
Q 22.859375 48.484375 18.828125 43.109375 
Q 14.796875 37.75 14.796875 27.984375 
Q 14.796875 18.265625 18.828125 12.890625 
Q 22.859375 7.515625 30.078125 7.515625 
Q 37.359375 7.515625 41.375 12.890625 
Q 45.40625 18.265625 45.40625 27.984375 
z
M 54.390625 6.78125 
Q 54.390625 -7.171875 48.1875 -13.984375 
Q 42 -20.796875 29.203125 -20.796875 
Q 24.46875 -20.796875 20.265625 -20.09375 
Q 16.0625 -19.390625 12.109375 -17.921875 
L 12.109375 -9.1875 
Q 16.0625 -11.328125 19.921875 -12.34375 
Q 23.78125 -13.375 27.78125 -13.375 
Q 36.625 -13.375 41.015625 -8.765625 
Q 45.40625 -4.15625 45.40625 5.171875 
L 45.40625 9.625 
Q 42.625 4.78125 38.28125 2.390625 
Q 33.9375 0 27.875 0 
Q 17.828125 0 11.671875 7.65625 
Q 5.515625 15.328125 5.515625 27.984375 
Q 5.515625 40.671875 11.671875 48.328125 
Q 17.828125 56 27.875 56 
Q 33.9375 56 38.28125 53.609375 
Q 42.625 51.21875 45.40625 46.390625 
L 45.40625 54.6875 
L 54.390625 54.6875 
z
" id="DejaVuSans-103"/>
      <path d="M 41.109375 46.296875 
Q 39.59375 47.171875 37.8125 47.578125 
Q 36.03125 48 33.890625 48 
Q 26.265625 48 22.1875 43.046875 
Q 18.109375 38.09375 18.109375 28.8125 
L 18.109375 0 
L 9.078125 0 
L 9.078125 54.6875 
L 18.109375 54.6875 
L 18.109375 46.1875 
Q 20.953125 51.171875 25.484375 53.578125 
Q 30.03125 56 36.53125 56 
Q 37.453125 56 38.578125 55.875 
Q 39.703125 55.765625 41.0625 55.515625 
z
" id="DejaVuSans-114"/>
      <path d="M 44.28125 53.078125 
L 44.28125 44.578125 
Q 40.484375 46.53125 36.375 47.5 
Q 32.28125 48.484375 27.875 48.484375 
Q 21.1875 48.484375 17.84375 46.4375 
Q 14.5 44.390625 14.5 40.28125 
Q 14.5 37.15625 16.890625 35.375 
Q 19.28125 33.59375 26.515625 31.984375 
L 29.59375 31.296875 
Q 39.15625 29.25 43.1875 25.515625 
Q 47.21875 21.78125 47.21875 15.09375 
Q 47.21875 7.46875 41.1875 3.015625 
Q 35.15625 -1.421875 24.609375 -1.421875 
Q 20.21875 -1.421875 15.453125 -0.5625 
Q 10.6875 0.296875 5.421875 2 
L 5.421875 11.28125 
Q 10.40625 8.6875 15.234375 7.390625 
Q 20.0625 6.109375 24.8125 6.109375 
Q 31.15625 6.109375 34.5625 8.28125 
Q 37.984375 10.453125 37.984375 14.40625 
Q 37.984375 18.0625 35.515625 20.015625 
Q 33.0625 21.96875 24.703125 23.78125 
L 21.578125 24.515625 
Q 13.234375 26.265625 9.515625 29.90625 
Q 5.8125 33.546875 5.8125 39.890625 
Q 5.8125 47.609375 11.28125 51.796875 
Q 16.75 56 26.8125 56 
Q 31.78125 56 36.171875 55.265625 
Q 40.578125 54.546875 44.28125 53.078125 
z
" id="DejaVuSans-115"/>
      <path d="M 9.421875 54.6875 
L 18.40625 54.6875 
L 18.40625 0 
L 9.421875 0 
z
M 9.421875 75.984375 
L 18.40625 75.984375 
L 18.40625 64.59375 
L 9.421875 64.59375 
z
" id="DejaVuSans-105"/>
      <path d="M 30.609375 48.390625 
Q 23.390625 48.390625 19.1875 42.75 
Q 14.984375 37.109375 14.984375 27.296875 
Q 14.984375 17.484375 19.15625 11.84375 
Q 23.34375 6.203125 30.609375 6.203125 
Q 37.796875 6.203125 41.984375 11.859375 
Q 46.1875 17.53125 46.1875 27.296875 
Q 46.1875 37.015625 41.984375 42.703125 
Q 37.796875 48.390625 30.609375 48.390625 
z
M 30.609375 56 
Q 42.328125 56 49.015625 48.375 
Q 55.71875 40.765625 55.71875 27.296875 
Q 55.71875 13.875 49.015625 6.21875 
Q 42.328125 -1.421875 30.609375 -1.421875 
Q 18.84375 -1.421875 12.171875 6.21875 
Q 5.515625 13.875 5.515625 27.296875 
Q 5.515625 40.765625 12.171875 48.375 
Q 18.84375 56 30.609375 56 
z
" id="DejaVuSans-111"/>
      <path d="M 54.890625 33.015625 
L 54.890625 0 
L 45.90625 0 
L 45.90625 32.71875 
Q 45.90625 40.484375 42.875 44.328125 
Q 39.84375 48.1875 33.796875 48.1875 
Q 26.515625 48.1875 22.3125 43.546875 
Q 18.109375 38.921875 18.109375 30.90625 
L 18.109375 0 
L 9.078125 0 
L 9.078125 54.6875 
L 18.109375 54.6875 
L 18.109375 46.1875 
Q 21.34375 51.125 25.703125 53.5625 
Q 30.078125 56 35.796875 56 
Q 45.21875 56 50.046875 50.171875 
Q 54.890625 44.34375 54.890625 33.015625 
z
" id="DejaVuSans-110"/>
      <path id="DejaVuSans-32"/>
      <path d="M 48.78125 52.59375 
L 48.78125 44.1875 
Q 44.96875 46.296875 41.140625 47.34375 
Q 37.3125 48.390625 33.40625 48.390625 
Q 24.65625 48.390625 19.8125 42.84375 
Q 14.984375 37.3125 14.984375 27.296875 
Q 14.984375 17.28125 19.8125 11.734375 
Q 24.65625 6.203125 33.40625 6.203125 
Q 37.3125 6.203125 41.140625 7.25 
Q 44.96875 8.296875 48.78125 10.40625 
L 48.78125 2.09375 
Q 45.015625 0.34375 40.984375 -0.53125 
Q 36.96875 -1.421875 32.421875 -1.421875 
Q 20.0625 -1.421875 12.78125 6.34375 
Q 5.515625 14.109375 5.515625 27.296875 
Q 5.515625 40.671875 12.859375 48.328125 
Q 20.21875 56 33.015625 56 
Q 37.15625 56 41.109375 55.140625 
Q 45.0625 54.296875 48.78125 52.59375 
z
" id="DejaVuSans-99"/>
      <path d="M 37.109375 75.984375 
L 37.109375 68.5 
L 28.515625 68.5 
Q 23.6875 68.5 21.796875 66.546875 
Q 19.921875 64.59375 19.921875 59.515625 
L 19.921875 54.6875 
L 34.71875 54.6875 
L 34.71875 47.703125 
L 19.921875 47.703125 
L 19.921875 0 
L 10.890625 0 
L 10.890625 47.703125 
L 2.296875 47.703125 
L 2.296875 54.6875 
L 10.890625 54.6875 
L 10.890625 58.5 
Q 10.890625 67.625 15.140625 71.796875 
Q 19.390625 75.984375 28.609375 75.984375 
z
" id="DejaVuSans-102"/>
      <path d="M 18.3125 70.21875 
L 18.3125 54.6875 
L 36.8125 54.6875 
L 36.8125 47.703125 
L 18.3125 47.703125 
L 18.3125 18.015625 
Q 18.3125 11.328125 20.140625 9.421875 
Q 21.96875 7.515625 27.59375 7.515625 
L 36.8125 7.515625 
L 36.8125 0 
L 27.59375 0 
Q 17.1875 0 13.234375 3.875 
Q 9.28125 7.765625 9.28125 18.015625 
L 9.28125 47.703125 
L 2.6875 47.703125 
L 2.6875 54.6875 
L 9.28125 54.6875 
L 9.28125 70.21875 
z
" id="DejaVuSans-116"/>
      <path d="M 13.625 3.375 
L 8.9375 -20.796875 
L -0.09375 -20.796875 
L 14.5 54.34375 
Q 18.84375 76.609375 39.65625 76.609375 
Q 60.75 76.609375 57.171875 57.8125 
Q 54.734375 44.4375 45.21875 39.546875 
Q 58.015625 35.15625 55.515625 22.125 
Q 51.125 -1.078125 27.484375 -1.03125 
Q 17.140625 -0.984375 13.625 3.375 
z
M 15.921875 15.09375 
Q 19.671875 6.59375 29.296875 6.640625 
Q 43.359375 6.640625 46.34375 21.96875 
Q 49.03125 35.75 26.171875 34.671875 
L 27.78125 42.96875 
Q 45.453125 42.671875 48.53125 58.59375 
Q 50.640625 69.34375 39.203125 69.28125 
Q 26.421875 69.28125 23.484375 54.046875 
z
" id="DejaVuSans-Oblique-946"/>
      <path d="M 18.3125 75.984375 
L 27.296875 75.984375 
L 25.09375 64.59375 
L 16.109375 64.59375 
z
M 14.203125 54.6875 
L 23.1875 54.6875 
L 12.5 0 
L 3.515625 0 
z
" id="DejaVuSans-Oblique-105"/>
     </defs>
     <g transform="translate(146.914 272.358125)scale(0.12 -0.12)">
      <use transform="translate(0 0.390625)" xlink:href="#DejaVuSans-82"/>
      <use transform="translate(69.482422 0.390625)" xlink:href="#DejaVuSans-101"/>
      <use transform="translate(131.005859 0.390625)" xlink:href="#DejaVuSans-103"/>
      <use transform="translate(194.482422 0.390625)" xlink:href="#DejaVuSans-114"/>
      <use transform="translate(235.595703 0.390625)" xlink:href="#DejaVuSans-101"/>
      <use transform="translate(297.119141 0.390625)" xlink:href="#DejaVuSans-115"/>
      <use transform="translate(349.21875 0.390625)" xlink:href="#DejaVuSans-115"/>
      <use transform="translate(401.318359 0.390625)" xlink:href="#DejaVuSans-105"/>
      <use transform="translate(429.101562 0.390625)" xlink:href="#DejaVuSans-111"/>
      <use transform="translate(490.283203 0.390625)" xlink:href="#DejaVuSans-110"/>
      <use transform="translate(553.662109 0.390625)" xlink:href="#DejaVuSans-32"/>
      <use transform="translate(585.449219 0.390625)" xlink:href="#DejaVuSans-99"/>
      <use transform="translate(640.429688 0.390625)" xlink:href="#DejaVuSans-111"/>
      <use transform="translate(701.611328 0.390625)" xlink:href="#DejaVuSans-101"/>
      <use transform="translate(763.134766 0.390625)" xlink:href="#DejaVuSans-102"/>
      <use transform="translate(798.339844 0.390625)" xlink:href="#DejaVuSans-102"/>
      <use transform="translate(833.544922 0.390625)" xlink:href="#DejaVuSans-105"/>
      <use transform="translate(861.328125 0.390625)" xlink:href="#DejaVuSans-99"/>
      <use transform="translate(916.308594 0.390625)" xlink:href="#DejaVuSans-105"/>
      <use transform="translate(944.091797 0.390625)" xlink:href="#DejaVuSans-101"/>
      <use transform="translate(1005.615234 0.390625)" xlink:href="#DejaVuSans-110"/>
      <use transform="translate(1068.994141 0.390625)" xlink:href="#DejaVuSans-116"/>
      <use transform="translate(1108.203125 0.390625)" xlink:href="#DejaVuSans-32"/>
      <use transform="translate(1139.990234 0.390625)" xlink:href="#DejaVuSans-Oblique-946"/>
      <use transform="translate(1203.808594 -16.015625)scale(0.7)" xlink:href="#DejaVuSans-Oblique-105"/>
     </g>
    </g>
   </g>
   <g id="matplotlib.axis_2">
    <g id="ytick_1">
     <g id="line2d_6">
      <defs>
       <path d="M 0 0 
L -3.5 0 
" id="m80ed45643f" style="stroke:#000000;stroke-width:0.8;"/>
      </defs>
      <g>
       <use style="stroke:#000000;stroke-width:0.8;" x="91.748" xlink:href="#m80ed45643f" y="233.145818"/>
      </g>
     </g>
     <g id="text_7">
      <!-- -1.0e+08 -->
      <defs>
       <path d="M 4.890625 31.390625 
L 31.203125 31.390625 
L 31.203125 23.390625 
L 4.890625 23.390625 
z
" id="DejaVuSans-45"/>
       <path d="M 10.6875 12.40625 
L 21 12.40625 
L 21 0 
L 10.6875 0 
z
" id="DejaVuSans-46"/>
       <path d="M 46 62.703125 
L 46 35.5 
L 73.1875 35.5 
L 73.1875 27.203125 
L 46 27.203125 
L 46 0 
L 37.796875 0 
L 37.796875 27.203125 
L 10.59375 27.203125 
L 10.59375 35.5 
L 37.796875 35.5 
L 37.796875 62.703125 
z
" id="DejaVuSans-43"/>
       <path d="M 31.78125 34.625 
Q 24.75 34.625 20.71875 30.859375 
Q 16.703125 27.09375 16.703125 20.515625 
Q 16.703125 13.921875 20.71875 10.15625 
Q 24.75 6.390625 31.78125 6.390625 
Q 38.8125 6.390625 42.859375 10.171875 
Q 46.921875 13.96875 46.921875 20.515625 
Q 46.921875 27.09375 42.890625 30.859375 
Q 38.875 34.625 31.78125 34.625 
z
M 21.921875 38.8125 
Q 15.578125 40.375 12.03125 44.71875 
Q 8.5 49.078125 8.5 55.328125 
Q 8.5 64.0625 14.71875 69.140625 
Q 20.953125 74.21875 31.78125 74.21875 
Q 42.671875 74.21875 48.875 69.140625 
Q 55.078125 64.0625 55.078125 55.328125 
Q 55.078125 49.078125 51.53125 44.71875 
Q 48 40.375 41.703125 38.8125 
Q 48.828125 37.15625 52.796875 32.3125 
Q 56.78125 27.484375 56.78125 20.515625 
Q 56.78125 9.90625 50.3125 4.234375 
Q 43.84375 -1.421875 31.78125 -1.421875 
Q 19.734375 -1.421875 13.25 4.234375 
Q 6.78125 9.90625 6.78125 20.515625 
Q 6.78125 27.484375 10.78125 32.3125 
Q 14.796875 37.15625 21.921875 38.8125 
z
M 18.3125 54.390625 
Q 18.3125 48.734375 21.84375 45.5625 
Q 25.390625 42.390625 31.78125 42.390625 
Q 38.140625 42.390625 41.71875 45.5625 
Q 45.3125 48.734375 45.3125 54.390625 
Q 45.3125 60.0625 41.71875 63.234375 
Q 38.140625 66.40625 31.78125 66.40625 
Q 25.390625 66.40625 21.84375 63.234375 
Q 18.3125 60.0625 18.3125 54.390625 
z
" id="DejaVuSans-56"/>
      </defs>
      <g transform="translate(37.97925 236.945037)scale(0.1 -0.1)">
       <use xlink:href="#DejaVuSans-45"/>
       <use x="36.083984" xlink:href="#DejaVuSans-49"/>
       <use x="99.707031" xlink:href="#DejaVuSans-46"/>
       <use x="131.494141" xlink:href="#DejaVuSans-48"/>
       <use x="195.117188" xlink:href="#DejaVuSans-101"/>
       <use x="256.640625" xlink:href="#DejaVuSans-43"/>
       <use x="340.429688" xlink:href="#DejaVuSans-48"/>
       <use x="404.052734" xlink:href="#DejaVuSans-56"/>
      </g>
     </g>
    </g>
    <g id="ytick_2">
     <g id="line2d_7">
      <g>
       <use style="stroke:#000000;stroke-width:0.8;" x="91.748" xlink:href="#m80ed45643f" y="140.204"/>
      </g>
     </g>
     <g id="text_8">
      <!--  0.0e+00 -->
      <g transform="translate(38.408938 144.003219)scale(0.1 -0.1)">
       <use xlink:href="#DejaVuSans-32"/>
       <use x="31.787109" xlink:href="#DejaVuSans-48"/>
       <use x="95.410156" xlink:href="#DejaVuSans-46"/>
       <use x="127.197266" xlink:href="#DejaVuSans-48"/>
       <use x="190.820312" xlink:href="#DejaVuSans-101"/>
       <use x="252.34375" xlink:href="#DejaVuSans-43"/>
       <use x="336.132812" xlink:href="#DejaVuSans-48"/>
       <use x="399.755859" xlink:href="#DejaVuSans-48"/>
      </g>
     </g>
    </g>
    <g id="ytick_3">
     <g id="line2d_8">
      <g>
       <use style="stroke:#000000;stroke-width:0.8;" x="91.748" xlink:href="#m80ed45643f" y="47.262182"/>
      </g>
     </g>
     <g id="text_9">
      <!--  1.0e+08 -->
      <g transform="translate(38.408938 51.061401)scale(0.1 -0.1)">
       <use xlink:href="#DejaVuSans-32"/>
       <use x="31.787109" xlink:href="#DejaVuSans-49"/>
       <use x="95.410156" xlink:href="#DejaVuSans-46"/>
       <use x="127.197266" xlink:href="#DejaVuSans-48"/>
       <use x="190.820312" xlink:href="#DejaVuSans-101"/>
       <use x="252.34375" xlink:href="#DejaVuSans-43"/>
       <use x="336.132812" xlink:href="#DejaVuSans-48"/>
       <use x="399.755859" xlink:href="#DejaVuSans-56"/>
      </g>
     </g>
    </g>
    <g id="text_10">
     <!-- Regression coefficient value -->
     <defs>
      <path d="M 2.984375 54.6875 
L 12.5 54.6875 
L 29.59375 8.796875 
L 46.6875 54.6875 
L 56.203125 54.6875 
L 35.6875 0 
L 23.484375 0 
z
" id="DejaVuSans-118"/>
      <path d="M 34.28125 27.484375 
Q 23.390625 27.484375 19.1875 25 
Q 14.984375 22.515625 14.984375 16.5 
Q 14.984375 11.71875 18.140625 8.90625 
Q 21.296875 6.109375 26.703125 6.109375 
Q 34.1875 6.109375 38.703125 11.40625 
Q 43.21875 16.703125 43.21875 25.484375 
L 43.21875 27.484375 
z
M 52.203125 31.203125 
L 52.203125 0 
L 43.21875 0 
L 43.21875 8.296875 
Q 40.140625 3.328125 35.546875 0.953125 
Q 30.953125 -1.421875 24.3125 -1.421875 
Q 15.921875 -1.421875 10.953125 3.296875 
Q 6 8.015625 6 15.921875 
Q 6 25.140625 12.171875 29.828125 
Q 18.359375 34.515625 30.609375 34.515625 
L 43.21875 34.515625 
L 43.21875 35.40625 
Q 43.21875 41.609375 39.140625 45 
Q 35.0625 48.390625 27.6875 48.390625 
Q 23 48.390625 18.546875 47.265625 
Q 14.109375 46.140625 10.015625 43.890625 
L 10.015625 52.203125 
Q 14.9375 54.109375 19.578125 55.046875 
Q 24.21875 56 28.609375 56 
Q 40.484375 56 46.34375 49.84375 
Q 52.203125 43.703125 52.203125 31.203125 
z
" id="DejaVuSans-97"/>
      <path d="M 9.421875 75.984375 
L 18.40625 75.984375 
L 18.40625 0 
L 9.421875 0 
z
" id="DejaVuSans-108"/>
      <path d="M 8.5 21.578125 
L 8.5 54.6875 
L 17.484375 54.6875 
L 17.484375 21.921875 
Q 17.484375 14.15625 20.5 10.265625 
Q 23.53125 6.390625 29.59375 6.390625 
Q 36.859375 6.390625 41.078125 11.03125 
Q 45.3125 15.671875 45.3125 23.6875 
L 45.3125 54.6875 
L 54.296875 54.6875 
L 54.296875 0 
L 45.3125 0 
L 45.3125 8.40625 
Q 42.046875 3.421875 37.71875 1 
Q 33.40625 -1.421875 27.6875 -1.421875 
Q 18.265625 -1.421875 13.375 4.4375 
Q 8.5 10.296875 8.5 21.578125 
z
M 31.109375 56 
z
" id="DejaVuSans-117"/>
     </defs>
     <g transform="translate(18.04625 224.98775)rotate(-90)scale(0.12 -0.12)">
      <use xlink:href="#DejaVuSans-82"/>
      <use x="69.419922" xlink:href="#DejaVuSans-101"/>
      <use x="130.943359" xlink:href="#DejaVuSans-103"/>
      <use x="194.419922" xlink:href="#DejaVuSans-114"/>
      <use x="235.501953" xlink:href="#DejaVuSans-101"/>
      <use x="297.025391" xlink:href="#DejaVuSans-115"/>
      <use x="349.125" xlink:href="#DejaVuSans-115"/>
      <use x="401.224609" xlink:href="#DejaVuSans-105"/>
      <use x="429.007812" xlink:href="#DejaVuSans-111"/>
      <use x="490.189453" xlink:href="#DejaVuSans-110"/>
      <use x="553.568359" xlink:href="#DejaVuSans-32"/>
      <use x="585.355469" xlink:href="#DejaVuSans-99"/>
      <use x="640.335938" xlink:href="#DejaVuSans-111"/>
      <use x="701.517578" xlink:href="#DejaVuSans-101"/>
      <use x="763.041016" xlink:href="#DejaVuSans-102"/>
      <use x="798.246094" xlink:href="#DejaVuSans-102"/>
      <use x="833.451172" xlink:href="#DejaVuSans-105"/>
      <use x="861.234375" xlink:href="#DejaVuSans-99"/>
      <use x="916.214844" xlink:href="#DejaVuSans-105"/>
      <use x="943.998047" xlink:href="#DejaVuSans-101"/>
      <use x="1005.521484" xlink:href="#DejaVuSans-110"/>
      <use x="1068.900391" xlink:href="#DejaVuSans-116"/>
      <use x="1108.109375" xlink:href="#DejaVuSans-32"/>
      <use x="1139.896484" xlink:href="#DejaVuSans-118"/>
      <use x="1199.076172" xlink:href="#DejaVuSans-97"/>
      <use x="1260.355469" xlink:href="#DejaVuSans-108"/>
      <use x="1288.138672" xlink:href="#DejaVuSans-117"/>
      <use x="1351.517578" xlink:href="#DejaVuSans-101"/>
     </g>
     <!-- clipped to 1e8 magnitude -->
     <defs>
      <path d="M 18.109375 8.203125 
L 18.109375 -20.796875 
L 9.078125 -20.796875 
L 9.078125 54.6875 
L 18.109375 54.6875 
L 18.109375 46.390625 
Q 20.953125 51.265625 25.265625 53.625 
Q 29.59375 56 35.59375 56 
Q 45.5625 56 51.78125 48.09375 
Q 58.015625 40.1875 58.015625 27.296875 
Q 58.015625 14.40625 51.78125 6.484375 
Q 45.5625 -1.421875 35.59375 -1.421875 
Q 29.59375 -1.421875 25.265625 0.953125 
Q 20.953125 3.328125 18.109375 8.203125 
z
M 48.6875 27.296875 
Q 48.6875 37.203125 44.609375 42.84375 
Q 40.53125 48.484375 33.40625 48.484375 
Q 26.265625 48.484375 22.1875 42.84375 
Q 18.109375 37.203125 18.109375 27.296875 
Q 18.109375 17.390625 22.1875 11.75 
Q 26.265625 6.109375 33.40625 6.109375 
Q 40.53125 6.109375 44.609375 11.75 
Q 48.6875 17.390625 48.6875 27.296875 
z
" id="DejaVuSans-112"/>
      <path d="M 45.40625 46.390625 
L 45.40625 75.984375 
L 54.390625 75.984375 
L 54.390625 0 
L 45.40625 0 
L 45.40625 8.203125 
Q 42.578125 3.328125 38.25 0.953125 
Q 33.9375 -1.421875 27.875 -1.421875 
Q 17.96875 -1.421875 11.734375 6.484375 
Q 5.515625 14.40625 5.515625 27.296875 
Q 5.515625 40.1875 11.734375 48.09375 
Q 17.96875 56 27.875 56 
Q 33.9375 56 38.25 53.625 
Q 42.578125 51.265625 45.40625 46.390625 
z
M 14.796875 27.296875 
Q 14.796875 17.390625 18.875 11.75 
Q 22.953125 6.109375 30.078125 6.109375 
Q 37.203125 6.109375 41.296875 11.75 
Q 45.40625 17.390625 45.40625 27.296875 
Q 45.40625 37.203125 41.296875 42.84375 
Q 37.203125 48.484375 30.078125 48.484375 
Q 22.953125 48.484375 18.875 42.84375 
Q 14.796875 37.203125 14.796875 27.296875 
z
" id="DejaVuSans-100"/>
      <path d="M 52 44.1875 
Q 55.375 50.25 60.0625 53.125 
Q 64.75 56 71.09375 56 
Q 79.640625 56 84.28125 50.015625 
Q 88.921875 44.046875 88.921875 33.015625 
L 88.921875 0 
L 79.890625 0 
L 79.890625 32.71875 
Q 79.890625 40.578125 77.09375 44.375 
Q 74.3125 48.1875 68.609375 48.1875 
Q 61.625 48.1875 57.5625 43.546875 
Q 53.515625 38.921875 53.515625 30.90625 
L 53.515625 0 
L 44.484375 0 
L 44.484375 32.71875 
Q 44.484375 40.625 41.703125 44.40625 
Q 38.921875 48.1875 33.109375 48.1875 
Q 26.21875 48.1875 22.15625 43.53125 
Q 18.109375 38.875 18.109375 30.90625 
L 18.109375 0 
L 9.078125 0 
L 9.078125 54.6875 
L 18.109375 54.6875 
L 18.109375 46.1875 
Q 21.1875 51.21875 25.484375 53.609375 
Q 29.78125 56 35.6875 56 
Q 41.65625 56 45.828125 52.96875 
Q 50 49.953125 52 44.1875 
z
" id="DejaVuSans-109"/>
     </defs>
     <g transform="translate(31.483625 217.482125)rotate(-90)scale(0.12 -0.12)">
      <use xlink:href="#DejaVuSans-99"/>
      <use x="54.980469" xlink:href="#DejaVuSans-108"/>
      <use x="82.763672" xlink:href="#DejaVuSans-105"/>
      <use x="110.546875" xlink:href="#DejaVuSans-112"/>
      <use x="174.023438" xlink:href="#DejaVuSans-112"/>
      <use x="237.5" xlink:href="#DejaVuSans-101"/>
      <use x="299.023438" xlink:href="#DejaVuSans-100"/>
      <use x="362.5" xlink:href="#DejaVuSans-32"/>
      <use x="394.287109" xlink:href="#DejaVuSans-116"/>
      <use x="433.496094" xlink:href="#DejaVuSans-111"/>
      <use x="494.677734" xlink:href="#DejaVuSans-32"/>
      <use x="526.464844" xlink:href="#DejaVuSans-49"/>
      <use x="590.087891" xlink:href="#DejaVuSans-101"/>
      <use x="651.611328" xlink:href="#DejaVuSans-56"/>
      <use x="715.234375" xlink:href="#DejaVuSans-32"/>
      <use x="747.021484" xlink:href="#DejaVuSans-109"/>
      <use x="844.433594" xlink:href="#DejaVuSans-97"/>
      <use x="905.712891" xlink:href="#DejaVuSans-103"/>
      <use x="969.189453" xlink:href="#DejaVuSans-110"/>
      <use x="1032.568359" xlink:href="#DejaVuSans-105"/>
      <use x="1060.351562" xlink:href="#DejaVuSans-116"/>
      <use x="1099.560547" xlink:href="#DejaVuSans-117"/>
      <use x="1162.939453" xlink:href="#DejaVuSans-100"/>
      <use x="1226.416016" xlink:href="#DejaVuSans-101"/>
     </g>
    </g>
   </g>
   <g id="patch_219">
    <path d="M 91.748 242.44 
L 91.748 37.968 
" style="fill:none;stroke:#000000;stroke-linecap:square;stroke-linejoin:miter;stroke-width:0.8;"/>
   </g>
   <g id="patch_220">
    <path d="M 349.2 242.44 
L 349.2 37.968 
" style="fill:none;stroke:#000000;stroke-linecap:square;stroke-linejoin:miter;stroke-width:0.8;"/>
   </g>
   <g id="patch_221">
    <path d="M 91.748 242.44 
L 349.2 242.44 
" style="fill:none;stroke:#000000;stroke-linecap:square;stroke-linejoin:miter;stroke-width:0.8;"/>
   </g>
   <g id="patch_222">
    <path d="M 91.748 37.968 
L 349.2 37.968 
" style="fill:none;stroke:#000000;stroke-linecap:square;stroke-linejoin:miter;stroke-width:0.8;"/>
   </g>
   <g id="text_11">
    <!-- AMES data OLS coefficients -->
    <defs>
     <path d="M 34.1875 63.1875 
L 20.796875 26.90625 
L 47.609375 26.90625 
z
M 28.609375 72.90625 
L 39.796875 72.90625 
L 67.578125 0 
L 57.328125 0 
L 50.6875 18.703125 
L 17.828125 18.703125 
L 11.1875 0 
L 0.78125 0 
z
" id="DejaVuSans-65"/>
     <path d="M 9.8125 72.90625 
L 24.515625 72.90625 
L 43.109375 23.296875 
L 61.8125 72.90625 
L 76.515625 72.90625 
L 76.515625 0 
L 66.890625 0 
L 66.890625 64.015625 
L 48.09375 14.015625 
L 38.1875 14.015625 
L 19.390625 64.015625 
L 19.390625 0 
L 9.8125 0 
z
" id="DejaVuSans-77"/>
     <path d="M 9.8125 72.90625 
L 55.90625 72.90625 
L 55.90625 64.59375 
L 19.671875 64.59375 
L 19.671875 43.015625 
L 54.390625 43.015625 
L 54.390625 34.71875 
L 19.671875 34.71875 
L 19.671875 8.296875 
L 56.78125 8.296875 
L 56.78125 0 
L 9.8125 0 
z
" id="DejaVuSans-69"/>
     <path d="M 53.515625 70.515625 
L 53.515625 60.890625 
Q 47.90625 63.578125 42.921875 64.890625 
Q 37.9375 66.21875 33.296875 66.21875 
Q 25.25 66.21875 20.875 63.09375 
Q 16.5 59.96875 16.5 54.203125 
Q 16.5 49.359375 19.40625 46.890625 
Q 22.3125 44.4375 30.421875 42.921875 
L 36.375 41.703125 
Q 47.40625 39.59375 52.65625 34.296875 
Q 57.90625 29 57.90625 20.125 
Q 57.90625 9.515625 50.796875 4.046875 
Q 43.703125 -1.421875 29.984375 -1.421875 
Q 24.8125 -1.421875 18.96875 -0.25 
Q 13.140625 0.921875 6.890625 3.21875 
L 6.890625 13.375 
Q 12.890625 10.015625 18.65625 8.296875 
Q 24.421875 6.59375 29.984375 6.59375 
Q 38.421875 6.59375 43.015625 9.90625 
Q 47.609375 13.234375 47.609375 19.390625 
Q 47.609375 24.75 44.3125 27.78125 
Q 41.015625 30.8125 33.5 32.328125 
L 27.484375 33.5 
Q 16.453125 35.6875 11.515625 40.375 
Q 6.59375 45.0625 6.59375 53.421875 
Q 6.59375 63.09375 13.40625 68.65625 
Q 20.21875 74.21875 32.171875 74.21875 
Q 37.3125 74.21875 42.625 73.28125 
Q 47.953125 72.359375 53.515625 70.515625 
z
" id="DejaVuSans-83"/>
     <path d="M 39.40625 66.21875 
Q 28.65625 66.21875 22.328125 58.203125 
Q 16.015625 50.203125 16.015625 36.375 
Q 16.015625 22.609375 22.328125 14.59375 
Q 28.65625 6.59375 39.40625 6.59375 
Q 50.140625 6.59375 56.421875 14.59375 
Q 62.703125 22.609375 62.703125 36.375 
Q 62.703125 50.203125 56.421875 58.203125 
Q 50.140625 66.21875 39.40625 66.21875 
z
M 39.40625 74.21875 
Q 54.734375 74.21875 63.90625 63.9375 
Q 73.09375 53.65625 73.09375 36.375 
Q 73.09375 19.140625 63.90625 8.859375 
Q 54.734375 -1.421875 39.40625 -1.421875 
Q 24.03125 -1.421875 14.8125 8.828125 
Q 5.609375 19.09375 5.609375 36.375 
Q 5.609375 53.65625 14.8125 63.9375 
Q 24.03125 74.21875 39.40625 74.21875 
z
" id="DejaVuSans-79"/>
     <path d="M 9.8125 72.90625 
L 19.671875 72.90625 
L 19.671875 8.296875 
L 55.171875 8.296875 
L 55.171875 0 
L 9.8125 0 
z
" id="DejaVuSans-76"/>
    </defs>
    <g transform="translate(137.989938 18.530625)scale(0.12 -0.12)">
     <use xlink:href="#DejaVuSans-65"/>
     <use x="68.408203" xlink:href="#DejaVuSans-77"/>
     <use x="154.6875" xlink:href="#DejaVuSans-69"/>
     <use x="217.871094" xlink:href="#DejaVuSans-83"/>
     <use x="281.347656" xlink:href="#DejaVuSans-32"/>
     <use x="313.134766" xlink:href="#DejaVuSans-100"/>
     <use x="376.611328" xlink:href="#DejaVuSans-97"/>
     <use x="437.890625" xlink:href="#DejaVuSans-116"/>
     <use x="477.099609" xlink:href="#DejaVuSans-97"/>
     <use x="538.378906" xlink:href="#DejaVuSans-32"/>
     <use x="570.166016" xlink:href="#DejaVuSans-79"/>
     <use x="648.876953" xlink:href="#DejaVuSans-76"/>
     <use x="704.589844" xlink:href="#DejaVuSans-83"/>
     <use x="768.066406" xlink:href="#DejaVuSans-32"/>
     <use x="799.853516" xlink:href="#DejaVuSans-99"/>
     <use x="854.833984" xlink:href="#DejaVuSans-111"/>
     <use x="916.015625" xlink:href="#DejaVuSans-101"/>
     <use x="977.539062" xlink:href="#DejaVuSans-102"/>
     <use x="1012.744141" xlink:href="#DejaVuSans-102"/>
     <use x="1047.949219" xlink:href="#DejaVuSans-105"/>
     <use x="1075.732422" xlink:href="#DejaVuSans-99"/>
     <use x="1130.712891" xlink:href="#DejaVuSans-105"/>
     <use x="1158.496094" xlink:href="#DejaVuSans-101"/>
     <use x="1220.019531" xlink:href="#DejaVuSans-110"/>
     <use x="1283.398438" xlink:href="#DejaVuSans-116"/>
     <use x="1322.607422" xlink:href="#DejaVuSans-115"/>
    </g>
    <!-- R^2 = -5.9e+18, MAE = 2.0e+13 dollars -->
    <defs>
     <path d="M 46.6875 72.90625 
L 73.1875 45.703125 
L 63.375 45.703125 
L 41.890625 64.984375 
L 20.40625 45.703125 
L 10.59375 45.703125 
L 37.109375 72.90625 
z
" id="DejaVuSans-94"/>
     <path d="M 10.59375 45.40625 
L 73.1875 45.40625 
L 73.1875 37.203125 
L 10.59375 37.203125 
z
M 10.59375 25.484375 
L 73.1875 25.484375 
L 73.1875 17.1875 
L 10.59375 17.1875 
z
" id="DejaVuSans-61"/>
     <path d="M 10.984375 1.515625 
L 10.984375 10.5 
Q 14.703125 8.734375 18.5 7.8125 
Q 22.3125 6.890625 25.984375 6.890625 
Q 35.75 6.890625 40.890625 13.453125 
Q 46.046875 20.015625 46.78125 33.40625 
Q 43.953125 29.203125 39.59375 26.953125 
Q 35.25 24.703125 29.984375 24.703125 
Q 19.046875 24.703125 12.671875 31.3125 
Q 6.296875 37.9375 6.296875 49.421875 
Q 6.296875 60.640625 12.9375 67.421875 
Q 19.578125 74.21875 30.609375 74.21875 
Q 43.265625 74.21875 49.921875 64.515625 
Q 56.59375 54.828125 56.59375 36.375 
Q 56.59375 19.140625 48.40625 8.859375 
Q 40.234375 -1.421875 26.421875 -1.421875 
Q 22.703125 -1.421875 18.890625 -0.6875 
Q 15.09375 0.046875 10.984375 1.515625 
z
M 30.609375 32.421875 
Q 37.25 32.421875 41.125 36.953125 
Q 45.015625 41.5 45.015625 49.421875 
Q 45.015625 57.28125 41.125 61.84375 
Q 37.25 66.40625 30.609375 66.40625 
Q 23.96875 66.40625 20.09375 61.84375 
Q 16.21875 57.28125 16.21875 49.421875 
Q 16.21875 41.5 20.09375 36.953125 
Q 23.96875 32.421875 30.609375 32.421875 
z
" id="DejaVuSans-57"/>
     <path d="M 11.71875 12.40625 
L 22.015625 12.40625 
L 22.015625 4 
L 14.015625 -11.625 
L 7.71875 -11.625 
L 11.71875 4 
z
" id="DejaVuSans-44"/>
     <path d="M 40.578125 39.3125 
Q 47.65625 37.796875 51.625 33 
Q 55.609375 28.21875 55.609375 21.1875 
Q 55.609375 10.40625 48.1875 4.484375 
Q 40.765625 -1.421875 27.09375 -1.421875 
Q 22.515625 -1.421875 17.65625 -0.515625 
Q 12.796875 0.390625 7.625 2.203125 
L 7.625 11.71875 
Q 11.71875 9.328125 16.59375 8.109375 
Q 21.484375 6.890625 26.8125 6.890625 
Q 36.078125 6.890625 40.9375 10.546875 
Q 45.796875 14.203125 45.796875 21.1875 
Q 45.796875 27.640625 41.28125 31.265625 
Q 36.765625 34.90625 28.71875 34.90625 
L 20.21875 34.90625 
L 20.21875 43.015625 
L 29.109375 43.015625 
Q 36.375 43.015625 40.234375 45.921875 
Q 44.09375 48.828125 44.09375 54.296875 
Q 44.09375 59.90625 40.109375 62.90625 
Q 36.140625 65.921875 28.71875 65.921875 
Q 24.65625 65.921875 20.015625 65.03125 
Q 15.375 64.15625 9.8125 62.3125 
L 9.8125 71.09375 
Q 15.4375 72.65625 20.34375 73.4375 
Q 25.25 74.21875 29.59375 74.21875 
Q 40.828125 74.21875 47.359375 69.109375 
Q 53.90625 64.015625 53.90625 55.328125 
Q 53.90625 49.265625 50.4375 45.09375 
Q 46.96875 40.921875 40.578125 39.3125 
z
" id="DejaVuSans-51"/>
    </defs>
    <g transform="translate(96.942438 31.968)scale(0.12 -0.12)">
     <use xlink:href="#DejaVuSans-82"/>
     <use x="69.482422" xlink:href="#DejaVuSans-94"/>
     <use x="153.271484" xlink:href="#DejaVuSans-50"/>
     <use x="216.894531" xlink:href="#DejaVuSans-32"/>
     <use x="248.681641" xlink:href="#DejaVuSans-61"/>
     <use x="332.470703" xlink:href="#DejaVuSans-32"/>
     <use x="364.257812" xlink:href="#DejaVuSans-45"/>
     <use x="400.341797" xlink:href="#DejaVuSans-53"/>
     <use x="463.964844" xlink:href="#DejaVuSans-46"/>
     <use x="495.751953" xlink:href="#DejaVuSans-57"/>
     <use x="559.375" xlink:href="#DejaVuSans-101"/>
     <use x="620.898438" xlink:href="#DejaVuSans-43"/>
     <use x="704.6875" xlink:href="#DejaVuSans-49"/>
     <use x="768.310547" xlink:href="#DejaVuSans-56"/>
     <use x="831.933594" xlink:href="#DejaVuSans-44"/>
     <use x="863.720703" xlink:href="#DejaVuSans-32"/>
     <use x="895.507812" xlink:href="#DejaVuSans-77"/>
     <use x="981.787109" xlink:href="#DejaVuSans-65"/>
     <use x="1050.195312" xlink:href="#DejaVuSans-69"/>
     <use x="1113.378906" xlink:href="#DejaVuSans-32"/>
     <use x="1145.166016" xlink:href="#DejaVuSans-61"/>
     <use x="1228.955078" xlink:href="#DejaVuSans-32"/>
     <use x="1260.742188" xlink:href="#DejaVuSans-50"/>
     <use x="1324.365234" xlink:href="#DejaVuSans-46"/>
     <use x="1356.152344" xlink:href="#DejaVuSans-48"/>
     <use x="1419.775391" xlink:href="#DejaVuSans-101"/>
     <use x="1481.298828" xlink:href="#DejaVuSans-43"/>
     <use x="1565.087891" xlink:href="#DejaVuSans-49"/>
     <use x="1628.710938" xlink:href="#DejaVuSans-51"/>
     <use x="1692.333984" xlink:href="#DejaVuSans-32"/>
     <use x="1724.121094" xlink:href="#DejaVuSans-100"/>
     <use x="1787.597656" xlink:href="#DejaVuSans-111"/>
     <use x="1848.779297" xlink:href="#DejaVuSans-108"/>
     <use x="1876.5625" xlink:href="#DejaVuSans-108"/>
     <use x="1904.345703" xlink:href="#DejaVuSans-97"/>
     <use x="1965.625" xlink:href="#DejaVuSans-114"/>
     <use x="2006.738281" xlink:href="#DejaVuSans-115"/>
    </g>
   </g>
  </g>
 </g>
 <defs>
  <clipPath id="p269cbe35b7">
   <rect height="204.472" width="257.452" x="91.748" y="37.968"/>
  </clipPath>
 </defs>
</svg>
