<?xml version="1.0" encoding="utf-8" standalone="no"?>
<!DOCTYPE svg PUBLIC "-//W3C//DTD SVG 1.1//EN"
  "http://www.w3.org/Graphics/SVG/1.1/DTD/svg11.dtd">
<!-- Created with matplotlib (https://matplotlib.org/) -->
<svg height="273.6pt" version="1.1" viewBox="0 0 273.6 273.6" width="273.6pt" xmlns="http://www.w3.org/2000/svg" xmlns:xlink="http://www.w3.org/1999/xlink">
 <defs>
  <style type="text/css">
*{stroke-linecap:butt;stroke-linejoin:round;}
  </style>
 </defs>
 <g id="figure_1">
  <g id="patch_1">
   <path d="M 0 273.6 
L 273.6 273.6 
L 273.6 0 
L 0 0 
z
" style="fill:#ffffff;"/>
  </g>
  <g id="axes_1">
   <g id="patch_2">
    <path d="M 42.54 232.04 
L 256.455 232.04 
L 256.455 25.44 
L 42.54 25.44 
z
" style="fill:#ffffff;"/>
   </g>
   <g id="PathCollection_1">
    <defs>
     <path d="M 0 4.743416 
C 1.257969 4.743416 2.464584 4.24362 3.354102 3.354102 
C 4.24362 2.464584 4.743416 1.257969 4.743416 0 
C 4.743416 -1.257969 4.24362 -2.464584 3.354102 -3.354102 
C 2.464584 -4.24362 1.257969 -4.743416 0 -4.743416 
C -1.257969 -4.743416 -2.464584 -4.24362 -3.354102 -3.354102 
C -4.24362 -2.464584 -4.743416 -1.257969 -4.743416 0 
C -4.743416 1.257969 -4.24362 2.464584 -3.354102 3.354102 
C -2.464584 4.24362 -1.257969 4.743416 0 4.743416 
z
" id="mc186b7cca3" style="stroke:#000000;"/>
    </defs>
    <g clip-path="url(#p517170816c)">
     <use style="stroke:#000000;" x="106.030079" xlink:href="#mc186b7cca3" y="193.256794"/>
    </g>
   </g>
   <g id="PathCollection_2">
    <defs>
     <path d="M 0 4.743416 
C 1.257969 4.743416 2.464584 4.24362 3.354102 3.354102 
C 4.24362 2.464584 4.743416 1.257969 4.743416 0 
C 4.743416 -1.257969 4.24362 -2.464584 3.354102 -3.354102 
C 2.464584 -4.24362 1.257969 -4.743416 0 -4.743416 
C -1.257969 -4.743416 -2.464584 -4.24362 -3.354102 -3.354102 
C -4.24362 -2.464584 -4.743416 -1.257969 -4.743416 0 
C -4.743416 1.257969 -4.24362 2.464584 -3.354102 3.354102 
C -2.464584 4.24362 -1.257969 4.743416 0 4.743416 
z
" id="mb2984e66a4" style="stroke:#e32ca6;"/>
    </defs>
    <g clip-path="url(#p517170816c)">
     <use style="fill:#e32ca6;stroke:#e32ca6;" x="149.4975" xlink:href="#mb2984e66a4" y="149.4"/>
    </g>
   </g>
   <g id="matplotlib.axis_1">
    <g id="xtick_1">
     <g id="line2d_1">
      <defs>
       <path d="M 0 0 
L 0 3.5 
" id="m1d6a592406" style="stroke:#000000;stroke-width:0.8;"/>
      </defs>
      <g>
       <use style="stroke:#000000;stroke-width:0.8;" x="42.54" xlink:href="#m1d6a592406" y="232.04"/>
      </g>
     </g>
     <g id="text_1">
      <!-- −10 -->
      <defs>
       <path d="M 10.59375 35.5 
L 73.1875 35.5 
L 73.1875 27.203125 
L 10.59375 27.203125 
z
" id="DejaVuSans-8722"/>
       <path d="M 12.40625 8.296875 
L 28.515625 8.296875 
L 28.515625 63.921875 
L 10.984375 60.40625 
L 10.984375 69.390625 
L 28.421875 72.90625 
L 38.28125 72.90625 
L 38.28125 8.296875 
L 54.390625 8.296875 
L 54.390625 0 
L 12.40625 0 
z
" id="DejaVuSans-49"/>
       <path d="M 31.78125 66.40625 
Q 24.171875 66.40625 20.328125 58.90625 
Q 16.5 51.421875 16.5 36.375 
Q 16.5 21.390625 20.328125 13.890625 
Q 24.171875 6.390625 31.78125 6.390625 
Q 39.453125 6.390625 43.28125 13.890625 
Q 47.125 21.390625 47.125 36.375 
Q 47.125 51.421875 43.28125 58.90625 
Q 39.453125 66.40625 31.78125 66.40625 
z
M 31.78125 74.21875 
Q 44.046875 74.21875 50.515625 64.515625 
Q 56.984375 54.828125 56.984375 36.375 
Q 56.984375 17.96875 50.515625 8.265625 
Q 44.046875 -1.421875 31.78125 -1.421875 
Q 19.53125 -1.421875 13.0625 8.265625 
Q 6.59375 17.96875 6.59375 36.375 
Q 6.59375 54.828125 13.0625 64.515625 
Q 19.53125 74.21875 31.78125 74.21875 
z
" id="DejaVuSans-48"/>
      </defs>
      <g transform="translate(31.987656 246.638437)scale(0.1 -0.1)">
       <use xlink:href="#DejaVuSans-8722"/>
       <use x="83.789062" xlink:href="#DejaVuSans-49"/>
       <use x="147.412109" xlink:href="#DejaVuSans-48"/>
      </g>
     </g>
    </g>
    <g id="xtick_2">
     <g id="line2d_2">
      <g>
       <use style="stroke:#000000;stroke-width:0.8;" x="96.01875" xlink:href="#m1d6a592406" y="232.04"/>
      </g>
     </g>
     <g id="text_2">
      <!-- −5 -->
      <defs>
       <path d="M 10.796875 72.90625 
L 49.515625 72.90625 
L 49.515625 64.59375 
L 19.828125 64.59375 
L 19.828125 46.734375 
Q 21.96875 47.46875 24.109375 47.828125 
Q 26.265625 48.1875 28.421875 48.1875 
Q 40.625 48.1875 47.75 41.5 
Q 54.890625 34.8125 54.890625 23.390625 
Q 54.890625 11.625 47.5625 5.09375 
Q 40.234375 -1.421875 26.90625 -1.421875 
Q 22.3125 -1.421875 17.546875 -0.640625 
Q 12.796875 0.140625 7.71875 1.703125 
L 7.71875 11.625 
Q 12.109375 9.234375 16.796875 8.0625 
Q 21.484375 6.890625 26.703125 6.890625 
Q 35.15625 6.890625 40.078125 11.328125 
Q 45.015625 15.765625 45.015625 23.390625 
Q 45.015625 31 40.078125 35.4375 
Q 35.15625 39.890625 26.703125 39.890625 
Q 22.75 39.890625 18.8125 39.015625 
Q 14.890625 38.140625 10.796875 36.28125 
z
" id="DejaVuSans-53"/>
      </defs>
      <g transform="translate(88.647656 246.638437)scale(0.1 -0.1)">
       <use xlink:href="#DejaVuSans-8722"/>
       <use x="83.789062" xlink:href="#DejaVuSans-53"/>
      </g>
     </g>
    </g>
    <g id="xtick_3">
     <g id="line2d_3">
      <g>
       <use style="stroke:#000000;stroke-width:0.8;" x="149.4975" xlink:href="#m1d6a592406" y="232.04"/>
      </g>
     </g>
     <g id="text_3">
      <!-- 0 -->
      <g transform="translate(146.31625 246.638437)scale(0.1 -0.1)">
       <use xlink:href="#DejaVuSans-48"/>
      </g>
     </g>
    </g>
    <g id="xtick_4">
     <g id="line2d_4">
      <g>
       <use style="stroke:#000000;stroke-width:0.8;" x="202.97625" xlink:href="#m1d6a592406" y="232.04"/>
      </g>
     </g>
     <g id="text_4">
      <!-- 5 -->
      <g transform="translate(199.795 246.638437)scale(0.1 -0.1)">
       <use xlink:href="#DejaVuSans-53"/>
      </g>
     </g>
    </g>
    <g id="xtick_5">
     <g id="line2d_5">
      <g>
       <use style="stroke:#000000;stroke-width:0.8;" x="256.455" xlink:href="#m1d6a592406" y="232.04"/>
      </g>
     </g>
     <g id="text_5">
      <!-- 10 -->
      <g transform="translate(250.0925 246.638437)scale(0.1 -0.1)">
       <use xlink:href="#DejaVuSans-49"/>
       <use x="63.623047" xlink:href="#DejaVuSans-48"/>
      </g>
     </g>
    </g>
    <g id="text_6">
     <!-- $\beta_1$ -->
     <defs>
      <path d="M 13.625 3.375 
L 8.9375 -20.796875 
L -0.09375 -20.796875 
L 14.5 54.34375 
Q 18.84375 76.609375 39.65625 76.609375 
Q 60.75 76.609375 57.171875 57.8125 
Q 54.734375 44.4375 45.21875 39.546875 
Q 58.015625 35.15625 55.515625 22.125 
Q 51.125 -1.078125 27.484375 -1.03125 
Q 17.140625 -0.984375 13.625 3.375 
z
M 15.921875 15.09375 
Q 19.671875 6.59375 29.296875 6.640625 
Q 43.359375 6.640625 46.34375 21.96875 
Q 49.03125 35.75 26.171875 34.671875 
L 27.78125 42.96875 
Q 45.453125 42.671875 48.53125 58.59375 
Q 50.640625 69.34375 39.203125 69.28125 
Q 26.421875 69.28125 23.484375 54.046875 
z
" id="DejaVuSans-Oblique-946"/>
     </defs>
     <g transform="translate(142.7775 257.958125)scale(0.12 -0.12)">
      <use transform="translate(0 0.390625)" xlink:href="#DejaVuSans-Oblique-946"/>
      <use transform="translate(63.818359 -16.015625)scale(0.7)" xlink:href="#DejaVuSans-49"/>
     </g>
    </g>
   </g>
   <g id="matplotlib.axis_2">
    <g id="ytick_1">
     <g id="line2d_6">
      <defs>
       <path d="M 0 0 
L -3.5 0 
" id="mf9ae8416bd" style="stroke:#000000;stroke-width:0.8;"/>
      </defs>
      <g>
       <use style="stroke:#000000;stroke-width:0.8;" x="42.54" xlink:href="#mf9ae8416bd" y="232.04"/>
      </g>
     </g>
     <g id="text_7">
      <!-- −10 -->
      <g transform="translate(14.435312 235.839219)scale(0.1 -0.1)">
       <use xlink:href="#DejaVuSans-8722"/>
       <use x="83.789062" xlink:href="#DejaVuSans-49"/>
       <use x="147.412109" xlink:href="#DejaVuSans-48"/>
      </g>
     </g>
    </g>
    <g id="ytick_2">
     <g id="line2d_7">
      <g>
       <use style="stroke:#000000;stroke-width:0.8;" x="42.54" xlink:href="#mf9ae8416bd" y="180.39"/>
      </g>
     </g>
     <g id="text_8">
      <!-- −5 -->
      <g transform="translate(20.797812 184.189219)scale(0.1 -0.1)">
       <use xlink:href="#DejaVuSans-8722"/>
       <use x="83.789062" xlink:href="#DejaVuSans-53"/>
      </g>
     </g>
    </g>
    <g id="ytick_3">
     <g id="line2d_8">
      <g>
       <use style="stroke:#000000;stroke-width:0.8;" x="42.54" xlink:href="#mf9ae8416bd" y="128.74"/>
      </g>
     </g>
     <g id="text_9">
      <!-- 0 -->
      <g transform="translate(29.1775 132.539219)scale(0.1 -0.1)">
       <use xlink:href="#DejaVuSans-48"/>
      </g>
     </g>
    </g>
    <g id="ytick_4">
     <g id="line2d_9">
      <g>
       <use style="stroke:#000000;stroke-width:0.8;" x="42.54" xlink:href="#mf9ae8416bd" y="77.09"/>
      </g>
     </g>
     <g id="text_10">
      <!-- 5 -->
      <g transform="translate(29.1775 80.889219)scale(0.1 -0.1)">
       <use xlink:href="#DejaVuSans-53"/>
      </g>
     </g>
    </g>
    <g id="ytick_5">
     <g id="line2d_10">
      <g>
       <use style="stroke:#000000;stroke-width:0.8;" x="42.54" xlink:href="#mf9ae8416bd" y="25.44"/>
      </g>
     </g>
     <g id="text_11">
      <!-- 10 -->
      <g transform="translate(22.815 29.239219)scale(0.1 -0.1)">
       <use xlink:href="#DejaVuSans-49"/>
       <use x="63.623047" xlink:href="#DejaVuSans-48"/>
      </g>
     </g>
    </g>
    <g id="text_12">
     <!-- $\beta_2$ -->
     <defs>
      <path d="M 19.1875 8.296875 
L 53.609375 8.296875 
L 53.609375 0 
L 7.328125 0 
L 7.328125 8.296875 
Q 12.9375 14.109375 22.625 23.890625 
Q 32.328125 33.6875 34.8125 36.53125 
Q 39.546875 41.84375 41.421875 45.53125 
Q 43.3125 49.21875 43.3125 52.78125 
Q 43.3125 58.59375 39.234375 62.25 
Q 35.15625 65.921875 28.609375 65.921875 
Q 23.96875 65.921875 18.8125 64.3125 
Q 13.671875 62.703125 7.8125 59.421875 
L 7.8125 69.390625 
Q 13.765625 71.78125 18.9375 73 
Q 24.125 74.21875 28.421875 74.21875 
Q 39.75 74.21875 46.484375 68.546875 
Q 53.21875 62.890625 53.21875 53.421875 
Q 53.21875 48.921875 51.53125 44.890625 
Q 49.859375 40.875 45.40625 35.40625 
Q 44.1875 33.984375 37.640625 27.21875 
Q 31.109375 20.453125 19.1875 8.296875 
z
" id="DejaVuSans-50"/>
     </defs>
     <g transform="translate(21.915312 135.46)rotate(-90)scale(0.12 -0.12)">
      <use transform="translate(0 0.390625)" xlink:href="#DejaVuSans-Oblique-946"/>
      <use transform="translate(63.818359 -16.015625)scale(0.7)" xlink:href="#DejaVuSans-50"/>
     </g>
    </g>
   </g>
   <g id="LineCollection_1"/>
   <g id="LineCollection_2">
    <path clip-path="url(#p517170816c)" d="M 100.880455 226.149671 
L 98.719697 225.777086 
L 94.398182 224.66182 
L 91.574357 223.692525 
L 87.915909 222.093578 
L 85.755152 220.947477 
L 83.397967 219.518788 
L 80.523668 217.431919 
L 78.099578 215.345051 
L 76.03588 213.258182 
L 74.265161 211.171313 
L 72.735833 209.084444 
L 70.629848 205.457335 
L 70.353019 204.910707 
L 69.450726 202.823838 
L 68.469091 199.916385 
L 68.128519 198.650101 
L 67.715543 196.563232 
L 67.451448 194.476364 
L 67.337406 192.389495 
L 67.374603 190.302626 
L 67.564234 188.215758 
L 67.907511 186.128889 
L 68.469091 183.839193 
L 69.095432 181.955152 
L 70.629848 178.500672 
L 71.008079 177.781414 
L 72.790606 174.96961 
L 74.951364 172.2518 
L 77.112121 170.035136 
L 79.272879 168.183419 
L 81.433636 166.605703 
L 83.594394 165.238943 
L 87.744362 163.173333 
L 90.076667 162.27851 
L 94.041624 161.086465 
L 96.558939 160.556096 
L 100.880455 159.998215 
L 105.20197 159.864883 
L 109.523485 160.150127 
L 113.845 160.848089 
L 116.005758 161.367505 
L 120.327273 162.759854 
L 122.48803 163.646489 
L 125.757929 165.260202 
L 128.970303 167.199425 
L 131.131061 168.766776 
L 133.291818 170.562196 
L 135.452576 172.648853 
L 137.613333 175.115618 
L 138.071181 175.694545 
L 139.774091 178.132976 
L 140.801806 179.868283 
L 141.934848 182.082594 
L 142.746836 184.04202 
L 143.459602 186.128889 
L 144.095606 188.609893 
L 144.406402 190.302626 
L 144.642192 192.389495 
L 144.729654 194.476364 
L 144.66763 196.563232 
L 144.454953 198.650101 
L 144.090136 200.73697 
L 143.541975 202.823838 
L 142.830261 204.910707 
L 141.934848 207.035246 
L 140.845698 209.084444 
L 139.543112 211.171313 
L 137.613333 213.686893 
L 135.452576 215.996527 
L 133.291818 217.929631 
L 131.131061 219.578852 
L 127.853101 221.605657 
L 124.648788 223.18726 
L 122.48803 224.059844 
L 118.166515 225.387705 
L 116.005758 225.872704 
L 111.684242 226.474088 
L 107.362727 226.654749 
L 103.041212 226.420546 
L 100.880455 226.149671 
L 100.880455 226.149671 
" style="fill:none;stroke:#4055c8;"/>
   </g>
   <g id="LineCollection_3">
    <path clip-path="url(#p517170816c)" d="M 76.672585 232.04 
L 72.790606 229.561938 
L 70.470136 227.866263 
L 67.935413 225.779394 
L 65.675451 223.692525 
L 63.651964 221.605657 
L 61.833465 219.518788 
L 59.826061 216.896623 
L 57.446827 213.258182 
L 55.262536 209.084444 
L 53.589891 204.910707 
L 52.93408 202.823838 
L 51.95934 198.650101 
L 51.41166 194.476364 
L 51.29588 190.302626 
L 51.616915 186.128889 
L 52.379754 181.955152 
L 53.343788 178.55608 
L 53.599903 177.781414 
L 55.332556 173.607677 
L 56.416528 171.520808 
L 57.665303 169.384906 
L 59.826061 166.279674 
L 61.986818 163.632387 
L 64.147576 161.3426 
L 66.308333 159.337241 
L 68.469091 157.561883 
L 70.629848 155.975152 
L 72.790606 154.545038 
L 77.112121 152.13162 
L 81.433636 150.194978 
L 86.104835 148.565253 
L 90.076667 147.526674 
L 94.398182 146.70443 
L 98.719697 146.206319 
L 103.041212 146.012967 
L 107.362727 146.111533 
L 111.684242 146.500113 
L 116.005758 147.204509 
L 120.327273 148.204967 
L 122.48803 148.827077 
L 126.809545 150.333625 
L 128.970303 151.22722 
L 133.291818 153.309028 
L 135.980965 154.825859 
L 139.774091 157.306515 
L 142.042334 158.999596 
L 144.526364 161.086465 
L 146.743648 163.173333 
L 148.730948 165.260202 
L 150.577879 167.425312 
L 152.738636 170.338413 
L 154.899394 173.746442 
L 156.960376 177.781414 
L 157.828458 179.868283 
L 159.232332 184.04202 
L 160.162551 188.215758 
L 160.669212 192.389495 
L 160.747556 196.563232 
L 160.392753 200.73697 
L 159.5999 204.910707 
L 159.029955 206.997576 
L 157.509106 211.171313 
L 156.551201 213.258182 
L 154.899394 216.283353 
L 152.779091 219.518788 
L 151.159711 221.605657 
L 149.337831 223.692525 
L 147.278861 225.779394 
L 144.939858 227.866263 
L 141.934848 230.192073 
L 139.150059 232.04 
L 139.150059 232.04 
" style="fill:none;stroke:#485fd1;"/>
   </g>
   <g id="LineCollection_4">
    <path clip-path="url(#p517170816c)" d="M 58.194822 232.04 
L 57.665303 231.548808 
L 56.014274 229.953131 
L 55.504545 229.434089 
L 54.024358 227.866263 
L 53.343788 227.104576 
L 52.203793 225.779394 
L 51.18303 224.521586 
L 50.534352 223.692525 
L 49.022273 221.636557 
L 49.000333 221.605657 
L 47.614587 219.518788 
L 46.861515 218.301399 
L 46.341693 217.431919 
L 45.186454 215.345051 
L 44.700758 214.391201 
L 44.142575 213.258182 
L 43.204314 211.171313 
L 42.54 209.537353 
" style="fill:none;stroke:#4f69d9;"/>
    <path clip-path="url(#p517170816c)" d="M 42.54 172.391977 
L 43.827855 169.433939 
L 44.869777 167.347071 
L 47.344615 163.173333 
L 49.022273 160.761471 
L 51.18303 158.025008 
L 53.343788 155.597786 
L 55.504545 153.426452 
L 57.665303 151.46926 
L 59.826061 149.693075 
L 61.986818 148.071265 
L 64.315003 146.478384 
L 68.469091 144.004104 
L 72.790606 141.841932 
L 77.112121 140.042886 
L 81.433636 138.579703 
L 85.755152 137.413946 
L 90.076667 136.521872 
L 94.398182 135.890142 
L 98.719697 135.518938 
L 103.041212 135.389011 
L 107.362727 135.498419 
L 111.684242 135.845244 
L 116.005758 136.441745 
L 120.327273 137.287725 
L 124.648788 138.383087 
L 128.970303 139.757638 
L 133.291818 141.42271 
L 137.613333 143.400954 
L 141.934848 145.729294 
L 144.095606 147.038746 
L 148.417121 149.994681 
L 151.889083 152.73899 
L 154.899394 155.442804 
L 157.060152 157.604463 
L 160.148525 161.086465 
L 161.795303 163.173333 
L 163.542424 165.61882 
L 165.924867 169.433939 
L 168.087044 173.607677 
L 169.829912 177.781414 
L 170.549723 179.868283 
L 171.715537 184.04202 
L 172.519571 188.215758 
L 172.965815 192.389495 
L 173.066163 196.563232 
L 172.817472 200.73697 
L 172.185455 205.060635 
L 171.229112 209.084444 
L 169.864216 213.258182 
L 168.069499 217.431919 
L 166.995005 219.518788 
L 165.703182 221.780657 
L 163.016953 225.779394 
L 161.381667 227.894769 
L 159.220909 230.378453 
L 157.630625 232.04 
L 157.630625 232.04 
" style="fill:none;stroke:#4f69d9;"/>
   </g>
   <g id="LineCollection_5">
    <path clip-path="url(#p517170816c)" d="M 44.917927 232.04 
L 44.700758 231.788418 
L 43.167338 229.953131 
L 42.54 229.162554 
" style="fill:none;stroke:#5673e0;"/>
    <path clip-path="url(#p517170816c)" d="M 42.54 152.744938 
L 44.700758 150.290618 
L 46.861515 148.060251 
L 49.022273 146.021776 
L 51.18303 144.149188 
L 55.504545 140.844213 
L 57.665303 139.376522 
L 61.986818 136.757476 
L 66.308333 134.513454 
L 70.629848 132.601726 
L 74.951364 130.985817 
L 79.272879 129.634401 
L 83.594394 128.547412 
L 87.915909 127.684026 
L 92.237424 127.062064 
L 96.558939 126.65302 
L 100.880455 126.45539 
L 105.20197 126.467685 
L 109.523485 126.68843 
L 113.845 127.116165 
L 118.166515 127.751138 
L 122.48803 128.615354 
L 127.142619 129.783434 
L 131.131061 131.008477 
L 135.452576 132.566996 
L 139.774091 134.387404 
L 144.095606 136.496061 
L 148.417121 138.922981 
L 152.738636 141.702502 
L 156.41946 144.391515 
L 159.220909 146.664489 
L 161.381667 148.571199 
L 163.560555 150.652121 
L 167.445517 154.825859 
L 170.024697 158.001421 
L 172.271621 161.086465 
L 174.906558 165.260202 
L 177.142231 169.433939 
L 179.010048 173.607677 
L 180.529787 177.781414 
L 181.717128 181.955152 
L 182.595566 186.128889 
L 183.166094 190.302626 
L 183.428835 194.476364 
L 183.392322 198.650101 
L 182.989242 203.303557 
L 182.395544 206.997576 
L 181.41973 211.171313 
L 180.105173 215.345051 
L 178.435951 219.518788 
L 176.375041 223.692525 
L 173.880081 227.866263 
L 172.185455 230.331016 
L 170.902369 232.04 
L 170.902369 232.04 
" style="fill:none;stroke:#5673e0;"/>
   </g>
   <g id="LineCollection_6">
    <path clip-path="url(#p517170816c)" d="M 42.54 140.215767 
L 46.861515 136.63403 
L 50.54309 133.957172 
L 53.750635 131.870303 
L 57.665303 129.596914 
L 61.986818 127.400727 
L 66.308333 125.493171 
L 71.60526 123.522828 
L 74.951364 122.465607 
L 79.272879 121.294633 
L 83.594394 120.351666 
L 87.915909 119.605468 
L 92.237424 119.063014 
L 96.558939 118.716493 
L 100.880455 118.557521 
L 105.20197 118.584924 
L 109.523485 118.797537 
L 115.097898 119.349091 
L 118.166515 119.785879 
L 122.48803 120.568839 
L 126.809545 121.540441 
L 131.131061 122.727144 
L 135.452576 124.119692 
L 139.774091 125.73245 
L 144.329195 127.696566 
L 148.574048 129.783434 
L 152.738636 132.097577 
L 157.060152 134.809978 
L 161.381667 137.866734 
L 164.363505 140.217778 
L 167.863939 143.260116 
L 171.191142 146.478384 
L 174.346212 149.891884 
L 176.727286 152.73899 
L 179.824873 156.912727 
L 182.524168 161.086465 
L 184.85464 165.260202 
L 186.842919 169.433939 
L 188.513133 173.607677 
L 189.887193 177.781414 
L 190.968603 181.955152 
L 191.776009 186.128889 
L 192.301372 190.302626 
L 192.559267 194.476364 
L 192.547813 198.650101 
L 192.265111 202.823838 
L 191.632273 207.419597 
L 190.8588 211.171313 
L 189.722042 215.345051 
L 188.267628 219.518788 
L 186.488179 223.692525 
L 184.353514 227.866263 
L 181.829597 232.04 
L 181.829597 232.04 
" style="fill:none;stroke:#5e7de7;"/>
   </g>
   <g id="LineCollection_7">
    <path clip-path="url(#p517170816c)" d="M 42.54 130.224213 
L 46.13568 127.696566 
L 49.416019 125.609697 
L 53.343788 123.360211 
L 57.665303 121.169894 
L 61.986818 119.243831 
L 67.16851 117.262222 
L 70.629848 116.118374 
L 74.951364 114.875698 
L 79.272879 113.841194 
L 83.594394 112.991082 
L 87.915909 112.336489 
L 92.237424 111.856817 
L 96.558939 111.551051 
L 100.880455 111.418186 
L 105.20197 111.457221 
L 109.523485 111.667167 
L 113.845 112.04704 
L 118.166515 112.595864 
L 122.48803 113.318539 
L 126.809545 114.225446 
L 131.131061 115.30607 
L 135.452576 116.585897 
L 139.774091 118.059668 
L 144.095606 119.73884 
L 148.417121 121.639862 
L 152.738636 123.780992 
L 157.060152 126.182547 
L 161.381667 128.8672 
L 165.716738 131.870303 
L 170.024697 135.232964 
L 173.377874 138.130909 
L 176.50697 141.102898 
L 179.655716 144.391515 
L 183.230301 148.565253 
L 186.375932 152.73899 
L 189.152685 156.912727 
L 191.632273 161.173684 
L 193.79303 165.467091 
L 195.510442 169.433939 
L 197.042198 173.607677 
L 198.310828 177.781414 
L 199.310716 181.955152 
L 200.064893 186.128889 
L 200.565048 190.302626 
L 200.817122 194.476364 
L 200.824311 198.650101 
L 200.585046 202.823838 
L 200.093595 206.997576 
L 199.339398 211.171313 
L 198.114545 216.084629 
L 197.032207 219.518788 
L 195.452132 223.692525 
L 193.564045 227.866263 
L 191.341521 232.04 
L 191.341521 232.04 
" style="fill:none;stroke:#6687ed;"/>
   </g>
   <g id="LineCollection_8">
    <path clip-path="url(#p517170816c)" d="M 42.54 121.650983 
L 46.294992 119.349091 
L 50.06187 117.262222 
L 54.257283 115.175354 
L 59.012268 113.088485 
L 61.986818 111.924386 
L 66.308333 110.408914 
L 71.276685 108.914747 
L 74.951364 107.973985 
L 80.333668 106.827879 
L 83.594394 106.265855 
L 87.915909 105.670574 
L 92.237424 105.23741 
L 96.558939 104.96549 
L 100.880455 104.853947 
L 105.20197 104.901922 
L 109.523485 105.10856 
L 113.845 105.473014 
L 118.166515 105.994442 
L 123.33577 106.827879 
L 126.809545 107.521285 
L 132.593445 108.914747 
L 135.452576 109.720436 
L 139.774091 111.079983 
L 145.263068 113.088485 
L 150.226668 115.175354 
L 154.625666 117.262222 
L 158.5884 119.349091 
L 162.207051 121.43596 
L 165.703182 123.626455 
L 170.024697 126.613002 
L 174.346212 129.918594 
L 179.045761 133.957172 
L 183.353241 138.130909 
L 187.310758 142.452688 
L 190.58738 146.478384 
L 193.79303 150.897682 
L 196.320154 154.825859 
L 198.701066 158.999596 
L 200.792296 163.173333 
L 202.611076 167.347071 
L 204.164014 171.520808 
L 205.466475 175.694545 
L 206.531748 179.868283 
L 207.354844 184.04202 
L 207.94731 188.215758 
L 208.312563 192.389495 
L 208.449243 196.563232 
L 208.35598 200.73697 
L 208.031393 204.910707 
L 207.474092 209.084444 
L 206.681033 213.258182 
L 205.631545 217.431919 
L 204.334017 221.605657 
L 202.436061 226.558181 
L 200.908327 229.953131 
L 199.870539 232.04 
L 199.870539 232.04 
" style="fill:none;stroke:#6e90f2;"/>
   </g>
   <g id="LineCollection_9">
    <path clip-path="url(#p517170816c)" d="M 42.54 114.03377 
L 46.861515 111.668221 
L 51.18303 109.550738 
L 55.504545 107.661341 
L 59.826061 105.982142 
L 64.147576 104.497075 
L 68.469091 103.204388 
L 72.790606 102.087138 
L 77.112121 101.139991 
L 81.433636 100.354311 
L 85.755152 99.733734 
L 90.076667 99.2646 
L 94.398182 98.946146 
L 98.719697 98.777618 
L 103.041212 98.758263 
L 109.523485 99.007303 
L 116.005758 99.587811 
L 122.48803 100.497315 
L 126.809545 101.301433 
L 133.291818 102.789569 
L 139.774091 104.64597 
L 144.095606 106.100713 
L 148.417121 107.730052 
L 152.738636 109.545885 
L 157.060152 111.561216 
L 161.381667 113.790289 
L 165.703182 116.248733 
L 170.621832 119.349091 
L 174.346212 121.938185 
L 179.139994 125.609697 
L 182.989242 128.877872 
L 186.22484 131.870303 
L 189.471515 135.139623 
L 192.21148 138.130909 
L 195.953788 142.637127 
L 198.813467 146.478384 
L 201.609609 150.652121 
L 204.107182 154.825859 
L 206.3235 158.999596 
L 208.27456 163.173333 
L 209.975172 167.347071 
L 211.439062 171.520808 
L 212.667641 175.694545 
L 213.673142 179.868283 
L 214.45599 184.04202 
L 215.026329 188.215758 
L 215.400606 192.76615 
L 215.522271 196.563232 
L 215.400606 201.612199 
L 215.158615 204.910707 
L 214.648343 209.084444 
L 213.918273 213.258182 
L 212.961542 217.431919 
L 211.763907 221.605657 
L 210.322348 225.779394 
L 208.625588 229.953131 
L 207.671699 232.04 
L 207.671699 232.04 
" style="fill:none;stroke:#7699f6;"/>
   </g>
   <g id="LineCollection_10">
    <path clip-path="url(#p517170816c)" d="M 42.54 107.098118 
L 47.275291 104.74101 
L 51.988671 102.654141 
L 57.344231 100.567273 
L 61.986818 98.993325 
L 66.308333 97.709379 
L 71.463774 96.393535 
L 77.112121 95.214532 
L 83.594394 94.17692 
L 90.076667 93.478155 
L 96.558939 93.096833 
L 103.041212 93.03072 
L 109.523485 93.277599 
L 116.005758 93.835279 
L 122.48803 94.709951 
L 128.970303 95.907498 
L 133.291818 96.889033 
L 139.774091 98.643429 
L 146.256364 100.757119 
L 151.27498 102.654141 
L 157.060152 105.13629 
L 161.381667 107.213236 
L 165.703182 109.495876 
L 170.024697 111.998474 
L 175.002722 115.175354 
L 178.667727 117.740021 
L 183.488425 121.43596 
L 187.310758 124.664879 
L 190.620784 127.696566 
L 193.79303 130.842778 
L 196.701606 133.957172 
L 200.275303 138.138266 
L 203.479883 142.304646 
L 206.757576 147.053947 
L 208.995479 150.652121 
L 211.332179 154.825859 
L 213.415461 158.999596 
L 215.400606 163.532097 
L 216.860772 167.347071 
L 218.245785 171.520808 
L 219.722121 176.947493 
L 220.372222 179.868283 
L 221.122808 184.04202 
L 221.672748 188.215758 
L 222.018429 192.389495 
L 222.161188 196.563232 
L 222.103861 200.73697 
L 221.844694 204.910707 
L 221.37532 209.084444 
L 220.698814 213.258182 
L 219.722121 217.800603 
L 218.700491 221.605657 
L 217.36669 225.779394 
L 215.400606 230.886533 
L 214.909051 232.04 
L 214.909051 232.04 
" style="fill:none;stroke:#7ea1fa;"/>
   </g>
   <g id="LineCollection_11">
    <path clip-path="url(#p517170816c)" d="M 42.54 100.695737 
L 47.354631 98.480404 
L 52.46178 96.393535 
L 57.665303 94.523949 
L 61.986818 93.164394 
L 66.308333 91.960418 
L 72.790606 90.449374 
L 77.112121 89.628467 
L 83.594394 88.663759 
L 90.076667 88.006424 
L 96.558939 87.659756 
L 103.041212 87.609552 
L 109.523485 87.853851 
L 116.005758 88.397591 
L 122.48803 89.241553 
L 128.970303 90.384913 
L 135.452576 91.844625 
L 139.774091 92.998173 
L 146.256364 95.004928 
L 150.577879 96.533503 
L 157.060152 99.142974 
L 161.381667 101.09703 
L 165.703182 103.237568 
L 170.024697 105.576614 
L 175.609822 108.914747 
L 178.812962 111.001616 
L 182.989242 113.942916 
L 187.324921 117.262222 
L 192.254082 121.43596 
L 196.702677 125.609697 
L 200.73105 129.783434 
L 204.596818 134.2129 
L 207.697146 138.130909 
L 211.079091 142.854114 
L 213.431582 146.478384 
L 215.887919 150.652121 
L 218.096762 154.825859 
L 220.070595 158.999596 
L 221.882879 163.33737 
L 223.346605 167.347071 
L 224.667768 171.520808 
L 225.785903 175.694545 
L 226.70355 179.868283 
L 227.424698 184.04202 
L 227.955807 188.215758 
L 228.295926 192.389495 
L 228.44271 196.563232 
L 228.365152 201.488389 
L 228.160713 204.910707 
L 227.727215 209.084444 
L 227.097866 213.258182 
L 226.204394 217.720313 
L 225.230086 221.605657 
L 223.983593 225.779394 
L 222.507397 229.953131 
L 221.687468 232.04 
L 221.687468 232.04 
" style="fill:none;stroke:#86a9fc;"/>
   </g>
   <g id="LineCollection_12">
    <path clip-path="url(#p517170816c)" d="M 42.54 94.72187 
L 46.861515 92.852514 
L 51.18303 91.162437 
L 55.504545 89.639851 
L 61.986818 87.658315 
L 68.723926 85.959192 
L 74.951364 84.703309 
L 81.433636 83.692494 
L 87.915909 82.986983 
L 94.398182 82.56906 
L 100.880455 82.436889 
L 107.362727 82.588652 
L 113.845 83.022544 
L 120.327273 83.736776 
L 126.809545 84.745975 
L 133.291818 86.041351 
L 139.774091 87.645919 
L 144.095606 88.889695 
L 150.577879 91.024529 
L 154.899394 92.63487 
L 159.220909 94.403242 
L 165.703182 97.379005 
L 170.024697 99.583857 
L 175.499012 102.654141 
L 178.920449 104.74101 
L 182.989242 107.413326 
L 188.001292 111.001616 
L 191.632273 113.83212 
L 195.953788 117.476687 
L 200.275303 121.468721 
L 204.596818 125.867902 
L 208.918333 130.748411 
L 211.521178 133.957172 
L 214.63566 138.130909 
L 217.561364 142.437132 
L 220.051259 146.478384 
L 222.382571 150.652121 
L 224.483699 154.825859 
L 226.365644 158.999596 
L 228.365152 164.080857 
L 229.495028 167.347071 
L 230.764096 171.520808 
L 231.834672 175.694545 
L 232.722829 179.868283 
L 233.417024 184.04202 
L 233.93072 188.215758 
L 234.263059 192.389495 
L 234.413176 196.563232 
L 234.380202 200.73697 
L 234.163262 204.910707 
L 233.761475 209.084444 
L 233.173954 213.258182 
L 232.394825 217.431919 
L 231.416416 221.605657 
L 230.241283 225.779394 
L 228.365152 231.283352 
L 228.081712 232.04 
L 228.081712 232.04 
" style="fill:none;stroke:#8fb1fe;"/>
   </g>
   <g id="LineCollection_13">
    <path clip-path="url(#p517170816c)" d="M 42.54 89.097513 
L 46.861515 87.336256 
L 51.18303 85.739166 
L 57.665303 83.642012 
L 64.147576 81.877097 
L 68.469091 80.881458 
L 74.951364 79.631281 
L 81.433636 78.683276 
L 87.915909 78.013914 
L 94.701218 77.611717 
L 100.880455 77.506193 
L 107.362727 77.660594 
L 113.845 78.08878 
L 120.327273 78.787167 
L 126.809545 79.755128 
L 133.291818 81.011669 
L 139.774091 82.552353 
L 146.256364 84.390486 
L 152.738636 86.541383 
L 159.220909 89.021426 
L 163.542424 90.866513 
L 167.863939 92.874789 
L 172.185455 95.055677 
L 176.50697 97.41934 
L 181.779464 100.567273 
L 185.15 102.741728 
L 190.955498 106.827879 
L 193.79303 108.986656 
L 198.782358 113.088485 
L 203.401428 117.262222 
L 207.614425 121.43596 
L 211.467211 125.609697 
L 215.400606 130.295149 
L 218.215811 133.957172 
L 221.16604 138.130909 
L 224.043636 142.6016 
L 226.316344 146.478384 
L 228.541081 150.652121 
L 230.550618 154.825859 
L 232.686667 159.846311 
L 233.947785 163.173333 
L 235.35607 167.347071 
L 237.008182 173.181513 
L 237.609576 175.694545 
L 238.463757 179.868283 
L 239.168939 184.230911 
L 239.642052 188.215758 
L 239.966964 192.389495 
L 240.118444 196.563232 
L 240.095704 200.73697 
L 239.89795 204.910707 
L 239.524387 209.084444 
L 238.971002 213.258182 
L 238.23139 217.431919 
L 237.008182 222.799759 
L 236.194198 225.779394 
L 234.847424 230.066448 
L 234.151148 232.04 
L 234.151148 232.04 
" style="fill:none;stroke:#97b8ff;"/>
   </g>
   <g id="LineCollection_14">
    <path clip-path="url(#p517170816c)" d="M 42.54 83.761958 
L 49.022273 81.322707 
L 55.504545 79.222856 
L 61.986818 77.441868 
L 68.469091 75.968721 
L 74.951364 74.785793 
L 81.433636 73.880989 
L 87.915909 73.248165 
L 94.398182 72.885406 
L 100.880455 72.783478 
L 107.362727 72.940864 
L 113.845 73.356056 
L 120.327273 74.037877 
L 126.809545 74.980367 
L 133.291818 76.192198 
L 139.774091 77.675483 
L 146.256364 79.448047 
L 150.577879 80.795132 
L 157.060152 83.067224 
L 161.381667 84.760114 
L 165.703182 86.601466 
L 170.024697 88.599356 
L 174.346212 90.762454 
L 178.667727 93.100084 
L 184.248992 96.393535 
L 189.471515 99.783915 
L 193.79303 102.831292 
L 198.986264 106.827879 
L 203.928837 111.001616 
L 206.757576 113.574951 
L 211.079091 117.799462 
L 215.400606 122.431248 
L 218.141453 125.609697 
L 221.882879 130.314992 
L 224.54337 133.957172 
L 227.352329 138.130909 
L 230.525909 143.340002 
L 232.686667 147.26146 
L 234.847424 151.576241 
L 237.008182 156.39907 
L 238.064051 158.999596 
L 239.607124 163.173333 
L 241.329697 168.58532 
L 242.140352 171.520808 
L 243.490455 177.345445 
L 243.971287 179.868283 
L 244.627919 184.04202 
L 245.117995 188.215758 
L 245.440782 192.389495 
L 245.595547 196.563232 
L 245.581549 200.73697 
L 245.398046 204.910707 
L 245.04429 209.084444 
L 244.519527 213.258182 
L 243.490455 219.112869 
L 242.945367 221.605657 
L 241.886308 225.779394 
L 240.639261 229.953131 
L 239.943504 232.04 
L 239.943504 232.04 
" style="fill:none;stroke:#9fbfff;"/>
   </g>
   <g id="LineCollection_15">
    <path clip-path="url(#p517170816c)" d="M 42.54 78.687411 
L 46.861515 77.100353 
L 53.343788 74.994138 
L 59.826061 73.196077 
L 66.308333 71.694407 
L 72.790606 70.475515 
L 79.272879 69.523827 
L 85.755152 68.839201 
L 92.237424 68.41288 
L 98.719697 68.239067 
L 105.20197 68.316341 
L 111.684242 68.643292 
L 118.566821 69.264242 
L 124.648788 70.053742 
L 131.131061 71.13933 
L 137.613333 72.492288 
L 144.095606 74.11127 
L 150.577879 76.008772 
L 157.060152 78.198086 
L 163.542424 80.693363 
L 170.024697 83.509684 
L 175.102571 85.959192 
L 180.828485 88.994057 
L 186.361483 92.219798 
L 191.632273 95.588798 
L 195.953788 98.580149 
L 201.353707 102.654141 
L 206.404974 106.827879 
L 208.918333 109.052324 
L 213.239848 113.135219 
L 217.561364 117.589058 
L 221.882879 122.473476 
L 224.451997 125.609697 
L 228.365152 130.802963 
L 230.559426 133.957172 
L 233.245836 138.130909 
L 235.7114 142.304646 
L 237.965776 146.478384 
L 240.018067 150.652121 
L 241.87686 154.825859 
L 243.550262 158.999596 
L 245.651212 165.053868 
L 246.34919 167.347071 
L 247.81197 172.832712 
L 248.461441 175.694545 
L 249.26664 179.868283 
L 249.972727 184.535002 
L 250.387454 188.215758 
L 250.703178 192.389495 
L 250.858378 196.563232 
L 250.852379 200.73697 
L 250.684504 204.910707 
L 250.354069 209.084444 
L 249.858679 213.258182 
L 249.191034 217.431919 
L 248.356217 221.605657 
L 247.346389 225.779394 
L 245.651212 231.553994 
L 245.495168 232.04 
L 245.495168 232.04 
" style="fill:none;stroke:#a7c5fe;"/>
   </g>
   <g id="LineCollection_16">
    <path clip-path="url(#p517170816c)" d="M 42.54 73.826977 
L 46.861515 72.314182 
L 53.343788 70.300421 
L 59.826061 68.58091 
L 66.308333 67.139346 
L 72.790606 65.975026 
L 79.272879 65.063633 
L 85.755152 64.413604 
L 92.237424 64.009169 
L 98.719697 63.84899 
L 105.20197 63.931735 
L 111.684242 64.256085 
L 118.166515 64.820729 
L 124.648788 65.633083 
L 131.131061 66.691377 
L 137.613333 68.003312 
L 144.095606 69.571117 
L 150.577879 71.406402 
L 157.060152 73.521492 
L 163.542424 75.929477 
L 170.024697 78.64428 
L 176.50697 81.680718 
L 180.828485 83.900646 
L 187.310758 87.547665 
L 191.632273 90.197867 
L 197.77172 94.306667 
L 202.436061 97.720512 
L 206.757576 101.128614 
L 211.079091 104.798321 
L 215.552928 108.914747 
L 219.735694 113.088485 
L 224.043636 117.775077 
L 227.154794 121.43596 
L 230.525909 125.707149 
L 233.49087 129.783434 
L 237.008182 135.073201 
L 239.168939 138.617131 
L 241.329697 142.436364 
L 243.490455 146.597608 
L 245.651212 151.191018 
L 247.81197 156.341486 
L 249.565425 161.086465 
L 250.921437 165.260202 
L 252.133485 169.504759 
L 253.137314 173.607677 
L 254.294242 179.398182 
L 254.708476 181.955152 
L 255.254595 186.128889 
L 255.645782 190.302626 
L 255.881405 194.476364 
L 255.960831 198.650101 
L 255.883421 202.823838 
L 255.648534 206.997576 
L 255.255527 211.171313 
L 254.703749 215.345051 
L 253.988083 219.518788 
L 253.10388 223.692525 
L 252.055358 227.866263 
L 250.82587 232.04 
L 250.82587 232.04 
" style="fill:none;stroke:#afcafc;"/>
   </g>
   <g id="LineCollection_17">
    <path clip-path="url(#p517170816c)" d="M 256.455 230.385163 
L 255.968489 232.04 
" style="fill:none;stroke:#b7cff9;"/>
    <path clip-path="url(#p517170816c)" d="M 42.54 69.160233 
L 49.022273 67.033175 
L 55.918748 65.090505 
L 61.986818 63.641089 
L 68.469091 62.348223 
L 74.951364 61.310728 
L 81.433636 60.523324 
L 87.915909 59.98076 
L 94.398182 59.675558 
L 100.880455 59.606465 
L 107.362727 59.772235 
L 113.845 60.171634 
L 121.261535 60.916768 
L 126.809545 61.678261 
L 133.291818 62.788435 
L 139.774091 64.148958 
L 146.256364 65.758289 
L 152.738636 67.627341 
L 159.220909 69.76767 
L 165.703182 72.191533 
L 172.185455 74.911932 
L 177.980901 77.611717 
L 182.989242 80.16192 
L 189.471515 83.779964 
L 193.79303 86.411635 
L 199.44377 90.132929 
L 204.596818 93.831074 
L 208.918333 97.181517 
L 213.239848 100.777071 
L 217.656958 104.74101 
L 221.956787 108.914747 
L 226.204394 113.388311 
L 230.525909 118.35401 
L 233.021658 121.43596 
L 237.008182 126.76467 
L 239.168939 129.880751 
L 241.802584 133.957172 
L 244.29288 138.130909 
L 246.58436 142.304646 
L 248.685069 146.478384 
L 250.602628 150.652121 
L 252.344255 154.825859 
L 254.294242 160.100391 
L 255.950683 165.260202 
L 256.455 167.008172 
L 256.455 167.008172 
" style="fill:none;stroke:#b7cff9;"/>
   </g>
   <g id="LineCollection_18">
    <path clip-path="url(#p517170816c)" d="M 42.54 64.669572 
L 49.022273 62.624473 
L 55.504545 60.856409 
L 61.986818 59.35922 
L 68.469091 58.115758 
L 74.951364 57.117883 
L 81.433636 56.36201 
L 87.915909 55.843114 
L 94.398182 55.554275 
L 100.880455 55.494315 
L 107.362727 55.662064 
L 113.845 56.05636 
L 120.891391 56.74303 
L 126.809545 57.531888 
L 133.291818 58.61523 
L 139.774091 59.940843 
L 146.256364 61.506469 
L 152.738636 63.322296 
L 159.220909 65.3991 
L 165.703182 67.748282 
L 172.185455 70.38192 
L 178.667727 73.312813 
L 183.142798 75.524848 
L 189.471515 78.934065 
L 194.334061 81.785455 
L 200.275303 85.573279 
L 204.596818 88.555284 
L 209.538854 92.219798 
L 214.730616 96.393535 
L 219.516995 100.567273 
L 223.939313 104.74101 
L 228.033456 108.914747 
L 231.830746 113.088485 
L 235.358643 117.262222 
L 239.168939 122.152045 
L 241.67244 125.609697 
L 244.48761 129.783434 
L 247.81197 135.166052 
L 250.636651 140.217778 
L 252.762787 144.391515 
L 254.710462 148.565253 
L 256.455 152.662347 
L 256.455 152.662347 
" style="fill:none;stroke:#bfd3f6;"/>
   </g>
   <g id="LineCollection_19">
    <path clip-path="url(#p517170816c)" d="M 42.54 60.331981 
L 49.022273 58.361051 
L 55.504545 56.656099 
L 61.986818 55.212113 
L 68.469091 54.012811 
L 74.951364 53.051947 
L 81.433636 52.323646 
L 87.915909 51.826813 
L 94.398182 51.553169 
L 100.880455 51.501605 
L 107.362727 51.671018 
L 113.845 52.060315 
L 120.327273 52.669884 
L 126.809545 53.507966 
L 133.777817 54.656162 
L 139.774091 55.860321 
L 146.256364 57.386632 
L 152.738636 59.154334 
L 159.220909 61.173499 
L 165.703182 63.454762 
L 172.185455 66.009371 
L 178.667727 68.849224 
L 183.87117 71.351111 
L 189.471515 74.277264 
L 195.328767 77.611717 
L 200.275303 80.667048 
L 205.104795 83.872323 
L 211.079091 88.174908 
L 216.231264 92.219798 
L 221.145089 96.393535 
L 225.693319 100.567273 
L 229.911326 104.74101 
L 233.830062 108.914747 
L 237.476729 113.088485 
L 241.329697 117.856072 
L 244.022712 121.43596 
L 247.81197 126.891978 
L 250.963597 131.870303 
L 254.294242 137.683068 
L 256.455 141.836129 
L 256.455 141.836129 
" style="fill:none;stroke:#c6d6f1;"/>
   </g>
   <g id="LineCollection_20">
    <path clip-path="url(#p517170816c)" d="M 42.54 56.133292 
L 49.022273 54.229686 
L 55.560054 52.569293 
L 61.986818 51.187727 
L 68.469091 50.027997 
L 74.951364 49.101785 
L 81.457951 48.395556 
L 87.915909 47.921396 
L 94.398182 47.661896 
L 100.880455 47.61807 
L 107.362727 47.788878 
L 113.845 48.173286 
L 120.327273 48.775688 
L 126.809545 49.59589 
L 133.291818 50.631783 
L 139.774091 51.896216 
L 146.256364 53.387066 
L 152.738636 55.111129 
L 159.220909 57.077837 
L 165.703182 59.297141 
L 172.185455 61.779539 
L 178.667727 64.536122 
L 185.15 67.585158 
L 191.632273 70.946811 
L 196.069564 73.43798 
L 202.436061 77.310004 
L 206.757576 80.149743 
L 212.038939 83.872323 
L 217.561364 88.08551 
L 222.556432 92.219798 
L 227.232937 96.393535 
L 231.577096 100.567273 
L 235.61951 104.74101 
L 239.387138 108.914747 
L 243.490455 113.828723 
L 246.166446 117.262222 
L 249.972727 122.524844 
L 253.394941 127.696566 
L 256.455 132.761979 
L 256.455 132.761979 
" style="fill:none;stroke:#cdd9ec;"/>
   </g>
   <g id="LineCollection_21">
    <path clip-path="url(#p517170816c)" d="M 42.54 52.06103 
L 49.022273 50.218714 
L 56.540801 48.395556 
L 61.986818 47.275413 
L 68.469091 46.151228 
L 74.951364 45.257527 
L 81.433636 44.579493 
L 87.915909 44.117571 
L 94.398182 43.871268 
L 100.880455 43.834592 
L 107.362727 44.006559 
L 113.845 44.388509 
L 120.327273 44.983079 
L 126.809545 45.786244 
L 133.291818 46.803957 
L 139.774091 48.038621 
L 146.256364 49.497405 
L 152.738636 51.181787 
L 159.220909 53.100624 
L 165.703182 55.263239 
L 172.185455 57.679461 
L 178.667727 60.359651 
L 185.15 63.31966 
L 191.632273 66.579776 
L 196.552356 69.264242 
L 202.436061 72.733382 
L 206.84508 75.524848 
L 213.239848 79.90349 
L 218.567067 83.872323 
L 224.043636 88.285203 
L 228.570012 92.219798 
L 233.042119 96.393535 
L 237.209986 100.567273 
L 241.329697 105.001267 
L 245.651212 110.031214 
L 248.113621 113.088485 
L 252.133485 118.446801 
L 255.628515 123.522828 
L 256.455 124.791439 
L 256.455 124.791439 
" style="fill:none;stroke:#d4dbe6;"/>
   </g>
   <g id="LineCollection_22">
    <path clip-path="url(#p517170816c)" d="M 42.54 48.104173 
L 49.058874 46.308687 
L 55.504545 44.776986 
L 61.986818 43.465721 
L 68.469091 42.376883 
L 74.951364 41.510393 
L 81.433636 40.856874 
L 87.915909 40.412002 
L 94.398182 40.174812 
L 100.880455 40.144341 
L 107.362727 40.319636 
L 113.845 40.699746 
L 120.327273 41.283727 
L 127.261621 42.134949 
L 133.291818 43.072333 
L 139.774091 44.279516 
L 146.256364 45.708441 
L 152.738636 47.356651 
L 159.220909 49.231681 
L 165.703182 51.342291 
L 172.185455 53.697699 
L 178.667727 56.307609 
L 185.15 59.187641 
L 191.632273 62.354367 
L 196.792647 65.090505 
L 202.436061 68.318468 
L 207.368164 71.351111 
L 213.64706 75.524848 
L 219.722121 79.926655 
L 224.752648 83.872323 
L 229.70191 88.046061 
L 234.308314 92.219798 
L 238.60284 96.393535 
L 242.612842 100.567273 
L 246.362567 104.74101 
L 249.972727 109.0392 
L 254.294242 114.614205 
L 256.455 117.597923 
L 256.455 117.597923 
" style="fill:none;stroke:#dadce0;"/>
   </g>
   <g id="LineCollection_23">
    <path clip-path="url(#p517170816c)" d="M 42.54 44.253387 
L 49.022273 42.523174 
L 55.504545 41.025661 
L 61.986818 39.750233 
L 68.469091 38.696817 
L 74.951364 37.852549 
L 81.433636 37.222093 
L 87.915909 36.794622 
L 94.398182 36.569221 
L 100.880455 36.544978 
L 107.362727 36.720991 
L 113.845 37.096358 
L 120.327273 37.670187 
L 126.809545 38.448056 
L 133.291818 39.42915 
L 139.774091 40.616272 
L 146.777681 42.134949 
L 152.738636 43.627121 
L 159.220909 45.461966 
L 165.703182 47.524745 
L 172.185455 49.824121 
L 179.149056 52.569293 
L 185.15 55.177201 
L 191.632273 58.257788 
L 198.114545 61.629873 
L 204.596818 65.311496 
L 211.079091 69.331519 
L 217.561364 73.722504 
L 222.859355 77.611717 
L 228.365152 81.9656 
L 233.057361 85.959192 
L 237.63584 90.132929 
L 241.91384 94.306667 
L 245.916913 98.480404 
L 249.972727 103.012351 
L 254.294242 108.223876 
L 256.455 110.991774 
L 256.455 110.991774 
" style="fill:none;stroke:#dfdbd9;"/>
   </g>
   <g id="LineCollection_24">
    <path clip-path="url(#p517170816c)" d="M 42.54 40.504907 
L 49.022273 38.822088 
L 55.504545 37.364259 
L 61.986818 36.124762 
L 68.469091 35.101422 
L 74.951364 34.283473 
L 81.433636 33.66826 
L 87.915909 33.257162 
L 94.398182 33.042818 
L 100.880455 33.024364 
L 107.362727 33.200942 
L 113.845 33.571699 
L 120.327273 34.14036 
L 126.809545 34.906847 
L 133.332732 35.874343 
L 139.774091 37.036545 
L 146.256364 38.40653 
L 152.97573 40.048081 
L 160.401042 42.134949 
L 166.964642 44.221818 
L 172.888336 46.308687 
L 178.667727 48.536837 
L 185.15 51.27781 
L 191.632273 54.278736 
L 198.114545 57.561999 
L 204.596818 61.140031 
L 211.158961 65.090505 
L 217.561364 69.290136 
L 224.043636 73.925858 
L 228.824664 77.611717 
L 233.879698 81.785455 
L 239.168939 86.485733 
L 243.490455 90.609303 
L 247.81197 95.020406 
L 252.133485 99.75404 
L 256.455 104.853596 
L 256.455 104.853596 
" style="fill:none;stroke:#e5d8d1;"/>
   </g>
   <g id="LineCollection_25">
    <path clip-path="url(#p517170816c)" d="M 42.54 36.846468 
L 49.022273 35.207176 
L 55.504545 33.785683 
L 61.986818 32.584019 
L 68.469091 31.584125 
L 74.951364 30.792425 
L 81.433636 30.196613 
L 87.915909 29.795839 
L 94.398182 29.589568 
L 100.880455 29.576504 
L 107.362727 29.755309 
L 113.845 30.126276 
L 120.327273 30.688099 
L 126.809545 31.439957 
L 133.291818 32.389825 
L 141.067461 33.787475 
L 146.256364 34.881984 
L 152.738636 36.432251 
L 159.220909 38.19186 
L 165.703182 40.16835 
L 172.185455 42.369626 
L 178.667727 44.803981 
L 185.15 47.480123 
L 191.790736 50.482424 
L 198.114545 53.609784 
L 204.596818 57.093722 
L 211.132494 60.916768 
L 217.685 65.090505 
L 224.043636 69.494987 
L 229.3167 73.43798 
L 234.847424 77.880983 
L 239.382051 81.785455 
L 243.923923 85.959192 
L 248.180939 90.132929 
L 252.176258 94.306667 
L 256.455 99.095386 
L 256.455 99.095386 
" style="fill:none;stroke:#ead4c8;"/>
   </g>
   <g id="LineCollection_26">
    <path clip-path="url(#p517170816c)" d="M 42.54 33.270946 
L 49.022273 31.671718 
L 55.504545 30.292261 
L 61.986818 29.117689 
L 68.469091 28.146833 
L 74.951364 27.372136 
L 81.433636 26.79615 
L 87.915909 26.410245 
L 94.398182 26.213618 
L 100.880455 26.205469 
L 107.362727 26.385004 
L 113.845 26.751433 
L 120.327273 27.303969 
L 126.809545 28.048327 
L 133.291818 28.982349 
L 139.774091 30.108651 
L 147.466073 31.700606 
L 152.738636 32.955249 
L 159.220909 34.683209 
L 165.703182 36.621599 
L 172.185455 38.777885 
L 178.667727 41.159888 
L 185.15 43.775812 
L 191.632273 46.638818 
L 198.114545 49.763388 
L 204.596818 53.161625 
L 211.079091 56.851807 
L 217.648866 60.916768 
L 224.043636 65.213034 
L 230.525909 69.944713 
L 234.989367 73.43798 
L 239.988699 77.611717 
L 244.669247 81.785455 
L 249.057614 85.959192 
L 253.177523 90.132929 
L 256.455 93.649261 
L 256.455 93.649261 
" style="fill:none;stroke:#efcfbf;"/>
   </g>
   <g id="LineCollection_27">
    <path clip-path="url(#p517170816c)" d="M 42.54 29.774005 
L 43.173138 29.613737 
L 44.700758 29.232201 
L 46.861515 28.714375 
L 49.022273 28.218436 
L 51.18303 27.744352 
L 52.221842 27.526869 
L 53.343788 27.295065 
L 55.504545 26.870043 
L 57.665303 26.466502 
L 59.826061 26.084411 
L 61.986818 25.72374 
L 63.793715 25.44 
" style="fill:none;stroke:#f2cab5;"/>
    <path clip-path="url(#p517170816c)" d="M 131.965117 25.44 
L 133.291818 25.642262 
L 135.452576 25.992156 
L 137.613333 26.362441 
L 139.774091 26.753086 
L 141.934848 27.164065 
L 143.752389 27.526869 
L 144.095606 27.596208 
L 146.256364 28.053438 
L 148.417121 28.531165 
L 150.577879 29.02936 
L 152.738636 29.547994 
L 153.002059 29.613737 
L 154.899394 30.093048 
L 157.060152 30.65957 
L 159.220909 31.246696 
L 160.834648 31.700606 
L 161.381667 31.856372 
L 163.542424 32.492682 
L 165.703182 33.149763 
L 167.736016 33.787475 
L 167.863939 33.828107 
L 170.024697 34.53571 
L 172.185455 35.264256 
L 173.944238 35.874343 
L 174.346212 36.015544 
L 176.50697 36.795998 
L 178.667727 37.597567 
L 179.622608 37.961212 
L 180.828485 38.426321 
L 182.989242 39.281234 
L 184.880209 40.048081 
L 185.15 40.158907 
L 187.310758 41.06844 
L 189.471515 41.999472 
L 189.778715 42.134949 
L 191.632273 42.963101 
L 193.79303 43.95029 
L 194.374363 44.221818 
L 195.953788 44.969332 
L 198.114545 46.014053 
L 198.711193 46.308687 
L 200.275303 47.09146 
L 202.436061 48.195139 
L 202.820557 48.395556 
L 204.596818 49.334039 
L 206.728359 50.482424 
L 206.757576 50.498383 
L 208.918333 51.701866 
L 210.44677 52.569293 
L 211.079091 52.933176 
L 213.239848 54.199995 
L 214.003862 54.656162 
L 215.400606 55.501949 
L 217.414093 56.74303 
L 217.561364 56.835112 
L 219.722121 58.210259 
L 220.679191 58.829899 
L 221.882879 59.620587 
L 223.82315 60.916768 
L 224.043636 61.066244 
L 226.204394 62.55582 
L 226.843466 63.003636 
L 228.365152 64.085952 
L 229.755069 65.090505 
L 230.525909 65.656127 
L 232.566675 67.177374 
L 232.686667 67.268205 
L 234.847424 68.929638 
L 235.275982 69.264242 
L 237.008182 70.637965 
L 237.894004 71.351111 
L 239.168939 72.393925 
L 240.42662 73.43798 
L 241.329697 74.19984 
L 242.877544 75.524848 
L 243.490455 76.058184 
L 245.250276 77.611717 
L 245.651212 77.971597 
L 247.548121 79.698586 
L 247.81197 79.942901 
L 249.774199 81.785455 
L 249.972727 81.975113 
L 251.93146 83.872323 
L 252.133485 84.071462 
L 254.022694 85.959192 
L 254.294242 86.235411 
L 256.050541 88.046061 
L 256.455 88.470678 
" style="fill:none;stroke:#f2cab5;"/>
   </g>
   <g id="LineCollection_28">
    <path clip-path="url(#p517170816c)" d="M 42.54 26.355182 
L 44.700758 25.823905 
L 46.328222 25.44 
" style="fill:none;stroke:#f5c4ac;"/>
    <path clip-path="url(#p517170816c)" d="M 149.434598 25.44 
L 150.577879 25.701093 
L 152.738636 26.214846 
L 154.899394 26.748761 
L 157.060152 27.302811 
L 157.903126 27.526869 
L 159.220909 27.881351 
L 161.381667 28.483022 
L 163.542424 29.104987 
L 165.253925 29.613737 
L 165.703182 29.748909 
L 167.863939 30.419763 
L 170.024697 31.111073 
L 171.814308 31.700606 
L 172.185455 31.824377 
L 174.346212 32.565887 
L 176.50697 33.328018 
L 177.77508 33.787475 
L 178.667727 34.114929 
L 180.828485 34.928616 
L 182.989242 35.76309 
L 183.270207 35.874343 
L 185.15 36.628075 
L 187.310758 37.515507 
L 188.370678 37.961212 
L 189.471515 38.430036 
L 191.632273 39.371674 
L 193.150071 40.048081 
L 193.79303 40.338321 
L 195.953788 41.335459 
L 197.649723 42.134949 
L 198.114545 42.356943 
L 200.275303 43.410921 
L 201.904166 44.221818 
L 202.436061 44.490123 
L 204.596818 45.602328 
L 205.942474 46.308687 
L 206.757576 46.742295 
L 208.918333 47.91417 
L 209.789299 48.395556 
L 211.079091 49.118129 
L 213.239848 50.351167 
L 213.465681 50.482424 
L 215.400606 51.62254 
L 216.979154 52.569293 
L 217.561364 52.923362 
L 219.722121 54.26071 
L 220.350134 54.656162 
L 221.882879 55.634989 
L 223.589039 56.74303 
L 224.043636 57.042506 
L 226.204394 58.489865 
L 226.703789 58.829899 
L 228.365152 59.977593 
L 229.703104 60.916768 
L 230.525909 61.502878 
L 232.599838 63.003636 
L 232.686667 63.067412 
L 234.847424 64.679497 
L 235.389971 65.090505 
L 237.008182 66.335061 
L 238.087061 67.177374 
L 239.168939 68.035094 
L 240.696547 69.264242 
L 241.329697 69.781694 
L 243.222232 71.351111 
L 243.490455 71.57709 
L 245.651212 73.423894 
L 245.667459 73.43798 
L 247.81197 75.327311 
L 248.03308 75.524848 
L 249.972727 77.286269 
L 250.326206 77.611717 
L 252.133485 79.30356 
L 252.549772 79.698586 
L 254.294242 81.382168 
L 254.706554 81.785455 
L 256.455 83.525279 
" style="fill:none;stroke:#f5c4ac;"/>
   </g>
   <g id="LineCollection_29">
    <path clip-path="url(#p517170816c)" d="M 162.331546 25.44 
L 163.542424 25.785028 
L 165.703182 26.420861 
L 167.863939 27.076687 
L 169.303116 27.526869 
L 170.024697 27.755298 
L 172.185455 28.459716 
L 174.346212 29.184284 
L 175.592046 29.613737 
L 176.50697 29.932958 
L 178.667727 30.707401 
L 180.828485 31.502154 
L 181.354419 31.700606 
L 182.989242 32.325068 
L 185.15 33.17102 
L 186.68715 33.787475 
L 187.310758 34.040678 
L 189.471515 34.939007 
L 191.632273 35.858003 
L 191.669831 35.874343 
L 193.79303 36.809714 
L 195.953788 37.782502 
L 196.342261 37.961212 
L 198.114545 38.786915 
L 200.275303 39.81476 
L 200.755774 40.048081 
L 202.436061 40.874573 
L 204.596818 41.958785 
L 204.941012 42.134949 
L 206.757576 43.07685 
L 208.918333 44.218785 
L 208.923963 44.221818 
L 211.079091 45.398119 
L 212.717029 46.308687 
L 213.239848 46.603232 
L 215.400606 47.842979 
L 216.346693 48.395556 
L 217.561364 49.114641 
L 219.722121 50.416269 
L 219.830052 50.482424 
L 221.882879 51.758009 
L 223.166771 52.569293 
L 224.043636 53.131113 
L 226.204394 54.538643 
L 226.381861 54.656162 
L 228.365152 55.988082 
L 229.471501 56.74303 
L 230.525909 57.47286 
L 232.455901 58.829899 
L 232.686667 58.99452 
L 234.847424 60.56017 
L 235.332102 60.916768 
L 237.008182 62.168139 
L 238.110587 63.003636 
L 239.168939 63.817767 
L 240.799208 65.090505 
L 241.329697 65.510956 
L 243.401858 67.177374 
L 243.490455 67.249723 
L 245.651212 69.039874 
L 245.918223 69.264242 
L 247.81197 70.880511 
L 248.355729 71.351111 
L 249.972727 72.772851 
L 250.718875 73.43798 
L 252.133485 74.719404 
L 253.010667 75.524848 
L 254.294242 76.722848 
L 255.233948 77.611717 
L 256.455 78.786038 
" style="fill:none;stroke:#f6bda2;"/>
   </g>
   <g id="LineCollection_30">
    <path clip-path="url(#p517170816c)" d="M 173.047361 25.44 
L 174.346212 25.871012 
L 176.50697 26.608054 
L 178.667727 27.36495 
L 179.118003 27.526869 
L 180.828485 28.149337 
L 182.989242 28.955779 
L 184.709311 29.613737 
L 185.15 29.784355 
L 187.310758 30.641456 
L 189.471515 31.518751 
L 189.909191 31.700606 
L 191.632273 32.425339 
L 193.79303 33.35463 
L 194.77764 33.787475 
L 195.953788 34.310945 
L 198.114545 35.293424 
L 199.365732 35.874343 
L 200.275303 36.301963 
L 202.436061 37.338864 
L 203.707261 37.961212 
L 204.596818 38.40226 
L 206.757576 39.49486 
L 207.830804 40.048081 
L 208.918333 40.615898 
L 211.079091 41.765517 
L 211.760682 42.134949 
L 213.239848 42.947139 
L 215.400606 44.155149 
L 215.51773 44.221818 
L 217.561364 45.400464 
L 219.109031 46.308687 
L 219.722121 46.673286 
L 221.882879 47.980585 
L 222.557268 48.395556 
L 224.043636 49.322567 
L 225.872958 50.482424 
L 226.204394 50.695457 
L 228.365152 52.107238 
L 229.061097 52.569293 
L 230.525909 53.555369 
L 232.135678 54.656162 
L 232.686667 55.038263 
L 234.847424 56.560139 
L 235.10314 56.74303 
L 237.008182 58.125057 
L 237.965326 58.829899 
L 239.168939 59.729124 
L 240.735323 60.916768 
L 241.329697 61.374073 
L 243.417125 63.003636 
L 243.490455 63.061738 
L 245.651212 64.798676 
L 246.009152 65.090505 
L 247.81197 66.582667 
L 248.520558 67.177374 
L 249.972727 68.414955 
L 250.955688 69.264242 
L 252.133485 70.297811 
L 253.317621 71.351111 
L 254.294242 72.233649 
L 255.609272 73.43798 
L 256.455 74.22504 
" style="fill:none;stroke:#f7b599;"/>
   </g>
   <g id="LineCollection_31">
    <path clip-path="url(#p517170816c)" d="M 182.416585 25.44 
L 182.989242 25.651429 
L 185.15 26.469235 
L 187.310758 27.306784 
L 187.865297 27.526869 
L 189.471515 28.171978 
L 191.632273 29.059834 
L 192.950511 29.613737 
L 193.79303 29.97204 
L 195.953788 30.91133 
L 197.731305 31.700606 
L 198.114545 31.872864 
L 200.275303 32.864749 
L 202.245072 33.787475 
L 202.436061 33.878052 
L 204.596818 34.923737 
L 206.523323 35.874343 
L 206.757576 35.991384 
L 208.918333 37.092113 
L 210.592798 37.961212 
L 211.079091 38.216821 
L 213.239848 39.373884 
L 214.476338 40.048081 
L 215.400606 40.558523 
L 217.561364 41.773253 
L 218.193569 42.134949 
L 219.722121 43.020856 
L 221.759296 44.221818 
L 221.882879 44.295635 
L 224.043636 45.608411 
L 225.177415 46.308687 
L 226.204394 46.951478 
L 228.365152 48.326009 
L 228.472726 48.395556 
L 230.525909 49.740905 
L 231.639978 50.482424 
L 232.686667 51.18866 
L 234.701542 52.569293 
L 234.847424 52.670646 
L 237.008182 54.195074 
L 237.652016 54.656162 
L 239.168939 55.757848 
L 240.505614 56.74303 
L 241.329697 57.359104 
L 243.268732 58.829899 
L 243.490455 59.000521 
L 245.651212 60.687384 
L 245.940908 60.916768 
L 247.81197 62.420106 
L 248.528209 63.003636 
L 249.972727 64.198094 
L 251.03727 65.090505 
L 252.133485 66.023408 
L 253.471245 67.177374 
L 254.294242 67.898236 
L 255.833119 69.264242 
L 256.455 69.824901 
" style="fill:none;stroke:#f7ad90;"/>
   </g>
   <g id="LineCollection_32">
    <path clip-path="url(#p517170816c)" d="M 190.844233 25.44 
L 191.632273 25.760286 
L 193.79303 26.658409 
L 195.837677 27.526869 
L 195.953788 27.576777 
L 198.114545 28.525779 
L 200.275303 29.494593 
L 200.535608 29.613737 
L 202.436061 30.494114 
L 204.596818 31.515126 
L 204.981672 31.700606 
L 206.757576 32.566976 
L 208.918333 33.641362 
L 209.206661 33.787475 
L 211.079091 34.748096 
L 213.234619 35.874343 
L 213.239848 35.87711 
L 215.400606 37.041386 
L 217.077896 37.961212 
L 217.561364 38.229711 
L 219.722121 39.450948 
L 220.760722 40.048081 
L 221.882879 40.701542 
L 224.043636 41.981087 
L 224.299164 42.134949 
L 226.204394 43.297075 
L 227.696151 44.221818 
L 228.365152 44.641999 
L 230.525909 46.021009 
L 230.969604 46.308687 
L 232.686667 47.436836 
L 234.123557 48.395556 
L 234.847424 48.885067 
L 237.008182 50.368658 
L 237.171392 50.482424 
L 239.168939 51.893909 
L 240.110794 52.569293 
L 241.329697 53.45549 
L 242.957374 54.656162 
L 243.490455 55.054936 
L 245.651212 56.694591 
L 245.714146 56.74303 
L 247.81197 58.380781 
L 248.379322 58.829899 
L 249.972727 60.109525 
L 250.964246 60.916768 
L 252.133485 61.882701 
L 253.472146 63.003636 
L 254.294242 63.702299 
L 255.906082 65.090505 
L 256.455 65.570427 
" style="fill:none;stroke:#f6a586;"/>
   </g>
   <g id="LineCollection_33">
    <path clip-path="url(#p517170816c)" d="M 198.571285 25.44 
L 200.275303 26.195775 
L 202.436061 27.173769 
L 203.200696 27.526869 
L 204.596818 28.179279 
L 206.757576 29.208897 
L 207.590986 29.613737 
L 208.918333 30.266301 
L 211.079091 31.348693 
L 211.768719 31.700606 
L 213.239848 32.460488 
L 215.400606 33.596842 
L 215.756662 33.787475 
L 217.561364 34.765661 
L 219.571792 35.874343 
L 219.722121 35.958282 
L 221.882879 37.185824 
L 223.225115 37.961212 
L 224.043636 38.44005 
L 226.204394 39.725176 
L 226.738527 40.048081 
L 228.365152 41.044055 
L 230.118737 42.134949 
L 230.525909 42.39154 
L 232.686667 43.774874 
L 233.374073 44.221818 
L 234.847424 45.19238 
L 236.516554 46.308687 
L 237.008182 46.64187 
L 239.168939 48.128391 
L 239.551574 48.395556 
L 241.329697 49.653852 
L 242.483742 50.482424 
L 243.490455 51.215112 
L 245.324738 52.569293 
L 245.651212 52.813662 
L 247.81197 54.454034 
L 248.074534 54.656162 
L 249.972727 56.137998 
L 250.737234 56.74303 
L 252.133485 57.863798 
L 253.320928 58.829899 
L 254.294242 59.633251 
L 255.82875 60.916768 
L 256.455 61.44828 
" style="fill:none;stroke:#f59c7d;"/>
   </g>
   <g id="LineCollection_34">
    <path clip-path="url(#p517170816c)" d="M 205.743014 25.44 
L 206.757576 25.918117 
L 208.918333 26.956099 
L 210.084409 27.526869 
L 211.079091 28.01955 
L 213.239848 29.109717 
L 214.220933 29.613737 
L 215.400606 30.22709 
L 217.561364 31.370601 
L 218.17412 31.700606 
L 219.722121 32.544468 
L 221.882879 33.742523 
L 221.962587 33.787475 
L 224.043636 34.975597 
L 225.592252 35.874343 
L 226.204394 36.234044 
L 228.365152 37.524572 
L 229.084632 37.961212 
L 230.525909 38.846964 
L 232.450079 40.048081 
L 232.686667 40.197657 
L 234.847424 41.585168 
L 235.690701 42.134949 
L 237.008182 43.005038 
L 238.823381 44.221818 
L 239.168939 44.456501 
L 241.329697 45.94584 
L 241.848524 46.308687 
L 243.490455 47.472273 
L 244.774861 48.395556 
L 245.651212 49.034011 
L 247.611586 50.482424 
L 247.81197 50.632502 
L 249.972727 52.273537 
L 250.356851 52.569293 
L 252.133485 53.956173 
L 253.018191 54.656162 
L 254.294242 55.679975 
L 255.601708 56.74303 
L 256.455 57.446702 
" style="fill:none;stroke:#f29274;"/>
   </g>
   <g id="LineCollection_35">
    <path clip-path="url(#p517170816c)" d="M 212.468822 25.44 
L 213.239848 25.82467 
L 215.400606 26.922392 
L 216.569593 27.526869 
L 217.561364 28.045813 
L 219.722121 29.196275 
L 220.492866 29.613737 
L 221.882879 30.375685 
L 224.043636 31.580056 
L 224.256343 31.700606 
L 226.204394 32.818104 
L 227.867247 33.787475 
L 228.365152 34.081312 
L 230.525909 35.377073 
L 231.342229 35.874343 
L 232.686667 36.703546 
L 234.694755 37.961212 
L 234.847424 38.058037 
L 237.008182 39.449584 
L 237.923762 40.048081 
L 239.168939 40.872445 
L 241.048171 42.134949 
L 241.329697 42.326536 
L 243.490455 43.818587 
L 244.066118 44.221818 
L 245.651212 45.346691 
L 246.987908 46.308687 
L 247.81197 46.909637 
L 249.821562 48.395556 
L 249.972727 48.508836 
L 252.133485 50.150484 
L 252.564534 50.482424 
L 254.294242 51.832617 
L 255.22554 52.569293 
L 256.455 53.555287 
" style="fill:none;stroke:#ef886b;"/>
   </g>
   <g id="LineCollection_36">
    <path clip-path="url(#p517170816c)" d="M 218.82052 25.44 
L 219.722121 25.914679 
L 221.882879 27.071891 
L 222.718261 27.526869 
L 224.043636 28.257295 
L 226.204394 29.467798 
L 226.460672 29.613737 
L 228.365152 30.711296 
L 230.054865 31.700606 
L 230.525909 31.979755 
L 232.686667 33.280587 
L 233.515752 33.787475 
L 234.847424 34.611662 
L 236.857041 35.874343 
L 237.008182 35.970493 
L 239.168939 37.365941 
L 240.077255 37.961212 
L 241.329697 38.792368 
L 243.194793 40.048081 
L 243.490455 40.249686 
L 245.651212 41.744348 
L 246.207993 42.134949 
L 247.81197 43.274761 
L 249.126411 44.221818 
L 249.972727 44.839586 
L 251.958095 46.308687 
L 252.133485 46.440193 
L 254.294242 48.082409 
L 254.700824 48.395556 
L 256.455 49.764793 
" style="fill:none;stroke:#eb7d62;"/>
   </g>
   <g id="LineCollection_37">
    <path clip-path="url(#p517170816c)" d="M 224.855284 25.44 
L 226.204394 26.187387 
L 228.365152 27.403845 
L 228.580192 27.526869 
L 230.525909 28.653225 
L 232.159548 29.613737 
L 232.686667 29.927385 
L 234.847424 31.233136 
L 235.609343 31.700606 
L 237.008182 32.569287 
L 238.940936 33.787475 
L 239.168939 33.932951 
L 241.329697 35.332174 
L 242.154932 35.874343 
L 243.490455 36.762692 
L 245.266879 37.961212 
L 245.651212 38.223784 
L 247.81197 39.720961 
L 248.277567 40.048081 
L 249.972727 41.25427 
L 251.193692 42.134949 
L 252.133485 42.821585 
L 254.024414 44.221818 
L 254.294242 44.424243 
L 256.455 46.066985 
" style="fill:none;stroke:#e67259;"/>
   </g>
   <g id="LineCollection_38">
    <path clip-path="url(#p517170816c)" d="M 230.619204 25.44 
L 232.686667 26.642046 
L 234.185439 27.526869 
L 234.847424 27.922317 
L 237.008182 29.232838 
L 237.626877 29.613737 
L 239.168939 30.5745 
L 240.950184 31.700606 
L 241.329697 31.943449 
L 243.490455 33.346325 
L 244.160307 33.787475 
L 245.651212 34.781415 
L 247.267839 35.874343 
L 247.81197 36.246782 
L 249.972727 37.746383 
L 250.278057 37.961212 
L 252.133485 39.283123 
L 253.192875 40.048081 
L 254.294242 40.85349 
L 256.023558 42.134949 
L 256.455 42.458786 
" style="fill:none;stroke:#e16751;"/>
   </g>
   <g id="LineCollection_39">
    <path clip-path="url(#p517170816c)" d="M 236.136413 25.44 
L 237.008182 25.962759 
L 239.168939 27.277909 
L 239.571981 27.526869 
L 241.329697 28.625478 
L 242.888296 29.613737 
L 243.490455 30.000124 
L 245.651212 31.406538 
L 246.096686 31.700606 
L 247.81197 32.846639 
L 249.200877 33.787475 
L 249.972727 34.316739 
L 252.133485 35.818676 
L 252.212492 35.874343 
L 254.294242 37.359338 
L 255.126908 37.961212 
L 256.455 38.93327 
" style="fill:none;stroke:#da5a49;"/>
   </g>
   <g id="LineCollection_40">
    <path clip-path="url(#p517170816c)" d="M 241.448056 25.44 
L 243.490455 26.720492 
L 244.758566 27.526869 
L 245.651212 28.10121 
L 247.81197 29.51105 
L 247.967172 29.613737 
L 249.972727 30.956563 
L 251.06901 31.700606 
L 252.133485 32.431814 
L 254.080787 33.787475 
L 254.294242 33.937899 
L 256.455 35.481039 
" style="fill:none;stroke:#d44e41;"/>
   </g>
   <g id="LineCollection_41">
    <path clip-path="url(#p517170816c)" d="M 246.564085 25.44 
L 247.81197 26.245028 
L 249.771851 27.526869 
L 249.972727 27.659803 
L 252.133485 29.10948 
L 252.875076 29.613737 
L 254.294242 30.590264 
L 255.886739 31.700606 
L 256.455 32.101612 
" style="fill:none;stroke:#cc403a;"/>
   </g>
   <g id="LineCollection_42">
    <path clip-path="url(#p517170816c)" d="M 251.513355 25.44 
L 252.133485 25.851295 
L 254.294242 27.303768 
L 254.621752 27.526869 
L 256.455 28.790431 
" style="fill:none;stroke:#c43032;"/>
   </g>
   <g id="LineCollection_43">
    <path clip-path="url(#p517170816c)" d="M 256.309594 25.44 
L 256.455 25.53907 
" style="fill:none;stroke:#bb1b2c;"/>
   </g>
   <g id="LineCollection_44"/>
   <g id="line2d_11">
    <path clip-path="url(#p517170816c)" d="M 42.54 128.74 
L 256.455 128.74 
" style="fill:none;stroke:#000000;stroke-linecap:square;stroke-width:0.5;"/>
   </g>
   <g id="line2d_12">
    <path clip-path="url(#p517170816c)" d="M 149.4975 232.04 
L 149.4975 25.44 
" style="fill:none;stroke:#000000;stroke-linecap:square;stroke-width:0.5;"/>
   </g>
   <g id="line2d_13">
    <path clip-path="url(#p517170816c)" d="M 149.4975 108.08 
L 150.388812 108.940833 
L 151.280125 109.801667 
L 152.171437 110.6625 
L 153.06275 111.523333 
L 153.954062 112.384167 
L 154.845375 113.245 
L 155.736687 114.105833 
L 156.628 114.966667 
L 157.519312 115.8275 
L 158.410625 116.688333 
L 159.301937 117.549167 
L 160.19325 118.41 
L 161.084562 119.270833 
L 161.975875 120.131667 
L 162.867187 120.9925 
L 163.7585 121.853333 
L 164.649812 122.714167 
L 165.541125 123.575 
L 166.432437 124.435833 
L 167.32375 125.296667 
L 168.215062 126.1575 
L 169.106375 127.018333 
L 169.997687 127.879167 
L 170.889 128.74 
L 149.4975 149.4 
L 150.388812 148.539167 
L 151.280125 147.678333 
L 152.171437 146.8175 
L 153.06275 145.956667 
L 153.954062 145.095833 
L 154.845375 144.235 
L 155.736687 143.374167 
L 156.628 142.513333 
L 157.519312 141.6525 
L 158.410625 140.791667 
L 159.301937 139.930833 
L 160.19325 139.07 
L 161.084562 138.209167 
L 161.975875 137.348333 
L 162.867187 136.4875 
L 163.7585 135.626667 
L 164.649812 134.765833 
L 165.541125 133.905 
L 166.432437 133.044167 
L 167.32375 132.183333 
L 168.215062 131.3225 
L 169.106375 130.461667 
L 169.997687 129.600833 
L 170.889 128.74 
L 128.106 128.74 
L 128.997312 129.600833 
L 129.888625 130.461667 
L 130.779937 131.3225 
L 131.67125 132.183333 
L 132.562562 133.044167 
L 133.453875 133.905 
L 134.345187 134.765833 
L 135.2365 135.626667 
L 136.127812 136.4875 
L 137.019125 137.348333 
L 137.910437 138.209167 
L 138.80175 139.07 
L 139.693062 139.930833 
L 140.584375 140.791667 
L 141.475687 141.6525 
L 142.367 142.513333 
L 143.258312 143.374167 
L 144.149625 144.235 
L 145.040937 145.095833 
L 145.93225 145.956667 
L 146.823562 146.8175 
L 147.714875 147.678333 
L 148.606187 148.539167 
L 149.4975 149.4 
L 128.106 128.74 
L 128.997312 127.879167 
L 129.888625 127.018333 
L 130.779937 126.1575 
L 131.67125 125.296667 
L 132.562562 124.435833 
L 133.453875 123.575 
L 134.345187 122.714167 
L 135.2365 121.853333 
L 136.127812 120.9925 
L 137.019125 120.131667 
L 137.910437 119.270833 
L 138.80175 118.41 
L 139.693062 117.549167 
L 140.584375 116.688333 
L 141.475687 115.8275 
L 142.367 114.966667 
L 143.258312 114.105833 
L 144.149625 113.245 
L 145.040937 112.384167 
L 145.93225 111.523333 
L 146.823562 110.6625 
L 147.714875 109.801667 
L 148.606187 108.940833 
L 149.4975 108.08 
" style="fill:none;stroke:#2d435d;stroke-linecap:square;stroke-width:1.5;"/>
   </g>
   <g id="patch_3">
    <path d="M 42.54 232.04 
L 42.54 25.44 
" style="fill:none;stroke:#000000;stroke-linecap:square;stroke-linejoin:miter;stroke-width:0.8;"/>
   </g>
   <g id="patch_4">
    <path d="M 256.455 232.04 
L 256.455 25.44 
" style="fill:none;stroke:#000000;stroke-linecap:square;stroke-linejoin:miter;stroke-width:0.8;"/>
   </g>
   <g id="patch_5">
    <path d="M 42.54 232.04 
L 256.455 232.04 
" style="fill:none;stroke:#000000;stroke-linecap:square;stroke-linejoin:miter;stroke-width:0.8;"/>
   </g>
   <g id="patch_6">
    <path d="M 42.54 25.44 
L 256.455 25.44 
" style="fill:none;stroke:#000000;stroke-linecap:square;stroke-linejoin:miter;stroke-width:0.8;"/>
   </g>
   <g id="text_13">
    <!-- l1 constraint w/loss function -->
    <defs>
     <path d="M 9.421875 75.984375 
L 18.40625 75.984375 
L 18.40625 0 
L 9.421875 0 
z
" id="DejaVuSans-108"/>
     <path id="DejaVuSans-32"/>
     <path d="M 48.78125 52.59375 
L 48.78125 44.1875 
Q 44.96875 46.296875 41.140625 47.34375 
Q 37.3125 48.390625 33.40625 48.390625 
Q 24.65625 48.390625 19.8125 42.84375 
Q 14.984375 37.3125 14.984375 27.296875 
Q 14.984375 17.28125 19.8125 11.734375 
Q 24.65625 6.203125 33.40625 6.203125 
Q 37.3125 6.203125 41.140625 7.25 
Q 44.96875 8.296875 48.78125 10.40625 
L 48.78125 2.09375 
Q 45.015625 0.34375 40.984375 -0.53125 
Q 36.96875 -1.421875 32.421875 -1.421875 
Q 20.0625 -1.421875 12.78125 6.34375 
Q 5.515625 14.109375 5.515625 27.296875 
Q 5.515625 40.671875 12.859375 48.328125 
Q 20.21875 56 33.015625 56 
Q 37.15625 56 41.109375 55.140625 
Q 45.0625 54.296875 48.78125 52.59375 
z
" id="DejaVuSans-99"/>
     <path d="M 30.609375 48.390625 
Q 23.390625 48.390625 19.1875 42.75 
Q 14.984375 37.109375 14.984375 27.296875 
Q 14.984375 17.484375 19.15625 11.84375 
Q 23.34375 6.203125 30.609375 6.203125 
Q 37.796875 6.203125 41.984375 11.859375 
Q 46.1875 17.53125 46.1875 27.296875 
Q 46.1875 37.015625 41.984375 42.703125 
Q 37.796875 48.390625 30.609375 48.390625 
z
M 30.609375 56 
Q 42.328125 56 49.015625 48.375 
Q 55.71875 40.765625 55.71875 27.296875 
Q 55.71875 13.875 49.015625 6.21875 
Q 42.328125 -1.421875 30.609375 -1.421875 
Q 18.84375 -1.421875 12.171875 6.21875 
Q 5.515625 13.875 5.515625 27.296875 
Q 5.515625 40.765625 12.171875 48.375 
Q 18.84375 56 30.609375 56 
z
" id="DejaVuSans-111"/>
     <path d="M 54.890625 33.015625 
L 54.890625 0 
L 45.90625 0 
L 45.90625 32.71875 
Q 45.90625 40.484375 42.875 44.328125 
Q 39.84375 48.1875 33.796875 48.1875 
Q 26.515625 48.1875 22.3125 43.546875 
Q 18.109375 38.921875 18.109375 30.90625 
L 18.109375 0 
L 9.078125 0 
L 9.078125 54.6875 
L 18.109375 54.6875 
L 18.109375 46.1875 
Q 21.34375 51.125 25.703125 53.5625 
Q 30.078125 56 35.796875 56 
Q 45.21875 56 50.046875 50.171875 
Q 54.890625 44.34375 54.890625 33.015625 
z
" id="DejaVuSans-110"/>
     <path d="M 44.28125 53.078125 
L 44.28125 44.578125 
Q 40.484375 46.53125 36.375 47.5 
Q 32.28125 48.484375 27.875 48.484375 
Q 21.1875 48.484375 17.84375 46.4375 
Q 14.5 44.390625 14.5 40.28125 
Q 14.5 37.15625 16.890625 35.375 
Q 19.28125 33.59375 26.515625 31.984375 
L 29.59375 31.296875 
Q 39.15625 29.25 43.1875 25.515625 
Q 47.21875 21.78125 47.21875 15.09375 
Q 47.21875 7.46875 41.1875 3.015625 
Q 35.15625 -1.421875 24.609375 -1.421875 
Q 20.21875 -1.421875 15.453125 -0.5625 
Q 10.6875 0.296875 5.421875 2 
L 5.421875 11.28125 
Q 10.40625 8.6875 15.234375 7.390625 
Q 20.0625 6.109375 24.8125 6.109375 
Q 31.15625 6.109375 34.5625 8.28125 
Q 37.984375 10.453125 37.984375 14.40625 
Q 37.984375 18.0625 35.515625 20.015625 
Q 33.0625 21.96875 24.703125 23.78125 
L 21.578125 24.515625 
Q 13.234375 26.265625 9.515625 29.90625 
Q 5.8125 33.546875 5.8125 39.890625 
Q 5.8125 47.609375 11.28125 51.796875 
Q 16.75 56 26.8125 56 
Q 31.78125 56 36.171875 55.265625 
Q 40.578125 54.546875 44.28125 53.078125 
z
" id="DejaVuSans-115"/>
     <path d="M 18.3125 70.21875 
L 18.3125 54.6875 
L 36.8125 54.6875 
L 36.8125 47.703125 
L 18.3125 47.703125 
L 18.3125 18.015625 
Q 18.3125 11.328125 20.140625 9.421875 
Q 21.96875 7.515625 27.59375 7.515625 
L 36.8125 7.515625 
L 36.8125 0 
L 27.59375 0 
Q 17.1875 0 13.234375 3.875 
Q 9.28125 7.765625 9.28125 18.015625 
L 9.28125 47.703125 
L 2.6875 47.703125 
L 2.6875 54.6875 
L 9.28125 54.6875 
L 9.28125 70.21875 
z
" id="DejaVuSans-116"/>
     <path d="M 41.109375 46.296875 
Q 39.59375 47.171875 37.8125 47.578125 
Q 36.03125 48 33.890625 48 
Q 26.265625 48 22.1875 43.046875 
Q 18.109375 38.09375 18.109375 28.8125 
L 18.109375 0 
L 9.078125 0 
L 9.078125 54.6875 
L 18.109375 54.6875 
L 18.109375 46.1875 
Q 20.953125 51.171875 25.484375 53.578125 
Q 30.03125 56 36.53125 56 
Q 37.453125 56 38.578125 55.875 
Q 39.703125 55.765625 41.0625 55.515625 
z
" id="DejaVuSans-114"/>
     <path d="M 34.28125 27.484375 
Q 23.390625 27.484375 19.1875 25 
Q 14.984375 22.515625 14.984375 16.5 
Q 14.984375 11.71875 18.140625 8.90625 
Q 21.296875 6.109375 26.703125 6.109375 
Q 34.1875 6.109375 38.703125 11.40625 
Q 43.21875 16.703125 43.21875 25.484375 
L 43.21875 27.484375 
z
M 52.203125 31.203125 
L 52.203125 0 
L 43.21875 0 
L 43.21875 8.296875 
Q 40.140625 3.328125 35.546875 0.953125 
Q 30.953125 -1.421875 24.3125 -1.421875 
Q 15.921875 -1.421875 10.953125 3.296875 
Q 6 8.015625 6 15.921875 
Q 6 25.140625 12.171875 29.828125 
Q 18.359375 34.515625 30.609375 34.515625 
L 43.21875 34.515625 
L 43.21875 35.40625 
Q 43.21875 41.609375 39.140625 45 
Q 35.0625 48.390625 27.6875 48.390625 
Q 23 48.390625 18.546875 47.265625 
Q 14.109375 46.140625 10.015625 43.890625 
L 10.015625 52.203125 
Q 14.9375 54.109375 19.578125 55.046875 
Q 24.21875 56 28.609375 56 
Q 40.484375 56 46.34375 49.84375 
Q 52.203125 43.703125 52.203125 31.203125 
z
" id="DejaVuSans-97"/>
     <path d="M 9.421875 54.6875 
L 18.40625 54.6875 
L 18.40625 0 
L 9.421875 0 
z
M 9.421875 75.984375 
L 18.40625 75.984375 
L 18.40625 64.59375 
L 9.421875 64.59375 
z
" id="DejaVuSans-105"/>
     <path d="M 4.203125 54.6875 
L 13.1875 54.6875 
L 24.421875 12.015625 
L 35.59375 54.6875 
L 46.1875 54.6875 
L 57.421875 12.015625 
L 68.609375 54.6875 
L 77.59375 54.6875 
L 63.28125 0 
L 52.6875 0 
L 40.921875 44.828125 
L 29.109375 0 
L 18.5 0 
z
" id="DejaVuSans-119"/>
     <path d="M 25.390625 72.90625 
L 33.6875 72.90625 
L 8.296875 -9.28125 
L 0 -9.28125 
z
" id="DejaVuSans-47"/>
     <path d="M 37.109375 75.984375 
L 37.109375 68.5 
L 28.515625 68.5 
Q 23.6875 68.5 21.796875 66.546875 
Q 19.921875 64.59375 19.921875 59.515625 
L 19.921875 54.6875 
L 34.71875 54.6875 
L 34.71875 47.703125 
L 19.921875 47.703125 
L 19.921875 0 
L 10.890625 0 
L 10.890625 47.703125 
L 2.296875 47.703125 
L 2.296875 54.6875 
L 10.890625 54.6875 
L 10.890625 58.5 
Q 10.890625 67.625 15.140625 71.796875 
Q 19.390625 75.984375 28.609375 75.984375 
z
" id="DejaVuSans-102"/>
     <path d="M 8.5 21.578125 
L 8.5 54.6875 
L 17.484375 54.6875 
L 17.484375 21.921875 
Q 17.484375 14.15625 20.5 10.265625 
Q 23.53125 6.390625 29.59375 6.390625 
Q 36.859375 6.390625 41.078125 11.03125 
Q 45.3125 15.671875 45.3125 23.6875 
L 45.3125 54.6875 
L 54.296875 54.6875 
L 54.296875 0 
L 45.3125 0 
L 45.3125 8.40625 
Q 42.046875 3.421875 37.71875 1 
Q 33.40625 -1.421875 27.6875 -1.421875 
Q 18.265625 -1.421875 13.375 4.4375 
Q 8.5 10.296875 8.5 21.578125 
z
M 31.109375 56 
z
" id="DejaVuSans-117"/>
    </defs>
    <g transform="translate(72.087578 19.44)scale(0.11 -0.11)">
     <use xlink:href="#DejaVuSans-108"/>
     <use x="27.783203" xlink:href="#DejaVuSans-49"/>
     <use x="91.40625" xlink:href="#DejaVuSans-32"/>
     <use x="123.193359" xlink:href="#DejaVuSans-99"/>
     <use x="178.173828" xlink:href="#DejaVuSans-111"/>
     <use x="239.355469" xlink:href="#DejaVuSans-110"/>
     <use x="302.734375" xlink:href="#DejaVuSans-115"/>
     <use x="354.833984" xlink:href="#DejaVuSans-116"/>
     <use x="394.042969" xlink:href="#DejaVuSans-114"/>
     <use x="435.15625" xlink:href="#DejaVuSans-97"/>
     <use x="496.435547" xlink:href="#DejaVuSans-105"/>
     <use x="524.21875" xlink:href="#DejaVuSans-110"/>
     <use x="587.597656" xlink:href="#DejaVuSans-116"/>
     <use x="626.806641" xlink:href="#DejaVuSans-32"/>
     <use x="658.59375" xlink:href="#DejaVuSans-119"/>
     <use x="740.380859" xlink:href="#DejaVuSans-47"/>
     <use x="774.072266" xlink:href="#DejaVuSans-108"/>
     <use x="801.855469" xlink:href="#DejaVuSans-111"/>
     <use x="863.037109" xlink:href="#DejaVuSans-115"/>
     <use x="915.136719" xlink:href="#DejaVuSans-115"/>
     <use x="967.236328" xlink:href="#DejaVuSans-32"/>
     <use x="999.023438" xlink:href="#DejaVuSans-102"/>
     <use x="1034.228516" xlink:href="#DejaVuSans-117"/>
     <use x="1097.607422" xlink:href="#DejaVuSans-110"/>
     <use x="1160.986328" xlink:href="#DejaVuSans-99"/>
     <use x="1215.966797" xlink:href="#DejaVuSans-116"/>
     <use x="1255.175781" xlink:href="#DejaVuSans-105"/>
     <use x="1282.958984" xlink:href="#DejaVuSans-111"/>
     <use x="1344.140625" xlink:href="#DejaVuSans-110"/>
    </g>
   </g>
  </g>
 </g>
 <defs>
  <clipPath id="p517170816c">
   <rect height="206.6" width="213.915" x="42.54" y="25.44"/>
  </clipPath>
 </defs>
</svg>
