<?xml version="1.0" encoding="utf-8" standalone="no"?>
<!DOCTYPE svg PUBLIC "-//W3C//DTD SVG 1.1//EN"
  "http://www.w3.org/Graphics/SVG/1.1/DTD/svg11.dtd">
<!-- Created with matplotlib (https://matplotlib.org/) -->
<svg height="273.6pt" version="1.1" viewBox="0 0 273.6 273.6" width="273.6pt" xmlns="http://www.w3.org/2000/svg" xmlns:xlink="http://www.w3.org/1999/xlink">
 <defs>
  <style type="text/css">
*{stroke-linecap:butt;stroke-linejoin:round;}
  </style>
 </defs>
 <g id="figure_1">
  <g id="patch_1">
   <path d="M 0 273.6 
L 273.6 273.6 
L 273.6 0 
L 0 0 
z
" style="fill:#ffffff;"/>
  </g>
  <g id="axes_1">
   <g id="patch_2">
    <path d="M 42.54 232.04 
L 256.455 232.04 
L 256.455 25.44 
L 42.54 25.44 
z
" style="fill:#ffffff;"/>
   </g>
   <g id="PathCollection_1">
    <defs>
     <path d="M 0 4.743416 
C 1.257969 4.743416 2.464584 4.24362 3.354102 3.354102 
C 4.24362 2.464584 4.743416 1.257969 4.743416 0 
C 4.743416 -1.257969 4.24362 -2.464584 3.354102 -3.354102 
C 2.464584 -4.24362 1.257969 -4.743416 0 -4.743416 
C -1.257969 -4.743416 -2.464584 -4.24362 -3.354102 -3.354102 
C -4.24362 -2.464584 -4.743416 -1.257969 -4.743416 0 
C -4.743416 1.257969 -4.24362 2.464584 -3.354102 3.354102 
C -2.464584 4.24362 -1.257969 4.743416 0 4.743416 
z
" id="m939547262a" style="stroke:#000000;"/>
    </defs>
    <g clip-path="url(#pf93b3a01e2)">
     <use style="stroke:#000000;" x="202.97625" xlink:href="#m939547262a" y="77.09"/>
    </g>
   </g>
   <g id="PathCollection_2">
    <defs>
     <path d="M 0 4.743416 
C 1.257969 4.743416 2.464584 4.24362 3.354102 3.354102 
C 4.24362 2.464584 4.743416 1.257969 4.743416 0 
C 4.743416 -1.257969 4.24362 -2.464584 3.354102 -3.354102 
C 2.464584 -4.24362 1.257969 -4.743416 0 -4.743416 
C -1.257969 -4.743416 -2.464584 -4.24362 -3.354102 -3.354102 
C -4.24362 -2.464584 -4.743416 -1.257969 -4.743416 0 
C -4.743416 1.257969 -4.24362 2.464584 -3.354102 3.354102 
C -2.464584 4.24362 -1.257969 4.743416 0 4.743416 
z
" id="m72b3dcfa45" style="stroke:#e32ca6;"/>
    </defs>
    <g clip-path="url(#pf93b3a01e2)">
     <use style="fill:#e32ca6;stroke:#e32ca6;" x="160.19325" xlink:href="#m72b3dcfa45" y="118.41"/>
    </g>
   </g>
   <g id="matplotlib.axis_1">
    <g id="xtick_1">
     <g id="line2d_1">
      <defs>
       <path d="M 0 0 
L 0 3.5 
" id="m2b90a227e2" style="stroke:#000000;stroke-width:0.8;"/>
      </defs>
      <g>
       <use style="stroke:#000000;stroke-width:0.8;" x="42.54" xlink:href="#m2b90a227e2" y="232.04"/>
      </g>
     </g>
     <g id="text_1">
      <!-- −10 -->
      <defs>
       <path d="M 10.59375 35.5 
L 73.1875 35.5 
L 73.1875 27.203125 
L 10.59375 27.203125 
z
" id="DejaVuSans-8722"/>
       <path d="M 12.40625 8.296875 
L 28.515625 8.296875 
L 28.515625 63.921875 
L 10.984375 60.40625 
L 10.984375 69.390625 
L 28.421875 72.90625 
L 38.28125 72.90625 
L 38.28125 8.296875 
L 54.390625 8.296875 
L 54.390625 0 
L 12.40625 0 
z
" id="DejaVuSans-49"/>
       <path d="M 31.78125 66.40625 
Q 24.171875 66.40625 20.328125 58.90625 
Q 16.5 51.421875 16.5 36.375 
Q 16.5 21.390625 20.328125 13.890625 
Q 24.171875 6.390625 31.78125 6.390625 
Q 39.453125 6.390625 43.28125 13.890625 
Q 47.125 21.390625 47.125 36.375 
Q 47.125 51.421875 43.28125 58.90625 
Q 39.453125 66.40625 31.78125 66.40625 
z
M 31.78125 74.21875 
Q 44.046875 74.21875 50.515625 64.515625 
Q 56.984375 54.828125 56.984375 36.375 
Q 56.984375 17.96875 50.515625 8.265625 
Q 44.046875 -1.421875 31.78125 -1.421875 
Q 19.53125 -1.421875 13.0625 8.265625 
Q 6.59375 17.96875 6.59375 36.375 
Q 6.59375 54.828125 13.0625 64.515625 
Q 19.53125 74.21875 31.78125 74.21875 
z
" id="DejaVuSans-48"/>
      </defs>
      <g transform="translate(31.987656 246.638437)scale(0.1 -0.1)">
       <use xlink:href="#DejaVuSans-8722"/>
       <use x="83.789062" xlink:href="#DejaVuSans-49"/>
       <use x="147.412109" xlink:href="#DejaVuSans-48"/>
      </g>
     </g>
    </g>
    <g id="xtick_2">
     <g id="line2d_2">
      <g>
       <use style="stroke:#000000;stroke-width:0.8;" x="96.01875" xlink:href="#m2b90a227e2" y="232.04"/>
      </g>
     </g>
     <g id="text_2">
      <!-- −5 -->
      <defs>
       <path d="M 10.796875 72.90625 
L 49.515625 72.90625 
L 49.515625 64.59375 
L 19.828125 64.59375 
L 19.828125 46.734375 
Q 21.96875 47.46875 24.109375 47.828125 
Q 26.265625 48.1875 28.421875 48.1875 
Q 40.625 48.1875 47.75 41.5 
Q 54.890625 34.8125 54.890625 23.390625 
Q 54.890625 11.625 47.5625 5.09375 
Q 40.234375 -1.421875 26.90625 -1.421875 
Q 22.3125 -1.421875 17.546875 -0.640625 
Q 12.796875 0.140625 7.71875 1.703125 
L 7.71875 11.625 
Q 12.109375 9.234375 16.796875 8.0625 
Q 21.484375 6.890625 26.703125 6.890625 
Q 35.15625 6.890625 40.078125 11.328125 
Q 45.015625 15.765625 45.015625 23.390625 
Q 45.015625 31 40.078125 35.4375 
Q 35.15625 39.890625 26.703125 39.890625 
Q 22.75 39.890625 18.8125 39.015625 
Q 14.890625 38.140625 10.796875 36.28125 
z
" id="DejaVuSans-53"/>
      </defs>
      <g transform="translate(88.647656 246.638437)scale(0.1 -0.1)">
       <use xlink:href="#DejaVuSans-8722"/>
       <use x="83.789062" xlink:href="#DejaVuSans-53"/>
      </g>
     </g>
    </g>
    <g id="xtick_3">
     <g id="line2d_3">
      <g>
       <use style="stroke:#000000;stroke-width:0.8;" x="149.4975" xlink:href="#m2b90a227e2" y="232.04"/>
      </g>
     </g>
     <g id="text_3">
      <!-- 0 -->
      <g transform="translate(146.31625 246.638437)scale(0.1 -0.1)">
       <use xlink:href="#DejaVuSans-48"/>
      </g>
     </g>
    </g>
    <g id="xtick_4">
     <g id="line2d_4">
      <g>
       <use style="stroke:#000000;stroke-width:0.8;" x="202.97625" xlink:href="#m2b90a227e2" y="232.04"/>
      </g>
     </g>
     <g id="text_4">
      <!-- 5 -->
      <g transform="translate(199.795 246.638437)scale(0.1 -0.1)">
       <use xlink:href="#DejaVuSans-53"/>
      </g>
     </g>
    </g>
    <g id="xtick_5">
     <g id="line2d_5">
      <g>
       <use style="stroke:#000000;stroke-width:0.8;" x="256.455" xlink:href="#m2b90a227e2" y="232.04"/>
      </g>
     </g>
     <g id="text_5">
      <!-- 10 -->
      <g transform="translate(250.0925 246.638437)scale(0.1 -0.1)">
       <use xlink:href="#DejaVuSans-49"/>
       <use x="63.623047" xlink:href="#DejaVuSans-48"/>
      </g>
     </g>
    </g>
    <g id="text_6">
     <!-- $\beta_1$ -->
     <defs>
      <path d="M 13.625 3.375 
L 8.9375 -20.796875 
L -0.09375 -20.796875 
L 14.5 54.34375 
Q 18.84375 76.609375 39.65625 76.609375 
Q 60.75 76.609375 57.171875 57.8125 
Q 54.734375 44.4375 45.21875 39.546875 
Q 58.015625 35.15625 55.515625 22.125 
Q 51.125 -1.078125 27.484375 -1.03125 
Q 17.140625 -0.984375 13.625 3.375 
z
M 15.921875 15.09375 
Q 19.671875 6.59375 29.296875 6.640625 
Q 43.359375 6.640625 46.34375 21.96875 
Q 49.03125 35.75 26.171875 34.671875 
L 27.78125 42.96875 
Q 45.453125 42.671875 48.53125 58.59375 
Q 50.640625 69.34375 39.203125 69.28125 
Q 26.421875 69.28125 23.484375 54.046875 
z
" id="DejaVuSans-Oblique-946"/>
     </defs>
     <g transform="translate(142.7775 257.958125)scale(0.12 -0.12)">
      <use transform="translate(0 0.390625)" xlink:href="#DejaVuSans-Oblique-946"/>
      <use transform="translate(63.818359 -16.015625)scale(0.7)" xlink:href="#DejaVuSans-49"/>
     </g>
    </g>
   </g>
   <g id="matplotlib.axis_2">
    <g id="ytick_1">
     <g id="line2d_6">
      <defs>
       <path d="M 0 0 
L -3.5 0 
" id="m750eb75f90" style="stroke:#000000;stroke-width:0.8;"/>
      </defs>
      <g>
       <use style="stroke:#000000;stroke-width:0.8;" x="42.54" xlink:href="#m750eb75f90" y="232.04"/>
      </g>
     </g>
     <g id="text_7">
      <!-- −10 -->
      <g transform="translate(14.435312 235.839219)scale(0.1 -0.1)">
       <use xlink:href="#DejaVuSans-8722"/>
       <use x="83.789062" xlink:href="#DejaVuSans-49"/>
       <use x="147.412109" xlink:href="#DejaVuSans-48"/>
      </g>
     </g>
    </g>
    <g id="ytick_2">
     <g id="line2d_7">
      <g>
       <use style="stroke:#000000;stroke-width:0.8;" x="42.54" xlink:href="#m750eb75f90" y="180.39"/>
      </g>
     </g>
     <g id="text_8">
      <!-- −5 -->
      <g transform="translate(20.797812 184.189219)scale(0.1 -0.1)">
       <use xlink:href="#DejaVuSans-8722"/>
       <use x="83.789062" xlink:href="#DejaVuSans-53"/>
      </g>
     </g>
    </g>
    <g id="ytick_3">
     <g id="line2d_8">
      <g>
       <use style="stroke:#000000;stroke-width:0.8;" x="42.54" xlink:href="#m750eb75f90" y="128.74"/>
      </g>
     </g>
     <g id="text_9">
      <!-- 0 -->
      <g transform="translate(29.1775 132.539219)scale(0.1 -0.1)">
       <use xlink:href="#DejaVuSans-48"/>
      </g>
     </g>
    </g>
    <g id="ytick_4">
     <g id="line2d_9">
      <g>
       <use style="stroke:#000000;stroke-width:0.8;" x="42.54" xlink:href="#m750eb75f90" y="77.09"/>
      </g>
     </g>
     <g id="text_10">
      <!-- 5 -->
      <g transform="translate(29.1775 80.889219)scale(0.1 -0.1)">
       <use xlink:href="#DejaVuSans-53"/>
      </g>
     </g>
    </g>
    <g id="ytick_5">
     <g id="line2d_10">
      <g>
       <use style="stroke:#000000;stroke-width:0.8;" x="42.54" xlink:href="#m750eb75f90" y="25.44"/>
      </g>
     </g>
     <g id="text_11">
      <!-- 10 -->
      <g transform="translate(22.815 29.239219)scale(0.1 -0.1)">
       <use xlink:href="#DejaVuSans-49"/>
       <use x="63.623047" xlink:href="#DejaVuSans-48"/>
      </g>
     </g>
    </g>
    <g id="text_12">
     <!-- $\beta_2$ -->
     <defs>
      <path d="M 19.1875 8.296875 
L 53.609375 8.296875 
L 53.609375 0 
L 7.328125 0 
L 7.328125 8.296875 
Q 12.9375 14.109375 22.625 23.890625 
Q 32.328125 33.6875 34.8125 36.53125 
Q 39.546875 41.84375 41.421875 45.53125 
Q 43.3125 49.21875 43.3125 52.78125 
Q 43.3125 58.59375 39.234375 62.25 
Q 35.15625 65.921875 28.609375 65.921875 
Q 23.96875 65.921875 18.8125 64.3125 
Q 13.671875 62.703125 7.8125 59.421875 
L 7.8125 69.390625 
Q 13.765625 71.78125 18.9375 73 
Q 24.125 74.21875 28.421875 74.21875 
Q 39.75 74.21875 46.484375 68.546875 
Q 53.21875 62.890625 53.21875 53.421875 
Q 53.21875 48.921875 51.53125 44.890625 
Q 49.859375 40.875 45.40625 35.40625 
Q 44.1875 33.984375 37.640625 27.21875 
Q 31.109375 20.453125 19.1875 8.296875 
z
" id="DejaVuSans-50"/>
     </defs>
     <g transform="translate(21.915312 135.46)rotate(-90)scale(0.12 -0.12)">
      <use transform="translate(0 0.390625)" xlink:href="#DejaVuSans-Oblique-946"/>
      <use transform="translate(63.818359 -16.015625)scale(0.7)" xlink:href="#DejaVuSans-50"/>
     </g>
    </g>
   </g>
   <g id="LineCollection_1"/>
   <g id="LineCollection_2">
    <path clip-path="url(#pf93b3a01e2)" d="M 42.54 168.356534 
L 44.700758 167.974965 
L 46.861515 167.69857 
L 49.022273 167.52735 
L 51.18303 167.461304 
L 53.343788 167.500433 
L 55.504545 167.644735 
L 57.665303 167.894213 
L 59.826061 168.248864 
L 61.986818 168.70869 
L 64.147576 169.27369 
L 64.664246 169.433939 
L 66.308333 169.970928 
L 68.469091 170.787427 
L 70.178068 171.520808 
L 70.629848 171.725549 
L 72.790606 172.821739 
L 74.190447 173.607677 
L 74.951364 174.060258 
L 77.112121 175.469352 
L 77.42953 175.694545 
L 79.272879 177.084908 
L 80.127253 177.781414 
L 81.433636 178.918165 
L 82.449563 179.868283 
L 83.594394 181.016305 
L 84.469726 181.955152 
L 85.755152 183.441207 
L 86.243107 184.04202 
L 87.805996 186.128889 
L 87.915909 186.289189 
L 89.160864 188.215758 
L 90.076667 189.776958 
L 90.36824 190.302626 
L 91.408157 192.389495 
L 92.237424 194.265847 
L 92.325661 194.476364 
L 93.088816 196.563232 
L 93.740432 198.650101 
L 94.280508 200.73697 
L 94.398182 201.310016 
L 94.693784 202.823838 
L 94.995219 204.910707 
L 95.19059 206.997576 
L 95.279895 209.084444 
L 95.263136 211.171313 
L 95.140311 213.258182 
L 94.911422 215.345051 
L 94.576468 217.431919 
L 94.398182 218.275555 
L 94.121886 219.518788 
L 93.546561 221.605657 
L 92.859697 223.692525 
L 92.237424 225.319019 
L 92.051705 225.779394 
L 91.092231 227.866263 
L 90.076667 229.833934 
L 90.011605 229.953131 
L 88.748137 232.04 
" style="fill:none;stroke:#4257c9;"/>
   </g>
   <g id="LineCollection_3">
    <path clip-path="url(#pf93b3a01e2)" d="M 42.54 150.544572 
L 44.700758 150.28207 
L 46.861515 150.091923 
L 49.022273 149.974131 
L 51.18303 149.928695 
L 53.343788 149.955613 
L 55.504545 150.054887 
L 57.665303 150.226516 
L 59.826061 150.4705 
L 61.066622 150.652121 
L 61.986818 150.791679 
L 64.147576 151.194334 
L 66.308333 151.671944 
L 68.469091 152.224507 
L 70.240631 152.73899 
L 70.629848 152.856236 
L 72.790606 153.584878 
L 74.951364 154.391266 
L 76.013473 154.825859 
L 77.112121 155.292797 
L 79.272879 156.2919 
L 80.515131 156.912727 
L 81.433636 157.390236 
L 83.594394 158.597569 
L 84.267093 158.999596 
L 85.755152 159.926208 
L 87.504615 161.086465 
L 87.915909 161.37118 
L 90.076667 162.958307 
L 90.353474 163.173333 
L 92.237424 164.703799 
L 92.886982 165.260202 
L 94.398182 166.616787 
L 95.171765 167.347071 
L 96.558939 168.722598 
L 97.242738 169.433939 
L 98.719697 171.051932 
L 99.128571 171.520808 
L 100.851804 173.607677 
L 100.880455 173.644434 
L 102.410081 175.694545 
L 103.041212 176.593827 
L 103.840484 177.781414 
L 105.156334 179.868283 
L 105.20197 179.945888 
L 106.336957 181.955152 
L 107.362727 183.912473 
L 107.428045 184.04202 
L 108.398302 186.128889 
L 109.286626 188.215758 
L 109.523485 188.828728 
L 110.072209 190.302626 
L 110.770199 192.389495 
L 111.389248 194.476364 
L 111.684242 195.61616 
L 111.920718 196.563232 
L 112.365632 198.650101 
L 112.734388 200.73697 
L 113.026986 202.823838 
L 113.243427 204.910707 
L 113.383709 206.997576 
L 113.447833 209.084444 
L 113.435799 211.171313 
L 113.347607 213.258182 
L 113.183257 215.345051 
L 112.94275 217.431919 
L 112.626084 219.518788 
L 112.23326 221.605657 
L 111.764278 223.692525 
L 111.684242 223.998912 
L 111.202146 225.779394 
L 110.55815 227.866263 
L 109.835213 229.953131 
L 109.523485 230.764399 
L 109.014751 232.04 
" style="fill:none;stroke:#4961d2;"/>
   </g>
   <g id="LineCollection_4">
    <path clip-path="url(#pf93b3a01e2)" d="M 42.54 136.97764 
L 44.700758 136.760342 
L 46.861515 136.60294 
L 49.022273 136.505432 
L 51.18303 136.46782 
L 53.343788 136.490103 
L 55.504545 136.572281 
L 57.665303 136.714355 
L 59.826061 136.916324 
L 61.986818 137.178188 
L 64.147576 137.499947 
L 66.308333 137.881601 
L 67.528341 138.130909 
L 68.469091 138.328831 
L 70.629848 138.845093 
L 72.790606 139.423021 
L 74.951364 140.062613 
L 75.429467 140.217778 
L 77.112121 140.780498 
L 79.272879 141.566651 
L 81.149587 142.304646 
L 81.433636 142.419854 
L 83.594394 143.361772 
L 85.755152 144.369228 
L 85.800032 144.391515 
L 87.915909 145.47629 
L 89.757999 146.478384 
L 90.076667 146.657547 
L 92.237424 147.942315 
L 93.231016 148.565253 
L 94.398182 149.322385 
L 96.347431 150.652121 
L 96.558939 150.80159 
L 98.719697 152.40351 
L 99.151984 152.73899 
L 100.880455 154.130357 
L 101.707495 154.825859 
L 103.041212 155.990851 
L 104.053298 156.912727 
L 105.20197 158.001132 
L 106.214189 158.999596 
L 107.362727 160.180045 
L 108.211202 161.086465 
L 109.523485 162.549741 
L 110.062299 163.173333 
L 111.684242 165.136421 
L 111.782908 165.260202 
L 113.370192 167.347071 
L 113.845 168.002781 
L 114.846036 169.433939 
L 116.005758 171.179963 
L 116.224696 171.520808 
L 117.494028 173.607677 
L 118.166515 174.778937 
L 118.675461 175.694545 
L 119.766582 177.781414 
L 120.327273 178.926038 
L 120.77457 179.868283 
L 121.698491 181.955152 
L 122.48803 183.877361 
L 122.553637 184.04202 
L 123.320377 186.128889 
L 124.022369 188.215758 
L 124.648788 190.267174 
L 124.659299 190.302626 
L 125.21514 192.389495 
L 125.708117 194.476364 
L 126.138231 196.563232 
L 126.505481 198.650101 
L 126.809545 200.734769 
L 126.809857 200.73697 
L 127.044551 202.823838 
L 127.218159 204.910707 
L 127.33068 206.997576 
L 127.382114 209.084444 
L 127.372462 211.171313 
L 127.301723 213.258182 
L 127.169897 215.345051 
L 126.976985 217.431919 
L 126.809545 218.807611 
L 126.720468 219.518788 
L 126.396215 221.605657 
L 126.009099 223.692525 
L 125.559119 225.779394 
L 125.046275 227.866263 
L 124.648788 229.307106 
L 124.465227 229.953131 
L 123.807521 232.04 
" style="fill:none;stroke:#506bda;"/>
   </g>
   <g id="LineCollection_5">
    <path clip-path="url(#pf93b3a01e2)" d="M 42.54 125.557418 
L 44.700758 125.372043 
L 46.861515 125.237764 
L 49.022273 125.154581 
L 51.18303 125.122494 
L 53.343788 125.141504 
L 55.504545 125.21161 
L 57.665303 125.332811 
L 59.826061 125.505109 
L 60.837673 125.609697 
L 61.986818 125.731486 
L 64.147576 126.012865 
L 66.308333 126.346624 
L 68.469091 126.732761 
L 70.629848 127.171276 
L 72.790606 127.662171 
L 72.927405 127.696566 
L 74.951364 128.218545 
L 77.112121 128.829532 
L 79.272879 129.494246 
L 80.142633 129.783434 
L 81.433636 130.22403 
L 83.594394 131.016603 
L 85.755152 131.864323 
L 85.769462 131.870303 
L 87.915909 132.791534 
L 90.076667 133.775552 
L 90.45377 133.957172 
L 92.237424 134.84018 
L 94.398182 135.9681 
L 94.53652 136.04404 
L 96.558939 137.186108 
L 98.153747 138.130909 
L 98.719697 138.476098 
L 100.880455 139.855671 
L 101.423338 140.217778 
L 103.041212 141.329768 
L 104.401401 142.304646 
L 105.20197 142.896452 
L 107.144712 144.391515 
L 107.362727 144.564731 
L 109.523485 146.349148 
L 109.674259 146.478384 
L 111.684242 148.258961 
L 112.01781 148.565253 
L 113.845 150.301206 
L 114.201783 150.652121 
L 116.005758 152.490154 
L 116.241941 152.73899 
L 118.151561 154.825859 
L 118.166515 154.842833 
L 119.931912 156.912727 
L 120.327273 157.394941 
L 121.602269 158.999596 
L 122.48803 160.161133 
L 123.172522 161.086465 
L 124.648788 163.169528 
L 124.651406 163.173333 
L 126.024477 165.260202 
L 126.809545 166.510641 
L 127.319838 167.347071 
L 128.531918 169.433939 
L 128.970303 170.228776 
L 129.663319 171.520808 
L 130.72326 173.607677 
L 131.131061 174.458249 
L 131.707934 175.694545 
L 132.623878 177.781414 
L 133.291818 179.405771 
L 133.477048 179.868283 
L 134.256501 181.955152 
L 134.979643 184.04202 
L 135.452576 185.522079 
L 135.641549 186.128889 
L 136.236563 188.215758 
L 136.776696 190.302626 
L 137.261949 192.389495 
L 137.613333 194.093351 
L 137.690365 194.476364 
L 138.056556 196.563232 
L 138.369226 198.650101 
L 138.628375 200.73697 
L 138.834003 202.823838 
L 138.986109 204.910707 
L 139.084694 206.997576 
L 139.129759 209.084444 
L 139.121302 211.171313 
L 139.059324 213.258182 
L 138.943824 215.345051 
L 138.774804 217.431919 
L 138.552262 219.518788 
L 138.2762 221.605657 
L 137.946616 223.692525 
L 137.613333 225.507999 
L 137.562245 225.779394 
L 137.11453 227.866263 
L 136.611933 229.953131 
L 136.054456 232.04 
" style="fill:none;stroke:#5875e1;"/>
   </g>
   <g id="LineCollection_6">
    <path clip-path="url(#pf93b3a01e2)" d="M 42.54 115.518177 
L 44.700758 115.349338 
L 46.861515 115.227037 
L 48.335528 115.175354 
L 49.022273 115.151799 
L 51.18303 115.123213 
L 53.343788 115.140149 
L 54.56169 115.175354 
L 55.504545 115.203216 
L 57.665303 115.313606 
L 59.826061 115.470535 
L 61.986818 115.674002 
L 64.147576 115.924007 
L 66.308333 116.22055 
L 68.469091 116.563632 
L 70.629848 116.953252 
L 72.160508 117.262222 
L 72.790606 117.392311 
L 74.951364 117.886018 
L 77.112121 118.427324 
L 79.272879 119.01623 
L 80.402848 119.349091 
L 81.433636 119.659823 
L 83.594394 120.359897 
L 85.755152 121.108681 
L 86.641889 121.43596 
L 87.915909 121.917415 
L 90.076667 122.783845 
L 91.819279 123.522828 
L 92.237424 123.704491 
L 94.398182 124.694328 
L 96.298296 125.609697 
L 96.558939 125.738412 
L 98.719697 126.85785 
L 100.266237 127.696566 
L 100.880455 128.038242 
L 103.041212 129.293954 
L 103.848922 129.783434 
L 105.20197 130.625062 
L 107.124986 131.870303 
L 107.362727 132.02843 
L 109.523485 133.522241 
L 110.129617 133.957172 
L 111.684242 135.103819 
L 112.914065 136.04404 
L 113.845 136.776183 
L 115.508916 138.130909 
L 116.005758 138.547381 
L 117.932895 140.217778 
L 118.166515 140.42644 
L 120.202343 142.304646 
L 120.327273 142.423524 
L 122.33158 144.391515 
L 122.48803 144.550111 
L 124.333211 146.478384 
L 124.648788 146.819222 
L 126.218374 148.565253 
L 126.809545 149.245681 
L 127.996946 150.652121 
L 128.970303 151.846442 
L 129.67772 152.73899 
L 131.131061 154.640985 
L 131.268545 154.825859 
L 132.762664 156.912727 
L 133.291818 157.68156 
L 134.175325 158.999596 
L 135.452576 160.984948 
L 135.516226 161.086465 
L 136.769806 163.173333 
L 137.613333 164.641867 
L 137.959708 165.260202 
L 139.075196 167.347071 
L 139.774091 168.72047 
L 140.128386 169.433939 
L 141.112456 171.520808 
L 141.934848 173.362564 
L 142.041715 173.607677 
L 142.90057 175.694545 
L 143.708431 177.781414 
L 144.095606 178.848953 
L 144.456773 179.868283 
L 145.146369 181.955152 
L 145.786146 184.04202 
L 146.256364 185.705331 
L 146.373405 186.128889 
L 146.901371 188.215758 
L 147.38064 190.302626 
L 147.811213 192.389495 
L 148.193089 194.476364 
L 148.417121 195.879584 
L 148.523864 196.563232 
L 148.802077 198.650101 
L 149.032668 200.73697 
L 149.215636 202.823838 
L 149.35098 204.910707 
L 149.438701 206.997576 
L 149.478799 209.084444 
L 149.471274 211.171313 
L 149.416126 213.258182 
L 149.313355 215.345051 
L 149.162961 217.431919 
L 148.964943 219.518788 
L 148.719303 221.605657 
L 148.426039 223.692525 
L 148.417121 223.747118 
L 148.077671 225.779394 
L 147.680405 227.866263 
L 147.234443 229.953131 
L 146.739785 232.04 
" style="fill:none;stroke:#6180e9;"/>
   </g>
   <g id="LineCollection_7">
    <path clip-path="url(#pf93b3a01e2)" d="M 42.54 106.447456 
L 44.700758 106.295555 
L 46.861515 106.185523 
L 49.022273 106.11736 
L 51.18303 106.091067 
L 53.343788 106.106644 
L 55.504545 106.164091 
L 57.665303 106.263407 
L 59.826061 106.404593 
L 61.986818 106.587649 
L 64.147576 106.812574 
L 64.271525 106.827879 
L 66.308333 107.084519 
L 68.469091 107.399503 
L 70.629848 107.757214 
L 72.790606 108.157653 
L 74.951364 108.600818 
L 76.347404 108.914747 
L 77.112121 109.090305 
L 79.272879 109.629973 
L 81.433636 110.213262 
L 83.594394 110.84017 
L 84.114649 111.001616 
L 85.755152 111.521567 
L 87.915909 112.250961 
L 90.076667 113.024907 
L 90.244507 113.088485 
L 92.237424 113.859871 
L 94.398182 114.741746 
L 95.40845 115.175354 
L 96.558939 115.680156 
L 98.719697 116.674773 
L 99.938856 117.262222 
L 100.880455 117.726278 
L 103.041212 118.838781 
L 103.991693 119.349091 
L 105.20197 120.014052 
L 107.362727 121.249945 
L 107.675613 121.43596 
L 109.523485 122.560804 
L 111.046143 123.522828 
L 111.684242 123.935855 
L 113.845 125.385557 
L 114.167704 125.609697 
L 116.005758 126.918398 
L 117.0627 127.696566 
L 118.166515 128.530166 
L 119.773138 129.783434 
L 120.327273 130.227118 
L 122.31612 131.870303 
L 122.48803 132.016191 
L 124.648788 133.906508 
L 124.705015 133.957172 
L 126.809545 135.906377 
L 126.953977 136.04404 
L 128.970303 138.021041 
L 129.079275 138.130909 
L 131.08973 140.217778 
L 131.131061 140.261985 
L 132.989678 142.304646 
L 133.291818 142.647134 
L 134.790598 144.391515 
L 135.452576 145.186951 
L 136.500035 146.478384 
L 137.613333 147.896986 
L 138.124789 148.565253 
L 139.668445 150.652121 
L 139.774091 150.800073 
L 141.125116 152.73899 
L 141.934848 153.944367 
L 142.513031 154.825859 
L 143.83084 156.912727 
L 144.095606 157.348886 
L 145.074551 158.999596 
L 146.256364 161.075967 
L 146.262204 161.086465 
L 147.374526 163.173333 
L 148.417121 165.218939 
L 148.437689 165.260202 
L 149.430249 167.347071 
L 150.375186 169.433939 
L 150.577879 169.905338 
L 151.257521 171.520808 
L 152.088889 173.607677 
L 152.738636 175.335489 
L 152.87081 175.694545 
L 153.593403 177.781414 
L 154.270384 179.868283 
L 154.899394 181.947359 
L 154.901703 181.955152 
L 155.475349 184.04202 
L 156.004325 186.128889 
L 156.488632 188.215758 
L 156.928269 190.302626 
L 157.060152 190.999444 
L 157.317909 192.389495 
L 157.661112 194.476364 
L 157.96055 196.563232 
L 158.216223 198.650101 
L 158.428132 200.73697 
L 158.596276 202.823838 
L 158.720655 204.910707 
L 158.801269 206.997576 
L 158.838119 209.084444 
L 158.831204 211.171313 
L 158.780523 213.258182 
L 158.686078 215.345051 
L 158.547869 217.431919 
L 158.365894 219.518788 
L 158.140155 221.605657 
L 157.870651 223.692525 
L 157.557382 225.779394 
L 157.200348 227.866263 
L 157.060152 228.596233 
L 156.794162 229.953131 
L 156.340408 232.04 
" style="fill:none;stroke:#688aef;"/>
   </g>
   <g id="LineCollection_8">
    <path clip-path="url(#pf93b3a01e2)" d="M 42.54 98.110711 
L 44.700758 97.970094 
L 46.861515 97.868237 
L 49.022273 97.805138 
L 51.18303 97.780799 
L 53.343788 97.795218 
L 55.504545 97.848397 
L 57.665303 97.940335 
L 59.826061 98.071032 
L 61.986818 98.240489 
L 64.147576 98.448704 
L 64.424917 98.480404 
L 66.308333 98.699752 
L 68.469091 98.990893 
L 70.629848 99.321527 
L 72.790606 99.691653 
L 74.951364 100.101272 
L 77.112121 100.550383 
L 77.186811 100.567273 
L 79.272879 101.048086 
L 81.433636 101.58637 
L 83.594394 102.164908 
L 85.302747 102.654141 
L 85.755152 102.786248 
L 87.915909 103.458257 
L 90.076667 104.171313 
L 91.709044 104.74101 
L 92.237424 104.929114 
L 94.398182 105.740215 
L 96.558939 106.593186 
L 97.125649 106.827879 
L 98.719697 107.501542 
L 100.880455 108.457431 
L 101.869975 108.914747 
L 103.041212 109.467361 
L 105.20197 110.530469 
L 106.121828 111.001616 
L 107.362727 111.650767 
L 109.523485 112.825673 
L 109.98916 113.088485 
L 111.684242 114.066 
L 113.54014 115.175354 
L 113.845 115.361646 
L 116.005758 116.72857 
L 116.821551 117.262222 
L 118.166515 118.1621 
L 119.884052 119.349091 
L 120.327273 119.662551 
L 122.48803 121.23942 
L 122.749276 121.43596 
L 124.648788 122.899152 
L 125.434887 123.522828 
L 126.809545 124.640161 
L 127.968648 125.609697 
L 128.970303 126.468565 
L 130.363085 127.696566 
L 131.131061 128.391115 
L 132.629381 129.783434 
L 133.291818 130.415274 
L 134.777555 131.870303 
L 135.452576 132.549316 
L 136.816607 133.957172 
L 137.613333 134.802439 
L 138.754646 136.04404 
L 139.774091 137.184896 
L 140.598996 138.130909 
L 141.934848 139.708152 
L 142.356292 140.217778 
L 144.031066 142.304646 
L 144.095606 142.387593 
L 145.618894 144.391515 
L 146.256364 145.257311 
L 147.135154 146.478384 
L 148.417121 148.319357 
L 148.584577 148.565253 
L 149.958123 150.652121 
L 150.577879 151.627555 
L 151.268816 152.73899 
L 152.519549 154.825859 
L 152.738636 155.205554 
L 153.702892 156.912727 
L 154.835998 158.999596 
L 154.899394 159.121251 
L 155.90232 161.086465 
L 156.922661 163.173333 
L 157.060152 163.467412 
L 157.881356 165.260202 
L 158.793502 167.347071 
L 159.220909 168.374203 
L 159.653129 169.433939 
L 160.461374 171.520808 
L 161.226724 173.607677 
L 161.381667 174.055243 
L 161.93813 175.694545 
L 162.60446 177.781414 
L 163.228728 179.868283 
L 163.542424 180.992698 
L 163.805808 181.955152 
L 164.335641 184.04202 
L 164.824216 186.128889 
L 165.271533 188.215758 
L 165.677593 190.302626 
L 165.703182 190.44901 
L 166.036039 192.389495 
L 166.35352 194.476364 
L 166.630517 196.563232 
L 166.867029 198.650101 
L 167.063056 200.73697 
L 167.218598 202.823838 
L 167.333655 204.910707 
L 167.408228 206.997576 
L 167.442316 209.084444 
L 167.435919 211.171313 
L 167.389037 213.258182 
L 167.30167 215.345051 
L 167.173819 217.431919 
L 167.005482 219.518788 
L 166.796661 221.605657 
L 166.547355 223.692525 
L 166.257564 225.779394 
L 165.927289 227.866263 
L 165.703182 229.127673 
L 165.553728 229.953131 
L 165.13463 232.04 
" style="fill:none;stroke:#7093f3;"/>
   </g>
   <g id="LineCollection_9">
    <path clip-path="url(#pf93b3a01e2)" d="M 42.54 90.353557 
L 46.861515 90.124036 
L 53.343788 90.056067 
L 57.665303 90.192173 
L 64.147576 90.673711 
L 70.629848 91.485671 
L 74.999254 92.219798 
L 81.433636 93.597443 
L 85.755152 94.716344 
L 91.291801 96.393535 
L 96.558939 98.245614 
L 100.880455 99.968739 
L 105.20197 101.879103 
L 109.523485 103.987754 
L 114.760838 106.827879 
L 118.273084 108.914747 
L 122.48803 111.641141 
L 127.456154 115.175354 
L 131.131061 118.038907 
L 135.452576 121.704141 
L 139.774091 125.737352 
L 144.095606 130.196884 
L 147.416053 133.957172 
L 150.799425 138.130909 
L 153.881985 142.304646 
L 157.060152 147.037377 
L 159.277463 150.652121 
L 161.618484 154.825859 
L 163.746332 158.999596 
L 165.703182 163.244587 
L 167.863939 168.549616 
L 168.946867 171.520808 
L 170.319789 175.694545 
L 171.517156 179.868283 
L 172.551816 184.04202 
L 173.4213 188.215758 
L 174.346212 193.838773 
L 174.694132 196.563232 
L 175.096515 200.73697 
L 175.348248 204.910707 
L 175.449332 209.084444 
L 175.399768 213.258182 
L 175.199555 217.431919 
L 174.848693 221.605657 
L 174.346212 225.785982 
L 173.683471 229.953131 
L 173.294111 232.04 
L 173.294111 232.04 
" style="fill:none;stroke:#799cf8;"/>
   </g>
   <g id="LineCollection_10">
    <path clip-path="url(#pf93b3a01e2)" d="M 42.54 83.073655 
L 49.022273 82.803239 
L 55.504545 82.841521 
L 61.986818 83.188502 
L 68.469091 83.84418 
L 72.790606 84.462499 
L 79.272879 85.652229 
L 83.594394 86.630973 
L 90.076667 88.378558 
L 96.558939 90.48134 
L 101.214011 92.219798 
L 106.198876 94.306667 
L 110.692101 96.393535 
L 114.794116 98.480404 
L 118.579741 100.567273 
L 122.48803 102.896415 
L 126.809545 105.695829 
L 131.370158 108.914747 
L 136.718959 113.088485 
L 139.774091 115.679214 
L 144.095606 119.635846 
L 148.417121 123.979984 
L 152.738636 128.771488 
L 155.315039 131.870303 
L 159.220909 136.987702 
L 161.489205 140.217778 
L 164.197132 144.391515 
L 166.68213 148.565253 
L 168.9565 152.73899 
L 171.031654 156.912727 
L 172.918194 161.086465 
L 174.625982 165.260202 
L 176.50697 170.459506 
L 178.145575 175.694545 
L 179.271068 179.868283 
L 180.673164 186.128889 
L 181.41603 190.302626 
L 182.258041 196.563232 
L 182.777936 202.823838 
L 182.975714 209.084444 
L 182.851376 215.345051 
L 182.404922 221.605657 
L 181.636351 227.866263 
L 180.945017 232.04 
L 180.945017 232.04 
" style="fill:none;stroke:#82a6fb;"/>
   </g>
   <g id="LineCollection_11">
    <path clip-path="url(#pf93b3a01e2)" d="M 42.54 76.187198 
L 49.022273 75.929488 
L 55.504545 75.965972 
L 61.986818 76.296647 
L 68.469091 76.921515 
L 74.951364 77.844216 
L 81.433636 79.076775 
L 85.755152 80.070439 
L 92.237424 81.829823 
L 98.719697 83.926993 
L 105.20197 86.379168 
L 109.523485 88.217213 
L 113.845 90.230071 
L 118.166515 92.427133 
L 122.48803 94.818475 
L 126.809545 97.414923 
L 131.627582 100.567273 
L 135.452576 103.282737 
L 140.0679 106.827879 
L 145.020522 111.001616 
L 149.53652 115.175354 
L 153.671197 119.349091 
L 157.470893 123.522828 
L 161.381667 128.21637 
L 164.187575 131.870303 
L 167.863939 137.087598 
L 170.024697 140.415466 
L 172.423135 144.391515 
L 174.742147 148.565253 
L 176.870652 152.73899 
L 178.818275 156.912727 
L 181.411537 163.173333 
L 183.638629 169.433939 
L 185.517163 175.694545 
L 187.059679 181.955152 
L 187.905275 186.128889 
L 188.912004 192.389495 
L 189.609685 198.650101 
L 189.996574 204.910707 
L 190.081362 211.171313 
L 189.86405 217.431919 
L 189.342636 223.692525 
L 188.508159 229.953131 
L 188.161808 232.04 
L 188.161808 232.04 
" style="fill:none;stroke:#8badfd;"/>
   </g>
   <g id="LineCollection_12">
    <path clip-path="url(#pf93b3a01e2)" d="M 42.54 69.637907 
L 49.022273 69.391764 
L 55.504545 69.42661 
L 61.986818 69.742444 
L 68.469091 70.339267 
L 74.951364 71.217077 
L 81.433636 72.39144 
L 87.915909 73.859497 
L 94.398182 75.635048 
L 100.880455 77.732773 
L 107.362727 80.168301 
L 111.684242 81.985133 
L 116.005758 83.967305 
L 120.327273 86.123246 
L 124.648788 88.461969 
L 128.970303 90.993122 
L 134.1652 94.306667 
L 137.613333 96.680045 
L 142.8297 100.567273 
L 146.256364 103.325419 
L 150.577879 107.059216 
L 154.899394 111.111854 
L 159.220909 115.525996 
L 163.542424 120.35227 
L 166.177557 123.522828 
L 170.024697 128.520886 
L 172.414256 131.870303 
L 175.18537 136.04404 
L 177.750486 140.217778 
L 180.828485 145.708714 
L 183.330296 150.652121 
L 186.149136 156.912727 
L 187.827414 161.086465 
L 190.052446 167.347071 
L 191.944979 173.607677 
L 193.515866 179.868283 
L 194.388745 184.04202 
L 195.447636 190.302626 
L 196.209674 196.563232 
L 196.675551 202.823838 
L 196.85278 209.084444 
L 196.741361 215.345051 
L 196.341294 221.605657 
L 195.64804 227.866263 
L 195.019202 232.04 
L 195.019202 232.04 
" style="fill:none;stroke:#93b5fe;"/>
   </g>
   <g id="LineCollection_13">
    <path clip-path="url(#pf93b3a01e2)" d="M 42.54 63.382335 
L 49.022273 63.146766 
L 55.504545 63.180115 
L 61.986818 63.482382 
L 68.469091 64.053569 
L 74.951364 64.893674 
L 81.433636 66.015948 
L 87.915909 67.417393 
L 94.398182 69.112805 
L 98.719697 70.413827 
L 105.20197 72.621929 
L 109.523485 74.27467 
L 116.005758 77.037366 
L 121.57336 79.698586 
L 126.809545 82.457919 
L 132.827103 85.959192 
L 137.613333 89.018012 
L 142.240829 92.219798 
L 147.763036 96.393535 
L 150.577879 98.676365 
L 155.166427 102.654141 
L 159.60345 106.827879 
L 163.701588 111.001616 
L 167.863939 115.603614 
L 172.185455 120.823198 
L 175.810953 125.609697 
L 178.73438 129.783434 
L 181.442058 133.957172 
L 183.955876 138.130909 
L 186.285158 142.304646 
L 188.438639 146.478384 
L 190.424513 150.652121 
L 192.250471 154.825859 
L 194.699922 161.086465 
L 196.820084 167.347071 
L 198.625404 173.607677 
L 200.127364 179.868283 
L 201.32948 186.128889 
L 202.249136 192.389495 
L 202.882038 198.650101 
L 203.23594 204.910707 
L 203.313499 211.171313 
L 203.114715 217.431919 
L 202.639589 223.692525 
L 201.88022 229.953131 
L 201.563825 232.04 
L 201.563825 232.04 
" style="fill:none;stroke:#9bbcff;"/>
   </g>
   <g id="LineCollection_14">
    <path clip-path="url(#pf93b3a01e2)" d="M 42.54 57.384193 
L 49.022273 57.158325 
L 55.504545 57.1903 
L 61.986818 57.480119 
L 68.469091 58.027781 
L 74.951364 58.833334 
L 81.433636 59.911484 
L 87.915909 61.255785 
L 94.845503 63.003636 
L 100.880455 64.7934 
L 105.20197 66.236393 
L 111.684242 68.656191 
L 116.005758 70.449918 
L 120.327273 72.393215 
L 126.664258 75.524848 
L 131.131061 77.95088 
L 135.452576 80.478616 
L 140.80948 83.872323 
L 146.256364 87.642019 
L 150.577879 90.885909 
L 154.899394 94.366397 
L 159.622854 98.480404 
L 164.050314 102.654141 
L 168.152057 106.827879 
L 172.185455 111.260461 
L 176.50697 116.425844 
L 180.352157 121.43596 
L 183.313986 125.609697 
L 186.069275 129.783434 
L 189.471515 135.385087 
L 192.148878 140.217778 
L 195.28352 146.478384 
L 197.175583 150.652121 
L 199.734174 156.912727 
L 201.258353 161.086465 
L 203.287048 167.347071 
L 205.016699 173.607677 
L 206.455527 179.868283 
L 207.609942 186.128889 
L 208.491476 192.389495 
L 209.10177 198.650101 
L 209.441202 204.910707 
L 209.51559 211.171313 
L 209.324934 217.431919 
L 208.868556 223.692525 
L 208.137853 229.953131 
L 207.834573 232.04 
L 207.834573 232.04 
" style="fill:none;stroke:#a5c3fe;"/>
   </g>
   <g id="LineCollection_15">
    <path clip-path="url(#pf93b3a01e2)" d="M 42.54 51.61293 
L 49.022273 51.395996 
L 55.504545 51.426707 
L 61.986818 51.705062 
L 68.469091 52.231061 
L 74.951364 53.010521 
L 81.433636 54.045454 
L 87.915909 55.340483 
L 94.398182 56.900264 
L 101.179778 58.829899 
L 107.523608 60.916768 
L 113.845 63.281835 
L 120.327273 66.017646 
L 126.809545 69.080195 
L 131.193568 71.351111 
L 137.613333 74.989019 
L 141.934848 77.65333 
L 148.091575 81.785455 
L 152.738636 85.183104 
L 157.060152 88.574521 
L 161.39397 92.219798 
L 165.995986 96.393535 
L 170.265557 100.567273 
L 174.346212 104.861919 
L 178.667727 109.784873 
L 182.989242 115.137385 
L 186.125063 119.349091 
L 189.471515 124.182689 
L 193.028436 129.783434 
L 195.953788 134.820068 
L 198.820356 140.217778 
L 201.816713 146.478384 
L 203.627392 150.652121 
L 206.078864 156.912727 
L 208.223739 163.173333 
L 210.074554 169.433939 
L 211.64317 175.694545 
L 212.936799 181.955152 
L 213.959275 188.215758 
L 214.719718 194.476364 
L 215.222151 200.73697 
L 215.465709 206.997576 
L 215.452297 213.258182 
L 215.181382 219.518788 
L 214.65177 225.779394 
L 213.864148 232.04 
L 213.864148 232.04 
" style="fill:none;stroke:#adc9fd;"/>
   </g>
   <g id="LineCollection_16">
    <path clip-path="url(#pf93b3a01e2)" d="M 42.54 46.042648 
L 49.022273 45.833969 
L 55.504545 45.863511 
L 61.986818 46.131275 
L 68.469091 46.64148 
L 74.951364 47.395245 
L 81.463153 48.395556 
L 87.915909 49.642641 
L 94.398182 51.148143 
L 100.880455 52.916947 
L 107.362727 54.959748 
L 113.845 57.287831 
L 120.327273 59.91311 
L 126.809545 62.84817 
L 131.326221 65.090505 
L 137.613333 68.496968 
L 142.446901 71.351111 
L 148.417121 75.183405 
L 152.738636 78.185985 
L 157.569878 81.785455 
L 162.752302 85.959192 
L 167.546325 90.132929 
L 171.994035 94.306667 
L 176.131649 98.480404 
L 179.990504 102.654141 
L 183.597854 106.827879 
L 187.310758 111.437046 
L 191.632544 117.262222 
L 195.849289 123.522828 
L 198.4338 127.696566 
L 201.996383 133.957172 
L 204.596818 138.98214 
L 207.156152 144.391515 
L 209.816649 150.652121 
L 212.173174 156.912727 
L 214.237825 163.173333 
L 216.022067 169.433939 
L 217.561364 175.810535 
L 218.780244 181.955152 
L 219.771731 188.215758 
L 220.503066 194.476364 
L 220.986266 200.73697 
L 221.221331 206.997576 
L 221.208262 213.258182 
L 220.947058 219.518788 
L 220.437719 225.779394 
L 219.679705 232.04 
L 219.679705 232.04 
" style="fill:none;stroke:#b5cdfa;"/>
   </g>
   <g id="LineCollection_17">
    <path clip-path="url(#pf93b3a01e2)" d="M 42.54 40.658707 
L 49.022273 40.455191 
L 55.504545 40.484002 
L 61.986818 40.745141 
L 68.469091 41.238607 
L 74.951364 41.964401 
L 81.433636 42.932387 
L 88.315988 44.221818 
L 94.398182 45.595547 
L 100.880455 47.305277 
L 107.362727 49.27677 
L 113.845 51.52038 
L 120.327273 54.047016 
L 126.809545 56.869893 
L 133.291818 60.012219 
L 138.910561 63.003636 
L 144.095606 66.001027 
L 149.317363 69.264242 
L 154.899394 73.042699 
L 159.220909 76.192689 
L 163.728463 79.698586 
L 168.716331 83.872323 
L 173.350274 88.046061 
L 177.666671 92.219798 
L 181.697082 96.393535 
L 185.469018 100.567273 
L 189.471515 105.320963 
L 193.888434 111.001616 
L 198.326678 117.262222 
L 202.436061 123.650859 
L 206.009074 129.783434 
L 208.918333 135.262082 
L 211.333078 140.217778 
L 214.096905 146.478384 
L 216.562013 152.73899 
L 218.739985 158.999596 
L 220.641814 165.260202 
L 222.277935 171.520808 
L 223.653411 177.781414 
L 224.774669 184.04202 
L 225.649111 190.302626 
L 226.280645 196.563232 
L 226.666368 202.823838 
L 226.813105 209.084444 
L 226.720856 215.345051 
L 226.389619 221.605657 
L 225.814607 227.866263 
L 225.295306 232.04 
L 225.295306 232.04 
" style="fill:none;stroke:#bcd2f7;"/>
   </g>
   <g id="LineCollection_18">
    <path clip-path="url(#pf93b3a01e2)" d="M 42.54 35.439217 
L 49.022273 35.242983 
L 55.504545 35.270763 
L 61.986818 35.522558 
L 68.469091 35.999865 
L 74.951364 36.708136 
L 81.433636 37.643126 
L 87.915909 38.815143 
L 94.398182 40.222668 
L 101.801509 42.134949 
L 107.362727 43.785621 
L 113.845 45.95362 
L 120.336639 48.395556 
L 126.809545 51.118974 
L 133.291818 54.142152 
L 138.391103 56.74303 
L 144.095606 59.897185 
L 149.283757 63.003636 
L 154.899394 66.638827 
L 159.220909 69.643152 
L 164.318217 73.43798 
L 169.522833 77.611717 
L 174.357936 81.785455 
L 178.858837 85.959192 
L 183.066386 90.132929 
L 187.310758 94.644153 
L 191.632273 99.583396 
L 195.953788 104.914651 
L 200.481957 111.001616 
L 204.73053 117.262222 
L 208.595842 123.522828 
L 211.079091 127.884048 
L 214.262272 133.957172 
L 217.23448 140.217778 
L 219.904093 146.478384 
L 222.284534 152.73899 
L 224.390663 158.999596 
L 226.232595 165.260202 
L 227.813251 171.520808 
L 229.145332 177.781414 
L 230.234629 184.04202 
L 231.0811 190.302626 
L 231.690823 196.563232 
L 232.067294 202.823838 
L 232.21051 209.084444 
L 232.120474 215.345051 
L 231.797183 221.605657 
L 231.24064 227.866263 
L 230.740025 232.04 
L 230.740025 232.04 
" style="fill:none;stroke:#c5d6f2;"/>
   </g>
   <g id="LineCollection_19">
    <path clip-path="url(#pf93b3a01e2)" d="M 42.54 30.372812 
L 49.022273 30.18115 
L 55.504545 30.208283 
L 61.986818 30.454211 
L 68.469091 30.918935 
L 75.718502 31.700606 
L 81.433636 32.514246 
L 88.618318 33.787475 
L 94.398182 35.01878 
L 100.880455 36.623598 
L 107.362727 38.471623 
L 113.845 40.571882 
L 120.327273 42.93385 
L 126.809545 45.567488 
L 133.291818 48.484405 
L 139.774091 51.708144 
L 145.211267 54.656162 
L 150.577879 57.799612 
L 155.527449 60.916768 
L 161.660442 65.090505 
L 167.863939 69.695223 
L 172.535628 73.43798 
L 177.398176 77.611717 
L 181.938551 81.785455 
L 186.187747 85.959192 
L 190.172902 90.132929 
L 193.917887 94.306667 
L 198.114545 99.31863 
L 202.436061 104.885166 
L 206.797551 111.001616 
L 211.079091 117.589669 
L 214.595116 123.522828 
L 217.981849 129.783434 
L 221.051312 136.04404 
L 223.825647 142.304646 
L 226.314498 148.565253 
L 228.53042 154.825859 
L 230.525909 161.227683 
L 232.184089 167.347071 
L 233.637669 173.607677 
L 234.854716 179.868283 
L 235.829805 186.128889 
L 236.577104 192.389495 
L 237.09559 198.650101 
L 237.383934 204.910707 
L 237.447126 211.171313 
L 237.285165 217.431919 
L 236.896764 223.692525 
L 236.277328 229.953131 
L 236.02023 232.04 
L 236.02023 232.04 
" style="fill:none;stroke:#ccd9ed;"/>
   </g>
   <g id="LineCollection_20">
    <path clip-path="url(#pf93b3a01e2)" d="M 42.54 25.442084 
L 42.592239 25.44 
" style="fill:none;stroke:#d3dbe7;"/>
    <path clip-path="url(#pf93b3a01e2)" d="M 60.288661 25.44 
L 66.308333 25.800634 
L 72.790606 26.39732 
L 79.272879 27.207818 
L 85.755152 28.240252 
L 92.799528 29.613737 
L 98.719697 30.976993 
L 105.20197 32.693118 
L 111.684242 34.649304 
L 118.166515 36.854245 
L 124.648788 39.317059 
L 131.32734 42.134949 
L 137.613333 45.065632 
L 144.12991 48.395556 
L 150.577879 52.011917 
L 154.959893 54.656162 
L 161.381667 58.832158 
L 167.863939 63.43719 
L 172.738562 67.177374 
L 177.816258 71.351111 
L 182.989242 75.919138 
L 187.310758 80.006419 
L 191.632273 84.366905 
L 195.953788 89.028936 
L 200.510137 94.306667 
L 204.596818 99.409297 
L 208.567858 104.74101 
L 211.473437 108.914747 
L 215.523822 115.175354 
L 219.223263 121.43596 
L 221.882879 126.319484 
L 224.678186 131.870303 
L 227.552192 138.130909 
L 230.146564 144.391515 
L 232.471364 150.652121 
L 234.536176 156.912727 
L 236.350137 163.173333 
L 237.921959 169.433939 
L 239.259957 175.694545 
L 240.361108 181.955152 
L 241.329697 188.987515 
L 241.889281 194.476364 
L 242.317803 200.73697 
L 242.526269 206.997576 
L 242.514679 213.258182 
L 242.283032 219.518788 
L 241.831329 225.779394 
L 241.157623 232.04 
L 241.157623 232.04 
" style="fill:none;stroke:#d3dbe7;"/>
   </g>
   <g id="LineCollection_21">
    <path clip-path="url(#pf93b3a01e2)" d="M 96.180473 25.44 
L 100.880455 26.564002 
L 107.362727 28.309942 
L 113.845 30.291044 
L 120.327273 32.515623 
L 126.809545 34.992393 
L 133.807574 37.961212 
L 139.774091 40.748032 
L 146.570595 44.221818 
L 152.738636 47.671156 
L 157.415463 50.482424 
L 163.859554 54.656162 
L 170.024697 58.996797 
L 175.295086 63.003636 
L 180.828485 67.523057 
L 185.208966 71.351111 
L 189.694466 75.524848 
L 193.90964 79.698586 
L 198.114545 84.133109 
L 202.436061 89.003529 
L 206.824562 94.306667 
L 211.602793 100.567273 
L 215.989301 106.827879 
L 220.014074 113.088485 
L 223.699841 119.349091 
L 226.204394 123.947786 
L 229.147829 129.783434 
L 232.028866 136.04404 
L 234.63673 142.304646 
L 237.008182 148.6429 
L 239.168939 155.142354 
L 240.915083 161.086465 
L 242.52193 167.347071 
L 243.899401 173.607677 
L 245.048442 179.868283 
L 245.976251 186.128889 
L 246.682205 192.389495 
L 247.172972 198.650101 
L 247.448553 204.910707 
L 247.508948 211.171313 
L 247.354157 217.431919 
L 246.984179 223.692525 
L 246.399015 229.953131 
L 246.156141 232.04 
L 246.156141 232.04 
" style="fill:none;stroke:#d9dce1;"/>
   </g>
   <g id="LineCollection_22">
    <path clip-path="url(#pf93b3a01e2)" d="M 114.085983 25.44 
L 120.327384 27.526869 
L 126.809545 29.936398 
L 133.291818 32.599546 
L 139.774091 35.525346 
L 146.256364 38.732621 
L 152.738636 42.231264 
L 159.644848 46.308687 
L 166.126282 50.482424 
L 172.185455 54.712156 
L 178.667727 59.626205 
L 182.989242 63.137304 
L 187.667624 67.177374 
L 192.207607 71.351111 
L 196.478044 75.524848 
L 200.502247 79.698586 
L 204.596818 84.213171 
L 209.595902 90.132929 
L 213.239848 94.76528 
L 217.561364 100.658661 
L 221.882879 107.06238 
L 225.620828 113.088485 
L 229.190072 119.349091 
L 232.686667 126.069091 
L 235.439253 131.870303 
L 238.14738 138.130909 
L 240.595673 144.391515 
L 242.792951 150.652121 
L 244.747641 156.912727 
L 246.467795 163.173333 
L 247.961114 169.433939 
L 249.226892 175.694545 
L 250.276513 181.955152 
L 251.107533 188.215758 
L 251.728026 194.476364 
L 252.137943 200.73697 
L 252.335246 206.997576 
L 252.324276 213.258182 
L 252.104726 219.518788 
L 251.672583 225.779394 
L 251.029913 232.04 
L 251.029913 232.04 
" style="fill:none;stroke:#e0dbd8;"/>
   </g>
   <g id="LineCollection_23">
    <path clip-path="url(#pf93b3a01e2)" d="M 256.455 225.304981 
L 256.417742 225.779394 
L 256.230955 227.866263 
L 256.021272 229.953131 
L 255.788692 232.04 
" style="fill:none;stroke:#e6d7cf;"/>
    <path clip-path="url(#pf93b3a01e2)" d="M 127.900789 25.44 
L 133.291818 27.608819 
L 139.774091 30.456934 
L 146.688959 33.787475 
L 152.738636 36.967394 
L 159.220909 40.663044 
L 165.703182 44.678536 
L 172.185455 49.038844 
L 177.071588 52.569293 
L 182.989242 57.149253 
L 187.541274 60.916768 
L 192.283443 65.090505 
L 196.74406 69.264242 
L 200.947478 73.43798 
L 204.915318 77.611717 
L 208.918333 82.078365 
L 213.906153 88.046061 
L 217.561364 92.736187 
L 221.882879 98.679289 
L 226.204394 105.128477 
L 229.831498 111.001616 
L 233.395592 117.262222 
L 236.665577 123.522828 
L 239.654092 129.783434 
L 242.375489 136.04404 
L 244.842569 142.304646 
L 247.063774 148.565253 
L 249.047177 154.825859 
L 250.800501 161.086465 
L 252.331139 167.347071 
L 253.639227 173.607677 
L 254.73433 179.868283 
L 255.616427 186.128889 
L 256.292459 192.389495 
L 256.455 194.278662 
L 256.455 194.278662 
" style="fill:none;stroke:#e6d7cf;"/>
   </g>
   <g id="LineCollection_24">
    <path clip-path="url(#pf93b3a01e2)" d="M 139.584197 25.44 
L 139.774091 25.524291 
L 141.934848 26.507169 
L 144.095606 27.513805 
L 144.123002 27.526869 
L 146.256364 28.555912 
L 148.399971 29.613737 
L 148.417121 29.622299 
L 150.577879 30.72532 
L 152.447212 31.700606 
L 152.738636 31.854443 
L 154.899394 33.019658 
L 156.293786 33.787475 
L 157.060152 34.214504 
L 159.220909 35.443399 
L 159.963594 35.874343 
L 161.381667 36.707116 
L 163.475612 37.961212 
L 163.542424 38.001716 
L 165.703182 39.337137 
L 166.831959 40.048081 
L 167.863939 40.706098 
L 170.024697 42.109667 
L 170.062916 42.134949 
L 172.185455 43.556636 
L 173.160937 44.221818 
L 174.346212 45.04031 
L 176.15096 46.308687 
L 176.50697 46.562105 
L 178.667727 48.127003 
L 179.03229 48.395556 
L 180.828485 49.735929 
L 181.812271 50.482424 
L 182.989242 51.387284 
L 184.501658 52.569293 
L 185.15 53.082767 
L 187.104807 54.656162 
L 187.310758 54.824173 
L 189.471515 56.615147 
L 189.623406 56.74303 
L 191.632273 58.457602 
L 192.061799 58.829899 
L 193.79303 60.351349 
L 194.426716 60.916768 
L 195.953788 62.29856 
L 196.721428 63.003636 
L 198.114545 64.301532 
L 198.949016 65.090505 
L 200.275303 66.362694 
L 201.112383 67.177374 
L 202.436061 68.484619 
L 203.214266 69.264242 
L 204.596818 70.670036 
L 205.257249 71.351111 
L 206.757576 72.921836 
L 207.243775 73.43798 
L 208.918333 75.243091 
L 209.176151 75.524848 
L 211.056255 77.611717 
L 211.079091 77.637468 
L 212.882333 79.698586 
L 213.239848 80.113836 
L 214.659956 81.785455 
L 215.400606 82.671608 
L 216.391028 83.872323 
L 217.561364 85.314864 
L 218.077352 85.959192 
L 219.720624 88.046061 
L 219.722121 88.047995 
L 221.315377 90.132929 
L 221.882879 90.888628 
L 222.869945 92.219798 
L 224.043636 93.830999 
L 224.385829 94.306667 
L 225.860226 96.393535 
L 226.204394 96.889721 
L 227.294178 98.480404 
L 228.365152 100.073213 
L 228.693315 100.567273 
L 230.053218 102.654141 
L 230.525909 103.393788 
L 231.376562 104.74101 
L 232.668319 106.827879 
L 232.686667 106.858126 
L 233.919374 108.914747 
L 234.847424 110.495449 
L 235.141121 111.001616 
L 236.326687 113.088485 
L 237.008182 114.314241 
L 237.4814 115.175354 
L 238.603206 117.262222 
L 239.168939 118.338647 
L 239.693917 119.349091 
L 240.753423 121.43596 
L 241.329697 122.598153 
L 241.783009 123.522828 
L 242.781624 125.609697 
L 243.490455 127.128164 
L 243.75282 127.696566 
L 244.691907 129.783434 
L 245.606817 131.870303 
L 245.651212 131.974316 
L 246.488184 133.957172 
L 247.345151 136.04404 
L 247.81197 137.213454 
L 248.174201 138.130909 
L 248.974493 140.217778 
L 249.751137 142.304646 
L 249.972727 142.918765 
L 250.498381 144.391515 
L 251.219834 146.478384 
L 251.917894 148.565253 
L 252.133485 149.232111 
L 252.587647 150.652121 
L 253.231949 152.73899 
L 253.853109 154.825859 
L 254.294242 156.365252 
L 254.449466 156.912727 
L 255.018252 158.999596 
L 255.564142 161.086465 
L 256.087136 163.173333 
L 256.455 164.708399 
" style="fill:none;stroke:#ebd3c6;"/>
   </g>
   <g id="LineCollection_25">
    <path clip-path="url(#pf93b3a01e2)" d="M 149.883158 25.44 
L 150.577879 25.786565 
L 152.738636 26.888229 
L 153.964795 27.526869 
L 154.899394 28.019256 
L 157.060152 29.181667 
L 157.847042 29.613737 
L 159.220909 30.376896 
L 161.381667 31.60147 
L 161.553188 31.700606 
L 163.542424 32.863905 
L 165.091569 33.787475 
L 165.703182 34.156456 
L 167.863939 35.484912 
L 168.485707 35.874343 
L 170.024697 36.849894 
L 171.746205 37.961212 
L 172.185455 38.248233 
L 174.346212 39.68565 
L 174.88153 40.048081 
L 176.50697 41.162178 
L 177.901904 42.134949 
L 178.667727 42.675693 
L 180.820534 44.221818 
L 180.828485 44.227601 
L 182.989242 45.825588 
L 183.631832 46.308687 
L 185.15 47.464707 
L 186.352857 48.395556 
L 187.310758 49.146488 
L 188.988007 50.482424 
L 189.471515 50.872619 
L 191.541284 52.569293 
L 191.632273 52.644876 
L 193.79303 54.467688 
L 194.01308 54.656162 
L 195.953788 56.340894 
L 196.410148 56.74303 
L 198.114545 58.265532 
L 198.737098 58.829899 
L 200.275303 60.24375 
L 200.996961 60.916768 
L 202.436061 62.277816 
L 203.192599 63.003636 
L 204.596818 64.37013 
L 205.326709 65.090505 
L 206.757576 66.52323 
L 207.401844 67.177374 
L 208.918333 68.739804 
L 209.420414 69.264242 
L 211.079091 71.022701 
L 211.384701 71.351111 
L 213.239848 73.374942 
L 213.296865 73.43798 
L 215.155749 75.524848 
L 215.400606 75.804043 
L 216.965206 77.611717 
L 217.561364 78.311454 
L 218.72789 79.698586 
L 219.722121 80.899957 
L 220.445592 81.785455 
L 221.882879 83.573549 
L 222.120011 83.872323 
L 223.749099 85.959192 
L 224.043636 86.342908 
L 225.334698 88.046061 
L 226.204394 89.213188 
L 226.881325 90.132929 
L 228.365152 92.18446 
L 228.3904 92.219798 
L 229.85523 94.306667 
L 230.525909 95.279572 
L 231.284617 96.393535 
L 232.680043 98.480404 
L 232.686667 98.490497 
L 234.033398 100.567273 
L 234.847424 101.846784 
L 235.355049 102.654141 
L 236.641855 104.74101 
L 237.008182 105.347018 
L 237.892986 106.827879 
L 239.11486 108.914747 
L 239.168939 109.009042 
L 240.298637 111.001616 
L 241.329697 112.859036 
L 241.455623 113.088485 
L 242.576492 115.175354 
L 243.490455 116.914946 
L 243.670868 117.262222 
L 244.730841 119.349091 
L 245.651212 121.203409 
L 245.765359 121.43596 
L 246.765783 123.522828 
L 247.742298 125.609697 
L 247.81197 125.762326 
L 248.68524 127.696566 
L 249.603772 129.783434 
L 249.972727 130.643837 
L 250.492963 131.870303 
L 251.354767 133.957172 
L 252.133485 135.895457 
L 252.19254 136.04404 
L 252.998831 138.130909 
L 253.781982 140.217778 
L 254.294242 141.624368 
L 254.539365 142.304646 
L 255.268425 144.391515 
L 255.974588 146.478384 
L 256.455 147.945682 
" style="fill:none;stroke:#efcebd;"/>
   </g>
   <g id="LineCollection_26">
    <path clip-path="url(#pf93b3a01e2)" d="M 159.209718 25.44 
L 159.220909 25.446075 
L 161.381667 26.642767 
L 162.946934 27.526869 
L 163.542424 27.867089 
L 165.703182 29.125623 
L 166.525516 29.613737 
L 167.863939 30.417442 
L 169.961513 31.700606 
L 170.024697 31.739713 
L 172.185455 33.101706 
L 173.254105 33.787475 
L 174.346212 34.496655 
L 176.430815 35.874343 
L 176.50697 35.925281 
L 178.667727 37.395728 
L 179.484686 37.961212 
L 180.828485 38.902731 
L 182.436127 40.048081 
L 182.989242 40.447017 
L 185.15 42.031285 
L 185.289119 42.134949 
L 187.310758 43.660235 
L 188.043344 44.221818 
L 189.471515 45.330506 
L 190.711996 46.308687 
L 191.632273 47.043692 
L 193.299004 48.395556 
L 193.79303 48.801468 
L 195.808057 50.482424 
L 195.953788 50.605598 
L 198.114545 52.459407 
L 198.240753 52.569293 
L 200.275303 54.364401 
L 200.601213 54.656162 
L 202.436061 56.320992 
L 202.894588 56.74303 
L 204.596818 58.331305 
L 205.123698 58.829899 
L 206.757576 60.397582 
L 207.291207 60.916768 
L 208.918333 62.522194 
L 209.399633 63.003636 
L 211.079091 64.707647 
L 211.451359 65.090505 
L 213.239848 66.956591 
L 213.448643 67.177374 
L 215.39353 69.264242 
L 215.400606 69.271949 
L 217.284751 71.351111 
L 217.561364 71.66099 
L 219.127086 73.43798 
L 219.722121 74.12372 
L 220.922405 75.524848 
L 221.882879 76.6636 
L 222.672487 77.611717 
L 224.043636 79.284315 
L 224.379019 79.698586 
L 226.041607 81.785455 
L 226.204394 81.993142 
L 227.659209 83.872323 
L 228.365152 84.799426 
L 229.237535 85.959192 
L 230.525909 87.701093 
L 230.778 88.046061 
L 232.277094 90.132929 
L 232.686667 90.713121 
L 233.737665 92.219798 
L 234.847424 93.839204 
L 235.164019 94.306667 
L 236.552064 96.393535 
L 237.008182 97.092026 
L 237.904303 98.480404 
L 239.168939 100.47681 
L 239.225588 100.567273 
L 240.507668 102.654141 
L 241.329697 104.018492 
L 241.760092 104.74101 
L 242.978763 106.827879 
L 243.490455 107.722046 
L 244.165347 108.914747 
L 245.322028 111.001616 
L 245.651212 111.608205 
L 246.445643 113.088485 
L 247.541705 115.175354 
L 247.81197 115.701403 
L 248.605083 117.262222 
L 249.641854 119.349091 
L 249.972727 120.030636 
L 250.647592 121.43596 
L 251.626355 123.522828 
L 252.133485 124.630578 
L 252.576926 125.609697 
L 253.498925 127.696566 
L 254.294242 129.543047 
L 254.396685 129.783434 
L 255.263121 131.870303 
L 256.106662 133.957172 
L 256.455 134.842984 
" style="fill:none;stroke:#f3c8b2;"/>
   </g>
   <g id="LineCollection_27">
    <path clip-path="url(#pf93b3a01e2)" d="M 167.786065 25.44 
L 167.863939 25.485698 
L 170.024697 26.777418 
L 171.255718 27.526869 
L 172.185455 28.099414 
L 174.346212 29.45407 
L 174.596452 29.613737 
L 176.50697 30.846957 
L 177.806795 31.700606 
L 178.667727 32.27268 
L 180.828485 33.733061 
L 180.907661 33.787475 
L 182.989242 35.235102 
L 183.893448 35.874343 
L 185.15 36.773405 
L 186.783493 37.961212 
L 187.310758 38.349301 
L 189.471515 39.965209 
L 189.580608 40.048081 
L 191.632273 41.625894 
L 192.284082 42.134949 
L 193.79303 43.328179 
L 194.906092 44.221818 
L 195.953788 45.073646 
L 197.450265 46.308687 
L 198.114545 46.863959 
L 199.920017 48.395556 
L 200.275303 48.70087 
L 202.318566 50.482424 
L 202.436061 50.586221 
L 204.596818 52.522578 
L 204.648216 52.569293 
L 206.757576 54.512068 
L 206.911864 54.656162 
L 208.918333 56.555442 
L 209.113807 56.74303 
L 211.079091 58.654921 
L 211.256537 58.829899 
L 213.239848 60.812847 
L 213.342409 60.916768 
L 215.3733 63.003636 
L 215.400606 63.032097 
L 217.349664 65.090505 
L 217.561364 65.31733 
L 219.27494 67.177374 
L 219.722121 67.669932 
L 221.151085 69.264242 
L 221.882879 70.092928 
L 222.979955 71.351111 
L 224.043636 72.589524 
L 224.763315 73.43798 
L 226.204394 75.163125 
L 226.502842 75.524848 
L 228.198106 77.611717 
L 228.365152 77.820622 
L 229.848585 79.698586 
L 230.525909 80.569914 
L 231.459472 81.785455 
L 232.686667 83.40958 
L 233.032173 83.872323 
L 234.564719 85.959192 
L 234.847424 86.350694 
L 236.057315 88.046061 
L 237.008182 89.401503 
L 237.515349 90.132929 
L 238.937358 92.219798 
L 239.168939 92.565742 
L 240.321011 94.306667 
L 241.329697 95.858712 
L 241.673349 96.393535 
L 242.989823 98.480404 
L 243.490455 99.289021 
L 244.272992 100.567273 
L 245.526381 102.654141 
L 245.651212 102.86607 
L 246.743373 104.74101 
L 247.81197 106.612302 
L 247.933727 106.827879 
L 249.088738 108.914747 
L 249.972727 110.54532 
L 250.217423 111.001616 
L 251.313146 113.088485 
L 252.133485 114.68495 
L 252.382779 115.175354 
L 253.420484 117.262222 
L 254.294242 119.059466 
L 254.433556 119.349091 
L 255.414473 121.43596 
L 256.372494 123.522828 
L 256.455 123.706952 
" style="fill:none;stroke:#f5c1a9;"/>
   </g>
   <g id="LineCollection_28">
    <path clip-path="url(#pf93b3a01e2)" d="M 175.769115 25.44 
L 176.50697 25.905434 
L 178.667727 27.292182 
L 179.027244 27.526869 
L 180.828485 28.716228 
L 182.165215 29.613737 
L 182.989242 30.173452 
L 185.15 31.665442 
L 185.20011 31.700606 
L 187.310758 33.1992 
L 188.126221 33.787475 
L 189.471515 34.769545 
L 190.96142 35.874343 
L 191.632273 36.377801 
L 193.709878 37.961212 
L 193.79303 38.02536 
L 195.953788 39.717764 
L 196.369257 40.048081 
L 198.114545 41.452831 
L 198.949628 42.134949 
L 200.275303 43.23136 
L 201.455607 44.221818 
L 202.436061 45.055006 
L 203.890365 46.308687 
L 204.596818 46.925507 
L 206.256896 48.395556 
L 206.757576 48.844692 
L 208.558028 50.482424 
L 208.918333 50.814488 
L 210.796434 52.569293 
L 211.079091 52.836922 
L 212.974646 54.656162 
L 213.239848 54.914134 
L 215.095059 56.74303 
L 215.400606 57.048378 
L 217.159944 58.829899 
L 217.561364 59.242038 
L 219.171453 60.916768 
L 219.722121 61.497629 
L 221.131629 63.003636 
L 221.882879 63.817811 
L 223.042414 65.090505 
L 224.043636 66.2054 
L 224.90565 67.177374 
L 226.204394 68.663374 
L 226.72309 69.264242 
L 228.365152 71.194895 
L 228.496403 71.351111 
L 230.22355 73.43798 
L 230.525909 73.808947 
L 231.90769 75.524848 
L 232.686667 76.507337 
L 233.551908 77.611717 
L 234.847424 79.291606 
L 235.157608 79.698586 
L 236.722822 81.785455 
L 237.008182 82.172172 
L 238.248202 83.872323 
L 239.168939 85.155812 
L 239.738665 85.959192 
L 241.193859 88.046061 
L 241.329697 88.244232 
L 242.609673 90.132929 
L 243.490455 91.455452 
L 243.993803 92.219798 
L 245.343901 94.306667 
L 245.651212 94.790344 
L 246.65855 96.393535 
L 247.81197 98.26331 
L 247.944424 98.480404 
L 249.194027 100.567273 
L 249.972727 101.892808 
L 250.41514 102.654141 
L 251.60443 104.74101 
L 252.133485 105.687977 
L 252.763509 106.827879 
L 253.89378 108.914747 
L 254.294242 109.669594 
L 254.993421 111.001616 
L 256.065923 113.088485 
L 256.455 113.862063 
" style="fill:none;stroke:#f7ba9f;"/>
   </g>
   <g id="LineCollection_29">
    <path clip-path="url(#pf93b3a01e2)" d="M 183.274875 25.44 
L 185.15 26.705283 
L 186.348053 27.526869 
L 187.310758 28.194662 
L 189.324243 29.613737 
L 189.471515 29.718742 
L 191.632273 31.283663 
L 192.199158 31.700606 
L 193.79303 32.886713 
L 194.985223 33.787475 
L 195.953788 34.528002 
L 197.688582 35.874343 
L 198.114545 36.208916 
L 200.275303 37.931273 
L 200.312321 37.961212 
L 202.436061 39.699807 
L 202.85544 40.048081 
L 204.596818 41.512095 
L 205.327295 42.134949 
L 206.757576 43.369779 
L 207.73084 44.221818 
L 208.918333 45.274588 
L 210.068869 46.308687 
L 211.079091 47.228337 
L 212.344024 48.395556 
L 213.239848 49.232937 
L 214.558807 50.482424 
L 215.400606 51.290399 
L 216.715591 52.569293 
L 217.561364 53.402843 
L 218.816624 54.656162 
L 219.722121 55.572502 
L 220.864039 56.74303 
L 221.882879 57.801733 
L 222.859865 58.829899 
L 224.043636 60.093024 
L 224.806025 60.916768 
L 226.204394 62.449001 
L 226.704352 63.003636 
L 228.365152 64.872445 
L 228.556588 65.090505 
L 230.362429 67.177374 
L 230.525909 67.369079 
L 232.122655 69.264242 
L 232.686667 69.943678 
L 233.841155 71.351111 
L 234.847424 72.596483 
L 235.519396 73.43798 
L 237.008182 75.331111 
L 237.158776 75.524848 
L 238.755903 77.611717 
L 239.168939 78.159995 
L 240.314746 79.698586 
L 241.329697 81.083501 
L 241.838311 81.785455 
L 243.32594 83.872323 
L 243.490455 84.106964 
L 244.774587 85.959192 
L 245.651212 87.245122 
L 246.191174 88.046061 
L 247.574152 90.132929 
L 247.81197 90.498102 
L 248.920949 92.219798 
L 249.972727 93.881931 
L 250.238586 94.306667 
L 251.521444 96.393535 
L 252.133485 97.407654 
L 252.773977 98.480404 
L 253.996813 100.567273 
L 254.294242 101.08465 
L 255.186948 102.654141 
L 256.351034 104.74101 
L 256.455 104.93113 
" style="fill:none;stroke:#f7b396;"/>
   </g>
   <g id="LineCollection_30">
    <path clip-path="url(#pf93b3a01e2)" d="M 190.371675 25.44 
L 191.632273 26.332197 
L 193.294421 27.526869 
L 193.79303 27.889372 
L 195.953788 29.484334 
L 196.126493 29.613737 
L 198.114545 31.12068 
L 198.86843 31.700606 
L 200.275303 32.7956 
L 201.531316 33.787475 
L 202.436061 34.510474 
L 204.118522 35.874343 
L 204.596818 36.266749 
L 206.633229 37.961212 
L 206.757576 38.065943 
L 208.918333 39.91134 
L 209.07626 40.048081 
L 211.079091 41.803686 
L 211.451921 42.134949 
L 213.239848 43.743435 
L 213.764544 44.221818 
L 215.400606 45.73239 
L 216.016605 46.308687 
L 217.561364 47.772447 
L 218.210453 48.395556 
L 219.722121 49.865602 
L 220.348315 50.482424 
L 221.882879 52.013954 
L 222.432307 52.569293 
L 224.043636 54.219717 
L 224.464441 54.656162 
L 226.204394 56.485223 
L 226.446628 56.74303 
L 228.365152 58.812932 
L 228.380687 58.829899 
L 230.265224 60.916768 
L 230.525909 61.209516 
L 232.104366 63.003636 
L 232.686667 63.674972 
L 233.899913 65.090505 
L 234.847424 66.212055 
L 235.653395 67.177374 
L 237.008182 68.823932 
L 237.366275 69.264242 
L 239.038452 71.351111 
L 239.168939 71.516433 
L 240.668253 73.43798 
L 241.329697 74.298772 
L 242.261169 75.524848 
L 243.490455 77.168275 
L 243.818439 77.611717 
L 245.337777 79.698586 
L 245.651212 80.136063 
L 246.819861 81.785455 
L 247.81197 83.208697 
L 248.269505 83.872323 
L 249.684643 85.959192 
L 249.972727 86.391243 
L 251.064187 88.046061 
L 252.133485 89.695304 
L 252.414183 90.132929 
L 253.729585 92.219798 
L 254.294242 93.131662 
L 255.014135 94.306667 
L 256.269807 96.393535 
L 256.455 96.707035 
" style="fill:none;stroke:#f7a98b;"/>
   </g>
   <g id="LineCollection_31">
    <path clip-path="url(#pf93b3a01e2)" d="M 197.125098 25.44 
L 198.114545 26.172925 
L 199.915635 27.526869 
L 200.275303 27.800358 
L 202.436061 29.467412 
L 202.623026 29.613737 
L 204.596818 31.176492 
L 205.24951 31.700606 
L 206.757576 32.925862 
L 207.803411 33.787475 
L 208.918333 34.716961 
L 210.287697 35.874343 
L 211.079091 36.551301 
L 212.705177 37.961212 
L 213.239848 38.430468 
L 215.058508 40.048081 
L 215.400606 40.356125 
L 217.350211 42.134949 
L 217.561364 42.330018 
L 219.582676 44.221818 
L 219.722121 44.353984 
L 221.75817 46.308687 
L 221.882879 46.429952 
L 223.878846 48.395556 
L 224.043636 48.559951 
L 225.94675 50.482424 
L 226.204394 50.74612 
L 227.963829 52.569293 
L 228.365152 52.99071 
L 229.931933 54.656162 
L 230.525909 55.296095 
L 231.852824 56.74303 
L 232.686667 57.664777 
L 233.728182 58.829899 
L 234.847424 60.099401 
L 235.559605 60.916768 
L 237.008182 62.602759 
L 237.348621 63.003636 
L 239.095849 65.090505 
L 239.168939 65.179072 
L 240.799185 67.177374 
L 241.329697 67.837244 
L 242.463972 69.264242 
L 243.490455 70.574951 
L 244.091503 71.351111 
L 245.651212 73.395819 
L 245.683017 73.43798 
L 247.233361 75.524848 
L 247.81197 76.315894 
L 248.749423 77.611717 
L 249.972727 79.329573 
L 250.23266 79.698586 
L 251.679262 81.785455 
L 252.133485 82.451487 
L 253.092094 83.872323 
L 254.294242 85.683905 
L 254.474985 85.959192 
L 255.82224 88.046061 
L 256.455 89.043136 
" style="fill:none;stroke:#f5a081;"/>
   </g>
   <g id="LineCollection_32">
    <path clip-path="url(#pf93b3a01e2)" d="M 203.57906 25.44 
L 204.596818 26.227466 
L 206.252698 27.526869 
L 206.757576 27.927619 
L 208.85245 29.613737 
L 208.918333 29.667383 
L 211.079091 31.4511 
L 211.377274 31.700606 
L 213.239848 33.277497 
L 213.834227 33.787475 
L 215.400606 35.147462 
L 216.226838 35.874343 
L 217.561364 37.062572 
L 218.557602 37.961212 
L 219.722121 39.024482 
L 220.828887 40.048081 
L 221.882879 41.034929 
L 223.042941 42.134949 
L 224.043636 43.095737 
L 225.201899 44.221818 
L 226.204394 45.208822 
L 227.307794 46.308687 
L 228.365152 47.376198 
L 229.362557 48.395556 
L 230.525909 49.599985 
L 231.368029 50.482424 
L 232.686667 51.882416 
L 233.325962 52.569293 
L 234.847424 54.225839 
L 235.238026 54.656162 
L 237.008182 56.632734 
L 237.105816 56.74303 
L 238.928094 58.829899 
L 239.168939 59.109554 
L 240.707542 60.916768 
L 241.329697 61.657855 
L 242.446718 63.003636 
L 243.490455 64.27913 
L 244.146974 65.090505 
L 245.651212 66.976558 
L 245.809602 67.177374 
L 247.431676 69.264242 
L 247.81197 69.760827 
L 249.016511 71.351111 
L 249.972727 72.63272 
L 250.567032 73.43798 
L 252.08381 75.524848 
L 252.133485 75.594265 
L 253.561733 77.611717 
L 254.294242 78.662878 
L 255.008336 79.698586 
L 256.42428 81.785455 
L 256.455 81.831475 
" style="fill:none;stroke:#f39778;"/>
   </g>
   <g id="LineCollection_33">
    <path clip-path="url(#pf93b3a01e2)" d="M 209.770292 25.44 
L 211.079091 26.495821 
L 212.339995 27.526869 
L 213.239848 28.271156 
L 214.841511 29.613737 
L 215.400606 30.087854 
L 217.277518 31.700606 
L 217.561364 31.947377 
L 219.650557 33.787475 
L 219.722121 33.851258 
L 221.882879 35.801977 
L 221.962027 35.874343 
L 224.043636 37.800561 
L 224.215088 37.961212 
L 226.204394 39.847984 
L 226.412772 40.048081 
L 228.365152 41.946061 
L 228.557095 42.134949 
L 230.525909 44.096693 
L 230.649979 44.221818 
L 232.686667 46.30188 
L 232.693253 46.308687 
L 234.686776 48.395556 
L 234.847424 48.565914 
L 236.633521 50.482424 
L 237.008182 50.889742 
L 238.535188 52.569293 
L 239.168939 53.275669 
L 240.393324 54.656162 
L 241.329697 55.726219 
L 242.209408 56.74303 
L 243.490455 58.244053 
L 243.98485 58.829899 
L 245.651212 60.83198 
L 245.721001 60.916768 
L 247.414804 63.003636 
L 247.81197 63.499976 
L 249.070767 65.090505 
L 249.972727 66.246714 
L 250.690877 67.177374 
L 252.133485 69.074426 
L 252.276284 69.264242 
L 253.8231 71.351111 
L 254.294242 71.996402 
L 255.335621 73.43798 
L 256.455 75.01143 
" style="fill:none;stroke:#f18d6f;"/>
   </g>
   <g id="LineCollection_34">
    <path clip-path="url(#pf93b3a01e2)" d="M 215.729757 25.44 
L 217.561364 26.97799 
L 218.20658 27.526869 
L 219.722121 28.830969 
L 220.620197 29.613737 
L 221.882879 30.72712 
L 222.972995 31.700606 
L 224.043636 32.667969 
L 225.267246 33.787475 
L 226.204394 34.655117 
L 227.505108 35.874343 
L 228.365152 36.690238 
L 229.688634 37.961212 
L 230.525909 38.775093 
L 231.81978 40.048081 
L 232.686667 40.911526 
L 233.900408 42.134949 
L 234.847424 43.101476 
L 235.932294 44.221818 
L 237.008182 45.346978 
L 237.91713 46.308687 
L 239.168939 47.650174 
L 239.856531 48.395556 
L 241.329697 50.013317 
L 241.752041 50.482424 
L 243.490455 52.438777 
L 243.605133 52.569293 
L 245.414596 54.656162 
L 245.651212 54.932748 
L 247.182745 56.74303 
L 247.81197 57.496988 
L 248.912193 58.829899 
L 249.972727 60.132613 
L 250.604194 60.916768 
L 252.133485 62.842646 
L 252.259954 63.003636 
L 253.876194 65.090505 
L 254.294242 65.638125 
L 255.456841 67.177374 
L 256.455 68.518388 
" style="fill:none;stroke:#ec8165;"/>
   </g>
   <g id="LineCollection_35">
    <path clip-path="url(#pf93b3a01e2)" d="M 221.478641 25.44 
L 221.882879 25.788325 
L 223.875071 27.526869 
L 224.043636 27.675666 
L 226.204394 29.607058 
L 226.211775 29.613737 
L 228.365152 31.585181 
L 228.489698 31.700606 
L 230.525909 33.609936 
L 230.712975 33.787475 
L 232.686667 35.682989 
L 232.883551 35.874343 
L 234.847424 37.806092 
L 235.003277 37.961212 
L 237.008182 39.981077 
L 237.07392 40.048081 
L 239.096333 42.134949 
L 239.168939 42.210808 
L 241.071699 44.221818 
L 241.329697 44.497952 
L 243.00236 46.308687 
L 243.490455 46.843859 
L 244.889816 48.395556 
L 245.651212 49.250825 
L 246.735501 50.482424 
L 247.81197 51.721263 
L 248.540787 52.569293 
L 249.972727 54.257719 
L 250.306985 54.656162 
L 252.034289 56.74303 
L 252.133485 56.86452 
L 253.721016 58.829899 
L 254.294242 59.549437 
L 255.371996 60.916768 
L 256.455 62.310155 
" style="fill:none;stroke:#e8765c;"/>
   </g>
   <g id="LineCollection_36">
    <path clip-path="url(#pf93b3a01e2)" d="M 227.038571 25.44 
L 228.365152 26.62685 
L 229.358919 27.526869 
L 230.525909 28.595939 
L 231.623605 29.613737 
L 232.686667 30.610905 
L 233.834608 31.700606 
L 234.847424 32.67337 
L 235.993814 33.787475 
L 237.008182 34.785034 
L 238.103022 35.874343 
L 239.168939 36.947679 
L 240.163949 37.961212 
L 241.329697 39.163173 
L 242.178233 40.048081 
L 243.490455 41.433477 
L 244.147442 42.134949 
L 245.651212 43.760651 
L 246.07307 44.221818 
L 247.81197 46.14686 
L 247.956549 46.308687 
L 249.79735 48.395556 
L 249.972727 48.596964 
L 251.596728 50.482424 
L 252.133485 51.113813 
L 253.357565 52.569293 
L 254.294242 53.69792 
L 255.081085 54.656162 
L 256.455 56.352017 
" style="fill:none;stroke:#e36b54;"/>
   </g>
   <g id="LineCollection_37">
    <path clip-path="url(#pf93b3a01e2)" d="M 232.430567 25.44 
L 232.686667 25.674755 
L 234.683225 27.526869 
L 234.847424 27.680942 
L 236.883111 29.613737 
L 237.008182 29.73387 
L 239.032056 31.700606 
L 239.168939 31.835193 
L 241.131811 33.787475 
L 241.329697 33.986641 
L 243.184045 35.874343 
L 243.490455 36.19003 
L 245.190354 37.961212 
L 245.651212 38.447263 
L 247.152261 40.048081 
L 247.81197 40.760341 
L 249.071225 42.134949 
L 249.972727 43.131359 
L 250.94864 44.221818 
L 252.133485 45.562524 
L 252.785842 46.308687 
L 254.294242 48.056152 
L 254.584109 48.395556 
L 256.343495 50.482424 
L 256.455 50.616427 
" style="fill:none;stroke:#dd5f4b;"/>
   </g>
   <g id="LineCollection_38">
    <path clip-path="url(#pf93b3a01e2)" d="M 237.663492 25.44 
L 239.168939 26.869636 
L 239.853102 27.526869 
L 241.329697 28.961674 
L 241.993158 29.613737 
L 243.490455 31.102454 
L 244.085323 31.700606 
L 245.651212 33.293698 
L 246.131186 33.787475 
L 247.81197 35.537214 
L 248.132269 35.874343 
L 249.972727 37.834893 
L 250.090025 37.961212 
L 252.004465 40.048081 
L 252.133485 40.190461 
L 253.876642 42.134949 
L 254.294242 42.606617 
L 255.709142 44.221818 
L 256.455 45.084064 
" style="fill:none;stroke:#d55042;"/>
   </g>
   <g id="LineCollection_39">
    <path clip-path="url(#pf93b3a01e2)" d="M 242.754463 25.44 
L 243.490455 26.155113 
L 244.886463 27.526869 
L 245.651212 28.286984 
L 246.971281 29.613737 
L 247.81197 30.468525 
L 249.010466 31.700606 
L 249.972727 32.701492 
L 251.005498 33.787475 
L 252.133485 34.987725 
L 252.957798 35.874343 
L 254.294242 37.329153 
L 254.868723 37.961212 
L 256.455 39.7278 
" style="fill:none;stroke:#cd423b;"/>
   </g>
   <g id="LineCollection_40">
    <path clip-path="url(#pf93b3a01e2)" d="M 247.715738 25.44 
L 247.81197 25.535618 
L 249.794071 27.526869 
L 249.972727 27.708417 
L 251.827404 29.613737 
L 252.133485 29.931839 
L 253.817184 31.700606 
L 254.294242 32.207675 
L 255.764795 33.787475 
L 256.455 34.537799 
" style="fill:none;stroke:#c53334;"/>
   </g>
   <g id="LineCollection_41">
    <path clip-path="url(#pf93b3a01e2)" d="M 252.55122 25.44 
L 254.294242 27.229397 
L 254.580934 27.526869 
L 256.455 29.493792 
" style="fill:none;stroke:#bd1f2d;"/>
   </g>
   <g id="LineCollection_42"/>
   <g id="line2d_11">
    <path clip-path="url(#pf93b3a01e2)" d="M 42.54 128.74 
L 256.455 128.74 
" style="fill:none;stroke:#000000;stroke-linecap:square;stroke-width:0.5;"/>
   </g>
   <g id="line2d_12">
    <path clip-path="url(#pf93b3a01e2)" d="M 149.4975 232.04 
L 149.4975 25.44 
" style="fill:none;stroke:#000000;stroke-linecap:square;stroke-width:0.5;"/>
   </g>
   <g id="line2d_13">
    <path clip-path="url(#pf93b3a01e2)" d="M 149.4975 108.08 
L 150.388812 108.940833 
L 151.280125 109.801667 
L 152.171437 110.6625 
L 153.06275 111.523333 
L 153.954062 112.384167 
L 154.845375 113.245 
L 155.736687 114.105833 
L 156.628 114.966667 
L 157.519312 115.8275 
L 158.410625 116.688333 
L 159.301937 117.549167 
L 160.19325 118.41 
L 161.084562 119.270833 
L 161.975875 120.131667 
L 162.867187 120.9925 
L 163.7585 121.853333 
L 164.649812 122.714167 
L 165.541125 123.575 
L 166.432437 124.435833 
L 167.32375 125.296667 
L 168.215062 126.1575 
L 169.106375 127.018333 
L 169.997687 127.879167 
L 170.889 128.74 
L 149.4975 149.4 
L 150.388812 148.539167 
L 151.280125 147.678333 
L 152.171437 146.8175 
L 153.06275 145.956667 
L 153.954062 145.095833 
L 154.845375 144.235 
L 155.736687 143.374167 
L 156.628 142.513333 
L 157.519312 141.6525 
L 158.410625 140.791667 
L 159.301937 139.930833 
L 160.19325 139.07 
L 161.084562 138.209167 
L 161.975875 137.348333 
L 162.867187 136.4875 
L 163.7585 135.626667 
L 164.649812 134.765833 
L 165.541125 133.905 
L 166.432437 133.044167 
L 167.32375 132.183333 
L 168.215062 131.3225 
L 169.106375 130.461667 
L 169.997687 129.600833 
L 170.889 128.74 
L 128.106 128.74 
L 128.997312 129.600833 
L 129.888625 130.461667 
L 130.779937 131.3225 
L 131.67125 132.183333 
L 132.562562 133.044167 
L 133.453875 133.905 
L 134.345187 134.765833 
L 135.2365 135.626667 
L 136.127812 136.4875 
L 137.019125 137.348333 
L 137.910437 138.209167 
L 138.80175 139.07 
L 139.693062 139.930833 
L 140.584375 140.791667 
L 141.475687 141.6525 
L 142.367 142.513333 
L 143.258312 143.374167 
L 144.149625 144.235 
L 145.040937 145.095833 
L 145.93225 145.956667 
L 146.823562 146.8175 
L 147.714875 147.678333 
L 148.606187 148.539167 
L 149.4975 149.4 
L 128.106 128.74 
L 128.997312 127.879167 
L 129.888625 127.018333 
L 130.779937 126.1575 
L 131.67125 125.296667 
L 132.562562 124.435833 
L 133.453875 123.575 
L 134.345187 122.714167 
L 135.2365 121.853333 
L 136.127812 120.9925 
L 137.019125 120.131667 
L 137.910437 119.270833 
L 138.80175 118.41 
L 139.693062 117.549167 
L 140.584375 116.688333 
L 141.475687 115.8275 
L 142.367 114.966667 
L 143.258312 114.105833 
L 144.149625 113.245 
L 145.040937 112.384167 
L 145.93225 111.523333 
L 146.823562 110.6625 
L 147.714875 109.801667 
L 148.606187 108.940833 
L 149.4975 108.08 
" style="fill:none;stroke:#2d435d;stroke-linecap:square;stroke-width:1.5;"/>
   </g>
   <g id="line2d_14">
    <path clip-path="url(#pf93b3a01e2)" d="M 202.97625 77.09 
L 160.19325 118.41 
" style="fill:none;stroke:#000000;stroke-dasharray:1.5,2.475;stroke-dashoffset:0;stroke-width:1.5;"/>
   </g>
   <g id="patch_3">
    <path d="M 42.54 232.04 
L 42.54 25.44 
" style="fill:none;stroke:#000000;stroke-linecap:square;stroke-linejoin:miter;stroke-width:0.8;"/>
   </g>
   <g id="patch_4">
    <path d="M 256.455 232.04 
L 256.455 25.44 
" style="fill:none;stroke:#000000;stroke-linecap:square;stroke-linejoin:miter;stroke-width:0.8;"/>
   </g>
   <g id="patch_5">
    <path d="M 42.54 232.04 
L 256.455 232.04 
" style="fill:none;stroke:#000000;stroke-linecap:square;stroke-linejoin:miter;stroke-width:0.8;"/>
   </g>
   <g id="patch_6">
    <path d="M 42.54 25.44 
L 256.455 25.44 
" style="fill:none;stroke:#000000;stroke-linecap:square;stroke-linejoin:miter;stroke-width:0.8;"/>
   </g>
   <g id="text_13">
    <!-- l1 constraint w/symmetric loss function -->
    <defs>
     <path d="M 9.421875 75.984375 
L 18.40625 75.984375 
L 18.40625 0 
L 9.421875 0 
z
" id="DejaVuSans-108"/>
     <path id="DejaVuSans-32"/>
     <path d="M 48.78125 52.59375 
L 48.78125 44.1875 
Q 44.96875 46.296875 41.140625 47.34375 
Q 37.3125 48.390625 33.40625 48.390625 
Q 24.65625 48.390625 19.8125 42.84375 
Q 14.984375 37.3125 14.984375 27.296875 
Q 14.984375 17.28125 19.8125 11.734375 
Q 24.65625 6.203125 33.40625 6.203125 
Q 37.3125 6.203125 41.140625 7.25 
Q 44.96875 8.296875 48.78125 10.40625 
L 48.78125 2.09375 
Q 45.015625 0.34375 40.984375 -0.53125 
Q 36.96875 -1.421875 32.421875 -1.421875 
Q 20.0625 -1.421875 12.78125 6.34375 
Q 5.515625 14.109375 5.515625 27.296875 
Q 5.515625 40.671875 12.859375 48.328125 
Q 20.21875 56 33.015625 56 
Q 37.15625 56 41.109375 55.140625 
Q 45.0625 54.296875 48.78125 52.59375 
z
" id="DejaVuSans-99"/>
     <path d="M 30.609375 48.390625 
Q 23.390625 48.390625 19.1875 42.75 
Q 14.984375 37.109375 14.984375 27.296875 
Q 14.984375 17.484375 19.15625 11.84375 
Q 23.34375 6.203125 30.609375 6.203125 
Q 37.796875 6.203125 41.984375 11.859375 
Q 46.1875 17.53125 46.1875 27.296875 
Q 46.1875 37.015625 41.984375 42.703125 
Q 37.796875 48.390625 30.609375 48.390625 
z
M 30.609375 56 
Q 42.328125 56 49.015625 48.375 
Q 55.71875 40.765625 55.71875 27.296875 
Q 55.71875 13.875 49.015625 6.21875 
Q 42.328125 -1.421875 30.609375 -1.421875 
Q 18.84375 -1.421875 12.171875 6.21875 
Q 5.515625 13.875 5.515625 27.296875 
Q 5.515625 40.765625 12.171875 48.375 
Q 18.84375 56 30.609375 56 
z
" id="DejaVuSans-111"/>
     <path d="M 54.890625 33.015625 
L 54.890625 0 
L 45.90625 0 
L 45.90625 32.71875 
Q 45.90625 40.484375 42.875 44.328125 
Q 39.84375 48.1875 33.796875 48.1875 
Q 26.515625 48.1875 22.3125 43.546875 
Q 18.109375 38.921875 18.109375 30.90625 
L 18.109375 0 
L 9.078125 0 
L 9.078125 54.6875 
L 18.109375 54.6875 
L 18.109375 46.1875 
Q 21.34375 51.125 25.703125 53.5625 
Q 30.078125 56 35.796875 56 
Q 45.21875 56 50.046875 50.171875 
Q 54.890625 44.34375 54.890625 33.015625 
z
" id="DejaVuSans-110"/>
     <path d="M 44.28125 53.078125 
L 44.28125 44.578125 
Q 40.484375 46.53125 36.375 47.5 
Q 32.28125 48.484375 27.875 48.484375 
Q 21.1875 48.484375 17.84375 46.4375 
Q 14.5 44.390625 14.5 40.28125 
Q 14.5 37.15625 16.890625 35.375 
Q 19.28125 33.59375 26.515625 31.984375 
L 29.59375 31.296875 
Q 39.15625 29.25 43.1875 25.515625 
Q 47.21875 21.78125 47.21875 15.09375 
Q 47.21875 7.46875 41.1875 3.015625 
Q 35.15625 -1.421875 24.609375 -1.421875 
Q 20.21875 -1.421875 15.453125 -0.5625 
Q 10.6875 0.296875 5.421875 2 
L 5.421875 11.28125 
Q 10.40625 8.6875 15.234375 7.390625 
Q 20.0625 6.109375 24.8125 6.109375 
Q 31.15625 6.109375 34.5625 8.28125 
Q 37.984375 10.453125 37.984375 14.40625 
Q 37.984375 18.0625 35.515625 20.015625 
Q 33.0625 21.96875 24.703125 23.78125 
L 21.578125 24.515625 
Q 13.234375 26.265625 9.515625 29.90625 
Q 5.8125 33.546875 5.8125 39.890625 
Q 5.8125 47.609375 11.28125 51.796875 
Q 16.75 56 26.8125 56 
Q 31.78125 56 36.171875 55.265625 
Q 40.578125 54.546875 44.28125 53.078125 
z
" id="DejaVuSans-115"/>
     <path d="M 18.3125 70.21875 
L 18.3125 54.6875 
L 36.8125 54.6875 
L 36.8125 47.703125 
L 18.3125 47.703125 
L 18.3125 18.015625 
Q 18.3125 11.328125 20.140625 9.421875 
Q 21.96875 7.515625 27.59375 7.515625 
L 36.8125 7.515625 
L 36.8125 0 
L 27.59375 0 
Q 17.1875 0 13.234375 3.875 
Q 9.28125 7.765625 9.28125 18.015625 
L 9.28125 47.703125 
L 2.6875 47.703125 
L 2.6875 54.6875 
L 9.28125 54.6875 
L 9.28125 70.21875 
z
" id="DejaVuSans-116"/>
     <path d="M 41.109375 46.296875 
Q 39.59375 47.171875 37.8125 47.578125 
Q 36.03125 48 33.890625 48 
Q 26.265625 48 22.1875 43.046875 
Q 18.109375 38.09375 18.109375 28.8125 
L 18.109375 0 
L 9.078125 0 
L 9.078125 54.6875 
L 18.109375 54.6875 
L 18.109375 46.1875 
Q 20.953125 51.171875 25.484375 53.578125 
Q 30.03125 56 36.53125 56 
Q 37.453125 56 38.578125 55.875 
Q 39.703125 55.765625 41.0625 55.515625 
z
" id="DejaVuSans-114"/>
     <path d="M 34.28125 27.484375 
Q 23.390625 27.484375 19.1875 25 
Q 14.984375 22.515625 14.984375 16.5 
Q 14.984375 11.71875 18.140625 8.90625 
Q 21.296875 6.109375 26.703125 6.109375 
Q 34.1875 6.109375 38.703125 11.40625 
Q 43.21875 16.703125 43.21875 25.484375 
L 43.21875 27.484375 
z
M 52.203125 31.203125 
L 52.203125 0 
L 43.21875 0 
L 43.21875 8.296875 
Q 40.140625 3.328125 35.546875 0.953125 
Q 30.953125 -1.421875 24.3125 -1.421875 
Q 15.921875 -1.421875 10.953125 3.296875 
Q 6 8.015625 6 15.921875 
Q 6 25.140625 12.171875 29.828125 
Q 18.359375 34.515625 30.609375 34.515625 
L 43.21875 34.515625 
L 43.21875 35.40625 
Q 43.21875 41.609375 39.140625 45 
Q 35.0625 48.390625 27.6875 48.390625 
Q 23 48.390625 18.546875 47.265625 
Q 14.109375 46.140625 10.015625 43.890625 
L 10.015625 52.203125 
Q 14.9375 54.109375 19.578125 55.046875 
Q 24.21875 56 28.609375 56 
Q 40.484375 56 46.34375 49.84375 
Q 52.203125 43.703125 52.203125 31.203125 
z
" id="DejaVuSans-97"/>
     <path d="M 9.421875 54.6875 
L 18.40625 54.6875 
L 18.40625 0 
L 9.421875 0 
z
M 9.421875 75.984375 
L 18.40625 75.984375 
L 18.40625 64.59375 
L 9.421875 64.59375 
z
" id="DejaVuSans-105"/>
     <path d="M 4.203125 54.6875 
L 13.1875 54.6875 
L 24.421875 12.015625 
L 35.59375 54.6875 
L 46.1875 54.6875 
L 57.421875 12.015625 
L 68.609375 54.6875 
L 77.59375 54.6875 
L 63.28125 0 
L 52.6875 0 
L 40.921875 44.828125 
L 29.109375 0 
L 18.5 0 
z
" id="DejaVuSans-119"/>
     <path d="M 25.390625 72.90625 
L 33.6875 72.90625 
L 8.296875 -9.28125 
L 0 -9.28125 
z
" id="DejaVuSans-47"/>
     <path d="M 32.171875 -5.078125 
Q 28.375 -14.84375 24.75 -17.8125 
Q 21.140625 -20.796875 15.09375 -20.796875 
L 7.90625 -20.796875 
L 7.90625 -13.28125 
L 13.1875 -13.28125 
Q 16.890625 -13.28125 18.9375 -11.515625 
Q 21 -9.765625 23.484375 -3.21875 
L 25.09375 0.875 
L 2.984375 54.6875 
L 12.5 54.6875 
L 29.59375 11.921875 
L 46.6875 54.6875 
L 56.203125 54.6875 
z
" id="DejaVuSans-121"/>
     <path d="M 52 44.1875 
Q 55.375 50.25 60.0625 53.125 
Q 64.75 56 71.09375 56 
Q 79.640625 56 84.28125 50.015625 
Q 88.921875 44.046875 88.921875 33.015625 
L 88.921875 0 
L 79.890625 0 
L 79.890625 32.71875 
Q 79.890625 40.578125 77.09375 44.375 
Q 74.3125 48.1875 68.609375 48.1875 
Q 61.625 48.1875 57.5625 43.546875 
Q 53.515625 38.921875 53.515625 30.90625 
L 53.515625 0 
L 44.484375 0 
L 44.484375 32.71875 
Q 44.484375 40.625 41.703125 44.40625 
Q 38.921875 48.1875 33.109375 48.1875 
Q 26.21875 48.1875 22.15625 43.53125 
Q 18.109375 38.875 18.109375 30.90625 
L 18.109375 0 
L 9.078125 0 
L 9.078125 54.6875 
L 18.109375 54.6875 
L 18.109375 46.1875 
Q 21.1875 51.21875 25.484375 53.609375 
Q 29.78125 56 35.6875 56 
Q 41.65625 56 45.828125 52.96875 
Q 50 49.953125 52 44.1875 
z
" id="DejaVuSans-109"/>
     <path d="M 56.203125 29.59375 
L 56.203125 25.203125 
L 14.890625 25.203125 
Q 15.484375 15.921875 20.484375 11.0625 
Q 25.484375 6.203125 34.421875 6.203125 
Q 39.59375 6.203125 44.453125 7.46875 
Q 49.3125 8.734375 54.109375 11.28125 
L 54.109375 2.78125 
Q 49.265625 0.734375 44.1875 -0.34375 
Q 39.109375 -1.421875 33.890625 -1.421875 
Q 20.796875 -1.421875 13.15625 6.1875 
Q 5.515625 13.8125 5.515625 26.8125 
Q 5.515625 40.234375 12.765625 48.109375 
Q 20.015625 56 32.328125 56 
Q 43.359375 56 49.78125 48.890625 
Q 56.203125 41.796875 56.203125 29.59375 
z
M 47.21875 32.234375 
Q 47.125 39.59375 43.09375 43.984375 
Q 39.0625 48.390625 32.421875 48.390625 
Q 24.90625 48.390625 20.390625 44.140625 
Q 15.875 39.890625 15.1875 32.171875 
z
" id="DejaVuSans-101"/>
     <path d="M 37.109375 75.984375 
L 37.109375 68.5 
L 28.515625 68.5 
Q 23.6875 68.5 21.796875 66.546875 
Q 19.921875 64.59375 19.921875 59.515625 
L 19.921875 54.6875 
L 34.71875 54.6875 
L 34.71875 47.703125 
L 19.921875 47.703125 
L 19.921875 0 
L 10.890625 0 
L 10.890625 47.703125 
L 2.296875 47.703125 
L 2.296875 54.6875 
L 10.890625 54.6875 
L 10.890625 58.5 
Q 10.890625 67.625 15.140625 71.796875 
Q 19.390625 75.984375 28.609375 75.984375 
z
" id="DejaVuSans-102"/>
     <path d="M 8.5 21.578125 
L 8.5 54.6875 
L 17.484375 54.6875 
L 17.484375 21.921875 
Q 17.484375 14.15625 20.5 10.265625 
Q 23.53125 6.390625 29.59375 6.390625 
Q 36.859375 6.390625 41.078125 11.03125 
Q 45.3125 15.671875 45.3125 23.6875 
L 45.3125 54.6875 
L 54.296875 54.6875 
L 54.296875 0 
L 45.3125 0 
L 45.3125 8.40625 
Q 42.046875 3.421875 37.71875 1 
Q 33.40625 -1.421875 27.6875 -1.421875 
Q 18.265625 -1.421875 13.375 4.4375 
Q 8.5 10.296875 8.5 21.578125 
z
M 31.109375 56 
z
" id="DejaVuSans-117"/>
    </defs>
    <g transform="translate(41.150937 19.44)scale(0.11 -0.11)">
     <use xlink:href="#DejaVuSans-108"/>
     <use x="27.783203" xlink:href="#DejaVuSans-49"/>
     <use x="91.40625" xlink:href="#DejaVuSans-32"/>
     <use x="123.193359" xlink:href="#DejaVuSans-99"/>
     <use x="178.173828" xlink:href="#DejaVuSans-111"/>
     <use x="239.355469" xlink:href="#DejaVuSans-110"/>
     <use x="302.734375" xlink:href="#DejaVuSans-115"/>
     <use x="354.833984" xlink:href="#DejaVuSans-116"/>
     <use x="394.042969" xlink:href="#DejaVuSans-114"/>
     <use x="435.15625" xlink:href="#DejaVuSans-97"/>
     <use x="496.435547" xlink:href="#DejaVuSans-105"/>
     <use x="524.21875" xlink:href="#DejaVuSans-110"/>
     <use x="587.597656" xlink:href="#DejaVuSans-116"/>
     <use x="626.806641" xlink:href="#DejaVuSans-32"/>
     <use x="658.59375" xlink:href="#DejaVuSans-119"/>
     <use x="740.380859" xlink:href="#DejaVuSans-47"/>
     <use x="774.072266" xlink:href="#DejaVuSans-115"/>
     <use x="826.171875" xlink:href="#DejaVuSans-121"/>
     <use x="885.351562" xlink:href="#DejaVuSans-109"/>
     <use x="982.763672" xlink:href="#DejaVuSans-109"/>
     <use x="1080.175781" xlink:href="#DejaVuSans-101"/>
     <use x="1141.699219" xlink:href="#DejaVuSans-116"/>
     <use x="1180.908203" xlink:href="#DejaVuSans-114"/>
     <use x="1222.021484" xlink:href="#DejaVuSans-105"/>
     <use x="1249.804688" xlink:href="#DejaVuSans-99"/>
     <use x="1304.785156" xlink:href="#DejaVuSans-32"/>
     <use x="1336.572266" xlink:href="#DejaVuSans-108"/>
     <use x="1364.355469" xlink:href="#DejaVuSans-111"/>
     <use x="1425.537109" xlink:href="#DejaVuSans-115"/>
     <use x="1477.636719" xlink:href="#DejaVuSans-115"/>
     <use x="1529.736328" xlink:href="#DejaVuSans-32"/>
     <use x="1561.523438" xlink:href="#DejaVuSans-102"/>
     <use x="1596.728516" xlink:href="#DejaVuSans-117"/>
     <use x="1660.107422" xlink:href="#DejaVuSans-110"/>
     <use x="1723.486328" xlink:href="#DejaVuSans-99"/>
     <use x="1778.466797" xlink:href="#DejaVuSans-116"/>
     <use x="1817.675781" xlink:href="#DejaVuSans-105"/>
     <use x="1845.458984" xlink:href="#DejaVuSans-111"/>
     <use x="1906.640625" xlink:href="#DejaVuSans-110"/>
    </g>
   </g>
  </g>
 </g>
 <defs>
  <clipPath id="pf93b3a01e2">
   <rect height="206.6" width="213.915" x="42.54" y="25.44"/>
  </clipPath>
 </defs>
</svg>
