<?xml version="1.0" encoding="utf-8" standalone="no"?>
<!DOCTYPE svg PUBLIC "-//W3C//DTD SVG 1.1//EN"
  "http://www.w3.org/Graphics/SVG/1.1/DTD/svg11.dtd">
<!-- Created with matplotlib (https://matplotlib.org/) -->
<svg height="273.6pt" version="1.1" viewBox="0 0 273.6 273.6" width="273.6pt" xmlns="http://www.w3.org/2000/svg" xmlns:xlink="http://www.w3.org/1999/xlink">
 <defs>
  <style type="text/css">
*{stroke-linecap:butt;stroke-linejoin:round;}
  </style>
 </defs>
 <g id="figure_1">
  <g id="patch_1">
   <path d="M 0 273.6 
L 273.6 273.6 
L 273.6 0 
L 0 0 
z
" style="fill:#ffffff;"/>
  </g>
  <g id="axes_1">
   <g id="patch_2">
    <path d="M 42.54 232.04 
L 256.455 232.04 
L 256.455 25.44 
L 42.54 25.44 
z
" style="fill:#ffffff;"/>
   </g>
   <g id="PathCollection_1">
    <defs>
     <path d="M 0 4.743416 
C 1.257969 4.743416 2.464584 4.24362 3.354102 3.354102 
C 4.24362 2.464584 4.743416 1.257969 4.743416 0 
C 4.743416 -1.257969 4.24362 -2.464584 3.354102 -3.354102 
C 2.464584 -4.24362 1.257969 -4.743416 0 -4.743416 
C -1.257969 -4.743416 -2.464584 -4.24362 -3.354102 -3.354102 
C -4.24362 -2.464584 -4.743416 -1.257969 -4.743416 0 
C -4.743416 1.257969 -4.24362 2.464584 -3.354102 3.354102 
C -2.464584 4.24362 -1.257969 4.743416 0 4.743416 
z
" id="me468c5e360" style="stroke:#000000;"/>
    </defs>
    <g clip-path="url(#p506b44204d)">
     <use style="stroke:#000000;" x="202.97625" xlink:href="#me468c5e360" y="77.09"/>
    </g>
   </g>
   <g id="PathCollection_2">
    <defs>
     <path d="M 0 4.743416 
C 1.257969 4.743416 2.464584 4.24362 3.354102 3.354102 
C 4.24362 2.464584 4.743416 1.257969 4.743416 0 
C 4.743416 -1.257969 4.24362 -2.464584 3.354102 -3.354102 
C 2.464584 -4.24362 1.257969 -4.743416 0 -4.743416 
C -1.257969 -4.743416 -2.464584 -4.24362 -3.354102 -3.354102 
C -4.24362 -2.464584 -4.743416 -1.257969 -4.743416 0 
C -4.743416 1.257969 -4.24362 2.464584 -3.354102 3.354102 
C -2.464584 4.24362 -1.257969 4.743416 0 4.743416 
z
" id="m7d0993dde1" style="stroke:#e32ca6;"/>
    </defs>
    <g clip-path="url(#p506b44204d)">
     <use style="fill:#e32ca6;stroke:#e32ca6;" x="160.19325" xlink:href="#m7d0993dde1" y="118.41"/>
    </g>
   </g>
   <g id="matplotlib.axis_1">
    <g id="xtick_1">
     <g id="line2d_1">
      <defs>
       <path d="M 0 0 
L 0 3.5 
" id="mbc7126a061" style="stroke:#000000;stroke-width:0.8;"/>
      </defs>
      <g>
       <use style="stroke:#000000;stroke-width:0.8;" x="42.54" xlink:href="#mbc7126a061" y="232.04"/>
      </g>
     </g>
     <g id="text_1">
      <!-- −10 -->
      <defs>
       <path d="M 10.59375 35.5 
L 73.1875 35.5 
L 73.1875 27.203125 
L 10.59375 27.203125 
z
" id="DejaVuSans-8722"/>
       <path d="M 12.40625 8.296875 
L 28.515625 8.296875 
L 28.515625 63.921875 
L 10.984375 60.40625 
L 10.984375 69.390625 
L 28.421875 72.90625 
L 38.28125 72.90625 
L 38.28125 8.296875 
L 54.390625 8.296875 
L 54.390625 0 
L 12.40625 0 
z
" id="DejaVuSans-49"/>
       <path d="M 31.78125 66.40625 
Q 24.171875 66.40625 20.328125 58.90625 
Q 16.5 51.421875 16.5 36.375 
Q 16.5 21.390625 20.328125 13.890625 
Q 24.171875 6.390625 31.78125 6.390625 
Q 39.453125 6.390625 43.28125 13.890625 
Q 47.125 21.390625 47.125 36.375 
Q 47.125 51.421875 43.28125 58.90625 
Q 39.453125 66.40625 31.78125 66.40625 
z
M 31.78125 74.21875 
Q 44.046875 74.21875 50.515625 64.515625 
Q 56.984375 54.828125 56.984375 36.375 
Q 56.984375 17.96875 50.515625 8.265625 
Q 44.046875 -1.421875 31.78125 -1.421875 
Q 19.53125 -1.421875 13.0625 8.265625 
Q 6.59375 17.96875 6.59375 36.375 
Q 6.59375 54.828125 13.0625 64.515625 
Q 19.53125 74.21875 31.78125 74.21875 
z
" id="DejaVuSans-48"/>
      </defs>
      <g transform="translate(31.987656 246.638437)scale(0.1 -0.1)">
       <use xlink:href="#DejaVuSans-8722"/>
       <use x="83.789062" xlink:href="#DejaVuSans-49"/>
       <use x="147.412109" xlink:href="#DejaVuSans-48"/>
      </g>
     </g>
    </g>
    <g id="xtick_2">
     <g id="line2d_2">
      <g>
       <use style="stroke:#000000;stroke-width:0.8;" x="96.01875" xlink:href="#mbc7126a061" y="232.04"/>
      </g>
     </g>
     <g id="text_2">
      <!-- −5 -->
      <defs>
       <path d="M 10.796875 72.90625 
L 49.515625 72.90625 
L 49.515625 64.59375 
L 19.828125 64.59375 
L 19.828125 46.734375 
Q 21.96875 47.46875 24.109375 47.828125 
Q 26.265625 48.1875 28.421875 48.1875 
Q 40.625 48.1875 47.75 41.5 
Q 54.890625 34.8125 54.890625 23.390625 
Q 54.890625 11.625 47.5625 5.09375 
Q 40.234375 -1.421875 26.90625 -1.421875 
Q 22.3125 -1.421875 17.546875 -0.640625 
Q 12.796875 0.140625 7.71875 1.703125 
L 7.71875 11.625 
Q 12.109375 9.234375 16.796875 8.0625 
Q 21.484375 6.890625 26.703125 6.890625 
Q 35.15625 6.890625 40.078125 11.328125 
Q 45.015625 15.765625 45.015625 23.390625 
Q 45.015625 31 40.078125 35.4375 
Q 35.15625 39.890625 26.703125 39.890625 
Q 22.75 39.890625 18.8125 39.015625 
Q 14.890625 38.140625 10.796875 36.28125 
z
" id="DejaVuSans-53"/>
      </defs>
      <g transform="translate(88.647656 246.638437)scale(0.1 -0.1)">
       <use xlink:href="#DejaVuSans-8722"/>
       <use x="83.789062" xlink:href="#DejaVuSans-53"/>
      </g>
     </g>
    </g>
    <g id="xtick_3">
     <g id="line2d_3">
      <g>
       <use style="stroke:#000000;stroke-width:0.8;" x="149.4975" xlink:href="#mbc7126a061" y="232.04"/>
      </g>
     </g>
     <g id="text_3">
      <!-- 0 -->
      <g transform="translate(146.31625 246.638437)scale(0.1 -0.1)">
       <use xlink:href="#DejaVuSans-48"/>
      </g>
     </g>
    </g>
    <g id="xtick_4">
     <g id="line2d_4">
      <g>
       <use style="stroke:#000000;stroke-width:0.8;" x="202.97625" xlink:href="#mbc7126a061" y="232.04"/>
      </g>
     </g>
     <g id="text_4">
      <!-- 5 -->
      <g transform="translate(199.795 246.638437)scale(0.1 -0.1)">
       <use xlink:href="#DejaVuSans-53"/>
      </g>
     </g>
    </g>
    <g id="xtick_5">
     <g id="line2d_5">
      <g>
       <use style="stroke:#000000;stroke-width:0.8;" x="256.455" xlink:href="#mbc7126a061" y="232.04"/>
      </g>
     </g>
     <g id="text_5">
      <!-- 10 -->
      <g transform="translate(250.0925 246.638437)scale(0.1 -0.1)">
       <use xlink:href="#DejaVuSans-49"/>
       <use x="63.623047" xlink:href="#DejaVuSans-48"/>
      </g>
     </g>
    </g>
    <g id="text_6">
     <!-- $\beta_1$ -->
     <defs>
      <path d="M 13.625 3.375 
L 8.9375 -20.796875 
L -0.09375 -20.796875 
L 14.5 54.34375 
Q 18.84375 76.609375 39.65625 76.609375 
Q 60.75 76.609375 57.171875 57.8125 
Q 54.734375 44.4375 45.21875 39.546875 
Q 58.015625 35.15625 55.515625 22.125 
Q 51.125 -1.078125 27.484375 -1.03125 
Q 17.140625 -0.984375 13.625 3.375 
z
M 15.921875 15.09375 
Q 19.671875 6.59375 29.296875 6.640625 
Q 43.359375 6.640625 46.34375 21.96875 
Q 49.03125 35.75 26.171875 34.671875 
L 27.78125 42.96875 
Q 45.453125 42.671875 48.53125 58.59375 
Q 50.640625 69.34375 39.203125 69.28125 
Q 26.421875 69.28125 23.484375 54.046875 
z
" id="DejaVuSans-Oblique-946"/>
     </defs>
     <g transform="translate(142.7775 257.958125)scale(0.12 -0.12)">
      <use transform="translate(0 0.390625)" xlink:href="#DejaVuSans-Oblique-946"/>
      <use transform="translate(63.818359 -16.015625)scale(0.7)" xlink:href="#DejaVuSans-49"/>
     </g>
    </g>
   </g>
   <g id="matplotlib.axis_2">
    <g id="ytick_1">
     <g id="line2d_6">
      <defs>
       <path d="M 0 0 
L -3.5 0 
" id="m3ea61bfc99" style="stroke:#000000;stroke-width:0.8;"/>
      </defs>
      <g>
       <use style="stroke:#000000;stroke-width:0.8;" x="42.54" xlink:href="#m3ea61bfc99" y="232.04"/>
      </g>
     </g>
     <g id="text_7">
      <!-- −10 -->
      <g transform="translate(14.435312 235.839219)scale(0.1 -0.1)">
       <use xlink:href="#DejaVuSans-8722"/>
       <use x="83.789062" xlink:href="#DejaVuSans-49"/>
       <use x="147.412109" xlink:href="#DejaVuSans-48"/>
      </g>
     </g>
    </g>
    <g id="ytick_2">
     <g id="line2d_7">
      <g>
       <use style="stroke:#000000;stroke-width:0.8;" x="42.54" xlink:href="#m3ea61bfc99" y="180.39"/>
      </g>
     </g>
     <g id="text_8">
      <!-- −5 -->
      <g transform="translate(20.797812 184.189219)scale(0.1 -0.1)">
       <use xlink:href="#DejaVuSans-8722"/>
       <use x="83.789062" xlink:href="#DejaVuSans-53"/>
      </g>
     </g>
    </g>
    <g id="ytick_3">
     <g id="line2d_8">
      <g>
       <use style="stroke:#000000;stroke-width:0.8;" x="42.54" xlink:href="#m3ea61bfc99" y="128.74"/>
      </g>
     </g>
     <g id="text_9">
      <!-- 0 -->
      <g transform="translate(29.1775 132.539219)scale(0.1 -0.1)">
       <use xlink:href="#DejaVuSans-48"/>
      </g>
     </g>
    </g>
    <g id="ytick_4">
     <g id="line2d_9">
      <g>
       <use style="stroke:#000000;stroke-width:0.8;" x="42.54" xlink:href="#m3ea61bfc99" y="77.09"/>
      </g>
     </g>
     <g id="text_10">
      <!-- 5 -->
      <g transform="translate(29.1775 80.889219)scale(0.1 -0.1)">
       <use xlink:href="#DejaVuSans-53"/>
      </g>
     </g>
    </g>
    <g id="ytick_5">
     <g id="line2d_10">
      <g>
       <use style="stroke:#000000;stroke-width:0.8;" x="42.54" xlink:href="#m3ea61bfc99" y="25.44"/>
      </g>
     </g>
     <g id="text_11">
      <!-- 10 -->
      <g transform="translate(22.815 29.239219)scale(0.1 -0.1)">
       <use xlink:href="#DejaVuSans-49"/>
       <use x="63.623047" xlink:href="#DejaVuSans-48"/>
      </g>
     </g>
    </g>
    <g id="text_12">
     <!-- $\beta_2$ -->
     <defs>
      <path d="M 19.1875 8.296875 
L 53.609375 8.296875 
L 53.609375 0 
L 7.328125 0 
L 7.328125 8.296875 
Q 12.9375 14.109375 22.625 23.890625 
Q 32.328125 33.6875 34.8125 36.53125 
Q 39.546875 41.84375 41.421875 45.53125 
Q 43.3125 49.21875 43.3125 52.78125 
Q 43.3125 58.59375 39.234375 62.25 
Q 35.15625 65.921875 28.609375 65.921875 
Q 23.96875 65.921875 18.8125 64.3125 
Q 13.671875 62.703125 7.8125 59.421875 
L 7.8125 69.390625 
Q 13.765625 71.78125 18.9375 73 
Q 24.125 74.21875 28.421875 74.21875 
Q 39.75 74.21875 46.484375 68.546875 
Q 53.21875 62.890625 53.21875 53.421875 
Q 53.21875 48.921875 51.53125 44.890625 
Q 49.859375 40.875 45.40625 35.40625 
Q 44.1875 33.984375 37.640625 27.21875 
Q 31.109375 20.453125 19.1875 8.296875 
z
" id="DejaVuSans-50"/>
     </defs>
     <g transform="translate(21.915312 135.46)rotate(-90)scale(0.12 -0.12)">
      <use transform="translate(0 0.390625)" xlink:href="#DejaVuSans-Oblique-946"/>
      <use transform="translate(63.818359 -16.015625)scale(0.7)" xlink:href="#DejaVuSans-50"/>
     </g>
    </g>
   </g>
   <g id="LineCollection_1"/>
   <g id="LineCollection_2">
    <path clip-path="url(#p506b44204d)" d="M 256.455 92.86792 
L 254.546574 94.306667 
L 254.294242 94.485047 
L 252.133485 95.882539 
L 251.26236 96.393535 
L 249.972727 97.105662 
L 247.81197 98.176438 
L 247.119434 98.480404 
L 245.651212 99.089134 
L 243.490455 99.86939 
L 241.329697 100.534044 
L 241.198928 100.567273 
L 239.168939 101.056022 
L 237.008182 101.466721 
L 234.847424 101.767886 
L 232.686667 101.959517 
L 230.525909 102.041613 
L 228.365152 102.014175 
L 226.204394 101.877202 
L 224.043636 101.630695 
L 221.882879 101.274654 
L 219.722121 100.809079 
L 218.813627 100.567273 
L 217.561364 100.215505 
L 215.400606 99.492935 
L 213.239848 98.654763 
L 212.844841 98.480404 
L 211.079091 97.655282 
L 208.918333 96.523193 
L 208.695004 96.393535 
L 206.757576 95.198652 
L 205.439832 94.306667 
L 204.596818 93.698117 
L 202.716095 92.219798 
L 202.436061 91.984016 
L 200.403473 90.132929 
L 200.275303 90.007262 
L 198.415418 88.046061 
L 198.114545 87.702475 
L 196.688083 85.959192 
L 195.953788 84.980614 
L 195.173336 83.872323 
L 193.836741 81.785455 
L 193.79303 81.709668 
L 192.700352 79.698586 
L 191.691754 77.611717 
L 191.632273 77.471195 
L 190.853555 75.524848 
L 190.13701 73.43798 
L 189.53886 71.351111 
L 189.471515 71.058172 
L 189.080527 69.264242 
L 188.737937 67.177374 
L 188.507591 65.090505 
L 188.38949 63.003636 
L 188.383632 60.916768 
L 188.490019 58.829899 
L 188.70865 56.74303 
L 189.039526 54.656162 
L 189.471515 52.621711 
L 189.483255 52.569293 
L 190.069049 50.482424 
L 190.773238 48.395556 
L 191.59582 46.308687 
L 191.632273 46.227844 
L 192.589232 44.221818 
L 193.710015 42.134949 
L 193.79303 41.995916 
L 195.027624 40.048081 
L 195.953788 38.720332 
L 196.518029 37.961212 
L 198.114545 35.993063 
L 198.217606 35.874343 
L 200.180842 33.787475 
L 200.275303 33.694264 
L 202.436061 31.711728 
L 202.449172 31.700606 
L 204.596818 30.000689 
L 205.129139 29.613737 
L 206.757576 28.504229 
L 208.332001 27.526869 
L 208.918333 27.184366 
L 211.079091 26.045306 
L 212.366508 25.44 
" style="fill:none;stroke:#4257c9;"/>
    <path clip-path="url(#p506b44204d)" d="M 247.62869 25.44 
L 247.81197 25.52094 
L 249.972727 26.59831 
L 251.644017 27.526869 
L 252.133485 27.815867 
L 254.294242 29.222504 
L 254.844072 29.613737 
L 256.455 30.836682 
" style="fill:none;stroke:#4257c9;"/>
   </g>
   <g id="LineCollection_3">
    <path clip-path="url(#p506b44204d)" d="M 256.455 112.631749 
L 255.486921 113.088485 
L 254.294242 113.628725 
L 252.133485 114.524167 
L 250.400961 115.175354 
L 249.972727 115.330131 
L 247.81197 116.030996 
L 245.651212 116.651758 
L 243.490455 117.192416 
L 243.162948 117.262222 
L 241.329697 117.638526 
L 239.168939 118.004914 
L 237.008182 118.294159 
L 234.847424 118.506262 
L 232.686667 118.641223 
L 230.525909 118.699041 
L 228.365152 118.679717 
L 226.204394 118.583251 
L 224.043636 118.409642 
L 221.882879 118.158891 
L 219.722121 117.830998 
L 217.561364 117.425962 
L 216.827604 117.262222 
L 215.400606 116.931561 
L 213.239848 116.350772 
L 211.079091 115.689879 
L 209.578727 115.175354 
L 208.918333 114.939842 
L 206.757576 114.085967 
L 204.596818 113.148791 
L 204.469127 113.088485 
L 202.436061 112.088393 
L 200.393506 111.001616 
L 200.275303 110.935996 
L 198.114545 109.645927 
L 196.970185 108.914747 
L 195.953788 108.23588 
L 193.975457 106.827879 
L 193.79303 106.691876 
L 191.632273 104.981862 
L 191.34461 104.74101 
L 189.471515 103.09451 
L 188.996566 102.654141 
L 187.310758 101.009033 
L 186.880423 100.567273 
L 185.15 98.692506 
L 184.963441 98.480404 
L 183.22957 96.393535 
L 182.989242 96.086261 
L 181.659933 94.306667 
L 180.828485 93.11963 
L 180.225315 92.219798 
L 178.919392 90.132929 
L 178.667727 89.699956 
L 177.746044 88.046061 
L 176.672176 85.959192 
L 176.50697 85.609096 
L 175.719866 83.872323 
L 174.859672 81.785455 
L 174.346212 80.402169 
L 174.094999 79.698586 
L 173.4322 77.611717 
L 172.851713 75.524848 
L 172.35354 73.43798 
L 172.185455 72.594496 
L 171.946772 71.351111 
L 171.625464 69.264242 
L 171.383449 67.177374 
L 171.220727 65.090505 
L 171.137296 63.003636 
L 171.133159 60.916768 
L 171.208313 58.829899 
L 171.36276 56.74303 
L 171.5965 54.656162 
L 171.909532 52.569293 
L 172.185455 51.101592 
L 172.30629 50.482424 
L 172.795873 48.395556 
L 173.367769 46.308687 
L 174.021977 44.221818 
L 174.346212 43.303127 
L 174.774827 42.134949 
L 175.62609 40.048081 
L 176.50697 38.085859 
L 176.565233 37.961212 
L 177.629803 35.874343 
L 178.667727 33.996847 
L 178.788452 33.787475 
L 180.084676 31.700606 
L 180.828485 30.583215 
L 181.502837 29.613737 
L 182.989242 27.610812 
L 183.054469 27.526869 
L 184.777729 25.44 
" style="fill:none;stroke:#4a63d3;"/>
   </g>
   <g id="LineCollection_4">
    <path clip-path="url(#p506b44204d)" d="M 256.455 126.618162 
L 254.294242 127.40779 
L 253.430517 127.696566 
L 252.133485 128.116683 
L 249.972727 128.751458 
L 247.81197 129.321125 
L 245.832142 129.783434 
L 245.651212 129.824405 
L 243.490455 130.250559 
L 241.329697 130.613575 
L 239.168939 130.913452 
L 237.008182 131.15019 
L 234.847424 131.32379 
L 232.686667 131.434251 
L 230.525909 131.481573 
L 228.365152 131.465757 
L 226.204394 131.386802 
L 224.043636 131.244709 
L 221.882879 131.039477 
L 219.722121 130.771107 
L 217.561364 130.439598 
L 215.400606 130.04495 
L 214.166249 129.783434 
L 213.239848 129.58104 
L 211.079091 129.043863 
L 208.918333 128.441577 
L 206.757576 127.774183 
L 206.528618 127.696566 
L 204.596818 127.02059 
L 202.436061 126.197293 
L 201.01029 125.609697 
L 200.275303 125.296711 
L 198.114545 124.307135 
L 196.514291 123.522828 
L 195.953788 123.238662 
L 193.79303 122.071361 
L 192.68504 121.43596 
L 191.632273 120.810706 
L 189.471515 119.453008 
L 189.314724 119.349091 
L 187.310758 117.971821 
L 186.329258 117.262222 
L 185.15 116.376924 
L 183.62477 115.175354 
L 182.989242 114.654702 
L 181.163377 113.088485 
L 180.828485 112.789273 
L 178.913712 111.001616 
L 178.667727 110.761999 
L 176.849583 108.914747 
L 176.50697 108.550864 
L 174.948945 106.827879 
L 174.346212 106.129667 
L 173.193116 104.74101 
L 172.185455 103.466981 
L 171.566152 102.654141 
L 170.055459 100.567273 
L 170.024697 100.522425 
L 168.673637 98.480404 
L 167.863939 97.184843 
L 167.386297 96.393535 
L 166.200509 94.306667 
L 165.703182 93.373272 
L 165.108909 92.219798 
L 164.105178 90.132929 
L 163.542424 88.873259 
L 163.184701 88.046061 
L 162.351376 85.959192 
L 161.587193 83.872323 
L 161.381667 83.255227 
L 160.907332 81.785455 
L 160.300843 79.698586 
L 159.761353 77.611717 
L 159.288862 75.524848 
L 159.220909 75.175127 
L 158.893522 73.43798 
L 158.56521 71.351111 
L 158.301882 69.264242 
L 158.103538 67.177374 
L 157.970178 65.090505 
L 157.901803 63.003636 
L 157.898412 60.916768 
L 157.960005 58.829899 
L 158.086582 56.74303 
L 158.278144 54.656162 
L 158.53469 52.569293 
L 158.85622 50.482424 
L 159.220909 48.513391 
L 159.243411 48.395556 
L 159.708909 46.308687 
L 160.241406 44.221818 
L 160.840902 42.134949 
L 161.381667 40.44176 
L 161.511422 40.048081 
L 162.268388 37.961212 
L 163.094498 35.874343 
L 163.542424 34.830209 
L 164.004538 33.787475 
L 165.000814 31.700606 
L 165.703182 30.327802 
L 166.081009 29.613737 
L 167.259087 27.526869 
L 167.863939 26.518642 
L 168.533941 25.44 
" style="fill:none;stroke:#516ddb;"/>
   </g>
   <g id="LineCollection_5">
    <path clip-path="url(#p506b44204d)" d="M 256.455 138.088978 
L 256.321784 138.130909 
L 254.294242 138.75187 
L 252.133485 139.357308 
L 249.972727 139.906424 
L 248.607529 140.217778 
L 247.81197 140.394449 
L 245.651212 140.819449 
L 243.490455 141.189607 
L 241.329697 141.504923 
L 239.168939 141.765397 
L 237.008182 141.971028 
L 234.847424 142.121817 
L 232.686667 142.217764 
L 230.525909 142.258868 
L 228.365152 142.24513 
L 226.204394 142.17655 
L 224.043636 142.053127 
L 221.882879 141.874863 
L 219.722121 141.641756 
L 217.561364 141.353806 
L 215.400606 141.011015 
L 213.239848 140.613381 
L 211.350682 140.217778 
L 211.079091 140.15937 
L 208.918333 139.638359 
L 206.757576 139.061027 
L 204.596818 138.427371 
L 203.668407 138.130909 
L 202.436061 137.726478 
L 200.275303 136.959478 
L 198.114545 136.134592 
L 197.892901 136.04404 
L 195.953788 135.229221 
L 193.79303 134.261731 
L 193.152269 133.957172 
L 191.632273 133.213488 
L 189.471515 132.095016 
L 189.059946 131.870303 
L 187.310758 130.886366 
L 185.446852 129.783434 
L 185.15 129.602297 
L 182.989242 128.21871 
L 182.210454 127.696566 
L 180.828485 126.740175 
L 179.265218 125.609697 
L 178.667727 125.163243 
L 176.562883 123.522828 
L 176.50697 123.477752 
L 174.346212 121.663965 
L 174.084937 121.43596 
L 172.185455 119.719256 
L 171.790907 119.349091 
L 170.024697 117.630772 
L 169.659284 117.262222 
L 167.863939 115.381958 
L 167.67341 115.175354 
L 165.822785 113.088485 
L 165.703182 112.948006 
L 164.100812 111.001616 
L 163.542424 110.293922 
L 162.489044 108.914747 
L 161.381667 107.399129 
L 160.977228 106.827879 
L 159.566749 104.74101 
L 159.220909 104.203807 
L 158.253272 102.654141 
L 157.060152 100.643073 
L 157.016494 100.567273 
L 155.877638 98.480404 
L 154.899394 96.582723 
L 154.804635 96.393535 
L 153.820681 94.306667 
L 152.898024 92.219798 
L 152.738636 91.83364 
L 152.056029 90.132929 
L 151.278036 88.046061 
L 150.577879 86.012144 
L 150.56014 85.959192 
L 149.919045 83.872323 
L 149.335957 81.785455 
L 148.810875 79.698586 
L 148.417121 77.939318 
L 148.345715 77.611717 
L 147.94734 75.524848 
L 147.605454 73.43798 
L 147.320058 71.351111 
L 147.091152 69.264242 
L 146.918735 67.177374 
L 146.802808 65.090505 
L 146.74337 63.003636 
L 146.740422 60.916768 
L 146.793964 58.829899 
L 146.903996 56.74303 
L 147.070517 54.656162 
L 147.293527 52.569293 
L 147.573028 50.482424 
L 147.909018 48.395556 
L 148.301498 46.308687 
L 148.417121 45.771254 
L 148.759416 44.221818 
L 149.278444 42.134949 
L 149.855479 40.048081 
L 150.490519 37.961212 
L 150.577879 37.698159 
L 151.200274 35.874343 
L 151.972046 33.787475 
L 152.738636 31.863229 
L 152.805261 31.700606 
L 153.721521 29.613737 
L 154.699077 27.526869 
L 154.899394 27.124469 
L 155.762414 25.44 
" style="fill:none;stroke:#5a78e4;"/>
   </g>
   <g id="LineCollection_6">
    <path clip-path="url(#p506b44204d)" d="M 256.455 148.036454 
L 254.541987 148.565253 
L 254.294242 148.632106 
L 252.133485 149.165557 
L 249.972727 149.649383 
L 247.81197 150.083583 
L 245.651212 150.468158 
L 244.464462 150.652121 
L 243.490455 150.799599 
L 241.329697 151.078295 
L 239.168939 151.308518 
L 237.008182 151.490267 
L 234.847424 151.623544 
L 232.686667 151.708348 
L 230.525909 151.744678 
L 228.365152 151.732536 
L 226.204394 151.67192 
L 224.043636 151.562832 
L 221.882879 151.405271 
L 219.722121 151.199236 
L 217.561364 150.944729 
L 215.474582 150.652121 
L 215.400606 150.641502 
L 213.239848 150.281691 
L 211.079091 149.872254 
L 208.918333 149.413192 
L 206.757576 148.904504 
L 205.444623 148.565253 
L 204.596818 148.340854 
L 202.436061 147.718105 
L 200.275303 147.044523 
L 198.586652 146.478384 
L 198.114545 146.316153 
L 195.953788 145.521545 
L 193.79303 144.674833 
L 193.111931 144.391515 
L 191.632273 143.760257 
L 189.471515 142.784988 
L 188.462578 142.304646 
L 187.310758 141.74187 
L 185.15 140.631286 
L 184.383335 140.217778 
L 182.989242 139.445567 
L 180.828485 138.192365 
L 180.727081 138.130909 
L 178.667727 136.848222 
L 177.429854 136.04404 
L 176.50697 135.427386 
L 174.393789 133.957172 
L 174.346212 133.923099 
L 172.185455 132.314352 
L 171.610925 131.870303 
L 170.024697 130.607228 
L 169.026759 129.783434 
L 167.863939 128.793583 
L 166.619285 127.696566 
L 165.703182 126.863126 
L 164.37098 125.609697 
L 163.542424 124.804194 
L 162.266564 123.522828 
L 161.381667 122.603522 
L 160.292653 121.43596 
L 159.220909 120.245952 
L 158.437471 119.349091 
L 157.060152 117.714084 
L 156.69062 117.262222 
L 155.047068 115.175354 
L 154.899394 114.980362 
L 153.50725 113.088485 
L 152.738636 112.000538 
L 152.052385 111.001616 
L 150.67833 108.914747 
L 150.577879 108.755267 
L 149.396472 106.827879 
L 148.417121 105.154238 
L 148.181637 104.74101 
L 147.048896 102.654141 
L 146.256364 101.117408 
L 145.979873 100.567273 
L 144.986093 98.480404 
L 144.095606 96.500785 
L 144.048561 96.393535 
L 143.186835 94.306667 
L 142.378793 92.219798 
L 141.934848 90.991667 
L 141.631958 90.132929 
L 140.948267 88.046061 
L 140.316957 85.959192 
L 139.774091 84.002319 
L 139.738882 83.872323 
L 139.224797 81.785455 
L 138.761854 79.698586 
L 138.350053 77.611717 
L 137.989393 75.524848 
L 137.679874 73.43798 
L 137.613333 72.900538 
L 137.425933 71.351111 
L 137.223489 69.264242 
L 137.071005 67.177374 
L 136.96848 65.090505 
L 136.915913 63.003636 
L 136.913306 60.916768 
L 136.960658 58.829899 
L 137.05797 56.74303 
L 137.20524 54.656162 
L 137.40247 52.569293 
L 137.613333 50.789094 
L 137.650518 50.482424 
L 137.954699 48.395556 
L 138.310021 46.308687 
L 138.716485 44.221818 
L 139.174091 42.134949 
L 139.682838 40.048081 
L 139.774091 39.707953 
L 140.254087 37.961212 
L 140.87993 35.874343 
L 141.558154 33.787475 
L 141.934848 32.711503 
L 142.297553 31.700606 
L 143.099993 29.613737 
L 143.956115 27.526869 
L 144.095606 27.206912 
L 144.885547 25.44 
" style="fill:none;stroke:#6282ea;"/>
   </g>
   <g id="LineCollection_7">
    <path clip-path="url(#p506b44204d)" d="M 256.455 156.956768 
L 252.133485 157.976317 
L 246.673721 158.999596 
L 243.490455 159.4616 
L 239.168939 159.927254 
L 234.847424 160.215499 
L 230.525909 160.326336 
L 226.204394 160.259763 
L 221.882879 160.015782 
L 217.561364 159.594392 
L 213.239848 158.995506 
L 208.918333 158.202443 
L 203.369218 156.912727 
L 200.275303 156.053884 
L 195.953788 154.68422 
L 190.737056 152.73899 
L 185.911635 150.652121 
L 181.662355 148.565253 
L 177.846668 146.478384 
L 174.346212 144.379014 
L 170.024697 141.499411 
L 165.494565 138.130909 
L 161.381667 134.702801 
L 158.289966 131.870303 
L 154.899394 128.473248 
L 152.277836 125.609697 
L 148.803784 121.43596 
L 146.256364 118.048147 
L 144.095606 114.92459 
L 141.628756 111.001616 
L 139.27815 106.827879 
L 137.186119 102.654141 
L 135.335132 98.480404 
L 133.291818 93.094796 
L 132.319446 90.132929 
L 131.120911 85.959192 
L 130.134945 81.785455 
L 129.335853 77.611717 
L 128.728856 73.43798 
L 128.312515 69.264242 
L 128.079093 65.090505 
L 128.02859 60.916768 
L 128.161007 56.74303 
L 128.476343 52.569293 
L 128.974692 48.395556 
L 129.670595 44.221818 
L 130.553372 40.048081 
L 131.633895 35.874343 
L 133.291818 30.608222 
L 134.418383 27.526869 
L 135.245947 25.44 
L 135.245947 25.44 
" style="fill:none;stroke:#6b8df0;"/>
   </g>
   <g id="LineCollection_8">
    <path clip-path="url(#p506b44204d)" d="M 256.455 165.104751 
L 252.133485 166.045927 
L 247.81197 166.817222 
L 243.490455 167.420279 
L 239.168939 167.849448 
L 234.847424 168.115109 
L 230.525909 168.217261 
L 226.204394 168.155905 
L 221.882879 167.93104 
L 215.907236 167.347071 
L 213.239848 166.983665 
L 208.918333 166.253981 
L 204.185118 165.260202 
L 200.275303 164.274595 
L 195.953788 163.016308 
L 190.337567 161.086465 
L 187.310758 159.908227 
L 182.989242 158.047328 
L 178.667727 155.964854 
L 174.346212 153.645716 
L 169.359924 150.652121 
L 165.703182 148.221746 
L 161.381667 145.060841 
L 157.944118 142.304646 
L 154.899394 139.665756 
L 150.577879 135.55598 
L 147.080794 131.870303 
L 143.491164 127.696566 
L 139.774091 122.866494 
L 137.327729 119.349091 
L 134.69226 115.175354 
L 132.316527 111.001616 
L 130.183684 106.827879 
L 128.278308 102.654141 
L 126.586257 98.480404 
L 124.648788 92.898058 
L 123.817646 90.132929 
L 122.48803 84.976993 
L 121.804224 81.785455 
L 121.06874 77.611717 
L 120.505256 73.43798 
L 120.117937 69.264242 
L 119.902733 65.090505 
L 119.856172 60.916768 
L 119.978254 56.74303 
L 120.327273 51.986121 
L 120.736328 48.395556 
L 121.376836 44.221818 
L 122.48803 38.723987 
L 123.187774 35.874343 
L 124.648788 30.806333 
L 125.745507 27.526869 
L 126.504466 25.44 
L 126.504466 25.44 
" style="fill:none;stroke:#7396f5;"/>
   </g>
   <g id="LineCollection_9">
    <path clip-path="url(#p506b44204d)" d="M 256.455 172.652608 
L 251.738839 173.607677 
L 247.81197 174.253145 
L 243.490455 174.812928 
L 239.168939 175.218278 
L 234.847424 175.469194 
L 230.525909 175.565677 
L 226.204394 175.507726 
L 221.882879 175.295341 
L 217.561364 174.928523 
L 213.239848 174.407271 
L 208.241813 173.607677 
L 204.596818 172.888155 
L 198.871305 171.520808 
L 195.953788 170.709291 
L 191.632273 169.364847 
L 186.045178 167.347071 
L 181.00701 165.260202 
L 178.667727 164.192825 
L 174.346212 162.064252 
L 170.024697 159.712145 
L 165.373403 156.912727 
L 161.381667 154.265349 
L 156.443702 150.652121 
L 152.738636 147.666632 
L 148.417121 143.853181 
L 144.095606 139.628047 
L 140.762384 136.04404 
L 137.214329 131.870303 
L 133.995461 127.696566 
L 131.063606 123.522828 
L 128.40793 119.349091 
L 125.996679 115.175354 
L 123.814965 111.001616 
L 121.849083 106.827879 
L 120.0864 102.654141 
L 118.166515 97.448372 
L 117.146257 94.306667 
L 115.943865 90.132929 
L 114.925199 85.959192 
L 113.845 80.513706 
L 113.383462 77.611717 
L 112.861524 73.43798 
L 112.498904 69.264242 
L 112.295601 65.090505 
L 112.251615 60.916768 
L 112.366946 56.74303 
L 112.641594 52.569293 
L 113.075559 48.395556 
L 113.845 43.19029 
L 114.432265 40.048081 
L 115.361306 35.874343 
L 116.461209 31.700606 
L 118.166515 26.25349 
L 118.445049 25.44 
L 118.445049 25.44 
" style="fill:none;stroke:#7da0f9;"/>
   </g>
   <g id="LineCollection_10">
    <path clip-path="url(#p506b44204d)" d="M 256.455 179.724822 
L 252.133485 180.550311 
L 245.651212 181.510435 
L 241.329697 181.967412 
L 234.847424 182.371775 
L 228.365152 182.452605 
L 221.882879 182.209901 
L 217.561364 181.866836 
L 211.079091 181.071205 
L 204.596818 179.946369 
L 200.275303 178.998339 
L 195.530296 177.781414 
L 189.471515 175.940398 
L 185.15 174.419876 
L 180.828485 172.724024 
L 176.50697 170.842736 
L 172.185455 168.765117 
L 167.863939 166.479397 
L 163.542424 163.972851 
L 159.003603 161.086465 
L 154.899394 158.224485 
L 150.432948 154.825859 
L 145.480047 150.652121 
L 141.007422 146.478384 
L 136.948444 142.304646 
L 133.248268 138.130909 
L 129.880596 133.957172 
L 126.793009 129.783434 
L 123.980906 125.609697 
L 121.409726 121.43596 
L 119.065366 117.262222 
L 116.934802 113.088485 
L 115.005991 108.914747 
L 113.267775 104.74101 
L 111.684242 100.49171 
L 110.33693 96.393535 
L 109.127653 92.219798 
L 108.08649 88.046061 
L 107.201839 83.872323 
L 106.480799 79.698586 
L 105.910727 75.524848 
L 105.491624 71.351111 
L 105.20197 66.597541 
L 105.107967 63.003636 
L 105.20197 57.074385 
L 105.324899 54.656162 
L 105.66064 50.482424 
L 106.147349 46.308687 
L 106.785027 42.134949 
L 107.577423 37.961212 
L 108.533742 33.787475 
L 109.64589 29.613737 
L 110.932385 25.44 
L 110.932385 25.44 
" style="fill:none;stroke:#86a9fc;"/>
   </g>
   <g id="LineCollection_11">
    <path clip-path="url(#p506b44204d)" d="M 256.455 186.392062 
L 249.972727 187.512728 
L 243.490455 188.318917 
L 237.008182 188.805955 
L 230.525909 188.985358 
L 224.043636 188.857126 
L 217.561364 188.421258 
L 211.079091 187.668795 
L 204.596818 186.600153 
L 200.275303 185.706943 
L 193.79303 184.090113 
L 189.471515 182.814746 
L 185.15 181.384936 
L 180.828485 179.792416 
L 175.949595 177.781414 
L 171.387405 175.694545 
L 167.227481 173.607677 
L 163.39259 171.520808 
L 159.220909 169.054526 
L 154.899394 166.274262 
L 150.469247 163.173333 
L 145.074093 158.999596 
L 141.934848 156.358139 
L 137.613333 152.430251 
L 133.291818 148.11964 
L 128.970303 143.367507 
L 126.330766 140.217778 
L 122.48803 135.22808 
L 120.110206 131.870303 
L 117.380693 127.696566 
L 114.875427 123.522828 
L 112.582008 119.349091 
L 110.488933 115.175354 
L 108.585517 111.001616 
L 106.861822 106.827879 
L 105.20197 102.3393 
L 103.299696 96.393535 
L 102.161014 92.219798 
L 100.735493 85.959192 
L 99.653991 79.698586 
L 98.895256 73.43798 
L 98.571211 69.264242 
L 98.354024 63.003636 
L 98.454334 56.74303 
L 98.87467 50.482424 
L 99.622176 44.221818 
L 100.692449 37.961212 
L 101.597174 33.787475 
L 103.235817 27.526869 
L 103.864484 25.44 
L 103.864484 25.44 
" style="fill:none;stroke:#8fb1fe;"/>
   </g>
   <g id="LineCollection_12">
    <path clip-path="url(#p506b44204d)" d="M 256.455 192.720455 
L 249.972727 193.787799 
L 243.490455 194.556003 
L 237.008182 195.02023 
L 230.525909 195.191231 
L 224.043636 195.069004 
L 217.561364 194.653551 
L 211.079091 193.936441 
L 204.596818 192.918644 
L 198.114545 191.590294 
L 191.632273 189.944976 
L 185.15 187.966853 
L 178.667727 185.63902 
L 174.346212 183.887061 
L 170.006299 181.955152 
L 165.703182 179.860529 
L 161.381667 177.566971 
L 157.060152 175.072723 
L 151.457251 171.520808 
L 148.414372 169.433939 
L 142.825899 165.260202 
L 139.774091 162.791297 
L 135.413189 158.999596 
L 131.01847 154.825859 
L 126.809545 150.454281 
L 122.48803 145.520546 
L 119.885825 142.304646 
L 116.005758 137.093266 
L 113.845 133.952749 
L 111.184371 129.783434 
L 108.730808 125.609697 
L 106.476185 121.43596 
L 104.410256 117.262222 
L 102.523467 113.088485 
L 100.806898 108.914747 
L 98.544823 102.654141 
L 96.634322 96.393535 
L 95.553457 92.219798 
L 94.197529 85.959192 
L 93.167324 79.698586 
L 92.444576 73.43798 
L 92.032524 67.177374 
L 91.926369 60.916768 
L 92.122885 54.656162 
L 92.628155 48.395556 
L 93.442692 42.134949 
L 94.567362 35.874343 
L 96.019777 29.613737 
L 97.171446 25.44 
L 97.171446 25.44 
" style="fill:none;stroke:#98b9ff;"/>
   </g>
   <g id="LineCollection_13">
    <path clip-path="url(#p506b44204d)" d="M 256.455 198.758341 
L 249.972727 199.777208 
L 243.490455 200.511727 
L 237.008182 200.958544 
L 230.525909 201.121893 
L 224.043636 201.005135 
L 217.561364 200.606321 
L 211.079091 199.919099 
L 204.596818 198.947529 
L 198.114545 197.676877 
L 191.632273 196.105903 
L 185.15 194.220318 
L 178.667727 192.004912 
L 172.185455 189.443478 
L 167.863939 187.535211 
L 163.542424 185.456297 
L 159.220909 183.197916 
L 153.42077 179.868283 
L 150.074769 177.781414 
L 146.256364 175.239915 
L 141.105759 171.520808 
L 137.613333 168.795403 
L 133.291818 165.17437 
L 128.806321 161.086465 
L 124.596612 156.912727 
L 120.327273 152.292681 
L 116.005758 147.162016 
L 113.835048 144.391515 
L 110.780693 140.217778 
L 107.362727 135.133562 
L 105.20197 131.653168 
L 102.916679 127.696566 
L 100.691503 123.522828 
L 98.644817 119.349091 
L 95.898442 113.088485 
L 93.512203 106.827879 
L 91.469285 100.567273 
L 89.753903 94.306667 
L 88.357897 88.046061 
L 87.269826 81.785455 
L 86.481961 75.524848 
L 85.98763 69.264242 
L 85.786835 63.003636 
L 85.879574 56.74303 
L 86.265847 50.482424 
L 86.945656 44.221818 
L 87.919046 37.961212 
L 89.205339 31.700606 
L 90.800763 25.44 
L 90.800763 25.44 
" style="fill:none;stroke:#a1c0ff;"/>
   </g>
   <g id="LineCollection_14">
    <path clip-path="url(#p506b44204d)" d="M 256.455 204.538191 
L 249.972727 205.518188 
L 243.490455 206.220795 
L 237.008182 206.651408 
L 230.525909 206.810026 
L 224.043636 206.69665 
L 217.561364 206.311279 
L 211.079091 205.653914 
L 204.596818 204.721819 
L 198.114545 203.502811 
L 191.632273 201.995642 
L 185.15 200.190083 
L 178.667727 198.072373 
L 172.185455 195.627893 
L 167.863939 193.809213 
L 163.542424 191.831023 
L 159.220909 189.685484 
L 154.899394 187.364236 
L 149.237949 184.04202 
L 144.095606 180.72614 
L 139.774091 177.705746 
L 134.397492 173.607677 
L 129.392634 169.433939 
L 126.809545 167.12867 
L 122.48803 163.015475 
L 118.166515 158.545017 
L 113.845 153.668635 
L 111.354724 150.652121 
L 107.362727 145.437828 
L 105.13212 142.304646 
L 102.357912 138.130909 
L 99.783381 133.957172 
L 96.558939 128.233471 
L 94.155626 123.522828 
L 91.295569 117.262222 
L 89.584577 113.088485 
L 87.303851 106.827879 
L 85.347993 100.567273 
L 83.704334 94.306667 
L 82.781302 90.132929 
L 81.636613 83.872323 
L 80.786342 77.611717 
L 80.219821 71.351111 
L 79.934117 65.090505 
L 79.929233 58.829899 
L 80.205166 52.569293 
L 80.761919 46.308687 
L 81.601919 40.048081 
L 82.736695 33.787475 
L 84.164761 27.526869 
L 84.709294 25.44 
L 84.709294 25.44 
" style="fill:none;stroke:#aac7fd;"/>
   </g>
   <g id="LineCollection_15">
    <path clip-path="url(#p506b44204d)" d="M 256.455 210.092776 
L 249.972727 211.039945 
L 243.490455 211.715122 
L 237.008182 212.127805 
L 230.525909 212.279819 
L 224.043636 212.171164 
L 217.561364 211.801838 
L 211.074814 211.171313 
L 204.596818 210.268651 
L 198.034139 209.084444 
L 191.632273 207.649034 
L 185.15 205.913124 
L 178.667727 203.880873 
L 172.185455 201.539019 
L 167.863939 199.79765 
L 163.542424 197.906503 
L 159.220909 195.858564 
L 154.899394 193.646373 
L 148.923184 190.302626 
L 144.095606 187.340969 
L 139.138387 184.04202 
L 135.452576 181.4058 
L 130.72999 177.781414 
L 125.726348 173.607677 
L 121.121001 169.433939 
L 116.868214 165.260202 
L 112.928994 161.086465 
L 109.269893 156.912727 
L 105.20197 151.876416 
L 102.710849 148.565253 
L 98.719697 142.823769 
L 95.740866 138.130909 
L 93.290577 133.957172 
L 91.017452 129.783434 
L 88.913345 125.609697 
L 86.970602 121.43596 
L 84.34497 115.175354 
L 82.779367 111.001616 
L 80.695714 104.74101 
L 78.917445 98.480404 
L 77.43625 92.219798 
L 76.244231 85.959192 
L 75.329698 79.698586 
L 74.691743 73.43798 
L 74.328184 67.177374 
L 74.233782 60.916768 
L 74.408539 54.656162 
L 74.852454 48.395556 
L 75.574148 42.134949 
L 76.570165 35.874343 
L 77.849467 29.613737 
L 78.861267 25.44 
L 78.861267 25.44 
" style="fill:none;stroke:#b2ccfb;"/>
   </g>
   <g id="LineCollection_16">
    <path clip-path="url(#p506b44204d)" d="M 256.455 215.450937 
L 249.972727 216.359734 
L 243.490455 217.014901 
L 236.576495 217.431919 
L 230.525909 217.562583 
L 223.413653 217.431919 
L 217.561364 217.099276 
L 211.079091 216.486296 
L 204.596818 215.619686 
L 198.114545 214.487872 
L 191.632273 213.092935 
L 185.15 211.420261 
L 178.667727 209.463211 
L 172.185455 207.211966 
L 166.331278 204.910707 
L 161.381667 202.763103 
L 154.899394 199.642205 
L 149.130474 196.563232 
L 144.095606 193.624213 
L 138.860872 190.302626 
L 133.291818 186.448929 
L 128.970303 183.206612 
L 124.648788 179.732916 
L 119.991358 175.694545 
L 115.536244 171.520808 
L 111.40367 167.347071 
L 107.362727 162.946529 
L 103.041212 157.838662 
L 99.077016 152.73899 
L 96.076794 148.565253 
L 92.237424 142.761325 
L 89.434245 138.130909 
L 87.092261 133.957172 
L 84.916316 129.783434 
L 81.947683 123.522828 
L 80.158487 119.349091 
L 77.741949 113.088485 
L 75.635854 106.827879 
L 73.82731 100.567273 
L 72.304131 94.306667 
L 71.060588 88.046061 
L 70.089901 81.785455 
L 69.386923 75.524848 
L 68.945854 69.264242 
L 68.766693 63.003636 
L 68.84944 56.74303 
L 69.194095 50.482424 
L 69.800658 44.221818 
L 70.669666 37.961212 
L 71.815478 31.700606 
L 73.23281 25.44 
L 73.23281 25.44 
" style="fill:none;stroke:#bbd1f8;"/>
   </g>
   <g id="LineCollection_17">
    <path clip-path="url(#p506b44204d)" d="M 256.455 220.622861 
L 249.972727 221.507758 
L 243.490455 222.138687 
L 237.008182 222.524592 
L 230.525909 222.666741 
L 224.043636 222.565137 
L 217.561364 222.219777 
L 210.863422 221.605657 
L 204.596818 220.787172 
L 198.114545 219.696393 
L 191.632273 218.343197 
L 185.15 216.728004 
L 178.667727 214.840057 
L 172.185455 212.667999 
L 165.703182 210.199834 
L 159.220909 207.42288 
L 153.929192 204.910707 
L 148.417121 202.049762 
L 142.445833 198.650101 
L 137.613333 195.652033 
L 132.736189 192.389495 
L 126.992976 188.215758 
L 122.48803 184.663718 
L 118.166515 181.009362 
L 113.845 177.089487 
L 109.523485 172.874063 
L 105.20197 168.328355 
L 100.880455 163.411964 
L 97.29227 158.999596 
L 94.122621 154.825859 
L 90.076667 149.047707 
L 87.081758 144.391515 
L 83.594394 138.48187 
L 81.150161 133.957172 
L 78.073591 127.696566 
L 75.32599 121.43596 
L 72.893699 115.175354 
L 70.763804 108.914747 
L 68.924086 102.654141 
L 67.362978 96.393535 
L 66.069517 90.132929 
L 65.044927 83.872323 
L 64.275375 77.611717 
L 63.765867 71.351111 
L 63.509751 65.090505 
L 63.505372 58.829899 
L 63.75273 52.569293 
L 64.253193 46.308687 
L 65.013872 40.048081 
L 66.02959 33.787475 
L 67.31353 27.526869 
L 67.800173 25.44 
L 67.800173 25.44 
" style="fill:none;stroke:#c4d5f3;"/>
   </g>
   <g id="LineCollection_18">
    <path clip-path="url(#p506b44204d)" d="M 256.455 225.636682 
L 249.972727 226.489804 
L 243.490455 227.103532 
L 237.008182 227.479673 
L 230.525909 227.618226 
L 224.043636 227.519192 
L 217.561364 227.18257 
L 211.079091 226.608361 
L 204.482099 225.779394 
L 198.114545 224.733954 
L 191.632273 223.427093 
L 185.15 221.862961 
L 178.667727 220.034686 
L 172.185455 217.935246 
L 165.703182 215.553657 
L 160.111794 213.258182 
L 154.899394 210.914442 
L 148.417121 207.700836 
L 143.281867 204.910707 
L 137.613333 201.562078 
L 133.050085 198.650101 
L 126.809545 194.32462 
L 121.498236 190.302626 
L 116.403933 186.128889 
L 111.684242 181.954232 
L 107.303161 177.781414 
L 103.041212 173.418139 
L 98.719697 168.648484 
L 94.398182 163.489882 
L 90.915945 158.999596 
L 87.886628 154.825859 
L 83.705136 148.565253 
L 81.140113 144.391515 
L 77.602317 138.130909 
L 74.951364 132.971511 
L 72.471357 127.696566 
L 69.822917 121.43596 
L 67.474581 115.175354 
L 65.414541 108.914747 
L 63.631602 102.654141 
L 61.986818 95.789393 
L 60.868216 90.132929 
L 59.826061 83.543385 
L 59.12884 77.611717 
L 58.633803 71.351111 
L 58.38415 65.090505 
L 58.379882 58.829899 
L 58.620998 52.569293 
L 59.107498 46.308687 
L 59.839552 40.048081 
L 60.82931 33.787475 
L 62.068632 27.526869 
L 62.542676 25.44 
L 62.542676 25.44 
" style="fill:none;stroke:#cbd8ee;"/>
   </g>
   <g id="LineCollection_19">
    <path clip-path="url(#p506b44204d)" d="M 218.145824 232.04 
L 213.239848 231.655821 
L 206.757576 230.941297 
L 200.028455 229.953131 
L 193.79303 228.802882 
L 187.310758 227.369367 
L 180.828485 225.685224 
L 174.199812 223.692525 
L 167.863939 221.525512 
L 161.381667 219.028853 
L 154.899394 216.239315 
L 148.417121 213.1433 
L 141.934848 209.712583 
L 137.216778 206.997576 
L 131.131061 203.200734 
L 126.809545 200.289647 
L 121.6519 196.563232 
L 116.005758 192.147282 
L 111.355683 188.215758 
L 106.758678 184.04202 
L 102.472017 179.868283 
L 98.465298 175.694545 
L 94.398182 171.152554 
L 90.076667 165.946913 
L 86.339818 161.086465 
L 83.343414 156.912727 
L 79.193428 150.652121 
L 75.429345 144.391515 
L 72.790606 139.603443 
L 69.931468 133.957172 
L 67.064834 127.696566 
L 64.50009 121.43596 
L 62.225514 115.175354 
L 60.22998 108.914747 
L 58.502926 102.654141 
L 57.034314 96.393535 
L 55.818467 90.132929 
L 54.853064 83.872323 
L 54.130869 77.611717 
L 53.648018 71.351111 
L 53.40451 65.090505 
L 53.400347 58.829899 
L 53.635528 52.569293 
L 54.110052 46.308687 
L 54.823921 40.048081 
L 55.78053 33.787475 
L 56.987948 27.526869 
L 57.44427 25.44 
L 57.44427 25.44 
" style="fill:none;stroke:#d3dbe7;"/>
    <path clip-path="url(#p506b44204d)" d="M 256.455 230.497452 
L 254.294242 230.799969 
L 252.133485 231.076739 
L 249.972727 231.327761 
L 247.81197 231.553037 
L 245.651212 231.752565 
L 243.490455 231.926346 
L 241.831516 232.04 
" style="fill:none;stroke:#d3dbe7;"/>
   </g>
   <g id="LineCollection_20">
    <path clip-path="url(#p506b44204d)" d="M 186.707277 232.04 
L 180.828485 230.544197 
L 174.346212 228.655032 
L 167.863939 226.506883 
L 161.381667 224.089796 
L 154.899394 221.390506 
L 148.417121 218.391548 
L 141.934848 215.082601 
L 135.452576 211.436781 
L 131.131061 208.807898 
L 124.648788 204.544857 
L 119.329197 200.73697 
L 113.845 196.498917 
L 108.923112 192.389495 
L 104.265981 188.215758 
L 99.918034 184.04202 
L 95.849471 179.868283 
L 92.034202 175.694545 
L 87.915909 170.865155 
L 83.489862 165.260202 
L 78.966612 158.999596 
L 74.843315 152.73899 
L 71.093901 146.478384 
L 68.469091 141.708089 
L 65.599089 136.04404 
L 62.7229 129.783434 
L 60.14113 123.522828 
L 57.842633 117.262222 
L 55.816821 111.001616 
L 54.053625 104.74101 
L 52.543467 98.480404 
L 51.18303 91.680822 
L 50.260923 85.959192 
L 49.478213 79.698586 
L 48.930203 73.43798 
L 48.618426 67.177374 
L 48.537471 60.916768 
L 48.687337 54.656162 
L 49.068574 48.395556 
L 49.687428 42.134949 
L 50.539876 35.874343 
L 51.631303 29.613737 
L 52.495486 25.44 
L 52.495486 25.44 
" style="fill:none;stroke:#d9dce1;"/>
   </g>
   <g id="LineCollection_21">
    <path clip-path="url(#p506b44204d)" d="M 169.930255 232.04 
L 163.542424 229.810677 
L 157.060152 227.281167 
L 150.577879 224.472947 
L 144.095606 221.372135 
L 137.613333 217.955848 
L 133.03426 215.345051 
L 126.809545 211.511535 
L 122.48803 208.646464 
L 117.219463 204.910707 
L 111.684242 200.681809 
L 106.688748 196.563232 
L 101.96683 192.389495 
L 97.553279 188.215758 
L 93.418843 184.04202 
L 89.537858 179.868283 
L 85.755152 175.535259 
L 81.433636 170.216928 
L 77.692423 165.260202 
L 74.742404 161.086465 
L 70.629848 154.808931 
L 66.902768 148.565253 
L 64.147576 143.544635 
L 61.405333 138.130909 
L 58.518321 131.870303 
L 55.918661 125.609697 
L 53.595742 119.349091 
L 51.539471 113.088485 
L 49.740239 106.827879 
L 48.188893 100.567273 
L 46.861515 94.223553 
L 45.80821 88.046061 
L 44.967825 81.785455 
L 44.359556 75.524848 
L 43.979852 69.264242 
L 43.825618 63.003636 
L 43.896852 56.74303 
L 44.193555 50.482424 
L 44.715904 44.221818 
L 45.472315 37.961212 
L 46.45684 31.700606 
L 47.67907 25.44 
L 47.67907 25.44 
" style="fill:none;stroke:#e0dbd8;"/>
   </g>
   <g id="LineCollection_22">
    <path clip-path="url(#p506b44204d)" d="M 156.914122 232.04 
L 154.899394 231.217743 
L 152.738636 230.31014 
L 151.91214 229.953131 
L 150.577879 229.369591 
L 148.417121 228.398513 
L 147.263766 227.866263 
L 146.256364 227.395486 
L 144.095606 226.359327 
L 142.916287 225.779394 
L 141.934848 225.290586 
L 139.774091 224.187678 
L 138.826975 223.692525 
L 137.613333 223.049798 
L 135.452576 221.878409 
L 134.960823 221.605657 
L 133.291818 220.667764 
L 131.29237 219.518788 
L 131.131061 219.424857 
L 128.970303 218.138835 
L 127.807688 217.431919 
L 126.809545 216.816813 
L 124.648788 215.457063 
L 124.474405 215.345051 
L 122.48803 214.051666 
L 121.293652 213.258182 
L 120.327273 212.607259 
L 118.237024 211.171313 
L 118.166515 211.122194 
L 116.005758 209.587548 
L 115.310698 209.084444 
L 113.845 208.008387 
L 112.493554 206.997576 
L 111.684242 206.383487 
L 109.778387 204.910707 
L 109.523485 204.710833 
L 107.362727 202.985872 
L 107.163303 202.823838 
L 105.20197 201.206478 
L 104.642383 200.73697 
L 103.041212 199.373206 
L 102.206557 198.650101 
L 100.880455 197.48357 
L 99.851587 196.563232 
L 98.719697 195.534932 
L 97.573513 194.476364 
L 96.558939 193.524483 
L 95.368631 192.389495 
L 94.398182 191.449236 
L 93.233467 190.302626 
L 92.237424 189.306006 
L 91.164767 188.215758 
L 90.076667 187.091397 
L 89.159474 186.128889 
L 87.915909 184.801783 
L 87.214719 184.04202 
L 85.755152 182.433288 
L 85.3278 181.955152 
L 83.594394 179.981763 
L 83.496174 179.868283 
L 81.721606 177.781414 
L 81.433636 177.436615 
L 79.999706 175.694545 
L 79.272879 174.795193 
L 78.326829 173.607677 
L 77.112121 172.054192 
L 76.700909 171.520808 
L 75.122363 169.433939 
L 74.951364 169.203447 
L 73.593206 167.347071 
L 72.790606 166.228133 
L 72.1058 165.260202 
L 70.658849 163.173333 
L 70.629848 163.130637 
L 69.260095 161.086465 
L 68.469091 159.880908 
L 67.898518 158.999596 
L 66.576167 156.912727 
L 66.308333 156.480664 
L 65.295982 154.825859 
L 64.147576 152.906041 
L 64.048942 152.73899 
L 62.844738 150.652121 
L 61.986818 149.130002 
L 61.672573 148.565253 
L 60.538985 146.478384 
L 59.826061 145.133163 
L 59.43797 144.391515 
L 58.373216 142.304646 
L 57.665303 140.880707 
L 57.339834 140.217778 
L 56.342198 138.130909 
L 55.504545 136.330094 
L 55.373125 136.04404 
L 54.440955 133.957172 
L 53.535378 131.870303 
L 53.343788 131.415431 
L 52.664753 129.783434 
L 51.822728 127.696566 
L 51.18303 126.060087 
L 51.009088 125.609697 
L 50.229087 123.522828 
L 49.475041 121.43596 
L 49.022273 120.138228 
L 48.750217 119.349091 
L 48.056415 117.262222 
L 47.388259 115.175354 
L 46.861515 113.46449 
L 46.747108 113.088485 
L 46.137482 111.001616 
L 45.553201 108.914747 
L 44.994267 106.827879 
L 44.700758 105.67996 
L 44.463462 104.74101 
L 43.961113 102.654141 
L 43.483815 100.567273 
L 43.03157 98.480404 
L 42.604377 96.393535 
L 42.54 96.05946 
" style="fill:none;stroke:#e6d7cf;"/>
    <path clip-path="url(#p506b44204d)" d="M 42.54 27.637787 
L 42.561235 27.526869 
L 42.985814 25.44 
" style="fill:none;stroke:#e6d7cf;"/>
   </g>
   <g id="LineCollection_23">
    <path clip-path="url(#p506b44204d)" d="M 145.890542 232.04 
L 144.095606 231.200504 
L 141.934848 230.164166 
L 141.50551 229.953131 
L 139.774091 229.091449 
L 137.613333 227.990027 
L 137.376148 227.866263 
L 135.452576 226.849839 
L 133.47255 225.779394 
L 133.291818 225.680435 
L 131.131061 224.470579 
L 129.771529 223.692525 
L 128.970303 223.228036 
L 126.809545 221.948312 
L 126.242979 221.605657 
L 124.648788 220.628825 
L 122.873987 219.518788 
L 122.48803 219.274178 
L 120.327273 217.876934 
L 119.652511 217.431919 
L 118.166515 216.43865 
L 116.561731 215.345051 
L 116.005758 214.96099 
L 113.845 213.439792 
L 113.59179 213.258182 
L 111.684242 211.87104 
L 110.73942 211.171313 
L 109.523485 210.258129 
L 107.988467 209.084444 
L 107.362727 208.59917 
L 105.333616 206.997576 
L 105.20197 206.892161 
L 103.041212 205.131737 
L 102.774497 204.910707 
L 100.880455 203.318026 
L 100.302512 202.823838 
L 98.719697 201.450217 
L 97.911245 200.73697 
L 96.558939 199.525852 
L 95.596804 198.650101 
L 94.398182 197.542324 
L 93.355547 196.563232 
L 92.237424 195.49686 
L 91.184057 194.476364 
L 90.076667 193.386515 
L 89.079124 192.389495 
L 87.915909 191.208152 
L 87.037737 190.302626 
L 85.755152 188.958428 
L 85.057059 188.215758 
L 83.594394 186.633778 
L 83.134423 186.128889 
L 81.433636 184.230397 
L 81.267314 184.04202 
L 79.455967 181.955152 
L 79.272879 181.740517 
L 77.698555 179.868283 
L 77.112121 179.158435 
L 75.990474 177.781414 
L 74.951364 176.482548 
L 74.329676 175.694545 
L 72.790606 173.70765 
L 72.714223 173.607677 
L 71.149279 171.520808 
L 70.629848 170.814835 
L 69.627517 169.433939 
L 68.469091 167.806734 
L 68.1462 167.347071 
L 66.708992 165.260202 
L 66.308333 164.666573 
L 65.313715 163.173333 
L 64.147576 161.386149 
L 63.954562 161.086465 
L 62.638475 158.999596 
L 61.986818 157.94385 
L 61.358493 156.912727 
L 60.114452 154.825859 
L 59.826061 154.331103 
L 58.909734 152.73899 
L 57.73592 150.652121 
L 57.665303 150.523589 
L 56.602778 148.565253 
L 55.504545 146.491796 
L 55.497529 146.478384 
L 54.43239 144.391515 
L 53.393845 142.304646 
L 53.343788 142.201417 
L 52.393589 140.217778 
L 51.420211 138.130909 
L 51.18303 137.608301 
L 50.481632 136.04404 
L 49.571856 133.957172 
L 49.022273 132.659501 
L 48.692003 131.870303 
L 47.844319 129.783434 
L 47.022282 127.696566 
L 46.861515 127.275289 
L 46.233349 125.609697 
L 45.471646 123.522828 
L 44.73529 121.43596 
L 44.700758 121.334604 
L 44.032123 119.349091 
L 43.354409 117.262222 
L 42.701746 115.175354 
L 42.54 114.63753 
" style="fill:none;stroke:#ecd3c5;"/>
   </g>
   <g id="LineCollection_24">
    <path clip-path="url(#p506b44204d)" d="M 136.153219 232.04 
L 135.452576 231.678913 
L 133.291818 230.539585 
L 132.204176 229.953131 
L 131.131061 229.367282 
L 128.970303 228.161585 
L 128.45225 227.866263 
L 126.809545 226.917973 
L 124.878084 225.779394 
L 124.648788 225.642494 
L 122.48803 224.325692 
L 121.469736 223.692525 
L 120.327273 222.972933 
L 118.198869 221.605657 
L 118.166515 221.584599 
L 116.005758 220.150848 
L 115.07109 219.518788 
L 113.845 218.678609 
L 112.059216 217.431919 
L 111.684242 217.166608 
L 109.523485 215.609591 
L 109.162894 215.345051 
L 107.362727 214.006314 
L 106.374303 213.258182 
L 105.20197 212.358534 
L 103.681457 211.171313 
L 103.041212 210.664372 
L 101.079508 209.084444 
L 100.880455 208.921841 
L 98.719697 207.126967 
L 98.566473 206.997576 
L 96.558939 205.277752 
L 96.137375 204.910707 
L 94.398182 203.374189 
L 93.785085 202.823838 
L 92.237424 201.413849 
L 91.506019 200.73697 
L 90.076667 199.39415 
L 89.296808 198.650101 
L 87.915909 197.312358 
L 87.154289 196.563232 
L 85.755152 195.165562 
L 85.075489 194.476364 
L 83.594394 192.95067 
L 83.057605 192.389495 
L 81.433636 190.66439 
L 81.097999 190.302626 
L 79.272879 188.303215 
L 79.194182 188.215758 
L 77.347103 186.128889 
L 77.112121 185.858906 
L 75.552976 184.04202 
L 74.951364 183.328879 
L 73.808513 181.955152 
L 72.790606 180.710162 
L 72.111681 179.868283 
L 70.629848 177.998005 
L 70.460553 177.781414 
L 68.858484 175.694545 
L 68.469091 175.177934 
L 67.301245 173.607677 
L 66.308333 172.247468 
L 65.78485 171.520808 
L 64.309815 169.433939 
L 64.147576 169.199908 
L 62.879745 167.347071 
L 61.986818 166.016055 
L 61.486226 165.260202 
L 60.131732 163.173333 
L 59.826061 162.692586 
L 58.817736 161.086465 
L 57.665303 159.211785 
L 57.536488 158.999596 
L 56.296526 156.912727 
L 55.504545 155.550231 
L 55.088671 154.825859 
L 53.917157 152.73899 
L 53.343788 151.693899 
L 52.779185 150.652121 
L 51.674456 148.565253 
L 51.18303 147.614322 
L 50.603048 146.478384 
L 49.563498 144.391515 
L 49.022273 143.277199 
L 48.555509 142.304646 
L 47.579592 140.217778 
L 46.861515 138.640826 
L 46.632044 138.130909 
L 45.718266 136.04404 
L 44.829834 133.957172 
L 44.700758 133.645075 
L 43.975259 131.870303 
L 43.147231 129.783434 
L 42.54 128.205288 
" style="fill:none;stroke:#f0cdbb;"/>
   </g>
   <g id="LineCollection_25">
    <path clip-path="url(#p506b44204d)" d="M 127.332848 232.04 
L 126.809545 231.745365 
L 124.648788 230.503049 
L 123.711738 229.953131 
L 122.48803 229.226014 
L 120.327273 227.916041 
L 120.246766 227.866263 
L 118.166515 226.563729 
L 116.937844 225.779394 
L 116.005758 225.176764 
L 113.845 223.753014 
L 113.754891 223.692525 
L 111.684242 222.284488 
L 110.704027 221.605657 
L 109.523485 220.777342 
L 107.761638 219.518788 
L 107.362727 219.230034 
L 105.20197 217.638152 
L 104.926844 217.431919 
L 103.041212 215.999376 
L 102.194471 215.345051 
L 100.880455 214.315735 
L 99.552798 213.258182 
L 98.719697 212.585359 
L 96.997384 211.171313 
L 96.558939 210.806277 
L 94.524071 209.084444 
L 94.398182 208.976401 
L 92.237424 207.092156 
L 92.130652 206.997576 
L 90.076667 205.151772 
L 89.812524 204.910707 
L 87.915909 203.154361 
L 87.564377 202.823838 
L 85.755152 201.097373 
L 85.383088 200.73697 
L 83.594394 198.978101 
L 83.26572 198.650101 
L 81.433636 196.793672 
L 81.209502 196.563232 
L 79.272879 194.541036 
L 79.211824 194.476364 
L 77.272472 192.389495 
L 77.112121 192.214167 
L 75.388414 190.302626 
L 74.951364 189.810012 
L 73.556509 188.215758 
L 72.790606 187.325788 
L 71.774622 186.128889 
L 70.629848 184.757428 
L 70.040732 184.04202 
L 68.469091 182.100584 
L 68.352924 181.955152 
L 66.714717 179.868283 
L 66.308333 179.341366 
L 65.121002 177.781414 
L 64.147576 176.479267 
L 63.568548 175.694545 
L 62.056665 173.607677 
L 61.986818 173.509449 
L 60.590825 171.520808 
L 59.826061 170.410446 
L 59.161977 169.433939 
L 57.770044 167.347071 
L 57.665303 167.1869 
L 56.421075 165.260202 
L 55.504545 163.812013 
L 55.105312 163.173333 
L 53.827423 161.086465 
L 53.343788 160.279874 
L 52.585461 158.999596 
L 51.37565 156.912727 
L 51.18303 156.573093 
L 50.204011 154.825859 
L 49.060642 152.73899 
L 49.022273 152.667332 
L 47.956035 150.652121 
L 46.87753 148.565253 
L 46.861515 148.53351 
L 45.836834 146.478384 
L 44.821672 144.391515 
L 44.700758 144.136586 
L 43.84193 142.304646 
L 42.888642 140.217778 
L 42.54 139.433956 
" style="fill:none;stroke:#f3c7b1;"/>
   </g>
   <g id="LineCollection_26">
    <path clip-path="url(#p506b44204d)" d="M 119.214731 232.04 
L 118.166515 231.399862 
L 116.005758 230.054557 
L 115.845912 229.953131 
L 113.845 228.667645 
L 112.620609 227.866263 
L 111.684242 227.245644 
L 109.523485 225.787107 
L 109.512262 225.779394 
L 107.362727 224.283245 
L 106.528857 223.692525 
L 105.20197 222.740348 
L 103.647887 221.605657 
L 103.041212 221.156877 
L 100.880455 219.531046 
L 100.864434 219.518788 
L 98.719697 217.85591 
L 98.181773 217.431919 
L 96.558939 216.135532 
L 95.585301 215.345051 
L 94.398182 214.368054 
L 93.070931 213.258182 
L 92.237424 212.551515 
L 90.634828 211.171313 
L 90.076667 210.683843 
L 88.273395 209.084444 
L 87.915909 208.762849 
L 85.983249 206.997576 
L 85.755152 206.786216 
L 83.761212 204.910707 
L 83.594394 204.751492 
L 81.604288 202.823838 
L 81.433636 202.656076 
L 79.509659 200.73697 
L 79.272879 200.497214 
L 77.474662 198.650101 
L 77.112121 198.271978 
L 75.496787 196.563232 
L 74.951364 195.97726 
L 73.573663 194.476364 
L 72.790606 193.609754 
L 71.703048 192.389495 
L 70.629848 191.165942 
L 69.882818 190.302626 
L 68.469091 188.642073 
L 68.110967 188.215758 
L 66.386617 186.128889 
L 66.308333 186.032543 
L 64.712192 184.04202 
L 64.147576 183.325767 
L 63.081117 181.955152 
L 61.986818 180.524104 
L 61.491731 179.868283 
L 59.943943 177.781414 
L 59.826061 177.619587 
L 58.441463 175.694545 
L 57.665303 174.595466 
L 56.976428 173.607677 
L 55.547989 171.520808 
L 55.504545 171.45612 
L 54.16319 169.433939 
L 53.343788 168.17444 
L 52.812064 167.347071 
L 51.497171 165.260202 
L 51.18303 164.751465 
L 50.220253 163.173333 
L 49.022273 161.168803 
L 48.973648 161.086465 
L 47.766909 158.999596 
L 46.861515 157.399858 
L 46.589051 156.912727 
L 45.447159 154.825859 
L 44.700758 153.430804 
L 44.334905 152.73899 
L 43.256356 150.652121 
L 42.54 149.233092 
" style="fill:none;stroke:#f6bfa6;"/>
   </g>
   <g id="LineCollection_27">
    <path clip-path="url(#p506b44204d)" d="M 111.646344 232.04 
L 109.523485 230.642404 
L 108.495136 229.953131 
L 107.362727 229.184628 
L 105.454014 227.866263 
L 105.20197 227.689971 
L 103.041212 226.152238 
L 102.526149 225.779394 
L 100.880455 224.572844 
L 99.699657 223.692525 
L 98.719697 222.952455 
L 96.965458 221.605657 
L 96.558939 221.289452 
L 94.398182 219.581301 
L 94.320354 219.518788 
L 92.237424 217.823418 
L 91.763915 217.431919 
L 90.076667 216.018058 
L 89.285833 215.345051 
L 87.915909 214.163272 
L 86.882561 213.258182 
L 85.755152 212.257 
L 84.550761 211.171313 
L 83.594394 210.297071 
L 82.287292 209.084444 
L 81.433636 208.281185 
L 80.089193 206.997576 
L 79.272879 206.206912 
L 77.953673 204.910707 
L 77.112121 204.071678 
L 75.878097 202.823838 
L 74.951364 201.872755 
L 73.859976 200.73697 
L 72.790606 199.60725 
L 71.896957 198.650101 
L 70.629848 197.272094 
L 69.986813 196.563232 
L 68.469091 194.864023 
L 68.127437 194.476364 
L 66.316944 192.389495 
L 66.308333 192.379409 
L 64.55842 190.302626 
L 64.147576 189.807053 
L 62.845424 188.215758 
L 61.986818 187.149025 
L 61.17621 186.128889 
L 59.826061 184.400975 
L 59.549121 184.04202 
L 57.966334 181.955152 
L 57.665303 181.551293 
L 56.426443 179.868283 
L 55.504545 178.593527 
L 54.924458 177.781414 
L 53.460412 175.694545 
L 53.343788 175.525232 
L 52.039019 173.607677 
L 51.18303 172.325959 
L 50.651774 171.520808 
L 49.300765 169.433939 
L 49.022273 168.995334 
L 47.988133 167.347071 
L 46.861515 165.515536 
L 46.706296 165.260202 
L 45.46302 163.173333 
L 44.700758 161.86723 
L 44.250373 161.086465 
L 43.071617 158.999596 
L 42.54 158.037986 
" style="fill:none;stroke:#f7b89c;"/>
   </g>
   <g id="LineCollection_28">
    <path clip-path="url(#p506b44204d)" d="M 104.541672 232.04 
L 103.041212 230.998526 
L 101.560523 229.953131 
L 100.880455 229.466992 
L 98.719697 227.896331 
L 98.679008 227.866263 
L 96.558939 226.279782 
L 95.900995 225.779394 
L 94.398182 224.621812 
L 93.210824 223.692525 
L 92.237424 222.920806 
L 90.604393 221.605657 
L 90.076667 221.175068 
L 88.077852 219.518788 
L 87.915909 219.382809 
L 85.755152 217.540676 
L 85.62948 217.431919 
L 83.594394 215.646955 
L 83.255228 215.345051 
L 81.433636 213.701388 
L 80.949545 213.258182 
L 79.272879 211.701816 
L 78.709505 211.171313 
L 77.112121 209.64596 
L 76.532342 209.084444 
L 74.951364 207.531409 
L 74.415446 206.997576 
L 72.790606 205.355613 
L 72.35635 204.910707 
L 70.629848 203.115872 
L 70.352716 202.823838 
L 68.469091 200.809326 
L 68.402335 200.73697 
L 66.5057 198.650101 
L 66.308333 198.4296 
L 64.659687 196.563232 
L 64.147576 195.97444 
L 62.861468 194.476364 
L 61.986818 193.441402 
L 61.109209 192.389495 
L 59.826061 190.826722 
L 59.401171 190.302626 
L 57.736589 188.215758 
L 57.665303 188.124899 
L 56.118786 186.128889 
L 55.504545 185.322696 
L 54.540805 184.04202 
L 53.343788 182.423951 
L 53.001195 181.955152 
L 51.502408 179.868283 
L 51.18303 179.415656 
L 50.043744 177.781414 
L 49.022273 176.289556 
L 48.619706 175.694545 
L 47.233439 173.607677 
L 46.861515 173.037233 
L 45.884417 171.520808 
L 44.700758 169.648516 
L 44.566676 169.433939 
L 43.287711 167.347071 
L 42.54 166.102667 
" style="fill:none;stroke:#f7af91;"/>
   </g>
   <g id="LineCollection_29">
    <path clip-path="url(#p506b44204d)" d="M 97.815467 232.04 
L 96.558939 231.122923 
L 94.981905 229.953131 
L 94.398182 229.514736 
L 92.237941 227.866263 
L 92.237424 227.865863 
L 90.076667 226.169739 
L 89.587012 225.779394 
L 87.915909 224.430148 
L 87.016119 223.692525 
L 85.755152 222.645403 
L 84.521683 221.605657 
L 83.594394 220.813724 
L 82.100344 219.518788 
L 81.433636 218.933234 
L 79.748934 217.431919 
L 79.272879 217.001955 
L 77.464468 215.345051 
L 77.112121 215.017803 
L 75.244127 213.258182 
L 74.951364 212.978575 
L 73.085249 211.171313 
L 72.790606 210.881947 
L 70.985315 209.084444 
L 70.629848 208.725459 
L 68.941945 206.997576 
L 68.469091 206.506512 
L 66.952883 204.910707 
L 66.308333 204.222352 
L 65.015993 202.823838 
L 64.147576 201.87006 
L 63.129249 200.73697 
L 61.986818 199.446544 
L 61.290728 198.650101 
L 59.826061 196.948517 
L 59.498605 196.563232 
L 57.752228 194.476364 
L 57.665303 194.370844 
L 56.053454 192.389495 
L 55.504545 191.703881 
L 54.396497 190.302626 
L 53.343788 188.949551 
L 52.779829 188.215758 
L 51.202232 186.128889 
L 51.18303 186.103059 
L 49.669308 184.04202 
L 49.022273 183.145861 
L 48.172774 181.955152 
L 46.861515 180.084996 
L 46.711349 179.868283 
L 45.290651 177.781414 
L 44.700758 176.899177 
L 43.904638 175.694545 
L 42.550517 173.607677 
L 42.54 173.591164 
" style="fill:none;stroke:#f7a688;"/>
   </g>
   <g id="LineCollection_30">
    <path clip-path="url(#p506b44204d)" d="M 91.414713 232.04 
L 90.076667 231.015594 
L 88.710179 229.953131 
L 87.915909 229.327861 
L 86.087291 227.866263 
L 85.755152 227.597428 
L 83.594394 225.822108 
L 83.543168 225.779394 
L 81.433636 223.997852 
L 81.077318 223.692525 
L 79.272879 222.126246 
L 78.681669 221.605657 
L 77.112121 220.20542 
L 76.353266 219.518788 
L 74.951364 218.233408 
L 74.089316 217.431919 
L 72.790606 216.208136 
L 71.887181 215.345051 
L 70.629848 214.127417 
L 69.744362 213.258182 
L 68.469091 211.988942 
L 67.658494 211.171313 
L 66.308333 209.790272 
L 65.627337 209.084444 
L 64.147576 207.52883 
L 63.648767 206.997576 
L 61.986818 205.201889 
L 61.720767 204.910707 
L 59.841619 202.823838 
L 59.826061 202.806303 
L 58.013251 200.73697 
L 57.665303 200.333772 
L 56.230449 198.650101 
L 55.504545 197.785225 
L 54.491532 196.563232 
L 53.343788 195.1571 
L 52.794898 194.476364 
L 51.18303 192.445612 
L 51.139024 192.389495 
L 49.528466 190.302626 
L 49.022273 189.635987 
L 47.956663 188.215758 
L 46.861515 186.731854 
L 46.421736 186.128889 
L 44.925 184.04202 
L 44.700758 183.723978 
L 43.46807 181.955152 
L 42.54 180.60009 
" style="fill:none;stroke:#f59c7d;"/>
   </g>
   <g id="LineCollection_31">
    <path clip-path="url(#p506b44204d)" d="M 85.295856 232.04 
L 83.594394 230.676541 
L 82.704877 229.953131 
L 81.433636 228.906366 
L 80.188727 227.866263 
L 79.272879 227.091405 
L 77.744212 225.779394 
L 77.112121 225.229938 
L 75.368313 223.692525 
L 74.951364 223.320154 
L 73.058183 221.605657 
L 72.790606 221.360148 
L 70.811128 219.518788 
L 70.629848 219.34791 
L 68.624599 217.431919 
L 68.469091 217.281326 
L 66.496184 215.345051 
L 66.308333 215.158164 
L 64.423595 213.258182 
L 64.147576 212.976068 
L 62.404666 211.171313 
L 61.986818 210.732549 
L 60.437338 209.084444 
L 59.826061 208.424978 
L 58.519658 206.997576 
L 57.665303 206.050571 
L 56.649771 204.910707 
L 55.504545 203.606382 
L 54.825911 202.823838 
L 53.343788 201.08929 
L 53.046401 200.73697 
L 51.31118 198.650101 
L 51.18303 198.493612 
L 49.621218 196.563232 
L 49.022273 195.811386 
L 47.971374 194.476364 
L 46.861515 193.044079 
L 46.360236 192.389495 
L 44.787462 190.302626 
L 44.700758 190.185696 
L 43.256971 188.215758 
L 42.54 187.221215 
" style="fill:none;stroke:#f29274;"/>
   </g>
   <g id="LineCollection_32">
    <path clip-path="url(#p506b44204d)" d="M 79.424945 232.04 
L 79.272879 231.914518 
L 77.112121 230.105763 
L 76.932345 229.953131 
L 74.951364 228.250251 
L 74.510848 227.866263 
L 72.790606 226.347795 
L 72.155467 225.779394 
L 70.629848 224.39659 
L 69.86353 223.692525 
L 68.469091 222.394739 
L 67.632508 221.605657 
L 66.308333 220.340245 
L 65.460004 219.518788 
L 64.147576 218.231001 
L 63.343746 217.431919 
L 61.986818 216.064791 
L 61.281577 215.345051 
L 59.826061 213.839276 
L 59.27145 213.258182 
L 57.665303 211.551985 
L 57.311419 211.171313 
L 55.504545 209.200311 
L 55.399634 209.084444 
L 53.536682 206.997576 
L 53.343788 206.778367 
L 51.720305 204.910707 
L 51.18303 204.283542 
L 49.947565 202.823838 
L 49.022273 201.714302 
L 48.216906 200.73697 
L 46.861515 199.067267 
L 46.52685 198.650101 
L 44.878039 196.563232 
L 44.700758 196.335348 
L 43.27134 194.476364 
L 42.54 193.510157 
" style="fill:none;stroke:#ee8669;"/>
   </g>
   <g id="LineCollection_33">
    <path clip-path="url(#p506b44204d)" d="M 73.77878 232.04 
L 72.790606 231.189257 
L 71.374396 229.953131 
L 70.629848 229.295142 
L 69.034777 227.866263 
L 68.469091 227.353106 
L 66.757339 225.779394 
L 66.308333 225.361308 
L 64.539638 223.692525 
L 64.147576 223.31781 
L 62.379352 221.605657 
L 61.986818 221.220572 
L 60.274281 219.518788 
L 59.826061 219.067447 
L 58.222334 217.431919 
L 57.665303 216.856171 
L 56.221526 215.345051 
L 55.504545 214.584355 
L 54.269968 213.258182 
L 53.343788 212.249478 
L 52.365865 211.171313 
L 51.18303 209.848879 
L 50.507505 209.084444 
L 49.022273 207.379742 
L 48.69326 206.997576 
L 46.922291 204.910707 
L 46.861515 204.838038 
L 45.196729 202.823838 
L 44.700758 202.214821 
L 43.511179 200.73697 
L 42.54 199.512176 
" style="fill:none;stroke:#e97a5f;"/>
   </g>
   <g id="LineCollection_34">
    <path clip-path="url(#p506b44204d)" d="M 68.324376 232.04 
L 66.308333 230.23227 
L 66.001111 229.953131 
L 64.147576 228.247994 
L 63.737994 227.866263 
L 61.986818 226.213516 
L 61.53272 225.779394 
L 59.826061 224.126907 
L 59.383099 223.692525 
L 57.665303 221.986137 
L 57.287051 221.605657 
L 55.504545 219.78907 
L 55.242598 219.518788 
L 53.343788 217.533455 
L 53.247858 217.431919 
L 51.302474 215.345051 
L 51.18303 215.215166 
L 49.404978 213.258182 
L 49.022273 212.831118 
L 47.552526 211.171313 
L 46.861515 210.379963 
L 45.743533 209.084444 
L 44.700758 207.858827 
L 43.976487 206.997576 
L 42.54 205.26467 
" style="fill:none;stroke:#e46e56;"/>
   </g>
   <g id="LineCollection_35">
    <path clip-path="url(#p506b44204d)" d="M 63.053308 232.04 
L 61.986818 231.058292 
L 60.801558 229.953131 
L 59.826061 229.032196 
L 58.606633 227.866263 
L 57.665303 226.954841 
L 56.466411 225.779394 
L 55.504545 224.824256 
L 54.37887 223.692525 
L 53.343788 222.638369 
L 52.34209 221.605657 
L 51.18303 220.394998 
L 50.354241 219.518788 
L 49.022273 218.091845 
L 48.413582 217.431919 
L 46.861515 215.726489 
L 46.51845 215.345051 
L 44.700758 213.296375 
L 44.667264 213.258182 
L 42.862204 211.171313 
L 42.54 210.793563 
" style="fill:none;stroke:#de614d;"/>
   </g>
   <g id="LineCollection_36">
    <path clip-path="url(#p506b44204d)" d="M 57.939227 232.04 
L 57.665303 231.781324 
L 55.75347 229.953131 
L 55.504545 229.712123 
L 53.621517 227.866263 
L 53.343788 227.590572 
L 51.541404 225.779394 
L 51.18303 225.414658 
L 49.511263 223.692525 
L 49.022273 223.182266 
L 47.529315 221.605657 
L 46.861515 220.891166 
L 45.593865 219.518788 
L 44.700758 218.539013 
L 43.703294 217.431919 
L 42.54 216.123333 
" style="fill:none;stroke:#d75445;"/>
   </g>
   <g id="LineCollection_37">
    <path clip-path="url(#p506b44204d)" d="M 52.975076 232.04 
L 51.18303 230.283646 
L 50.84985 229.953131 
L 49.022273 228.11753 
L 48.775074 227.866263 
L 46.861515 225.896611 
L 46.748972 225.779394 
L 44.770663 223.692525 
L 44.700758 223.617827 
L 42.839532 221.605657 
L 42.54 221.277575 
" style="fill:none;stroke:#cf453c;"/>
   </g>
   <g id="LineCollection_38">
    <path clip-path="url(#p506b44204d)" d="M 48.147275 232.04 
L 46.861515 230.749206 
L 46.077846 229.953131 
L 44.700758 228.536768 
L 44.056403 227.866263 
L 42.54 226.268355 
" style="fill:none;stroke:#c73635;"/>
   </g>
   <g id="LineCollection_39">
    <path clip-path="url(#p506b44204d)" d="M 43.443163 232.04 
L 42.54 231.111778 
" style="fill:none;stroke:#bd1f2d;"/>
   </g>
   <g id="LineCollection_40"/>
   <g id="line2d_11">
    <path clip-path="url(#p506b44204d)" d="M 42.54 128.74 
L 256.455 128.74 
" style="fill:none;stroke:#000000;stroke-linecap:square;stroke-width:0.5;"/>
   </g>
   <g id="line2d_12">
    <path clip-path="url(#p506b44204d)" d="M 149.4975 232.04 
L 149.4975 25.44 
" style="fill:none;stroke:#000000;stroke-linecap:square;stroke-width:0.5;"/>
   </g>
   <g id="line2d_13">
    <path clip-path="url(#p506b44204d)" d="M 149.4975 108.08 
L 150.388812 108.940833 
L 151.280125 109.801667 
L 152.171437 110.6625 
L 153.06275 111.523333 
L 153.954062 112.384167 
L 154.845375 113.245 
L 155.736687 114.105833 
L 156.628 114.966667 
L 157.519312 115.8275 
L 158.410625 116.688333 
L 159.301937 117.549167 
L 160.19325 118.41 
L 161.084562 119.270833 
L 161.975875 120.131667 
L 162.867187 120.9925 
L 163.7585 121.853333 
L 164.649812 122.714167 
L 165.541125 123.575 
L 166.432437 124.435833 
L 167.32375 125.296667 
L 168.215062 126.1575 
L 169.106375 127.018333 
L 169.997687 127.879167 
L 170.889 128.74 
L 149.4975 149.4 
L 150.388812 148.539167 
L 151.280125 147.678333 
L 152.171437 146.8175 
L 153.06275 145.956667 
L 153.954062 145.095833 
L 154.845375 144.235 
L 155.736687 143.374167 
L 156.628 142.513333 
L 157.519312 141.6525 
L 158.410625 140.791667 
L 159.301937 139.930833 
L 160.19325 139.07 
L 161.084562 138.209167 
L 161.975875 137.348333 
L 162.867187 136.4875 
L 163.7585 135.626667 
L 164.649812 134.765833 
L 165.541125 133.905 
L 166.432437 133.044167 
L 167.32375 132.183333 
L 168.215062 131.3225 
L 169.106375 130.461667 
L 169.997687 129.600833 
L 170.889 128.74 
L 128.106 128.74 
L 128.997312 129.600833 
L 129.888625 130.461667 
L 130.779937 131.3225 
L 131.67125 132.183333 
L 132.562562 133.044167 
L 133.453875 133.905 
L 134.345187 134.765833 
L 135.2365 135.626667 
L 136.127812 136.4875 
L 137.019125 137.348333 
L 137.910437 138.209167 
L 138.80175 139.07 
L 139.693062 139.930833 
L 140.584375 140.791667 
L 141.475687 141.6525 
L 142.367 142.513333 
L 143.258312 143.374167 
L 144.149625 144.235 
L 145.040937 145.095833 
L 145.93225 145.956667 
L 146.823562 146.8175 
L 147.714875 147.678333 
L 148.606187 148.539167 
L 149.4975 149.4 
L 128.106 128.74 
L 128.997312 127.879167 
L 129.888625 127.018333 
L 130.779937 126.1575 
L 131.67125 125.296667 
L 132.562562 124.435833 
L 133.453875 123.575 
L 134.345187 122.714167 
L 135.2365 121.853333 
L 136.127812 120.9925 
L 137.019125 120.131667 
L 137.910437 119.270833 
L 138.80175 118.41 
L 139.693062 117.549167 
L 140.584375 116.688333 
L 141.475687 115.8275 
L 142.367 114.966667 
L 143.258312 114.105833 
L 144.149625 113.245 
L 145.040937 112.384167 
L 145.93225 111.523333 
L 146.823562 110.6625 
L 147.714875 109.801667 
L 148.606187 108.940833 
L 149.4975 108.08 
" style="fill:none;stroke:#2d435d;stroke-linecap:square;stroke-width:1.5;"/>
   </g>
   <g id="line2d_14">
    <path clip-path="url(#p506b44204d)" d="M 202.97625 77.09 
L 160.19325 118.41 
" style="fill:none;stroke:#000000;stroke-dasharray:1.5,2.475;stroke-dashoffset:0;stroke-width:1.5;"/>
   </g>
   <g id="patch_3">
    <path d="M 42.54 232.04 
L 42.54 25.44 
" style="fill:none;stroke:#000000;stroke-linecap:square;stroke-linejoin:miter;stroke-width:0.8;"/>
   </g>
   <g id="patch_4">
    <path d="M 256.455 232.04 
L 256.455 25.44 
" style="fill:none;stroke:#000000;stroke-linecap:square;stroke-linejoin:miter;stroke-width:0.8;"/>
   </g>
   <g id="patch_5">
    <path d="M 42.54 232.04 
L 256.455 232.04 
" style="fill:none;stroke:#000000;stroke-linecap:square;stroke-linejoin:miter;stroke-width:0.8;"/>
   </g>
   <g id="patch_6">
    <path d="M 42.54 25.44 
L 256.455 25.44 
" style="fill:none;stroke:#000000;stroke-linecap:square;stroke-linejoin:miter;stroke-width:0.8;"/>
   </g>
   <g id="text_13">
    <!-- l1 constraint w/symmetric loss function -->
    <defs>
     <path d="M 9.421875 75.984375 
L 18.40625 75.984375 
L 18.40625 0 
L 9.421875 0 
z
" id="DejaVuSans-108"/>
     <path id="DejaVuSans-32"/>
     <path d="M 48.78125 52.59375 
L 48.78125 44.1875 
Q 44.96875 46.296875 41.140625 47.34375 
Q 37.3125 48.390625 33.40625 48.390625 
Q 24.65625 48.390625 19.8125 42.84375 
Q 14.984375 37.3125 14.984375 27.296875 
Q 14.984375 17.28125 19.8125 11.734375 
Q 24.65625 6.203125 33.40625 6.203125 
Q 37.3125 6.203125 41.140625 7.25 
Q 44.96875 8.296875 48.78125 10.40625 
L 48.78125 2.09375 
Q 45.015625 0.34375 40.984375 -0.53125 
Q 36.96875 -1.421875 32.421875 -1.421875 
Q 20.0625 -1.421875 12.78125 6.34375 
Q 5.515625 14.109375 5.515625 27.296875 
Q 5.515625 40.671875 12.859375 48.328125 
Q 20.21875 56 33.015625 56 
Q 37.15625 56 41.109375 55.140625 
Q 45.0625 54.296875 48.78125 52.59375 
z
" id="DejaVuSans-99"/>
     <path d="M 30.609375 48.390625 
Q 23.390625 48.390625 19.1875 42.75 
Q 14.984375 37.109375 14.984375 27.296875 
Q 14.984375 17.484375 19.15625 11.84375 
Q 23.34375 6.203125 30.609375 6.203125 
Q 37.796875 6.203125 41.984375 11.859375 
Q 46.1875 17.53125 46.1875 27.296875 
Q 46.1875 37.015625 41.984375 42.703125 
Q 37.796875 48.390625 30.609375 48.390625 
z
M 30.609375 56 
Q 42.328125 56 49.015625 48.375 
Q 55.71875 40.765625 55.71875 27.296875 
Q 55.71875 13.875 49.015625 6.21875 
Q 42.328125 -1.421875 30.609375 -1.421875 
Q 18.84375 -1.421875 12.171875 6.21875 
Q 5.515625 13.875 5.515625 27.296875 
Q 5.515625 40.765625 12.171875 48.375 
Q 18.84375 56 30.609375 56 
z
" id="DejaVuSans-111"/>
     <path d="M 54.890625 33.015625 
L 54.890625 0 
L 45.90625 0 
L 45.90625 32.71875 
Q 45.90625 40.484375 42.875 44.328125 
Q 39.84375 48.1875 33.796875 48.1875 
Q 26.515625 48.1875 22.3125 43.546875 
Q 18.109375 38.921875 18.109375 30.90625 
L 18.109375 0 
L 9.078125 0 
L 9.078125 54.6875 
L 18.109375 54.6875 
L 18.109375 46.1875 
Q 21.34375 51.125 25.703125 53.5625 
Q 30.078125 56 35.796875 56 
Q 45.21875 56 50.046875 50.171875 
Q 54.890625 44.34375 54.890625 33.015625 
z
" id="DejaVuSans-110"/>
     <path d="M 44.28125 53.078125 
L 44.28125 44.578125 
Q 40.484375 46.53125 36.375 47.5 
Q 32.28125 48.484375 27.875 48.484375 
Q 21.1875 48.484375 17.84375 46.4375 
Q 14.5 44.390625 14.5 40.28125 
Q 14.5 37.15625 16.890625 35.375 
Q 19.28125 33.59375 26.515625 31.984375 
L 29.59375 31.296875 
Q 39.15625 29.25 43.1875 25.515625 
Q 47.21875 21.78125 47.21875 15.09375 
Q 47.21875 7.46875 41.1875 3.015625 
Q 35.15625 -1.421875 24.609375 -1.421875 
Q 20.21875 -1.421875 15.453125 -0.5625 
Q 10.6875 0.296875 5.421875 2 
L 5.421875 11.28125 
Q 10.40625 8.6875 15.234375 7.390625 
Q 20.0625 6.109375 24.8125 6.109375 
Q 31.15625 6.109375 34.5625 8.28125 
Q 37.984375 10.453125 37.984375 14.40625 
Q 37.984375 18.0625 35.515625 20.015625 
Q 33.0625 21.96875 24.703125 23.78125 
L 21.578125 24.515625 
Q 13.234375 26.265625 9.515625 29.90625 
Q 5.8125 33.546875 5.8125 39.890625 
Q 5.8125 47.609375 11.28125 51.796875 
Q 16.75 56 26.8125 56 
Q 31.78125 56 36.171875 55.265625 
Q 40.578125 54.546875 44.28125 53.078125 
z
" id="DejaVuSans-115"/>
     <path d="M 18.3125 70.21875 
L 18.3125 54.6875 
L 36.8125 54.6875 
L 36.8125 47.703125 
L 18.3125 47.703125 
L 18.3125 18.015625 
Q 18.3125 11.328125 20.140625 9.421875 
Q 21.96875 7.515625 27.59375 7.515625 
L 36.8125 7.515625 
L 36.8125 0 
L 27.59375 0 
Q 17.1875 0 13.234375 3.875 
Q 9.28125 7.765625 9.28125 18.015625 
L 9.28125 47.703125 
L 2.6875 47.703125 
L 2.6875 54.6875 
L 9.28125 54.6875 
L 9.28125 70.21875 
z
" id="DejaVuSans-116"/>
     <path d="M 41.109375 46.296875 
Q 39.59375 47.171875 37.8125 47.578125 
Q 36.03125 48 33.890625 48 
Q 26.265625 48 22.1875 43.046875 
Q 18.109375 38.09375 18.109375 28.8125 
L 18.109375 0 
L 9.078125 0 
L 9.078125 54.6875 
L 18.109375 54.6875 
L 18.109375 46.1875 
Q 20.953125 51.171875 25.484375 53.578125 
Q 30.03125 56 36.53125 56 
Q 37.453125 56 38.578125 55.875 
Q 39.703125 55.765625 41.0625 55.515625 
z
" id="DejaVuSans-114"/>
     <path d="M 34.28125 27.484375 
Q 23.390625 27.484375 19.1875 25 
Q 14.984375 22.515625 14.984375 16.5 
Q 14.984375 11.71875 18.140625 8.90625 
Q 21.296875 6.109375 26.703125 6.109375 
Q 34.1875 6.109375 38.703125 11.40625 
Q 43.21875 16.703125 43.21875 25.484375 
L 43.21875 27.484375 
z
M 52.203125 31.203125 
L 52.203125 0 
L 43.21875 0 
L 43.21875 8.296875 
Q 40.140625 3.328125 35.546875 0.953125 
Q 30.953125 -1.421875 24.3125 -1.421875 
Q 15.921875 -1.421875 10.953125 3.296875 
Q 6 8.015625 6 15.921875 
Q 6 25.140625 12.171875 29.828125 
Q 18.359375 34.515625 30.609375 34.515625 
L 43.21875 34.515625 
L 43.21875 35.40625 
Q 43.21875 41.609375 39.140625 45 
Q 35.0625 48.390625 27.6875 48.390625 
Q 23 48.390625 18.546875 47.265625 
Q 14.109375 46.140625 10.015625 43.890625 
L 10.015625 52.203125 
Q 14.9375 54.109375 19.578125 55.046875 
Q 24.21875 56 28.609375 56 
Q 40.484375 56 46.34375 49.84375 
Q 52.203125 43.703125 52.203125 31.203125 
z
" id="DejaVuSans-97"/>
     <path d="M 9.421875 54.6875 
L 18.40625 54.6875 
L 18.40625 0 
L 9.421875 0 
z
M 9.421875 75.984375 
L 18.40625 75.984375 
L 18.40625 64.59375 
L 9.421875 64.59375 
z
" id="DejaVuSans-105"/>
     <path d="M 4.203125 54.6875 
L 13.1875 54.6875 
L 24.421875 12.015625 
L 35.59375 54.6875 
L 46.1875 54.6875 
L 57.421875 12.015625 
L 68.609375 54.6875 
L 77.59375 54.6875 
L 63.28125 0 
L 52.6875 0 
L 40.921875 44.828125 
L 29.109375 0 
L 18.5 0 
z
" id="DejaVuSans-119"/>
     <path d="M 25.390625 72.90625 
L 33.6875 72.90625 
L 8.296875 -9.28125 
L 0 -9.28125 
z
" id="DejaVuSans-47"/>
     <path d="M 32.171875 -5.078125 
Q 28.375 -14.84375 24.75 -17.8125 
Q 21.140625 -20.796875 15.09375 -20.796875 
L 7.90625 -20.796875 
L 7.90625 -13.28125 
L 13.1875 -13.28125 
Q 16.890625 -13.28125 18.9375 -11.515625 
Q 21 -9.765625 23.484375 -3.21875 
L 25.09375 0.875 
L 2.984375 54.6875 
L 12.5 54.6875 
L 29.59375 11.921875 
L 46.6875 54.6875 
L 56.203125 54.6875 
z
" id="DejaVuSans-121"/>
     <path d="M 52 44.1875 
Q 55.375 50.25 60.0625 53.125 
Q 64.75 56 71.09375 56 
Q 79.640625 56 84.28125 50.015625 
Q 88.921875 44.046875 88.921875 33.015625 
L 88.921875 0 
L 79.890625 0 
L 79.890625 32.71875 
Q 79.890625 40.578125 77.09375 44.375 
Q 74.3125 48.1875 68.609375 48.1875 
Q 61.625 48.1875 57.5625 43.546875 
Q 53.515625 38.921875 53.515625 30.90625 
L 53.515625 0 
L 44.484375 0 
L 44.484375 32.71875 
Q 44.484375 40.625 41.703125 44.40625 
Q 38.921875 48.1875 33.109375 48.1875 
Q 26.21875 48.1875 22.15625 43.53125 
Q 18.109375 38.875 18.109375 30.90625 
L 18.109375 0 
L 9.078125 0 
L 9.078125 54.6875 
L 18.109375 54.6875 
L 18.109375 46.1875 
Q 21.1875 51.21875 25.484375 53.609375 
Q 29.78125 56 35.6875 56 
Q 41.65625 56 45.828125 52.96875 
Q 50 49.953125 52 44.1875 
z
" id="DejaVuSans-109"/>
     <path d="M 56.203125 29.59375 
L 56.203125 25.203125 
L 14.890625 25.203125 
Q 15.484375 15.921875 20.484375 11.0625 
Q 25.484375 6.203125 34.421875 6.203125 
Q 39.59375 6.203125 44.453125 7.46875 
Q 49.3125 8.734375 54.109375 11.28125 
L 54.109375 2.78125 
Q 49.265625 0.734375 44.1875 -0.34375 
Q 39.109375 -1.421875 33.890625 -1.421875 
Q 20.796875 -1.421875 13.15625 6.1875 
Q 5.515625 13.8125 5.515625 26.8125 
Q 5.515625 40.234375 12.765625 48.109375 
Q 20.015625 56 32.328125 56 
Q 43.359375 56 49.78125 48.890625 
Q 56.203125 41.796875 56.203125 29.59375 
z
M 47.21875 32.234375 
Q 47.125 39.59375 43.09375 43.984375 
Q 39.0625 48.390625 32.421875 48.390625 
Q 24.90625 48.390625 20.390625 44.140625 
Q 15.875 39.890625 15.1875 32.171875 
z
" id="DejaVuSans-101"/>
     <path d="M 37.109375 75.984375 
L 37.109375 68.5 
L 28.515625 68.5 
Q 23.6875 68.5 21.796875 66.546875 
Q 19.921875 64.59375 19.921875 59.515625 
L 19.921875 54.6875 
L 34.71875 54.6875 
L 34.71875 47.703125 
L 19.921875 47.703125 
L 19.921875 0 
L 10.890625 0 
L 10.890625 47.703125 
L 2.296875 47.703125 
L 2.296875 54.6875 
L 10.890625 54.6875 
L 10.890625 58.5 
Q 10.890625 67.625 15.140625 71.796875 
Q 19.390625 75.984375 28.609375 75.984375 
z
" id="DejaVuSans-102"/>
     <path d="M 8.5 21.578125 
L 8.5 54.6875 
L 17.484375 54.6875 
L 17.484375 21.921875 
Q 17.484375 14.15625 20.5 10.265625 
Q 23.53125 6.390625 29.59375 6.390625 
Q 36.859375 6.390625 41.078125 11.03125 
Q 45.3125 15.671875 45.3125 23.6875 
L 45.3125 54.6875 
L 54.296875 54.6875 
L 54.296875 0 
L 45.3125 0 
L 45.3125 8.40625 
Q 42.046875 3.421875 37.71875 1 
Q 33.40625 -1.421875 27.6875 -1.421875 
Q 18.265625 -1.421875 13.375 4.4375 
Q 8.5 10.296875 8.5 21.578125 
z
M 31.109375 56 
z
" id="DejaVuSans-117"/>
    </defs>
    <g transform="translate(41.150937 19.44)scale(0.11 -0.11)">
     <use xlink:href="#DejaVuSans-108"/>
     <use x="27.783203" xlink:href="#DejaVuSans-49"/>
     <use x="91.40625" xlink:href="#DejaVuSans-32"/>
     <use x="123.193359" xlink:href="#DejaVuSans-99"/>
     <use x="178.173828" xlink:href="#DejaVuSans-111"/>
     <use x="239.355469" xlink:href="#DejaVuSans-110"/>
     <use x="302.734375" xlink:href="#DejaVuSans-115"/>
     <use x="354.833984" xlink:href="#DejaVuSans-116"/>
     <use x="394.042969" xlink:href="#DejaVuSans-114"/>
     <use x="435.15625" xlink:href="#DejaVuSans-97"/>
     <use x="496.435547" xlink:href="#DejaVuSans-105"/>
     <use x="524.21875" xlink:href="#DejaVuSans-110"/>
     <use x="587.597656" xlink:href="#DejaVuSans-116"/>
     <use x="626.806641" xlink:href="#DejaVuSans-32"/>
     <use x="658.59375" xlink:href="#DejaVuSans-119"/>
     <use x="740.380859" xlink:href="#DejaVuSans-47"/>
     <use x="774.072266" xlink:href="#DejaVuSans-115"/>
     <use x="826.171875" xlink:href="#DejaVuSans-121"/>
     <use x="885.351562" xlink:href="#DejaVuSans-109"/>
     <use x="982.763672" xlink:href="#DejaVuSans-109"/>
     <use x="1080.175781" xlink:href="#DejaVuSans-101"/>
     <use x="1141.699219" xlink:href="#DejaVuSans-116"/>
     <use x="1180.908203" xlink:href="#DejaVuSans-114"/>
     <use x="1222.021484" xlink:href="#DejaVuSans-105"/>
     <use x="1249.804688" xlink:href="#DejaVuSans-99"/>
     <use x="1304.785156" xlink:href="#DejaVuSans-32"/>
     <use x="1336.572266" xlink:href="#DejaVuSans-108"/>
     <use x="1364.355469" xlink:href="#DejaVuSans-111"/>
     <use x="1425.537109" xlink:href="#DejaVuSans-115"/>
     <use x="1477.636719" xlink:href="#DejaVuSans-115"/>
     <use x="1529.736328" xlink:href="#DejaVuSans-32"/>
     <use x="1561.523438" xlink:href="#DejaVuSans-102"/>
     <use x="1596.728516" xlink:href="#DejaVuSans-117"/>
     <use x="1660.107422" xlink:href="#DejaVuSans-110"/>
     <use x="1723.486328" xlink:href="#DejaVuSans-99"/>
     <use x="1778.466797" xlink:href="#DejaVuSans-116"/>
     <use x="1817.675781" xlink:href="#DejaVuSans-105"/>
     <use x="1845.458984" xlink:href="#DejaVuSans-111"/>
     <use x="1906.640625" xlink:href="#DejaVuSans-110"/>
    </g>
   </g>
  </g>
 </g>
 <defs>
  <clipPath id="p506b44204d">
   <rect height="206.6" width="213.915" x="42.54" y="25.44"/>
  </clipPath>
 </defs>
</svg>
