<?xml version="1.0" encoding="utf-8" standalone="no"?>
<!DOCTYPE svg PUBLIC "-//W3C//DTD SVG 1.1//EN"
  "http://www.w3.org/Graphics/SVG/1.1/DTD/svg11.dtd">
<!-- Created with matplotlib (https://matplotlib.org/) -->
<svg height="273.6pt" version="1.1" viewBox="0 0 273.6 273.6" width="273.6pt" xmlns="http://www.w3.org/2000/svg" xmlns:xlink="http://www.w3.org/1999/xlink">
 <defs>
  <style type="text/css">
*{stroke-linecap:butt;stroke-linejoin:round;}
  </style>
 </defs>
 <g id="figure_1">
  <g id="patch_1">
   <path d="M 0 273.6 
L 273.6 273.6 
L 273.6 0 
L 0 0 
z
" style="fill:#ffffff;"/>
  </g>
  <g id="axes_1">
   <g id="patch_2">
    <path d="M 42.54 232.04 
L 256.455 232.04 
L 256.455 25.44 
L 42.54 25.44 
z
" style="fill:#ffffff;"/>
   </g>
   <g id="PathCollection_1">
    <defs>
     <path d="M 0 4.743416 
C 1.257969 4.743416 2.464584 4.24362 3.354102 3.354102 
C 4.24362 2.464584 4.743416 1.257969 4.743416 0 
C 4.743416 -1.257969 4.24362 -2.464584 3.354102 -3.354102 
C 2.464584 -4.24362 1.257969 -4.743416 0 -4.743416 
C -1.257969 -4.743416 -2.464584 -4.24362 -3.354102 -3.354102 
C -4.24362 -2.464584 -4.743416 -1.257969 -4.743416 0 
C -4.743416 1.257969 -4.24362 2.464584 -3.354102 3.354102 
C -2.464584 4.24362 -1.257969 4.743416 0 4.743416 
z
" id="mf17eac66df" style="stroke:#000000;"/>
    </defs>
    <g clip-path="url(#p2b79bd5321)">
     <use style="stroke:#000000;" x="202.97625" xlink:href="#mf17eac66df" y="77.09"/>
    </g>
   </g>
   <g id="PathCollection_2">
    <defs>
     <path d="M 0 4.743416 
C 1.257969 4.743416 2.464584 4.24362 3.354102 3.354102 
C 4.24362 2.464584 4.743416 1.257969 4.743416 0 
C 4.743416 -1.257969 4.24362 -2.464584 3.354102 -3.354102 
C 2.464584 -4.24362 1.257969 -4.743416 0 -4.743416 
C -1.257969 -4.743416 -2.464584 -4.24362 -3.354102 -3.354102 
C -4.24362 -2.464584 -4.743416 -1.257969 -4.743416 0 
C -4.743416 1.257969 -4.24362 2.464584 -3.354102 3.354102 
C -2.464584 4.24362 -1.257969 4.743416 0 4.743416 
z
" id="mc363f875fd" style="stroke:#e32ca6;"/>
    </defs>
    <g clip-path="url(#p2b79bd5321)">
     <use style="fill:#e32ca6;stroke:#e32ca6;" x="160.19325" xlink:href="#mc363f875fd" y="110.847915"/>
    </g>
   </g>
   <g id="matplotlib.axis_1">
    <g id="xtick_1">
     <g id="line2d_1">
      <defs>
       <path d="M 0 0 
L 0 3.5 
" id="m0b7433c24f" style="stroke:#000000;stroke-width:0.8;"/>
      </defs>
      <g>
       <use style="stroke:#000000;stroke-width:0.8;" x="42.54" xlink:href="#m0b7433c24f" y="232.04"/>
      </g>
     </g>
     <g id="text_1">
      <!-- −10 -->
      <defs>
       <path d="M 10.59375 35.5 
L 73.1875 35.5 
L 73.1875 27.203125 
L 10.59375 27.203125 
z
" id="DejaVuSans-8722"/>
       <path d="M 12.40625 8.296875 
L 28.515625 8.296875 
L 28.515625 63.921875 
L 10.984375 60.40625 
L 10.984375 69.390625 
L 28.421875 72.90625 
L 38.28125 72.90625 
L 38.28125 8.296875 
L 54.390625 8.296875 
L 54.390625 0 
L 12.40625 0 
z
" id="DejaVuSans-49"/>
       <path d="M 31.78125 66.40625 
Q 24.171875 66.40625 20.328125 58.90625 
Q 16.5 51.421875 16.5 36.375 
Q 16.5 21.390625 20.328125 13.890625 
Q 24.171875 6.390625 31.78125 6.390625 
Q 39.453125 6.390625 43.28125 13.890625 
Q 47.125 21.390625 47.125 36.375 
Q 47.125 51.421875 43.28125 58.90625 
Q 39.453125 66.40625 31.78125 66.40625 
z
M 31.78125 74.21875 
Q 44.046875 74.21875 50.515625 64.515625 
Q 56.984375 54.828125 56.984375 36.375 
Q 56.984375 17.96875 50.515625 8.265625 
Q 44.046875 -1.421875 31.78125 -1.421875 
Q 19.53125 -1.421875 13.0625 8.265625 
Q 6.59375 17.96875 6.59375 36.375 
Q 6.59375 54.828125 13.0625 64.515625 
Q 19.53125 74.21875 31.78125 74.21875 
z
" id="DejaVuSans-48"/>
      </defs>
      <g transform="translate(31.987656 246.638437)scale(0.1 -0.1)">
       <use xlink:href="#DejaVuSans-8722"/>
       <use x="83.789062" xlink:href="#DejaVuSans-49"/>
       <use x="147.412109" xlink:href="#DejaVuSans-48"/>
      </g>
     </g>
    </g>
    <g id="xtick_2">
     <g id="line2d_2">
      <g>
       <use style="stroke:#000000;stroke-width:0.8;" x="96.01875" xlink:href="#m0b7433c24f" y="232.04"/>
      </g>
     </g>
     <g id="text_2">
      <!-- −5 -->
      <defs>
       <path d="M 10.796875 72.90625 
L 49.515625 72.90625 
L 49.515625 64.59375 
L 19.828125 64.59375 
L 19.828125 46.734375 
Q 21.96875 47.46875 24.109375 47.828125 
Q 26.265625 48.1875 28.421875 48.1875 
Q 40.625 48.1875 47.75 41.5 
Q 54.890625 34.8125 54.890625 23.390625 
Q 54.890625 11.625 47.5625 5.09375 
Q 40.234375 -1.421875 26.90625 -1.421875 
Q 22.3125 -1.421875 17.546875 -0.640625 
Q 12.796875 0.140625 7.71875 1.703125 
L 7.71875 11.625 
Q 12.109375 9.234375 16.796875 8.0625 
Q 21.484375 6.890625 26.703125 6.890625 
Q 35.15625 6.890625 40.078125 11.328125 
Q 45.015625 15.765625 45.015625 23.390625 
Q 45.015625 31 40.078125 35.4375 
Q 35.15625 39.890625 26.703125 39.890625 
Q 22.75 39.890625 18.8125 39.015625 
Q 14.890625 38.140625 10.796875 36.28125 
z
" id="DejaVuSans-53"/>
      </defs>
      <g transform="translate(88.647656 246.638437)scale(0.1 -0.1)">
       <use xlink:href="#DejaVuSans-8722"/>
       <use x="83.789062" xlink:href="#DejaVuSans-53"/>
      </g>
     </g>
    </g>
    <g id="xtick_3">
     <g id="line2d_3">
      <g>
       <use style="stroke:#000000;stroke-width:0.8;" x="149.4975" xlink:href="#m0b7433c24f" y="232.04"/>
      </g>
     </g>
     <g id="text_3">
      <!-- 0 -->
      <g transform="translate(146.31625 246.638437)scale(0.1 -0.1)">
       <use xlink:href="#DejaVuSans-48"/>
      </g>
     </g>
    </g>
    <g id="xtick_4">
     <g id="line2d_4">
      <g>
       <use style="stroke:#000000;stroke-width:0.8;" x="202.97625" xlink:href="#m0b7433c24f" y="232.04"/>
      </g>
     </g>
     <g id="text_4">
      <!-- 5 -->
      <g transform="translate(199.795 246.638437)scale(0.1 -0.1)">
       <use xlink:href="#DejaVuSans-53"/>
      </g>
     </g>
    </g>
    <g id="xtick_5">
     <g id="line2d_5">
      <g>
       <use style="stroke:#000000;stroke-width:0.8;" x="256.455" xlink:href="#m0b7433c24f" y="232.04"/>
      </g>
     </g>
     <g id="text_5">
      <!-- 10 -->
      <g transform="translate(250.0925 246.638437)scale(0.1 -0.1)">
       <use xlink:href="#DejaVuSans-49"/>
       <use x="63.623047" xlink:href="#DejaVuSans-48"/>
      </g>
     </g>
    </g>
    <g id="text_6">
     <!-- $\beta_1$ -->
     <defs>
      <path d="M 13.625 3.375 
L 8.9375 -20.796875 
L -0.09375 -20.796875 
L 14.5 54.34375 
Q 18.84375 76.609375 39.65625 76.609375 
Q 60.75 76.609375 57.171875 57.8125 
Q 54.734375 44.4375 45.21875 39.546875 
Q 58.015625 35.15625 55.515625 22.125 
Q 51.125 -1.078125 27.484375 -1.03125 
Q 17.140625 -0.984375 13.625 3.375 
z
M 15.921875 15.09375 
Q 19.671875 6.59375 29.296875 6.640625 
Q 43.359375 6.640625 46.34375 21.96875 
Q 49.03125 35.75 26.171875 34.671875 
L 27.78125 42.96875 
Q 45.453125 42.671875 48.53125 58.59375 
Q 50.640625 69.34375 39.203125 69.28125 
Q 26.421875 69.28125 23.484375 54.046875 
z
" id="DejaVuSans-Oblique-946"/>
     </defs>
     <g transform="translate(142.7775 257.958125)scale(0.12 -0.12)">
      <use transform="translate(0 0.390625)" xlink:href="#DejaVuSans-Oblique-946"/>
      <use transform="translate(63.818359 -16.015625)scale(0.7)" xlink:href="#DejaVuSans-49"/>
     </g>
    </g>
   </g>
   <g id="matplotlib.axis_2">
    <g id="ytick_1">
     <g id="line2d_6">
      <defs>
       <path d="M 0 0 
L -3.5 0 
" id="mf3d49a283d" style="stroke:#000000;stroke-width:0.8;"/>
      </defs>
      <g>
       <use style="stroke:#000000;stroke-width:0.8;" x="42.54" xlink:href="#mf3d49a283d" y="232.04"/>
      </g>
     </g>
     <g id="text_7">
      <!-- −10 -->
      <g transform="translate(14.435312 235.839219)scale(0.1 -0.1)">
       <use xlink:href="#DejaVuSans-8722"/>
       <use x="83.789062" xlink:href="#DejaVuSans-49"/>
       <use x="147.412109" xlink:href="#DejaVuSans-48"/>
      </g>
     </g>
    </g>
    <g id="ytick_2">
     <g id="line2d_7">
      <g>
       <use style="stroke:#000000;stroke-width:0.8;" x="42.54" xlink:href="#mf3d49a283d" y="180.39"/>
      </g>
     </g>
     <g id="text_8">
      <!-- −5 -->
      <g transform="translate(20.797812 184.189219)scale(0.1 -0.1)">
       <use xlink:href="#DejaVuSans-8722"/>
       <use x="83.789062" xlink:href="#DejaVuSans-53"/>
      </g>
     </g>
    </g>
    <g id="ytick_3">
     <g id="line2d_8">
      <g>
       <use style="stroke:#000000;stroke-width:0.8;" x="42.54" xlink:href="#mf3d49a283d" y="128.74"/>
      </g>
     </g>
     <g id="text_9">
      <!-- 0 -->
      <g transform="translate(29.1775 132.539219)scale(0.1 -0.1)">
       <use xlink:href="#DejaVuSans-48"/>
      </g>
     </g>
    </g>
    <g id="ytick_4">
     <g id="line2d_9">
      <g>
       <use style="stroke:#000000;stroke-width:0.8;" x="42.54" xlink:href="#mf3d49a283d" y="77.09"/>
      </g>
     </g>
     <g id="text_10">
      <!-- 5 -->
      <g transform="translate(29.1775 80.889219)scale(0.1 -0.1)">
       <use xlink:href="#DejaVuSans-53"/>
      </g>
     </g>
    </g>
    <g id="ytick_5">
     <g id="line2d_10">
      <g>
       <use style="stroke:#000000;stroke-width:0.8;" x="42.54" xlink:href="#mf3d49a283d" y="25.44"/>
      </g>
     </g>
     <g id="text_11">
      <!-- 10 -->
      <g transform="translate(22.815 29.239219)scale(0.1 -0.1)">
       <use xlink:href="#DejaVuSans-49"/>
       <use x="63.623047" xlink:href="#DejaVuSans-48"/>
      </g>
     </g>
    </g>
    <g id="text_12">
     <!-- $\beta_2$ -->
     <defs>
      <path d="M 19.1875 8.296875 
L 53.609375 8.296875 
L 53.609375 0 
L 7.328125 0 
L 7.328125 8.296875 
Q 12.9375 14.109375 22.625 23.890625 
Q 32.328125 33.6875 34.8125 36.53125 
Q 39.546875 41.84375 41.421875 45.53125 
Q 43.3125 49.21875 43.3125 52.78125 
Q 43.3125 58.59375 39.234375 62.25 
Q 35.15625 65.921875 28.609375 65.921875 
Q 23.96875 65.921875 18.8125 64.3125 
Q 13.671875 62.703125 7.8125 59.421875 
L 7.8125 69.390625 
Q 13.765625 71.78125 18.9375 73 
Q 24.125 74.21875 28.421875 74.21875 
Q 39.75 74.21875 46.484375 68.546875 
Q 53.21875 62.890625 53.21875 53.421875 
Q 53.21875 48.921875 51.53125 44.890625 
Q 49.859375 40.875 45.40625 35.40625 
Q 44.1875 33.984375 37.640625 27.21875 
Q 31.109375 20.453125 19.1875 8.296875 
z
" id="DejaVuSans-50"/>
     </defs>
     <g transform="translate(21.915312 135.46)rotate(-90)scale(0.12 -0.12)">
      <use transform="translate(0 0.390625)" xlink:href="#DejaVuSans-Oblique-946"/>
      <use transform="translate(63.818359 -16.015625)scale(0.7)" xlink:href="#DejaVuSans-50"/>
     </g>
    </g>
   </g>
   <g id="LineCollection_1"/>
   <g id="LineCollection_2">
    <path clip-path="url(#p2b79bd5321)" d="M 42.54 137.066917 
L 44.700758 136.218909 
L 45.197628 136.04404 
L 46.861515 135.501836 
L 49.022273 134.878097 
L 51.18303 134.335119 
L 52.955901 133.957172 
L 53.343788 133.880235 
L 55.504545 133.530484 
L 57.665303 133.259039 
L 59.826061 133.06697 
L 61.986818 132.955367 
L 64.147576 132.92534 
L 66.308333 132.978018 
L 68.469091 133.114552 
L 70.629848 133.336116 
L 72.790606 133.643902 
L 74.504956 133.957172 
L 74.951364 134.046022 
L 77.112121 134.570869 
L 79.272879 135.193724 
L 81.433636 135.91611 
L 81.770796 136.04404 
L 83.594394 136.804901 
L 85.755152 137.818894 
L 86.354684 138.130909 
L 87.915909 139.033877 
L 89.773118 140.217778 
L 90.076667 140.43552 
L 92.237424 142.127893 
L 92.445497 142.304646 
L 94.398182 144.202944 
L 94.577981 144.391515 
L 96.282529 146.478384 
L 96.558939 146.884394 
L 97.625882 148.565253 
L 98.684903 150.652121 
L 98.719697 150.742607 
L 99.439047 152.73899 
L 99.949681 154.825859 
L 100.223464 156.912727 
L 100.264956 158.999596 
L 100.078605 161.086465 
L 99.668743 163.173333 
L 99.039595 165.260202 
L 98.719697 166.0478 
L 98.165396 167.347071 
L 97.050378 169.433939 
L 96.558939 170.200053 
L 95.667094 171.520808 
L 94.398182 173.134731 
L 94.005666 173.607677 
L 92.237424 175.474717 
L 92.016973 175.694545 
L 90.076667 177.416393 
L 89.639605 177.781414 
L 87.915909 179.078247 
L 86.795761 179.868283 
L 85.755152 180.53601 
L 83.594394 181.829256 
L 83.366998 181.955152 
L 81.433636 182.936489 
L 79.272879 183.947429 
L 79.050686 184.04202 
L 77.112121 184.803598 
L 74.951364 185.570531 
L 73.186403 186.128889 
L 72.790606 186.245088 
L 70.629848 186.799044 
L 68.469091 187.273894 
L 66.308333 187.668519 
L 64.147576 187.981778 
L 61.986818 188.212512 
L 61.938896 188.215758 
L 59.826061 188.349029 
L 57.665303 188.406531 
L 55.504545 188.384198 
L 53.343788 188.280953 
L 52.581138 188.215758 
L 51.18303 188.086052 
L 49.022273 187.795957 
L 46.861515 187.414552 
L 44.700758 186.940484 
L 42.54 186.37237 
" style="fill:none;stroke:#4055c8;"/>
   </g>
   <g id="LineCollection_3">
    <path clip-path="url(#p2b79bd5321)" d="M 42.54 124.667639 
L 44.700758 124.064062 
L 46.842433 123.522828 
L 46.861515 123.518249 
L 49.022273 123.056484 
L 51.18303 122.650429 
L 53.343788 122.30063 
L 55.504545 122.007643 
L 57.665303 121.77203 
L 59.826061 121.594361 
L 61.986818 121.475213 
L 63.401109 121.43596 
L 64.147576 121.416255 
L 66.308333 121.415936 
L 67.071381 121.43596 
L 68.469091 121.474791 
L 70.629848 121.595661 
L 72.790606 121.778057 
L 74.951364 122.022606 
L 77.112121 122.329943 
L 79.272879 122.700709 
L 81.433636 123.135556 
L 83.109904 123.522828 
L 83.594394 123.641892 
L 85.755152 124.24098 
L 87.915909 124.910408 
L 89.956707 125.609697 
L 90.076667 125.653621 
L 92.237424 126.518819 
L 94.398182 127.461879 
L 94.895955 127.696566 
L 96.558939 128.538834 
L 98.719697 129.718094 
L 98.831643 129.783434 
L 100.880455 131.07564 
L 102.060394 131.870303 
L 103.041212 132.588753 
L 104.79781 133.957172 
L 105.20197 134.302263 
L 107.126945 136.04404 
L 107.362727 136.280055 
L 109.113133 138.130909 
L 109.523485 138.616401 
L 110.808474 140.217778 
L 111.684242 141.456458 
L 112.255023 142.304646 
L 113.471722 144.391515 
L 113.845 145.147089 
L 114.472605 146.478384 
L 115.279925 148.565253 
L 115.911583 150.652121 
L 116.005758 151.079189 
L 116.355897 152.73899 
L 116.632538 154.825859 
L 116.747384 156.912727 
L 116.702593 158.999596 
L 116.50029 161.086465 
L 116.142558 163.173333 
L 116.005758 163.73009 
L 115.616729 165.260202 
L 114.928389 167.347071 
L 114.085071 169.433939 
L 113.845 169.935127 
L 113.058361 171.520808 
L 111.86541 173.607677 
L 111.684242 173.887169 
L 110.469573 175.694545 
L 109.523485 176.956643 
L 108.881598 177.781414 
L 107.362727 179.550059 
L 107.078587 179.868283 
L 105.20197 181.789841 
L 105.033846 181.955152 
L 103.041212 183.759751 
L 102.716079 184.04202 
L 100.880455 185.519031 
L 100.088338 186.128889 
L 98.719697 187.110768 
L 97.106696 188.215758 
L 96.558939 188.567047 
L 94.398182 189.885613 
L 93.678127 190.302626 
L 92.237424 191.086737 
L 90.076667 192.200235 
L 89.686609 192.389495 
L 87.915909 193.199668 
L 85.755152 194.128552 
L 84.888528 194.476364 
L 83.594394 194.967635 
L 81.433636 195.729461 
L 79.272879 196.433399 
L 78.837006 196.563232 
L 77.112121 197.05046 
L 74.951364 197.604304 
L 72.790606 198.101487 
L 70.629848 198.541436 
L 70.013925 198.650101 
L 68.469091 198.909122 
L 66.308333 199.215648 
L 64.147576 199.466199 
L 61.986818 199.660233 
L 59.826061 199.7972 
L 57.665303 199.876542 
L 55.504545 199.897694 
L 53.343788 199.860084 
L 51.18303 199.763133 
L 49.022273 199.606252 
L 46.861515 199.388848 
L 44.700758 199.110317 
L 42.54 198.770048 
" style="fill:none;stroke:#485fd1;"/>
   </g>
   <g id="LineCollection_4">
    <path clip-path="url(#p2b79bd5321)" d="M 42.54 115.476434 
L 46.861515 114.517815 
L 51.18303 113.755487 
L 56.407639 113.088485 
L 59.826061 112.804743 
L 64.147576 112.61822 
L 68.469091 112.618676 
L 72.790606 112.809074 
L 77.112121 113.197204 
L 81.433636 113.803353 
L 85.755152 114.61825 
L 90.076667 115.668404 
L 95.246604 117.262222 
L 98.719697 118.573083 
L 100.880455 119.480577 
L 105.20197 121.589629 
L 109.523485 124.138504 
L 111.709867 125.609697 
L 114.434986 127.696566 
L 116.830591 129.783434 
L 118.93982 131.870303 
L 120.798598 133.957172 
L 122.48803 136.118816 
L 124.648788 139.449716 
L 125.094284 140.217778 
L 126.809545 143.797636 
L 127.059842 144.391515 
L 127.798904 146.478384 
L 128.396704 148.565253 
L 128.970303 151.403039 
L 129.168479 152.73899 
L 129.346303 154.825859 
L 129.393414 156.912727 
L 129.311232 158.999596 
L 128.970303 161.895951 
L 128.757991 163.173333 
L 128.281574 165.260202 
L 127.677523 167.347071 
L 126.809545 169.768945 
L 126.068807 171.520808 
L 124.648788 174.358709 
L 123.898381 175.694545 
L 122.48803 177.938779 
L 120.327273 180.898204 
L 118.166515 183.487332 
L 116.005758 185.784851 
L 113.845 187.84863 
L 111.684242 189.722173 
L 109.523485 191.438821 
L 107.362727 193.024554 
L 105.20197 194.499915 
L 100.880455 197.104315 
L 96.558939 199.361303 
L 92.237424 201.315348 
L 87.915909 203.003642 
L 82.005582 204.910707 
L 79.272879 205.645393 
L 74.951364 206.649122 
L 70.629848 207.445303 
L 66.308333 208.044051 
L 61.986818 208.457529 
L 57.665303 208.682755 
L 53.343788 208.716687 
L 49.022273 208.556214 
L 44.700758 208.198158 
L 42.54 207.944025 
L 42.54 207.944025 
" style="fill:none;stroke:#4f69d9;"/>
   </g>
   <g id="LineCollection_5">
    <path clip-path="url(#p2b79bd5321)" d="M 42.54 107.841014 
L 47.682423 106.827879 
L 51.18303 106.282716 
L 55.504545 105.759352 
L 59.826061 105.396822 
L 64.147576 105.19736 
L 68.469091 105.163242 
L 72.790606 105.296786 
L 77.112121 105.600354 
L 81.433636 106.076353 
L 86.311185 106.827879 
L 90.076667 107.585235 
L 95.413573 108.914747 
L 98.719697 109.916566 
L 103.041212 111.430997 
L 107.362727 113.215609 
L 111.684242 115.316166 
L 116.005758 117.789386 
L 118.42168 119.349091 
L 122.48803 122.370842 
L 124.648788 124.198765 
L 126.809545 126.226236 
L 128.970303 128.500728 
L 131.131061 131.086073 
L 133.21227 133.957172 
L 134.508042 136.04404 
L 135.660281 138.130909 
L 136.655364 140.217778 
L 137.613333 142.559709 
L 138.244709 144.391515 
L 138.842649 146.478384 
L 139.320145 148.565253 
L 139.774091 151.482354 
L 139.914567 152.73899 
L 140.034405 154.825859 
L 140.041572 156.912727 
L 139.774091 160.580818 
L 139.720682 161.086465 
L 138.942291 165.260202 
L 137.722389 169.433939 
L 136.930933 171.520808 
L 135.452576 174.787154 
L 133.846488 177.781414 
L 132.562441 179.868283 
L 131.131061 181.981742 
L 128.970303 184.801615 
L 125.999507 188.215758 
L 122.48803 191.691972 
L 119.296237 194.476364 
L 116.005758 197.032005 
L 111.684242 200.002144 
L 109.523485 201.348509 
L 105.20197 203.792282 
L 100.880455 205.948487 
L 96.558939 207.849089 
L 92.237424 209.521485 
L 87.302584 211.171313 
L 83.594394 212.23411 
L 79.272879 213.315834 
L 74.951364 214.201422 
L 70.629848 214.927532 
L 66.308333 215.486456 
L 61.986818 215.871844 
L 57.665303 216.097009 
L 53.343788 216.15975 
L 49.022273 216.057826 
L 44.700758 215.788957 
L 42.54 215.591194 
L 42.54 215.591194 
" style="fill:none;stroke:#5572df;"/>
   </g>
   <g id="LineCollection_6">
    <path clip-path="url(#p2b79bd5321)" d="M 42.54 101.154605 
L 46.861515 100.35391 
L 53.343788 99.447492 
L 59.826061 98.864411 
L 66.308333 98.610724 
L 70.629848 98.627657 
L 74.951364 98.795622 
L 79.272879 99.11653 
L 83.594394 99.592324 
L 89.884515 100.567273 
L 92.237424 101.032895 
L 96.558939 102.020314 
L 100.880455 103.197026 
L 105.6723 104.74101 
L 111.07783 106.827879 
L 113.845 108.057276 
L 118.166515 110.206167 
L 120.327273 111.398018 
L 124.648788 114.07384 
L 126.809545 115.564041 
L 129.080712 117.262222 
L 131.608711 119.349091 
L 133.898554 121.43596 
L 135.974325 123.522828 
L 137.856966 125.609697 
L 139.774091 127.98203 
L 141.934848 131.04053 
L 143.714971 133.957172 
L 144.815088 136.04404 
L 146.256364 139.263242 
L 147.365651 142.304646 
L 148.489515 146.478384 
L 149.167217 150.652121 
L 149.432103 154.825859 
L 149.291174 158.999596 
L 148.751274 163.173333 
L 147.804344 167.347071 
L 146.45419 171.520808 
L 145.617494 173.607677 
L 143.627809 177.781414 
L 141.1834 181.955152 
L 139.774091 184.062756 
L 136.596204 188.215758 
L 133.291818 191.928847 
L 130.750352 194.476364 
L 126.809545 197.987556 
L 123.350985 200.73697 
L 120.327273 202.921548 
L 116.005758 205.727213 
L 111.684242 208.234488 
L 107.362727 210.474813 
L 103.041212 212.475363 
L 98.719697 214.259741 
L 94.398182 215.848555 
L 89.480897 217.431919 
L 83.594394 219.027422 
L 79.272879 220.00809 
L 72.790606 221.187693 
L 68.469091 221.787673 
L 61.986818 222.40095 
L 55.504545 222.69 
L 49.022273 222.648799 
L 44.700758 222.434817 
L 42.54 222.271174 
L 42.54 222.271174 
" style="fill:none;stroke:#5d7ce6;"/>
   </g>
   <g id="LineCollection_7">
    <path clip-path="url(#p2b79bd5321)" d="M 42.54 95.139152 
L 49.022273 94.064393 
L 55.504545 93.305634 
L 61.986818 92.842412 
L 68.469091 92.679756 
L 74.951364 92.82281 
L 81.433636 93.276836 
L 87.915909 94.047218 
L 92.237424 94.753503 
L 96.558939 95.617958 
L 100.880455 96.642134 
L 105.20197 97.851675 
L 109.523485 99.248662 
L 113.845 100.847347 
L 118.166515 102.674151 
L 122.48803 104.760325 
L 126.809545 107.143098 
L 131.131061 109.867182 
L 133.291818 111.37019 
L 135.583974 113.088485 
L 139.774091 116.641122 
L 142.57282 119.349091 
L 144.51444 121.43596 
L 146.290467 123.522828 
L 148.417121 126.32805 
L 150.709802 129.783434 
L 152.994229 133.957172 
L 154.810192 138.130909 
L 155.547605 140.217778 
L 156.719588 144.391515 
L 157.488788 148.565253 
L 157.872448 152.73899 
L 157.884115 156.912727 
L 157.529524 161.086465 
L 156.808757 165.260202 
L 155.714449 169.433939 
L 154.248349 173.607677 
L 152.396432 177.781414 
L 150.137722 181.955152 
L 147.449692 186.128889 
L 144.308124 190.302626 
L 141.934848 193.074743 
L 138.623885 196.563232 
L 135.452576 199.545853 
L 131.590258 202.823838 
L 128.889975 204.910707 
L 124.648788 207.888114 
L 120.327273 210.623545 
L 115.693048 213.258182 
L 111.616068 215.345051 
L 107.09304 217.431919 
L 100.880455 219.948156 
L 96.201222 221.605657 
L 90.076667 223.47839 
L 85.755152 224.607465 
L 79.272879 226.037258 
L 72.790606 227.140667 
L 66.308333 227.946365 
L 59.826061 228.43874 
L 53.343788 228.634855 
L 46.861515 228.529706 
L 42.54 228.289717 
L 42.54 228.289717 
" style="fill:none;stroke:#6485ec;"/>
   </g>
   <g id="LineCollection_8">
    <path clip-path="url(#p2b79bd5321)" d="M 42.54 89.621135 
L 49.022273 88.603517 
L 55.504545 87.865226 
L 61.986818 87.413347 
L 68.469091 87.236442 
L 74.951364 87.338812 
L 81.433636 87.72485 
L 87.915909 88.409568 
L 94.398182 89.405543 
L 98.719697 90.242912 
L 105.20197 91.8 
L 109.523485 93.044465 
L 113.845 94.458844 
L 118.962626 96.393535 
L 123.762859 98.480404 
L 127.995078 100.567273 
L 131.779679 102.654141 
L 135.452576 104.906335 
L 139.774091 107.900632 
L 141.934848 109.550021 
L 144.095606 111.318827 
L 146.256364 113.226155 
L 148.417121 115.295413 
L 150.577879 117.555599 
L 153.864113 121.43596 
L 155.428881 123.522828 
L 158.164552 127.696566 
L 159.356725 129.783434 
L 161.397132 133.957172 
L 163.012431 138.130909 
L 164.237844 142.304646 
L 165.090822 146.478384 
L 165.587942 150.652121 
L 165.733747 154.825859 
L 165.535235 158.999596 
L 164.995473 163.173333 
L 164.119987 167.347071 
L 162.900412 171.520808 
L 161.334945 175.694545 
L 159.220909 180.215049 
L 157.060152 184.099484 
L 154.385 188.215758 
L 151.25155 192.389495 
L 148.417121 195.718418 
L 145.670594 198.650101 
L 141.934848 202.233669 
L 138.863245 204.910707 
L 135.452576 207.6304 
L 131.131061 210.766644 
L 127.352652 213.258182 
L 123.911842 215.345051 
L 120.192211 217.431919 
L 116.005758 219.581681 
L 111.679253 221.605657 
L 105.20197 224.284737 
L 100.880455 225.871453 
L 94.398182 227.952039 
L 87.915909 229.702623 
L 83.594394 230.694671 
L 77.112121 231.945744 
L 76.539426 232.04 
L 76.539426 232.04 
" style="fill:none;stroke:#6b8df0;"/>
   </g>
   <g id="LineCollection_9">
    <path clip-path="url(#p2b79bd5321)" d="M 42.54 84.498687 
L 49.022273 83.520799 
L 55.504545 82.81214 
L 61.986818 82.359844 
L 68.469091 82.167683 
L 74.951364 82.239506 
L 81.433636 82.57924 
L 87.915909 83.190885 
L 94.398182 84.084361 
L 100.880455 85.285406 
L 105.20197 86.257035 
L 111.841859 88.046061 
L 118.225021 90.132929 
L 123.641963 92.219798 
L 128.38873 94.306667 
L 132.609046 96.393535 
L 136.40828 98.480404 
L 139.865441 100.567273 
L 144.095606 103.420624 
L 148.417121 106.703297 
L 151.025384 108.914747 
L 154.899394 112.585566 
L 157.338892 115.175354 
L 160.79113 119.349091 
L 162.319801 121.43596 
L 165.020357 125.609697 
L 166.202599 127.696566 
L 168.252007 131.870303 
L 170.024697 136.391068 
L 171.188666 140.217778 
L 172.185455 144.758602 
L 172.714954 148.565253 
L 172.978356 152.73899 
L 172.920945 156.912727 
L 172.547003 161.086465 
L 171.854424 165.260202 
L 170.840745 169.433939 
L 169.507275 173.607677 
L 167.845924 177.781414 
L 165.703182 182.207129 
L 163.477416 186.128889 
L 160.736684 190.302626 
L 157.600757 194.476364 
L 154.899394 197.675669 
L 152.073107 200.73697 
L 147.774276 204.910707 
L 144.095606 208.108848 
L 139.774091 211.522258 
L 135.452576 214.603134 
L 131.105511 217.431919 
L 126.809545 219.969635 
L 122.48803 222.307724 
L 118.166515 224.448381 
L 113.845 226.40728 
L 109.523485 228.198482 
L 103.041212 230.584988 
L 98.587782 232.04 
L 98.587782 232.04 
" style="fill:none;stroke:#7396f5;"/>
   </g>
   <g id="LineCollection_10">
    <path clip-path="url(#p2b79bd5321)" d="M 42.54 79.68942 
L 49.022273 78.754622 
L 55.504545 78.059915 
L 61.986818 77.608715 
L 68.469091 77.40937 
L 74.951364 77.45409 
L 81.433636 77.749707 
L 87.915909 78.306795 
L 94.398182 79.124966 
L 100.880455 80.22166 
L 107.362727 81.609886 
L 111.684242 82.716065 
L 116.005758 83.959072 
L 122.48803 86.131654 
L 127.420298 88.046061 
L 132.185236 90.132929 
L 136.450938 92.219798 
L 140.312052 94.306667 
L 144.095606 96.557288 
L 148.417121 99.419399 
L 152.78273 102.654141 
L 157.060152 106.266117 
L 159.875056 108.914747 
L 163.542424 112.791084 
L 165.703182 115.348996 
L 168.700359 119.349091 
L 171.382728 123.522828 
L 173.647965 127.696566 
L 175.525967 131.870303 
L 177.043841 136.04404 
L 178.2179 140.217778 
L 179.063623 144.391515 
L 179.590242 148.565253 
L 179.810036 152.73899 
L 179.726895 156.912727 
L 179.344641 161.086465 
L 178.667022 165.260202 
L 177.68003 169.433939 
L 176.397934 173.607677 
L 174.799426 177.781414 
L 172.883227 181.955152 
L 170.637498 186.128889 
L 168.047594 190.302626 
L 165.085902 194.476364 
L 161.736301 198.650101 
L 159.220909 201.477039 
L 155.898089 204.910707 
L 152.738636 207.888694 
L 148.417121 211.60773 
L 143.589758 215.345051 
L 139.774091 218.029032 
L 135.452576 220.827521 
L 130.614462 223.692525 
L 124.648788 226.862067 
L 120.327273 228.942819 
L 116.005758 230.855421 
L 113.140575 232.04 
L 113.140575 232.04 
" style="fill:none;stroke:#7b9ff9;"/>
   </g>
   <g id="LineCollection_11">
    <path clip-path="url(#p2b79bd5321)" d="M 42.54 75.155652 
L 49.022273 74.245957 
L 55.504545 73.564986 
L 61.986818 73.12339 
L 68.469091 72.914126 
L 74.951364 72.937188 
L 81.433636 73.195619 
L 87.915909 73.69879 
L 94.398182 74.455623 
L 101.218577 75.524848 
L 107.362727 76.75675 
L 113.845 78.335126 
L 120.327273 80.226269 
L 126.809545 82.461478 
L 131.131061 84.156191 
L 135.452576 86.033865 
L 139.774091 88.113692 
L 144.095606 90.417641 
L 148.417121 92.970988 
L 152.738636 95.802957 
L 156.432704 98.480404 
L 159.220909 100.68466 
L 163.542424 104.47493 
L 165.964789 106.827879 
L 169.815819 111.001616 
L 172.185455 113.907018 
L 174.657535 117.262222 
L 177.333769 121.43596 
L 179.615755 125.609697 
L 181.530254 129.783434 
L 183.10166 133.957172 
L 184.337987 138.130909 
L 185.267286 142.304646 
L 185.886529 146.478384 
L 186.213556 150.652121 
L 186.251888 154.825859 
L 186.004987 158.999596 
L 185.47626 163.173333 
L 184.660706 167.347071 
L 183.559639 171.520808 
L 182.167956 175.694545 
L 180.482456 179.868283 
L 178.49094 184.04202 
L 176.180526 188.215758 
L 173.537597 192.389495 
L 170.547752 196.563232 
L 167.182745 200.73697 
L 163.418787 204.910707 
L 159.211682 209.084444 
L 154.510457 213.258182 
L 150.577879 216.420682 
L 146.256364 219.620136 
L 141.934848 222.54117 
L 136.702201 225.779394 
L 131.131061 228.888645 
L 126.809545 231.092715 
L 124.8536 232.04 
L 124.8536 232.04 
" style="fill:none;stroke:#82a6fb;"/>
   </g>
   <g id="LineCollection_12">
    <path clip-path="url(#p2b79bd5321)" d="M 42.54 70.845343 
L 49.022273 69.959382 
L 55.848262 69.264242 
L 61.986818 68.854853 
L 68.469091 68.637464 
L 74.951364 68.641749 
L 81.433636 68.870475 
L 87.915909 69.32792 
L 94.398182 70.030228 
L 100.880455 70.971229 
L 107.362727 72.173619 
L 113.845 73.641441 
L 120.738121 75.524848 
L 127.194605 77.611717 
L 133.291818 79.897096 
L 137.765457 81.785455 
L 142.234388 83.872323 
L 146.303332 85.959192 
L 150.577879 88.372431 
L 154.899394 91.064251 
L 159.591792 94.306667 
L 163.542424 97.359485 
L 167.301895 100.567273 
L 170.024697 103.124734 
L 173.600451 106.827879 
L 176.50697 110.207252 
L 178.75738 113.088485 
L 181.639866 117.262222 
L 184.131533 121.43596 
L 186.258076 125.609697 
L 188.042985 129.783434 
L 189.507779 133.957172 
L 190.655913 138.130909 
L 191.515263 142.304646 
L 192.081652 146.478384 
L 192.368762 150.652121 
L 192.381712 154.825859 
L 192.123631 158.999596 
L 191.597023 163.173333 
L 190.793011 167.347071 
L 189.722857 171.520808 
L 188.371575 175.694545 
L 186.742399 179.868283 
L 184.824386 184.04202 
L 182.606007 188.215758 
L 180.075114 192.389495 
L 177.218893 196.563232 
L 174.017895 200.73697 
L 170.024697 205.368259 
L 166.467211 209.084444 
L 163.542424 211.893537 
L 159.220909 215.719652 
L 154.492122 219.518788 
L 150.577879 222.395046 
L 145.57969 225.779394 
L 139.774091 229.333755 
L 134.923069 232.04 
L 134.923069 232.04 
" style="fill:none;stroke:#8badfd;"/>
   </g>
   <g id="LineCollection_13">
    <path clip-path="url(#p2b79bd5321)" d="M 42.54 66.72922 
L 49.022273 65.865686 
L 55.504545 65.211109 
L 61.986818 64.774982 
L 68.469091 64.55092 
L 74.951364 64.538817 
L 81.433636 64.741205 
L 87.915909 65.162229 
L 94.398182 65.815772 
L 100.880455 66.696797 
L 107.362727 67.822802 
L 114.121451 69.264242 
L 120.327273 70.853969 
L 124.648788 72.116299 
L 131.131061 74.265821 
L 135.452576 75.880513 
L 139.774091 77.654184 
L 144.294756 79.698586 
L 148.502671 81.785455 
L 152.738636 84.087716 
L 157.060152 86.666869 
L 161.381667 89.502066 
L 165.158254 92.219798 
L 167.863939 94.325425 
L 172.694517 98.480404 
L 176.96727 102.654141 
L 180.828485 106.945143 
L 184.03183 111.001616 
L 186.9263 115.175354 
L 189.471515 119.402415 
L 191.632273 123.583408 
L 193.433634 127.696566 
L 194.951164 131.870303 
L 196.175378 136.04404 
L 197.107502 140.217778 
L 197.766905 144.391515 
L 198.155965 148.565253 
L 198.277073 152.73899 
L 198.114545 157.214968 
L 197.737438 161.086465 
L 197.077948 165.260202 
L 195.953788 170.225009 
L 194.981108 173.607677 
L 193.538082 177.781414 
L 191.632273 182.368657 
L 189.471515 186.799954 
L 187.310758 190.687518 
L 184.954393 194.476364 
L 182.050029 198.650101 
L 178.667727 203.005342 
L 175.222354 206.997576 
L 171.244793 211.171313 
L 166.846524 215.345051 
L 161.983325 219.518788 
L 159.220909 221.714151 
L 153.678408 225.779394 
L 148.417121 229.276941 
L 143.901587 232.04 
L 143.901587 232.04 
" style="fill:none;stroke:#93b5fe;"/>
   </g>
   <g id="LineCollection_14">
    <path clip-path="url(#p2b79bd5321)" d="M 42.54 62.782908 
L 49.022273 61.940566 
L 55.504545 61.298533 
L 61.986818 60.860318 
L 68.469091 60.630763 
L 74.951364 60.604274 
L 81.433636 60.783173 
L 87.915909 61.175259 
L 94.398182 61.784947 
L 100.880455 62.611916 
L 107.362727 63.673309 
L 114.379418 65.090505 
L 120.327273 66.531427 
L 126.809545 68.360729 
L 133.291818 70.482028 
L 137.613333 72.071285 
L 141.934848 73.810154 
L 146.256364 75.711918 
L 150.577879 77.791481 
L 154.899394 80.06562 
L 159.220909 82.553292 
L 163.542424 85.276002 
L 167.863939 88.265022 
L 172.983524 92.219798 
L 176.50697 95.249804 
L 179.941482 98.480404 
L 182.989242 101.63847 
L 185.730188 104.74101 
L 189.033318 108.914747 
L 191.939495 113.088485 
L 194.477722 117.262222 
L 196.677485 121.43596 
L 198.558889 125.609697 
L 200.275303 130.199437 
L 201.423744 133.957172 
L 202.438739 138.130909 
L 203.176957 142.304646 
L 203.656827 146.478384 
L 203.881094 150.652121 
L 203.85246 154.825859 
L 203.573594 158.999596 
L 203.047122 163.173333 
L 202.273192 167.347071 
L 201.243848 171.520808 
L 199.966362 175.694545 
L 198.114545 180.632244 
L 196.628029 184.04202 
L 194.557317 188.215758 
L 192.207482 192.389495 
L 189.471515 196.705402 
L 186.617275 200.73697 
L 182.989242 205.339354 
L 179.729361 209.084444 
L 175.742286 213.258182 
L 171.350267 217.431919 
L 166.512454 221.605657 
L 163.542424 223.979363 
L 158.297775 227.866263 
L 152.738636 231.612968 
L 152.072823 232.04 
L 152.072823 232.04 
" style="fill:none;stroke:#9abbff;"/>
   </g>
   <g id="LineCollection_15">
    <path clip-path="url(#p2b79bd5321)" d="M 42.54 58.989146 
L 49.022273 58.163637 
L 55.504545 57.533679 
L 61.986818 57.098206 
L 68.469091 56.859381 
L 74.951364 56.819399 
L 81.433636 56.980489 
L 87.915909 57.344912 
L 94.398182 57.914963 
L 101.848136 58.829899 
L 107.362727 59.69943 
L 113.845 60.926431 
L 120.327273 62.404923 
L 126.809545 64.136057 
L 133.291818 66.140321 
L 139.774091 68.440735 
L 144.095606 70.152992 
L 148.417121 72.018714 
L 152.738636 74.051237 
L 157.060152 76.265491 
L 161.381667 78.678239 
L 166.449592 81.785455 
L 170.024697 84.186441 
L 175.246201 88.046061 
L 178.667727 90.841315 
L 182.989242 94.719758 
L 186.749197 98.480404 
L 189.471515 101.48466 
L 192.181173 104.74101 
L 195.292456 108.914747 
L 198.114545 113.213031 
L 200.440968 117.262222 
L 202.524078 121.43596 
L 204.596818 126.385553 
L 205.794532 129.783434 
L 207.014821 133.957172 
L 207.964955 138.130909 
L 208.662076 142.304646 
L 209.106016 146.478384 
L 209.302035 150.652121 
L 209.256364 154.825859 
L 208.918333 159.477864 
L 208.442809 163.173333 
L 207.675554 167.347071 
L 206.671615 171.520808 
L 205.417702 175.694545 
L 203.919902 179.868283 
L 202.171056 184.04202 
L 200.162366 188.215758 
L 197.884616 192.389495 
L 195.328149 196.563232 
L 192.482842 200.73697 
L 189.335908 204.910707 
L 185.15 209.884946 
L 182.038521 213.258182 
L 177.84431 217.431919 
L 173.240956 221.605657 
L 168.188131 225.779394 
L 163.542424 229.287796 
L 159.629947 232.04 
L 159.629947 232.04 
" style="fill:none;stroke:#a2c1ff;"/>
   </g>
   <g id="LineCollection_16">
    <path clip-path="url(#p2b79bd5321)" d="M 42.54 55.334129 
L 49.022273 54.517673 
L 55.504545 53.899314 
L 61.986818 53.467933 
L 68.469091 53.225529 
L 74.951364 53.174128 
L 81.433636 53.315786 
L 87.915909 53.652589 
L 94.398182 54.186651 
L 100.880455 54.925489 
L 107.362727 55.879652 
L 113.845 57.04818 
L 120.327273 58.449755 
L 126.809545 60.095538 
L 133.291818 61.997923 
L 139.774091 64.177552 
L 146.256364 66.657348 
L 150.577879 68.494711 
L 154.899394 70.489352 
L 160.706354 73.43798 
L 165.703182 76.258595 
L 171.21043 79.698586 
L 174.346212 81.834045 
L 178.667727 85.029983 
L 182.989242 88.537649 
L 187.310758 92.424384 
L 191.632273 96.780823 
L 194.994849 100.567273 
L 198.316779 104.74101 
L 201.260929 108.914747 
L 203.864376 113.088485 
L 206.146567 117.262222 
L 208.125497 121.43596 
L 209.817843 125.609697 
L 211.239078 129.783434 
L 212.391411 133.957172 
L 213.295056 138.130909 
L 213.944723 142.304646 
L 214.354979 146.478384 
L 214.528185 150.652121 
L 214.466672 154.825859 
L 214.172742 158.999596 
L 213.648665 163.173333 
L 212.891818 167.347071 
L 211.900345 171.520808 
L 210.676636 175.694545 
L 208.918333 180.62291 
L 207.505595 184.04202 
L 205.549872 188.215758 
L 203.338165 192.389495 
L 200.861699 196.563232 
L 198.11124 200.73697 
L 195.063767 204.910707 
L 191.632273 209.185004 
L 187.310758 214.038367 
L 184.01488 217.431919 
L 179.612204 221.605657 
L 174.796286 225.779394 
L 170.024697 229.567235 
L 166.687321 232.04 
L 166.687321 232.04 
" style="fill:none;stroke:#aac7fd;"/>
   </g>
   <g id="LineCollection_17">
    <path clip-path="url(#p2b79bd5321)" d="M 42.54 51.79791 
L 49.022273 50.997629 
L 55.504545 50.380788 
L 61.986818 49.953588 
L 68.469091 49.708271 
L 74.951364 49.646716 
L 81.433636 49.770823 
L 87.915909 50.082524 
L 94.398182 50.585746 
L 100.880455 51.292075 
L 107.362727 52.195839 
L 113.845 53.313817 
L 120.375656 54.656162 
L 126.809545 56.216361 
L 133.291818 58.029525 
L 139.774091 60.103322 
L 146.256364 62.458337 
L 150.577879 64.199527 
L 154.899394 66.085563 
L 159.220909 68.128178 
L 163.542424 70.340408 
L 169.068867 73.43798 
L 174.346212 76.721603 
L 178.713965 79.698586 
L 182.989242 82.896345 
L 187.310758 86.433149 
L 191.632273 90.341949 
L 195.953788 94.708847 
L 199.307308 98.480404 
L 202.645657 102.654141 
L 205.616542 106.827879 
L 208.255529 111.001616 
L 210.581026 115.175354 
L 212.610107 119.349091 
L 214.358626 123.522828 
L 215.841328 127.696566 
L 217.065007 131.870303 
L 218.040166 136.04404 
L 218.772413 140.217778 
L 219.270958 144.391515 
L 219.538048 148.565253 
L 219.575899 152.73899 
L 219.386701 156.912727 
L 218.972613 161.086465 
L 218.335771 165.260202 
L 217.477137 169.433939 
L 216.386321 173.607677 
L 215.071626 177.781414 
L 213.239848 182.644646 
L 211.735661 186.128889 
L 209.706373 190.302626 
L 207.427221 194.476364 
L 204.596818 199.100383 
L 202.080546 202.823838 
L 198.986631 206.997576 
L 195.597262 211.171313 
L 191.632273 215.618967 
L 187.310758 220.034475 
L 182.989242 224.080849 
L 178.605563 227.866263 
L 173.336905 232.04 
L 173.336905 232.04 
" style="fill:none;stroke:#b2ccfb;"/>
   </g>
   <g id="LineCollection_18">
    <path clip-path="url(#p2b79bd5321)" d="M 42.54 48.367483 
L 49.022273 47.58508 
L 55.504545 46.97763 
L 61.986818 46.546892 
L 68.469091 46.294905 
L 74.951364 46.224279 
L 81.433636 46.332911 
L 87.915909 46.627103 
L 94.398182 47.107171 
L 100.880455 47.775023 
L 107.362727 48.637154 
L 113.845 49.706677 
L 120.327273 50.98347 
L 127.167038 52.569293 
L 133.291818 54.213932 
L 139.774091 56.194458 
L 146.256364 58.439507 
L 150.577879 60.097344 
L 154.899394 61.889352 
L 159.220909 63.825899 
L 163.542424 65.918452 
L 167.863939 68.179722 
L 173.412142 71.351111 
L 178.667727 74.67715 
L 182.989242 77.665246 
L 188.378462 81.785455 
L 191.632273 84.511718 
L 195.953788 88.454047 
L 199.69244 92.219798 
L 203.432189 96.393535 
L 206.79246 100.567273 
L 209.791952 104.74101 
L 212.467788 108.914747 
L 214.837427 113.088485 
L 216.917095 117.262222 
L 218.72189 121.43596 
L 220.265881 125.609697 
L 221.557766 129.783434 
L 222.603805 133.957172 
L 223.414994 138.130909 
L 224.043636 142.765971 
L 224.350606 146.478384 
L 224.481661 150.652121 
L 224.393728 154.825859 
L 224.043636 159.403358 
L 223.562591 163.173333 
L 222.819945 167.347071 
L 221.863202 171.520808 
L 220.679265 175.694545 
L 219.276774 179.868283 
L 217.561364 184.243938 
L 215.400606 189.005343 
L 213.239848 193.205957 
L 211.079091 196.994562 
L 208.739955 200.73697 
L 205.873323 204.910707 
L 202.436061 209.458065 
L 199.297964 213.258182 
L 195.555134 217.431919 
L 191.479756 221.605657 
L 187.043293 225.779394 
L 182.213847 229.953131 
L 179.640745 232.04 
L 179.640745 232.04 
" style="fill:none;stroke:#b9d0f9;"/>
   </g>
   <g id="LineCollection_19">
    <path clip-path="url(#p2b79bd5321)" d="M 42.54 45.046185 
L 49.463002 44.221818 
L 55.504545 43.669566 
L 61.986818 43.243443 
L 68.469091 42.98948 
L 74.951364 42.909358 
L 81.433636 43.00478 
L 87.915909 43.277471 
L 94.398182 43.72918 
L 100.880455 44.36426 
L 107.362727 45.194449 
L 114.389902 46.308687 
L 120.327273 47.441666 
L 126.809545 48.877373 
L 133.291818 50.534267 
L 140.214168 52.569293 
L 146.475273 54.656162 
L 152.738636 56.999993 
L 159.220909 59.718272 
L 165.703182 62.755589 
L 170.230555 65.090505 
L 176.50697 68.656757 
L 180.834011 71.351111 
L 185.15 74.273964 
L 189.694459 77.611717 
L 194.8351 81.785455 
L 198.114545 84.701846 
L 201.599707 88.046061 
L 205.556325 92.219798 
L 209.123148 96.393535 
L 212.325171 100.567273 
L 215.400606 105.05501 
L 217.761774 108.914747 
L 220.031455 113.088485 
L 222.026505 117.262222 
L 224.043636 122.206532 
L 225.233793 125.609697 
L 226.471891 129.783434 
L 227.470917 133.957172 
L 228.365152 138.948925 
L 228.793119 142.304646 
L 229.121705 146.478384 
L 229.235109 150.652121 
L 229.135254 154.825859 
L 228.824046 158.999596 
L 228.302564 163.173333 
L 227.564875 167.347071 
L 226.618818 171.520808 
L 225.456667 175.694545 
L 224.043636 179.972551 
L 222.481585 184.04202 
L 220.658769 188.215758 
L 218.606603 192.389495 
L 216.317965 196.563232 
L 213.239848 201.578989 
L 211.000196 204.910707 
L 207.943883 209.084444 
L 204.596818 213.280235 
L 200.275303 218.205026 
L 195.953788 222.696561 
L 191.632273 226.823852 
L 187.310758 230.641991 
L 185.648911 232.04 
L 185.648911 232.04 
" style="fill:none;stroke:#c0d4f5;"/>
   </g>
   <g id="LineCollection_20">
    <path clip-path="url(#p2b79bd5321)" d="M 42.54 41.810801 
L 51.18303 40.831108 
L 59.826061 40.147357 
L 66.308333 39.834758 
L 72.790606 39.691163 
L 79.272879 39.716451 
L 85.755152 39.912221 
L 92.237424 40.284209 
L 98.719697 40.835476 
L 105.20197 41.565343 
L 111.684242 42.481764 
L 118.166515 43.594088 
L 124.648788 44.906387 
L 131.131061 46.425585 
L 138.39074 48.395556 
L 145.111491 50.482424 
L 151.097353 52.569293 
L 157.060152 54.8797 
L 163.542424 57.678387 
L 170.024697 60.794114 
L 174.346212 63.072392 
L 180.828485 66.826352 
L 185.15 69.574476 
L 190.702602 73.43798 
L 193.79303 75.769773 
L 198.6041 79.698586 
L 203.227223 83.872323 
L 207.405256 88.046061 
L 211.183107 92.219798 
L 214.587997 96.393535 
L 217.660497 100.567273 
L 220.412533 104.74101 
L 222.871733 108.914747 
L 225.052817 113.088485 
L 226.969538 117.262222 
L 228.634755 121.43596 
L 230.054402 125.609697 
L 231.239636 129.783434 
L 232.198692 133.957172 
L 232.936439 138.130909 
L 233.454612 142.304646 
L 233.761283 146.478384 
L 233.858305 150.652121 
L 233.747505 154.825859 
L 233.430693 158.999596 
L 232.909655 163.173333 
L 232.179866 167.347071 
L 231.24409 171.520808 
L 230.101605 175.694545 
L 228.365152 180.9296 
L 227.17897 184.04202 
L 225.393865 188.215758 
L 223.386124 192.389495 
L 221.149015 196.563232 
L 218.675532 200.73697 
L 215.400606 205.716754 
L 212.986539 209.084444 
L 208.918333 214.263624 
L 206.222684 217.431919 
L 202.404372 221.605657 
L 198.114545 225.922501 
L 193.780258 229.953131 
L 191.398661 232.04 
L 191.398661 232.04 
" style="fill:none;stroke:#c7d7f0;"/>
   </g>
   <g id="LineCollection_21">
    <path clip-path="url(#p2b79bd5321)" d="M 42.54 38.663992 
L 49.022273 37.905807 
L 57.665303 37.160416 
L 66.308333 36.703791 
L 74.951364 36.539501 
L 81.433636 36.610307 
L 87.915909 36.849143 
L 94.398182 37.257581 
L 102.03824 37.961212 
L 107.362727 38.600677 
L 113.845 39.543903 
L 120.327273 40.67755 
L 127.39202 42.134949 
L 133.291818 43.543541 
L 139.774091 45.29645 
L 146.256364 47.278023 
L 152.738636 49.50425 
L 159.220909 51.992647 
L 165.462242 54.656162 
L 170.024697 56.78664 
L 176.50697 60.109322 
L 181.646601 63.003636 
L 187.310758 66.505334 
L 191.632273 69.413949 
L 197.091555 73.43798 
L 200.275303 75.985471 
L 204.596818 79.709243 
L 208.988746 83.872323 
L 213.239848 88.337436 
L 216.589538 92.219798 
L 219.860967 96.393535 
L 222.806317 100.567273 
L 225.455386 104.74101 
L 227.822916 108.914747 
L 229.922686 113.088485 
L 231.767591 117.262222 
L 233.369711 121.43596 
L 234.847424 125.984839 
L 235.876145 129.783434 
L 237.008182 135.109855 
L 237.500508 138.130909 
L 237.99285 142.304646 
L 238.279035 146.478384 
L 238.360825 150.652121 
L 238.239957 154.825859 
L 237.918154 158.999596 
L 237.397114 163.173333 
L 236.674478 167.347071 
L 235.748823 171.520808 
L 234.623889 175.694545 
L 233.290591 179.868283 
L 231.75028 184.04202 
L 229.999778 188.215758 
L 228.032954 192.389495 
L 225.843435 196.563232 
L 223.424593 200.73697 
L 220.769536 204.910707 
L 217.561364 209.506079 
L 214.712646 213.258182 
L 211.079091 217.673507 
L 206.757576 222.476649 
L 202.436061 226.885833 
L 198.114545 230.960165 
L 196.916831 232.04 
L 196.916831 232.04 
" style="fill:none;stroke:#cdd9ec;"/>
   </g>
   <g id="LineCollection_22">
    <path clip-path="url(#p2b79bd5321)" d="M 42.54 35.592247 
L 51.18303 34.636177 
L 59.826061 33.961521 
L 68.469091 33.57522 
L 77.112121 33.475356 
L 85.755152 33.662495 
L 92.237424 33.996741 
L 98.719697 34.500768 
L 105.20197 35.17403 
L 111.684242 36.02058 
L 118.166515 37.054668 
L 124.648788 38.271289 
L 132.658335 40.048081 
L 137.613333 41.307138 
L 144.095606 43.142388 
L 150.577879 45.206182 
L 157.060152 47.514231 
L 163.542424 50.083716 
L 169.21995 52.569293 
L 174.346212 55.018699 
L 180.828485 58.420141 
L 185.191985 60.916768 
L 189.471515 63.555209 
L 194.891777 67.177374 
L 198.114545 69.500672 
L 203.172526 73.43798 
L 208.041645 77.611717 
L 212.460153 81.785455 
L 216.472415 85.959192 
L 220.117153 90.132929 
L 223.419714 94.306667 
L 226.409647 98.480404 
L 229.100956 102.654141 
L 231.516321 106.827879 
L 233.66892 111.001616 
L 235.571103 115.175354 
L 237.234459 119.349091 
L 238.663644 123.522828 
L 239.869851 127.696566 
L 240.860116 131.870303 
L 241.638678 136.04404 
L 242.207928 140.217778 
L 242.575256 144.391515 
L 242.742348 148.565253 
L 242.71087 152.73899 
L 242.482468 156.912727 
L 242.058774 161.086465 
L 241.329697 165.871717 
L 240.623593 169.433939 
L 239.611721 173.607677 
L 238.399571 177.781414 
L 236.990117 181.955152 
L 234.847424 187.369267 
L 233.546169 190.302626 
L 231.508881 194.476364 
L 229.253419 198.650101 
L 226.204394 203.724092 
L 224.043636 207.024956 
L 221.10356 211.171313 
L 217.561364 215.758588 
L 213.239848 220.861578 
L 210.665119 223.692525 
L 206.612052 227.866263 
L 202.237412 232.04 
L 202.237412 232.04 
" style="fill:none;stroke:#d4dbe6;"/>
   </g>
   <g id="LineCollection_23">
    <path clip-path="url(#p2b79bd5321)" d="M 42.54 32.597514 
L 51.18303 31.646061 
L 59.826061 30.981418 
L 68.469091 30.592499 
L 77.112121 30.482547 
L 85.755152 30.654861 
L 94.398182 31.112787 
L 101.435102 31.700606 
L 109.523485 32.626882 
L 117.413543 33.787475 
L 122.48803 34.67895 
L 128.970303 35.97834 
L 135.452576 37.478397 
L 141.934848 39.181478 
L 148.417121 41.098816 
L 154.899394 43.244573 
L 161.381667 45.634185 
L 168.120938 48.395556 
L 174.346212 51.228912 
L 180.828485 54.482012 
L 185.15 56.845136 
L 191.632273 60.713948 
L 195.953788 63.533664 
L 201.11141 67.177374 
L 206.489623 71.351111 
L 208.988605 73.43798 
L 213.637977 77.611717 
L 217.870651 81.785455 
L 221.882879 86.141936 
L 225.224914 90.132929 
L 228.410139 94.306667 
L 231.288715 98.480404 
L 233.888104 102.654141 
L 236.221505 106.827879 
L 238.3013 111.001616 
L 240.139115 115.175354 
L 241.745875 119.349091 
L 243.490455 124.758983 
L 244.290604 127.696566 
L 245.244887 131.870303 
L 245.992335 136.04404 
L 246.536307 140.217778 
L 246.883232 144.391515 
L 247.034714 148.565253 
L 246.992342 152.73899 
L 246.757688 156.912727 
L 246.332305 161.086465 
L 245.651212 165.627272 
L 244.906899 169.433939 
L 243.907006 173.607677 
L 242.711308 177.781414 
L 241.323281 181.955152 
L 239.168939 187.482171 
L 237.937629 190.302626 
L 235.93796 194.476364 
L 233.726121 198.650101 
L 231.296118 202.823838 
L 228.365152 207.408497 
L 225.750821 211.171313 
L 221.882879 216.27069 
L 219.22618 219.518788 
L 215.400606 223.874964 
L 211.079091 228.413761 
L 207.371719 232.04 
L 207.371719 232.04 
" style="fill:none;stroke:#dadce0;"/>
   </g>
   <g id="LineCollection_24">
    <path clip-path="url(#p2b79bd5321)" d="M 42.54 29.664924 
L 49.022273 28.938918 
L 57.665303 28.206252 
L 66.308333 27.744153 
L 74.951364 27.555754 
L 83.594394 27.644233 
L 92.237424 28.01282 
L 100.880455 28.664792 
L 109.602743 29.613737 
L 118.166515 30.852352 
L 124.648788 31.98964 
L 131.131061 33.313571 
L 137.613333 34.829139 
L 144.095606 36.5432 
L 150.577879 38.468375 
L 157.060152 40.618377 
L 163.542424 43.008134 
L 170.024697 45.653924 
L 176.50697 48.57709 
L 182.989242 51.813127 
L 188.202275 54.656162 
L 193.79303 57.980083 
L 198.357188 60.916768 
L 204.292476 65.090505 
L 208.918333 68.658327 
L 213.239848 72.273674 
L 217.561364 76.205287 
L 221.882879 80.512771 
L 224.983329 83.872323 
L 228.525649 88.046061 
L 231.745021 92.219798 
L 234.847424 96.658865 
L 237.319343 100.567273 
L 239.70236 104.74101 
L 241.836145 108.914747 
L 243.731861 113.088485 
L 245.651212 117.965055 
L 246.839055 121.43596 
L 248.070597 125.609697 
L 249.090401 129.783434 
L 249.972727 134.336117 
L 250.529156 138.130909 
L 250.952887 142.304646 
L 251.18498 146.478384 
L 251.226961 150.652121 
L 251.080336 154.825859 
L 250.746597 158.999596 
L 250.22722 163.173333 
L 249.518538 167.347071 
L 248.62217 171.520808 
L 247.539398 175.694545 
L 246.26341 179.868283 
L 244.795223 184.04202 
L 243.132852 188.215758 
L 241.271031 192.389495 
L 239.168939 196.629322 
L 236.927011 200.73697 
L 234.433284 204.910707 
L 231.717034 209.084444 
L 228.365152 213.805303 
L 225.583723 217.431919 
L 221.882879 221.908943 
L 217.561364 226.718342 
L 213.239848 231.157047 
L 212.34294 232.04 
L 212.34294 232.04 
" style="fill:none;stroke:#dfdbd9;"/>
   </g>
   <g id="LineCollection_25">
    <path clip-path="url(#p2b79bd5321)" d="M 42.54 26.802903 
L 44.700758 26.545841 
L 46.861515 26.305147 
L 49.022273 26.080866 
L 51.18303 25.873046 
L 53.343788 25.681733 
L 55.504545 25.506972 
L 56.420001 25.44 
" style="fill:none;stroke:#e5d8d1;"/>
    <path clip-path="url(#p2b79bd5321)" d="M 97.144892 25.44 
L 105.20197 26.166028 
L 113.845 27.220765 
L 120.327273 28.210852 
L 128.045107 29.613737 
L 135.452576 31.204972 
L 141.934848 32.801913 
L 148.417121 34.597658 
L 154.899394 36.60465 
L 161.381667 38.836394 
L 167.863939 41.307571 
L 174.769259 44.221818 
L 180.828485 47.04787 
L 187.531228 50.482424 
L 193.79303 54.030329 
L 198.213109 56.74303 
L 204.449417 60.916768 
L 208.918333 64.188448 
L 213.239848 67.594717 
L 217.642824 71.351111 
L 222.124468 75.524848 
L 226.22199 79.698586 
L 230.525909 84.538877 
L 233.379018 88.046061 
L 237.008182 92.954034 
L 239.325716 96.393535 
L 241.886987 100.567273 
L 244.196004 104.74101 
L 246.263961 108.914747 
L 248.101401 113.088485 
L 249.972727 117.997103 
L 251.112171 121.43596 
L 252.304653 125.609697 
L 253.289893 129.783434 
L 254.294242 135.331407 
L 254.675726 138.130909 
L 255.07915 142.304646 
L 255.29533 146.478384 
L 255.325722 150.652121 
L 255.171766 154.825859 
L 254.834889 158.999596 
L 254.294242 163.315289 
L 253.610447 167.347071 
L 252.723462 171.520808 
L 251.651843 175.694545 
L 249.972727 181.129929 
L 248.945746 184.04202 
L 247.308341 188.215758 
L 245.476515 192.389495 
L 243.445072 196.563232 
L 241.208629 200.73697 
L 238.761608 204.910707 
L 236.098225 209.084444 
L 232.686667 213.979951 
L 230.092907 217.431919 
L 226.204394 222.225911 
L 221.882879 227.123089 
L 219.218071 229.953131 
L 217.166532 232.04 
L 217.166532 232.04 
" style="fill:none;stroke:#e5d8d1;"/>
   </g>
   <g id="LineCollection_26">
    <path clip-path="url(#p2b79bd5321)" d="M 256.455 172.69919 
L 256.232997 173.607677 
L 255.678513 175.694545 
L 255.08004 177.781414 
L 254.437745 179.868283 
L 254.294242 180.304423 
L 253.745793 181.955152 
L 253.008303 184.04202 
L 252.227032 186.128889 
L 252.133485 186.365285 
L 251.393998 188.215758 
L 250.516015 190.302626 
L 249.972727 191.532036 
L 249.590043 192.389495 
L 248.613927 194.476364 
L 247.81197 196.116717 
L 247.591484 196.563232 
L 246.515785 198.650101 
L 245.651212 200.261025 
L 245.393193 200.73697 
L 244.216428 202.823838 
L 243.490455 204.064114 
L 242.98986 204.910707 
L 241.710516 206.997576 
L 241.329697 207.597449 
L 240.375987 209.084444 
L 239.168939 210.904877 
L 238.99044 211.171313 
L 237.545874 213.258182 
L 237.008182 214.011023 
L 236.045397 215.345051 
L 234.847424 216.955605 
L 234.489372 217.431919 
L 232.873742 219.518788 
L 232.686667 219.753588 
L 231.195246 221.605657 
L 230.525909 222.414202 
L 229.456226 223.692525 
L 228.365152 224.961827 
L 227.654695 225.779394 
L 226.204394 227.405223 
L 225.78858 227.866263 
L 224.043636 229.752264 
L 223.855714 229.953131 
L 221.882879 232.010054 
L 221.853832 232.04 
" style="fill:none;stroke:#ead4c8;"/>
    <path clip-path="url(#p2b79bd5321)" d="M 121.330584 25.44 
L 122.48803 25.632744 
L 124.648788 26.01054 
L 126.809545 26.406526 
L 128.970303 26.820753 
L 131.131061 27.253277 
L 132.442723 27.526869 
L 133.291818 27.707043 
L 135.452576 28.18399 
L 137.613333 28.679711 
L 139.774091 29.194261 
L 141.4736 29.613737 
L 141.934848 29.729596 
L 144.095606 30.29119 
L 146.256364 30.872119 
L 148.417121 31.472442 
L 149.213094 31.700606 
L 150.577879 32.09888 
L 152.738636 32.749064 
L 154.899394 33.419174 
L 156.053128 33.787475 
L 157.060152 34.114862 
L 159.220909 34.837365 
L 161.381667 35.580358 
L 162.214154 35.874343 
L 163.542424 36.35223 
L 165.703182 37.150325 
L 167.842094 37.961212 
L 167.863939 37.969653 
L 170.024697 38.825199 
L 172.185455 39.702384 
L 173.017001 40.048081 
L 174.346212 40.611504 
L 176.50697 41.549228 
L 177.825854 42.134949 
L 178.667727 42.516314 
L 180.828485 43.517278 
L 182.315852 44.221818 
L 182.989242 44.547315 
L 185.15 45.614406 
L 186.526061 46.308687 
L 187.310758 46.712876 
L 189.471515 47.84918 
L 190.489415 48.395556 
L 191.632273 49.022118 
L 193.79303 50.230944 
L 194.233876 50.482424 
L 195.953788 51.485008 
L 197.77754 52.569293 
L 198.114545 52.774135 
L 200.275303 54.112456 
L 201.136773 54.656162 
L 202.436061 55.494971 
L 204.333537 56.74303 
L 204.596818 56.920262 
L 206.757576 58.401111 
L 207.372163 58.829899 
L 208.918333 59.934565 
L 210.26898 60.916768 
L 211.079091 61.520395 
L 213.035388 63.003636 
L 213.239848 63.16257 
L 215.400606 64.87083 
L 215.673868 65.090505 
L 217.561364 66.647218 
L 218.193616 67.177374 
L 219.722121 68.493186 
L 220.603345 69.264242 
L 221.882879 70.414444 
L 222.908302 71.351111 
L 224.043636 72.417347 
L 225.113406 73.43798 
L 226.204394 74.508983 
L 227.223271 75.524848 
L 228.365152 76.697287 
L 229.242234 77.611717 
L 230.525909 78.991169 
L 231.17437 79.698586 
L 232.686667 81.400666 
L 233.023516 81.785455 
L 234.792571 83.872323 
L 234.847424 83.939197 
L 236.480316 85.959192 
L 237.008182 86.635023 
L 238.094547 88.046061 
L 239.168939 89.492095 
L 239.638369 90.132929 
L 241.112007 92.219798 
L 241.329697 92.539939 
L 242.514381 94.306667 
L 243.490455 95.821308 
L 243.854169 96.393535 
L 245.127572 98.480404 
L 245.651212 99.375956 
L 246.338404 100.567273 
L 247.489654 102.654141 
L 247.81197 103.26601 
L 248.578645 104.74101 
L 249.611653 106.827879 
L 249.972727 107.595254 
L 250.585465 108.914747 
L 251.503962 111.001616 
L 252.133485 112.515217 
L 252.368838 113.088485 
L 253.176379 115.175354 
L 253.93407 117.262222 
L 254.294242 118.323089 
L 254.638154 119.349091 
L 255.289266 121.43596 
L 255.891705 123.522828 
L 256.445661 125.609697 
L 256.455 125.64819 
" style="fill:none;stroke:#ead4c8;"/>
   </g>
   <g id="LineCollection_27">
    <path clip-path="url(#p2b79bd5321)" d="M 256.455 185.488791 
L 256.21664 186.128889 
L 255.3957 188.215758 
L 254.531779 190.302626 
L 254.294242 190.848809 
L 253.617681 192.389495 
L 252.657868 194.476364 
L 252.133485 195.567021 
L 251.649816 196.563232 
L 250.592725 198.650101 
L 249.972727 199.825521 
L 249.487214 200.73697 
L 248.331428 202.823838 
L 247.81197 203.727335 
L 247.124815 204.910707 
L 245.868889 206.997576 
L 245.651212 207.346844 
L 244.557382 209.084444 
L 243.490455 210.724103 
L 243.196498 211.171313 
L 241.779493 213.258182 
L 241.329697 213.900217 
L 240.3071 215.345051 
L 239.168939 216.90554 
L 238.781042 217.431919 
L 237.197394 219.518788 
L 237.008182 219.761085 
L 235.552682 221.605657 
L 234.847424 222.47517 
L 233.849605 223.692525 
L 232.686667 225.073825 
L 232.086295 225.779394 
L 230.525909 227.565968 
L 230.260803 227.866263 
L 228.37102 229.953131 
L 228.365152 229.959452 
L 226.412445 232.04 
" style="fill:none;stroke:#eed0c0;"/>
    <path clip-path="url(#p2b79bd5321)" d="M 136.404101 25.44 
L 137.613333 25.711458 
L 139.774091 26.214819 
L 141.934848 26.736739 
L 144.095606 27.277273 
L 145.060568 27.526869 
L 146.256364 27.84156 
L 148.417121 28.428992 
L 150.577879 29.035531 
L 152.574767 29.613737 
L 152.738636 29.662029 
L 154.899394 30.317767 
L 157.060152 30.993129 
L 159.220909 31.688176 
L 159.258523 31.700606 
L 161.381667 32.414981 
L 163.542424 33.162168 
L 165.303383 33.787475 
L 165.703182 33.932067 
L 167.863939 34.733537 
L 170.024697 35.555752 
L 170.841818 35.874343 
L 172.185455 36.408115 
L 174.346212 37.287425 
L 175.963121 37.961212 
L 176.50697 38.192208 
L 178.667727 39.131065 
L 180.730178 40.048081 
L 180.828485 40.09265 
L 182.989242 41.093663 
L 185.15 42.11719 
L 185.186722 42.134949 
L 187.310758 43.182808 
L 189.37225 44.221818 
L 189.471515 44.272875 
L 191.632273 45.406748 
L 193.31614 46.308687 
L 193.79303 46.569485 
L 195.953788 47.774461 
L 197.045982 48.395556 
L 198.114545 49.01625 
L 200.275303 50.295743 
L 200.584788 50.482424 
L 202.436061 51.623626 
L 203.941675 52.569293 
L 204.596818 52.99002 
L 206.757576 54.40306 
L 207.137817 54.656162 
L 208.918333 55.868584 
L 210.179903 56.74303 
L 211.079091 57.380962 
L 213.086084 58.829899 
L 213.239848 58.943584 
L 215.400606 60.568284 
L 215.85635 60.916768 
L 217.561364 62.252747 
L 218.503882 63.003636 
L 219.722121 63.9988 
L 221.036881 65.090505 
L 221.882879 65.811252 
L 223.460829 67.177374 
L 224.043636 67.695422 
L 225.78086 69.264242 
L 226.204394 69.657217 
L 228.001795 71.351111 
L 228.365152 71.703207 
L 230.128157 73.43798 
L 230.525909 73.840728 
L 232.164201 75.524848 
L 232.686667 76.077992 
L 234.11393 77.611717 
L 234.847424 78.424224 
L 235.981113 79.698586 
L 237.008182 80.889824 
L 237.769303 81.785455 
L 239.168939 83.486556 
L 239.481852 83.872323 
L 241.119296 85.959192 
L 241.329697 86.236674 
L 242.682556 88.046061 
L 243.490455 89.165888 
L 244.178542 90.132929 
L 245.60948 92.219798 
L 245.651212 92.282999 
L 246.969387 94.306667 
L 247.81197 95.652893 
L 248.269338 96.393535 
L 249.506196 98.480404 
L 249.972727 99.301949 
L 250.681815 100.567273 
L 251.800023 102.654141 
L 252.133485 103.306018 
L 252.858023 104.74101 
L 253.861292 106.827879 
L 254.294242 107.775624 
L 254.807965 108.914747 
L 255.699838 111.001616 
L 256.455 112.872478 
" style="fill:none;stroke:#eed0c0;"/>
   </g>
   <g id="LineCollection_28">
    <path clip-path="url(#p2b79bd5321)" d="M 256.455 194.826993 
L 255.625802 196.563232 
L 254.586616 198.650101 
L 254.294242 199.213828 
L 253.496635 200.73697 
L 252.361019 202.823838 
L 252.133485 203.22655 
L 251.172647 204.910707 
L 249.972727 206.940811 
L 249.938845 206.997576 
L 248.648843 209.084444 
L 247.81197 210.394319 
L 247.310621 211.171313 
L 245.92006 213.258182 
L 245.651212 213.649203 
L 244.473545 215.345051 
L 243.490455 216.718941 
L 242.975118 217.431919 
L 241.422118 219.518788 
L 241.329697 219.639473 
L 239.808618 221.605657 
L 239.168939 222.410148 
L 238.13876 223.692525 
L 237.008182 225.062805 
L 236.410782 225.779394 
L 234.847424 227.60653 
L 234.622848 227.866263 
L 232.772014 229.953131 
L 232.686667 230.047002 
L 230.855358 232.04 
" style="fill:none;stroke:#f2cbb7;"/>
    <path clip-path="url(#p2b79bd5321)" d="M 148.378688 25.44 
L 148.417121 25.450238 
L 150.577879 26.044032 
L 152.738636 26.656656 
L 154.899394 27.288163 
L 155.69286 27.526869 
L 157.060152 27.945405 
L 159.220909 28.625915 
L 161.381667 29.325814 
L 162.247046 29.613737 
L 163.542424 30.052423 
L 165.703182 30.803733 
L 167.863939 31.574965 
L 168.207354 31.700606 
L 170.024697 32.377609 
L 172.185455 33.202826 
L 173.679714 33.787475 
L 174.346212 34.053095 
L 176.50697 34.934527 
L 178.667727 35.836962 
L 178.755279 35.874343 
L 180.828485 36.776314 
L 182.989242 37.737885 
L 183.480458 37.961212 
L 185.15 38.734945 
L 187.310758 39.758205 
L 187.910353 40.048081 
L 189.471515 40.817743 
L 191.632273 41.905411 
L 192.079306 42.134949 
L 193.79303 43.032654 
L 195.953788 44.187636 
L 196.016534 44.221818 
L 198.114545 45.38832 
L 199.737913 46.308687 
L 200.275303 46.619775 
L 202.436061 47.894152 
L 203.270624 48.395556 
L 204.596818 49.209489 
L 206.632975 50.482424 
L 206.757576 50.562035 
L 208.918333 51.96708 
L 209.82815 52.569293 
L 211.079091 53.415955 
L 212.879675 54.656162 
L 213.239848 54.909961 
L 215.400606 56.45862 
L 215.790842 56.74303 
L 217.561364 58.063907 
L 218.571137 58.829899 
L 219.722121 59.724141 
L 221.232193 60.916768 
L 221.882879 61.443412 
L 223.779736 63.003636 
L 224.043636 63.226223 
L 226.204394 65.077859 
L 226.218924 65.090505 
L 228.365152 67.007195 
L 228.552796 67.177374 
L 230.525909 69.014853 
L 230.789674 69.264242 
L 232.686667 71.107312 
L 232.933875 71.351111 
L 234.847424 73.291787 
L 234.989466 73.43798 
L 236.95965 75.524848 
L 237.008182 75.577791 
L 238.84581 77.611717 
L 239.168939 77.980429 
L 240.653325 79.698586 
L 241.329697 80.506472 
L 242.385497 81.785455 
L 243.490455 83.16813 
L 244.045444 83.872323 
L 245.635927 85.959192 
L 245.651212 85.979944 
L 247.152362 88.046061 
L 247.81197 88.987075 
L 248.604393 90.132929 
L 249.972727 92.186565 
L 249.994577 92.219798 
L 251.31577 94.306667 
L 252.133485 95.6511 
L 252.579163 96.393535 
L 253.781323 98.480404 
L 254.294242 99.409915 
L 254.924683 100.567273 
L 256.011504 102.654141 
L 256.455 103.546472 
" style="fill:none;stroke:#f2cbb7;"/>
   </g>
   <g id="LineCollection_29">
    <path clip-path="url(#p2b79bd5321)" d="M 256.455 202.553728 
L 256.309121 202.823838 
L 255.138999 204.910707 
L 254.294242 206.364932 
L 253.9232 206.997576 
L 252.656245 209.084444 
L 252.133485 209.917388 
L 251.338871 211.171313 
L 249.973702 213.258182 
L 249.972727 213.259626 
L 248.551067 215.345051 
L 247.81197 216.397363 
L 247.078154 217.431919 
L 245.651212 219.386229 
L 245.553457 219.518788 
L 243.969931 221.605657 
L 243.490455 222.220454 
L 242.330823 223.692525 
L 241.329697 224.930019 
L 240.63556 225.779394 
L 239.168939 227.528101 
L 238.882409 227.866263 
L 237.068852 229.953131 
L 237.008182 230.021234 
L 235.191064 232.04 
" style="fill:none;stroke:#f4c5ad;"/>
    <path clip-path="url(#p2b79bd5321)" d="M 158.607716 25.44 
L 159.220909 25.62928 
L 161.381667 26.314835 
L 163.542424 27.019493 
L 165.057503 27.526869 
L 165.703182 27.746897 
L 167.863939 28.50226 
L 170.024697 29.27724 
L 170.940199 29.613737 
L 172.185455 30.079643 
L 174.346212 30.907825 
L 176.365586 31.700606 
L 176.50697 31.757126 
L 178.667727 32.640673 
L 180.828485 33.544887 
L 181.39563 33.787475 
L 182.989242 34.481834 
L 185.15 35.44424 
L 186.095344 35.874343 
L 187.310758 36.437844 
L 189.471515 37.460911 
L 190.506685 37.961212 
L 191.632273 38.515777 
L 193.79303 39.602135 
L 194.662658 40.048081 
L 195.953788 40.723301 
L 198.114545 41.875752 
L 198.591417 42.134949 
L 200.275303 43.068738 
L 202.315099 44.221818 
L 202.436061 44.291611 
L 204.596818 45.56114 
L 205.845885 46.308687 
L 206.757576 46.86585 
L 208.918333 48.210369 
L 209.210813 48.395556 
L 211.079091 49.604047 
L 212.413363 50.482424 
L 213.239848 51.038536 
L 215.400606 52.517702 
L 215.474733 52.569293 
L 217.561364 54.054384 
L 218.392865 54.656162 
L 219.722121 55.64044 
L 221.186855 56.74303 
L 221.882879 57.279381 
L 223.862684 58.829899 
L 224.043636 58.975054 
L 226.204394 60.735936 
L 226.422858 60.916768 
L 228.365152 62.564527 
L 228.874809 63.003636 
L 230.525909 64.462523 
L 231.225891 65.090505 
L 232.686667 66.435379 
L 233.48061 67.177374 
L 234.847424 68.489141 
L 235.643205 69.264242 
L 237.008182 70.630525 
L 237.717673 71.351111 
L 239.168939 72.867007 
L 239.70778 73.43798 
L 241.329697 75.206942 
L 241.617083 75.524848 
L 243.448417 77.611717 
L 243.490455 77.661096 
L 245.201012 79.698586 
L 245.651212 80.252014 
L 246.881605 81.785455 
L 247.81197 82.983355 
L 248.493103 83.872323 
L 249.972727 85.869542 
L 250.038261 85.959192 
L 251.512392 88.046061 
L 252.133485 88.95751 
L 252.923969 90.132929 
L 254.275965 92.219798 
L 254.294242 92.249101 
L 255.561068 94.306667 
L 256.455 95.818279 
" style="fill:none;stroke:#f4c5ad;"/>
   </g>
   <g id="LineCollection_30">
    <path clip-path="url(#p2b79bd5321)" d="M 256.455 209.295145 
L 255.286789 211.171313 
L 254.294242 212.715684 
L 253.942241 213.258182 
L 252.545451 215.345051 
L 252.133485 215.942335 
L 251.09613 217.431919 
L 249.972727 218.999175 
L 249.596631 219.518788 
L 248.04289 221.605657 
L 247.81197 221.907384 
L 246.432289 223.692525 
L 245.651212 224.676701 
L 244.767365 225.779394 
L 243.490455 227.331855 
L 243.046481 227.866263 
L 241.329697 229.881361 
L 241.267931 229.953131 
L 239.426945 232.04 
" style="fill:none;stroke:#f6bfa6;"/>
    <path clip-path="url(#p2b79bd5321)" d="M 167.701229 25.44 
L 167.863939 25.495781 
L 170.024697 26.255125 
L 172.185455 27.033794 
L 173.520982 27.526869 
L 174.346212 27.836919 
L 176.50697 28.668031 
L 178.667727 29.518994 
L 178.903011 29.613737 
L 180.828485 30.40304 
L 182.989242 31.309034 
L 183.903101 31.700606 
L 185.15 32.244685 
L 187.310758 33.207959 
L 188.583608 33.787475 
L 189.471515 34.199295 
L 191.632273 35.22224 
L 192.981941 35.874343 
L 193.79303 36.27371 
L 195.953788 37.358868 
L 197.129888 37.961212 
L 198.114545 38.475334 
L 200.275303 39.625413 
L 201.054638 40.048081 
L 202.436061 40.812194 
L 204.596818 42.030081 
L 204.779578 42.134949 
L 206.757576 43.293005 
L 208.315322 44.221818 
L 208.918333 44.588825 
L 211.079091 45.927249 
L 211.684312 46.308687 
L 213.239848 47.309849 
L 214.897749 48.395556 
L 215.400606 48.731996 
L 217.561364 50.202172 
L 217.966516 50.482424 
L 219.722121 51.723743 
L 220.898408 52.569293 
L 221.882879 53.29301 
L 223.707298 54.656162 
L 224.043636 54.913296 
L 226.204394 56.591626 
L 226.39631 56.74303 
L 228.365152 58.333214 
L 228.970643 58.829899 
L 230.525909 60.136775 
L 231.440079 60.916768 
L 232.686667 62.006954 
L 233.809318 63.003636 
L 234.847424 63.948871 
L 236.082781 65.090505 
L 237.008182 65.968183 
L 238.264636 67.177374 
L 239.168939 68.07116 
L 240.358809 69.264242 
L 241.329697 70.264767 
L 242.369008 71.351111 
L 243.490455 72.556764 
L 244.298734 73.43798 
L 245.651212 74.955824 
L 246.151293 75.524848 
L 247.81197 77.47167 
L 247.929818 77.611717 
L 249.633211 79.698586 
L 249.972727 80.127871 
L 251.266226 81.785455 
L 252.133485 82.933755 
L 252.833024 83.872323 
L 254.294242 85.900219 
L 254.336185 85.959192 
L 255.770294 88.046061 
L 256.455 89.07908 
" style="fill:none;stroke:#f6bfa6;"/>
   </g>
   <g id="LineCollection_31">
    <path clip-path="url(#p2b79bd5321)" d="M 256.455 215.355367 
L 255.034514 217.431919 
L 254.294242 218.483422 
L 253.558363 219.518788 
L 252.133485 221.468303 
L 252.032126 221.605657 
L 250.449087 223.692525 
L 249.972727 224.304069 
L 248.812342 225.779394 
L 247.81197 227.018953 
L 247.121435 227.866263 
L 245.651212 229.625566 
L 245.374753 229.953131 
L 243.569719 232.04 
" style="fill:none;stroke:#f7b89c;"/>
    <path clip-path="url(#p2b79bd5321)" d="M 175.958536 25.44 
L 176.50697 25.646889 
L 178.667727 26.480892 
L 180.828485 27.334445 
L 181.305032 27.526869 
L 182.989242 28.21898 
L 185.15 29.126752 
L 186.284618 29.613737 
L 187.310758 30.062117 
L 189.471515 31.026288 
L 190.951587 31.700606 
L 191.632273 32.016434 
L 193.79303 33.039319 
L 195.341946 33.787475 
L 195.953788 34.088554 
L 198.114545 35.172613 
L 199.486377 35.874343 
L 200.275303 36.285632 
L 202.436061 37.433481 
L 203.411184 37.961212 
L 204.596818 38.615415 
L 206.757576 39.829843 
L 207.139051 40.048081 
L 208.918333 41.086306 
L 210.683419 42.134949 
L 211.079091 42.374808 
L 213.239848 43.707432 
L 214.059675 44.221818 
L 215.400606 45.080678 
L 217.285371 46.308687 
L 217.561364 46.492331 
L 219.722121 47.953938 
L 220.364356 48.395556 
L 221.882879 49.462442 
L 223.311173 50.482424 
L 224.043636 51.017124 
L 226.136064 52.569293 
L 226.204394 52.621133 
L 228.365152 54.286032 
L 228.838119 54.656162 
L 230.525909 56.007747 
L 231.430131 56.74303 
L 232.686667 57.789178 
L 233.91796 58.829899 
L 234.847424 59.634704 
L 236.30622 60.916768 
L 237.008182 61.54914 
L 238.599255 63.003636 
L 239.168939 63.5378 
L 240.80116 65.090505 
L 241.329697 65.606553 
L 242.915798 67.177374 
L 243.490455 67.761908 
L 244.946818 69.264242 
L 245.651212 70.011099 
L 246.897668 71.351111 
L 247.81197 72.362185 
L 248.771608 73.43798 
L 249.972727 74.824179 
L 250.571725 75.524848 
L 252.133485 77.407187 
L 252.300942 77.611717 
L 253.958107 79.698586 
L 254.294242 80.135486 
L 255.547157 81.785455 
L 256.455 83.020877 
" style="fill:none;stroke:#f7b89c;"/>
   </g>
   <g id="LineCollection_32">
    <path clip-path="url(#p2b79bd5321)" d="M 256.455 220.896062 
L 255.940728 221.605657 
L 254.386639 223.692525 
L 254.294242 223.813324 
L 252.776104 225.779394 
L 252.133485 226.590539 
L 251.113089 227.866263 
L 249.972727 229.256749 
L 249.396066 229.953131 
L 247.81197 231.819983 
L 247.623447 232.04 
" style="fill:none;stroke:#f7b093;"/>
    <path clip-path="url(#p2b79bd5321)" d="M 183.581725 25.44 
L 185.15 26.086011 
L 187.310758 26.995557 
L 188.54663 27.526869 
L 189.471515 27.931552 
L 191.632273 28.896644 
L 193.205199 29.613737 
L 193.79303 29.886583 
L 195.953788 30.909464 
L 197.592158 31.700606 
L 198.114545 31.957517 
L 200.275303 33.040569 
L 201.737177 33.787475 
L 202.436061 34.151277 
L 204.596818 35.297031 
L 205.665753 35.874343 
L 206.757576 36.475349 
L 208.918333 37.686499 
L 209.399925 37.961212 
L 211.079091 38.937841 
L 212.95441 40.048081 
L 213.239848 40.220449 
L 215.400606 41.547547 
L 216.340869 42.134949 
L 217.561364 42.913005 
L 219.580075 44.221818 
L 219.722121 44.315834 
L 221.882879 45.769263 
L 222.671873 46.308687 
L 224.043636 47.266553 
L 225.63468 48.395556 
L 226.204394 48.808638 
L 228.365152 50.400242 
L 228.475029 50.482424 
L 230.525909 52.050602 
L 231.193911 52.569293 
L 232.686667 53.754849 
L 233.804473 54.656162 
L 234.847424 55.516762 
L 236.311525 56.74303 
L 237.008182 57.340477 
L 238.719597 58.829899 
L 239.168939 59.230539 
L 241.032959 60.916768 
L 241.329697 61.191947 
L 243.255637 63.003636 
L 243.490455 63.230216 
L 245.391433 65.090505 
L 245.651212 65.351447 
L 247.443942 67.177374 
L 247.81197 67.562401 
L 249.416558 69.264242 
L 249.972727 69.870594 
L 251.312498 71.351111 
L 252.133485 72.284409 
L 253.134806 73.43798 
L 254.294242 74.813217 
L 254.886368 75.524848 
L 256.455 77.467534 
" style="fill:none;stroke:#f7b093;"/>
   </g>
   <g id="LineCollection_33">
    <path clip-path="url(#p2b79bd5321)" d="M 256.455 226.047742 
L 255.026765 227.866263 
L 254.294242 228.775987 
L 253.337385 229.953131 
L 252.133485 231.398594 
L 251.594145 232.04 
" style="fill:none;stroke:#f7a889;"/>
    <path clip-path="url(#p2b79bd5321)" d="M 190.695156 25.44 
L 191.632273 25.850573 
L 193.79303 26.816607 
L 195.34998 27.526869 
L 195.953788 27.807229 
L 198.114545 28.830159 
L 199.737694 29.613737 
L 200.275303 29.877985 
L 202.436061 30.960117 
L 203.887037 31.700606 
L 204.596818 32.069545 
L 206.757576 33.213329 
L 207.822768 33.787475 
L 208.918333 34.389149 
L 211.079091 35.597189 
L 211.566334 35.874343 
L 213.239848 36.844627 
L 215.132296 37.961212 
L 215.400606 38.122633 
L 217.561364 39.44446 
L 218.531652 40.048081 
L 219.722121 40.803547 
L 221.785507 42.134949 
L 221.882879 42.199066 
L 224.043636 43.644685 
L 224.892504 44.221818 
L 226.204394 45.132433 
L 227.872271 46.308687 
L 228.365152 46.663721 
L 230.525909 48.244516 
L 230.729259 48.395556 
L 232.686667 49.881256 
L 233.466766 50.482424 
L 234.847424 51.570207 
L 236.096674 52.569293 
L 237.008182 53.314954 
L 238.623705 54.656162 
L 239.168939 55.119418 
L 241.05231 56.74303 
L 241.329697 56.987895 
L 243.386687 58.829899 
L 243.490455 58.925104 
L 245.630798 60.916768 
L 245.651212 60.936242 
L 247.788387 63.003636 
L 247.81197 63.027039 
L 249.862992 65.090505 
L 249.972727 65.203835 
L 251.857961 67.177374 
L 252.133485 67.473663 
L 253.776467 69.264242 
L 254.294242 69.844341 
L 255.621514 71.351111 
L 256.455 72.324591 
" style="fill:none;stroke:#f7a889;"/>
   </g>
   <g id="LineCollection_34">
    <path clip-path="url(#p2b79bd5321)" d="M 256.455 230.868614 
L 255.487947 232.04 
" style="fill:none;stroke:#f5a081;"/>
    <path clip-path="url(#p2b79bd5321)" d="M 197.391117 25.44 
L 198.114545 25.776018 
L 200.275303 26.799043 
L 201.783359 27.526869 
L 202.436061 27.847512 
L 204.596818 28.928804 
L 205.940427 29.613737 
L 206.757576 30.037889 
L 208.918333 31.179819 
L 209.886402 31.700606 
L 211.079091 32.354155 
L 213.239848 33.559242 
L 213.642185 33.787475 
L 215.400606 34.803881 
L 217.220863 35.874343 
L 217.561364 36.078456 
L 219.722121 37.395252 
L 220.635582 37.961212 
L 221.882879 38.749254 
L 223.905125 40.048081 
L 224.043636 40.138833 
L 226.204394 41.576986 
L 227.029512 42.134949 
L 228.365152 43.05671 
L 230.027123 44.221818 
L 230.525909 44.578827 
L 232.686667 46.149287 
L 232.902723 46.308687 
L 234.847424 47.774225 
L 235.65962 48.395556 
L 237.008182 49.449842 
L 238.309598 50.482424 
L 239.168939 51.179547 
L 240.857297 52.569293 
L 241.329697 52.967065 
L 243.307092 54.656162 
L 243.490455 54.816469 
L 245.651212 56.732464 
L 245.662964 56.74303 
L 247.81197 58.721749 
L 247.927819 58.829899 
L 249.972727 60.786021 
L 250.107562 60.916768 
L 252.133485 62.930971 
L 252.205599 63.003636 
L 254.224328 65.090505 
L 254.294242 65.164699 
L 256.165916 67.177374 
L 256.455 67.496734 
" style="fill:none;stroke:#f5a081;"/>
   </g>
   <g id="LineCollection_35">
    <path clip-path="url(#p2b79bd5321)" d="M 203.733667 25.44 
L 204.596818 25.863803 
L 206.757576 26.944328 
L 207.901557 27.526869 
L 208.918333 28.053921 
L 211.079091 29.194104 
L 211.860592 29.613737 
L 213.239848 30.36788 
L 215.400606 31.57016 
L 215.631171 31.700606 
L 217.561364 32.813003 
L 219.223691 33.787475 
L 219.722121 34.08521 
L 221.882879 35.397201 
L 222.656036 35.874343 
L 224.043636 36.747283 
L 225.942209 37.961212 
L 226.204394 38.132165 
L 228.365152 39.563174 
L 229.086 40.048081 
L 230.525909 41.03625 
L 232.102259 42.134949 
L 232.686667 42.55067 
L 234.847424 44.11124 
L 234.99829 44.221818 
L 237.008182 45.726021 
L 237.775269 46.308687 
L 239.168939 47.390077 
L 240.445977 48.395556 
L 241.329697 49.10666 
L 243.01497 50.482424 
L 243.490455 50.879313 
L 245.486553 52.569293 
L 245.651212 52.711908 
L 247.81197 54.60971 
L 247.864137 54.656162 
L 249.972727 56.57802 
L 250.151318 56.74303 
L 252.133485 58.618699 
L 252.353693 58.829899 
L 254.294242 60.737121 
L 254.474618 60.916768 
L 256.455 62.939204 
" style="fill:none;stroke:#f39778;"/>
   </g>
   <g id="LineCollection_36">
    <path clip-path="url(#p2b79bd5321)" d="M 209.774394 25.44 
L 211.079091 26.115405 
L 213.239848 27.253942 
L 213.749058 27.526869 
L 215.400606 28.427994 
L 217.53641 29.613737 
L 217.561364 29.627845 
L 219.722121 30.869564 
L 221.144175 31.700606 
L 221.882879 32.140368 
L 224.043636 33.447764 
L 224.596214 33.787475 
L 226.204394 34.794986 
L 227.899875 35.874343 
L 228.365152 36.176297 
L 230.525909 37.600466 
L 231.06492 37.961212 
L 232.686667 39.06814 
L 234.100556 40.048081 
L 234.847424 40.576199 
L 237.008182 42.127296 
L 237.01869 42.134949 
L 239.168939 43.73341 
L 239.816384 44.221818 
L 241.329697 45.387513 
L 242.508419 46.308687 
L 243.490455 47.092708 
L 245.099276 48.395556 
L 245.651212 48.852378 
L 247.593187 50.482424 
L 247.81197 50.670206 
L 249.972727 52.550623 
L 249.993892 52.569293 
L 252.133485 54.500287 
L 252.303884 54.656162 
L 254.294242 56.519922 
L 254.529354 56.74303 
L 256.455 58.614614 
" style="fill:none;stroke:#f18d6f;"/>
   </g>
   <g id="LineCollection_37">
    <path clip-path="url(#p2b79bd5321)" d="M 215.555314 25.44 
L 217.561364 26.532315 
L 219.356878 27.526869 
L 219.722121 27.732828 
L 221.882879 28.971288 
L 222.98553 29.613737 
L 224.043636 30.241565 
L 226.204394 31.544565 
L 226.459159 31.700606 
L 228.365152 32.889888 
L 229.781086 33.787475 
L 230.525909 34.268651 
L 232.686667 35.686263 
L 232.969079 35.874343 
L 234.847424 37.149668 
L 236.024754 37.961212 
L 237.008182 38.652577 
L 238.96385 40.048081 
L 239.168939 40.197395 
L 241.329697 41.793394 
L 241.785512 42.134949 
L 243.490455 43.438998 
L 244.499416 44.221818 
L 245.651212 45.134378 
L 247.112651 46.308687 
L 247.81197 46.882764 
L 249.629382 48.395556 
L 249.972727 48.68767 
L 252.053547 50.482424 
L 252.133485 50.552931 
L 254.294242 52.484581 
L 254.38775 52.569293 
L 256.455 54.485473 
" style="fill:none;stroke:#ee8468;"/>
   </g>
   <g id="LineCollection_38">
    <path clip-path="url(#p2b79bd5321)" d="M 221.099408 25.44 
L 221.882879 25.880697 
L 224.043636 27.116044 
L 224.750807 27.526869 
L 226.204394 28.386589 
L 228.24608 29.613737 
L 228.365152 29.686623 
L 230.525909 31.029677 
L 231.588655 31.700606 
L 232.686667 32.40682 
L 234.80052 33.787475 
L 234.847424 33.818696 
L 237.008182 35.278307 
L 237.877465 35.874343 
L 239.168939 36.777165 
L 240.837944 37.961212 
L 241.329697 38.31703 
L 243.490455 39.903183 
L 243.685086 40.048081 
L 245.651212 41.54161 
L 246.421348 42.134949 
L 247.81197 43.228598 
L 249.057426 44.221818 
L 249.972727 44.967239 
L 251.597419 46.308687 
L 252.133485 46.760893 
L 254.045207 48.395556 
L 254.294242 48.613218 
L 256.404464 50.482424 
L 256.455 50.528203 
" style="fill:none;stroke:#e97a5f;"/>
   </g>
   <g id="LineCollection_39">
    <path clip-path="url(#p2b79bd5321)" d="M 226.442903 25.44 
L 228.365152 26.573367 
L 229.956832 27.526869 
L 230.525909 27.873954 
L 232.686667 29.212189 
L 233.325263 29.613737 
L 234.847424 30.588555 
L 236.557683 31.700606 
L 237.008182 31.999045 
L 239.168939 33.451697 
L 239.661179 33.787475 
L 241.329697 34.947502 
L 242.64355 35.874343 
L 243.490455 36.483482 
L 245.515721 37.961212 
L 245.651212 38.062047 
L 247.81197 39.692631 
L 248.276491 40.048081 
L 249.972727 41.372518 
L 250.935831 42.134949 
L 252.133485 43.10281 
L 253.499485 44.221818 
L 254.294242 44.886723 
L 255.971276 46.308687 
L 256.455 46.727754 
" style="fill:none;stroke:#e46e56;"/>
   </g>
   <g id="LineCollection_40">
    <path clip-path="url(#p2b79bd5321)" d="M 231.597792 25.44 
L 232.686667 26.101788 
L 234.847424 27.435398 
L 234.993459 27.526869 
L 237.008182 28.811752 
L 238.246969 29.613737 
L 239.168939 30.221669 
L 241.329697 31.667636 
L 241.378273 31.700606 
L 243.490455 33.161292 
L 244.382991 33.787475 
L 245.651212 34.694357 
L 247.27811 35.874343 
L 247.81197 36.269151 
L 249.972727 37.889535 
L 250.067023 37.961212 
L 252.133485 39.563493 
L 252.75 40.048081 
L 254.294242 41.2867 
L 255.337672 42.134949 
L 256.455 43.062241 
" style="fill:none;stroke:#e0654f;"/>
   </g>
   <g id="LineCollection_41">
    <path clip-path="url(#p2b79bd5321)" d="M 236.590074 25.44 
L 237.008182 25.701741 
L 239.168939 27.074438 
L 239.870755 27.526869 
L 241.329697 28.484521 
L 243.025038 29.613737 
L 243.490455 29.92949 
L 245.651212 31.416391 
L 246.058488 31.700606 
L 247.81197 32.94742 
L 248.976939 33.787475 
L 249.972727 34.519387 
L 251.790859 35.874343 
L 252.133485 36.134707 
L 254.294242 37.799059 
L 254.501976 37.961212 
L 256.455 39.51633 
" style="fill:none;stroke:#d95847;"/>
   </g>
   <g id="LineCollection_42">
    <path clip-path="url(#p2b79bd5321)" d="M 241.431304 25.44 
L 243.490455 26.785685 
L 244.608328 27.526869 
L 245.651212 28.230955 
L 247.670392 29.613737 
L 247.81197 29.712496 
L 249.972727 31.240585 
L 250.61429 31.700606 
L 252.133485 32.81058 
L 253.452366 33.787475 
L 254.294242 34.423109 
L 256.190579 35.874343 
L 256.455 36.08069 
" style="fill:none;stroke:#d24b40;"/>
   </g>
   <g id="LineCollection_43">
    <path clip-path="url(#p2b79bd5321)" d="M 246.130901 25.44 
L 247.81197 26.569583 
L 249.216689 27.526869 
L 249.972727 28.051518 
L 252.133485 29.571901 
L 252.192153 29.613737 
L 254.294242 31.1407 
L 255.05467 31.700606 
L 256.455 32.751273 
" style="fill:none;stroke:#cc403a;"/>
   </g>
   <g id="LineCollection_44">
    <path clip-path="url(#p2b79bd5321)" d="M 250.704585 25.44 
L 252.133485 26.426581 
L 253.705319 27.526869 
L 254.294242 27.946674 
L 256.455 29.507851 
" style="fill:none;stroke:#c43032;"/>
   </g>
   <g id="LineCollection_45">
    <path clip-path="url(#p2b79bd5321)" d="M 255.161496 25.44 
L 256.455 26.357131 
" style="fill:none;stroke:#bb1b2c;"/>
   </g>
   <g id="LineCollection_46"/>
   <g id="line2d_11">
    <path clip-path="url(#p2b79bd5321)" d="M 42.54 128.74 
L 256.455 128.74 
" style="fill:none;stroke:#000000;stroke-linecap:square;stroke-width:0.5;"/>
   </g>
   <g id="line2d_12">
    <path clip-path="url(#p2b79bd5321)" d="M 149.4975 232.04 
L 149.4975 25.44 
" style="fill:none;stroke:#000000;stroke-linecap:square;stroke-width:0.5;"/>
   </g>
   <g id="line2d_13">
    <path clip-path="url(#p2b79bd5321)" d="M 170.889 128.74 
L 170.843199 127.388771 
L 170.705993 126.043329 
L 170.477968 124.709434 
L 170.160102 123.392799 
L 169.753756 122.099061 
L 169.260669 120.83376 
L 168.682953 119.602316 
L 168.023082 118.41 
L 167.283882 117.261919 
L 166.468518 116.162989 
L 165.580481 115.117915 
L 164.623575 114.131174 
L 163.601896 113.20699 
L 162.51982 112.34932 
L 161.381981 111.561838 
L 160.19325 110.847915 
L 158.958719 110.210609 
L 157.683673 109.652649 
L 156.373572 109.176424 
L 155.034028 108.783972 
L 153.670775 108.476976 
L 152.289651 108.256749 
L 150.896571 108.124235 
L 149.4975 108.08 
L 149.4975 108.08 
L 148.098429 108.124235 
L 146.705349 108.256749 
L 145.324225 108.476976 
L 143.960972 108.783972 
L 142.621428 109.176424 
L 141.311327 109.652649 
L 140.036281 110.210609 
L 138.80175 110.847915 
L 137.613019 111.561838 
L 136.47518 112.34932 
L 135.393104 113.20699 
L 134.371425 114.131174 
L 133.414519 115.117915 
L 132.526482 116.162989 
L 131.711118 117.261919 
L 130.971918 118.41 
L 130.312047 119.602316 
L 129.734331 120.83376 
L 129.241244 122.099061 
L 128.834898 123.392799 
L 128.517032 124.709434 
L 128.289007 126.043329 
L 128.151801 127.388771 
L 128.106 128.74 
L 128.106 128.74 
L 128.151801 130.091229 
L 128.289007 131.436671 
L 128.517032 132.770566 
L 128.834898 134.087201 
L 129.241244 135.380939 
L 129.734331 136.64624 
L 130.312047 137.877684 
L 130.971918 139.07 
L 131.711118 140.218081 
L 132.526482 141.317011 
L 133.414519 142.362085 
L 134.371425 143.348826 
L 135.393104 144.27301 
L 136.47518 145.13068 
L 137.613019 145.918162 
L 138.80175 146.632085 
L 140.036281 147.269391 
L 141.311327 147.827351 
L 142.621428 148.303576 
L 143.960972 148.696028 
L 145.324225 149.003024 
L 146.705349 149.223251 
L 148.098429 149.355765 
L 149.4975 149.4 
L 149.4975 149.4 
L 150.896571 149.355765 
L 152.289651 149.223251 
L 153.670775 149.003024 
L 155.034028 148.696028 
L 156.373572 148.303576 
L 157.683673 147.827351 
L 158.958719 147.269391 
L 160.19325 146.632085 
L 161.381981 145.918162 
L 162.51982 145.13068 
L 163.601896 144.27301 
L 164.623575 143.348826 
L 165.580481 142.362085 
L 166.468518 141.317011 
L 167.283882 140.218081 
L 168.023082 139.07 
L 168.682953 137.877684 
L 169.260669 136.64624 
L 169.753756 135.380939 
L 170.160102 134.087201 
L 170.477968 132.770566 
L 170.705993 131.436671 
L 170.843199 130.091229 
L 170.889 128.74 
" style="fill:none;stroke:#2d435d;stroke-linecap:square;stroke-width:1.5;"/>
   </g>
   <g id="patch_3">
    <path d="M 42.54 232.04 
L 42.54 25.44 
" style="fill:none;stroke:#000000;stroke-linecap:square;stroke-linejoin:miter;stroke-width:0.8;"/>
   </g>
   <g id="patch_4">
    <path d="M 256.455 232.04 
L 256.455 25.44 
" style="fill:none;stroke:#000000;stroke-linecap:square;stroke-linejoin:miter;stroke-width:0.8;"/>
   </g>
   <g id="patch_5">
    <path d="M 42.54 232.04 
L 256.455 232.04 
" style="fill:none;stroke:#000000;stroke-linecap:square;stroke-linejoin:miter;stroke-width:0.8;"/>
   </g>
   <g id="patch_6">
    <path d="M 42.54 25.44 
L 256.455 25.44 
" style="fill:none;stroke:#000000;stroke-linecap:square;stroke-linejoin:miter;stroke-width:0.8;"/>
   </g>
   <g id="text_13">
    <!-- l2 constraint w/loss function -->
    <defs>
     <path d="M 9.421875 75.984375 
L 18.40625 75.984375 
L 18.40625 0 
L 9.421875 0 
z
" id="DejaVuSans-108"/>
     <path id="DejaVuSans-32"/>
     <path d="M 48.78125 52.59375 
L 48.78125 44.1875 
Q 44.96875 46.296875 41.140625 47.34375 
Q 37.3125 48.390625 33.40625 48.390625 
Q 24.65625 48.390625 19.8125 42.84375 
Q 14.984375 37.3125 14.984375 27.296875 
Q 14.984375 17.28125 19.8125 11.734375 
Q 24.65625 6.203125 33.40625 6.203125 
Q 37.3125 6.203125 41.140625 7.25 
Q 44.96875 8.296875 48.78125 10.40625 
L 48.78125 2.09375 
Q 45.015625 0.34375 40.984375 -0.53125 
Q 36.96875 -1.421875 32.421875 -1.421875 
Q 20.0625 -1.421875 12.78125 6.34375 
Q 5.515625 14.109375 5.515625 27.296875 
Q 5.515625 40.671875 12.859375 48.328125 
Q 20.21875 56 33.015625 56 
Q 37.15625 56 41.109375 55.140625 
Q 45.0625 54.296875 48.78125 52.59375 
z
" id="DejaVuSans-99"/>
     <path d="M 30.609375 48.390625 
Q 23.390625 48.390625 19.1875 42.75 
Q 14.984375 37.109375 14.984375 27.296875 
Q 14.984375 17.484375 19.15625 11.84375 
Q 23.34375 6.203125 30.609375 6.203125 
Q 37.796875 6.203125 41.984375 11.859375 
Q 46.1875 17.53125 46.1875 27.296875 
Q 46.1875 37.015625 41.984375 42.703125 
Q 37.796875 48.390625 30.609375 48.390625 
z
M 30.609375 56 
Q 42.328125 56 49.015625 48.375 
Q 55.71875 40.765625 55.71875 27.296875 
Q 55.71875 13.875 49.015625 6.21875 
Q 42.328125 -1.421875 30.609375 -1.421875 
Q 18.84375 -1.421875 12.171875 6.21875 
Q 5.515625 13.875 5.515625 27.296875 
Q 5.515625 40.765625 12.171875 48.375 
Q 18.84375 56 30.609375 56 
z
" id="DejaVuSans-111"/>
     <path d="M 54.890625 33.015625 
L 54.890625 0 
L 45.90625 0 
L 45.90625 32.71875 
Q 45.90625 40.484375 42.875 44.328125 
Q 39.84375 48.1875 33.796875 48.1875 
Q 26.515625 48.1875 22.3125 43.546875 
Q 18.109375 38.921875 18.109375 30.90625 
L 18.109375 0 
L 9.078125 0 
L 9.078125 54.6875 
L 18.109375 54.6875 
L 18.109375 46.1875 
Q 21.34375 51.125 25.703125 53.5625 
Q 30.078125 56 35.796875 56 
Q 45.21875 56 50.046875 50.171875 
Q 54.890625 44.34375 54.890625 33.015625 
z
" id="DejaVuSans-110"/>
     <path d="M 44.28125 53.078125 
L 44.28125 44.578125 
Q 40.484375 46.53125 36.375 47.5 
Q 32.28125 48.484375 27.875 48.484375 
Q 21.1875 48.484375 17.84375 46.4375 
Q 14.5 44.390625 14.5 40.28125 
Q 14.5 37.15625 16.890625 35.375 
Q 19.28125 33.59375 26.515625 31.984375 
L 29.59375 31.296875 
Q 39.15625 29.25 43.1875 25.515625 
Q 47.21875 21.78125 47.21875 15.09375 
Q 47.21875 7.46875 41.1875 3.015625 
Q 35.15625 -1.421875 24.609375 -1.421875 
Q 20.21875 -1.421875 15.453125 -0.5625 
Q 10.6875 0.296875 5.421875 2 
L 5.421875 11.28125 
Q 10.40625 8.6875 15.234375 7.390625 
Q 20.0625 6.109375 24.8125 6.109375 
Q 31.15625 6.109375 34.5625 8.28125 
Q 37.984375 10.453125 37.984375 14.40625 
Q 37.984375 18.0625 35.515625 20.015625 
Q 33.0625 21.96875 24.703125 23.78125 
L 21.578125 24.515625 
Q 13.234375 26.265625 9.515625 29.90625 
Q 5.8125 33.546875 5.8125 39.890625 
Q 5.8125 47.609375 11.28125 51.796875 
Q 16.75 56 26.8125 56 
Q 31.78125 56 36.171875 55.265625 
Q 40.578125 54.546875 44.28125 53.078125 
z
" id="DejaVuSans-115"/>
     <path d="M 18.3125 70.21875 
L 18.3125 54.6875 
L 36.8125 54.6875 
L 36.8125 47.703125 
L 18.3125 47.703125 
L 18.3125 18.015625 
Q 18.3125 11.328125 20.140625 9.421875 
Q 21.96875 7.515625 27.59375 7.515625 
L 36.8125 7.515625 
L 36.8125 0 
L 27.59375 0 
Q 17.1875 0 13.234375 3.875 
Q 9.28125 7.765625 9.28125 18.015625 
L 9.28125 47.703125 
L 2.6875 47.703125 
L 2.6875 54.6875 
L 9.28125 54.6875 
L 9.28125 70.21875 
z
" id="DejaVuSans-116"/>
     <path d="M 41.109375 46.296875 
Q 39.59375 47.171875 37.8125 47.578125 
Q 36.03125 48 33.890625 48 
Q 26.265625 48 22.1875 43.046875 
Q 18.109375 38.09375 18.109375 28.8125 
L 18.109375 0 
L 9.078125 0 
L 9.078125 54.6875 
L 18.109375 54.6875 
L 18.109375 46.1875 
Q 20.953125 51.171875 25.484375 53.578125 
Q 30.03125 56 36.53125 56 
Q 37.453125 56 38.578125 55.875 
Q 39.703125 55.765625 41.0625 55.515625 
z
" id="DejaVuSans-114"/>
     <path d="M 34.28125 27.484375 
Q 23.390625 27.484375 19.1875 25 
Q 14.984375 22.515625 14.984375 16.5 
Q 14.984375 11.71875 18.140625 8.90625 
Q 21.296875 6.109375 26.703125 6.109375 
Q 34.1875 6.109375 38.703125 11.40625 
Q 43.21875 16.703125 43.21875 25.484375 
L 43.21875 27.484375 
z
M 52.203125 31.203125 
L 52.203125 0 
L 43.21875 0 
L 43.21875 8.296875 
Q 40.140625 3.328125 35.546875 0.953125 
Q 30.953125 -1.421875 24.3125 -1.421875 
Q 15.921875 -1.421875 10.953125 3.296875 
Q 6 8.015625 6 15.921875 
Q 6 25.140625 12.171875 29.828125 
Q 18.359375 34.515625 30.609375 34.515625 
L 43.21875 34.515625 
L 43.21875 35.40625 
Q 43.21875 41.609375 39.140625 45 
Q 35.0625 48.390625 27.6875 48.390625 
Q 23 48.390625 18.546875 47.265625 
Q 14.109375 46.140625 10.015625 43.890625 
L 10.015625 52.203125 
Q 14.9375 54.109375 19.578125 55.046875 
Q 24.21875 56 28.609375 56 
Q 40.484375 56 46.34375 49.84375 
Q 52.203125 43.703125 52.203125 31.203125 
z
" id="DejaVuSans-97"/>
     <path d="M 9.421875 54.6875 
L 18.40625 54.6875 
L 18.40625 0 
L 9.421875 0 
z
M 9.421875 75.984375 
L 18.40625 75.984375 
L 18.40625 64.59375 
L 9.421875 64.59375 
z
" id="DejaVuSans-105"/>
     <path d="M 4.203125 54.6875 
L 13.1875 54.6875 
L 24.421875 12.015625 
L 35.59375 54.6875 
L 46.1875 54.6875 
L 57.421875 12.015625 
L 68.609375 54.6875 
L 77.59375 54.6875 
L 63.28125 0 
L 52.6875 0 
L 40.921875 44.828125 
L 29.109375 0 
L 18.5 0 
z
" id="DejaVuSans-119"/>
     <path d="M 25.390625 72.90625 
L 33.6875 72.90625 
L 8.296875 -9.28125 
L 0 -9.28125 
z
" id="DejaVuSans-47"/>
     <path d="M 37.109375 75.984375 
L 37.109375 68.5 
L 28.515625 68.5 
Q 23.6875 68.5 21.796875 66.546875 
Q 19.921875 64.59375 19.921875 59.515625 
L 19.921875 54.6875 
L 34.71875 54.6875 
L 34.71875 47.703125 
L 19.921875 47.703125 
L 19.921875 0 
L 10.890625 0 
L 10.890625 47.703125 
L 2.296875 47.703125 
L 2.296875 54.6875 
L 10.890625 54.6875 
L 10.890625 58.5 
Q 10.890625 67.625 15.140625 71.796875 
Q 19.390625 75.984375 28.609375 75.984375 
z
" id="DejaVuSans-102"/>
     <path d="M 8.5 21.578125 
L 8.5 54.6875 
L 17.484375 54.6875 
L 17.484375 21.921875 
Q 17.484375 14.15625 20.5 10.265625 
Q 23.53125 6.390625 29.59375 6.390625 
Q 36.859375 6.390625 41.078125 11.03125 
Q 45.3125 15.671875 45.3125 23.6875 
L 45.3125 54.6875 
L 54.296875 54.6875 
L 54.296875 0 
L 45.3125 0 
L 45.3125 8.40625 
Q 42.046875 3.421875 37.71875 1 
Q 33.40625 -1.421875 27.6875 -1.421875 
Q 18.265625 -1.421875 13.375 4.4375 
Q 8.5 10.296875 8.5 21.578125 
z
M 31.109375 56 
z
" id="DejaVuSans-117"/>
    </defs>
    <g transform="translate(72.087578 19.44)scale(0.11 -0.11)">
     <use xlink:href="#DejaVuSans-108"/>
     <use x="27.783203" xlink:href="#DejaVuSans-50"/>
     <use x="91.40625" xlink:href="#DejaVuSans-32"/>
     <use x="123.193359" xlink:href="#DejaVuSans-99"/>
     <use x="178.173828" xlink:href="#DejaVuSans-111"/>
     <use x="239.355469" xlink:href="#DejaVuSans-110"/>
     <use x="302.734375" xlink:href="#DejaVuSans-115"/>
     <use x="354.833984" xlink:href="#DejaVuSans-116"/>
     <use x="394.042969" xlink:href="#DejaVuSans-114"/>
     <use x="435.15625" xlink:href="#DejaVuSans-97"/>
     <use x="496.435547" xlink:href="#DejaVuSans-105"/>
     <use x="524.21875" xlink:href="#DejaVuSans-110"/>
     <use x="587.597656" xlink:href="#DejaVuSans-116"/>
     <use x="626.806641" xlink:href="#DejaVuSans-32"/>
     <use x="658.59375" xlink:href="#DejaVuSans-119"/>
     <use x="740.380859" xlink:href="#DejaVuSans-47"/>
     <use x="774.072266" xlink:href="#DejaVuSans-108"/>
     <use x="801.855469" xlink:href="#DejaVuSans-111"/>
     <use x="863.037109" xlink:href="#DejaVuSans-115"/>
     <use x="915.136719" xlink:href="#DejaVuSans-115"/>
     <use x="967.236328" xlink:href="#DejaVuSans-32"/>
     <use x="999.023438" xlink:href="#DejaVuSans-102"/>
     <use x="1034.228516" xlink:href="#DejaVuSans-117"/>
     <use x="1097.607422" xlink:href="#DejaVuSans-110"/>
     <use x="1160.986328" xlink:href="#DejaVuSans-99"/>
     <use x="1215.966797" xlink:href="#DejaVuSans-116"/>
     <use x="1255.175781" xlink:href="#DejaVuSans-105"/>
     <use x="1282.958984" xlink:href="#DejaVuSans-111"/>
     <use x="1344.140625" xlink:href="#DejaVuSans-110"/>
    </g>
   </g>
  </g>
 </g>
 <defs>
  <clipPath id="p2b79bd5321">
   <rect height="206.6" width="213.915" x="42.54" y="25.44"/>
  </clipPath>
 </defs>
</svg>
