<?xml version="1.0" encoding="utf-8" standalone="no"?>
<!DOCTYPE svg PUBLIC "-//W3C//DTD SVG 1.1//EN"
  "http://www.w3.org/Graphics/SVG/1.1/DTD/svg11.dtd">
<!-- Created with matplotlib (https://matplotlib.org/) -->
<svg height="273.6pt" version="1.1" viewBox="0 0 273.6 273.6" width="273.6pt" xmlns="http://www.w3.org/2000/svg" xmlns:xlink="http://www.w3.org/1999/xlink">
 <defs>
  <style type="text/css">
*{stroke-linecap:butt;stroke-linejoin:round;}
  </style>
 </defs>
 <g id="figure_1">
  <g id="patch_1">
   <path d="M 0 273.6 
L 273.6 273.6 
L 273.6 0 
L 0 0 
z
" style="fill:#ffffff;"/>
  </g>
  <g id="axes_1">
   <g id="patch_2">
    <path d="M 42.54 232.04 
L 256.455 232.04 
L 256.455 25.44 
L 42.54 25.44 
z
" style="fill:#ffffff;"/>
   </g>
   <g id="PathCollection_1">
    <defs>
     <path d="M 0 4.743416 
C 1.257969 4.743416 2.464584 4.24362 3.354102 3.354102 
C 4.24362 2.464584 4.743416 1.257969 4.743416 0 
C 4.743416 -1.257969 4.24362 -2.464584 3.354102 -3.354102 
C 2.464584 -4.24362 1.257969 -4.743416 0 -4.743416 
C -1.257969 -4.743416 -2.464584 -4.24362 -3.354102 -3.354102 
C -4.24362 -2.464584 -4.743416 -1.257969 -4.743416 0 
C -4.743416 1.257969 -4.24362 2.464584 -3.354102 3.354102 
C -2.464584 4.24362 -1.257969 4.743416 0 4.743416 
z
" id="md96cd2f8da" style="stroke:#000000;"/>
    </defs>
    <g clip-path="url(#p5176ece437)">
     <use style="stroke:#000000;" x="159.730719" xlink:href="#md96cd2f8da" y="86.918494"/>
    </g>
   </g>
   <g id="PathCollection_2">
    <defs>
     <path d="M 0 4.743416 
C 1.257969 4.743416 2.464584 4.24362 3.354102 3.354102 
C 4.24362 2.464584 4.743416 1.257969 4.743416 0 
C 4.743416 -1.257969 4.24362 -2.464584 3.354102 -3.354102 
C 2.464584 -4.24362 1.257969 -4.743416 0 -4.743416 
C -1.257969 -4.743416 -2.464584 -4.24362 -3.354102 -3.354102 
C -4.24362 -2.464584 -4.743416 -1.257969 -4.743416 0 
C -4.743416 1.257969 -4.24362 2.464584 -3.354102 3.354102 
C -2.464584 4.24362 -1.257969 4.743416 0 4.743416 
z
" id="mfc26ed3e35" style="stroke:#e32ca6;"/>
    </defs>
    <g clip-path="url(#p5176ece437)">
     <use style="fill:#e32ca6;stroke:#e32ca6;" x="153.670775" xlink:href="#mfc26ed3e35" y="108.476976"/>
    </g>
   </g>
   <g id="matplotlib.axis_1">
    <g id="xtick_1">
     <g id="line2d_1">
      <defs>
       <path d="M 0 0 
L 0 3.5 
" id="mc67c4cad0f" style="stroke:#000000;stroke-width:0.8;"/>
      </defs>
      <g>
       <use style="stroke:#000000;stroke-width:0.8;" x="42.54" xlink:href="#mc67c4cad0f" y="232.04"/>
      </g>
     </g>
     <g id="text_1">
      <!-- −10 -->
      <defs>
       <path d="M 10.59375 35.5 
L 73.1875 35.5 
L 73.1875 27.203125 
L 10.59375 27.203125 
z
" id="DejaVuSans-8722"/>
       <path d="M 12.40625 8.296875 
L 28.515625 8.296875 
L 28.515625 63.921875 
L 10.984375 60.40625 
L 10.984375 69.390625 
L 28.421875 72.90625 
L 38.28125 72.90625 
L 38.28125 8.296875 
L 54.390625 8.296875 
L 54.390625 0 
L 12.40625 0 
z
" id="DejaVuSans-49"/>
       <path d="M 31.78125 66.40625 
Q 24.171875 66.40625 20.328125 58.90625 
Q 16.5 51.421875 16.5 36.375 
Q 16.5 21.390625 20.328125 13.890625 
Q 24.171875 6.390625 31.78125 6.390625 
Q 39.453125 6.390625 43.28125 13.890625 
Q 47.125 21.390625 47.125 36.375 
Q 47.125 51.421875 43.28125 58.90625 
Q 39.453125 66.40625 31.78125 66.40625 
z
M 31.78125 74.21875 
Q 44.046875 74.21875 50.515625 64.515625 
Q 56.984375 54.828125 56.984375 36.375 
Q 56.984375 17.96875 50.515625 8.265625 
Q 44.046875 -1.421875 31.78125 -1.421875 
Q 19.53125 -1.421875 13.0625 8.265625 
Q 6.59375 17.96875 6.59375 36.375 
Q 6.59375 54.828125 13.0625 64.515625 
Q 19.53125 74.21875 31.78125 74.21875 
z
" id="DejaVuSans-48"/>
      </defs>
      <g transform="translate(31.987656 246.638437)scale(0.1 -0.1)">
       <use xlink:href="#DejaVuSans-8722"/>
       <use x="83.789062" xlink:href="#DejaVuSans-49"/>
       <use x="147.412109" xlink:href="#DejaVuSans-48"/>
      </g>
     </g>
    </g>
    <g id="xtick_2">
     <g id="line2d_2">
      <g>
       <use style="stroke:#000000;stroke-width:0.8;" x="96.01875" xlink:href="#mc67c4cad0f" y="232.04"/>
      </g>
     </g>
     <g id="text_2">
      <!-- −5 -->
      <defs>
       <path d="M 10.796875 72.90625 
L 49.515625 72.90625 
L 49.515625 64.59375 
L 19.828125 64.59375 
L 19.828125 46.734375 
Q 21.96875 47.46875 24.109375 47.828125 
Q 26.265625 48.1875 28.421875 48.1875 
Q 40.625 48.1875 47.75 41.5 
Q 54.890625 34.8125 54.890625 23.390625 
Q 54.890625 11.625 47.5625 5.09375 
Q 40.234375 -1.421875 26.90625 -1.421875 
Q 22.3125 -1.421875 17.546875 -0.640625 
Q 12.796875 0.140625 7.71875 1.703125 
L 7.71875 11.625 
Q 12.109375 9.234375 16.796875 8.0625 
Q 21.484375 6.890625 26.703125 6.890625 
Q 35.15625 6.890625 40.078125 11.328125 
Q 45.015625 15.765625 45.015625 23.390625 
Q 45.015625 31 40.078125 35.4375 
Q 35.15625 39.890625 26.703125 39.890625 
Q 22.75 39.890625 18.8125 39.015625 
Q 14.890625 38.140625 10.796875 36.28125 
z
" id="DejaVuSans-53"/>
      </defs>
      <g transform="translate(88.647656 246.638437)scale(0.1 -0.1)">
       <use xlink:href="#DejaVuSans-8722"/>
       <use x="83.789062" xlink:href="#DejaVuSans-53"/>
      </g>
     </g>
    </g>
    <g id="xtick_3">
     <g id="line2d_3">
      <g>
       <use style="stroke:#000000;stroke-width:0.8;" x="149.4975" xlink:href="#mc67c4cad0f" y="232.04"/>
      </g>
     </g>
     <g id="text_3">
      <!-- 0 -->
      <g transform="translate(146.31625 246.638437)scale(0.1 -0.1)">
       <use xlink:href="#DejaVuSans-48"/>
      </g>
     </g>
    </g>
    <g id="xtick_4">
     <g id="line2d_4">
      <g>
       <use style="stroke:#000000;stroke-width:0.8;" x="202.97625" xlink:href="#mc67c4cad0f" y="232.04"/>
      </g>
     </g>
     <g id="text_4">
      <!-- 5 -->
      <g transform="translate(199.795 246.638437)scale(0.1 -0.1)">
       <use xlink:href="#DejaVuSans-53"/>
      </g>
     </g>
    </g>
    <g id="xtick_5">
     <g id="line2d_5">
      <g>
       <use style="stroke:#000000;stroke-width:0.8;" x="256.455" xlink:href="#mc67c4cad0f" y="232.04"/>
      </g>
     </g>
     <g id="text_5">
      <!-- 10 -->
      <g transform="translate(250.0925 246.638437)scale(0.1 -0.1)">
       <use xlink:href="#DejaVuSans-49"/>
       <use x="63.623047" xlink:href="#DejaVuSans-48"/>
      </g>
     </g>
    </g>
    <g id="text_6">
     <!-- $\beta_1$ -->
     <defs>
      <path d="M 13.625 3.375 
L 8.9375 -20.796875 
L -0.09375 -20.796875 
L 14.5 54.34375 
Q 18.84375 76.609375 39.65625 76.609375 
Q 60.75 76.609375 57.171875 57.8125 
Q 54.734375 44.4375 45.21875 39.546875 
Q 58.015625 35.15625 55.515625 22.125 
Q 51.125 -1.078125 27.484375 -1.03125 
Q 17.140625 -0.984375 13.625 3.375 
z
M 15.921875 15.09375 
Q 19.671875 6.59375 29.296875 6.640625 
Q 43.359375 6.640625 46.34375 21.96875 
Q 49.03125 35.75 26.171875 34.671875 
L 27.78125 42.96875 
Q 45.453125 42.671875 48.53125 58.59375 
Q 50.640625 69.34375 39.203125 69.28125 
Q 26.421875 69.28125 23.484375 54.046875 
z
" id="DejaVuSans-Oblique-946"/>
     </defs>
     <g transform="translate(142.7775 257.958125)scale(0.12 -0.12)">
      <use transform="translate(0 0.390625)" xlink:href="#DejaVuSans-Oblique-946"/>
      <use transform="translate(63.818359 -16.015625)scale(0.7)" xlink:href="#DejaVuSans-49"/>
     </g>
    </g>
   </g>
   <g id="matplotlib.axis_2">
    <g id="ytick_1">
     <g id="line2d_6">
      <defs>
       <path d="M 0 0 
L -3.5 0 
" id="m2d1b000136" style="stroke:#000000;stroke-width:0.8;"/>
      </defs>
      <g>
       <use style="stroke:#000000;stroke-width:0.8;" x="42.54" xlink:href="#m2d1b000136" y="232.04"/>
      </g>
     </g>
     <g id="text_7">
      <!-- −10 -->
      <g transform="translate(14.435312 235.839219)scale(0.1 -0.1)">
       <use xlink:href="#DejaVuSans-8722"/>
       <use x="83.789062" xlink:href="#DejaVuSans-49"/>
       <use x="147.412109" xlink:href="#DejaVuSans-48"/>
      </g>
     </g>
    </g>
    <g id="ytick_2">
     <g id="line2d_7">
      <g>
       <use style="stroke:#000000;stroke-width:0.8;" x="42.54" xlink:href="#m2d1b000136" y="180.39"/>
      </g>
     </g>
     <g id="text_8">
      <!-- −5 -->
      <g transform="translate(20.797812 184.189219)scale(0.1 -0.1)">
       <use xlink:href="#DejaVuSans-8722"/>
       <use x="83.789062" xlink:href="#DejaVuSans-53"/>
      </g>
     </g>
    </g>
    <g id="ytick_3">
     <g id="line2d_8">
      <g>
       <use style="stroke:#000000;stroke-width:0.8;" x="42.54" xlink:href="#m2d1b000136" y="128.74"/>
      </g>
     </g>
     <g id="text_9">
      <!-- 0 -->
      <g transform="translate(29.1775 132.539219)scale(0.1 -0.1)">
       <use xlink:href="#DejaVuSans-48"/>
      </g>
     </g>
    </g>
    <g id="ytick_4">
     <g id="line2d_9">
      <g>
       <use style="stroke:#000000;stroke-width:0.8;" x="42.54" xlink:href="#m2d1b000136" y="77.09"/>
      </g>
     </g>
     <g id="text_10">
      <!-- 5 -->
      <g transform="translate(29.1775 80.889219)scale(0.1 -0.1)">
       <use xlink:href="#DejaVuSans-53"/>
      </g>
     </g>
    </g>
    <g id="ytick_5">
     <g id="line2d_10">
      <g>
       <use style="stroke:#000000;stroke-width:0.8;" x="42.54" xlink:href="#m2d1b000136" y="25.44"/>
      </g>
     </g>
     <g id="text_11">
      <!-- 10 -->
      <g transform="translate(22.815 29.239219)scale(0.1 -0.1)">
       <use xlink:href="#DejaVuSans-49"/>
       <use x="63.623047" xlink:href="#DejaVuSans-48"/>
      </g>
     </g>
    </g>
    <g id="text_12">
     <!-- $\beta_2$ -->
     <defs>
      <path d="M 19.1875 8.296875 
L 53.609375 8.296875 
L 53.609375 0 
L 7.328125 0 
L 7.328125 8.296875 
Q 12.9375 14.109375 22.625 23.890625 
Q 32.328125 33.6875 34.8125 36.53125 
Q 39.546875 41.84375 41.421875 45.53125 
Q 43.3125 49.21875 43.3125 52.78125 
Q 43.3125 58.59375 39.234375 62.25 
Q 35.15625 65.921875 28.609375 65.921875 
Q 23.96875 65.921875 18.8125 64.3125 
Q 13.671875 62.703125 7.8125 59.421875 
L 7.8125 69.390625 
Q 13.765625 71.78125 18.9375 73 
Q 24.125 74.21875 28.421875 74.21875 
Q 39.75 74.21875 46.484375 68.546875 
Q 53.21875 62.890625 53.21875 53.421875 
Q 53.21875 48.921875 51.53125 44.890625 
Q 49.859375 40.875 45.40625 35.40625 
Q 44.1875 33.984375 37.640625 27.21875 
Q 31.109375 20.453125 19.1875 8.296875 
z
" id="DejaVuSans-50"/>
     </defs>
     <g transform="translate(21.915312 135.46)rotate(-90)scale(0.12 -0.12)">
      <use transform="translate(0 0.390625)" xlink:href="#DejaVuSans-Oblique-946"/>
      <use transform="translate(63.818359 -16.015625)scale(0.7)" xlink:href="#DejaVuSans-50"/>
     </g>
    </g>
   </g>
   <g id="LineCollection_1"/>
   <g id="LineCollection_2">
    <path clip-path="url(#p5176ece437)" d="M 157.060152 113.363925 
L 155.113727 113.088485 
L 154.899394 113.055827 
L 152.738636 112.619866 
L 150.577879 112.080432 
L 148.417121 111.439155 
L 147.144899 111.001616 
L 146.256364 110.671071 
L 144.095606 109.758018 
L 142.307069 108.914747 
L 141.934848 108.723735 
L 139.774091 107.497753 
L 138.693502 106.827879 
L 137.613333 106.093759 
L 135.776938 104.74101 
L 135.452576 104.476603 
L 133.377435 102.654141 
L 133.291818 102.569978 
L 131.39105 100.567273 
L 131.131061 100.256224 
L 129.739955 98.480404 
L 128.970303 97.34392 
L 128.364712 96.393535 
L 127.246284 94.306667 
L 126.809545 93.29905 
L 126.368023 92.219798 
L 125.719139 90.132929 
L 125.276416 88.046061 
L 125.043872 85.959192 
L 125.02563 83.872323 
L 125.225921 81.785455 
L 125.64909 79.698586 
L 126.299597 77.611717 
L 126.809545 76.402321 
L 127.208289 75.524848 
L 128.407015 73.43798 
L 128.970303 72.628477 
L 129.934633 71.351111 
L 131.131061 70.004056 
L 131.849129 69.264242 
L 133.291818 67.97176 
L 134.269232 67.177374 
L 135.452576 66.326602 
L 137.367793 65.090505 
L 137.613333 64.948427 
L 139.774091 63.835359 
L 141.622298 63.003636 
L 141.934848 62.876096 
L 144.095606 62.115929 
L 146.256364 61.479514 
L 148.417121 60.964775 
L 148.678385 60.916768 
L 150.577879 60.597043 
L 152.738636 60.341226 
L 154.899394 60.191876 
L 157.060152 60.14738 
L 159.220909 60.206158 
L 161.381667 60.366662 
L 163.542424 60.627374 
L 165.280451 60.916768 
L 165.703182 60.992577 
L 167.863939 61.486663 
L 170.024697 62.083996 
L 172.185455 62.782945 
L 172.780033 63.003636 
L 174.346212 63.63264 
L 176.50697 64.608048 
L 177.469332 65.090505 
L 178.667727 65.744639 
L 180.828485 67.038455 
L 181.041272 67.177374 
L 182.989242 68.572211 
L 183.884128 69.264242 
L 185.15 70.348075 
L 186.240727 71.351111 
L 187.310758 72.453227 
L 188.205169 73.43798 
L 189.471515 75.022419 
L 189.848744 75.524848 
L 191.198876 77.611717 
L 191.632273 78.410472 
L 192.290998 79.698586 
L 193.151179 81.785455 
L 193.79303 83.840817 
L 193.802331 83.872323 
L 194.214571 85.959192 
L 194.42299 88.046061 
L 194.423719 90.132929 
L 194.21279 92.219798 
L 193.79303 94.273142 
L 193.78567 94.306667 
L 193.095425 96.393535 
L 192.165137 98.480404 
L 191.632273 99.430112 
L 190.942526 100.567273 
L 189.471515 102.57219 
L 189.406085 102.654141 
L 187.452332 104.74101 
L 187.310758 104.872652 
L 185.15 106.704151 
L 184.988491 106.827879 
L 182.989242 108.184821 
L 181.784853 108.914747 
L 180.828485 109.435035 
L 178.667727 110.472891 
L 177.399763 111.001616 
L 176.50697 111.339529 
L 174.346212 112.036137 
L 172.185455 112.610882 
L 170.024697 113.065791 
L 169.879959 113.088485 
L 167.863939 113.378276 
L 165.703182 113.582341 
L 163.542424 113.681377 
L 161.381667 113.676961 
L 159.220909 113.570639 
L 157.060152 113.363925 
" style="fill:none;stroke:#4055c8;"/>
   </g>
   <g id="LineCollection_3">
    <path clip-path="url(#p5176ece437)" d="M 152.738636 123.848924 
L 148.417121 122.942635 
L 144.095606 121.727132 
L 141.934848 120.986982 
L 137.613333 119.243778 
L 133.291818 117.077922 
L 130.117566 115.175354 
L 126.809545 112.869521 
L 124.482968 111.001616 
L 122.197536 108.914747 
L 120.182647 106.827879 
L 118.166515 104.418009 
L 116.005758 101.349156 
L 115.51021 100.567273 
L 113.845 97.473098 
L 113.338089 96.393535 
L 112.504651 94.306667 
L 111.684242 91.701802 
L 111.296434 90.132929 
L 110.925186 88.046061 
L 110.699916 85.959192 
L 110.622598 83.872323 
L 110.695246 81.785455 
L 110.919907 79.698586 
L 111.684242 76.105754 
L 111.84071 75.524848 
L 112.567016 73.43798 
L 113.845 70.598706 
L 114.562159 69.264242 
L 116.005758 66.978334 
L 118.166515 64.211805 
L 120.327273 61.922058 
L 122.48803 59.980424 
L 124.648788 58.300711 
L 126.946311 56.74303 
L 131.131061 54.4288 
L 135.452576 52.567468 
L 139.774091 51.174841 
L 144.095606 50.147378 
L 148.417121 49.476555 
L 152.738636 49.115521 
L 157.060152 49.057519 
L 161.381667 49.295986 
L 165.703182 49.824545 
L 170.024697 50.645955 
L 174.346212 51.798894 
L 178.667727 53.278936 
L 182.989242 55.130158 
L 187.310758 57.418061 
L 189.616809 58.829899 
L 192.578338 60.916768 
L 195.164333 63.003636 
L 197.429991 65.090505 
L 199.420198 67.177374 
L 201.171826 69.264242 
L 202.715449 71.351111 
L 204.596818 74.399017 
L 205.209052 75.524848 
L 206.757576 79.009329 
L 207.023473 79.698586 
L 207.682913 81.785455 
L 208.197198 83.872323 
L 208.564338 85.959192 
L 208.782308 88.046061 
L 208.849045 90.132929 
L 208.762446 92.219798 
L 208.520372 94.306667 
L 208.120641 96.393535 
L 207.561032 98.480404 
L 206.757576 100.760504 
L 205.913829 102.654141 
L 204.596818 105.087616 
L 202.436061 108.232076 
L 201.902625 108.914747 
L 200.060595 111.001616 
L 197.887863 113.088485 
L 195.310977 115.175354 
L 192.232997 117.262222 
L 189.471515 118.82549 
L 187.310758 119.884243 
L 182.989242 121.633397 
L 178.667727 122.937473 
L 174.346212 123.878949 
L 170.024697 124.473325 
L 165.703182 124.760955 
L 161.381667 124.748489 
L 157.060152 124.442387 
L 152.738636 123.848924 
L 152.738636 123.848924 
" style="fill:none;stroke:#485fd1;"/>
   </g>
   <g id="LineCollection_4">
    <path clip-path="url(#p5176ece437)" d="M 150.577879 132.05006 
L 146.256364 131.134881 
L 141.31322 129.783434 
L 137.613333 128.527114 
L 133.291818 126.788327 
L 128.970303 124.719332 
L 126.744791 123.522828 
L 122.48803 120.889244 
L 120.270159 119.349091 
L 117.580046 117.262222 
L 115.163889 115.175354 
L 112.989618 113.088485 
L 111.029978 111.001616 
L 109.261663 108.914747 
L 107.362727 106.377526 
L 104.988029 102.654141 
L 103.041212 98.820065 
L 102.043934 96.393535 
L 100.880455 92.775402 
L 100.725454 92.219798 
L 100.262026 90.132929 
L 99.917101 88.046061 
L 99.691987 85.959192 
L 99.588011 83.872323 
L 99.606522 81.785455 
L 99.748887 79.698586 
L 100.016495 77.611717 
L 100.410754 75.524848 
L 100.935113 73.43798 
L 101.612091 71.351111 
L 103.041212 67.911081 
L 103.390004 67.177374 
L 105.20197 63.986456 
L 105.832847 63.003636 
L 107.362727 60.869303 
L 109.523485 58.303723 
L 111.684242 56.086585 
L 113.845 54.141529 
L 116.005758 52.412987 
L 118.769819 50.482424 
L 122.48803 48.262982 
L 126.809545 46.146427 
L 131.765561 44.221818 
L 135.452576 43.091842 
L 139.774091 42.038097 
L 144.095606 41.289389 
L 148.417121 40.795954 
L 152.738636 40.553213 
L 157.060152 40.556698 
L 161.381667 40.802044 
L 165.703182 41.28499 
L 170.672753 42.134949 
L 174.346212 42.985087 
L 178.70284 44.221818 
L 182.989242 45.736789 
L 187.310758 47.560951 
L 189.471515 48.588765 
L 193.79303 50.94595 
L 198.114545 53.731931 
L 200.275303 55.310669 
L 202.436061 57.033482 
L 204.596818 58.928612 
L 206.757576 61.032199 
L 208.918333 63.391247 
L 211.079091 66.06804 
L 213.316912 69.264242 
L 215.400606 72.906305 
L 216.64282 75.524848 
L 217.561364 77.821287 
L 218.190328 79.698586 
L 218.771301 81.785455 
L 219.233012 83.872323 
L 219.722121 87.370156 
L 219.79076 88.046061 
L 219.883172 90.132929 
L 219.722121 94.079376 
L 219.705178 94.306667 
L 219.422557 96.393535 
L 219.010892 98.480404 
L 218.4687 100.567273 
L 217.561364 103.258022 
L 216.964056 104.74101 
L 215.400606 107.913978 
L 214.838773 108.914747 
L 213.239848 111.399054 
L 211.079091 114.217061 
L 208.918333 116.617361 
L 206.757576 118.697903 
L 204.596818 120.52823 
L 202.436061 122.159083 
L 200.275303 123.628352 
L 195.953788 126.107245 
L 191.632273 128.122855 
L 187.212232 129.783434 
L 182.989242 131.018703 
L 178.667727 132.001918 
L 174.346212 132.687391 
L 170.024697 133.119655 
L 165.703182 133.303229 
L 161.381667 133.242524 
L 157.060152 132.941847 
L 152.738636 132.405405 
L 150.577879 132.05006 
L 150.577879 132.05006 
" style="fill:none;stroke:#4f69d9;"/>
   </g>
   <g id="LineCollection_5">
    <path clip-path="url(#p5176ece437)" d="M 159.220909 140.286791 
L 154.899394 139.883383 
L 150.577879 139.271082 
L 146.256364 138.455805 
L 141.934848 137.412559 
L 137.284788 136.04404 
L 133.291818 134.632729 
L 128.970303 132.857779 
L 124.648788 130.796548 
L 120.327273 128.413836 
L 118.166515 127.087206 
L 113.845 124.120576 
L 110.429546 121.43596 
L 107.362727 118.704777 
L 105.20197 116.56535 
L 102.086402 113.088485 
L 100.430658 111.001616 
L 98.719697 108.611466 
L 96.321775 104.74101 
L 94.221966 100.567273 
L 92.590719 96.393535 
L 91.940052 94.306667 
L 90.967066 90.132929 
L 90.409186 85.959192 
L 90.274477 81.785455 
L 90.571211 77.611717 
L 91.307878 73.43798 
L 92.237424 70.084659 
L 92.501755 69.264242 
L 93.291122 67.177374 
L 94.398182 64.687977 
L 95.259026 63.003636 
L 96.558939 60.746428 
L 98.719697 57.573935 
L 100.880455 54.856489 
L 102.969922 52.569293 
L 105.20197 50.411724 
L 107.547103 48.395556 
L 110.290663 46.308687 
L 113.845 43.949394 
L 118.166515 41.530325 
L 122.48803 39.509826 
L 126.809545 37.829073 
L 131.131061 36.464771 
L 135.452576 35.366791 
L 139.774091 34.523338 
L 144.095606 33.906247 
L 148.417121 33.522687 
L 152.738636 33.354381 
L 157.060152 33.393495 
L 161.381667 33.636918 
L 165.703182 34.093301 
L 170.024697 34.76164 
L 175.367148 35.874343 
L 178.667727 36.737344 
L 182.989242 38.059997 
L 188.315493 40.048081 
L 191.632273 41.492643 
L 195.953788 43.634588 
L 198.114545 44.828347 
L 202.436061 47.492931 
L 204.596818 48.975746 
L 206.757576 50.568333 
L 209.237232 52.569293 
L 211.59621 54.656162 
L 213.750832 56.74303 
L 215.721019 58.829899 
L 217.561364 60.964468 
L 220.648095 65.090505 
L 222.010561 67.177374 
L 224.33286 71.351111 
L 226.204394 75.590742 
L 227.565169 79.698586 
L 228.53065 83.872323 
L 229.062793 88.046061 
L 229.178312 92.219798 
L 228.869195 96.393535 
L 228.365152 99.402323 
L 227.565914 102.654141 
L 226.204394 106.583417 
L 225.175513 108.914747 
L 224.043636 111.135261 
L 221.882879 114.656209 
L 219.991897 117.262222 
L 217.561364 120.119085 
L 215.400606 122.339449 
L 213.239848 124.317969 
L 211.079091 126.098812 
L 208.918333 127.716006 
L 204.596818 130.494012 
L 200.275303 132.814983 
L 195.953788 134.749506 
L 191.632273 136.35434 
L 187.310758 137.656038 
L 182.989242 138.691125 
L 178.667727 139.478233 
L 174.346212 140.0406 
L 170.024697 140.375395 
L 165.703182 140.494094 
L 161.381667 140.406759 
L 159.220909 140.286791 
L 159.220909 140.286791 
" style="fill:none;stroke:#5673e0;"/>
   </g>
   <g id="LineCollection_6">
    <path clip-path="url(#p5176ece437)" d="M 159.220909 146.589779 
L 154.899394 146.201736 
L 150.577879 145.625295 
L 146.256364 144.866956 
L 141.934848 143.912437 
L 136.097826 142.304646 
L 133.291818 141.389298 
L 128.970303 139.804688 
L 124.648788 137.981216 
L 120.327273 135.89315 
L 116.005758 133.510922 
L 111.684242 130.80039 
L 109.523485 129.310983 
L 105.20197 126.002859 
L 102.325961 123.522828 
L 98.719697 120.020428 
L 96.195055 117.262222 
L 94.398182 115.098575 
L 91.403062 111.001616 
L 90.051614 108.914747 
L 87.711564 104.74101 
L 85.755152 100.452912 
L 84.303842 96.393535 
L 83.190543 92.219798 
L 82.463 88.046061 
L 82.107907 83.872323 
L 82.131701 79.698586 
L 82.540969 75.524848 
L 83.342452 71.351111 
L 83.901221 69.264242 
L 85.345726 65.090505 
L 86.240397 63.003636 
L 87.915909 59.697704 
L 89.681164 56.74303 
L 91.111674 54.656162 
L 92.692903 52.569293 
L 94.442675 50.482424 
L 96.558939 48.223719 
L 98.719697 46.146487 
L 100.929263 44.221818 
L 105.20197 40.991559 
L 107.362727 39.5474 
L 111.684242 37.003111 
L 116.005758 34.838934 
L 120.327273 33.002857 
L 124.648788 31.451941 
L 128.970303 30.171042 
L 133.291818 29.12504 
L 137.613333 28.304486 
L 141.934848 27.685852 
L 146.256364 27.275405 
L 150.577879 27.059832 
L 154.899394 27.030979 
L 159.220909 27.186328 
L 163.574051 27.526869 
L 167.863939 28.057978 
L 172.185455 28.775668 
L 176.50697 29.676034 
L 180.828485 30.791227 
L 185.15 32.102494 
L 189.870484 33.787475 
L 194.845326 35.874343 
L 199.16029 37.961212 
L 202.981979 40.048081 
L 206.757576 42.358653 
L 211.079091 45.359399 
L 214.938468 48.395556 
L 217.561364 50.700603 
L 219.722121 52.770734 
L 223.409053 56.74303 
L 226.204394 60.230594 
L 228.365152 63.293178 
L 230.728697 67.177374 
L 232.834374 71.351111 
L 234.519307 75.524848 
L 235.212316 77.611717 
L 236.305621 81.785455 
L 237.027245 85.959192 
L 237.362257 90.132929 
L 237.323641 94.306667 
L 236.902021 98.480404 
L 236.073438 102.654141 
L 234.839604 106.827879 
L 233.143965 111.001616 
L 232.11696 113.088485 
L 230.525909 115.89579 
L 228.234941 119.349091 
L 226.204394 121.956168 
L 224.043636 124.413193 
L 221.882879 126.609438 
L 219.722121 128.590595 
L 217.561364 130.39227 
L 215.400606 132.042622 
L 211.079091 134.925605 
L 208.918333 136.209387 
L 204.596818 138.465568 
L 200.275303 140.385885 
L 195.051413 142.304646 
L 191.632273 143.348592 
L 187.310758 144.463845 
L 182.989242 145.33561 
L 178.667727 146.005312 
L 174.311768 146.478384 
L 170.024697 146.740441 
L 165.703182 146.818127 
L 161.381667 146.711466 
L 159.220909 146.589779 
L 159.220909 146.589779 
" style="fill:none;stroke:#5e7de7;"/>
   </g>
   <g id="LineCollection_7">
    <path clip-path="url(#p5176ece437)" d="M 182.896241 25.44 
L 185.15 26.104422 
L 189.526429 27.526869 
L 194.988873 29.613737 
L 199.712757 31.700606 
L 203.882057 33.787475 
L 207.624329 35.874343 
L 211.079091 37.993572 
L 215.400606 40.965068 
L 219.616264 44.221818 
L 222.051502 46.308687 
L 226.204394 50.275748 
L 228.365152 52.577889 
L 231.838253 56.74303 
L 233.395395 58.829899 
L 236.164651 63.003636 
L 238.509505 67.177374 
L 240.456615 71.351111 
L 242.030452 75.524848 
L 243.247384 79.698586 
L 244.108371 83.872323 
L 244.626502 88.046061 
L 244.80263 92.219798 
L 244.631367 96.393535 
L 244.107208 100.567273 
L 243.217419 104.74101 
L 241.936916 108.914747 
L 241.14951 111.001616 
L 239.168939 115.318166 
L 236.868981 119.349091 
L 234.847424 122.327927 
L 232.298538 125.609697 
L 230.470639 127.696566 
L 228.365152 129.875693 
L 226.204394 131.912353 
L 223.817619 133.957172 
L 219.722121 137.050805 
L 217.561364 138.514741 
L 213.239848 141.117234 
L 208.918333 143.362965 
L 204.596818 145.297247 
L 200.275303 146.958032 
L 195.287447 148.565253 
L 191.632273 149.545619 
L 186.632476 150.652121 
L 182.989242 151.285148 
L 178.667727 151.863526 
L 174.346212 152.263002 
L 170.024697 152.485846 
L 165.703182 152.534291 
L 161.381667 152.410531 
L 157.060152 152.116726 
L 152.738636 151.654998 
L 148.417121 151.027433 
L 144.095606 150.222449 
L 139.774091 149.238289 
L 135.452576 148.073438 
L 130.431859 146.478384 
L 126.809545 145.153178 
L 122.48803 143.376557 
L 118.166515 141.368046 
L 113.845 139.104737 
L 109.523485 136.560603 
L 105.574308 133.957172 
L 102.702251 131.870303 
L 98.719697 128.660357 
L 95.33288 125.609697 
L 92.237424 122.487244 
L 89.442313 119.349091 
L 86.185304 115.175354 
L 83.594394 111.317318 
L 82.167971 108.914747 
L 80.009124 104.74101 
L 78.236392 100.567273 
L 76.826249 96.393535 
L 75.777702 92.219798 
L 75.067469 88.046061 
L 74.70724 83.872323 
L 74.69031 79.698586 
L 75.02085 75.524848 
L 75.718648 71.351111 
L 76.782741 67.177374 
L 77.463329 65.090505 
L 79.13269 60.916768 
L 80.137922 58.829899 
L 81.433636 56.424856 
L 83.8571 52.569293 
L 85.755152 49.980079 
L 87.915909 47.355715 
L 90.839688 44.221818 
L 94.398182 40.93329 
L 96.558939 39.153764 
L 98.719697 37.5114 
L 103.041212 34.599359 
L 105.20197 33.297258 
L 109.523485 30.973313 
L 113.845 28.968772 
L 118.166515 27.244557 
L 123.60522 25.44 
L 123.60522 25.44 
" style="fill:none;stroke:#6485ec;"/>
   </g>
   <g id="LineCollection_8">
    <path clip-path="url(#p5176ece437)" d="M 198.815653 25.44 
L 203.442161 27.526869 
L 207.5776 29.613737 
L 211.325685 31.700606 
L 215.400606 34.213147 
L 219.722121 37.179971 
L 223.485067 40.048081 
L 226.204394 42.317252 
L 230.525909 46.322096 
L 234.443593 50.482424 
L 237.008182 53.555243 
L 239.419149 56.74303 
L 242.185168 60.916768 
L 244.559554 65.090505 
L 246.565051 69.264242 
L 248.222678 73.43798 
L 249.541794 77.611717 
L 250.533932 81.785455 
L 251.205172 85.959192 
L 251.561087 90.132929 
L 251.597076 94.306667 
L 251.308446 98.480404 
L 250.690413 102.654141 
L 249.732275 106.827879 
L 248.408455 111.001616 
L 246.703549 115.175354 
L 244.587412 119.349091 
L 243.368251 121.43596 
L 240.548223 125.609697 
L 238.94672 127.696566 
L 237.008182 129.994846 
L 234.847424 132.321029 
L 232.686667 134.445777 
L 230.525909 136.398463 
L 228.365152 138.203015 
L 224.043636 141.407387 
L 221.882879 142.849809 
L 217.561364 145.442132 
L 213.239848 147.702852 
L 208.918333 149.67133 
L 204.596818 151.380933 
L 200.275303 152.860136 
L 195.953788 154.111012 
L 191.632273 155.169078 
L 187.310758 156.031119 
L 181.523395 156.912727 
L 178.667727 157.23273 
L 174.346212 157.575762 
L 170.024697 157.758307 
L 165.703182 157.782214 
L 161.381667 157.649304 
L 157.060152 157.361368 
L 152.680778 156.912727 
L 148.417121 156.309923 
L 144.095606 155.545309 
L 139.774091 154.62229 
L 135.452576 153.522175 
L 131.131061 152.254198 
L 126.385473 150.652121 
L 121.044798 148.565253 
L 116.367349 146.478384 
L 112.19925 144.391515 
L 108.430811 142.304646 
L 104.981727 140.217778 
L 100.880455 137.473203 
L 96.558939 134.253207 
L 93.666476 131.870303 
L 90.076667 128.614677 
L 87.080043 125.609697 
L 83.594394 121.691722 
L 81.433636 118.976858 
L 78.720471 115.175354 
L 76.137554 111.001616 
L 73.935469 106.827879 
L 72.092302 102.654141 
L 70.587785 98.480404 
L 69.42534 94.306667 
L 68.57505 90.132929 
L 68.051512 85.959192 
L 67.844404 81.785455 
L 67.955795 77.611717 
L 68.390315 73.43798 
L 69.169409 69.264242 
L 70.291446 65.090505 
L 70.990855 63.003636 
L 72.790606 58.584752 
L 74.951364 54.347426 
L 77.325333 50.482424 
L 80.384912 46.308687 
L 82.122848 44.221818 
L 84.016157 42.134949 
L 86.081172 40.048081 
L 90.076667 36.473559 
L 93.508161 33.787475 
L 96.558939 31.646906 
L 100.880455 28.973558 
L 105.20197 26.639868 
L 107.664312 25.44 
L 107.664312 25.44 
" style="fill:none;stroke:#6c8ff1;"/>
   </g>
   <g id="LineCollection_9">
    <path clip-path="url(#p5176ece437)" d="M 256.455 106.172264 
L 255.74465 108.914747 
L 254.294242 113.313742 
L 252.649097 117.262222 
L 251.642055 119.349091 
L 249.320062 123.522828 
L 246.55438 127.696566 
L 244.99026 129.783434 
L 243.296551 131.870303 
L 241.329697 134.094562 
L 239.168939 136.333894 
L 237.008182 138.396517 
L 234.847424 140.306173 
L 230.525909 143.715963 
L 228.365152 145.253097 
L 224.043636 148.039867 
L 219.722121 150.488924 
L 217.561364 151.591973 
L 213.239848 153.607182 
L 208.918333 155.375508 
L 204.596818 156.922555 
L 200.275303 158.248287 
L 195.953788 159.390125 
L 191.632273 160.344984 
L 187.310758 161.135522 
L 182.989242 161.748611 
L 178.667727 162.207105 
L 174.346212 162.512698 
L 170.024697 162.667061 
L 165.703182 162.671836 
L 159.220909 162.402066 
L 152.738636 161.804741 
L 147.529269 161.086465 
L 141.934848 160.067681 
L 137.15339 158.999596 
L 131.131061 157.369791 
L 126.809545 156.000443 
L 122.48803 154.461623 
L 118.165048 152.73899 
L 113.501918 150.652121 
L 109.304138 148.565253 
L 105.20197 146.313568 
L 100.880455 143.6881 
L 96.558939 140.783276 
L 92.976196 138.130909 
L 90.076667 135.799203 
L 85.651891 131.870303 
L 81.433636 127.615537 
L 77.867986 123.522828 
L 74.662995 119.349091 
L 71.867573 115.175354 
L 69.441311 111.001616 
L 67.364035 106.827879 
L 65.617016 102.654141 
L 64.147576 98.356089 
L 63.068773 94.306667 
L 62.24644 90.132929 
L 61.725678 85.959192 
L 61.503879 81.785455 
L 61.579345 77.611717 
L 61.986818 73.225814 
L 62.653131 69.264242 
L 63.667669 65.090505 
L 65.023642 60.916768 
L 66.734785 56.74303 
L 68.833119 52.569293 
L 71.354636 48.395556 
L 72.790606 46.293616 
L 76.027856 42.134949 
L 79.272879 38.541082 
L 81.984514 35.874343 
L 85.755152 32.589199 
L 89.625569 29.613737 
L 92.661743 27.526869 
L 96.010987 25.44 
L 96.010987 25.44 
" style="fill:none;stroke:#7597f6;"/>
    <path clip-path="url(#p5176ece437)" d="M 210.473546 25.44 
L 211.079091 25.761196 
L 213.239848 26.947736 
L 214.260268 27.526869 
L 215.400606 28.194481 
L 217.561364 29.500084 
L 217.743636 29.613737 
L 219.722121 30.887497 
L 220.948461 31.700606 
L 221.882879 32.340975 
L 223.934092 33.787475 
L 224.043636 33.86741 
L 226.204394 35.489509 
L 226.703325 35.874343 
L 228.365152 37.202191 
L 229.290464 37.961212 
L 230.525909 39.012396 
L 231.71239 40.048081 
L 232.686667 40.93145 
L 233.981314 42.134949 
L 234.847424 42.972502 
L 236.108273 44.221818 
L 237.008182 45.150907 
L 238.103267 46.308687 
L 239.168939 47.484712 
L 239.975378 48.395556 
L 241.329697 49.995268 
L 241.732875 50.482424 
L 243.380616 52.569293 
L 243.490455 52.715533 
L 244.915973 54.656162 
L 245.651212 55.71042 
L 246.355859 56.74303 
L 247.703771 58.829899 
L 247.81197 59.007677 
L 248.949347 60.916768 
L 249.972727 62.743958 
L 250.115162 63.003636 
L 251.184658 65.090505 
L 252.133485 67.078416 
L 252.179758 67.177374 
L 253.081179 69.264242 
L 253.909821 71.351111 
L 254.294242 72.414382 
L 254.656922 73.43798 
L 255.323258 75.524848 
L 255.916875 77.611717 
L 256.437274 79.698586 
L 256.455 79.781585 
" style="fill:none;stroke:#7597f6;"/>
   </g>
   <g id="LineCollection_10">
    <path clip-path="url(#p5176ece437)" d="M 256.455 122.767976 
L 254.836738 125.609697 
L 253.521869 127.696566 
L 250.560357 131.870303 
L 247.81197 135.234281 
L 245.170488 138.130909 
L 241.329697 141.850776 
L 238.385437 144.391515 
L 234.847424 147.142517 
L 230.525909 150.133323 
L 226.273149 152.73899 
L 222.439831 154.825859 
L 218.151103 156.912727 
L 215.400606 158.119895 
L 211.079091 159.837906 
L 206.757576 161.350286 
L 200.580385 163.173333 
L 198.114545 163.794003 
L 193.79303 164.755576 
L 189.471515 165.554785 
L 182.989242 166.455548 
L 176.50697 167.027805 
L 170.024697 167.276652 
L 163.542424 167.207078 
L 157.060152 166.823969 
L 150.577879 166.132114 
L 144.095606 165.132897 
L 137.613333 163.803189 
L 133.291818 162.736902 
L 126.809545 160.850034 
L 120.327273 158.596103 
L 116.005758 156.88334 
L 111.352384 154.825859 
L 107.084353 152.73899 
L 103.041212 150.569962 
L 98.719697 148.018622 
L 94.398182 145.211451 
L 90.076667 142.119165 
L 85.101574 138.130909 
L 81.433636 134.847714 
L 78.39034 131.870303 
L 74.544679 127.696566 
L 71.140934 123.522828 
L 68.132992 119.349091 
L 65.495005 115.175354 
L 63.196596 111.001616 
L 61.220399 106.827879 
L 59.550215 102.654141 
L 58.181601 98.480404 
L 57.100852 94.306667 
L 56.304627 90.132929 
L 55.78575 85.959192 
L 55.547792 81.785455 
L 55.594387 77.611717 
L 55.92923 73.43798 
L 56.556084 69.264242 
L 57.478774 65.090505 
L 58.723979 60.916768 
L 60.294255 56.74303 
L 62.21687 52.569293 
L 64.522226 48.395556 
L 67.244328 44.221818 
L 68.770421 42.134949 
L 72.206984 37.961212 
L 74.951364 35.034734 
L 78.447929 31.700606 
L 81.433636 29.154144 
L 85.755152 25.865563 
L 86.356101 25.44 
L 86.356101 25.44 
" style="fill:none;stroke:#7da0f9;"/>
    <path clip-path="url(#p5176ece437)" d="M 220.130596 25.44 
L 221.882879 26.534715 
L 223.426654 27.526869 
L 224.043636 27.935793 
L 226.204394 29.408335 
L 226.497671 29.613737 
L 228.365152 30.963796 
L 229.358169 31.700606 
L 230.525909 32.595899 
L 232.04117 33.787475 
L 232.686667 34.31256 
L 234.559684 35.874343 
L 234.847424 36.122826 
L 236.925481 37.961212 
L 237.008182 38.03708 
L 239.149232 40.048081 
L 239.168939 40.067302 
L 241.240638 42.134949 
L 241.329697 42.227384 
L 243.208536 44.221818 
L 243.490455 44.533529 
L 245.060994 46.308687 
L 245.651212 47.004754 
L 246.80539 48.395556 
L 247.81197 49.663526 
L 248.44849 50.482424 
L 249.972727 52.536582 
L 249.996503 52.569293 
L 251.439671 54.656162 
L 252.133485 55.712359 
L 252.79694 56.74303 
L 254.068966 58.829899 
L 254.294242 59.221816 
L 255.249297 60.916768 
L 256.355399 63.003636 
L 256.455 63.204609 
" style="fill:none;stroke:#7da0f9;"/>
   </g>
   <g id="LineCollection_11">
    <path clip-path="url(#p5176ece437)" d="M 256.455 132.985661 
L 254.100734 136.04404 
L 250.443001 140.217778 
L 247.81197 142.88421 
L 243.863788 146.478384 
L 241.326823 148.565253 
L 237.008182 151.764909 
L 232.686667 154.615834 
L 228.786162 156.912727 
L 224.849529 158.999596 
L 220.454575 161.086465 
L 217.561364 162.328016 
L 213.239848 164.010921 
L 208.918333 165.501249 
L 202.608898 167.347071 
L 198.114545 168.435428 
L 193.22499 169.433939 
L 187.310758 170.375873 
L 180.828485 171.104238 
L 174.346212 171.522874 
L 167.863939 171.633655 
L 161.381667 171.449396 
L 154.899394 170.966018 
L 148.417121 170.190652 
L 141.934848 169.119764 
L 135.452576 167.739145 
L 131.131061 166.641761 
L 124.648788 164.725306 
L 118.166515 162.460837 
L 113.845 160.749813 
L 109.523485 158.863986 
L 105.20197 156.790204 
L 100.880455 154.513955 
L 96.558939 152.0192 
L 92.237424 149.288155 
L 87.915909 146.295185 
L 82.745912 142.304646 
L 79.272879 139.337357 
L 75.733651 136.04404 
L 72.790606 133.050082 
L 69.835436 129.783434 
L 66.308333 125.452778 
L 63.405849 121.43596 
L 60.729981 117.262222 
L 58.38008 113.088485 
L 56.340196 108.914747 
L 54.595403 104.74101 
L 53.131717 100.567273 
L 51.951025 96.393535 
L 51.03472 92.219798 
L 50.39298 88.046061 
L 50.013944 83.872323 
L 49.9008 79.698586 
L 50.056788 75.524848 
L 50.485203 71.351111 
L 51.189522 67.177374 
L 52.193134 63.003636 
L 53.488385 58.829899 
L 55.106573 54.656162 
L 57.060538 50.482424 
L 59.374145 46.308687 
L 61.986818 42.269537 
L 63.597506 40.048081 
L 66.308333 36.660838 
L 68.860059 33.787475 
L 72.790606 29.863511 
L 75.401714 27.526869 
L 77.929635 25.44 
L 77.929635 25.44 
" style="fill:none;stroke:#85a8fc;"/>
    <path clip-path="url(#p5176ece437)" d="M 228.560151 25.44 
L 230.525909 26.813604 
L 231.52131 27.526869 
L 232.686667 28.387808 
L 234.30586 29.613737 
L 234.847424 30.036889 
L 236.926334 31.700606 
L 237.008182 31.768273 
L 239.168939 33.597352 
L 239.38846 33.787475 
L 241.329697 35.526091 
L 241.709967 35.874343 
L 243.490455 37.562493 
L 243.901917 37.961212 
L 245.651212 39.718378 
L 245.972511 40.048081 
L 247.81197 42.007366 
L 247.929275 42.134949 
L 249.774657 44.221818 
L 249.972727 44.455079 
L 251.514748 46.308687 
L 252.133485 47.084436 
L 253.158429 48.395556 
L 254.294242 49.913796 
L 254.711342 50.482424 
L 256.172683 52.569293 
L 256.455 52.992701 
" style="fill:none;stroke:#85a8fc;"/>
   </g>
   <g id="LineCollection_12">
    <path clip-path="url(#p5176ece437)" d="M 256.455 141.0803 
L 253.351466 144.391515 
L 249.972727 147.61881 
L 246.45043 150.652121 
L 243.490455 152.972407 
L 239.168939 156.032585 
L 234.847424 158.773276 
L 230.525909 161.223234 
L 226.204394 163.416329 
L 221.882879 165.382893 
L 217.009515 167.347071 
L 211.024635 169.433939 
L 204.596818 171.299106 
L 200.275303 172.350415 
L 193.79303 173.655588 
L 187.310758 174.627215 
L 180.828485 175.300373 
L 174.346212 175.67926 
L 167.863939 175.766279 
L 161.381667 175.570622 
L 154.899394 175.091108 
L 148.417121 174.333349 
L 141.934848 173.293797 
L 135.452576 171.959793 
L 131.131061 170.9038 
L 124.648788 169.06441 
L 118.166515 166.897878 
L 111.684242 164.383676 
L 107.362727 162.503694 
L 103.041212 160.446595 
L 98.719697 158.199493 
L 94.398182 155.748223 
L 89.555381 152.73899 
L 85.755152 150.154134 
L 80.820621 146.478384 
L 77.112121 143.436636 
L 73.497065 140.217778 
L 70.629848 137.447528 
L 67.295022 133.957172 
L 63.6878 129.783434 
L 60.461061 125.609697 
L 57.577473 121.43596 
L 55.024779 117.262222 
L 52.775038 113.088485 
L 50.814286 108.914747 
L 49.022273 104.435716 
L 47.724199 100.567273 
L 46.573151 96.393535 
L 45.685232 92.219798 
L 45.047147 88.046061 
L 44.66253 83.872323 
L 44.535309 79.698586 
L 44.700758 75.015834 
L 45.051954 71.351111 
L 45.707545 67.177374 
L 46.6311 63.003636 
L 47.844956 58.829899 
L 49.349961 54.656162 
L 51.18303 50.452289 
L 53.343788 46.273617 
L 55.84272 42.134949 
L 58.755706 37.961212 
L 61.986818 33.918393 
L 64.147576 31.491542 
L 68.069599 27.526869 
L 70.351011 25.44 
L 70.351011 25.44 
" style="fill:none;stroke:#8db0fe;"/>
    <path clip-path="url(#p5176ece437)" d="M 236.130402 25.44 
L 237.008182 26.10139 
L 238.856661 27.526869 
L 239.168939 27.775105 
L 241.329697 29.532297 
L 241.427622 29.613737 
L 243.490455 31.383733 
L 243.851849 31.700606 
L 245.651212 33.329978 
L 246.145853 33.787475 
L 247.81197 35.380664 
L 248.31765 35.874343 
L 249.972727 37.546775 
L 250.374616 37.961212 
L 252.133485 39.840887 
L 252.32354 40.048081 
L 254.167972 42.134949 
L 254.294242 42.283463 
L 255.910354 44.221818 
L 256.455 44.901769 
" style="fill:none;stroke:#8db0fe;"/>
   </g>
   <g id="LineCollection_13">
    <path clip-path="url(#p5176ece437)" d="M 256.455 147.997851 
L 253.62025 150.652121 
L 249.972727 153.754253 
L 245.651212 157.062332 
L 241.329697 160.008737 
L 237.008182 162.661618 
L 232.281846 165.260202 
L 228.045486 167.347071 
L 223.311629 169.433939 
L 217.561364 171.659779 
L 211.079091 173.790944 
L 204.596818 175.559408 
L 200.275303 176.545124 
L 193.7201 177.781414 
L 187.310758 178.678191 
L 180.828485 179.30213 
L 174.346212 179.645737 
L 167.863939 179.712756 
L 161.381667 179.506867 
L 154.899394 179.031684 
L 148.417121 178.290757 
L 141.934848 177.27624 
L 135.452576 175.985445 
L 131.131061 174.963029 
L 124.648788 173.189503 
L 118.166515 171.107249 
L 111.684242 168.697851 
L 107.362727 166.902165 
L 103.041212 164.94229 
L 98.719697 162.806912 
L 94.398182 160.483652 
L 90.076667 157.958942 
L 85.165372 154.825859 
L 81.433636 152.229204 
L 76.601358 148.565253 
L 71.645738 144.391515 
L 68.469091 141.457805 
L 65.13324 138.130909 
L 61.325176 133.957172 
L 57.665303 129.48482 
L 54.817741 125.609697 
L 52.061989 121.43596 
L 49.608399 117.262222 
L 47.443356 113.088485 
L 45.554055 108.914747 
L 43.928433 104.74101 
L 42.54 100.513318 
L 42.54 100.513318 
" style="fill:none;stroke:#94b6ff;"/>
    <path clip-path="url(#p5176ece437)" d="M 42.54 58.614495 
L 43.146533 56.74303 
L 43.890334 54.656162 
L 44.700758 52.572801 
L 44.702151 52.569293 
L 45.599604 50.482424 
L 46.567271 48.395556 
L 46.861515 47.80331 
L 47.620531 46.308687 
L 48.752274 44.221818 
L 49.022273 43.753389 
L 49.9763 42.134949 
L 51.18303 40.204446 
L 51.283042 40.048081 
L 52.692453 37.961212 
L 53.343788 37.046141 
L 54.197732 35.874343 
L 55.504545 34.16862 
L 55.803682 33.787475 
L 57.521135 31.700606 
L 57.665303 31.533172 
L 59.359469 29.613737 
L 59.826061 29.107666 
L 61.32103 27.526869 
L 61.986818 26.851673 
L 63.415578 25.44 
" style="fill:none;stroke:#94b6ff;"/>
    <path clip-path="url(#p5176ece437)" d="M 243.07122 25.44 
L 243.490455 25.778539 
L 245.609411 27.526869 
L 245.651212 27.562414 
L 247.81197 29.439313 
L 248.008674 29.613737 
L 249.972727 31.410212 
L 250.283868 31.700606 
L 252.133485 33.483051 
L 252.443194 33.787475 
L 254.294242 35.668112 
L 254.49333 35.874343 
L 256.440135 37.961212 
L 256.455 37.977726 
" style="fill:none;stroke:#94b6ff;"/>
   </g>
   <g id="LineCollection_14">
    <path clip-path="url(#p5176ece437)" d="M 256.455 154.135336 
L 253.127953 156.912727 
L 249.972727 159.331901 
L 245.651212 162.346547 
L 241.011327 165.260202 
L 237.008182 167.526596 
L 232.686667 169.745382 
L 228.365152 171.75245 
L 223.934437 173.607677 
L 217.561364 175.940756 
L 211.079091 177.949449 
L 204.596818 179.616064 
L 200.275303 180.547426 
L 193.79303 181.698757 
L 187.310758 182.555393 
L 180.828485 183.135195 
L 174.346212 183.447338 
L 167.863939 183.49524 
L 161.381667 183.282265 
L 154.899394 182.811716 
L 148.417121 182.086843 
L 141.934848 181.092316 
L 135.452576 179.841069 
L 128.970303 178.307046 
L 122.48803 176.492474 
L 116.005758 174.382353 
L 111.684242 172.802327 
L 105.20197 170.157273 
L 100.880455 168.198458 
L 94.988195 165.260202 
L 90.076667 162.547559 
L 84.254263 158.999596 
L 81.104084 156.912727 
L 77.112121 154.074679 
L 72.666753 150.652121 
L 67.756371 146.478384 
L 63.321264 142.304646 
L 59.309419 138.130909 
L 55.504545 133.742902 
L 52.405975 129.783434 
L 49.451192 125.609697 
L 46.798866 121.43596 
L 44.43707 117.262222 
L 42.54 113.493059 
L 42.54 113.493059 
" style="fill:none;stroke:#9dbdff;"/>
    <path clip-path="url(#p5176ece437)" d="M 42.54 45.631784 
L 43.268265 44.221818 
L 44.41545 42.134949 
L 44.700758 41.645206 
L 45.651511 40.048081 
L 46.861515 38.126105 
L 46.967644 37.961212 
L 48.382594 35.874343 
L 49.022273 34.977216 
L 49.890012 33.787475 
L 51.18303 32.097839 
L 51.49414 31.700606 
L 53.20496 29.613737 
L 53.343788 29.451614 
L 55.031597 27.526869 
L 55.504545 27.00977 
L 56.975656 25.44 
" style="fill:none;stroke:#9dbdff;"/>
    <path clip-path="url(#p5176ece437)" d="M 249.510577 25.44 
L 249.972727 25.837859 
L 251.895655 27.526869 
L 252.133485 27.742121 
L 254.161094 29.613737 
L 254.294242 29.740498 
L 256.313757 31.700606 
L 256.455 31.842134 
" style="fill:none;stroke:#9dbdff;"/>
   </g>
   <g id="LineCollection_15">
    <path clip-path="url(#p5176ece437)" d="M 256.455 159.711258 
L 251.849744 163.173333 
L 247.81197 165.903309 
L 243.490455 168.560148 
L 239.168939 170.971522 
L 234.847424 173.158889 
L 230.525909 175.141277 
L 226.204394 176.935617 
L 221.882879 178.557027 
L 217.561364 180.019045 
L 210.949413 181.955152 
L 204.596818 183.496414 
L 198.114545 184.774227 
L 191.632273 185.769419 
L 185.15 186.48956 
L 178.667727 186.94386 
L 172.185455 187.143123 
L 165.703182 187.090466 
L 159.220909 186.788959 
L 152.738636 186.241617 
L 146.256364 185.437131 
L 139.774091 184.385415 
L 133.291818 183.071563 
L 126.809545 181.496851 
L 120.327273 179.647349 
L 113.845 177.508119 
L 107.362727 175.063118 
L 100.880455 172.2951 
L 94.899922 169.433939 
L 90.076667 166.886849 
L 85.755152 164.410229 
L 80.428825 161.086465 
L 77.112121 158.849696 
L 71.625748 154.825859 
L 68.469091 152.312846 
L 64.099377 148.565253 
L 59.673801 144.391515 
L 55.504545 140.050601 
L 52.012967 136.04404 
L 48.703176 131.870303 
L 45.712975 127.696566 
L 43.013668 123.522828 
L 42.54 122.735093 
L 42.54 122.735093 
" style="fill:none;stroke:#a5c3fe;"/>
    <path clip-path="url(#p5176ece437)" d="M 42.54 36.383163 
L 42.869381 35.874343 
L 44.289891 33.787475 
L 44.700758 33.212178 
L 45.804069 31.700606 
L 46.861515 30.317348 
L 47.411509 29.613737 
L 49.022273 27.642187 
L 49.118659 27.526869 
L 50.937817 25.44 
" style="fill:none;stroke:#a5c3fe;"/>
    <path clip-path="url(#p5176ece437)" d="M 255.543955 25.44 
L 256.455 26.272335 
" style="fill:none;stroke:#a5c3fe;"/>
   </g>
   <g id="LineCollection_16">
    <path clip-path="url(#p5176ece437)" d="M 256.455 164.858038 
L 252.917903 167.347071 
L 249.721038 169.433939 
L 245.651212 171.880986 
L 241.329697 174.252375 
L 237.008182 176.412623 
L 232.686667 178.378835 
L 228.365152 180.166317 
L 221.882879 182.531019 
L 215.400606 184.553077 
L 208.918333 186.258873 
L 202.436061 187.660525 
L 195.953788 188.783297 
L 189.471515 189.636626 
L 182.989242 190.235259 
L 176.50697 190.576622 
L 170.024697 190.673069 
L 163.542424 190.528821 
L 157.060152 190.143512 
L 150.577879 189.513754 
L 144.095606 188.647004 
L 137.613333 187.532303 
L 130.943879 186.128889 
L 124.648788 184.547701 
L 118.166515 182.658197 
L 111.684242 180.490449 
L 105.20197 178.029749 
L 99.706 175.694545 
L 94.398182 173.211879 
L 87.915909 169.850268 
L 83.514378 167.347071 
L 79.272879 164.74 
L 73.803593 161.086465 
L 70.629848 158.798641 
L 65.530884 154.825859 
L 60.662133 150.652121 
L 56.235637 146.478384 
L 52.205954 142.304646 
L 48.53366 138.130909 
L 44.700758 133.302563 
L 42.54 130.326633 
L 42.54 130.326633 
" style="fill:none;stroke:#adc9fd;"/>
    <path clip-path="url(#p5176ece437)" d="M 42.54 28.796138 
L 43.530373 27.526869 
L 44.700758 26.089545 
L 45.241388 25.44 
" style="fill:none;stroke:#adc9fd;"/>
   </g>
   <g id="LineCollection_17">
    <path clip-path="url(#p5176ece437)" d="M 256.455 169.659801 
L 252.133485 172.472265 
L 247.81197 175.041179 
L 242.723303 177.781414 
L 237.008182 180.524681 
L 232.686667 182.390417 
L 226.204394 184.874078 
L 219.722121 187.015392 
L 213.239848 188.840237 
L 206.757576 190.371945 
L 200.275303 191.616087 
L 193.79303 192.601603 
L 187.310758 193.325479 
L 180.828485 193.806095 
L 174.346212 194.046265 
L 167.863939 194.048757 
L 161.381667 193.8163 
L 154.899394 193.351579 
L 148.417121 192.657238 
L 141.934848 191.722959 
L 135.452576 190.554637 
L 128.970303 189.137347 
L 122.48803 187.472418 
L 116.005758 185.547482 
L 109.523485 183.349335 
L 103.041212 180.863863 
L 96.558939 178.075963 
L 91.549539 175.694545 
L 85.755152 172.674629 
L 80.095795 169.433939 
L 74.951364 166.204329 
L 70.489894 163.173333 
L 64.877994 158.999596 
L 61.986818 156.681531 
L 57.406291 152.73899 
L 52.974745 148.565253 
L 48.925051 144.391515 
L 44.700758 139.584673 
L 42.54 136.918574 
L 42.54 136.918574 
" style="fill:none;stroke:#b5cdfa;"/>
   </g>
   <g id="LineCollection_18">
    <path clip-path="url(#p5176ece437)" d="M 256.455 174.173762 
L 252.133485 176.823484 
L 247.81197 179.250309 
L 242.498568 181.955152 
L 237.008182 184.455576 
L 230.525909 187.057824 
L 224.043636 189.318032 
L 217.561364 191.261587 
L 211.079091 192.911426 
L 204.596818 194.284537 
L 198.114545 195.388491 
L 191.632273 196.245742 
L 185.15 196.857116 
L 178.667727 197.229588 
L 172.185455 197.371843 
L 165.703182 197.286429 
L 159.220909 196.975855 
L 152.738636 196.440288 
L 146.256364 195.672423 
L 139.774091 194.682682 
L 133.291818 193.454175 
L 126.809545 191.993058 
L 120.327273 190.288149 
L 113.508926 188.215758 
L 107.362727 186.098511 
L 100.880455 183.587524 
L 94.398182 180.780087 
L 88.159453 177.781414 
L 83.594394 175.380335 
L 77.112121 171.654518 
L 72.790606 168.939149 
L 67.381144 165.260202 
L 61.986818 161.242135 
L 59.187525 158.999596 
L 54.327933 154.825859 
L 49.883673 150.652121 
L 45.814524 146.478384 
L 42.54 142.831013 
L 42.54 142.831013 
" style="fill:none;stroke:#bbd1f8;"/>
   </g>
   <g id="LineCollection_19">
    <path clip-path="url(#p5176ece437)" d="M 256.455 178.451683 
L 252.133485 180.960378 
L 247.81197 183.263795 
L 243.490455 185.377567 
L 239.168939 187.315777 
L 234.847424 189.091147 
L 228.365152 191.469683 
L 221.882879 193.531417 
L 215.400606 195.2989 
L 208.918333 196.792592 
L 202.436061 198.019138 
L 195.953788 198.999165 
L 189.471515 199.734722 
L 182.989242 200.240319 
L 176.50697 200.518469 
L 170.024697 200.57165 
L 163.542424 200.402301 
L 157.060152 200.01283 
L 150.577879 199.405606 
L 144.095606 198.581713 
L 137.613333 197.526682 
L 131.131061 196.251252 
L 123.609773 194.476364 
L 118.166515 192.989977 
L 111.684242 190.991618 
L 105.20197 188.73459 
L 98.532893 186.128889 
L 92.237424 183.380115 
L 85.755152 180.246665 
L 81.085831 177.781414 
L 74.951364 174.24941 
L 70.577687 171.520808 
L 64.441876 167.347071 
L 59.826061 163.91522 
L 55.504545 160.452706 
L 51.18303 156.716787 
L 46.861515 152.662923 
L 42.54 148.236343 
L 42.54 148.236343 
" style="fill:none;stroke:#c3d5f4;"/>
   </g>
   <g id="LineCollection_20">
    <path clip-path="url(#p5176ece437)" d="M 256.455 182.526401 
L 252.133485 184.912001 
L 247.81197 187.107499 
L 243.490455 189.126747 
L 239.168939 190.982285 
L 232.686667 193.478412 
L 226.204394 195.65763 
L 219.722121 197.542112 
L 213.239848 199.152012 
L 206.757576 200.501292 
L 200.275303 201.597524 
L 193.79303 202.459702 
L 187.310758 203.089794 
L 180.828485 203.492666 
L 174.346212 203.677261 
L 167.863939 203.645865 
L 161.381667 203.400737 
L 154.899394 202.944102 
L 148.417121 202.268302 
L 141.934848 201.379532 
L 135.452576 200.27388 
L 127.660817 198.650101 
L 122.48803 197.38835 
L 116.005758 195.59784 
L 109.523485 193.564231 
L 103.041212 191.276179 
L 96.558939 188.721622 
L 90.076667 185.882815 
L 83.594394 182.734299 
L 78.202186 179.868283 
L 72.790606 176.739796 
L 67.782366 173.607677 
L 61.986818 169.661936 
L 57.665303 166.468195 
L 53.343788 163.047113 
L 48.621568 158.999596 
L 44.141772 154.825859 
L 42.54 153.243077 
L 42.54 153.243077 
" style="fill:none;stroke:#cad8ef;"/>
   </g>
   <g id="LineCollection_21">
    <path clip-path="url(#p5176ece437)" d="M 256.455 186.42493 
L 252.133485 188.702384 
L 247.81197 190.802915 
L 241.329697 193.645564 
L 237.008182 195.351724 
L 230.525909 197.647587 
L 224.043636 199.648286 
L 217.561364 201.373674 
L 211.079091 202.841862 
L 204.596818 204.054025 
L 198.114545 205.037013 
L 191.632273 205.784279 
L 185.15 206.313498 
L 178.667727 206.626928 
L 172.185455 206.726798 
L 165.703182 206.615304 
L 159.220909 206.294616 
L 152.738636 205.766869 
L 145.335161 204.910707 
L 139.774091 204.084274 
L 132.769672 202.823838 
L 126.809545 201.547099 
L 120.327273 199.946867 
L 113.845 198.11752 
L 107.362727 196.048737 
L 100.880455 193.72957 
L 94.398182 191.148393 
L 87.750269 188.215758 
L 81.433636 185.129964 
L 75.493335 181.955152 
L 70.629848 179.132823 
L 65.140721 175.694545 
L 59.826061 172.078199 
L 55.504545 168.910158 
L 50.867678 165.260202 
L 45.97713 161.086465 
L 42.54 157.930153 
L 42.54 157.930153 
" style="fill:none;stroke:#d1dae9;"/>
   </g>
   <g id="LineCollection_22">
    <path clip-path="url(#p5176ece437)" d="M 256.455 190.16682 
L 252.053432 192.389495 
L 245.651212 195.310474 
L 239.168939 197.934444 
L 232.686667 200.246644 
L 226.204394 202.268145 
L 219.722121 204.018165 
L 213.239848 205.514261 
L 206.757576 206.768465 
L 200.275303 207.785191 
L 193.79303 208.580838 
L 187.310758 209.160344 
L 180.828485 209.522252 
L 174.346212 209.677328 
L 167.863939 209.627632 
L 161.381667 209.375193 
L 154.899394 208.919225 
L 148.417121 208.256131 
L 141.934848 207.392944 
L 135.452576 206.320128 
L 128.371967 204.910707 
L 122.48803 203.541032 
L 116.005758 201.822628 
L 109.523485 199.876344 
L 103.041212 197.692128 
L 96.558939 195.259329 
L 89.673337 192.389495 
L 83.594394 189.588445 
L 76.759872 186.128889 
L 70.629848 182.711993 
L 65.906768 179.868283 
L 59.525673 175.694545 
L 53.343788 171.249311 
L 48.367197 167.347071 
L 43.455473 163.173333 
L 42.54 162.354357 
L 42.54 162.354357 
" style="fill:none;stroke:#d7dce3;"/>
   </g>
   <g id="LineCollection_23">
    <path clip-path="url(#p5176ece437)" d="M 256.455 193.765014 
L 250.615215 196.563232 
L 245.651212 198.719566 
L 239.168939 201.245756 
L 232.686667 203.476095 
L 226.204394 205.429854 
L 219.722121 207.124666 
L 213.239848 208.567697 
L 206.757576 209.777004 
L 200.275303 210.762036 
L 193.79303 211.527816 
L 187.310758 212.079322 
L 180.828485 212.425555 
L 174.346212 212.568529 
L 167.863939 212.510234 
L 161.381667 212.252632 
L 154.899394 211.797661 
L 148.417121 211.146827 
L 141.934848 210.288666 
L 134.623621 209.084444 
L 128.970303 207.971219 
L 122.48803 206.501666 
L 116.005758 204.818389 
L 109.247349 202.823838 
L 102.938481 200.73697 
L 96.558939 198.392277 
L 90.076667 195.757371 
L 83.594394 192.857433 
L 78.35243 190.302626 
L 72.790606 187.371228 
L 66.308333 183.652269 
L 59.826061 179.57075 
L 54.189686 175.694545 
L 49.022273 171.844267 
L 44.700758 168.376988 
L 42.54 166.553635 
L 42.54 166.553635 
" style="fill:none;stroke:#dddcdc;"/>
   </g>
   <g id="LineCollection_24">
    <path clip-path="url(#p5176ece437)" d="M 256.455 197.242616 
L 249.972727 200.216751 
L 245.651212 202.014579 
L 239.168939 204.459185 
L 232.686667 206.61689 
L 226.204394 208.506049 
L 219.722121 210.143482 
L 213.239848 211.544634 
L 206.757576 212.714596 
L 200.275303 213.666204 
L 193.79303 214.402967 
L 187.310758 214.936001 
L 180.828485 215.267278 
L 174.346212 215.397876 
L 167.863939 215.332332 
L 161.381667 215.069929 
L 154.899394 214.613414 
L 148.417121 213.964636 
L 141.934848 213.123231 
L 135.452576 212.07848 
L 128.970303 210.838461 
L 121.219632 209.084444 
L 116.005758 207.734609 
L 109.523485 205.862401 
L 103.041212 203.766687 
L 96.558939 201.437989 
L 89.560852 198.650101 
L 83.594394 196.031351 
L 77.112121 192.922298 
L 72.072859 190.302626 
L 66.308333 187.06792 
L 61.298725 184.04202 
L 55.504545 180.262569 
L 51.18303 177.232081 
L 46.346297 173.607677 
L 42.54 170.558963 
L 42.54 170.558963 
" style="fill:none;stroke:#e2dad5;"/>
   </g>
   <g id="LineCollection_25">
    <path clip-path="url(#p5176ece437)" d="M 256.455 200.611091 
L 251.521771 202.823838 
L 245.651212 205.219571 
L 239.168939 207.582497 
L 232.686667 209.67205 
L 226.204394 211.505117 
L 218.988326 213.258182 
L 213.239848 214.447809 
L 206.757576 215.584634 
L 200.275303 216.502456 
L 193.79303 217.218078 
L 187.310758 217.728587 
L 180.828485 218.04052 
L 174.346212 218.159149 
L 167.863939 218.086275 
L 161.381667 217.823678 
L 154.899394 217.372167 
L 148.417121 216.725164 
L 141.934848 215.890758 
L 135.452576 214.863016 
L 128.970303 213.639617 
L 122.48803 212.214388 
L 116.005758 210.587242 
L 109.523485 208.749989 
L 103.041212 206.693993 
L 96.558939 204.410137 
L 90.076667 201.888791 
L 83.594394 199.119772 
L 77.112121 196.083673 
L 70.629848 192.763701 
L 66.166977 190.302626 
L 59.178046 186.128889 
L 52.799444 181.955152 
L 46.861515 177.720654 
L 42.54 174.395881 
L 42.54 174.395881 
" style="fill:none;stroke:#e8d6cc;"/>
   </g>
   <g id="LineCollection_26">
    <path clip-path="url(#p5176ece437)" d="M 256.455 203.87029 
L 249.972727 206.649634 
L 243.616893 209.084444 
L 239.168939 210.62441 
L 232.686667 212.651074 
L 226.204394 214.428141 
L 219.722121 215.970468 
L 212.458495 217.431919 
L 206.757576 218.386571 
L 200.275303 219.280706 
L 193.79303 219.968795 
L 187.310758 220.459358 
L 180.828485 220.757972 
L 174.346212 220.866403 
L 167.863939 220.786395 
L 161.381667 220.519671 
L 154.899394 220.067934 
L 148.417121 219.431508 
L 141.934848 218.601925 
L 134.551428 217.431919 
L 128.970303 216.379655 
L 122.48803 214.979265 
L 115.551477 213.258182 
L 108.186628 211.171313 
L 101.636042 209.084444 
L 95.700865 206.997576 
L 90.076667 204.843214 
L 83.594394 202.127576 
L 77.112121 199.159587 
L 70.629848 195.916707 
L 64.147576 192.383965 
L 57.169369 188.215758 
L 50.779728 184.04202 
L 44.700758 179.716136 
L 42.54 178.085631 
L 42.54 178.085631 
" style="fill:none;stroke:#edd2c3;"/>
   </g>
   <g id="LineCollection_27">
    <path clip-path="url(#p5176ece437)" d="M 256.455 207.044431 
L 254.294242 207.970369 
L 252.133485 208.870043 
L 251.603595 209.084444 
L 249.972727 209.731842 
L 247.81197 210.564248 
L 246.186828 211.171313 
L 245.651212 211.367682 
L 243.490455 212.135605 
L 241.329697 212.878681 
L 240.188726 213.258182 
L 239.168939 213.591216 
L 237.008182 214.27304 
L 234.847424 214.930712 
L 233.434952 215.345051 
L 232.686667 215.560648 
L 230.525909 216.160084 
L 228.365152 216.736028 
L 226.204394 217.288555 
L 225.619475 217.431919 
L 224.043636 217.811428 
L 221.882879 218.309086 
L 219.722121 218.783952 
L 217.561364 219.236097 
L 216.139686 219.518788 
L 215.400606 219.66324 
L 213.239848 220.063644 
L 211.079091 220.441918 
L 208.918333 220.79813 
L 206.757576 221.132348 
L 204.596818 221.444642 
L 203.399471 221.605657 
L 202.436061 221.733048 
L 200.275303 221.997489 
L 198.114545 222.240556 
L 195.953788 222.462316 
L 193.79303 222.662833 
L 191.632273 222.842172 
L 189.471515 223.000397 
L 187.310758 223.137573 
L 185.15 223.253763 
L 182.989242 223.349031 
L 180.828485 223.42344 
L 178.667727 223.477054 
L 176.50697 223.509935 
L 174.346212 223.522145 
L 172.185455 223.513748 
L 170.024697 223.484805 
L 167.863939 223.435379 
L 165.703182 223.365529 
L 163.542424 223.275319 
L 161.381667 223.16481 
L 159.220909 223.034061 
L 157.060152 222.883133 
L 154.899394 222.712088 
L 152.738636 222.520985 
L 150.577879 222.309884 
L 148.417121 222.078844 
L 146.256364 221.827926 
L 144.482752 221.605657 
L 144.095606 221.556436 
L 141.934848 221.261439 
L 139.774091 220.946445 
L 137.613333 220.611513 
L 135.452576 220.256703 
L 133.291818 219.882076 
L 131.301597 219.518788 
L 131.131061 219.487203 
L 128.970303 219.066646 
L 126.809545 218.626155 
L 124.648788 218.165791 
L 122.48803 217.685616 
L 121.392066 217.431919 
L 120.327273 217.181793 
L 118.166515 216.653967 
L 116.005758 216.106215 
L 113.845 215.538599 
L 113.133541 215.345051 
L 111.684242 214.944877 
L 109.523485 214.328015 
L 107.362727 213.691176 
L 105.93865 213.258182 
L 105.20197 213.030797 
L 103.041212 212.343238 
L 100.880455 211.635592 
L 99.50234 211.171313 
L 98.719697 210.903596 
L 96.558939 210.143701 
L 94.398182 209.363607 
L 93.644915 209.084444 
L 92.237424 208.554706 
L 90.076667 207.720777 
L 88.247662 206.997576 
L 87.915909 206.864327 
L 85.755152 205.975094 
L 83.594394 205.065376 
L 83.235418 204.910707 
L 81.433636 204.12196 
L 79.272879 203.155229 
L 78.548166 202.823838 
L 77.112121 202.156501 
L 74.951364 201.131162 
L 74.137727 200.73697 
L 72.790606 200.073543 
L 70.629848 198.987932 
L 69.9707 198.650101 
L 68.469091 197.867587 
L 66.308333 196.719971 
L 66.018852 196.563232 
L 64.147576 195.53279 
L 62.26358 194.476364 
L 61.986818 194.318485 
L 59.826061 193.062928 
L 58.687345 192.389495 
L 57.665303 191.774422 
L 55.504545 190.451372 
L 55.265811 190.302626 
L 53.343788 189.083658 
L 51.997789 188.215758 
L 51.18303 187.680826 
L 49.022273 186.23874 
L 48.860365 186.128889 
L 46.861515 184.747567 
L 45.856501 184.04202 
L 44.700758 183.215332 
L 42.966077 181.955152 
L 42.54 181.639664 
" style="fill:none;stroke:#f1cdba;"/>
   </g>
   <g id="LineCollection_28">
    <path clip-path="url(#p5176ece437)" d="M 256.455 210.124115 
L 249.972727 212.73685 
L 243.490455 215.073833 
L 237.008182 217.151621 
L 230.525909 218.985469 
L 224.043636 220.58946 
L 217.561364 221.97661 
L 211.079091 223.150571 
L 204.596818 224.122505 
L 198.114545 224.895622 
L 191.632273 225.480037 
L 185.15 225.875962 
L 178.667727 226.084841 
L 172.185455 226.112805 
L 165.703182 225.961439 
L 159.220909 225.630079 
L 152.738636 225.117106 
L 146.256364 224.426857 
L 139.774091 223.558884 
L 133.291818 222.502943 
L 126.809545 221.266686 
L 118.97655 219.518788 
L 113.845 218.219665 
L 107.362727 216.402403 
L 100.880455 214.381067 
L 94.398182 212.14771 
L 87.915909 209.693964 
L 81.402699 206.997576 
L 74.951364 204.075569 
L 68.177837 200.73697 
L 61.986818 197.412848 
L 56.892263 194.476364 
L 51.18303 190.944613 
L 46.861515 188.095494 
L 42.54 185.071621 
L 42.54 185.071621 
" style="fill:none;stroke:#f3c7b1;"/>
   </g>
   <g id="LineCollection_29">
    <path clip-path="url(#p5176ece437)" d="M 256.455 213.132515 
L 256.149048 213.258182 
L 254.294242 214.00608 
L 252.133485 214.852691 
L 250.839666 215.345051 
L 249.972727 215.669039 
L 247.81197 216.452899 
L 245.651212 217.212657 
L 245.007761 217.431919 
L 243.490455 217.939858 
L 241.329697 218.639911 
L 239.168939 219.316517 
L 238.500365 219.518788 
L 237.008182 219.962444 
L 234.847424 220.582193 
L 232.686667 221.179118 
L 231.081923 221.605657 
L 230.525909 221.750942 
L 228.365152 222.293678 
L 226.204394 222.814179 
L 224.043636 223.312517 
L 222.319855 223.692525 
L 221.882879 223.787258 
L 219.722121 224.234402 
L 217.561364 224.659941 
L 215.400606 225.063941 
L 213.239848 225.446467 
L 211.247931 225.779394 
L 211.079091 225.807155 
L 208.918333 226.141746 
L 206.757576 226.455393 
L 204.596818 226.748156 
L 202.436061 227.020098 
L 200.275303 227.271281 
L 198.114545 227.501767 
L 195.953788 227.711615 
L 194.188635 227.866263 
L 193.79303 227.900371 
L 191.632273 228.066614 
L 189.471515 228.212711 
L 187.310758 228.338723 
L 185.15 228.444705 
L 182.989242 228.530718 
L 180.828485 228.596818 
L 178.667727 228.643063 
L 176.50697 228.66951 
L 174.346212 228.676217 
L 172.185455 228.663241 
L 170.024697 228.630637 
L 167.863939 228.578463 
L 165.703182 228.506775 
L 163.542424 228.415628 
L 161.381667 228.30508 
L 159.220909 228.175184 
L 157.060152 228.025997 
L 155.010964 227.866263 
L 154.899394 227.857445 
L 152.738636 227.667051 
L 150.577879 227.457252 
L 148.417121 227.228104 
L 146.256364 226.979663 
L 144.095606 226.711984 
L 141.934848 226.425124 
L 139.774091 226.119137 
L 137.613333 225.794079 
L 137.5212 225.779394 
L 135.452576 225.445071 
L 133.291818 225.076607 
L 131.131061 224.688964 
L 128.970303 224.282197 
L 126.809545 223.856362 
L 126.014228 223.692525 
L 124.648788 223.407263 
L 122.48803 222.936453 
L 120.327273 222.446468 
L 118.166515 221.937365 
L 116.809964 221.605657 
L 116.005758 221.406196 
L 113.845 220.850666 
L 111.684242 220.275913 
L 109.523485 219.681995 
L 108.948639 219.518788 
L 107.362727 219.062008 
L 105.20197 218.420165 
L 103.041212 217.759053 
L 102.00275 217.431919 
L 100.880455 217.073196 
L 98.719697 216.362775 
L 96.558939 215.632983 
L 95.728932 215.345051 
L 94.398182 214.876558 
L 92.237424 214.096024 
L 90.076667 213.296015 
L 89.977002 213.258182 
L 87.915909 212.464026 
L 85.755152 211.61179 
L 84.664008 211.171313 
L 83.594394 210.732945 
L 81.433636 209.827107 
L 79.700256 209.084444 
L 79.272879 208.898504 
L 77.112121 207.937634 
L 75.041159 206.997576 
L 74.951364 206.956176 
L 72.790606 205.938787 
L 70.649409 204.910707 
L 70.629848 204.901166 
L 68.469091 203.825709 
L 66.493551 202.823838 
L 66.308333 202.728389 
L 64.147576 201.593253 
L 62.546878 200.73697 
L 61.986818 200.432453 
L 59.826061 199.235957 
L 58.786568 198.650101 
L 57.665303 198.007629 
L 55.504545 196.748021 
L 55.193002 196.563232 
L 53.343788 195.447826 
L 51.75952 194.476364 
L 51.18303 194.116778 
L 49.022273 192.746566 
L 48.468253 192.389495 
L 46.861515 191.335819 
L 45.310498 190.302626 
L 44.700758 189.889221 
L 42.54 188.401225 
" style="fill:none;stroke:#f5c1a9;"/>
   </g>
   <g id="LineCollection_30">
    <path clip-path="url(#p5176ece437)" d="M 256.455 216.060994 
L 254.294242 216.914461 
L 252.946283 217.431919 
L 252.133485 217.738424 
L 249.972727 218.529968 
L 247.81197 219.297767 
L 247.170671 219.518788 
L 245.651212 220.033387 
L 243.490455 220.742223 
L 241.329697 221.427951 
L 240.750719 221.605657 
L 239.168939 222.0829 
L 237.008182 222.712435 
L 234.847424 223.319465 
L 233.469049 223.692525 
L 232.686667 223.900746 
L 230.525909 224.454181 
L 228.365152 224.985686 
L 226.204394 225.495327 
L 224.946742 225.779394 
L 224.043636 225.980042 
L 221.882879 226.439007 
L 219.722121 226.876653 
L 217.561364 227.293045 
L 215.400606 227.688246 
L 214.372864 227.866263 
L 213.239848 228.059367 
L 211.079091 228.407069 
L 208.918333 228.734094 
L 206.757576 229.040504 
L 204.596818 229.326357 
L 202.436061 229.591715 
L 200.275303 229.836637 
L 199.154828 229.953131 
L 198.114545 230.059591 
L 195.953788 230.260816 
L 193.79303 230.442087 
L 191.632273 230.60346 
L 189.471515 230.744994 
L 187.310758 230.866744 
L 185.15 230.968768 
L 182.989242 231.05112 
L 180.828485 231.113859 
L 178.667727 231.157039 
L 176.50697 231.180715 
L 174.346212 231.184945 
L 172.185455 231.169782 
L 170.024697 231.135282 
L 167.863939 231.081499 
L 165.703182 231.008489 
L 163.542424 230.916306 
L 161.381667 230.805003 
L 159.220909 230.674635 
L 157.060152 230.525255 
L 154.899394 230.356918 
L 152.738636 230.169677 
L 150.577879 229.963584 
L 150.477541 229.953131 
L 148.417121 229.735557 
L 146.256364 229.488364 
L 144.095606 229.222212 
L 141.934848 228.937155 
L 139.774091 228.633247 
L 137.613333 228.310541 
L 135.452576 227.96909 
L 134.836053 227.866263 
L 133.291818 227.605155 
L 131.131061 227.2208 
L 128.970303 226.817596 
L 126.809545 226.395598 
L 124.648788 225.954859 
L 123.824031 225.779394 
L 122.48803 225.491205 
L 120.327273 225.006039 
L 118.166515 224.502029 
L 116.005758 223.979232 
L 114.862294 223.692525 
L 113.845 223.433863 
L 111.684242 222.86523 
L 109.523485 222.277707 
L 107.362727 221.67135 
L 107.135858 221.605657 
L 105.20197 221.037697 
L 103.041212 220.384052 
L 100.880455 219.711474 
L 100.278749 219.518788 
L 98.719697 219.012331 
L 96.558939 218.291124 
L 94.398182 217.550884 
L 94.05989 217.431919 
L 92.237424 216.781675 
L 90.076667 215.991417 
L 88.351469 215.345051 
L 87.915909 215.179448 
L 85.755152 214.337893 
L 83.594394 213.477048 
L 83.057447 213.258182 
L 81.433636 212.586377 
L 79.272879 211.672745 
L 78.112182 211.171313 
L 77.112121 210.732712 
L 74.951364 209.76491 
L 73.46269 209.084444 
L 72.790606 208.772502 
L 70.629848 207.749093 
L 69.073591 206.997576 
L 68.469091 206.701098 
L 66.308333 205.620584 
L 64.914928 204.910707 
L 64.147576 204.513572 
L 61.986818 203.374397 
L 60.961173 202.823838 
L 59.826061 202.204704 
L 57.665303 201.005248 
L 57.190432 200.73697 
L 55.504545 199.768954 
L 53.588253 198.650101 
L 53.343788 198.504994 
L 51.18303 197.200442 
L 50.144638 196.563232 
L 49.022273 195.862863 
L 46.861515 194.492917 
L 46.835827 194.476364 
L 44.700758 193.076984 
L 43.667835 192.389495 
L 42.54 191.625732 
" style="fill:none;stroke:#f7ba9f;"/>
   </g>
   <g id="LineCollection_31">
    <path clip-path="url(#p5176ece437)" d="M 147.004778 232.04 
L 146.256364 231.954866 
L 144.095606 231.690236 
L 141.934848 231.40697 
L 139.774091 231.105121 
L 137.613333 230.784739 
L 135.452576 230.445877 
L 133.291818 230.088586 
L 132.513175 229.953131 
L 131.131061 229.709432 
L 128.970303 229.309729 
L 126.809545 228.891497 
L 124.648788 228.454789 
L 122.48803 227.999656 
L 121.879726 227.866263 
L 120.327273 227.521165 
L 118.166515 227.022142 
L 116.005758 226.504595 
L 113.845 225.968579 
L 113.108163 225.779394 
L 111.684242 225.408733 
L 109.523485 224.82746 
L 107.362727 224.227619 
L 105.493155 223.692525 
L 105.20197 223.608016 
L 103.041212 222.961661 
L 100.880455 222.296642 
L 98.719697 221.613012 
L 98.697084 221.605657 
L 96.558939 220.90029 
L 94.398182 220.168695 
L 92.526791 219.518788 
L 92.237424 219.416851 
L 90.076667 218.636096 
L 87.915909 217.836483 
L 86.848326 217.431919 
L 85.755152 217.01163 
L 83.594394 216.161465 
L 81.56479 215.345051 
L 81.433636 215.291516 
L 79.272879 214.38951 
L 77.112121 213.468398 
L 76.629368 213.258182 
L 74.951364 212.516576 
L 72.790606 211.54213 
L 71.984761 211.171313 
L 70.629848 210.538393 
L 68.469091 209.509223 
L 67.594273 209.084444 
L 66.308333 208.450446 
L 64.147576 207.365106 
L 63.429309 206.997576 
L 61.986818 206.247961 
L 59.826061 205.104947 
L 59.465406 204.910707 
L 57.665303 203.925879 
L 55.684833 202.823838 
L 55.504545 202.721904 
L 53.343788 201.478841 
L 52.075288 200.73697 
L 51.18303 200.206626 
L 49.022273 198.901163 
L 48.613437 198.650101 
L 46.861515 197.556439 
L 45.295106 196.563232 
L 44.700758 196.180027 
L 42.54 194.765008 
" style="fill:none;stroke:#f7b396;"/>
    <path clip-path="url(#p5176ece437)" d="M 256.455 218.924683 
L 254.920296 219.518788 
L 254.294242 219.756924 
L 252.133485 220.555972 
L 249.972727 221.331622 
L 249.186203 221.605657 
L 247.81197 222.076282 
L 245.651212 222.793692 
L 243.490455 223.488321 
L 242.834248 223.692525 
L 241.329697 224.152883 
L 239.168939 224.791968 
L 237.008182 225.408858 
L 235.662556 225.779394 
L 234.847424 226.000161 
L 232.686667 226.564037 
L 230.525909 227.106279 
L 228.365152 227.62695 
L 227.329768 227.866263 
L 226.204394 228.122181 
L 224.043636 228.592682 
L 221.882879 229.042144 
L 219.722121 229.470628 
L 217.561364 229.878196 
L 217.142995 229.953131 
L 215.400606 230.260282 
L 213.239848 230.620779 
L 211.079091 230.960863 
L 208.918333 231.28059 
L 206.757576 231.58002 
L 204.596818 231.859212 
L 203.089061 232.04 
" style="fill:none;stroke:#f7b396;"/>
   </g>
   <g id="LineCollection_32">
    <path clip-path="url(#p5176ece437)" d="M 130.495055 232.04 
L 128.970303 231.76045 
L 126.809545 231.345915 
L 124.648788 230.913161 
L 122.48803 230.462237 
L 120.327273 229.993194 
L 120.14971 229.953131 
L 118.166515 229.499632 
L 116.005758 228.987225 
L 113.845 228.456605 
L 111.684242 227.907823 
L 111.525971 227.866263 
L 109.523485 227.333265 
L 107.362727 226.739792 
L 105.20197 226.128063 
L 104.006493 225.779394 
L 103.041212 225.493977 
L 100.880455 224.836337 
L 98.719697 224.160347 
L 97.264198 223.692525 
L 96.558939 223.462677 
L 94.398182 222.739514 
L 92.237424 221.997908 
L 91.12273 221.605657 
L 90.076667 221.232352 
L 87.915909 220.442268 
L 85.755152 219.633649 
L 85.455337 219.518788 
L 83.594394 218.795646 
L 81.433636 217.937199 
L 80.189355 217.431919 
L 79.272879 217.054357 
L 77.112121 216.144835 
L 75.250759 215.345051 
L 74.951364 215.214516 
L 72.790606 214.252623 
L 70.629848 213.271805 
L 70.600433 213.258182 
L 68.469091 212.256413 
L 66.308333 211.221728 
L 66.205052 211.171313 
L 64.147576 210.151822 
L 62.031613 209.084444 
L 61.986818 209.061502 
L 59.826061 207.934215 
L 58.061421 206.997576 
L 57.665303 206.784053 
L 55.504545 205.598691 
L 54.271347 204.910707 
L 53.343788 204.385068 
L 51.18303 203.140061 
L 50.643203 202.823838 
L 49.022273 201.859113 
L 47.166402 200.73697 
L 46.861515 200.54962 
L 44.700758 199.200425 
L 43.832912 198.650101 
L 42.54 197.816679 
" style="fill:none;stroke:#f7aa8c;"/>
    <path clip-path="url(#p5176ece437)" d="M 256.455 221.726837 
L 254.294242 222.533215 
L 252.133485 223.316531 
L 251.065516 223.692525 
L 249.972727 224.070787 
L 247.81197 224.796567 
L 245.651212 225.499885 
L 244.764788 225.779394 
L 243.490455 226.174587 
L 241.329697 226.822993 
L 239.168939 227.449508 
L 237.680198 227.866263 
L 237.008182 228.051337 
L 234.847424 228.625406 
L 232.686667 229.178126 
L 230.525909 229.709562 
L 229.494926 229.953131 
L 228.365152 230.215795 
L 226.204394 230.697559 
L 224.043636 231.158554 
L 221.882879 231.598841 
L 219.722121 232.01848 
L 219.605704 232.04 
" style="fill:none;stroke:#f7aa8c;"/>
   </g>
   <g id="LineCollection_33">
    <path clip-path="url(#p5176ece437)" d="M 118.624655 232.04 
L 118.166515 231.936318 
L 116.005758 231.428943 
L 113.845 230.903604 
L 111.684242 230.36035 
L 110.11652 229.953131 
L 109.523485 229.797018 
L 107.362727 229.20977 
L 105.20197 228.604515 
L 103.041212 227.981305 
L 102.65378 227.866263 
L 100.880455 227.332544 
L 98.719697 226.664012 
L 96.558939 225.977435 
L 95.952006 225.779394 
L 94.398182 225.265414 
L 92.237424 224.53229 
L 90.076667 223.781031 
L 89.828303 223.692525 
L 87.915909 223.001555 
L 85.755152 222.202484 
L 84.177681 221.605657 
L 83.594394 221.381863 
L 81.433636 220.533813 
L 79.272879 219.667395 
L 78.910234 219.518788 
L 77.112121 218.771429 
L 74.951364 217.85468 
L 73.97512 217.431919 
L 72.790606 216.911549 
L 70.629848 215.943214 
L 69.320772 215.345051 
L 68.469091 214.950183 
L 66.308333 213.92896 
L 64.915154 213.258182 
L 64.147576 212.883122 
L 61.986818 211.807658 
L 60.730927 211.171313 
L 59.826061 210.705919 
L 57.665303 209.574811 
L 56.744617 209.084444 
L 55.504545 208.413876 
L 53.343788 207.225664 
L 52.935954 206.997576 
L 51.18303 206.002022 
L 49.292038 204.910707 
L 49.022273 204.75257 
L 46.861515 203.465097 
L 45.801989 202.823838 
L 44.700758 202.146686 
L 42.54 200.797526 
" style="fill:none;stroke:#f6a283;"/>
    <path clip-path="url(#p5176ece437)" d="M 256.455 224.463863 
L 254.294242 225.254665 
L 252.818668 225.779394 
L 252.133485 226.019014 
L 249.972727 226.752968 
L 247.81197 227.464769 
L 246.554688 227.866263 
L 245.651212 228.15008 
L 243.490455 228.807588 
L 241.329697 229.443499 
L 239.537626 229.953131 
L 239.168939 230.056304 
L 237.008182 230.640324 
L 234.847424 231.203277 
L 232.686667 231.745222 
L 231.464639 232.04 
" style="fill:none;stroke:#f6a283;"/>
   </g>
   <g id="LineCollection_34">
    <path clip-path="url(#p5176ece437)" d="M 108.852784 232.04 
L 107.362727 231.639345 
L 105.20197 231.040419 
L 103.041212 230.423779 
L 101.438331 229.953131 
L 100.880455 229.787131 
L 98.719697 229.125883 
L 96.558939 228.446833 
L 94.758888 227.866263 
L 94.398182 227.748348 
L 92.237424 227.023501 
L 90.076667 226.280765 
L 88.65275 225.779394 
L 87.915909 225.51639 
L 85.755152 224.726629 
L 83.594394 223.918891 
L 83.002405 223.692525 
L 81.433636 223.084336 
L 79.272879 222.228303 
L 77.734127 221.605657 
L 77.112121 221.350428 
L 74.951364 220.444928 
L 72.790606 219.521227 
L 72.785017 219.518788 
L 70.629848 218.565082 
L 68.469091 217.590557 
L 68.124119 217.431919 
L 66.308333 216.58488 
L 64.147576 215.55827 
L 63.707067 215.345051 
L 61.986818 214.50023 
L 59.826061 213.420227 
L 59.507615 213.258182 
L 57.665303 212.306813 
L 55.504545 211.172057 
L 55.503154 211.171313 
L 53.343788 210.000066 
L 51.68292 209.084444 
L 51.18303 208.804657 
L 49.022273 207.575172 
L 48.023244 206.997576 
L 46.861515 206.315522 
L 44.700758 205.027033 
L 44.508737 204.910707 
L 42.54 203.699332 
" style="fill:none;stroke:#f4987a;"/>
    <path clip-path="url(#p5176ece437)" d="M 256.455 227.148071 
L 254.454755 227.866263 
L 254.294242 227.922953 
L 252.133485 228.664891 
L 249.972727 229.384977 
L 248.215003 229.953131 
L 247.81197 230.081315 
L 245.651212 230.747713 
L 243.490455 231.392798 
L 241.329697 232.016634 
L 241.245999 232.04 
" style="fill:none;stroke:#f4987a;"/>
   </g>
   <g id="LineCollection_35">
    <path clip-path="url(#p5176ece437)" d="M 100.346161 232.04 
L 98.719697 231.547727 
L 96.558939 230.87603 
L 94.398182 230.186818 
L 93.684093 229.953131 
L 92.237424 229.473389 
L 90.076667 228.738972 
L 87.915909 227.986955 
L 87.577299 227.866263 
L 85.755152 227.208019 
L 83.594394 226.409605 
L 81.92616 225.779394 
L 81.433636 225.590789 
L 79.272879 224.74488 
L 77.112121 223.881153 
L 76.650094 223.692525 
L 74.951364 222.989407 
L 72.790606 222.076913 
L 71.696677 221.605657 
L 70.629848 221.139635 
L 68.469091 220.177195 
L 67.01857 219.518788 
L 66.308333 219.191827 
L 64.147576 218.17822 
L 62.585099 217.431919 
L 61.986818 217.142045 
L 59.826061 216.076005 
L 58.369986 215.345051 
L 57.665303 214.986138 
L 55.504545 213.86635 
L 54.350586 213.258182 
L 53.343788 212.719727 
L 51.18303 211.544827 
L 50.507279 211.171313 
L 49.022273 210.338187 
L 46.861515 209.10676 
L 46.822986 209.084444 
L 44.700758 207.836633 
L 43.295225 206.997576 
L 42.54 206.539771 
" style="fill:none;stroke:#f29072;"/>
    <path clip-path="url(#p5176ece437)" d="M 256.455 229.781895 
L 255.969327 229.953131 
L 254.294242 230.534222 
L 252.133485 231.2624 
L 249.972727 231.969083 
L 249.749306 232.04 
" style="fill:none;stroke:#f29072;"/>
   </g>
   <g id="LineCollection_36">
    <path clip-path="url(#p5176ece437)" d="M 92.714194 232.04 
L 92.237424 231.883697 
L 90.076667 231.157402 
L 87.915909 230.413739 
L 86.608517 229.953131 
L 85.755152 229.648481 
L 83.594394 228.859163 
L 81.433636 228.052396 
L 80.945992 227.866263 
L 79.272879 227.219041 
L 77.112121 226.365423 
L 75.659006 225.779394 
L 74.951364 225.490117 
L 72.790606 224.588546 
L 70.684464 223.692525 
L 70.629848 223.668969 
L 68.469091 222.718302 
L 66.308333 221.74984 
L 65.992688 221.605657 
L 64.147576 220.751051 
L 61.986818 219.732176 
L 61.542426 219.518788 
L 59.826061 218.682958 
L 57.665303 217.612442 
L 57.307253 217.431919 
L 55.504545 216.509985 
L 53.343788 215.386556 
L 53.265302 215.345051 
L 51.18303 214.227876 
L 49.404167 213.258182 
L 49.022273 213.046932 
L 46.861515 211.832141 
L 45.704254 211.171313 
L 44.700758 210.589717 
L 42.54 209.318039 
" style="fill:none;stroke:#ee8669;"/>
   </g>
   <g id="LineCollection_37">
    <path clip-path="url(#p5176ece437)" d="M 85.728218 232.04 
L 83.594394 231.269296 
L 81.433636 230.471634 
L 80.059144 229.953131 
L 79.272879 229.652591 
L 77.112121 228.808834 
L 74.951364 227.947775 
L 74.751 227.866263 
L 72.790606 227.058024 
L 70.629848 226.149672 
L 69.766065 225.779394 
L 68.469091 225.215864 
L 66.308333 224.259109 
L 65.052238 223.692525 
L 64.147576 223.278844 
L 61.986818 222.272539 
L 60.58001 221.605657 
L 59.826061 221.243271 
L 57.665303 220.186226 
L 56.324005 219.518788 
L 55.504545 219.105258 
L 53.343788 217.996242 
L 52.26228 217.431919 
L 51.18303 216.860712 
L 49.022273 215.698447 
L 48.375765 215.345051 
L 46.861515 214.505317 
L 44.700758 213.288478 
L 44.647804 213.258182 
L 42.54 212.034522 
" style="fill:none;stroke:#ea7b60;"/>
   </g>
   <g id="LineCollection_38">
    <path clip-path="url(#p5176ece437)" d="M 79.254151 232.04 
L 77.112121 231.213099 
L 74.951364 230.361884 
L 73.93461 229.953131 
L 72.790606 229.487136 
L 70.629848 228.589395 
L 68.922318 227.866263 
L 68.469091 227.671751 
L 66.308333 226.726408 
L 64.182643 225.779394 
L 64.147576 225.763559 
L 61.986818 224.769501 
L 59.826061 223.758037 
L 59.688592 223.692525 
L 57.665303 222.715074 
L 55.504545 221.653615 
L 55.408588 221.605657 
L 53.343788 220.559342 
L 51.323164 219.518788 
L 51.18303 219.445606 
L 49.022273 218.298321 
L 47.415841 217.431919 
L 46.861515 217.128681 
L 44.700758 215.927816 
L 43.66812 215.345051 
L 42.54 214.69918 
" style="fill:none;stroke:#e57058;"/>
   </g>
   <g id="LineCollection_39">
    <path clip-path="url(#p5176ece437)" d="M 73.194126 232.04 
L 72.790606 231.877572 
L 70.629848 230.990181 
L 68.469091 230.085856 
L 68.158019 229.953131 
L 66.308333 229.153514 
L 64.147576 228.202241 
L 63.398277 227.866263 
L 61.986818 227.224922 
L 59.826061 226.22562 
L 58.877958 225.779394 
L 57.665303 225.200935 
L 55.504545 224.152485 
L 54.572458 223.692525 
L 53.343788 223.077903 
L 51.18303 221.979147 
L 50.460436 221.605657 
L 49.022273 220.85199 
L 46.861515 219.70173 
L 46.523285 219.518788 
L 44.700758 218.519158 
L 42.748118 217.431919 
L 42.54 217.314386 
" style="fill:none;stroke:#e0654f;"/>
   </g>
   <g id="LineCollection_40">
    <path clip-path="url(#p5176ece437)" d="M 67.473937 232.04 
L 66.308333 231.542105 
L 64.147576 230.6019 
L 62.683181 229.953131 
L 61.986818 229.640559 
L 59.826061 228.653112 
L 58.133586 227.866263 
L 57.665303 227.645649 
L 55.504545 226.609874 
L 53.800419 225.779394 
L 53.343788 225.553856 
L 51.18303 224.468632 
L 49.662216 223.692525 
L 49.022273 223.361482 
L 46.861515 222.225646 
L 45.700258 221.605657 
L 44.700758 221.064637 
L 42.54 219.876986 
" style="fill:none;stroke:#da5a49;"/>
   </g>
   <g id="LineCollection_41">
    <path clip-path="url(#p5176ece437)" d="M 62.036268 232.04 
L 61.986818 232.018069 
L 59.826061 231.042182 
L 57.665303 230.049596 
L 57.458942 229.953131 
L 55.504545 229.027533 
L 53.343788 227.987298 
L 53.096564 227.866263 
L 51.18303 226.91698 
L 49.022273 225.828006 
L 48.927373 225.779394 
L 46.861515 224.706918 
L 44.937073 223.692525 
L 44.700758 223.566261 
L 42.54 222.39356 
" style="fill:none;stroke:#d44e41;"/>
   </g>
   <g id="LineCollection_42">
    <path clip-path="url(#p5176ece437)" d="M 56.857141 232.04 
L 55.504545 231.407112 
L 53.343788 230.379135 
L 52.463014 229.953131 
L 51.18303 229.325924 
L 49.022273 228.250013 
L 48.263795 227.866263 
L 46.861515 227.147364 
L 44.700758 226.022427 
L 44.241143 225.779394 
L 42.54 224.867781 
" style="fill:none;stroke:#cc403a;"/>
   </g>
   <g id="LineCollection_43">
    <path clip-path="url(#p5176ece437)" d="M 51.891356 232.04 
L 51.18303 231.697097 
L 49.022273 230.633923 
L 47.660212 229.953131 
L 46.861515 229.548698 
L 44.700758 228.43731 
L 43.607337 227.866263 
L 42.54 227.301451 
" style="fill:none;stroke:#c43032;"/>
   </g>
   <g id="LineCollection_44">
    <path clip-path="url(#p5176ece437)" d="M 47.116312 232.04 
L 46.861515 231.91254 
L 44.700758 230.814362 
L 43.031451 229.953131 
L 42.54 229.696269 
" style="fill:none;stroke:#bb1b2c;"/>
   </g>
   <g id="LineCollection_45"/>
   <g id="line2d_11">
    <path clip-path="url(#p5176ece437)" d="M 42.54 128.74 
L 256.455 128.74 
" style="fill:none;stroke:#000000;stroke-linecap:square;stroke-width:0.5;"/>
   </g>
   <g id="line2d_12">
    <path clip-path="url(#p5176ece437)" d="M 149.4975 232.04 
L 149.4975 25.44 
" style="fill:none;stroke:#000000;stroke-linecap:square;stroke-width:0.5;"/>
   </g>
   <g id="line2d_13">
    <path clip-path="url(#p5176ece437)" d="M 170.889 128.74 
L 170.843199 127.388771 
L 170.705993 126.043329 
L 170.477968 124.709434 
L 170.160102 123.392799 
L 169.753756 122.099061 
L 169.260669 120.83376 
L 168.682953 119.602316 
L 168.023082 118.41 
L 167.283882 117.261919 
L 166.468518 116.162989 
L 165.580481 115.117915 
L 164.623575 114.131174 
L 163.601896 113.20699 
L 162.51982 112.34932 
L 161.381981 111.561838 
L 160.19325 110.847915 
L 158.958719 110.210609 
L 157.683673 109.652649 
L 156.373572 109.176424 
L 155.034028 108.783972 
L 153.670775 108.476976 
L 152.289651 108.256749 
L 150.896571 108.124235 
L 149.4975 108.08 
L 149.4975 108.08 
L 148.098429 108.124235 
L 146.705349 108.256749 
L 145.324225 108.476976 
L 143.960972 108.783972 
L 142.621428 109.176424 
L 141.311327 109.652649 
L 140.036281 110.210609 
L 138.80175 110.847915 
L 137.613019 111.561838 
L 136.47518 112.34932 
L 135.393104 113.20699 
L 134.371425 114.131174 
L 133.414519 115.117915 
L 132.526482 116.162989 
L 131.711118 117.261919 
L 130.971918 118.41 
L 130.312047 119.602316 
L 129.734331 120.83376 
L 129.241244 122.099061 
L 128.834898 123.392799 
L 128.517032 124.709434 
L 128.289007 126.043329 
L 128.151801 127.388771 
L 128.106 128.74 
L 128.106 128.74 
L 128.151801 130.091229 
L 128.289007 131.436671 
L 128.517032 132.770566 
L 128.834898 134.087201 
L 129.241244 135.380939 
L 129.734331 136.64624 
L 130.312047 137.877684 
L 130.971918 139.07 
L 131.711118 140.218081 
L 132.526482 141.317011 
L 133.414519 142.362085 
L 134.371425 143.348826 
L 135.393104 144.27301 
L 136.47518 145.13068 
L 137.613019 145.918162 
L 138.80175 146.632085 
L 140.036281 147.269391 
L 141.311327 147.827351 
L 142.621428 148.303576 
L 143.960972 148.696028 
L 145.324225 149.003024 
L 146.705349 149.223251 
L 148.098429 149.355765 
L 149.4975 149.4 
L 149.4975 149.4 
L 150.896571 149.355765 
L 152.289651 149.223251 
L 153.670775 149.003024 
L 155.034028 148.696028 
L 156.373572 148.303576 
L 157.683673 147.827351 
L 158.958719 147.269391 
L 160.19325 146.632085 
L 161.381981 145.918162 
L 162.51982 145.13068 
L 163.601896 144.27301 
L 164.623575 143.348826 
L 165.580481 142.362085 
L 166.468518 141.317011 
L 167.283882 140.218081 
L 168.023082 139.07 
L 168.682953 137.877684 
L 169.260669 136.64624 
L 169.753756 135.380939 
L 170.160102 134.087201 
L 170.477968 132.770566 
L 170.705993 131.436671 
L 170.843199 130.091229 
L 170.889 128.74 
" style="fill:none;stroke:#2d435d;stroke-linecap:square;stroke-width:1.5;"/>
   </g>
   <g id="patch_3">
    <path d="M 42.54 232.04 
L 42.54 25.44 
" style="fill:none;stroke:#000000;stroke-linecap:square;stroke-linejoin:miter;stroke-width:0.8;"/>
   </g>
   <g id="patch_4">
    <path d="M 256.455 232.04 
L 256.455 25.44 
" style="fill:none;stroke:#000000;stroke-linecap:square;stroke-linejoin:miter;stroke-width:0.8;"/>
   </g>
   <g id="patch_5">
    <path d="M 42.54 232.04 
L 256.455 232.04 
" style="fill:none;stroke:#000000;stroke-linecap:square;stroke-linejoin:miter;stroke-width:0.8;"/>
   </g>
   <g id="patch_6">
    <path d="M 42.54 25.44 
L 256.455 25.44 
" style="fill:none;stroke:#000000;stroke-linecap:square;stroke-linejoin:miter;stroke-width:0.8;"/>
   </g>
   <g id="text_13">
    <!-- l2 constraint w/loss function -->
    <defs>
     <path d="M 9.421875 75.984375 
L 18.40625 75.984375 
L 18.40625 0 
L 9.421875 0 
z
" id="DejaVuSans-108"/>
     <path id="DejaVuSans-32"/>
     <path d="M 48.78125 52.59375 
L 48.78125 44.1875 
Q 44.96875 46.296875 41.140625 47.34375 
Q 37.3125 48.390625 33.40625 48.390625 
Q 24.65625 48.390625 19.8125 42.84375 
Q 14.984375 37.3125 14.984375 27.296875 
Q 14.984375 17.28125 19.8125 11.734375 
Q 24.65625 6.203125 33.40625 6.203125 
Q 37.3125 6.203125 41.140625 7.25 
Q 44.96875 8.296875 48.78125 10.40625 
L 48.78125 2.09375 
Q 45.015625 0.34375 40.984375 -0.53125 
Q 36.96875 -1.421875 32.421875 -1.421875 
Q 20.0625 -1.421875 12.78125 6.34375 
Q 5.515625 14.109375 5.515625 27.296875 
Q 5.515625 40.671875 12.859375 48.328125 
Q 20.21875 56 33.015625 56 
Q 37.15625 56 41.109375 55.140625 
Q 45.0625 54.296875 48.78125 52.59375 
z
" id="DejaVuSans-99"/>
     <path d="M 30.609375 48.390625 
Q 23.390625 48.390625 19.1875 42.75 
Q 14.984375 37.109375 14.984375 27.296875 
Q 14.984375 17.484375 19.15625 11.84375 
Q 23.34375 6.203125 30.609375 6.203125 
Q 37.796875 6.203125 41.984375 11.859375 
Q 46.1875 17.53125 46.1875 27.296875 
Q 46.1875 37.015625 41.984375 42.703125 
Q 37.796875 48.390625 30.609375 48.390625 
z
M 30.609375 56 
Q 42.328125 56 49.015625 48.375 
Q 55.71875 40.765625 55.71875 27.296875 
Q 55.71875 13.875 49.015625 6.21875 
Q 42.328125 -1.421875 30.609375 -1.421875 
Q 18.84375 -1.421875 12.171875 6.21875 
Q 5.515625 13.875 5.515625 27.296875 
Q 5.515625 40.765625 12.171875 48.375 
Q 18.84375 56 30.609375 56 
z
" id="DejaVuSans-111"/>
     <path d="M 54.890625 33.015625 
L 54.890625 0 
L 45.90625 0 
L 45.90625 32.71875 
Q 45.90625 40.484375 42.875 44.328125 
Q 39.84375 48.1875 33.796875 48.1875 
Q 26.515625 48.1875 22.3125 43.546875 
Q 18.109375 38.921875 18.109375 30.90625 
L 18.109375 0 
L 9.078125 0 
L 9.078125 54.6875 
L 18.109375 54.6875 
L 18.109375 46.1875 
Q 21.34375 51.125 25.703125 53.5625 
Q 30.078125 56 35.796875 56 
Q 45.21875 56 50.046875 50.171875 
Q 54.890625 44.34375 54.890625 33.015625 
z
" id="DejaVuSans-110"/>
     <path d="M 44.28125 53.078125 
L 44.28125 44.578125 
Q 40.484375 46.53125 36.375 47.5 
Q 32.28125 48.484375 27.875 48.484375 
Q 21.1875 48.484375 17.84375 46.4375 
Q 14.5 44.390625 14.5 40.28125 
Q 14.5 37.15625 16.890625 35.375 
Q 19.28125 33.59375 26.515625 31.984375 
L 29.59375 31.296875 
Q 39.15625 29.25 43.1875 25.515625 
Q 47.21875 21.78125 47.21875 15.09375 
Q 47.21875 7.46875 41.1875 3.015625 
Q 35.15625 -1.421875 24.609375 -1.421875 
Q 20.21875 -1.421875 15.453125 -0.5625 
Q 10.6875 0.296875 5.421875 2 
L 5.421875 11.28125 
Q 10.40625 8.6875 15.234375 7.390625 
Q 20.0625 6.109375 24.8125 6.109375 
Q 31.15625 6.109375 34.5625 8.28125 
Q 37.984375 10.453125 37.984375 14.40625 
Q 37.984375 18.0625 35.515625 20.015625 
Q 33.0625 21.96875 24.703125 23.78125 
L 21.578125 24.515625 
Q 13.234375 26.265625 9.515625 29.90625 
Q 5.8125 33.546875 5.8125 39.890625 
Q 5.8125 47.609375 11.28125 51.796875 
Q 16.75 56 26.8125 56 
Q 31.78125 56 36.171875 55.265625 
Q 40.578125 54.546875 44.28125 53.078125 
z
" id="DejaVuSans-115"/>
     <path d="M 18.3125 70.21875 
L 18.3125 54.6875 
L 36.8125 54.6875 
L 36.8125 47.703125 
L 18.3125 47.703125 
L 18.3125 18.015625 
Q 18.3125 11.328125 20.140625 9.421875 
Q 21.96875 7.515625 27.59375 7.515625 
L 36.8125 7.515625 
L 36.8125 0 
L 27.59375 0 
Q 17.1875 0 13.234375 3.875 
Q 9.28125 7.765625 9.28125 18.015625 
L 9.28125 47.703125 
L 2.6875 47.703125 
L 2.6875 54.6875 
L 9.28125 54.6875 
L 9.28125 70.21875 
z
" id="DejaVuSans-116"/>
     <path d="M 41.109375 46.296875 
Q 39.59375 47.171875 37.8125 47.578125 
Q 36.03125 48 33.890625 48 
Q 26.265625 48 22.1875 43.046875 
Q 18.109375 38.09375 18.109375 28.8125 
L 18.109375 0 
L 9.078125 0 
L 9.078125 54.6875 
L 18.109375 54.6875 
L 18.109375 46.1875 
Q 20.953125 51.171875 25.484375 53.578125 
Q 30.03125 56 36.53125 56 
Q 37.453125 56 38.578125 55.875 
Q 39.703125 55.765625 41.0625 55.515625 
z
" id="DejaVuSans-114"/>
     <path d="M 34.28125 27.484375 
Q 23.390625 27.484375 19.1875 25 
Q 14.984375 22.515625 14.984375 16.5 
Q 14.984375 11.71875 18.140625 8.90625 
Q 21.296875 6.109375 26.703125 6.109375 
Q 34.1875 6.109375 38.703125 11.40625 
Q 43.21875 16.703125 43.21875 25.484375 
L 43.21875 27.484375 
z
M 52.203125 31.203125 
L 52.203125 0 
L 43.21875 0 
L 43.21875 8.296875 
Q 40.140625 3.328125 35.546875 0.953125 
Q 30.953125 -1.421875 24.3125 -1.421875 
Q 15.921875 -1.421875 10.953125 3.296875 
Q 6 8.015625 6 15.921875 
Q 6 25.140625 12.171875 29.828125 
Q 18.359375 34.515625 30.609375 34.515625 
L 43.21875 34.515625 
L 43.21875 35.40625 
Q 43.21875 41.609375 39.140625 45 
Q 35.0625 48.390625 27.6875 48.390625 
Q 23 48.390625 18.546875 47.265625 
Q 14.109375 46.140625 10.015625 43.890625 
L 10.015625 52.203125 
Q 14.9375 54.109375 19.578125 55.046875 
Q 24.21875 56 28.609375 56 
Q 40.484375 56 46.34375 49.84375 
Q 52.203125 43.703125 52.203125 31.203125 
z
" id="DejaVuSans-97"/>
     <path d="M 9.421875 54.6875 
L 18.40625 54.6875 
L 18.40625 0 
L 9.421875 0 
z
M 9.421875 75.984375 
L 18.40625 75.984375 
L 18.40625 64.59375 
L 9.421875 64.59375 
z
" id="DejaVuSans-105"/>
     <path d="M 4.203125 54.6875 
L 13.1875 54.6875 
L 24.421875 12.015625 
L 35.59375 54.6875 
L 46.1875 54.6875 
L 57.421875 12.015625 
L 68.609375 54.6875 
L 77.59375 54.6875 
L 63.28125 0 
L 52.6875 0 
L 40.921875 44.828125 
L 29.109375 0 
L 18.5 0 
z
" id="DejaVuSans-119"/>
     <path d="M 25.390625 72.90625 
L 33.6875 72.90625 
L 8.296875 -9.28125 
L 0 -9.28125 
z
" id="DejaVuSans-47"/>
     <path d="M 37.109375 75.984375 
L 37.109375 68.5 
L 28.515625 68.5 
Q 23.6875 68.5 21.796875 66.546875 
Q 19.921875 64.59375 19.921875 59.515625 
L 19.921875 54.6875 
L 34.71875 54.6875 
L 34.71875 47.703125 
L 19.921875 47.703125 
L 19.921875 0 
L 10.890625 0 
L 10.890625 47.703125 
L 2.296875 47.703125 
L 2.296875 54.6875 
L 10.890625 54.6875 
L 10.890625 58.5 
Q 10.890625 67.625 15.140625 71.796875 
Q 19.390625 75.984375 28.609375 75.984375 
z
" id="DejaVuSans-102"/>
     <path d="M 8.5 21.578125 
L 8.5 54.6875 
L 17.484375 54.6875 
L 17.484375 21.921875 
Q 17.484375 14.15625 20.5 10.265625 
Q 23.53125 6.390625 29.59375 6.390625 
Q 36.859375 6.390625 41.078125 11.03125 
Q 45.3125 15.671875 45.3125 23.6875 
L 45.3125 54.6875 
L 54.296875 54.6875 
L 54.296875 0 
L 45.3125 0 
L 45.3125 8.40625 
Q 42.046875 3.421875 37.71875 1 
Q 33.40625 -1.421875 27.6875 -1.421875 
Q 18.265625 -1.421875 13.375 4.4375 
Q 8.5 10.296875 8.5 21.578125 
z
M 31.109375 56 
z
" id="DejaVuSans-117"/>
    </defs>
    <g transform="translate(72.087578 19.44)scale(0.11 -0.11)">
     <use xlink:href="#DejaVuSans-108"/>
     <use x="27.783203" xlink:href="#DejaVuSans-50"/>
     <use x="91.40625" xlink:href="#DejaVuSans-32"/>
     <use x="123.193359" xlink:href="#DejaVuSans-99"/>
     <use x="178.173828" xlink:href="#DejaVuSans-111"/>
     <use x="239.355469" xlink:href="#DejaVuSans-110"/>
     <use x="302.734375" xlink:href="#DejaVuSans-115"/>
     <use x="354.833984" xlink:href="#DejaVuSans-116"/>
     <use x="394.042969" xlink:href="#DejaVuSans-114"/>
     <use x="435.15625" xlink:href="#DejaVuSans-97"/>
     <use x="496.435547" xlink:href="#DejaVuSans-105"/>
     <use x="524.21875" xlink:href="#DejaVuSans-110"/>
     <use x="587.597656" xlink:href="#DejaVuSans-116"/>
     <use x="626.806641" xlink:href="#DejaVuSans-32"/>
     <use x="658.59375" xlink:href="#DejaVuSans-119"/>
     <use x="740.380859" xlink:href="#DejaVuSans-47"/>
     <use x="774.072266" xlink:href="#DejaVuSans-108"/>
     <use x="801.855469" xlink:href="#DejaVuSans-111"/>
     <use x="863.037109" xlink:href="#DejaVuSans-115"/>
     <use x="915.136719" xlink:href="#DejaVuSans-115"/>
     <use x="967.236328" xlink:href="#DejaVuSans-32"/>
     <use x="999.023438" xlink:href="#DejaVuSans-102"/>
     <use x="1034.228516" xlink:href="#DejaVuSans-117"/>
     <use x="1097.607422" xlink:href="#DejaVuSans-110"/>
     <use x="1160.986328" xlink:href="#DejaVuSans-99"/>
     <use x="1215.966797" xlink:href="#DejaVuSans-116"/>
     <use x="1255.175781" xlink:href="#DejaVuSans-105"/>
     <use x="1282.958984" xlink:href="#DejaVuSans-111"/>
     <use x="1344.140625" xlink:href="#DejaVuSans-110"/>
    </g>
   </g>
  </g>
 </g>
 <defs>
  <clipPath id="p5176ece437">
   <rect height="206.6" width="213.915" x="42.54" y="25.44"/>
  </clipPath>
 </defs>
</svg>
