<?xml version="1.0" encoding="utf-8" standalone="no"?>
<!DOCTYPE svg PUBLIC "-//W3C//DTD SVG 1.1//EN"
  "http://www.w3.org/Graphics/SVG/1.1/DTD/svg11.dtd">
<!-- Created with matplotlib (https://matplotlib.org/) -->
<svg height="273.6pt" version="1.1" viewBox="0 0 273.6 273.6" width="273.6pt" xmlns="http://www.w3.org/2000/svg" xmlns:xlink="http://www.w3.org/1999/xlink">
 <defs>
  <style type="text/css">
*{stroke-linecap:butt;stroke-linejoin:round;}
  </style>
 </defs>
 <g id="figure_1">
  <g id="patch_1">
   <path d="M 0 273.6 
L 273.6 273.6 
L 273.6 0 
L 0 0 
z
" style="fill:#ffffff;"/>
  </g>
  <g id="axes_1">
   <g id="patch_2">
    <path d="M 42.54 232.04 
L 256.455 232.04 
L 256.455 25.44 
L 42.54 25.44 
z
" style="fill:#ffffff;"/>
   </g>
   <g id="PathCollection_1">
    <defs>
     <path d="M 0 4.743416 
C 1.257969 4.743416 2.464584 4.24362 3.354102 3.354102 
C 4.24362 2.464584 4.743416 1.257969 4.743416 0 
C 4.743416 -1.257969 4.24362 -2.464584 3.354102 -3.354102 
C 2.464584 -4.24362 1.257969 -4.743416 0 -4.743416 
C -1.257969 -4.743416 -2.464584 -4.24362 -3.354102 -3.354102 
C -4.24362 -2.464584 -4.743416 -1.257969 -4.743416 0 
C -4.743416 1.257969 -4.24362 2.464584 -3.354102 3.354102 
C -2.464584 4.24362 -1.257969 4.743416 0 4.743416 
z
" id="mb26bd1acfe" style="stroke:#000000;"/>
    </defs>
    <g clip-path="url(#pa317a64234)">
     <use style="stroke:#000000;" x="202.97625" xlink:href="#mb26bd1acfe" y="77.09"/>
    </g>
   </g>
   <g id="PathCollection_2">
    <defs>
     <path d="M 0 4.743416 
C 1.257969 4.743416 2.464584 4.24362 3.354102 3.354102 
C 4.24362 2.464584 4.743416 1.257969 4.743416 0 
C 4.743416 -1.257969 4.24362 -2.464584 3.354102 -3.354102 
C 2.464584 -4.24362 1.257969 -4.743416 0 -4.743416 
C -1.257969 -4.743416 -2.464584 -4.24362 -3.354102 -3.354102 
C -4.24362 -2.464584 -4.743416 -1.257969 -4.743416 0 
C -4.743416 1.257969 -4.24362 2.464584 -3.354102 3.354102 
C -2.464584 4.24362 -1.257969 4.743416 0 4.743416 
z
" id="m94f9f86b9f" style="stroke:#e32ca6;"/>
    </defs>
    <g clip-path="url(#pa317a64234)">
     <use style="fill:#e32ca6;stroke:#e32ca6;" x="164.623575" xlink:href="#m94f9f86b9f" y="114.131174"/>
    </g>
   </g>
   <g id="matplotlib.axis_1">
    <g id="xtick_1">
     <g id="line2d_1">
      <defs>
       <path d="M 0 0 
L 0 3.5 
" id="mf8ca42800e" style="stroke:#000000;stroke-width:0.8;"/>
      </defs>
      <g>
       <use style="stroke:#000000;stroke-width:0.8;" x="42.54" xlink:href="#mf8ca42800e" y="232.04"/>
      </g>
     </g>
     <g id="text_1">
      <!-- −10 -->
      <defs>
       <path d="M 10.59375 35.5 
L 73.1875 35.5 
L 73.1875 27.203125 
L 10.59375 27.203125 
z
" id="DejaVuSans-8722"/>
       <path d="M 12.40625 8.296875 
L 28.515625 8.296875 
L 28.515625 63.921875 
L 10.984375 60.40625 
L 10.984375 69.390625 
L 28.421875 72.90625 
L 38.28125 72.90625 
L 38.28125 8.296875 
L 54.390625 8.296875 
L 54.390625 0 
L 12.40625 0 
z
" id="DejaVuSans-49"/>
       <path d="M 31.78125 66.40625 
Q 24.171875 66.40625 20.328125 58.90625 
Q 16.5 51.421875 16.5 36.375 
Q 16.5 21.390625 20.328125 13.890625 
Q 24.171875 6.390625 31.78125 6.390625 
Q 39.453125 6.390625 43.28125 13.890625 
Q 47.125 21.390625 47.125 36.375 
Q 47.125 51.421875 43.28125 58.90625 
Q 39.453125 66.40625 31.78125 66.40625 
z
M 31.78125 74.21875 
Q 44.046875 74.21875 50.515625 64.515625 
Q 56.984375 54.828125 56.984375 36.375 
Q 56.984375 17.96875 50.515625 8.265625 
Q 44.046875 -1.421875 31.78125 -1.421875 
Q 19.53125 -1.421875 13.0625 8.265625 
Q 6.59375 17.96875 6.59375 36.375 
Q 6.59375 54.828125 13.0625 64.515625 
Q 19.53125 74.21875 31.78125 74.21875 
z
" id="DejaVuSans-48"/>
      </defs>
      <g transform="translate(31.987656 246.638437)scale(0.1 -0.1)">
       <use xlink:href="#DejaVuSans-8722"/>
       <use x="83.789062" xlink:href="#DejaVuSans-49"/>
       <use x="147.412109" xlink:href="#DejaVuSans-48"/>
      </g>
     </g>
    </g>
    <g id="xtick_2">
     <g id="line2d_2">
      <g>
       <use style="stroke:#000000;stroke-width:0.8;" x="96.01875" xlink:href="#mf8ca42800e" y="232.04"/>
      </g>
     </g>
     <g id="text_2">
      <!-- −5 -->
      <defs>
       <path d="M 10.796875 72.90625 
L 49.515625 72.90625 
L 49.515625 64.59375 
L 19.828125 64.59375 
L 19.828125 46.734375 
Q 21.96875 47.46875 24.109375 47.828125 
Q 26.265625 48.1875 28.421875 48.1875 
Q 40.625 48.1875 47.75 41.5 
Q 54.890625 34.8125 54.890625 23.390625 
Q 54.890625 11.625 47.5625 5.09375 
Q 40.234375 -1.421875 26.90625 -1.421875 
Q 22.3125 -1.421875 17.546875 -0.640625 
Q 12.796875 0.140625 7.71875 1.703125 
L 7.71875 11.625 
Q 12.109375 9.234375 16.796875 8.0625 
Q 21.484375 6.890625 26.703125 6.890625 
Q 35.15625 6.890625 40.078125 11.328125 
Q 45.015625 15.765625 45.015625 23.390625 
Q 45.015625 31 40.078125 35.4375 
Q 35.15625 39.890625 26.703125 39.890625 
Q 22.75 39.890625 18.8125 39.015625 
Q 14.890625 38.140625 10.796875 36.28125 
z
" id="DejaVuSans-53"/>
      </defs>
      <g transform="translate(88.647656 246.638437)scale(0.1 -0.1)">
       <use xlink:href="#DejaVuSans-8722"/>
       <use x="83.789062" xlink:href="#DejaVuSans-53"/>
      </g>
     </g>
    </g>
    <g id="xtick_3">
     <g id="line2d_3">
      <g>
       <use style="stroke:#000000;stroke-width:0.8;" x="149.4975" xlink:href="#mf8ca42800e" y="232.04"/>
      </g>
     </g>
     <g id="text_3">
      <!-- 0 -->
      <g transform="translate(146.31625 246.638437)scale(0.1 -0.1)">
       <use xlink:href="#DejaVuSans-48"/>
      </g>
     </g>
    </g>
    <g id="xtick_4">
     <g id="line2d_4">
      <g>
       <use style="stroke:#000000;stroke-width:0.8;" x="202.97625" xlink:href="#mf8ca42800e" y="232.04"/>
      </g>
     </g>
     <g id="text_4">
      <!-- 5 -->
      <g transform="translate(199.795 246.638437)scale(0.1 -0.1)">
       <use xlink:href="#DejaVuSans-53"/>
      </g>
     </g>
    </g>
    <g id="xtick_5">
     <g id="line2d_5">
      <g>
       <use style="stroke:#000000;stroke-width:0.8;" x="256.455" xlink:href="#mf8ca42800e" y="232.04"/>
      </g>
     </g>
     <g id="text_5">
      <!-- 10 -->
      <g transform="translate(250.0925 246.638437)scale(0.1 -0.1)">
       <use xlink:href="#DejaVuSans-49"/>
       <use x="63.623047" xlink:href="#DejaVuSans-48"/>
      </g>
     </g>
    </g>
    <g id="text_6">
     <!-- $\beta_1$ -->
     <defs>
      <path d="M 13.625 3.375 
L 8.9375 -20.796875 
L -0.09375 -20.796875 
L 14.5 54.34375 
Q 18.84375 76.609375 39.65625 76.609375 
Q 60.75 76.609375 57.171875 57.8125 
Q 54.734375 44.4375 45.21875 39.546875 
Q 58.015625 35.15625 55.515625 22.125 
Q 51.125 -1.078125 27.484375 -1.03125 
Q 17.140625 -0.984375 13.625 3.375 
z
M 15.921875 15.09375 
Q 19.671875 6.59375 29.296875 6.640625 
Q 43.359375 6.640625 46.34375 21.96875 
Q 49.03125 35.75 26.171875 34.671875 
L 27.78125 42.96875 
Q 45.453125 42.671875 48.53125 58.59375 
Q 50.640625 69.34375 39.203125 69.28125 
Q 26.421875 69.28125 23.484375 54.046875 
z
" id="DejaVuSans-Oblique-946"/>
     </defs>
     <g transform="translate(142.7775 257.958125)scale(0.12 -0.12)">
      <use transform="translate(0 0.390625)" xlink:href="#DejaVuSans-Oblique-946"/>
      <use transform="translate(63.818359 -16.015625)scale(0.7)" xlink:href="#DejaVuSans-49"/>
     </g>
    </g>
   </g>
   <g id="matplotlib.axis_2">
    <g id="ytick_1">
     <g id="line2d_6">
      <defs>
       <path d="M 0 0 
L -3.5 0 
" id="mdd3eb9a7aa" style="stroke:#000000;stroke-width:0.8;"/>
      </defs>
      <g>
       <use style="stroke:#000000;stroke-width:0.8;" x="42.54" xlink:href="#mdd3eb9a7aa" y="232.04"/>
      </g>
     </g>
     <g id="text_7">
      <!-- −10 -->
      <g transform="translate(14.435312 235.839219)scale(0.1 -0.1)">
       <use xlink:href="#DejaVuSans-8722"/>
       <use x="83.789062" xlink:href="#DejaVuSans-49"/>
       <use x="147.412109" xlink:href="#DejaVuSans-48"/>
      </g>
     </g>
    </g>
    <g id="ytick_2">
     <g id="line2d_7">
      <g>
       <use style="stroke:#000000;stroke-width:0.8;" x="42.54" xlink:href="#mdd3eb9a7aa" y="180.39"/>
      </g>
     </g>
     <g id="text_8">
      <!-- −5 -->
      <g transform="translate(20.797812 184.189219)scale(0.1 -0.1)">
       <use xlink:href="#DejaVuSans-8722"/>
       <use x="83.789062" xlink:href="#DejaVuSans-53"/>
      </g>
     </g>
    </g>
    <g id="ytick_3">
     <g id="line2d_8">
      <g>
       <use style="stroke:#000000;stroke-width:0.8;" x="42.54" xlink:href="#mdd3eb9a7aa" y="128.74"/>
      </g>
     </g>
     <g id="text_9">
      <!-- 0 -->
      <g transform="translate(29.1775 132.539219)scale(0.1 -0.1)">
       <use xlink:href="#DejaVuSans-48"/>
      </g>
     </g>
    </g>
    <g id="ytick_4">
     <g id="line2d_9">
      <g>
       <use style="stroke:#000000;stroke-width:0.8;" x="42.54" xlink:href="#mdd3eb9a7aa" y="77.09"/>
      </g>
     </g>
     <g id="text_10">
      <!-- 5 -->
      <g transform="translate(29.1775 80.889219)scale(0.1 -0.1)">
       <use xlink:href="#DejaVuSans-53"/>
      </g>
     </g>
    </g>
    <g id="ytick_5">
     <g id="line2d_10">
      <g>
       <use style="stroke:#000000;stroke-width:0.8;" x="42.54" xlink:href="#mdd3eb9a7aa" y="25.44"/>
      </g>
     </g>
     <g id="text_11">
      <!-- 10 -->
      <g transform="translate(22.815 29.239219)scale(0.1 -0.1)">
       <use xlink:href="#DejaVuSans-49"/>
       <use x="63.623047" xlink:href="#DejaVuSans-48"/>
      </g>
     </g>
    </g>
    <g id="text_12">
     <!-- $\beta_2$ -->
     <defs>
      <path d="M 19.1875 8.296875 
L 53.609375 8.296875 
L 53.609375 0 
L 7.328125 0 
L 7.328125 8.296875 
Q 12.9375 14.109375 22.625 23.890625 
Q 32.328125 33.6875 34.8125 36.53125 
Q 39.546875 41.84375 41.421875 45.53125 
Q 43.3125 49.21875 43.3125 52.78125 
Q 43.3125 58.59375 39.234375 62.25 
Q 35.15625 65.921875 28.609375 65.921875 
Q 23.96875 65.921875 18.8125 64.3125 
Q 13.671875 62.703125 7.8125 59.421875 
L 7.8125 69.390625 
Q 13.765625 71.78125 18.9375 73 
Q 24.125 74.21875 28.421875 74.21875 
Q 39.75 74.21875 46.484375 68.546875 
Q 53.21875 62.890625 53.21875 53.421875 
Q 53.21875 48.921875 51.53125 44.890625 
Q 49.859375 40.875 45.40625 35.40625 
Q 44.1875 33.984375 37.640625 27.21875 
Q 31.109375 20.453125 19.1875 8.296875 
z
" id="DejaVuSans-50"/>
     </defs>
     <g transform="translate(21.915312 135.46)rotate(-90)scale(0.12 -0.12)">
      <use transform="translate(0 0.390625)" xlink:href="#DejaVuSans-Oblique-946"/>
      <use transform="translate(63.818359 -16.015625)scale(0.7)" xlink:href="#DejaVuSans-50"/>
     </g>
    </g>
   </g>
   <g id="LineCollection_1"/>
   <g id="LineCollection_2">
    <path clip-path="url(#pa317a64234)" d="M 90.076667 155.236602 
L 88.988336 154.825859 
L 87.915909 154.387356 
L 85.755152 153.329774 
L 84.718709 152.73899 
L 83.594394 152.039794 
L 81.639316 150.652121 
L 81.433636 150.491518 
L 79.272879 148.595384 
L 79.241951 148.565253 
L 77.314328 146.478384 
L 77.112121 146.232068 
L 75.737587 144.391515 
L 74.951364 143.188085 
L 74.421994 142.304646 
L 73.350448 140.217778 
L 72.790606 138.908899 
L 72.483289 138.130909 
L 71.8242 136.04404 
L 71.330363 133.957172 
L 71.00178 131.870303 
L 70.838449 129.783434 
L 70.840371 127.696566 
L 71.007547 125.609697 
L 71.339975 123.522828 
L 71.837656 121.43596 
L 72.50059 119.349091 
L 72.790606 118.618306 
L 73.373344 117.262222 
L 74.449053 115.175354 
L 74.951364 114.339854 
L 75.771628 113.088485 
L 77.112121 111.298726 
L 77.356737 111.001616 
L 79.272879 108.932532 
L 79.291164 108.914747 
L 81.433636 107.039027 
L 81.704679 106.827879 
L 83.594394 105.489432 
L 84.800414 104.74101 
L 85.755152 104.197853 
L 87.915909 103.142319 
L 89.112142 102.654141 
L 90.076667 102.290774 
L 92.237424 101.637132 
L 94.398182 101.143875 
L 96.558939 100.811003 
L 98.719697 100.638515 
L 100.880455 100.626413 
L 103.041212 100.774695 
L 105.20197 101.083363 
L 107.362727 101.552415 
L 109.523485 102.181851 
L 110.815554 102.654141 
L 111.684242 102.998109 
L 113.845 104.027422 
L 115.12665 104.74101 
L 116.005758 105.274923 
L 118.166515 106.776742 
L 118.231845 106.827879 
L 120.327273 108.631905 
L 120.6227 108.914747 
L 122.48803 110.898794 
L 122.575851 111.001616 
L 124.160467 113.088485 
L 124.648788 113.823301 
L 125.471944 115.175354 
L 126.561267 117.262222 
L 126.809545 117.832769 
L 127.418334 119.349091 
L 128.089009 121.43596 
L 128.592501 123.522828 
L 128.928811 125.609697 
L 128.970303 126.121667 
L 129.088772 127.696566 
L 129.090577 129.783434 
L 128.970303 131.419965 
L 128.934645 131.870303 
L 128.602225 133.957172 
L 128.102622 136.04404 
L 127.435837 138.130909 
L 126.809545 139.698101 
L 126.584453 140.217778 
L 125.499345 142.304646 
L 124.648788 143.706358 
L 124.194978 144.391515 
L 122.614964 146.478384 
L 122.48803 146.627385 
L 120.670819 148.565253 
L 120.327273 148.894931 
L 118.290989 150.652121 
L 118.166515 150.749759 
L 116.005758 152.254758 
L 115.210136 152.73899 
L 113.845 153.500535 
L 111.684242 154.531847 
L 110.943154 154.825859 
L 109.523485 155.34572 
L 107.362727 155.976284 
L 105.20197 156.446176 
L 103.041212 156.755396 
L 100.880455 156.903944 
L 98.719697 156.89182 
L 96.558939 156.719024 
L 94.398182 156.385555 
L 92.237424 155.891415 
L 90.076667 155.236602 
" style="fill:none;stroke:#4055c8;"/>
   </g>
   <g id="LineCollection_3">
    <path clip-path="url(#pa317a64234)" d="M 90.076667 167.416275 
L 87.915909 166.831307 
L 83.594394 165.305641 
L 81.433636 164.316318 
L 79.223741 163.173333 
L 75.913846 161.086465 
L 73.152153 158.999596 
L 70.812884 156.912727 
L 68.806004 154.825859 
L 67.06537 152.73899 
L 65.541293 150.652121 
L 64.147576 148.476907 
L 62.047462 144.391515 
L 61.208711 142.304646 
L 60.492855 140.217778 
L 59.826061 137.822411 
L 59.102562 133.957172 
L 58.877331 131.870303 
L 58.765375 129.783434 
L 58.766693 127.696566 
L 58.881284 125.609697 
L 59.109151 123.522828 
L 59.826061 119.710261 
L 59.909056 119.349091 
L 60.508152 117.262222 
L 61.986818 113.283052 
L 62.069542 113.088485 
L 64.147576 109.054047 
L 64.228429 108.914747 
L 66.308333 105.792692 
L 68.469091 103.085967 
L 70.629848 100.795289 
L 72.790606 98.831579 
L 74.951364 97.129494 
L 77.112121 95.640015 
L 79.309721 94.306667 
L 83.599115 92.219798 
L 87.915909 90.697894 
L 90.076667 90.111054 
L 94.398182 89.326112 
L 98.719697 88.980242 
L 103.041212 89.073444 
L 107.362727 89.605718 
L 109.908911 90.132929 
L 111.684242 90.601722 
L 116.005758 92.090446 
L 118.166515 93.05497 
L 120.60573 94.306667 
L 123.94496 96.393535 
L 126.72413 98.480404 
L 126.809545 98.550611 
L 129.065847 100.567273 
L 131.131061 102.705776 
L 133.291818 105.349373 
L 135.452576 108.521076 
L 136.844212 111.001616 
L 137.852902 113.088485 
L 138.698137 115.175354 
L 139.774091 118.475599 
L 140.471639 121.43596 
L 140.8155 123.522828 
L 141.045183 125.609697 
L 141.160689 127.696566 
L 141.162017 129.783434 
L 141.049168 131.870303 
L 140.822141 133.957172 
L 140.480936 136.04404 
L 139.774091 139.052272 
L 139.438248 140.217778 
L 138.716366 142.304646 
L 137.613333 144.956268 
L 136.869459 146.478384 
L 135.452576 149.006018 
L 133.291818 152.18015 
L 132.865798 152.73899 
L 131.13007 154.825859 
L 128.970303 157.051438 
L 126.785257 158.999596 
L 124.016284 161.086465 
L 120.689306 163.173333 
L 118.166515 164.473899 
L 116.005758 165.436954 
L 111.684242 166.927603 
L 109.523485 167.490913 
L 105.20197 168.243644 
L 100.880455 168.556765 
L 96.558939 168.430277 
L 92.237424 167.864178 
L 90.076667 167.416275 
L 90.076667 167.416275 
" style="fill:none;stroke:#485fd1;"/>
   </g>
   <g id="LineCollection_4">
    <path clip-path="url(#pa317a64234)" d="M 87.915909 176.112515 
L 85.755152 175.554915 
L 81.433636 174.116974 
L 79.272879 173.238869 
L 74.951364 171.116578 
L 72.122798 169.433939 
L 69.10178 167.347071 
L 66.308333 165.111747 
L 64.147576 163.13475 
L 61.986818 160.893948 
L 59.826061 158.332766 
L 57.295966 154.825859 
L 55.504545 151.854816 
L 53.831224 148.565253 
L 52.929358 146.478384 
L 51.463427 142.304646 
L 50.890532 140.217778 
L 50.049962 136.04404 
L 49.583946 131.870303 
L 49.492486 127.696566 
L 49.775581 123.522828 
L 50.433231 119.349091 
L 51.478229 115.175354 
L 52.948714 111.001616 
L 53.853884 108.914747 
L 55.504545 105.67402 
L 57.327266 102.654141 
L 58.783427 100.567273 
L 60.400709 98.480404 
L 62.207418 96.393535 
L 64.238906 94.306667 
L 66.539903 92.219798 
L 69.167852 90.132929 
L 72.790606 87.67195 
L 75.799771 85.959192 
L 79.272879 84.290402 
L 81.433636 83.410986 
L 85.755152 81.974565 
L 87.915909 81.415378 
L 92.237424 80.585504 
L 96.558939 80.11838 
L 100.880455 80.014006 
L 105.20197 80.272382 
L 109.523485 80.893509 
L 113.845 81.881562 
L 118.166515 83.289367 
L 120.327273 84.148005 
L 124.648788 86.231698 
L 127.724693 88.046061 
L 131.131061 90.406771 
L 133.389999 92.219798 
L 135.683745 94.306667 
L 137.721557 96.393535 
L 139.774091 98.780536 
L 141.934848 101.678427 
L 143.897221 104.74101 
L 145.04381 106.827879 
L 146.256364 109.315512 
L 147.763521 113.088485 
L 148.452915 115.175354 
L 149.491915 119.349091 
L 150.153894 123.522828 
L 150.438853 127.696566 
L 150.346791 131.870303 
L 149.877707 136.04404 
L 149.031603 140.217778 
L 148.417121 142.463206 
L 146.99343 146.478384 
L 146.100477 148.565253 
L 143.926235 152.73899 
L 141.934848 155.850046 
L 139.571836 158.999596 
L 137.613333 161.250712 
L 135.452576 163.442913 
L 133.291818 165.391379 
L 130.831088 167.347071 
L 127.800538 169.433939 
L 124.648788 171.297778 
L 122.48803 172.394629 
L 119.77634 173.607677 
L 116.005758 174.990823 
L 113.666199 175.694545 
L 109.523485 176.634913 
L 105.20197 177.256668 
L 100.880455 177.515306 
L 96.558939 177.410826 
L 92.237424 176.94323 
L 87.915909 176.112515 
L 87.915909 176.112515 
" style="fill:none;stroke:#4f69d9;"/>
   </g>
   <g id="LineCollection_5">
    <path clip-path="url(#pa317a64234)" d="M 42.54 119.053856 
L 43.394697 115.175354 
L 44.700758 110.830728 
L 46.276408 106.827879 
L 47.240392 104.74101 
L 49.50632 100.567273 
L 51.18303 97.939 
L 53.861875 94.306667 
L 55.611043 92.219798 
L 57.665303 90.014998 
L 59.826061 87.927367 
L 62.087796 85.959192 
L 64.783909 83.872323 
L 68.469091 81.385964 
L 72.790606 78.955984 
L 77.112121 76.97062 
L 81.433636 75.378593 
L 85.755152 74.163061 
L 90.076667 73.274718 
L 94.398182 72.722252 
L 98.719697 72.478818 
L 103.041212 72.544416 
L 107.362727 72.919047 
L 111.684242 73.609044 
L 116.005758 74.639904 
L 120.327273 76.010341 
L 124.648788 77.755658 
L 128.970303 79.924729 
L 133.291818 82.575305 
L 135.452576 84.095197 
L 137.835513 85.959192 
L 140.222829 88.046061 
L 142.37051 90.132929 
L 144.312911 92.219798 
L 146.256364 94.542383 
L 149.104258 98.480404 
L 150.577879 100.827534 
L 152.738636 104.840317 
L 154.515757 108.914747 
L 155.281657 111.001616 
L 156.533815 115.175354 
L 157.438007 119.349091 
L 158.00164 123.522828 
L 158.244264 127.696566 
L 158.165879 131.870303 
L 157.766484 136.04404 
L 157.045537 140.217778 
L 155.963953 144.391515 
L 154.534918 148.565253 
L 152.715474 152.73899 
L 150.454531 156.912727 
L 147.691678 161.086465 
L 146.109245 163.173333 
L 144.095606 165.551566 
L 141.934848 167.835881 
L 139.774091 169.891631 
L 137.613333 171.751487 
L 135.215963 173.607677 
L 131.131061 176.340613 
L 128.644812 177.781414 
L 124.433948 179.868283 
L 120.327273 181.518752 
L 118.166515 182.252185 
L 113.845 183.444568 
L 109.523485 184.305608 
L 105.20197 184.835212 
L 100.880455 185.055516 
L 96.558939 184.966522 
L 92.237424 184.568228 
L 87.915909 183.853656 
L 83.594394 182.797636 
L 79.272879 181.399016 
L 74.951364 179.622803 
L 70.629848 177.419721 
L 67.762678 175.694545 
L 64.147576 173.186695 
L 61.986818 171.487289 
L 59.645744 169.433939 
L 57.503342 167.347071 
L 55.504545 165.188669 
L 53.343788 162.563862 
L 50.786764 158.999596 
L 48.292329 154.825859 
L 46.255358 150.652121 
L 44.623221 146.478384 
L 43.382166 142.304646 
L 42.54 138.471318 
L 42.54 138.471318 
" style="fill:none;stroke:#5673e0;"/>
   </g>
   <g id="LineCollection_6">
    <path clip-path="url(#pa317a64234)" d="M 42.54 98.987365 
L 44.066008 96.393535 
L 45.42042 94.306667 
L 46.887346 92.219798 
L 49.022273 89.498908 
L 52.178651 85.959192 
L 55.504545 82.737714 
L 57.665303 80.875738 
L 59.826061 79.168852 
L 61.986818 77.598453 
L 66.308333 74.859093 
L 70.629848 72.554336 
L 74.951364 70.637636 
L 79.272879 69.068866 
L 83.594394 67.835164 
L 87.915909 66.898793 
L 92.237424 66.262481 
L 96.558939 65.90431 
L 100.880455 65.824281 
L 105.20197 66.022392 
L 109.523485 66.498646 
L 113.845 67.255648 
L 118.166515 68.323774 
L 122.48803 69.694458 
L 126.809545 71.398405 
L 131.131061 73.474051 
L 135.452576 75.965978 
L 137.950871 77.611717 
L 141.934848 80.608854 
L 144.095606 82.444397 
L 146.256364 84.454657 
L 149.664636 88.046061 
L 151.419853 90.132929 
L 153.034228 92.219798 
L 155.858596 96.393535 
L 158.232408 100.567273 
L 160.204068 104.74101 
L 161.815287 108.914747 
L 163.086981 113.088485 
L 164.04257 117.262222 
L 164.694112 121.43596 
L 165.056826 125.609697 
L 165.130713 129.783434 
L 164.915772 133.957172 
L 164.412004 138.130909 
L 163.542424 142.623022 
L 162.503258 146.478384 
L 161.075033 150.652121 
L 159.220909 154.984126 
L 157.060152 159.129477 
L 154.542279 163.173333 
L 152.738636 165.702999 
L 149.707396 169.433939 
L 147.796308 171.520808 
L 145.702554 173.607677 
L 141.934848 176.919856 
L 139.774091 178.602113 
L 137.613333 180.149726 
L 133.291818 182.856981 
L 128.970303 185.131639 
L 124.648788 187.020067 
L 120.327273 188.562237 
L 116.005758 189.7752 
L 111.684242 190.686946 
L 107.362727 191.302747 
L 103.041212 191.640191 
L 98.719697 191.699278 
L 94.398182 191.480008 
L 90.076667 190.982381 
L 85.755152 190.203077 
L 81.433636 189.112364 
L 77.112121 187.716469 
L 72.790606 185.985154 
L 68.469091 183.879702 
L 64.147576 181.355194 
L 61.899677 179.868283 
L 57.665303 176.652701 
L 54.226298 173.607677 
L 51.18303 170.508624 
L 48.465251 167.347071 
L 46.851233 165.260202 
L 44.036126 161.086465 
L 42.54 158.542118 
L 42.54 158.542118 
" style="fill:none;stroke:#5e7de7;"/>
   </g>
   <g id="LineCollection_7">
    <path clip-path="url(#pa317a64234)" d="M 42.54 87.781027 
L 45.769812 83.872323 
L 49.022273 80.449358 
L 52.084983 77.611717 
L 55.504545 74.808855 
L 57.665303 73.207111 
L 61.986818 70.373107 
L 66.308333 67.950269 
L 70.629848 65.897497 
L 74.951364 64.178992 
L 79.272879 62.763427 
L 83.594394 61.645342 
L 87.915909 60.791922 
L 92.237424 60.213436 
L 96.558939 59.887814 
L 100.880455 59.815058 
L 105.20197 59.995166 
L 109.523485 60.428139 
L 113.845 61.120136 
L 118.166515 62.088162 
L 122.48803 63.327055 
L 127.370683 65.090505 
L 131.131061 66.724074 
L 133.291818 67.782003 
L 137.613333 70.176347 
L 139.774091 71.517673 
L 144.095606 74.560643 
L 147.843616 77.611717 
L 150.577879 80.127727 
L 154.157492 83.872323 
L 157.060152 87.363966 
L 159.220909 90.291903 
L 161.809465 94.306667 
L 164.107469 98.480404 
L 166.047237 102.654141 
L 167.863939 107.448458 
L 168.94999 111.001616 
L 170.024697 115.472229 
L 170.692002 119.349091 
L 171.152922 123.522828 
L 171.351331 127.696566 
L 171.28723 131.870303 
L 170.960619 136.04404 
L 170.371498 140.217778 
L 169.504053 144.391515 
L 168.355012 148.565253 
L 166.905207 152.73899 
L 165.141883 156.912727 
L 163.032524 161.086465 
L 160.539954 165.260202 
L 159.145336 167.347071 
L 155.977138 171.520808 
L 154.200855 173.607677 
L 152.276082 175.694545 
L 150.183386 177.781414 
L 146.256364 181.260901 
L 142.644927 184.04202 
L 139.591325 186.128889 
L 135.452576 188.600513 
L 131.131061 190.804038 
L 126.809545 192.663315 
L 122.48803 194.202055 
L 118.166515 195.440313 
L 113.845 196.409043 
L 109.523485 197.100038 
L 105.20197 197.533316 
L 100.880455 197.713551 
L 96.558939 197.640743 
L 92.237424 197.314892 
L 87.915909 196.735998 
L 83.594394 195.883455 
L 79.272879 194.764557 
L 74.951364 193.349478 
L 70.629848 191.631256 
L 66.308333 189.578518 
L 61.986818 187.15541 
L 59.826061 185.795765 
L 55.504545 182.719424 
L 52.029193 179.868283 
L 49.022273 177.079514 
L 45.726711 173.607677 
L 43.948152 171.520808 
L 42.54 169.746646 
L 42.54 169.746646 
" style="fill:none;stroke:#6687ed;"/>
   </g>
   <g id="LineCollection_8">
    <path clip-path="url(#pa317a64234)" d="M 42.54 79.046891 
L 46.032032 75.524848 
L 49.022273 72.843871 
L 51.18303 71.071457 
L 55.504545 67.905226 
L 57.665303 66.48502 
L 61.986818 63.940052 
L 66.308333 61.74966 
L 70.629848 59.881621 
L 74.951364 58.307501 
L 79.272879 57.009734 
L 83.594394 55.979835 
L 87.915909 55.195975 
L 92.237424 54.65069 
L 96.558939 54.352196 
L 100.880455 54.2855 
L 105.20197 54.450604 
L 109.523485 54.852972 
L 113.845 55.499632 
L 118.166515 56.384712 
L 122.48803 57.530709 
L 126.809545 58.935785 
L 131.780766 60.916768 
L 136.173927 63.003636 
L 139.981057 65.090505 
L 144.095606 67.682681 
L 148.417121 70.81848 
L 151.592709 73.43798 
L 154.899394 76.492785 
L 157.982875 79.698586 
L 159.807814 81.785455 
L 163.076205 85.959192 
L 164.536762 88.046061 
L 167.161367 92.219798 
L 169.418497 96.393535 
L 171.341636 100.567273 
L 172.960317 104.74101 
L 174.346212 109.085118 
L 175.353913 113.088485 
L 176.159653 117.262222 
L 176.712044 121.43596 
L 177.014179 125.609697 
L 177.075726 129.783434 
L 176.896684 133.957172 
L 176.476197 138.130909 
L 175.797073 142.304646 
L 174.870473 146.478384 
L 173.677241 150.652121 
L 172.185455 154.897318 
L 170.444225 158.999596 
L 168.360759 163.173333 
L 167.189815 165.260202 
L 164.56952 169.433939 
L 163.111833 171.520808 
L 159.848318 175.694545 
L 157.060152 178.829225 
L 153.945115 181.955152 
L 150.577879 184.958552 
L 148.417121 186.709666 
L 144.095606 189.846321 
L 141.934848 191.248071 
L 137.613333 193.766456 
L 133.291818 195.931669 
L 128.970303 197.775828 
L 124.648788 199.327272 
L 119.816327 200.73697 
L 116.005758 201.616056 
L 111.684242 202.382435 
L 107.362727 202.907835 
L 103.041212 203.18902 
L 98.719697 203.238256 
L 94.398182 203.055542 
L 90.076667 202.635651 
L 85.755152 201.970558 
L 81.433636 201.066887 
L 77.112121 199.900737 
L 72.790606 198.474104 
L 68.031167 196.563232 
L 63.654972 194.476364 
L 59.826061 192.370724 
L 55.504545 189.623597 
L 51.18303 186.456479 
L 48.276775 184.04202 
L 44.700758 180.714464 
L 42.54 178.481304 
L 42.54 178.481304 
" style="fill:none;stroke:#6e90f2;"/>
   </g>
   <g id="LineCollection_9">
    <path clip-path="url(#pa317a64234)" d="M 42.54 71.624961 
L 45.173037 69.264242 
L 49.022273 66.15809 
L 53.343788 63.085319 
L 56.812273 60.916768 
L 60.544588 58.829899 
L 64.802363 56.74303 
L 68.469091 55.176642 
L 72.790606 53.588797 
L 77.112121 52.255907 
L 81.433636 51.176099 
L 85.755152 50.326053 
L 90.076667 49.713859 
L 94.398182 49.321268 
L 98.719697 49.14828 
L 103.041212 49.194895 
L 107.362727 49.461113 
L 111.684242 49.946935 
L 116.005758 50.656951 
L 120.327273 51.606972 
L 124.648788 52.788451 
L 128.970303 54.228451 
L 133.291818 55.935785 
L 137.613333 57.927588 
L 141.934848 60.229712 
L 146.256364 62.87124 
L 149.46505 65.090505 
L 152.738636 67.588787 
L 157.060152 71.317234 
L 159.262834 73.43798 
L 163.147692 77.611717 
L 165.703182 80.714006 
L 168.060344 83.872323 
L 170.812263 88.046061 
L 173.210866 92.219798 
L 175.286501 96.393535 
L 177.06614 100.567273 
L 178.667727 105.045099 
L 179.804075 108.914747 
L 180.828485 113.232114 
L 181.542993 117.262222 
L 182.057095 121.43596 
L 182.343296 125.609697 
L 182.401597 129.783434 
L 182.231997 133.957172 
L 181.834496 138.130909 
L 181.209095 142.304646 
L 180.342991 146.478384 
L 179.232507 150.652121 
L 177.866244 154.825859 
L 176.236132 158.999596 
L 174.318838 163.173333 
L 172.088196 167.347071 
L 169.51476 171.520808 
L 166.565275 175.694545 
L 163.542424 179.458187 
L 161.321479 181.955152 
L 157.147988 186.128889 
L 154.815362 188.215758 
L 150.577879 191.617265 
L 146.528742 194.476364 
L 143.195487 196.563232 
L 139.480031 198.650101 
L 135.238372 200.73697 
L 130.243772 202.823838 
L 126.809545 204.049176 
L 122.48803 205.361604 
L 118.166515 206.425062 
L 113.845 207.255858 
L 109.523485 207.851846 
L 105.20197 208.228096 
L 100.880455 208.384609 
L 96.558939 208.321384 
L 92.237424 208.038421 
L 87.915909 207.535721 
L 83.594394 206.808301 
L 79.272879 205.840653 
L 74.951364 204.640008 
L 69.682799 202.823838 
L 66.308333 201.453102 
L 61.986818 199.438723 
L 57.665303 197.112434 
L 53.343788 194.443972 
L 49.022273 191.370461 
L 45.115902 188.215758 
L 42.54 185.904274 
L 42.54 185.904274 
" style="fill:none;stroke:#7699f6;"/>
   </g>
   <g id="LineCollection_10">
    <path clip-path="url(#pa317a64234)" d="M 42.54 65.061974 
L 46.861515 61.663097 
L 50.931056 58.829899 
L 54.291656 56.74303 
L 58.017129 54.656162 
L 62.235685 52.569293 
L 67.143571 50.482424 
L 70.629848 49.201944 
L 74.951364 47.835863 
L 79.272879 46.704427 
L 83.594394 45.800003 
L 87.915909 45.114097 
L 92.237424 44.636817 
L 96.558939 44.368162 
L 100.880455 44.308135 
L 105.20197 44.456733 
L 109.523485 44.813957 
L 113.845 45.379808 
L 118.883259 46.308687 
L 122.48803 47.15863 
L 126.855324 48.395556 
L 131.131061 49.854558 
L 135.452576 51.576993 
L 139.774091 53.568937 
L 144.095606 55.853483 
L 148.417121 58.456442 
L 152.038612 60.916768 
L 154.899394 63.048304 
L 159.220909 66.655135 
L 162.023928 69.264242 
L 165.703182 73.069329 
L 167.863939 75.536632 
L 171.137576 79.698586 
L 174.036134 83.872323 
L 176.580975 88.046061 
L 178.804023 92.219798 
L 180.828485 96.612091 
L 182.392517 100.567273 
L 183.796925 104.74101 
L 185.15 109.690857 
L 185.889933 113.088485 
L 186.594766 117.262222 
L 187.083114 121.43596 
L 187.353898 125.609697 
L 187.407925 129.783434 
L 187.249255 133.957172 
L 186.871667 138.130909 
L 186.277594 142.304646 
L 185.467038 146.478384 
L 184.421757 150.652121 
L 182.989242 155.280402 
L 181.613422 158.999596 
L 179.821977 163.173333 
L 177.750357 167.347071 
L 175.374495 171.520808 
L 172.667486 175.694545 
L 170.024697 179.304194 
L 167.863939 181.991449 
L 164.143501 186.128889 
L 161.381667 188.882423 
L 157.472078 192.389495 
L 154.899394 194.480869 
L 150.577879 197.634223 
L 146.256364 200.417823 
L 141.934848 202.862275 
L 137.613333 204.996665 
L 132.913115 206.997576 
L 128.970303 208.438689 
L 124.648788 209.78531 
L 119.105753 211.171313 
L 116.005758 211.78732 
L 111.684242 212.457874 
L 107.362727 212.91968 
L 103.041212 213.172738 
L 98.719697 213.217049 
L 94.398182 213.052612 
L 90.076667 212.679428 
L 85.755152 212.097497 
L 80.815437 211.171313 
L 77.112121 210.285232 
L 72.790606 209.045059 
L 68.469091 207.553539 
L 64.147576 205.811048 
L 59.826061 203.797758 
L 55.504545 201.490451 
L 51.18303 198.863175 
L 47.821139 196.563232 
L 44.700758 194.221849 
L 42.54 192.465833 
L 42.54 192.465833 
" style="fill:none;stroke:#7ea1fa;"/>
   </g>
   <g id="LineCollection_11">
    <path clip-path="url(#pa317a64234)" d="M 42.54 59.121163 
L 45.781643 56.74303 
L 49.022273 54.563692 
L 53.343788 51.964011 
L 57.665303 49.665816 
L 61.986818 47.645922 
L 66.308333 45.883464 
L 71.077335 44.221818 
L 74.951364 43.079809 
L 79.272879 42.006677 
L 83.594394 41.154729 
L 87.915909 40.501476 
L 92.237424 40.046944 
L 96.558939 39.797028 
L 100.880455 39.741187 
L 105.20197 39.879421 
L 109.523485 40.215625 
L 113.845 40.754537 
L 118.166515 41.492145 
L 122.48803 42.435603 
L 126.809545 43.598274 
L 131.131061 44.983045 
L 135.452576 46.59929 
L 139.774091 48.465276 
L 144.095606 50.601247 
L 148.417121 53.029695 
L 152.738636 55.77568 
L 157.060152 58.868341 
L 161.381667 62.380015 
L 164.383863 65.090505 
L 167.863939 68.55734 
L 170.412848 71.351111 
L 173.842313 75.524848 
L 176.50697 79.160838 
L 178.667727 82.423088 
L 180.828485 86.02456 
L 183.015438 90.132929 
L 185.15 94.753634 
L 186.643409 98.480404 
L 188.086506 102.654141 
L 189.471515 107.496708 
L 190.286587 111.001616 
L 191.060874 115.175354 
L 191.632273 119.382081 
L 191.982621 123.522828 
L 192.134808 127.696566 
L 192.08564 131.870303 
L 191.835119 136.04404 
L 191.377303 140.217778 
L 190.708493 144.391515 
L 189.833525 148.565253 
L 188.734829 152.73899 
L 187.310758 157.21036 
L 185.850481 161.086465 
L 184.03789 165.260202 
L 181.958785 169.433939 
L 179.591511 173.607677 
L 176.912005 177.781414 
L 174.346212 181.343989 
L 172.185455 184.089811 
L 168.573964 188.215758 
L 165.703182 191.167383 
L 162.15103 194.476364 
L 159.220909 196.957669 
L 154.899394 200.252371 
L 151.116896 202.823838 
L 147.717813 204.910707 
L 143.961679 206.997576 
L 139.728977 209.084444 
L 134.840148 211.171313 
L 131.131061 212.545684 
L 126.809545 213.930053 
L 121.411844 215.345051 
L 118.166515 216.036198 
L 113.845 216.774213 
L 108.210836 217.431919 
L 105.20197 217.64867 
L 100.880455 217.786978 
L 96.558939 217.731107 
L 91.700774 217.431919 
L 87.915909 217.027415 
L 83.594394 216.3738 
L 78.512026 215.345051 
L 74.951364 214.448811 
L 70.629848 213.166037 
L 65.088964 211.171313 
L 61.986818 209.882467 
L 57.665303 207.862611 
L 53.343788 205.564279 
L 48.804937 202.823838 
L 44.700758 200.01608 
L 42.54 198.407935 
L 42.54 198.407935 
" style="fill:none;stroke:#86a9fc;"/>
   </g>
   <g id="LineCollection_12">
    <path clip-path="url(#pa317a64234)" d="M 42.54 53.649411 
L 46.861515 50.736128 
L 51.18303 48.14736 
L 55.504545 45.850804 
L 59.826061 43.818897 
L 64.147576 42.032742 
L 69.820481 40.048081 
L 72.790606 39.15787 
L 77.43658 37.961212 
L 81.433636 37.124884 
L 85.755152 36.406483 
L 90.114737 35.874343 
L 94.398182 35.546135 
L 98.719697 35.40005 
L 103.041212 35.439416 
L 107.362727 35.664233 
L 111.684242 36.07905 
L 116.005758 36.688306 
L 120.327273 37.487227 
L 124.648788 38.487777 
L 130.104598 40.048081 
L 133.291818 41.118018 
L 137.613333 42.764741 
L 141.934848 44.650246 
L 146.256364 46.792894 
L 150.577879 49.212982 
L 154.899394 51.932997 
L 159.220909 54.987114 
L 163.542424 58.423604 
L 166.381558 60.916768 
L 170.024697 64.425445 
L 172.629403 67.177374 
L 176.206551 71.351111 
L 178.667727 74.542611 
L 180.847294 77.611717 
L 183.512651 81.785455 
L 185.882126 85.959192 
L 187.977408 90.132929 
L 189.818117 94.306667 
L 191.632273 99.102409 
L 192.782357 102.654141 
L 193.937938 106.827879 
L 194.87374 111.001616 
L 195.612772 115.175354 
L 196.150554 119.349091 
L 196.488355 123.522828 
L 196.633767 127.696566 
L 196.586788 131.870303 
L 196.34742 136.04404 
L 195.914793 140.217778 
L 195.276435 144.391515 
L 194.441308 148.565253 
L 193.400473 152.73899 
L 192.143181 156.912727 
L 190.661929 161.086465 
L 188.949893 165.260202 
L 186.989729 169.433939 
L 184.762315 173.607677 
L 182.24651 177.781414 
L 179.418883 181.955152 
L 176.246134 186.128889 
L 172.673116 190.302626 
L 170.024697 193.10284 
L 166.434389 196.563232 
L 163.542424 199.104527 
L 159.220909 202.541927 
L 155.910754 204.910707 
L 152.738636 207.001441 
L 148.417121 209.562484 
L 144.095606 211.838877 
L 139.774091 213.851454 
L 135.452576 215.619064 
L 130.258029 217.431919 
L 126.809545 218.46219 
L 122.48803 219.570202 
L 118.166515 220.464428 
L 113.845 221.168889 
L 109.523485 221.681852 
L 105.20197 221.999559 
L 100.880455 222.131719 
L 96.558939 222.078332 
L 92.237424 221.839397 
L 87.915909 221.410579 
L 83.594394 220.786681 
L 79.272879 219.973018 
L 74.951364 218.956814 
L 69.668694 217.431919 
L 66.308333 216.294269 
L 61.986818 214.629592 
L 57.665303 212.725096 
L 53.343788 210.562328 
L 49.022273 208.120893 
L 44.700758 205.378187 
L 42.54 203.879131 
L 42.54 203.879131 
" style="fill:none;stroke:#8fb1fe;"/>
   </g>
   <g id="LineCollection_13">
    <path clip-path="url(#pa317a64234)" d="M 42.54 48.541516 
L 46.044565 46.308687 
L 49.626759 44.221818 
L 53.581259 42.134949 
L 58.025169 40.048081 
L 63.130459 37.961212 
L 66.308333 36.817851 
L 70.629848 35.445369 
L 74.951364 34.2793 
L 79.272879 33.309306 
L 83.594394 32.531422 
L 87.915909 31.934959 
L 92.237424 31.52376 
L 96.558939 31.295108 
L 100.880455 31.244019 
L 105.20197 31.370491 
L 109.781284 31.700606 
L 113.845 32.166021 
L 118.166515 32.839504 
L 122.89388 33.787475 
L 126.809545 34.75169 
L 131.131061 35.999266 
L 136.79668 37.961212 
L 139.774091 39.141242 
L 144.095606 41.04943 
L 148.417121 43.203328 
L 152.738636 45.62136 
L 157.167746 48.395556 
L 161.381667 51.356195 
L 165.703182 54.734993 
L 170.343097 58.829899 
L 174.533416 63.003636 
L 178.258726 67.177374 
L 180.828485 70.360356 
L 183.121682 73.43798 
L 185.933917 77.611717 
L 188.450322 81.785455 
L 190.692065 85.959192 
L 192.678342 90.132929 
L 194.426601 94.306667 
L 195.953788 98.483659 
L 197.252488 102.654141 
L 198.354508 106.827879 
L 199.249555 111.001616 
L 199.956403 115.175354 
L 200.470792 119.349091 
L 200.794196 123.522828 
L 200.93341 127.696566 
L 200.888434 131.870303 
L 200.659268 136.04404 
L 200.245271 140.217778 
L 199.634714 144.391515 
L 198.835955 148.565253 
L 197.843085 152.73899 
L 196.641767 156.912727 
L 195.231992 161.086465 
L 193.605515 165.260202 
L 191.632273 169.666001 
L 189.471515 173.908585 
L 187.263041 177.781414 
L 184.598557 181.955152 
L 181.622633 186.128889 
L 178.300006 190.302626 
L 174.346212 194.721571 
L 170.024697 198.995841 
L 165.667319 202.823838 
L 161.381667 206.172478 
L 157.060152 209.204149 
L 152.738636 211.906998 
L 148.417121 214.325222 
L 144.095606 216.479157 
L 139.774091 218.387248 
L 135.452576 220.06626 
L 130.882885 221.605657 
L 126.809545 222.776914 
L 122.48803 223.833673 
L 118.166515 224.68901 
L 113.845 225.362835 
L 109.523485 225.853534 
L 105.20197 226.157719 
L 100.880455 226.284254 
L 96.558939 226.233138 
L 92.237424 226.004374 
L 87.915909 225.594014 
L 83.594394 224.997249 
L 79.272879 224.218971 
L 74.951364 223.249549 
L 69.050539 221.605657 
L 66.308333 220.710766 
L 61.986818 219.129184 
L 57.665303 217.323164 
L 53.343788 215.276279 
L 49.022273 212.97046 
L 44.700758 210.385783 
L 42.54 208.987599 
L 42.54 208.987599 
" style="fill:none;stroke:#97b8ff;"/>
   </g>
   <g id="LineCollection_14">
    <path clip-path="url(#pa317a64234)" d="M 42.54 43.747491 
L 46.861515 41.168258 
L 51.18303 38.854513 
L 55.504545 36.788159 
L 59.826061 34.952708 
L 64.147576 33.333105 
L 69.212505 31.700606 
L 72.790606 30.710333 
L 77.445064 29.613737 
L 81.433636 28.848806 
L 85.755152 28.190258 
L 90.076667 27.705573 
L 94.398182 27.397448 
L 98.719697 27.263284 
L 103.041212 27.299438 
L 107.633778 27.526869 
L 111.684242 27.890104 
L 116.005758 28.4486 
L 120.327273 29.180961 
L 124.648788 30.097256 
L 128.970303 31.200318 
L 133.291818 32.497902 
L 137.613333 33.99223 
L 142.34111 35.874343 
L 146.937248 37.961212 
L 151.035894 40.048081 
L 154.899394 42.224821 
L 159.220909 44.931336 
L 163.542424 47.937086 
L 166.867084 50.482424 
L 170.024697 53.101261 
L 174.346212 57.050162 
L 178.136542 60.916768 
L 180.828485 63.928535 
L 183.508518 67.177374 
L 186.635791 71.351111 
L 189.471515 75.555946 
L 191.97085 79.698586 
L 194.227141 83.872323 
L 196.238692 88.046061 
L 198.114545 92.462422 
L 199.575239 96.393535 
L 200.926607 100.567273 
L 202.436061 106.211096 
L 203.034188 108.914747 
L 203.80171 113.088485 
L 204.388885 117.262222 
L 204.791649 121.43596 
L 205.013502 125.609697 
L 205.058695 129.783434 
L 204.927227 133.957172 
L 204.596818 138.341956 
L 204.124659 142.304646 
L 203.449408 146.478384 
L 202.436061 151.316603 
L 201.539151 154.825859 
L 200.275303 159.065019 
L 198.83995 163.173333 
L 197.173805 167.347071 
L 195.284217 171.520808 
L 193.155572 175.694545 
L 190.770763 179.868283 
L 188.111011 184.04202 
L 185.15 188.223282 
L 181.85272 192.389495 
L 178.18202 196.563232 
L 174.078512 200.73697 
L 169.460853 204.910707 
L 165.703182 207.960581 
L 161.335428 211.171313 
L 157.060152 213.984371 
L 152.738636 216.544033 
L 148.417121 218.838974 
L 144.095606 220.887248 
L 139.774091 222.705303 
L 135.452576 224.308158 
L 130.887036 225.779394 
L 126.809545 226.901986 
L 122.48803 227.915717 
L 118.166515 228.735407 
L 113.845 229.381148 
L 108.255017 229.953131 
L 105.20197 230.146753 
L 100.880455 230.268122 
L 96.558939 230.219094 
L 91.658229 229.953131 
L 87.915909 229.602692 
L 83.594394 229.030799 
L 79.272879 228.284957 
L 74.951364 227.354504 
L 69.046433 225.779394 
L 66.308333 224.924635 
L 61.986818 223.414256 
L 57.467415 221.605657 
L 52.886098 219.518788 
L 48.796691 217.431919 
L 44.700758 215.108348 
L 42.54 213.780751 
L 42.54 213.780751 
" style="fill:none;stroke:#9fbfff;"/>
   </g>
   <g id="LineCollection_15">
    <path clip-path="url(#pa317a64234)" d="M 78.48908 232.04 
L 77.112121 231.766484 
L 74.951364 231.294678 
L 72.790606 230.780272 
L 70.629848 230.223267 
L 69.656376 229.953131 
L 68.469091 229.616797 
L 66.308333 228.961211 
L 64.147576 228.262138 
L 62.995626 227.866263 
L 61.986818 227.5122 
L 59.826061 226.709425 
L 57.665303 225.862237 
L 57.464536 225.779394 
L 55.504545 224.95305 
L 53.343788 223.996684 
L 52.687718 223.692525 
L 51.18303 222.979434 
L 49.022273 221.909036 
L 48.435293 221.605657 
L 46.861515 220.77376 
L 44.700758 219.584146 
L 44.586597 219.518788 
L 42.54 218.319834 
" style="fill:none;stroke:#a7c5fe;"/>
    <path clip-path="url(#pa317a64234)" d="M 42.54 39.208619 
L 44.670459 37.961212 
L 44.700758 37.943875 
L 46.861515 36.75489 
L 48.528209 35.874343 
L 49.022273 35.619119 
L 51.18303 34.549275 
L 52.79133 33.787475 
L 53.343788 33.53148 
L 55.504545 32.575598 
L 57.580974 31.700606 
L 57.665303 31.665826 
L 59.826061 30.819058 
L 61.986818 30.016679 
L 63.135465 29.613737 
L 64.147576 29.266087 
L 66.308333 28.567352 
L 68.469091 27.912084 
L 69.829591 27.526869 
L 70.629848 27.304905 
L 72.790606 26.748164 
L 74.951364 26.234003 
L 77.112121 25.76242 
L 78.736052 25.44 
" style="fill:none;stroke:#a7c5fe;"/>
    <path clip-path="url(#pa317a64234)" d="M 121.184411 25.44 
L 124.648788 26.160104 
L 130.095389 27.526869 
L 133.291818 28.465676 
L 137.613333 29.899441 
L 142.338965 31.700606 
L 147.132407 33.787475 
L 151.39537 35.874343 
L 155.250626 37.961212 
L 159.220909 40.327415 
L 163.542424 43.176096 
L 167.863939 46.324022 
L 172.185455 49.82979 
L 175.272681 52.569293 
L 178.667727 55.840087 
L 181.525626 58.829899 
L 185.172193 63.003636 
L 188.446391 67.177374 
L 191.632273 71.684637 
L 194.077446 75.524848 
L 196.477109 79.698586 
L 198.631116 83.872323 
L 200.555174 88.046061 
L 202.436061 92.688827 
L 203.752585 96.393535 
L 205.051656 100.567273 
L 206.156811 104.74101 
L 207.078741 108.914747 
L 207.815516 113.088485 
L 208.379169 117.262222 
L 208.7697 121.43596 
L 208.985759 125.609697 
L 209.029177 129.783434 
L 208.902563 133.957172 
L 208.600606 138.130909 
L 208.125528 142.304646 
L 207.477328 146.478384 
L 206.65393 150.652121 
L 205.63916 154.825859 
L 204.444618 158.999596 
L 203.047981 163.173333 
L 201.45043 167.347071 
L 199.642156 171.520808 
L 197.609087 175.694545 
L 195.33587 179.868283 
L 192.80572 184.04202 
L 190.000252 188.215758 
L 186.888978 192.389495 
L 182.989242 197.074321 
L 179.601176 200.73697 
L 176.50697 203.803105 
L 172.998174 206.997576 
L 170.024697 209.496382 
L 165.094367 213.258182 
L 161.381667 215.813691 
L 157.060152 218.513981 
L 152.738636 220.949174 
L 148.417121 223.136948 
L 144.095606 225.093442 
L 139.774091 226.833424 
L 135.452576 228.370427 
L 130.270481 229.953131 
L 126.809545 230.860635 
L 121.435138 232.04 
L 121.435138 232.04 
" style="fill:none;stroke:#a7c5fe;"/>
   </g>
   <g id="LineCollection_16">
    <path clip-path="url(#pa317a64234)" d="M 63.751492 232.04 
L 61.986818 231.445936 
L 59.826061 230.675935 
L 57.904079 229.953131 
L 57.665303 229.861463 
L 55.504545 228.988442 
L 53.343788 228.071935 
L 52.880861 227.866263 
L 51.18303 227.095886 
L 49.022273 226.071049 
L 48.432892 225.779394 
L 46.861515 224.98489 
L 44.700758 223.847011 
L 44.41865 223.692525 
L 42.54 222.640887 
" style="fill:none;stroke:#afcafc;"/>
    <path clip-path="url(#pa317a64234)" d="M 42.54 34.887647 
L 44.506367 33.787475 
L 44.700758 33.681078 
L 46.861515 32.543774 
L 48.529985 31.700606 
L 49.022273 31.457118 
L 51.18303 30.432787 
L 52.989027 29.613737 
L 53.343788 29.456198 
L 55.504545 28.540135 
L 57.665303 27.667537 
L 58.031891 27.526869 
L 59.826061 26.852452 
L 61.986818 26.082816 
L 63.897218 25.44 
" style="fill:none;stroke:#afcafc;"/>
    <path clip-path="url(#pa317a64234)" d="M 136.023083 25.44 
L 139.774091 26.733572 
L 144.095606 28.405659 
L 148.417121 30.282053 
L 152.738636 32.376074 
L 157.060152 34.702227 
L 161.381667 37.276335 
L 165.703182 40.117303 
L 170.024697 43.266169 
L 174.346212 46.739674 
L 178.667727 50.588574 
L 182.989242 54.877203 
L 186.578269 58.829899 
L 190.015999 63.003636 
L 193.125474 67.177374 
L 195.953788 71.363675 
L 198.48794 75.524848 
L 200.783429 79.698586 
L 202.847862 83.872323 
L 204.695406 88.046061 
L 206.757576 93.405925 
L 207.768359 96.393535 
L 209.022415 100.567273 
L 210.084166 104.74101 
L 211.079091 109.476324 
L 211.686573 113.088485 
L 212.228516 117.262222 
L 212.604005 121.43596 
L 212.81304 125.609697 
L 212.855621 129.783434 
L 212.731749 133.957172 
L 212.441424 138.130909 
L 211.984644 142.304646 
L 211.079091 148.053537 
L 210.561761 150.652121 
L 209.586845 154.825859 
L 208.43267 158.999596 
L 206.757576 164.122464 
L 205.554066 167.347071 
L 203.816709 171.520808 
L 201.867161 175.694545 
L 199.69156 179.868283 
L 197.274811 184.04202 
L 194.600443 188.215758 
L 191.632273 192.413815 
L 188.379057 196.563232 
L 184.771483 200.73697 
L 180.773105 204.910707 
L 176.316782 209.084444 
L 172.185455 212.569227 
L 167.863939 215.874817 
L 163.542424 218.864955 
L 159.172124 221.605657 
L 154.899394 224.021645 
L 150.577879 226.228561 
L 146.256364 228.213038 
L 141.934848 229.9887 
L 136.170109 232.04 
L 136.170109 232.04 
" style="fill:none;stroke:#afcafc;"/>
   </g>
   <g id="LineCollection_17">
    <path clip-path="url(#pa317a64234)" d="M 53.471303 232.04 
L 53.343788 231.987017 
L 51.18303 231.046619 
L 49.022273 230.063621 
L 48.789489 229.953131 
L 46.861515 229.018955 
L 44.700758 227.928499 
L 44.582164 227.866263 
L 42.54 226.771749 
" style="fill:none;stroke:#b7cff9;"/>
    <path clip-path="url(#pa317a64234)" d="M 42.54 30.756765 
L 44.673737 29.613737 
L 44.700758 29.599564 
L 46.861515 28.509637 
L 48.890758 27.526869 
L 49.022273 27.464475 
L 51.18303 26.481944 
L 53.343788 25.541992 
L 53.589371 25.44 
" style="fill:none;stroke:#b7cff9;"/>
    <path clip-path="url(#pa317a64234)" d="M 146.340074 25.44 
L 151.030534 27.526869 
L 155.247329 29.613737 
L 159.220909 31.77603 
L 163.542424 34.36703 
L 167.863939 37.21802 
L 172.185455 40.354253 
L 176.988778 44.221818 
L 181.63666 48.395556 
L 185.818875 52.569293 
L 189.602067 56.74303 
L 193.023215 60.916768 
L 196.136845 65.090505 
L 198.956964 69.264242 
L 201.518742 73.43798 
L 203.838352 77.611717 
L 205.930642 81.785455 
L 207.809273 85.959192 
L 209.486831 90.132929 
L 211.079091 94.632891 
L 212.265918 98.480404 
L 213.387602 102.654141 
L 214.327576 106.827879 
L 215.104242 111.001616 
L 215.71172 115.175354 
L 216.153423 119.349091 
L 216.434845 123.522828 
L 216.555988 127.696566 
L 216.51685 131.870303 
L 216.317432 136.04404 
L 215.957734 140.217778 
L 215.400606 144.633715 
L 214.745346 148.565253 
L 213.888926 152.73899 
L 212.862059 156.912727 
L 211.079091 162.896739 
L 210.26835 165.260202 
L 208.695021 169.433939 
L 206.757576 173.967201 
L 204.596818 178.454403 
L 202.436061 182.491857 
L 200.275303 186.175979 
L 197.613339 190.302626 
L 194.651523 194.476364 
L 191.395167 198.650101 
L 187.310758 203.361489 
L 182.989242 207.829514 
L 178.667727 211.850607 
L 174.346212 215.488632 
L 170.024697 218.779023 
L 165.703182 221.773668 
L 161.381667 224.485857 
L 157.060152 226.949369 
L 152.738636 229.179748 
L 148.417121 231.191271 
L 146.45357 232.04 
L 146.45357 232.04 
" style="fill:none;stroke:#b7cff9;"/>
   </g>
   <g id="LineCollection_18">
    <path clip-path="url(#pa317a64234)" d="M 45.092151 232.04 
L 44.700758 231.84651 
L 42.54 230.735714 
" style="fill:none;stroke:#bfd3f6;"/>
    <path clip-path="url(#pa317a64234)" d="M 42.54 26.792701 
L 44.700758 25.682433 
L 45.191386 25.44 
" style="fill:none;stroke:#bfd3f6;"/>
    <path clip-path="url(#pa317a64234)" d="M 154.739422 25.44 
L 158.764855 27.526869 
L 162.457718 29.613737 
L 165.882536 31.700606 
L 170.024697 34.449099 
L 174.835204 37.961212 
L 178.667727 41.038265 
L 182.989242 44.83516 
L 187.310758 49.031606 
L 190.631831 52.569293 
L 194.220388 56.74303 
L 198.114545 61.77327 
L 200.457668 65.090505 
L 203.160111 69.264242 
L 205.619585 73.43798 
L 207.85069 77.611717 
L 209.86688 81.785455 
L 211.68057 85.959192 
L 213.303241 90.132929 
L 214.733141 94.306667 
L 215.988621 98.480404 
L 217.071444 102.654141 
L 217.98611 106.827879 
L 218.734494 111.001616 
L 219.325517 115.175354 
L 219.758515 119.349091 
L 220.029873 123.522828 
L 220.146683 127.696566 
L 220.108945 131.870303 
L 219.916658 136.04404 
L 219.567051 140.217778 
L 219.05654 144.391515 
L 218.388667 148.565253 
L 217.561364 152.748145 
L 216.562653 156.912727 
L 215.400606 161.089553 
L 214.055226 165.260202 
L 212.532201 169.433939 
L 210.822069 173.607677 
L 208.913587 177.781414 
L 206.757576 182.022455 
L 204.451908 186.128889 
L 201.871231 190.302626 
L 199.037016 194.476364 
L 195.931844 198.650101 
L 192.509485 202.823838 
L 188.752085 206.997576 
L 184.608564 211.171313 
L 180.01618 215.345051 
L 176.50697 218.256187 
L 172.110102 221.605657 
L 167.863939 224.541666 
L 163.542424 227.270464 
L 158.855408 229.953131 
L 154.839257 232.04 
L 154.839257 232.04 
" style="fill:none;stroke:#bfd3f6;"/>
   </g>
   <g id="LineCollection_19">
    <path clip-path="url(#pa317a64234)" d="M 162.008021 25.44 
L 165.703182 27.59002 
L 170.024697 30.336873 
L 174.957719 33.787475 
L 178.667727 36.630804 
L 182.989242 40.235818 
L 187.331601 44.221818 
L 191.632273 48.583923 
L 195.953788 53.453426 
L 198.624657 56.74303 
L 202.436061 61.893586 
L 204.601887 65.090505 
L 207.19962 69.264242 
L 209.568039 73.43798 
L 211.720392 77.611717 
L 213.668928 81.785455 
L 215.424984 85.959192 
L 217.561364 91.788937 
L 218.376906 94.306667 
L 219.722121 98.952674 
L 220.643705 102.654141 
L 221.882879 108.714075 
L 222.261488 111.001616 
L 222.831745 115.175354 
L 223.250169 119.349091 
L 223.51676 123.522828 
L 223.631518 127.696566 
L 223.594443 131.870303 
L 223.405535 136.04404 
L 223.064793 140.217778 
L 222.572219 144.391515 
L 221.882879 148.812569 
L 221.118136 152.73899 
L 219.722121 158.576867 
L 219.020998 161.086465 
L 217.561364 165.738853 
L 216.245029 169.433939 
L 214.588021 173.607677 
L 212.74235 177.781414 
L 210.6969 181.955152 
L 208.439667 186.128889 
L 205.957665 190.302626 
L 203.236823 194.476364 
L 200.261579 198.650101 
L 196.991764 202.823838 
L 193.416925 206.997576 
L 189.471515 211.192231 
L 185.15 215.358627 
L 180.368854 219.518788 
L 176.50697 222.580069 
L 172.111858 225.779394 
L 167.863939 228.594203 
L 163.542424 231.21407 
L 162.09405 232.04 
L 162.09405 232.04 
" style="fill:none;stroke:#c6d6f1;"/>
   </g>
   <g id="LineCollection_20">
    <path clip-path="url(#pa317a64234)" d="M 168.514675 25.44 
L 172.185455 27.797358 
L 176.50697 30.814965 
L 180.828485 34.106743 
L 185.436186 37.961212 
L 189.959183 42.134949 
L 194.070292 46.308687 
L 198.114545 50.831417 
L 201.238118 54.656162 
L 204.596818 59.140711 
L 207.241541 63.003636 
L 209.86372 67.177374 
L 212.26006 71.351111 
L 214.443361 75.524848 
L 216.425476 79.698586 
L 218.217393 83.872323 
L 219.829316 88.046061 
L 221.916463 94.306667 
L 223.62591 100.567273 
L 224.566564 104.74101 
L 225.686955 111.001616 
L 226.246638 115.175354 
L 226.797966 121.43596 
L 227.019266 127.696566 
L 226.910536 133.957172 
L 226.471776 140.217778 
L 225.992322 144.391515 
L 224.986443 150.652121 
L 224.043636 155.195014 
L 222.537925 161.086465 
L 221.275515 165.260202 
L 219.722121 169.770964 
L 217.561364 175.237803 
L 215.486168 179.868283 
L 213.239848 184.357747 
L 211.079091 188.289974 
L 208.61445 192.389495 
L 205.871029 196.563232 
L 202.436061 201.321421 
L 199.604683 204.910707 
L 195.953788 209.171104 
L 191.632273 213.741424 
L 187.310758 217.886482 
L 182.989242 221.662995 
L 177.772042 225.779394 
L 174.346212 228.256304 
L 170.024697 231.138663 
L 168.59262 232.04 
L 168.59262 232.04 
" style="fill:none;stroke:#cdd9ec;"/>
   </g>
   <g id="LineCollection_21">
    <path clip-path="url(#pa317a64234)" d="M 174.460317 25.44 
L 178.667727 28.39589 
L 182.999291 31.700606 
L 187.963095 35.874343 
L 192.464337 40.048081 
L 196.564798 44.221818 
L 200.315721 48.395556 
L 204.596818 53.667331 
L 206.893938 56.74303 
L 209.777526 60.916768 
L 212.425206 65.090505 
L 215.400606 70.268333 
L 217.561364 74.431125 
L 220.020838 79.698586 
L 221.882879 84.187158 
L 224.043636 90.139829 
L 225.945168 96.393535 
L 227.013848 100.567273 
L 228.335244 106.827879 
L 229.021684 111.001616 
L 229.78016 117.262222 
L 230.214114 123.522828 
L 230.323546 129.783434 
L 230.108456 136.04404 
L 229.568845 142.304646 
L 228.704712 148.565253 
L 227.94126 152.73899 
L 226.512413 158.999596 
L 225.362206 163.173333 
L 224.043636 167.387828 
L 221.779729 173.607677 
L 219.722121 178.501567 
L 217.561364 183.097493 
L 215.400606 187.260271 
L 213.239848 191.076564 
L 211.079091 194.611362 
L 208.399709 198.650101 
L 204.596818 203.8612 
L 202.106235 206.997576 
L 198.114545 211.625841 
L 193.79303 216.169193 
L 189.471515 220.299403 
L 185.15 224.070374 
L 180.371985 227.866263 
L 176.50697 230.679863 
L 174.531566 232.04 
L 174.531566 232.04 
" style="fill:none;stroke:#d4dbe6;"/>
   </g>
   <g id="LineCollection_22">
    <path clip-path="url(#pa317a64234)" d="M 179.955051 25.44 
L 182.989242 27.693724 
L 187.96205 31.700606 
L 192.664696 35.874343 
L 196.948626 40.048081 
L 200.86738 44.221818 
L 204.596818 48.558493 
L 207.758691 52.569293 
L 211.079091 57.153815 
L 213.582951 60.916768 
L 216.142002 65.090505 
L 218.489847 69.264242 
L 220.637817 73.43798 
L 222.596444 77.611717 
L 224.375536 81.785455 
L 226.204394 86.585293 
L 228.075697 92.219798 
L 229.271279 96.393535 
L 230.782687 102.654141 
L 231.954307 108.914747 
L 232.804793 115.175354 
L 233.329412 121.43596 
L 233.53999 127.696566 
L 233.436527 133.957172 
L 233.019024 140.217778 
L 232.280929 146.478384 
L 231.218182 152.73899 
L 230.329124 156.912727 
L 228.707774 163.173333 
L 227.430995 167.347071 
L 225.998222 171.520808 
L 224.043636 176.549765 
L 221.66575 181.955152 
L 219.617008 186.128889 
L 217.372069 190.302626 
L 214.919814 194.476364 
L 212.248264 198.650101 
L 208.918333 203.406255 
L 206.183062 206.997576 
L 202.436061 211.529525 
L 198.114545 216.276269 
L 193.79303 220.591376 
L 189.471515 224.531162 
L 185.15 228.142553 
L 180.022441 232.04 
L 180.022441 232.04 
" style="fill:none;stroke:#dadce0;"/>
   </g>
   <g id="LineCollection_23">
    <path clip-path="url(#pa317a64234)" d="M 185.107176 25.44 
L 187.749811 27.526869 
L 192.6637 31.700606 
L 197.140065 35.874343 
L 201.234849 40.048081 
L 204.99485 44.221818 
L 208.918333 48.989222 
L 211.631937 52.569293 
L 215.400606 58.003346 
L 217.561364 61.401907 
L 219.747502 65.090505 
L 222.025436 69.264242 
L 224.112809 73.43798 
L 226.204394 78.050349 
L 228.547729 83.872323 
L 230.709403 90.132929 
L 232.519414 96.393535 
L 233.534835 100.567273 
L 234.792215 106.827879 
L 235.44633 111.001616 
L 236.168644 117.262222 
L 236.581909 123.522828 
L 236.686124 129.783434 
L 236.481289 136.04404 
L 235.967404 142.304646 
L 235.14447 148.565253 
L 234.417317 152.73899 
L 233.057692 158.999596 
L 231.965157 163.173333 
L 230.043303 169.433939 
L 228.365152 174.135709 
L 226.037391 179.868283 
L 224.043636 184.23308 
L 221.882879 188.533858 
L 219.722121 192.481519 
L 217.293467 196.563232 
L 214.594764 200.73697 
L 211.079091 205.708167 
L 208.489088 209.084444 
L 204.596818 213.765007 
L 200.275303 218.491507 
L 195.953788 222.797766 
L 191.632273 226.737443 
L 187.310758 230.355438 
L 185.170574 232.04 
L 185.170574 232.04 
" style="fill:none;stroke:#dfdbd9;"/>
   </g>
   <g id="LineCollection_24">
    <path clip-path="url(#pa317a64234)" d="M 189.955105 25.44 
L 194.853479 29.613737 
L 199.325208 33.787475 
L 203.423706 37.961212 
L 207.193829 42.134949 
L 211.079091 46.830042 
L 213.866651 50.482424 
L 217.561364 55.757259 
L 219.722121 59.106438 
L 222.062202 63.003636 
L 224.372758 67.177374 
L 226.494881 71.351111 
L 228.438003 75.524848 
L 231.027072 81.785455 
L 233.253374 88.046061 
L 235.134204 94.306667 
L 236.680651 100.567273 
L 237.531604 104.74101 
L 238.546834 111.001616 
L 239.25648 117.262222 
L 239.657014 123.522828 
L 239.758018 129.783434 
L 239.559493 136.04404 
L 239.059757 142.304646 
L 238.249696 148.565253 
L 237.13542 154.825859 
L 236.211092 158.999596 
L 234.559448 165.260202 
L 232.569855 171.520808 
L 230.225396 177.781414 
L 228.365152 182.165027 
L 226.204394 186.767248 
L 224.043636 190.964368 
L 221.882879 194.832373 
L 219.580687 198.650101 
L 216.854235 202.823838 
L 213.239848 207.888888 
L 210.704549 211.171313 
L 206.757576 215.894008 
L 202.436061 220.606026 
L 198.114545 224.908201 
L 193.79303 228.851774 
L 190.014458 232.04 
L 190.014458 232.04 
" style="fill:none;stroke:#e5d8d1;"/>
   </g>
   <g id="LineCollection_25">
    <path clip-path="url(#pa317a64234)" d="M 194.557351 25.44 
L 199.230177 29.613737 
L 203.512988 33.787475 
L 207.452656 37.961212 
L 211.088832 42.134949 
L 215.400606 47.570691 
L 217.561364 50.510222 
L 220.402353 54.656162 
L 223.048366 58.829899 
L 226.204394 64.290373 
L 228.79745 69.264242 
L 230.777282 73.43798 
L 233.426339 79.698586 
L 235.716486 85.959192 
L 237.664569 92.219798 
L 239.286392 98.480404 
L 240.585515 104.74101 
L 241.581234 111.001616 
L 242.270679 117.262222 
L 242.665137 123.522828 
L 242.76461 129.783434 
L 242.569096 136.04404 
L 242.078596 142.304646 
L 241.292547 148.565253 
L 240.195434 154.825859 
L 238.793 161.086465 
L 237.008182 167.54902 
L 235.012147 173.607677 
L 233.445416 177.781414 
L 231.720855 181.955152 
L 229.830562 186.128889 
L 227.766099 190.302626 
L 225.518447 194.476364 
L 223.07795 198.650101 
L 219.722121 203.892638 
L 217.561364 207.018419 
L 214.474942 211.171313 
L 211.079091 215.404671 
L 206.757576 220.328703 
L 202.436061 224.824451 
L 198.114545 228.945462 
L 194.614002 232.04 
L 194.614002 232.04 
" style="fill:none;stroke:#ead4c8;"/>
   </g>
   <g id="LineCollection_26">
    <path clip-path="url(#pa317a64234)" d="M 198.946945 25.44 
L 203.421923 29.613737 
L 207.53836 33.787475 
L 211.337689 37.961212 
L 215.400606 42.827569 
L 218.091957 46.308687 
L 221.882879 51.629199 
L 224.043636 54.90888 
L 226.455907 58.829899 
L 228.832375 63.003636 
L 231.024431 67.177374 
L 233.041009 71.351111 
L 235.749347 77.611717 
L 237.358506 81.785455 
L 239.484259 88.046061 
L 241.329697 94.491116 
L 242.759386 100.567273 
L 243.93375 106.827879 
L 244.806611 113.088485 
L 245.388894 119.349091 
L 245.680167 125.609697 
L 245.681277 131.870303 
L 245.392275 138.130909 
L 244.812245 144.391515 
L 243.941637 150.652121 
L 242.76968 156.912727 
L 241.295373 163.173333 
L 239.499357 169.433939 
L 238.119443 173.607677 
L 236.592653 177.781414 
L 234.005049 184.04202 
L 232.076877 188.215758 
L 229.976178 192.389495 
L 227.694167 196.563232 
L 225.221455 200.73697 
L 221.882879 205.899302 
L 219.66193 209.084444 
L 215.400606 214.701195 
L 213.168696 217.431919 
L 208.918333 222.26261 
L 204.596818 226.758015 
L 200.275303 230.886361 
L 199.001129 232.04 
L 199.001129 232.04 
" style="fill:none;stroke:#efcfbf;"/>
   </g>
   <g id="LineCollection_27">
    <path clip-path="url(#pa317a64234)" d="M 203.150511 25.44 
L 207.450943 29.613737 
L 211.420093 33.787475 
L 215.400606 38.331473 
L 219.722121 43.735639 
L 223.12234 48.395556 
L 226.204394 52.984943 
L 228.542778 56.74303 
L 230.952385 60.916768 
L 233.179487 65.090505 
L 235.232786 69.264242 
L 237.999676 75.524848 
L 239.649232 79.698586 
L 241.839097 85.959192 
L 243.705228 92.219798 
L 245.256105 98.480404 
L 246.503667 104.74101 
L 247.459112 111.001616 
L 248.123667 117.262222 
L 248.500956 123.522828 
L 248.596099 129.783434 
L 248.409095 136.04404 
L 247.939945 142.304646 
L 247.179472 148.565253 
L 246.130814 154.825859 
L 244.783075 161.086465 
L 243.132239 167.347071 
L 241.164301 173.607677 
L 238.864378 179.868283 
L 236.216643 186.128889 
L 234.250642 190.302626 
L 232.113704 194.476364 
L 229.797272 198.650101 
L 227.292205 202.823838 
L 224.043636 207.800319 
L 221.672715 211.171313 
L 217.561364 216.559394 
L 215.13036 219.518788 
L 211.079091 224.112413 
L 206.757576 228.610995 
L 203.202433 232.04 
L 203.202433 232.04 
" style="fill:none;stroke:#f2cab5;"/>
   </g>
   <g id="LineCollection_28">
    <path clip-path="url(#pa317a64234)" d="M 207.190404 25.44 
L 211.336043 29.613737 
L 215.400606 34.049475 
L 219.722121 39.197318 
L 222.020357 42.134949 
L 226.204394 47.924404 
L 229.263225 52.569293 
L 232.686667 58.272025 
L 235.266046 63.003636 
L 238.336631 69.264242 
L 240.180683 73.43798 
L 241.870462 77.611717 
L 244.123562 83.872323 
L 246.055832 90.132929 
L 247.67931 96.393535 
L 248.999013 102.654141 
L 250.033758 108.914747 
L 250.776467 115.175354 
L 251.241065 121.43596 
L 251.427551 127.696566 
L 251.335925 133.957172 
L 250.966188 140.217778 
L 250.31834 146.478384 
L 249.38396 152.73899 
L 248.162419 158.999596 
L 246.641754 165.260202 
L 244.817352 171.520808 
L 242.675393 177.781414 
L 240.201202 184.04202 
L 238.359043 188.215758 
L 236.355317 192.389495 
L 234.182195 196.563232 
L 231.831337 200.73697 
L 228.365152 206.363824 
L 225.111975 211.171313 
L 221.882879 215.573045 
L 217.561364 220.963836 
L 215.213106 223.692525 
L 211.079091 228.18284 
L 207.240247 232.04 
L 207.240247 232.04 
" style="fill:none;stroke:#f5c4ac;"/>
   </g>
   <g id="LineCollection_29">
    <path clip-path="url(#pa317a64234)" d="M 211.085539 25.44 
L 215.400606 29.954251 
L 219.722121 34.876848 
L 222.247356 37.961212 
L 226.204394 43.164032 
L 229.839439 48.395556 
L 232.686667 52.855521 
L 236.158177 58.829899 
L 239.168939 64.595434 
L 241.377408 69.264242 
L 244.025313 75.524848 
L 246.340762 81.785455 
L 248.338227 88.046061 
L 250.03135 94.306667 
L 251.422986 100.567273 
L 252.530827 106.827879 
L 253.354461 113.088485 
L 253.903905 119.349091 
L 254.179158 125.609697 
L 254.180222 131.870303 
L 253.907095 138.130909 
L 253.359777 144.391515 
L 252.53827 150.652121 
L 251.432691 156.912727 
L 249.972727 163.453529 
L 248.352449 169.433939 
L 246.357414 175.694545 
L 244.851253 179.868283 
L 242.316493 186.128889 
L 240.435446 190.302626 
L 238.394142 194.476364 
L 236.18494 198.650101 
L 233.799707 202.823838 
L 230.525909 208.08781 
L 227.001234 213.258182 
L 223.917535 217.431919 
L 219.722121 222.651691 
L 217.02034 225.779394 
L 213.172035 229.953131 
L 211.133462 232.04 
L 211.133462 232.04 
" style="fill:none;stroke:#f6bda2;"/>
   </g>
   <g id="LineCollection_30">
    <path clip-path="url(#pa317a64234)" d="M 256.455 140.699687 
L 256.316641 142.304646 
L 256.106697 144.391515 
L 255.86671 146.478384 
L 255.596682 148.565253 
L 255.296611 150.652121 
L 254.966498 152.73899 
L 254.606344 154.825859 
L 254.294242 156.495054 
L 254.215046 156.912727 
L 253.788882 158.999596 
L 253.332253 161.086465 
L 252.845158 163.173333 
L 252.327597 165.260202 
L 252.133485 165.999377 
L 251.77451 167.347071 
L 251.187745 169.433939 
L 250.570079 171.520808 
L 249.972727 173.442882 
L 249.920769 173.607677 
L 249.231442 175.694545 
L 248.510765 177.781414 
L 247.81197 179.720569 
L 247.757956 179.868283 
L 246.963047 181.955152 
L 246.136327 184.04202 
L 245.651212 185.221211 
L 245.272217 186.128889 
L 244.368571 188.215758 
L 243.490455 190.173713 
L 243.431762 190.302626 
L 242.448856 192.389495 
L 241.433175 194.476364 
L 241.329697 194.682327 
L 240.370162 196.563232 
L 239.272274 198.650101 
L 239.168939 198.84074 
L 238.125026 200.73697 
L 237.008182 202.707693 
L 236.941314 202.823838 
L 235.705514 204.910707 
L 234.847424 206.320569 
L 234.428721 206.997576 
L 233.103178 209.084444 
L 232.686667 209.72336 
L 231.727248 211.171313 
L 230.525909 212.939032 
L 230.305396 213.258182 
L 228.827439 215.345051 
L 228.365152 215.982252 
L 227.295574 217.431919 
L 226.204394 218.876464 
L 225.710818 219.518788 
L 224.069922 221.605657 
L 224.043636 221.638343 
L 222.362702 223.692525 
L 221.882879 224.266142 
L 220.594429 225.779394 
L 219.722121 226.782093 
L 218.761766 227.866263 
L 217.561364 229.193188 
L 216.861132 229.953131 
L 215.400606 231.505846 
L 214.888673 232.04 
" style="fill:none;stroke:#f7b599;"/>
    <path clip-path="url(#pa317a64234)" d="M 214.841656 25.44 
L 215.400606 26.022935 
L 216.815919 27.526869 
L 217.561364 28.335489 
L 218.718292 29.613737 
L 219.722121 30.746425 
L 220.552631 31.700606 
L 221.882879 33.262158 
L 222.322522 33.787475 
L 224.031086 35.874343 
L 224.043636 35.890021 
L 225.673067 37.961212 
L 226.204394 38.652291 
L 227.259317 40.048081 
L 228.365152 41.546061 
L 228.792625 42.134949 
L 230.271421 44.221818 
L 230.525909 44.589925 
L 231.694656 46.308687 
L 232.686667 47.804935 
L 233.071924 48.395556 
L 234.398279 50.482424 
L 234.847424 51.208196 
L 235.676355 52.569293 
L 236.912953 54.656162 
L 237.008182 54.821458 
L 238.097895 56.74303 
L 239.168939 58.687211 
L 239.246335 58.829899 
L 240.344997 60.916768 
L 241.329697 62.845597 
L 241.409155 63.003636 
L 242.425599 65.090505 
L 243.409267 67.177374 
L 243.490455 67.355552 
L 244.347163 69.264242 
L 245.25156 71.351111 
L 245.651212 72.307436 
L 246.116715 73.43798 
L 246.944175 75.524848 
L 247.739824 77.611717 
L 247.81197 77.808826 
L 248.493626 79.698586 
L 249.215032 81.785455 
L 249.905088 83.872323 
L 249.972727 84.086614 
L 250.555341 85.959192 
L 251.173726 88.046061 
L 251.76121 90.132929 
L 252.133485 91.528749 
L 252.315194 92.219798 
L 252.833463 94.306667 
L 253.321267 96.393535 
L 253.778605 98.480404 
L 254.205477 100.567273 
L 254.294242 101.034572 
L 254.597607 102.654141 
L 254.958461 104.74101 
L 255.289272 106.827879 
L 255.590042 108.914747 
L 255.860769 111.001616 
L 256.101455 113.088485 
L 256.312098 115.175354 
L 256.455 116.826596 
" style="fill:none;stroke:#f7b599;"/>
   </g>
   <g id="LineCollection_31">
    <path clip-path="url(#pa317a64234)" d="M 256.455 159.346429 
L 256.079555 161.086465 
L 255.599232 163.173333 
L 255.088868 165.260202 
L 254.548461 167.347071 
L 254.294242 168.277077 
L 253.973554 169.433939 
L 253.364596 171.520808 
L 252.725174 173.607677 
L 252.133485 175.450934 
L 252.054167 175.694545 
L 251.343797 177.781414 
L 250.602526 179.868283 
L 249.972727 181.570372 
L 249.828288 181.955152 
L 249.013562 184.04202 
L 248.167488 186.128889 
L 247.81197 186.974453 
L 247.282379 188.215758 
L 246.360226 190.302626 
L 245.651212 191.853648 
L 245.402602 192.389495 
L 244.402097 194.476364 
L 243.490455 196.318436 
L 243.367467 196.563232 
L 242.286233 198.650101 
L 241.329697 200.441974 
L 241.169797 200.73697 
L 240.005347 202.823838 
L 239.168939 204.281155 
L 238.801964 204.910707 
L 237.551694 206.997576 
L 237.008182 207.880891 
L 236.255854 209.084444 
L 234.917038 211.171313 
L 234.847424 211.277109 
L 233.522832 213.258182 
L 232.686667 214.478248 
L 232.082858 215.345051 
L 230.593693 217.431919 
L 230.525909 217.5247 
L 229.044751 219.518788 
L 228.365152 220.412935 
L 227.443235 221.605657 
L 226.204394 223.172771 
L 225.786422 223.692525 
L 224.070919 225.779394 
L 224.043636 225.811877 
L 222.287801 227.866263 
L 221.882879 228.330163 
L 220.440914 229.953131 
L 219.722121 230.745637 
L 218.526775 232.04 
" style="fill:none;stroke:#f7ad90;"/>
    <path clip-path="url(#pa317a64234)" d="M 218.48147 25.44 
L 219.722121 26.782783 
L 220.397318 27.526869 
L 221.882879 29.198095 
L 222.245854 29.613737 
L 224.030335 31.700606 
L 224.043636 31.7165 
L 225.746935 33.787475 
L 226.204394 34.356038 
L 227.405271 35.874343 
L 228.365152 37.115524 
L 229.00826 37.961212 
L 230.525909 40.003323 
L 230.558626 40.048081 
L 232.048616 42.134949 
L 232.686667 43.050389 
L 233.489955 44.221818 
L 234.847424 46.250882 
L 234.885482 46.308687 
L 236.225097 48.395556 
L 237.008182 49.647547 
L 237.522205 50.482424 
L 238.773261 52.569293 
L 239.168939 53.247647 
L 239.97786 54.656162 
L 241.143085 56.74303 
L 241.329697 57.087072 
L 242.260688 58.829899 
L 243.342685 60.916768 
L 243.490455 61.210677 
L 244.378436 63.003636 
L 245.379692 65.090505 
L 245.651212 65.675277 
L 246.338394 67.177374 
L 247.261287 69.264242 
L 247.81197 70.553913 
L 248.147431 71.351111 
L 248.994235 73.43798 
L 249.809689 75.524848 
L 249.972727 75.958768 
L 250.584912 77.611717 
L 251.326902 79.698586 
L 252.037991 81.785455 
L 252.133485 82.078436 
L 252.709935 83.872323 
L 253.350067 85.959192 
L 253.959733 88.046061 
L 254.294242 89.251305 
L 254.535531 90.132929 
L 255.076637 92.219798 
L 255.5877 94.306667 
L 256.068722 96.393535 
L 256.455 98.181004 
" style="fill:none;stroke:#f7ad90;"/>
   </g>
   <g id="LineCollection_32">
    <path clip-path="url(#pa317a64234)" d="M 256.455 170.326875 
L 256.111449 171.520808 
L 255.480916 173.607677 
L 254.820342 175.694545 
L 254.294242 177.284284 
L 254.127405 177.781414 
L 253.396586 179.868283 
L 252.635301 181.955152 
L 252.133485 183.277819 
L 251.839403 184.04202 
L 251.005428 186.128889 
L 250.140552 188.215758 
L 249.972727 188.606734 
L 249.234213 190.302626 
L 248.294089 192.389495 
L 247.81197 193.425159 
L 247.315412 194.476364 
L 246.297825 196.563232 
L 245.651212 197.849109 
L 245.242409 198.650101 
L 244.145044 200.73697 
L 243.490455 201.94623 
L 243.008187 202.823838 
L 241.828624 204.910707 
L 241.329697 205.769539 
L 240.605297 206.997576 
L 239.341003 209.084444 
L 239.168939 209.361172 
L 238.025822 211.171313 
L 237.008182 212.742462 
L 236.668839 213.258182 
L 235.261345 215.345051 
L 234.847424 215.944148 
L 233.802913 217.431919 
L 232.686667 218.984881 
L 232.296603 219.518788 
L 230.736506 221.605657 
L 230.525909 221.881101 
L 229.117831 223.692525 
L 228.365152 224.639757 
L 227.444216 225.779394 
L 226.204394 227.280994 
L 225.712814 227.866263 
L 224.043636 229.812153 
L 223.920581 229.953131 
L 222.061067 232.04 
" style="fill:none;stroke:#f6a586;"/>
    <path clip-path="url(#pa317a64234)" d="M 222.017354 25.44 
L 223.877751 27.526869 
L 224.043636 27.716824 
L 225.671591 29.613737 
L 226.204394 30.247772 
L 227.404546 31.700606 
L 228.365152 32.888733 
L 229.079662 33.787475 
L 230.525909 35.64704 
L 230.699789 35.874343 
L 232.260711 37.961212 
L 232.686667 38.543932 
L 233.768412 40.048081 
L 234.847424 41.584143 
L 235.228191 42.134949 
L 236.636484 44.221818 
L 237.008182 44.786381 
L 237.99476 46.308687 
L 239.168939 48.166907 
L 239.311194 48.395556 
L 240.576261 50.482424 
L 241.329697 51.758881 
L 241.800791 52.569293 
L 242.981117 54.656162 
L 243.490455 55.582415 
L 244.11913 56.74303 
L 245.217245 58.829899 
L 245.651212 59.679596 
L 246.273772 60.916768 
L 247.292099 63.003636 
L 247.81197 64.103367 
L 248.271844 65.090505 
L 249.212697 67.177374 
L 249.972727 68.921274 
L 250.120063 69.264242 
L 250.985658 71.351111 
L 251.820352 73.43798 
L 252.133485 74.250959 
L 252.617227 75.524848 
L 253.379221 77.611717 
L 254.110749 79.698586 
L 254.294242 80.244794 
L 254.804616 81.785455 
L 255.46589 83.872323 
L 256.097121 85.959192 
L 256.455 87.201472 
" style="fill:none;stroke:#f6a586;"/>
   </g>
   <g id="LineCollection_33">
    <path clip-path="url(#pa317a64234)" d="M 256.455 178.964781 
L 256.142994 179.868283 
L 255.392293 181.955152 
L 254.61155 184.04202 
L 254.294242 184.858735 
L 253.793808 186.128889 
L 252.941126 188.215758 
L 252.133485 190.124205 
L 252.056898 190.302626 
L 251.130219 192.389495 
L 250.172639 194.476364 
L 249.972727 194.898415 
L 249.172717 196.563232 
L 248.138544 198.650101 
L 247.81197 199.289711 
L 247.062143 200.73697 
L 245.949123 202.823838 
L 245.651212 203.366889 
L 244.791637 204.910707 
L 243.597413 206.997576 
L 243.490455 207.179562 
L 242.35392 209.084444 
L 241.329697 210.757059 
L 241.072122 211.171313 
L 239.741266 213.258182 
L 239.168939 214.133733 
L 238.364743 215.345051 
L 237.008182 217.339703 
L 236.944469 217.431919 
L 235.468297 219.518788 
L 234.847424 220.376564 
L 233.94342 221.605657 
L 232.686667 223.276368 
L 232.368484 223.692525 
L 230.737455 225.779394 
L 230.525909 226.044302 
L 229.04668 227.866263 
L 228.365152 228.688206 
L 227.298517 229.953131 
L 226.204394 231.224169 
L 225.489994 232.04 
" style="fill:none;stroke:#f59c7d;"/>
    <path clip-path="url(#pa317a64234)" d="M 225.447036 25.44 
L 226.204394 26.304478 
L 227.257141 27.526869 
L 228.365152 28.840226 
L 229.006833 29.613737 
L 230.525909 31.483851 
L 230.699087 31.700606 
L 232.330942 33.787475 
L 232.686667 34.252494 
L 233.907295 35.874343 
L 234.847424 37.151876 
L 235.433545 37.961212 
L 236.910516 40.048081 
L 237.008182 40.189361 
L 238.332108 42.134949 
L 239.168939 43.394709 
L 239.709908 44.221818 
L 241.041538 46.308687 
L 241.329697 46.771853 
L 242.324563 48.395556 
L 243.490455 50.348446 
L 243.569245 50.482424 
L 244.76422 52.569293 
L 245.651212 54.161323 
L 245.92285 54.656162 
L 247.03661 56.74303 
L 247.81197 58.238547 
L 248.114111 58.829899 
L 249.149013 60.916768 
L 249.972727 62.629666 
L 250.149994 63.003636 
L 251.108293 65.090505 
L 252.03569 67.177374 
L 252.133485 67.40502 
L 252.920926 69.264242 
L 253.774316 71.351111 
L 254.294242 72.6696 
L 254.593029 73.43798 
L 255.37447 75.524848 
L 256.12587 77.611717 
L 256.455 78.563882 
" style="fill:none;stroke:#f59c7d;"/>
   </g>
   <g id="LineCollection_34">
    <path clip-path="url(#pa317a64234)" d="M 256.455 186.32668 
L 255.693866 188.215758 
L 254.822997 190.302626 
L 254.294242 191.527433 
L 253.916839 192.389495 
L 252.972761 194.476364 
L 252.133485 196.273571 
L 251.996282 196.563232 
L 250.976899 198.650101 
L 249.972727 200.645347 
L 249.925946 200.73697 
L 248.829074 202.823838 
L 247.81197 204.705175 
L 247.699217 204.910707 
L 246.522575 206.997576 
L 245.651212 208.502325 
L 245.309084 209.084444 
L 244.050287 211.171313 
L 243.490455 212.07621 
L 242.748112 213.258182 
L 241.404668 215.345051 
L 241.329697 215.458734 
L 240.008405 217.431919 
L 239.168939 218.656394 
L 238.568458 219.518788 
L 237.081576 221.605657 
L 237.008182 221.706378 
L 235.537893 223.692525 
L 234.847424 224.604967 
L 233.944353 225.779394 
L 232.686667 227.380182 
L 232.298501 227.866263 
L 230.596539 229.953131 
L 230.525909 230.037967 
L 228.831297 232.04 
" style="fill:none;stroke:#f29274;"/>
    <path clip-path="url(#pa317a64234)" d="M 228.789772 25.44 
L 230.525909 27.490117 
L 230.556521 27.526869 
L 232.259308 29.613737 
L 232.686667 30.148632 
L 233.906605 31.700606 
L 234.847424 32.923505 
L 235.501544 33.787475 
L 237.008182 35.821673 
L 237.046582 35.874343 
L 238.53425 37.961212 
L 239.168939 38.872241 
L 239.975498 40.048081 
L 241.329697 42.069288 
L 241.373022 42.134949 
L 242.717229 44.221818 
L 243.490455 45.452246 
L 244.020617 46.308687 
L 245.280165 48.395556 
L 245.651212 49.026493 
L 246.494822 50.482424 
L 247.672204 52.569293 
L 247.81197 52.823902 
L 248.803183 54.656162 
L 249.900784 56.74303 
L 249.972727 56.883838 
L 250.952815 58.829899 
L 251.972917 60.916768 
L 252.133485 61.25551 
L 252.950434 63.003636 
L 253.895222 65.090505 
L 254.294242 66.001239 
L 254.802379 67.177374 
L 255.673947 69.264242 
L 256.455 71.201148 
" style="fill:none;stroke:#f29274;"/>
   </g>
   <g id="LineCollection_35">
    <path clip-path="url(#pa317a64234)" d="M 256.455 192.840097 
L 255.725061 194.476364 
L 254.764066 196.563232 
L 254.294242 197.55256 
L 253.765681 198.650101 
L 252.730205 200.73697 
L 252.133485 201.905211 
L 251.657554 202.823838 
L 250.545467 204.910707 
L 249.972727 205.956416 
L 249.394206 206.997576 
L 248.203285 209.084444 
L 247.81197 209.752565 
L 246.968782 211.171313 
L 245.696706 213.258182 
L 245.651212 213.330994 
L 244.374016 215.345051 
L 243.490455 216.705186 
L 243.011198 217.431919 
L 241.602202 219.518788 
L 241.329697 219.91322 
L 240.142419 221.605657 
L 239.168939 222.962485 
L 238.636965 223.692525 
L 237.082481 225.779394 
L 237.008182 225.877016 
L 235.470134 227.866263 
L 234.847424 228.654866 
L 233.805713 229.953131 
L 232.686667 231.319308 
L 232.086653 232.04 
" style="fill:none;stroke:#ef886b;"/>
    <path clip-path="url(#pa317a64234)" d="M 232.04581 25.44 
L 232.686667 26.209384 
L 233.766341 27.526869 
L 234.847424 28.873549 
L 235.432187 29.613737 
L 237.008182 31.651055 
L 237.045913 31.700606 
L 238.601184 33.787475 
L 239.168939 34.566216 
L 240.107964 35.874343 
L 241.329697 37.614975 
L 241.569031 37.961212 
L 242.97879 40.048081 
L 243.490455 40.823527 
L 244.342843 42.134949 
L 245.651212 44.196992 
L 245.666733 44.221818 
L 246.939548 46.308687 
L 247.81197 47.775747 
L 248.175206 48.395556 
L 249.366856 50.482424 
L 249.972727 51.57212 
L 250.519227 52.569293 
L 251.632032 54.656162 
L 252.133485 55.623406 
L 252.705752 56.74303 
L 253.741937 58.829899 
L 254.294242 59.975935 
L 254.741351 60.916768 
L 255.703045 63.003636 
L 256.455 64.687991 
" style="fill:none;stroke:#ef886b;"/>
   </g>
   <g id="LineCollection_36">
    <path clip-path="url(#pa317a64234)" d="M 256.455 198.75629 
L 255.485878 200.73697 
L 254.434757 202.823838 
L 254.294242 203.095061 
L 253.340332 204.910707 
L 252.213459 206.997576 
L 252.133485 207.141783 
L 251.040714 209.084444 
L 249.972727 210.93435 
L 249.833939 211.171313 
L 248.580319 213.258182 
L 247.81197 214.506028 
L 247.287744 215.345051 
L 245.952046 217.431919 
L 245.651212 217.891002 
L 244.568598 219.518788 
L 243.490455 221.103 
L 243.14318 221.605657 
L 241.668631 223.692525 
L 241.329697 224.161774 
L 240.14331 225.779394 
L 239.168939 227.079658 
L 238.570266 227.866263 
L 237.008182 229.875934 
L 236.947224 229.953131 
L 235.265019 232.04 
" style="fill:none;stroke:#eb7d62;"/>
    <path clip-path="url(#pa317a64234)" d="M 235.225474 25.44 
L 236.908478 27.526869 
L 237.008182 27.653073 
L 238.532912 29.613737 
L 239.168939 30.449008 
L 240.107306 31.700606 
L 241.329697 33.366474 
L 241.633936 33.787475 
L 243.109247 35.874343 
L 243.490455 36.425824 
L 244.535924 37.961212 
L 245.651212 39.637219 
L 245.920592 40.048081 
L 247.257031 42.134949 
L 247.81197 43.022625 
L 248.550781 44.221818 
L 249.80513 46.308687 
L 249.972727 46.594667 
L 251.013036 48.395556 
L 252.133485 50.386202 
L 252.18688 50.482424 
L 253.314461 52.569293 
L 254.294242 54.432975 
L 254.409945 54.656162 
L 255.461765 56.74303 
L 256.455 58.771603 
" style="fill:none;stroke:#eb7d62;"/>
   </g>
   <g id="LineCollection_37">
    <path clip-path="url(#pa317a64234)" d="M 256.455 204.201398 
L 256.087522 204.910707 
L 254.976317 206.997576 
L 254.294242 208.244808 
L 253.828596 209.084444 
L 252.640793 211.171313 
L 252.133485 212.04032 
L 251.412356 213.258182 
L 250.145763 215.345051 
L 249.972727 215.623359 
L 248.831955 217.431919 
L 247.81197 219.011369 
L 247.479462 219.518788 
L 246.080141 221.605657 
L 245.651212 222.231119 
L 244.634035 223.692525 
L 243.490455 225.299811 
L 243.144056 225.779394 
L 241.603955 227.866263 
L 241.329697 228.230144 
L 240.011076 229.953131 
L 239.168939 231.031053 
L 238.36836 232.04 
" style="fill:none;stroke:#e67259;"/>
    <path clip-path="url(#pa317a64234)" d="M 238.329434 25.44 
L 239.168939 26.497502 
L 239.973523 27.526869 
L 241.329697 29.298066 
L 241.567735 29.613737 
L 243.108599 31.700606 
L 243.490455 32.229013 
L 244.599858 33.787475 
L 245.651212 35.297203 
L 246.047208 35.874343 
L 247.447268 37.961212 
L 247.81197 38.517459 
L 248.800958 40.048081 
L 249.972727 41.904755 
L 250.115928 42.134949 
L 251.38324 44.221818 
L 252.133485 45.488115 
L 252.612796 46.308687 
L 253.801308 48.395556 
L 254.294242 49.283853 
L 254.950107 50.482424 
L 256.062011 52.569293 
L 256.455 53.327353 
" style="fill:none;stroke:#e67259;"/>
   </g>
   <g id="LineCollection_38">
    <path clip-path="url(#pa317a64234)" d="M 256.455 209.287552 
L 255.397709 211.171313 
L 254.294242 213.088178 
L 254.194998 213.258182 
L 252.946263 215.345051 
L 252.133485 216.671006 
L 251.660393 217.431919 
L 250.331997 219.518788 
L 249.972727 220.07036 
L 248.958192 221.605657 
L 247.81197 223.301678 
L 247.543935 223.692525 
L 246.080992 225.779394 
L 245.651212 226.379422 
L 244.570325 227.866263 
L 243.490455 229.320751 
L 243.013828 229.953131 
L 241.408174 232.04 
" style="fill:none;stroke:#e16751;"/>
    <path clip-path="url(#pa317a64234)" d="M 241.370429 25.44 
L 242.976845 27.526869 
L 243.490455 28.207987 
L 244.534646 29.613737 
L 245.651212 31.148897 
L 246.046578 31.700606 
L 247.510261 33.787475 
L 247.81197 34.227197 
L 248.925736 35.874343 
L 249.972727 37.457918 
L 250.300725 37.961212 
L 251.629839 40.048081 
L 252.133485 40.857688 
L 252.916849 42.134949 
L 254.166292 44.221818 
L 254.294242 44.440866 
L 255.370101 46.308687 
L 256.455 48.240483 
" style="fill:none;stroke:#e16751;"/>
   </g>
   <g id="LineCollection_39">
    <path clip-path="url(#pa317a64234)" d="M 256.455 214.063705 
L 255.698932 215.345051 
L 254.437517 217.431919 
L 254.294242 217.663438 
L 253.129872 219.518788 
L 252.133485 221.070374 
L 251.784824 221.605657 
L 250.394626 223.692525 
L 249.972727 224.31208 
L 248.95903 225.779394 
L 247.81197 227.404415 
L 247.481164 227.866263 
L 245.954599 229.953131 
L 245.651212 230.359405 
L 244.37747 232.04 
" style="fill:none;stroke:#da5a49;"/>
    <path clip-path="url(#pa317a64234)" d="M 244.340289 25.44 
L 245.651212 27.168831 
L 245.918705 27.526869 
L 247.44601 29.613737 
L 247.81197 30.124412 
L 248.925116 31.700606 
L 249.972727 33.216244 
L 250.361916 33.787475 
L 251.752833 35.874343 
L 252.133485 36.458433 
L 253.09904 37.961212 
L 254.294242 39.864661 
L 254.407813 40.048081 
L 255.669927 42.134949 
L 256.455 43.464697 
" style="fill:none;stroke:#da5a49;"/>
   </g>
   <g id="LineCollection_40">
    <path clip-path="url(#pa317a64234)" d="M 256.455 218.589624 
L 255.879988 219.518788 
L 254.558489 221.605657 
L 254.294242 222.013671 
L 253.191618 223.692525 
L 252.133485 225.268604 
L 251.785651 225.779394 
L 250.33365 227.866263 
L 249.972727 228.374185 
L 248.83447 229.953131 
L 247.81197 231.342551 
L 247.291148 232.04 
" style="fill:none;stroke:#d44e41;"/>
    <path clip-path="url(#pa317a64234)" d="M 247.254514 25.44 
L 247.81197 26.186152 
L 248.799097 27.526869 
L 249.972727 29.154094 
L 250.299502 29.613737 
L 251.752222 31.700606 
L 252.133485 32.260204 
L 253.159368 33.787475 
L 254.294242 35.514539 
L 254.527387 35.874343 
L 255.849585 37.961212 
L 256.455 38.938975 
" style="fill:none;stroke:#d44e41;"/>
   </g>
   <g id="LineCollection_41">
    <path clip-path="url(#pa317a64234)" d="M 256.455 222.898683 
L 255.940875 223.692525 
L 254.559293 225.779394 
L 254.294242 226.171229 
L 253.131502 227.866263 
L 252.133485 229.290845 
L 251.662872 229.953131 
L 250.149069 232.04 
" style="fill:none;stroke:#cc403a;"/>
    <path clip-path="url(#pa317a64234)" d="M 250.113483 25.44 
L 251.628005 27.526869 
L 252.133485 28.237879 
L 253.097835 29.613737 
L 254.294242 31.356987 
L 254.526793 31.700606 
L 255.909074 33.787475 
L 256.455 34.629984 
" style="fill:none;stroke:#cc403a;"/>
   </g>
   <g id="LineCollection_42">
    <path clip-path="url(#pa317a64234)" d="M 256.455 227.018572 
L 255.881595 227.866263 
L 254.439928 229.953131 
L 254.294242 230.159712 
L 252.949523 232.04 
" style="fill:none;stroke:#c43032;"/>
    <path clip-path="url(#pa317a64234)" d="M 252.914438 25.44 
L 254.294242 27.36843 
L 254.40603 27.526869 
L 255.848396 29.613737 
L 256.455 30.510063 
" style="fill:none;stroke:#c43032;"/>
   </g>
   <g id="LineCollection_43">
    <path clip-path="url(#pa317a64234)" d="M 256.455 230.972461 
L 255.702146 232.04 
" style="fill:none;stroke:#bb1b2c;"/>
    <path clip-path="url(#pa317a64234)" d="M 255.66755 25.44 
L 256.455 26.556067 
" style="fill:none;stroke:#bb1b2c;"/>
   </g>
   <g id="LineCollection_44"/>
   <g id="line2d_11">
    <path clip-path="url(#pa317a64234)" d="M 42.54 128.74 
L 256.455 128.74 
" style="fill:none;stroke:#000000;stroke-linecap:square;stroke-width:0.5;"/>
   </g>
   <g id="line2d_12">
    <path clip-path="url(#pa317a64234)" d="M 149.4975 232.04 
L 149.4975 25.44 
" style="fill:none;stroke:#000000;stroke-linecap:square;stroke-width:0.5;"/>
   </g>
   <g id="line2d_13">
    <path clip-path="url(#pa317a64234)" d="M 170.889 128.74 
L 170.843199 127.388771 
L 170.705993 126.043329 
L 170.477968 124.709434 
L 170.160102 123.392799 
L 169.753756 122.099061 
L 169.260669 120.83376 
L 168.682953 119.602316 
L 168.023082 118.41 
L 167.283882 117.261919 
L 166.468518 116.162989 
L 165.580481 115.117915 
L 164.623575 114.131174 
L 163.601896 113.20699 
L 162.51982 112.34932 
L 161.381981 111.561838 
L 160.19325 110.847915 
L 158.958719 110.210609 
L 157.683673 109.652649 
L 156.373572 109.176424 
L 155.034028 108.783972 
L 153.670775 108.476976 
L 152.289651 108.256749 
L 150.896571 108.124235 
L 149.4975 108.08 
L 149.4975 108.08 
L 148.098429 108.124235 
L 146.705349 108.256749 
L 145.324225 108.476976 
L 143.960972 108.783972 
L 142.621428 109.176424 
L 141.311327 109.652649 
L 140.036281 110.210609 
L 138.80175 110.847915 
L 137.613019 111.561838 
L 136.47518 112.34932 
L 135.393104 113.20699 
L 134.371425 114.131174 
L 133.414519 115.117915 
L 132.526482 116.162989 
L 131.711118 117.261919 
L 130.971918 118.41 
L 130.312047 119.602316 
L 129.734331 120.83376 
L 129.241244 122.099061 
L 128.834898 123.392799 
L 128.517032 124.709434 
L 128.289007 126.043329 
L 128.151801 127.388771 
L 128.106 128.74 
L 128.106 128.74 
L 128.151801 130.091229 
L 128.289007 131.436671 
L 128.517032 132.770566 
L 128.834898 134.087201 
L 129.241244 135.380939 
L 129.734331 136.64624 
L 130.312047 137.877684 
L 130.971918 139.07 
L 131.711118 140.218081 
L 132.526482 141.317011 
L 133.414519 142.362085 
L 134.371425 143.348826 
L 135.393104 144.27301 
L 136.47518 145.13068 
L 137.613019 145.918162 
L 138.80175 146.632085 
L 140.036281 147.269391 
L 141.311327 147.827351 
L 142.621428 148.303576 
L 143.960972 148.696028 
L 145.324225 149.003024 
L 146.705349 149.223251 
L 148.098429 149.355765 
L 149.4975 149.4 
L 149.4975 149.4 
L 150.896571 149.355765 
L 152.289651 149.223251 
L 153.670775 149.003024 
L 155.034028 148.696028 
L 156.373572 148.303576 
L 157.683673 147.827351 
L 158.958719 147.269391 
L 160.19325 146.632085 
L 161.381981 145.918162 
L 162.51982 145.13068 
L 163.601896 144.27301 
L 164.623575 143.348826 
L 165.580481 142.362085 
L 166.468518 141.317011 
L 167.283882 140.218081 
L 168.023082 139.07 
L 168.682953 137.877684 
L 169.260669 136.64624 
L 169.753756 135.380939 
L 170.160102 134.087201 
L 170.477968 132.770566 
L 170.705993 131.436671 
L 170.843199 130.091229 
L 170.889 128.74 
" style="fill:none;stroke:#2d435d;stroke-linecap:square;stroke-width:1.5;"/>
   </g>
   <g id="line2d_14">
    <path clip-path="url(#pa317a64234)" d="M 202.97625 77.09 
L 149.4975 128.74 
" style="fill:none;stroke:#000000;stroke-dasharray:1.5,2.475;stroke-dashoffset:0;stroke-width:1.5;"/>
   </g>
   <g id="patch_3">
    <path d="M 42.54 232.04 
L 42.54 25.44 
" style="fill:none;stroke:#000000;stroke-linecap:square;stroke-linejoin:miter;stroke-width:0.8;"/>
   </g>
   <g id="patch_4">
    <path d="M 256.455 232.04 
L 256.455 25.44 
" style="fill:none;stroke:#000000;stroke-linecap:square;stroke-linejoin:miter;stroke-width:0.8;"/>
   </g>
   <g id="patch_5">
    <path d="M 42.54 232.04 
L 256.455 232.04 
" style="fill:none;stroke:#000000;stroke-linecap:square;stroke-linejoin:miter;stroke-width:0.8;"/>
   </g>
   <g id="patch_6">
    <path d="M 42.54 25.44 
L 256.455 25.44 
" style="fill:none;stroke:#000000;stroke-linecap:square;stroke-linejoin:miter;stroke-width:0.8;"/>
   </g>
   <g id="text_13">
    <!-- l2 constraint w/symmetric loss function -->
    <defs>
     <path d="M 9.421875 75.984375 
L 18.40625 75.984375 
L 18.40625 0 
L 9.421875 0 
z
" id="DejaVuSans-108"/>
     <path id="DejaVuSans-32"/>
     <path d="M 48.78125 52.59375 
L 48.78125 44.1875 
Q 44.96875 46.296875 41.140625 47.34375 
Q 37.3125 48.390625 33.40625 48.390625 
Q 24.65625 48.390625 19.8125 42.84375 
Q 14.984375 37.3125 14.984375 27.296875 
Q 14.984375 17.28125 19.8125 11.734375 
Q 24.65625 6.203125 33.40625 6.203125 
Q 37.3125 6.203125 41.140625 7.25 
Q 44.96875 8.296875 48.78125 10.40625 
L 48.78125 2.09375 
Q 45.015625 0.34375 40.984375 -0.53125 
Q 36.96875 -1.421875 32.421875 -1.421875 
Q 20.0625 -1.421875 12.78125 6.34375 
Q 5.515625 14.109375 5.515625 27.296875 
Q 5.515625 40.671875 12.859375 48.328125 
Q 20.21875 56 33.015625 56 
Q 37.15625 56 41.109375 55.140625 
Q 45.0625 54.296875 48.78125 52.59375 
z
" id="DejaVuSans-99"/>
     <path d="M 30.609375 48.390625 
Q 23.390625 48.390625 19.1875 42.75 
Q 14.984375 37.109375 14.984375 27.296875 
Q 14.984375 17.484375 19.15625 11.84375 
Q 23.34375 6.203125 30.609375 6.203125 
Q 37.796875 6.203125 41.984375 11.859375 
Q 46.1875 17.53125 46.1875 27.296875 
Q 46.1875 37.015625 41.984375 42.703125 
Q 37.796875 48.390625 30.609375 48.390625 
z
M 30.609375 56 
Q 42.328125 56 49.015625 48.375 
Q 55.71875 40.765625 55.71875 27.296875 
Q 55.71875 13.875 49.015625 6.21875 
Q 42.328125 -1.421875 30.609375 -1.421875 
Q 18.84375 -1.421875 12.171875 6.21875 
Q 5.515625 13.875 5.515625 27.296875 
Q 5.515625 40.765625 12.171875 48.375 
Q 18.84375 56 30.609375 56 
z
" id="DejaVuSans-111"/>
     <path d="M 54.890625 33.015625 
L 54.890625 0 
L 45.90625 0 
L 45.90625 32.71875 
Q 45.90625 40.484375 42.875 44.328125 
Q 39.84375 48.1875 33.796875 48.1875 
Q 26.515625 48.1875 22.3125 43.546875 
Q 18.109375 38.921875 18.109375 30.90625 
L 18.109375 0 
L 9.078125 0 
L 9.078125 54.6875 
L 18.109375 54.6875 
L 18.109375 46.1875 
Q 21.34375 51.125 25.703125 53.5625 
Q 30.078125 56 35.796875 56 
Q 45.21875 56 50.046875 50.171875 
Q 54.890625 44.34375 54.890625 33.015625 
z
" id="DejaVuSans-110"/>
     <path d="M 44.28125 53.078125 
L 44.28125 44.578125 
Q 40.484375 46.53125 36.375 47.5 
Q 32.28125 48.484375 27.875 48.484375 
Q 21.1875 48.484375 17.84375 46.4375 
Q 14.5 44.390625 14.5 40.28125 
Q 14.5 37.15625 16.890625 35.375 
Q 19.28125 33.59375 26.515625 31.984375 
L 29.59375 31.296875 
Q 39.15625 29.25 43.1875 25.515625 
Q 47.21875 21.78125 47.21875 15.09375 
Q 47.21875 7.46875 41.1875 3.015625 
Q 35.15625 -1.421875 24.609375 -1.421875 
Q 20.21875 -1.421875 15.453125 -0.5625 
Q 10.6875 0.296875 5.421875 2 
L 5.421875 11.28125 
Q 10.40625 8.6875 15.234375 7.390625 
Q 20.0625 6.109375 24.8125 6.109375 
Q 31.15625 6.109375 34.5625 8.28125 
Q 37.984375 10.453125 37.984375 14.40625 
Q 37.984375 18.0625 35.515625 20.015625 
Q 33.0625 21.96875 24.703125 23.78125 
L 21.578125 24.515625 
Q 13.234375 26.265625 9.515625 29.90625 
Q 5.8125 33.546875 5.8125 39.890625 
Q 5.8125 47.609375 11.28125 51.796875 
Q 16.75 56 26.8125 56 
Q 31.78125 56 36.171875 55.265625 
Q 40.578125 54.546875 44.28125 53.078125 
z
" id="DejaVuSans-115"/>
     <path d="M 18.3125 70.21875 
L 18.3125 54.6875 
L 36.8125 54.6875 
L 36.8125 47.703125 
L 18.3125 47.703125 
L 18.3125 18.015625 
Q 18.3125 11.328125 20.140625 9.421875 
Q 21.96875 7.515625 27.59375 7.515625 
L 36.8125 7.515625 
L 36.8125 0 
L 27.59375 0 
Q 17.1875 0 13.234375 3.875 
Q 9.28125 7.765625 9.28125 18.015625 
L 9.28125 47.703125 
L 2.6875 47.703125 
L 2.6875 54.6875 
L 9.28125 54.6875 
L 9.28125 70.21875 
z
" id="DejaVuSans-116"/>
     <path d="M 41.109375 46.296875 
Q 39.59375 47.171875 37.8125 47.578125 
Q 36.03125 48 33.890625 48 
Q 26.265625 48 22.1875 43.046875 
Q 18.109375 38.09375 18.109375 28.8125 
L 18.109375 0 
L 9.078125 0 
L 9.078125 54.6875 
L 18.109375 54.6875 
L 18.109375 46.1875 
Q 20.953125 51.171875 25.484375 53.578125 
Q 30.03125 56 36.53125 56 
Q 37.453125 56 38.578125 55.875 
Q 39.703125 55.765625 41.0625 55.515625 
z
" id="DejaVuSans-114"/>
     <path d="M 34.28125 27.484375 
Q 23.390625 27.484375 19.1875 25 
Q 14.984375 22.515625 14.984375 16.5 
Q 14.984375 11.71875 18.140625 8.90625 
Q 21.296875 6.109375 26.703125 6.109375 
Q 34.1875 6.109375 38.703125 11.40625 
Q 43.21875 16.703125 43.21875 25.484375 
L 43.21875 27.484375 
z
M 52.203125 31.203125 
L 52.203125 0 
L 43.21875 0 
L 43.21875 8.296875 
Q 40.140625 3.328125 35.546875 0.953125 
Q 30.953125 -1.421875 24.3125 -1.421875 
Q 15.921875 -1.421875 10.953125 3.296875 
Q 6 8.015625 6 15.921875 
Q 6 25.140625 12.171875 29.828125 
Q 18.359375 34.515625 30.609375 34.515625 
L 43.21875 34.515625 
L 43.21875 35.40625 
Q 43.21875 41.609375 39.140625 45 
Q 35.0625 48.390625 27.6875 48.390625 
Q 23 48.390625 18.546875 47.265625 
Q 14.109375 46.140625 10.015625 43.890625 
L 10.015625 52.203125 
Q 14.9375 54.109375 19.578125 55.046875 
Q 24.21875 56 28.609375 56 
Q 40.484375 56 46.34375 49.84375 
Q 52.203125 43.703125 52.203125 31.203125 
z
" id="DejaVuSans-97"/>
     <path d="M 9.421875 54.6875 
L 18.40625 54.6875 
L 18.40625 0 
L 9.421875 0 
z
M 9.421875 75.984375 
L 18.40625 75.984375 
L 18.40625 64.59375 
L 9.421875 64.59375 
z
" id="DejaVuSans-105"/>
     <path d="M 4.203125 54.6875 
L 13.1875 54.6875 
L 24.421875 12.015625 
L 35.59375 54.6875 
L 46.1875 54.6875 
L 57.421875 12.015625 
L 68.609375 54.6875 
L 77.59375 54.6875 
L 63.28125 0 
L 52.6875 0 
L 40.921875 44.828125 
L 29.109375 0 
L 18.5 0 
z
" id="DejaVuSans-119"/>
     <path d="M 25.390625 72.90625 
L 33.6875 72.90625 
L 8.296875 -9.28125 
L 0 -9.28125 
z
" id="DejaVuSans-47"/>
     <path d="M 32.171875 -5.078125 
Q 28.375 -14.84375 24.75 -17.8125 
Q 21.140625 -20.796875 15.09375 -20.796875 
L 7.90625 -20.796875 
L 7.90625 -13.28125 
L 13.1875 -13.28125 
Q 16.890625 -13.28125 18.9375 -11.515625 
Q 21 -9.765625 23.484375 -3.21875 
L 25.09375 0.875 
L 2.984375 54.6875 
L 12.5 54.6875 
L 29.59375 11.921875 
L 46.6875 54.6875 
L 56.203125 54.6875 
z
" id="DejaVuSans-121"/>
     <path d="M 52 44.1875 
Q 55.375 50.25 60.0625 53.125 
Q 64.75 56 71.09375 56 
Q 79.640625 56 84.28125 50.015625 
Q 88.921875 44.046875 88.921875 33.015625 
L 88.921875 0 
L 79.890625 0 
L 79.890625 32.71875 
Q 79.890625 40.578125 77.09375 44.375 
Q 74.3125 48.1875 68.609375 48.1875 
Q 61.625 48.1875 57.5625 43.546875 
Q 53.515625 38.921875 53.515625 30.90625 
L 53.515625 0 
L 44.484375 0 
L 44.484375 32.71875 
Q 44.484375 40.625 41.703125 44.40625 
Q 38.921875 48.1875 33.109375 48.1875 
Q 26.21875 48.1875 22.15625 43.53125 
Q 18.109375 38.875 18.109375 30.90625 
L 18.109375 0 
L 9.078125 0 
L 9.078125 54.6875 
L 18.109375 54.6875 
L 18.109375 46.1875 
Q 21.1875 51.21875 25.484375 53.609375 
Q 29.78125 56 35.6875 56 
Q 41.65625 56 45.828125 52.96875 
Q 50 49.953125 52 44.1875 
z
" id="DejaVuSans-109"/>
     <path d="M 56.203125 29.59375 
L 56.203125 25.203125 
L 14.890625 25.203125 
Q 15.484375 15.921875 20.484375 11.0625 
Q 25.484375 6.203125 34.421875 6.203125 
Q 39.59375 6.203125 44.453125 7.46875 
Q 49.3125 8.734375 54.109375 11.28125 
L 54.109375 2.78125 
Q 49.265625 0.734375 44.1875 -0.34375 
Q 39.109375 -1.421875 33.890625 -1.421875 
Q 20.796875 -1.421875 13.15625 6.1875 
Q 5.515625 13.8125 5.515625 26.8125 
Q 5.515625 40.234375 12.765625 48.109375 
Q 20.015625 56 32.328125 56 
Q 43.359375 56 49.78125 48.890625 
Q 56.203125 41.796875 56.203125 29.59375 
z
M 47.21875 32.234375 
Q 47.125 39.59375 43.09375 43.984375 
Q 39.0625 48.390625 32.421875 48.390625 
Q 24.90625 48.390625 20.390625 44.140625 
Q 15.875 39.890625 15.1875 32.171875 
z
" id="DejaVuSans-101"/>
     <path d="M 37.109375 75.984375 
L 37.109375 68.5 
L 28.515625 68.5 
Q 23.6875 68.5 21.796875 66.546875 
Q 19.921875 64.59375 19.921875 59.515625 
L 19.921875 54.6875 
L 34.71875 54.6875 
L 34.71875 47.703125 
L 19.921875 47.703125 
L 19.921875 0 
L 10.890625 0 
L 10.890625 47.703125 
L 2.296875 47.703125 
L 2.296875 54.6875 
L 10.890625 54.6875 
L 10.890625 58.5 
Q 10.890625 67.625 15.140625 71.796875 
Q 19.390625 75.984375 28.609375 75.984375 
z
" id="DejaVuSans-102"/>
     <path d="M 8.5 21.578125 
L 8.5 54.6875 
L 17.484375 54.6875 
L 17.484375 21.921875 
Q 17.484375 14.15625 20.5 10.265625 
Q 23.53125 6.390625 29.59375 6.390625 
Q 36.859375 6.390625 41.078125 11.03125 
Q 45.3125 15.671875 45.3125 23.6875 
L 45.3125 54.6875 
L 54.296875 54.6875 
L 54.296875 0 
L 45.3125 0 
L 45.3125 8.40625 
Q 42.046875 3.421875 37.71875 1 
Q 33.40625 -1.421875 27.6875 -1.421875 
Q 18.265625 -1.421875 13.375 4.4375 
Q 8.5 10.296875 8.5 21.578125 
z
M 31.109375 56 
z
" id="DejaVuSans-117"/>
    </defs>
    <g transform="translate(41.150937 19.44)scale(0.11 -0.11)">
     <use xlink:href="#DejaVuSans-108"/>
     <use x="27.783203" xlink:href="#DejaVuSans-50"/>
     <use x="91.40625" xlink:href="#DejaVuSans-32"/>
     <use x="123.193359" xlink:href="#DejaVuSans-99"/>
     <use x="178.173828" xlink:href="#DejaVuSans-111"/>
     <use x="239.355469" xlink:href="#DejaVuSans-110"/>
     <use x="302.734375" xlink:href="#DejaVuSans-115"/>
     <use x="354.833984" xlink:href="#DejaVuSans-116"/>
     <use x="394.042969" xlink:href="#DejaVuSans-114"/>
     <use x="435.15625" xlink:href="#DejaVuSans-97"/>
     <use x="496.435547" xlink:href="#DejaVuSans-105"/>
     <use x="524.21875" xlink:href="#DejaVuSans-110"/>
     <use x="587.597656" xlink:href="#DejaVuSans-116"/>
     <use x="626.806641" xlink:href="#DejaVuSans-32"/>
     <use x="658.59375" xlink:href="#DejaVuSans-119"/>
     <use x="740.380859" xlink:href="#DejaVuSans-47"/>
     <use x="774.072266" xlink:href="#DejaVuSans-115"/>
     <use x="826.171875" xlink:href="#DejaVuSans-121"/>
     <use x="885.351562" xlink:href="#DejaVuSans-109"/>
     <use x="982.763672" xlink:href="#DejaVuSans-109"/>
     <use x="1080.175781" xlink:href="#DejaVuSans-101"/>
     <use x="1141.699219" xlink:href="#DejaVuSans-116"/>
     <use x="1180.908203" xlink:href="#DejaVuSans-114"/>
     <use x="1222.021484" xlink:href="#DejaVuSans-105"/>
     <use x="1249.804688" xlink:href="#DejaVuSans-99"/>
     <use x="1304.785156" xlink:href="#DejaVuSans-32"/>
     <use x="1336.572266" xlink:href="#DejaVuSans-108"/>
     <use x="1364.355469" xlink:href="#DejaVuSans-111"/>
     <use x="1425.537109" xlink:href="#DejaVuSans-115"/>
     <use x="1477.636719" xlink:href="#DejaVuSans-115"/>
     <use x="1529.736328" xlink:href="#DejaVuSans-32"/>
     <use x="1561.523438" xlink:href="#DejaVuSans-102"/>
     <use x="1596.728516" xlink:href="#DejaVuSans-117"/>
     <use x="1660.107422" xlink:href="#DejaVuSans-110"/>
     <use x="1723.486328" xlink:href="#DejaVuSans-99"/>
     <use x="1778.466797" xlink:href="#DejaVuSans-116"/>
     <use x="1817.675781" xlink:href="#DejaVuSans-105"/>
     <use x="1845.458984" xlink:href="#DejaVuSans-111"/>
     <use x="1906.640625" xlink:href="#DejaVuSans-110"/>
    </g>
   </g>
  </g>
 </g>
 <defs>
  <clipPath id="pa317a64234">
   <rect height="206.6" width="213.915" x="42.54" y="25.44"/>
  </clipPath>
 </defs>
</svg>
