<?xml version="1.0" encoding="utf-8" standalone="no"?>
<!DOCTYPE svg PUBLIC "-//W3C//DTD SVG 1.1//EN"
  "http://www.w3.org/Graphics/SVG/1.1/DTD/svg11.dtd">
<!-- Created with matplotlib (https://matplotlib.org/) -->
<svg height="273.6pt" version="1.1" viewBox="0 0 273.6 273.6" width="273.6pt" xmlns="http://www.w3.org/2000/svg" xmlns:xlink="http://www.w3.org/1999/xlink">
 <defs>
  <style type="text/css">
*{stroke-linecap:butt;stroke-linejoin:round;}
  </style>
 </defs>
 <g id="figure_1">
  <g id="patch_1">
   <path d="M 0 273.6 
L 273.6 273.6 
L 273.6 0 
L 0 0 
z
" style="fill:#ffffff;"/>
  </g>
  <g id="axes_1">
   <g id="patch_2">
    <path d="M 42.54 232.04 
L 256.455 232.04 
L 256.455 25.44 
L 42.54 25.44 
z
" style="fill:#ffffff;"/>
   </g>
   <g id="PathCollection_1">
    <defs>
     <path d="M 0 4.743416 
C 1.257969 4.743416 2.464584 4.24362 3.354102 3.354102 
C 4.24362 2.464584 4.743416 1.257969 4.743416 0 
C 4.743416 -1.257969 4.24362 -2.464584 3.354102 -3.354102 
C 2.464584 -4.24362 1.257969 -4.743416 0 -4.743416 
C -1.257969 -4.743416 -2.464584 -4.24362 -3.354102 -3.354102 
C -4.24362 -2.464584 -4.743416 -1.257969 -4.743416 0 
C -4.743416 1.257969 -4.24362 2.464584 -3.354102 3.354102 
C -2.464584 4.24362 -1.257969 4.743416 0 4.743416 
z
" id="mf7950a21f9" style="stroke:#000000;"/>
    </defs>
    <g clip-path="url(#p2ef07e77fc)">
     <use style="stroke:#000000;" x="202.97625" xlink:href="#mf7950a21f9" y="77.09"/>
    </g>
   </g>
   <g id="PathCollection_2">
    <defs>
     <path d="M 0 4.743416 
C 1.257969 4.743416 2.464584 4.24362 3.354102 3.354102 
C 4.24362 2.464584 4.743416 1.257969 4.743416 0 
C 4.743416 -1.257969 4.24362 -2.464584 3.354102 -3.354102 
C 2.464584 -4.24362 1.257969 -4.743416 0 -4.743416 
C -1.257969 -4.743416 -2.464584 -4.24362 -3.354102 -3.354102 
C -4.24362 -2.464584 -4.743416 -1.257969 -4.743416 0 
C -4.743416 1.257969 -4.24362 2.464584 -3.354102 3.354102 
C -2.464584 4.24362 -1.257969 4.743416 0 4.743416 
z
" id="mad72b0fddb" style="stroke:#e32ca6;"/>
    </defs>
    <g clip-path="url(#p2ef07e77fc)">
     <use style="fill:#e32ca6;stroke:#e32ca6;" x="164.623575" xlink:href="#mad72b0fddb" y="114.131174"/>
    </g>
   </g>
   <g id="matplotlib.axis_1">
    <g id="xtick_1">
     <g id="line2d_1">
      <defs>
       <path d="M 0 0 
L 0 3.5 
" id="m83497c06da" style="stroke:#000000;stroke-width:0.8;"/>
      </defs>
      <g>
       <use style="stroke:#000000;stroke-width:0.8;" x="42.54" xlink:href="#m83497c06da" y="232.04"/>
      </g>
     </g>
     <g id="text_1">
      <!-- −10 -->
      <defs>
       <path d="M 10.59375 35.5 
L 73.1875 35.5 
L 73.1875 27.203125 
L 10.59375 27.203125 
z
" id="DejaVuSans-8722"/>
       <path d="M 12.40625 8.296875 
L 28.515625 8.296875 
L 28.515625 63.921875 
L 10.984375 60.40625 
L 10.984375 69.390625 
L 28.421875 72.90625 
L 38.28125 72.90625 
L 38.28125 8.296875 
L 54.390625 8.296875 
L 54.390625 0 
L 12.40625 0 
z
" id="DejaVuSans-49"/>
       <path d="M 31.78125 66.40625 
Q 24.171875 66.40625 20.328125 58.90625 
Q 16.5 51.421875 16.5 36.375 
Q 16.5 21.390625 20.328125 13.890625 
Q 24.171875 6.390625 31.78125 6.390625 
Q 39.453125 6.390625 43.28125 13.890625 
Q 47.125 21.390625 47.125 36.375 
Q 47.125 51.421875 43.28125 58.90625 
Q 39.453125 66.40625 31.78125 66.40625 
z
M 31.78125 74.21875 
Q 44.046875 74.21875 50.515625 64.515625 
Q 56.984375 54.828125 56.984375 36.375 
Q 56.984375 17.96875 50.515625 8.265625 
Q 44.046875 -1.421875 31.78125 -1.421875 
Q 19.53125 -1.421875 13.0625 8.265625 
Q 6.59375 17.96875 6.59375 36.375 
Q 6.59375 54.828125 13.0625 64.515625 
Q 19.53125 74.21875 31.78125 74.21875 
z
" id="DejaVuSans-48"/>
      </defs>
      <g transform="translate(31.987656 246.638437)scale(0.1 -0.1)">
       <use xlink:href="#DejaVuSans-8722"/>
       <use x="83.789062" xlink:href="#DejaVuSans-49"/>
       <use x="147.412109" xlink:href="#DejaVuSans-48"/>
      </g>
     </g>
    </g>
    <g id="xtick_2">
     <g id="line2d_2">
      <g>
       <use style="stroke:#000000;stroke-width:0.8;" x="96.01875" xlink:href="#m83497c06da" y="232.04"/>
      </g>
     </g>
     <g id="text_2">
      <!-- −5 -->
      <defs>
       <path d="M 10.796875 72.90625 
L 49.515625 72.90625 
L 49.515625 64.59375 
L 19.828125 64.59375 
L 19.828125 46.734375 
Q 21.96875 47.46875 24.109375 47.828125 
Q 26.265625 48.1875 28.421875 48.1875 
Q 40.625 48.1875 47.75 41.5 
Q 54.890625 34.8125 54.890625 23.390625 
Q 54.890625 11.625 47.5625 5.09375 
Q 40.234375 -1.421875 26.90625 -1.421875 
Q 22.3125 -1.421875 17.546875 -0.640625 
Q 12.796875 0.140625 7.71875 1.703125 
L 7.71875 11.625 
Q 12.109375 9.234375 16.796875 8.0625 
Q 21.484375 6.890625 26.703125 6.890625 
Q 35.15625 6.890625 40.078125 11.328125 
Q 45.015625 15.765625 45.015625 23.390625 
Q 45.015625 31 40.078125 35.4375 
Q 35.15625 39.890625 26.703125 39.890625 
Q 22.75 39.890625 18.8125 39.015625 
Q 14.890625 38.140625 10.796875 36.28125 
z
" id="DejaVuSans-53"/>
      </defs>
      <g transform="translate(88.647656 246.638437)scale(0.1 -0.1)">
       <use xlink:href="#DejaVuSans-8722"/>
       <use x="83.789062" xlink:href="#DejaVuSans-53"/>
      </g>
     </g>
    </g>
    <g id="xtick_3">
     <g id="line2d_3">
      <g>
       <use style="stroke:#000000;stroke-width:0.8;" x="149.4975" xlink:href="#m83497c06da" y="232.04"/>
      </g>
     </g>
     <g id="text_3">
      <!-- 0 -->
      <g transform="translate(146.31625 246.638437)scale(0.1 -0.1)">
       <use xlink:href="#DejaVuSans-48"/>
      </g>
     </g>
    </g>
    <g id="xtick_4">
     <g id="line2d_4">
      <g>
       <use style="stroke:#000000;stroke-width:0.8;" x="202.97625" xlink:href="#m83497c06da" y="232.04"/>
      </g>
     </g>
     <g id="text_4">
      <!-- 5 -->
      <g transform="translate(199.795 246.638437)scale(0.1 -0.1)">
       <use xlink:href="#DejaVuSans-53"/>
      </g>
     </g>
    </g>
    <g id="xtick_5">
     <g id="line2d_5">
      <g>
       <use style="stroke:#000000;stroke-width:0.8;" x="256.455" xlink:href="#m83497c06da" y="232.04"/>
      </g>
     </g>
     <g id="text_5">
      <!-- 10 -->
      <g transform="translate(250.0925 246.638437)scale(0.1 -0.1)">
       <use xlink:href="#DejaVuSans-49"/>
       <use x="63.623047" xlink:href="#DejaVuSans-48"/>
      </g>
     </g>
    </g>
    <g id="text_6">
     <!-- $\beta_1$ -->
     <defs>
      <path d="M 13.625 3.375 
L 8.9375 -20.796875 
L -0.09375 -20.796875 
L 14.5 54.34375 
Q 18.84375 76.609375 39.65625 76.609375 
Q 60.75 76.609375 57.171875 57.8125 
Q 54.734375 44.4375 45.21875 39.546875 
Q 58.015625 35.15625 55.515625 22.125 
Q 51.125 -1.078125 27.484375 -1.03125 
Q 17.140625 -0.984375 13.625 3.375 
z
M 15.921875 15.09375 
Q 19.671875 6.59375 29.296875 6.640625 
Q 43.359375 6.640625 46.34375 21.96875 
Q 49.03125 35.75 26.171875 34.671875 
L 27.78125 42.96875 
Q 45.453125 42.671875 48.53125 58.59375 
Q 50.640625 69.34375 39.203125 69.28125 
Q 26.421875 69.28125 23.484375 54.046875 
z
" id="DejaVuSans-Oblique-946"/>
     </defs>
     <g transform="translate(142.7775 257.958125)scale(0.12 -0.12)">
      <use transform="translate(0 0.390625)" xlink:href="#DejaVuSans-Oblique-946"/>
      <use transform="translate(63.818359 -16.015625)scale(0.7)" xlink:href="#DejaVuSans-49"/>
     </g>
    </g>
   </g>
   <g id="matplotlib.axis_2">
    <g id="ytick_1">
     <g id="line2d_6">
      <defs>
       <path d="M 0 0 
L -3.5 0 
" id="ma2a0dd70d2" style="stroke:#000000;stroke-width:0.8;"/>
      </defs>
      <g>
       <use style="stroke:#000000;stroke-width:0.8;" x="42.54" xlink:href="#ma2a0dd70d2" y="232.04"/>
      </g>
     </g>
     <g id="text_7">
      <!-- −10 -->
      <g transform="translate(14.435312 235.839219)scale(0.1 -0.1)">
       <use xlink:href="#DejaVuSans-8722"/>
       <use x="83.789062" xlink:href="#DejaVuSans-49"/>
       <use x="147.412109" xlink:href="#DejaVuSans-48"/>
      </g>
     </g>
    </g>
    <g id="ytick_2">
     <g id="line2d_7">
      <g>
       <use style="stroke:#000000;stroke-width:0.8;" x="42.54" xlink:href="#ma2a0dd70d2" y="180.39"/>
      </g>
     </g>
     <g id="text_8">
      <!-- −5 -->
      <g transform="translate(20.797812 184.189219)scale(0.1 -0.1)">
       <use xlink:href="#DejaVuSans-8722"/>
       <use x="83.789062" xlink:href="#DejaVuSans-53"/>
      </g>
     </g>
    </g>
    <g id="ytick_3">
     <g id="line2d_8">
      <g>
       <use style="stroke:#000000;stroke-width:0.8;" x="42.54" xlink:href="#ma2a0dd70d2" y="128.74"/>
      </g>
     </g>
     <g id="text_9">
      <!-- 0 -->
      <g transform="translate(29.1775 132.539219)scale(0.1 -0.1)">
       <use xlink:href="#DejaVuSans-48"/>
      </g>
     </g>
    </g>
    <g id="ytick_4">
     <g id="line2d_9">
      <g>
       <use style="stroke:#000000;stroke-width:0.8;" x="42.54" xlink:href="#ma2a0dd70d2" y="77.09"/>
      </g>
     </g>
     <g id="text_10">
      <!-- 5 -->
      <g transform="translate(29.1775 80.889219)scale(0.1 -0.1)">
       <use xlink:href="#DejaVuSans-53"/>
      </g>
     </g>
    </g>
    <g id="ytick_5">
     <g id="line2d_10">
      <g>
       <use style="stroke:#000000;stroke-width:0.8;" x="42.54" xlink:href="#ma2a0dd70d2" y="25.44"/>
      </g>
     </g>
     <g id="text_11">
      <!-- 10 -->
      <g transform="translate(22.815 29.239219)scale(0.1 -0.1)">
       <use xlink:href="#DejaVuSans-49"/>
       <use x="63.623047" xlink:href="#DejaVuSans-48"/>
      </g>
     </g>
    </g>
    <g id="text_12">
     <!-- $\beta_2$ -->
     <defs>
      <path d="M 19.1875 8.296875 
L 53.609375 8.296875 
L 53.609375 0 
L 7.328125 0 
L 7.328125 8.296875 
Q 12.9375 14.109375 22.625 23.890625 
Q 32.328125 33.6875 34.8125 36.53125 
Q 39.546875 41.84375 41.421875 45.53125 
Q 43.3125 49.21875 43.3125 52.78125 
Q 43.3125 58.59375 39.234375 62.25 
Q 35.15625 65.921875 28.609375 65.921875 
Q 23.96875 65.921875 18.8125 64.3125 
Q 13.671875 62.703125 7.8125 59.421875 
L 7.8125 69.390625 
Q 13.765625 71.78125 18.9375 73 
Q 24.125 74.21875 28.421875 74.21875 
Q 39.75 74.21875 46.484375 68.546875 
Q 53.21875 62.890625 53.21875 53.421875 
Q 53.21875 48.921875 51.53125 44.890625 
Q 49.859375 40.875 45.40625 35.40625 
Q 44.1875 33.984375 37.640625 27.21875 
Q 31.109375 20.453125 19.1875 8.296875 
z
" id="DejaVuSans-50"/>
     </defs>
     <g transform="translate(21.915312 135.46)rotate(-90)scale(0.12 -0.12)">
      <use transform="translate(0 0.390625)" xlink:href="#DejaVuSans-Oblique-946"/>
      <use transform="translate(63.818359 -16.015625)scale(0.7)" xlink:href="#DejaVuSans-50"/>
     </g>
    </g>
   </g>
   <g id="LineCollection_1"/>
   <g id="LineCollection_2">
    <path clip-path="url(#p2ef07e77fc)" d="M 198.642416 232.04 
L 198.42677 229.953131 
L 198.320867 227.866263 
L 198.324705 225.779394 
L 198.438286 223.692525 
L 198.661608 221.605657 
L 198.994673 219.518788 
L 199.437481 217.431919 
L 199.99003 215.345051 
L 200.275303 214.44616 
L 200.672494 213.258182 
L 201.485837 211.171313 
L 202.414793 209.084444 
L 202.436061 209.041956 
L 203.517212 206.997576 
L 204.596818 205.159553 
L 204.751742 204.910707 
L 206.180428 202.823838 
L 206.757576 202.050852 
L 207.80111 200.73697 
L 208.918333 199.438221 
L 209.642451 198.650101 
L 211.079091 197.197892 
L 211.752811 196.563232 
L 213.239848 195.255579 
L 214.195787 194.476364 
L 215.400606 193.555525 
L 217.056746 192.389495 
L 217.561364 192.055067 
L 219.722121 190.745564 
L 220.528424 190.302626 
L 221.882879 189.599821 
L 224.043636 188.594351 
L 224.963044 188.215758 
L 226.204394 187.731448 
L 228.365152 186.998067 
L 230.525909 186.374319 
L 231.557421 186.128889 
L 232.686667 185.873615 
L 234.847424 185.489323 
L 237.008182 185.209192 
L 239.168939 185.033223 
L 241.329697 184.961414 
L 243.490455 184.993767 
L 245.651212 185.130281 
L 247.81197 185.370957 
L 249.972727 185.715794 
L 251.960707 186.128889 
L 252.133485 186.166678 
L 254.294242 186.748897 
L 256.455 187.44075 
" style="fill:none;stroke:#4055c8;"/>
   </g>
   <g id="LineCollection_3">
    <path clip-path="url(#p2ef07e77fc)" d="M 180.549165 232.04 
L 180.401169 229.953131 
L 180.328487 227.866263 
L 180.331122 225.779394 
L 180.409071 223.692525 
L 180.562337 221.605657 
L 180.790918 219.518788 
L 180.828485 219.260812 
L 181.104433 217.431919 
L 181.49734 215.345051 
L 181.968283 213.258182 
L 182.517261 211.171313 
L 182.989242 209.600433 
L 183.150084 209.084444 
L 183.88155 206.997576 
L 184.693976 204.910707 
L 185.15 203.845474 
L 185.604386 202.823838 
L 186.616658 200.73697 
L 187.310758 199.415813 
L 187.729335 198.650101 
L 188.957643 196.563232 
L 189.471515 195.748243 
L 190.307322 194.476364 
L 191.632273 192.585873 
L 191.77597 192.389495 
L 193.398246 190.302626 
L 193.79303 189.822941 
L 195.176738 188.215758 
L 195.953788 187.360626 
L 197.127154 186.128889 
L 198.114545 185.144113 
L 199.275688 184.04202 
L 200.275303 183.138345 
L 201.654142 181.955152 
L 202.436061 181.31463 
L 204.301509 179.868283 
L 204.596818 179.649259 
L 206.757576 178.137272 
L 207.298541 177.781414 
L 208.918333 176.760214 
L 210.72373 175.694545 
L 211.079091 175.493166 
L 213.239848 174.352044 
L 214.760411 173.607677 
L 215.400606 173.306317 
L 217.561364 172.369338 
L 219.701207 171.520808 
L 219.722121 171.512821 
L 221.882879 170.764883 
L 224.043636 170.094136 
L 226.204394 169.500581 
L 226.483258 169.433939 
L 228.365152 169.000258 
L 230.525909 168.57675 
L 232.686667 168.227681 
L 234.847424 167.95305 
L 237.008182 167.752856 
L 239.168939 167.627101 
L 241.329697 167.575784 
L 243.490455 167.598904 
L 245.651212 167.696463 
L 247.81197 167.86846 
L 249.972727 168.114895 
L 252.133485 168.435768 
L 254.294242 168.831079 
L 256.455 169.300828 
" style="fill:none;stroke:#485fd1;"/>
   </g>
   <g id="LineCollection_4">
    <path clip-path="url(#p2ef07e77fc)" d="M 166.704983 232.04 
L 166.582584 229.953131 
L 166.522474 227.866263 
L 166.524653 225.779394 
L 166.58912 223.692525 
L 166.715876 221.605657 
L 166.904921 219.518788 
L 167.156254 217.431919 
L 167.469877 215.345051 
L 167.845787 213.258182 
L 167.863939 213.171735 
L 168.296455 211.171313 
L 168.811799 209.084444 
L 169.391281 206.997576 
L 170.024697 204.943792 
L 170.035213 204.910707 
L 170.764621 202.823838 
L 171.560129 200.73697 
L 172.185455 199.22239 
L 172.429192 198.650101 
L 173.386174 196.563232 
L 174.346212 194.608944 
L 174.413464 194.476364 
L 175.542443 192.389495 
L 176.50697 190.711271 
L 176.749741 190.302626 
L 178.062304 188.215758 
L 178.667727 187.303753 
L 179.474831 186.128889 
L 180.828485 184.256788 
L 180.989385 184.04202 
L 182.630861 181.955152 
L 182.989242 181.520205 
L 184.401372 179.868283 
L 185.15 179.030548 
L 186.309722 177.781414 
L 187.310758 176.748061 
L 188.372661 175.694545 
L 189.471515 174.647918 
L 190.609766 173.607677 
L 191.632273 172.709107 
L 193.044065 171.520808 
L 193.79303 170.913725 
L 195.702832 169.433939 
L 195.953788 169.246426 
L 198.114545 167.706348 
L 198.644219 167.347071 
L 200.275303 166.278812 
L 201.913798 165.260202 
L 202.436061 164.946335 
L 204.596818 163.717253 
L 205.610338 163.173333 
L 206.757576 162.57749 
L 208.918333 161.522497 
L 209.872176 161.086465 
L 211.079091 160.551968 
L 213.239848 159.660193 
L 214.966605 158.999596 
L 215.400606 158.838588 
L 217.561364 158.100152 
L 219.722121 157.424887 
L 221.5301 156.912727 
L 221.882879 156.815729 
L 224.043636 156.282935 
L 226.204394 155.811457 
L 228.365152 155.401294 
L 230.525909 155.052446 
L 232.228677 154.825859 
L 232.686667 154.766653 
L 234.847424 154.546893 
L 237.008182 154.386699 
L 239.168939 154.286069 
L 241.329697 154.245005 
L 243.490455 154.263507 
L 245.651212 154.341573 
L 247.81197 154.479205 
L 249.972727 154.676402 
L 251.230464 154.825859 
L 252.133485 154.936317 
L 254.294242 155.261939 
L 256.455 155.648876 
" style="fill:none;stroke:#4f69d9;"/>
   </g>
   <g id="LineCollection_5">
    <path clip-path="url(#p2ef07e77fc)" d="M 155.035294 232.04 
L 154.928315 229.953131 
L 154.899394 228.804359 
L 154.876358 227.866263 
L 154.878215 225.779394 
L 154.899394 224.975227 
L 154.934027 223.692525 
L 155.044815 221.605657 
L 155.210044 219.518788 
L 155.429715 217.431919 
L 155.703827 215.345051 
L 156.032382 213.258182 
L 156.415378 211.171313 
L 156.852815 209.084444 
L 157.060152 208.204791 
L 157.352049 206.997576 
L 157.912491 204.910707 
L 158.528781 202.823838 
L 159.200921 200.73697 
L 159.220909 200.679671 
L 159.947694 198.650101 
L 160.752329 196.563232 
L 161.381667 195.039567 
L 161.620634 194.476364 
L 162.564986 192.389495 
L 163.542424 190.356307 
L 163.568954 190.302626 
L 164.660853 188.215758 
L 165.703182 186.328284 
L 165.816469 186.128889 
L 167.064422 184.04202 
L 167.863939 182.7686 
L 168.389823 181.955152 
L 169.803094 179.868283 
L 170.024697 179.555265 
L 171.318919 177.781414 
L 172.185455 176.643162 
L 172.930411 175.694545 
L 174.346212 173.963701 
L 174.646923 173.607677 
L 176.479976 171.520808 
L 176.50697 171.491213 
L 178.446639 169.433939 
L 178.667727 169.20781 
L 180.550402 167.347071 
L 180.828485 167.081694 
L 182.80612 165.260202 
L 182.989242 165.097153 
L 185.15 163.24274 
L 185.234021 163.173333 
L 187.310758 161.513085 
L 187.866014 161.086465 
L 189.471515 159.891415 
L 190.720216 158.999596 
L 191.632273 158.367925 
L 193.79303 156.934602 
L 193.827527 156.912727 
L 195.953788 155.604065 
L 197.279299 154.825859 
L 198.114545 154.349483 
L 200.275303 153.176678 
L 201.12484 152.73899 
L 202.436061 152.082186 
L 204.596818 151.057752 
L 205.503647 150.652121 
L 206.757576 150.106375 
L 208.918333 149.2223 
L 210.633537 148.565253 
L 211.079091 148.399061 
L 213.239848 147.647963 
L 215.400606 146.951733 
L 216.995323 146.478384 
L 217.561364 146.314674 
L 219.722121 145.743203 
L 221.882879 145.225193 
L 224.043636 144.760645 
L 225.983859 144.391515 
L 226.204394 144.350606 
L 228.365152 144.001914 
L 230.525909 143.705348 
L 232.686667 143.460907 
L 234.847424 143.268593 
L 237.008182 143.128406 
L 239.168939 143.040344 
L 241.329697 143.004408 
L 243.490455 143.020599 
L 245.651212 143.088916 
L 247.81197 143.209359 
L 249.972727 143.381928 
L 252.133485 143.606623 
L 254.294242 143.883444 
L 256.455 144.212391 
" style="fill:none;stroke:#5572df;"/>
   </g>
   <g id="LineCollection_6">
    <path clip-path="url(#p2ef07e77fc)" d="M 144.768129 232.04 
L 144.673119 229.953131 
L 144.626459 227.866263 
L 144.62815 225.779394 
L 144.678192 223.692525 
L 144.776584 221.605657 
L 144.923327 219.518788 
L 145.118421 217.431919 
L 145.361865 215.345051 
L 145.653659 213.258182 
L 145.993804 211.171313 
L 146.256364 209.760931 
L 146.385182 209.084444 
L 146.832027 206.997576 
L 147.32833 204.910707 
L 147.874089 202.823838 
L 148.417121 200.919934 
L 148.470529 200.73697 
L 149.130304 198.650101 
L 149.840696 196.563232 
L 150.577879 194.541696 
L 150.602275 194.476364 
L 151.433366 192.389495 
L 152.316287 190.302626 
L 152.738636 189.359715 
L 153.263631 188.215758 
L 154.274459 186.128889 
L 154.899394 184.903099 
L 155.349451 184.04202 
L 156.494631 181.955152 
L 157.060152 180.971368 
L 157.710642 179.868283 
L 158.997118 177.781414 
L 159.220909 177.433494 
L 160.369121 175.694545 
L 161.381667 174.222316 
L 161.815915 173.607677 
L 163.349199 171.520808 
L 163.542424 171.267547 
L 164.980574 169.433939 
L 165.703182 168.545494 
L 166.706006 167.347071 
L 167.863939 166.010943 
L 168.533869 165.260202 
L 170.024697 163.645165 
L 170.473565 163.173333 
L 172.185455 161.431846 
L 172.535679 161.086465 
L 174.346212 159.356708 
L 174.73218 158.999596 
L 176.50697 157.407203 
L 177.076647 156.912727 
L 178.667727 155.572257 
L 179.584551 154.825859 
L 180.828485 153.84206 
L 182.2736 152.73899 
L 182.989242 152.207892 
L 185.15 150.662248 
L 185.164708 150.652121 
L 187.310758 149.214413 
L 188.318999 148.565253 
L 189.471515 147.84271 
L 191.632273 146.542942 
L 191.744325 146.478384 
L 193.79303 145.328279 
L 195.538641 144.391515 
L 195.953788 144.174296 
L 198.114545 143.095837 
L 199.780255 142.304646 
L 200.275303 142.075235 
L 202.436061 141.12477 
L 204.596818 140.225161 
L 204.615614 140.217778 
L 206.757576 139.396424 
L 208.918333 138.617508 
L 210.360079 138.130909 
L 211.079091 137.893877 
L 213.239848 137.230045 
L 215.400606 136.614706 
L 217.561364 136.04786 
L 217.577284 136.04404 
L 219.722121 135.54119 
L 221.882879 135.081998 
L 224.043636 134.670198 
L 226.204394 134.305788 
L 228.365152 133.98877 
L 228.618376 133.957172 
L 230.525909 133.724428 
L 232.686667 133.507127 
L 234.847424 133.336165 
L 237.008182 133.211541 
L 239.168939 133.133257 
L 241.329697 133.101311 
L 243.490455 133.115704 
L 245.651212 133.176436 
L 247.81197 133.283506 
L 249.972727 133.436916 
L 252.133485 133.636664 
L 254.294242 133.882752 
L 254.844138 133.957172 
L 256.455 134.180128 
" style="fill:none;stroke:#5d7ce6;"/>
   </g>
   <g id="LineCollection_7">
    <path clip-path="url(#p2ef07e77fc)" d="M 135.480666 232.04 
L 135.452576 231.367791 
L 135.394651 229.953131 
L 135.352686 227.866263 
L 135.354207 225.779394 
L 135.399214 223.692525 
L 135.452576 222.4341 
L 135.488427 221.605657 
L 135.623114 219.518788 
L 135.80218 217.431919 
L 136.025624 215.345051 
L 136.293447 213.258182 
L 136.605648 211.171313 
L 136.962227 209.084444 
L 137.363185 206.997576 
L 137.613333 205.825367 
L 137.812614 204.910707 
L 138.312597 202.823838 
L 138.85789 200.73697 
L 139.448491 198.650101 
L 139.774091 197.58158 
L 140.091048 196.563232 
L 140.786858 194.476364 
L 141.528947 192.389495 
L 141.934848 191.315044 
L 142.325687 190.302626 
L 143.178602 188.215758 
L 144.078811 186.128889 
L 144.095606 186.091897 
L 145.047137 184.04202 
L 146.06419 181.955152 
L 146.256364 181.57873 
L 147.149581 179.868283 
L 148.288828 177.781414 
L 148.417121 177.556184 
L 149.502372 175.694545 
L 150.577879 173.923315 
L 150.774134 173.607677 
L 152.123525 171.520808 
L 152.738636 170.604709 
L 153.544065 169.433939 
L 154.899394 167.534109 
L 155.036188 167.347071 
L 156.616901 165.260202 
L 157.060152 164.694503 
L 158.282863 163.173333 
L 159.220909 162.043917 
L 160.037229 161.086465 
L 161.381667 159.558812 
L 161.887229 158.999596 
L 163.542424 157.224161 
L 163.840901 156.912727 
L 165.703182 155.0267 
L 165.907211 154.825859 
L 167.863939 152.954683 
L 168.09619 152.73899 
L 170.024697 150.997667 
L 170.419094 150.652121 
L 172.185455 149.146335 
L 172.888603 148.565253 
L 174.346212 147.392353 
L 175.519048 146.478384 
L 176.50697 145.728237 
L 178.32669 144.391515 
L 178.667727 144.147255 
L 180.828485 142.651787 
L 181.348173 142.304646 
L 182.989242 141.23516 
L 184.608853 140.217778 
L 185.15 139.885935 
L 187.310758 138.610559 
L 188.1563 138.130909 
L 189.471515 137.402166 
L 191.632273 136.25341 
L 192.043445 136.04404 
L 193.79303 135.173379 
L 195.953788 134.145493 
L 196.3688 133.957172 
L 198.114545 133.182589 
L 200.275303 132.270205 
L 201.273047 131.870303 
L 202.436061 131.414286 
L 204.596818 130.612386 
L 206.757576 129.855818 
L 206.97748 129.783434 
L 208.918333 129.158165 
L 211.079091 128.50642 
L 213.239848 127.899042 
L 214.016929 127.696566 
L 215.400606 127.343539 
L 217.561364 126.835696 
L 219.722121 126.371298 
L 221.882879 125.950344 
L 223.83265 125.609697 
L 224.043636 125.573587 
L 226.204394 125.246336 
L 228.365152 124.961643 
L 230.525909 124.719509 
L 232.686667 124.519934 
L 234.847424 124.362918 
L 237.008182 124.248461 
L 239.168939 124.176562 
L 241.329697 124.147222 
L 243.490455 124.160441 
L 245.651212 124.216219 
L 247.81197 124.314556 
L 249.972727 124.455451 
L 252.133485 124.638905 
L 254.294242 124.864918 
L 256.455 125.133489 
" style="fill:none;stroke:#6485ec;"/>
   </g>
   <g id="LineCollection_8">
    <path clip-path="url(#p2ef07e77fc)" d="M 126.947198 232.04 
L 126.866614 229.953131 
L 126.827039 227.866263 
L 126.828473 225.779394 
L 126.870917 223.692525 
L 126.95437 221.605657 
L 127.078832 219.518788 
L 127.244304 217.431919 
L 127.450785 215.345051 
L 127.698276 213.258182 
L 127.986775 211.171313 
L 128.316285 209.084444 
L 128.686803 206.997576 
L 128.970303 205.55994 
L 129.100808 204.910707 
L 129.5621 202.823838 
L 130.065195 200.73697 
L 130.610092 198.650101 
L 131.131061 196.797038 
L 131.198089 196.563232 
L 131.838991 194.476364 
L 132.522521 192.389495 
L 133.248678 190.302626 
L 133.291818 190.185521 
L 134.032066 188.215758 
L 134.859807 186.128889 
L 135.452576 184.709016 
L 135.736753 184.04202 
L 136.670251 181.955152 
L 137.613333 179.942538 
L 137.648858 179.868283 
L 138.692549 177.781414 
L 139.774091 175.708838 
L 139.781709 175.694545 
L 140.940313 173.607677 
L 141.934848 171.885132 
L 142.1498 171.520808 
L 143.428347 169.433939 
L 144.095606 168.383674 
L 144.768923 167.347071 
L 146.17278 165.260202 
L 146.256364 165.14009 
L 147.656315 163.173333 
L 148.417121 162.138935 
L 149.209353 161.086465 
L 150.577879 159.325147 
L 150.836896 158.999596 
L 152.549096 156.912727 
L 152.738636 156.688498 
L 154.351821 154.825859 
L 154.899394 154.211657 
L 156.245387 152.73899 
L 157.060152 151.872285 
L 158.236839 150.652121 
L 159.220909 149.659246 
L 160.333969 148.565253 
L 161.381667 147.562575 
L 162.545416 146.478384 
L 163.542424 145.57333 
L 164.880791 144.391515 
L 165.703182 143.68346 
L 167.35081 142.304646 
L 167.863939 141.8857 
L 169.967465 140.217778 
L 170.024697 140.173477 
L 172.185455 138.550579 
L 172.761843 138.130909 
L 174.346212 137.004133 
L 175.740194 136.04404 
L 176.50697 135.527924 
L 178.667727 134.120909 
L 178.927943 133.957172 
L 180.828485 132.78784 
L 182.373635 131.870303 
L 182.989242 131.512686 
L 185.15 130.302796 
L 186.11364 129.783434 
L 187.310758 129.151955 
L 189.471515 128.056525 
L 190.211515 127.696566 
L 191.632273 127.019851 
L 193.79303 126.034115 
L 194.76626 125.609697 
L 195.953788 125.102386 
L 198.114545 124.22187 
L 199.917097 123.522828 
L 200.275303 123.38669 
L 202.436061 122.607189 
L 204.596818 121.869396 
L 205.942274 121.43596 
L 206.757576 121.178458 
L 208.918333 120.536904 
L 211.079091 119.93624 
L 213.239848 119.376468 
L 213.353853 119.349091 
L 215.400606 118.867032 
L 217.561364 118.398228 
L 219.722121 117.969528 
L 221.882879 117.580934 
L 223.859004 117.262222 
L 224.043636 117.233006 
L 226.204394 116.930437 
L 228.365152 116.667216 
L 230.525909 116.443345 
L 232.686667 116.258822 
L 234.847424 116.113648 
L 237.008182 116.007823 
L 239.168939 115.941348 
L 241.329697 115.914221 
L 243.490455 115.926443 
L 245.651212 115.978013 
L 247.81197 116.068933 
L 249.972727 116.199202 
L 252.133485 116.368819 
L 254.294242 116.577786 
L 256.455 116.826101 
" style="fill:none;stroke:#6b8df0;"/>
   </g>
   <g id="LineCollection_9">
    <path clip-path="url(#p2ef07e77fc)" d="M 119.008121 232.04 
L 118.933223 229.953131 
L 118.89644 227.866263 
L 118.897773 225.779394 
L 118.937222 223.692525 
L 119.014787 221.605657 
L 119.130467 219.518788 
L 119.284263 217.431919 
L 119.476175 215.345051 
L 119.706203 213.258182 
L 119.974346 211.171313 
L 120.280605 209.084444 
L 120.327273 208.801642 
L 120.630325 206.997576 
L 121.019684 204.910707 
L 121.447843 202.823838 
L 121.914802 200.73697 
L 122.420561 198.650101 
L 122.48803 198.391545 
L 122.973844 196.563232 
L 123.56787 194.476364 
L 124.201406 192.389495 
L 124.648788 191.002328 
L 124.878655 190.302626 
L 125.604482 188.215758 
L 126.370555 186.128889 
L 126.809545 184.992716 
L 127.183844 184.04202 
L 128.046475 181.955152 
L 128.950115 179.868283 
L 128.970303 179.823684 
L 129.912649 177.781414 
L 130.917376 175.694545 
L 131.131061 175.268441 
L 131.980337 173.607677 
L 133.09014 171.520808 
L 133.291818 171.155602 
L 134.261705 169.433939 
L 135.452576 167.39541 
L 135.481394 167.347071 
L 136.76992 165.260202 
L 137.613333 163.939708 
L 138.113089 163.173333 
L 139.519252 161.086465 
L 139.774091 160.720067 
L 140.996353 158.999596 
L 141.934848 157.718548 
L 142.538113 156.912727 
L 144.095606 154.893407 
L 144.148872 154.825859 
L 145.842833 152.73899 
L 146.256364 152.24368 
L 147.615559 150.652121 
L 148.417121 149.738869 
L 149.471337 148.565253 
L 150.577879 147.36577 
L 151.416143 146.478384 
L 152.738636 145.114259 
L 153.456543 144.391515 
L 154.899394 142.975225 
L 155.599761 142.304646 
L 157.060152 140.940445 
L 157.85377 140.217778 
L 159.220909 139.002479 
L 160.227389 138.130909 
L 161.381667 137.154578 
L 162.730397 136.04404 
L 163.542424 135.390606 
L 165.373672 133.957172 
L 165.703182 133.704971 
L 167.863939 132.097504 
L 168.178409 131.870303 
L 170.024697 130.565353 
L 171.164825 129.783434 
L 172.185455 129.098351 
L 174.339721 127.696566 
L 174.346212 127.69243 
L 176.50697 126.359136 
L 177.762432 125.609697 
L 178.667727 125.080308 
L 180.828485 123.859322 
L 181.445479 123.522828 
L 182.989242 122.697722 
L 185.15 121.584556 
L 185.449667 121.43596 
L 187.310758 120.53118 
L 189.471515 119.521608 
L 189.856333 119.349091 
L 191.632273 118.568226 
L 193.79303 117.658265 
L 194.776818 117.262222 
L 195.953788 116.797344 
L 198.114545 115.983238 
L 200.275303 115.208482 
L 200.37264 115.175354 
L 202.436061 114.486071 
L 204.596818 113.802894 
L 206.757576 113.158338 
L 207.006672 113.088485 
L 208.918333 112.562144 
L 211.079091 112.005137 
L 213.239848 111.48605 
L 215.400606 111.004881 
L 215.416521 111.001616 
L 217.561364 110.569483 
L 219.722121 110.171386 
L 221.882879 109.810531 
L 224.043636 109.486918 
L 226.204394 109.200548 
L 228.365152 108.95142 
L 228.739127 108.914747 
L 230.525909 108.742606 
L 232.686667 108.571024 
L 234.847424 108.436032 
L 237.008182 108.337629 
L 239.168939 108.275815 
L 241.329697 108.250591 
L 243.490455 108.261955 
L 245.651212 108.30991 
L 247.81197 108.394453 
L 249.972727 108.515585 
L 252.133485 108.673307 
L 254.294242 108.867619 
L 254.735273 108.914747 
L 256.455 109.101799 
" style="fill:none;stroke:#7396f5;"/>
   </g>
   <g id="LineCollection_10">
    <path clip-path="url(#p2ef07e77fc)" d="M 111.545906 232.04 
L 111.442832 225.779394 
L 111.660189 219.518788 
L 111.988118 215.345051 
L 112.752117 209.084444 
L 113.845 202.809068 
L 115.281583 196.563232 
L 116.432756 192.389495 
L 118.166515 186.985766 
L 120.029833 181.955152 
L 121.773213 177.781414 
L 123.698878 173.607677 
L 125.817013 169.433939 
L 128.138577 165.260202 
L 131.131061 160.376348 
L 133.443136 156.912727 
L 136.467079 152.73899 
L 139.774091 148.540642 
L 144.095606 143.570144 
L 148.417121 139.072632 
L 152.738636 134.98366 
L 157.060152 131.249981 
L 161.558774 127.696566 
L 165.703182 124.701639 
L 170.643033 121.43596 
L 174.346212 119.189103 
L 178.667727 116.776931 
L 182.989242 114.569903 
L 187.310758 112.556836 
L 191.632273 110.727347 
L 196.402006 108.914747 
L 202.436061 106.910516 
L 206.757576 105.672871 
L 211.079091 104.583205 
L 217.561364 103.237506 
L 221.882879 102.519404 
L 228.365152 101.717534 
L 234.847424 101.228511 
L 241.329697 101.052337 
L 247.81197 101.18901 
L 254.294242 101.638531 
L 256.455 101.857893 
L 256.455 101.857893 
" style="fill:none;stroke:#7b9ff9;"/>
   </g>
   <g id="LineCollection_11">
    <path clip-path="url(#p2ef07e77fc)" d="M 104.494562 232.04 
L 104.396342 225.779394 
L 104.603461 219.518788 
L 105.115918 213.258182 
L 105.633972 209.084444 
L 106.671619 202.823838 
L 107.538526 198.650101 
L 109.118389 192.389495 
L 110.360329 188.215758 
L 111.752482 184.04202 
L 114.150602 177.781414 
L 116.005758 173.501964 
L 118.166515 168.991906 
L 120.327273 164.874045 
L 122.48803 161.074924 
L 125.059429 156.912727 
L 127.858727 152.73899 
L 131.131061 148.251145 
L 134.190036 144.391515 
L 137.764975 140.217778 
L 141.934848 135.761494 
L 146.256364 131.540699 
L 150.577879 127.671381 
L 155.667646 123.522828 
L 159.220909 120.853986 
L 164.417811 117.262222 
L 167.863939 115.063933 
L 172.185455 112.511024 
L 176.50697 110.160961 
L 180.828485 108.003073 
L 185.15 106.027427 
L 189.471515 104.224761 
L 193.79303 102.586431 
L 200.275303 100.431154 
L 206.757576 98.61668 
L 211.079091 97.592535 
L 217.561364 96.313209 
L 224.043636 95.350862 
L 230.525909 94.686474 
L 237.008182 94.320045 
L 243.490455 94.252435 
L 249.972727 94.481063 
L 256.455 95.00851 
L 256.455 95.00851 
" style="fill:none;stroke:#82a6fb;"/>
   </g>
   <g id="LineCollection_12">
    <path clip-path="url(#p2ef07e77fc)" d="M 97.786019 232.04 
L 97.692218 225.779394 
L 97.89002 219.518788 
L 98.379424 213.258182 
L 99.167141 206.997576 
L 100.25608 200.73697 
L 101.652818 194.476364 
L 103.36483 188.215758 
L 105.407201 181.955152 
L 107.795999 175.694545 
L 109.585806 171.520808 
L 112.59525 165.260202 
L 114.822358 161.086465 
L 118.166515 155.394414 
L 121.24502 150.652121 
L 124.648788 145.855255 
L 127.372395 142.304646 
L 131.131061 137.763146 
L 135.452576 132.989025 
L 139.774091 128.62091 
L 144.095606 124.609121 
L 148.417121 120.911767 
L 153.050455 117.262222 
L 157.060152 114.346092 
L 162.042403 111.001616 
L 165.703182 108.727242 
L 170.024697 106.235694 
L 174.346212 103.934605 
L 178.667727 101.814456 
L 182.989242 99.866355 
L 187.310758 98.081981 
L 193.79303 95.702374 
L 200.275303 93.657806 
L 206.757576 91.932822 
L 213.239848 90.518744 
L 219.722121 89.40466 
L 226.204394 88.58084 
L 232.686667 88.041512 
L 239.168939 87.790341 
L 245.651212 87.819349 
L 252.133485 88.129786 
L 256.455 88.497045 
L 256.455 88.497045 
" style="fill:none;stroke:#8badfd;"/>
   </g>
   <g id="LineCollection_13">
    <path clip-path="url(#p2ef07e77fc)" d="M 91.376008 232.04 
L 91.286244 225.779394 
L 91.475531 219.518788 
L 91.943868 213.258182 
L 92.697861 206.997576 
L 93.73924 200.73697 
L 95.073565 194.476364 
L 96.707108 188.215758 
L 98.719697 181.764656 
L 100.927355 175.694545 
L 103.543991 169.433939 
L 105.484612 165.260202 
L 107.593228 161.086465 
L 109.878143 156.912727 
L 112.348219 152.73899 
L 116.005758 147.085654 
L 119.403316 142.304646 
L 122.61208 138.130909 
L 126.809545 133.115236 
L 131.131061 128.386807 
L 135.452576 124.044096 
L 139.774091 120.041757 
L 144.095606 116.341282 
L 148.417121 112.909761 
L 153.905742 108.914747 
L 157.060152 106.778761 
L 161.381667 104.044276 
L 167.383818 100.567273 
L 172.185455 98.041338 
L 176.50697 95.950052 
L 182.989242 93.119468 
L 187.310758 91.424883 
L 193.79303 89.159387 
L 200.275303 87.210532 
L 206.757576 85.564354 
L 213.239848 84.21263 
L 219.722121 83.147619 
L 226.204394 82.3596 
L 232.686667 81.843643 
L 239.168939 81.6024 
L 245.651212 81.630166 
L 252.133485 81.928146 
L 256.455 82.279446 
L 256.455 82.279446 
" style="fill:none;stroke:#93b5fe;"/>
   </g>
   <g id="LineCollection_14">
    <path clip-path="url(#p2ef07e77fc)" d="M 85.227564 232.04 
L 85.141506 225.779394 
L 85.32298 219.518788 
L 85.772223 213.258182 
L 86.498758 206.997576 
L 87.496559 200.73697 
L 88.777645 194.476364 
L 90.343541 188.215758 
L 92.237424 181.862608 
L 94.398182 175.64773 
L 96.878209 169.433939 
L 99.715367 163.173333 
L 101.804021 158.999596 
L 104.060044 154.825859 
L 107.362727 149.227726 
L 110.489667 144.391515 
L 113.845 139.613507 
L 116.537955 136.04404 
L 120.327273 131.367121 
L 124.648788 126.462356 
L 128.970303 121.949697 
L 133.291818 117.783933 
L 137.613333 113.926545 
L 141.934848 110.344512 
L 146.505979 106.827879 
L 152.43019 102.654141 
L 157.060152 99.668213 
L 162.582866 96.393535 
L 167.863939 93.536348 
L 172.185455 91.386115 
L 178.667727 88.457555 
L 184.906129 85.959192 
L 189.471515 84.321503 
L 195.953788 82.257353 
L 202.436061 80.490529 
L 208.918333 79.008475 
L 215.400606 77.801972 
L 221.882879 76.870309 
L 228.365152 76.202019 
L 234.847424 75.79446 
L 241.329697 75.647634 
L 247.81197 75.761539 
L 254.294242 76.136176 
L 256.455 76.318996 
L 256.455 76.318996 
" style="fill:none;stroke:#9abbff;"/>
   </g>
   <g id="LineCollection_15">
    <path clip-path="url(#p2ef07e77fc)" d="M 79.310079 232.04 
L 79.22694 225.779394 
L 79.40294 219.518788 
L 79.839924 213.258182 
L 80.537277 206.997576 
L 81.495833 200.73697 
L 82.730455 194.476364 
L 84.237709 188.215758 
L 86.028138 181.955152 
L 88.113758 175.694545 
L 90.507277 169.433939 
L 93.222143 163.173333 
L 96.272597 156.912727 
L 98.719697 152.357371 
L 102.17732 146.478384 
L 105.20197 141.77153 
L 109.216767 136.04404 
L 112.394624 131.870303 
L 116.005758 127.44958 
L 120.327273 122.563795 
L 124.648788 118.053586 
L 128.970303 113.877251 
L 133.291818 109.99904 
L 137.613333 106.38813 
L 142.429617 102.654141 
L 148.291682 98.480404 
L 152.738636 95.569841 
L 158.278272 92.219798 
L 163.542424 89.304243 
L 170.024697 86.045723 
L 174.799337 83.872323 
L 180.828485 81.380284 
L 187.310758 79.004363 
L 193.79303 76.92617 
L 200.275303 75.133474 
L 206.757576 73.617128 
L 213.239848 72.372531 
L 219.982658 71.351111 
L 226.204394 70.658597 
L 232.686667 70.183898 
L 239.168939 69.959506 
L 245.651212 69.985421 
L 252.133485 70.261644 
L 256.455 70.584853 
L 256.455 70.584853 
" style="fill:none;stroke:#a2c1ff;"/>
   </g>
   <g id="LineCollection_16">
    <path clip-path="url(#p2ef07e77fc)" d="M 73.60608 232.04 
L 73.52556 225.779394 
L 73.695355 219.518788 
L 74.115465 213.258182 
L 74.78589 206.997576 
L 75.716478 200.73697 
L 76.902803 194.476364 
L 78.358966 188.215758 
L 80.08556 181.955152 
L 82.093595 175.694545 
L 84.394688 169.433939 
L 87.001101 163.173333 
L 89.925792 156.912727 
L 92.237424 152.417268 
L 95.57482 146.478384 
L 98.719697 141.366425 
L 102.282234 136.04404 
L 105.293587 131.870303 
L 109.523485 126.451839 
L 113.775328 121.43596 
L 117.595945 117.262222 
L 121.690985 113.088485 
L 126.091116 108.914747 
L 130.831753 104.74101 
L 135.452576 100.968106 
L 139.774091 97.679342 
L 144.524887 94.306667 
L 150.577879 90.353706 
L 154.899394 87.751451 
L 161.381667 84.164894 
L 166.089023 81.785455 
L 172.185455 78.96887 
L 178.667727 76.282795 
L 185.15 73.898864 
L 191.632273 71.804834 
L 198.114545 69.989114 
L 204.596818 68.440724 
L 211.079091 67.149252 
L 217.561364 66.11799 
L 224.043636 65.330536 
L 230.525909 64.790782 
L 237.008182 64.494788 
L 243.490455 64.439479 
L 249.972727 64.624855 
L 256.455 65.050915 
L 256.455 65.050915 
" style="fill:none;stroke:#aac7fd;"/>
   </g>
   <g id="LineCollection_17">
    <path clip-path="url(#p2ef07e77fc)" d="M 68.085218 232.04 
L 68.007692 225.779394 
L 68.171174 219.518788 
L 68.577002 213.258182 
L 69.230601 206.997576 
L 70.128232 200.73697 
L 71.278031 194.476364 
L 72.790606 187.779494 
L 74.351616 181.955152 
L 76.290857 175.694545 
L 78.509722 169.433939 
L 81.019442 163.173333 
L 83.594394 157.424314 
L 85.890149 152.73899 
L 89.257628 146.478384 
L 92.237424 141.419024 
L 95.675085 136.04404 
L 98.719697 131.629694 
L 103.225041 125.609697 
L 107.362727 120.540841 
L 111.684242 115.641078 
L 116.100403 111.001616 
L 120.374534 106.827879 
L 124.967099 102.654141 
L 129.915061 98.480404 
L 135.452576 94.163343 
L 141.083489 90.132929 
L 146.256364 86.715523 
L 150.886333 83.872323 
L 157.060152 80.38253 
L 162.418731 77.611717 
L 167.863939 75.026983 
L 174.346212 72.241213 
L 180.828485 69.752191 
L 187.310758 67.548209 
L 193.79303 65.618166 
L 200.275303 63.951531 
L 206.757576 62.538305 
L 213.239848 61.374713 
L 219.722121 60.454607 
L 226.204394 59.774893 
L 232.686667 59.329849 
L 239.168939 59.119476 
L 245.651212 59.143772 
L 252.133485 59.402739 
L 256.455 59.705755 
L 256.455 59.705755 
" style="fill:none;stroke:#b2ccfb;"/>
   </g>
   <g id="LineCollection_18">
    <path clip-path="url(#p2ef07e77fc)" d="M 62.736759 232.04 
L 62.661108 225.779394 
L 62.820636 219.518788 
L 63.215343 213.258182 
L 63.845229 206.997576 
L 64.717183 200.73697 
L 65.830896 194.476364 
L 67.193503 188.215758 
L 68.807225 181.955152 
L 70.681638 175.694545 
L 72.826806 169.433939 
L 75.253323 163.173333 
L 77.972338 156.912727 
L 80.995602 150.652121 
L 83.594394 145.742718 
L 86.769528 140.217778 
L 90.076667 134.923051 
L 93.551115 129.783434 
L 96.573608 125.609697 
L 100.880455 120.092442 
L 105.20197 114.97723 
L 109.523485 110.240428 
L 113.845 105.830106 
L 118.166515 101.713634 
L 122.48803 97.862591 
L 126.809545 94.252106 
L 132.112215 90.132929 
L 137.613333 86.177693 
L 141.934848 83.288143 
L 147.70873 79.698586 
L 152.738636 76.810195 
L 159.220909 73.391038 
L 165.703182 70.302641 
L 172.185455 67.51505 
L 178.667727 65.017497 
L 185.15 62.798653 
L 191.632273 60.843852 
L 198.114545 59.147234 
L 204.596818 57.699412 
L 211.079091 56.490397 
L 217.561364 55.521989 
L 224.043636 54.78253 
L 230.525909 54.276646 
L 237.008182 53.998476 
L 243.490455 53.946498 
L 249.972727 54.120711 
L 256.455 54.521116 
L 256.455 54.521116 
" style="fill:none;stroke:#b9d0f9;"/>
   </g>
   <g id="LineCollection_19">
    <path clip-path="url(#p2ef07e77fc)" d="M 57.540335 232.04 
L 57.467332 225.779394 
L 57.665303 218.615756 
L 58.006141 213.258182 
L 58.621152 206.997576 
L 59.465788 200.73697 
L 60.548581 194.476364 
L 61.986818 187.711426 
L 63.437214 181.955152 
L 65.256405 175.694545 
L 67.334917 169.433939 
L 69.682513 163.173333 
L 72.30945 156.912727 
L 75.230104 150.652121 
L 78.462672 144.391515 
L 81.433636 139.125552 
L 84.587693 133.957172 
L 87.915909 128.900787 
L 91.736144 123.522828 
L 94.915731 119.349091 
L 98.719697 114.669588 
L 103.041212 109.720313 
L 107.724255 104.74101 
L 111.938104 100.567273 
L 116.444128 96.393535 
L 121.273805 92.219798 
L 126.809545 87.778235 
L 132.072614 83.872323 
L 137.613333 80.058831 
L 141.934848 77.285685 
L 148.417121 73.430868 
L 154.899394 69.924761 
L 161.381667 66.736249 
L 167.863939 63.851863 
L 174.346212 61.251702 
L 181.11344 58.829899 
L 187.714948 56.74303 
L 193.79303 55.052629 
L 200.275303 53.487932 
L 206.757576 52.15914 
L 213.239848 51.06478 
L 219.722121 50.197313 
L 226.204394 49.557566 
L 232.686667 49.13869 
L 239.168939 48.940686 
L 245.651212 48.963554 
L 252.133485 49.207294 
L 256.455 49.492493 
L 256.455 49.492493 
" style="fill:none;stroke:#c0d4f5;"/>
   </g>
   <g id="LineCollection_20">
    <path clip-path="url(#p2ef07e77fc)" d="M 52.490937 232.04 
L 52.419599 225.779394 
L 52.570031 219.518788 
L 52.942232 213.258182 
L 53.538422 206.997576 
L 54.363572 200.73697 
L 55.504545 193.998624 
L 56.700651 188.215758 
L 58.222773 181.955152 
L 59.98782 175.694545 
L 62.004606 169.433939 
L 64.282376 163.173333 
L 66.830833 156.912727 
L 69.660168 150.652121 
L 72.790606 144.37345 
L 76.221202 138.130909 
L 79.272879 133.01928 
L 82.699655 127.696566 
L 85.755152 123.267025 
L 90.219074 117.262222 
L 94.398182 112.075447 
L 98.950289 106.827879 
L 103.041212 102.435197 
L 107.362727 98.089928 
L 111.684242 94.01609 
L 116.072237 90.132929 
L 121.12136 85.959192 
L 126.809545 81.590812 
L 133.291818 77.016947 
L 139.774091 72.831139 
L 146.256364 69.002766 
L 152.738636 65.509718 
L 157.793507 63.003636 
L 163.542424 60.371756 
L 170.024697 57.672693 
L 176.50697 55.242943 
L 182.989242 53.072776 
L 189.471515 51.152924 
L 195.953788 49.474558 
L 202.436061 48.029255 
L 208.918333 46.814799 
L 215.400606 45.824277 
L 221.882879 45.055367 
L 228.365152 44.502253 
L 234.847424 44.165581 
L 241.329697 44.045439 
L 247.81197 44.138643 
L 254.294242 44.447758 
L 256.455 44.59907 
L 256.455 44.59907 
" style="fill:none;stroke:#c7d7f0;"/>
   </g>
   <g id="LineCollection_21">
    <path clip-path="url(#p2ef07e77fc)" d="M 47.570367 232.04 
L 47.50062 225.779394 
L 47.647698 219.518788 
L 48.011599 213.258182 
L 48.592324 206.997576 
L 49.394019 200.73697 
L 50.41983 194.476364 
L 51.670405 188.215758 
L 53.343788 181.215915 
L 54.871693 175.694545 
L 56.833814 169.433939 
L 59.046384 163.173333 
L 61.518379 156.912727 
L 64.260578 150.652121 
L 67.290783 144.391515 
L 70.629848 138.102485 
L 74.259937 131.870303 
L 77.112121 127.328177 
L 81.093614 121.43596 
L 84.118379 117.262222 
L 87.915909 112.342179 
L 92.49048 106.827879 
L 96.558939 102.262584 
L 100.880455 97.721039 
L 105.20197 93.463185 
L 109.523485 89.463247 
L 113.845 85.698478 
L 118.631203 81.785455 
L 124.648788 77.211733 
L 131.131061 72.682412 
L 137.613333 68.528597 
L 144.095606 64.721417 
L 150.577879 61.238909 
L 155.435999 58.829899 
L 161.381667 56.102566 
L 167.863939 53.394266 
L 174.346212 50.949088 
L 180.828485 48.757752 
L 187.310758 46.811404 
L 193.79303 45.1016 
L 200.275303 43.620281 
L 206.757576 42.3623 
L 213.239848 41.326843 
L 219.722121 40.504888 
L 226.204394 39.895595 
L 232.686667 39.499982 
L 239.168939 39.312974 
L 245.651212 39.334572 
L 252.133485 39.564775 
L 256.455 39.834137 
L 256.455 39.834137 
" style="fill:none;stroke:#cdd9ec;"/>
   </g>
   <g id="LineCollection_22">
    <path clip-path="url(#p2ef07e77fc)" d="M 42.770196 232.04 
L 42.701971 225.779394 
L 42.84584 219.518788 
L 43.201803 213.258182 
L 43.769862 206.997576 
L 44.700758 199.712885 
L 45.55154 194.476364 
L 46.861515 187.790801 
L 48.216154 181.955152 
L 49.890682 175.694545 
L 51.800531 169.433939 
L 53.953843 163.173333 
L 56.359144 156.912727 
L 59.025359 150.652121 
L 61.986818 144.341087 
L 65.191013 138.130909 
L 68.717848 131.870303 
L 72.790606 125.264987 
L 77.112121 118.852851 
L 81.433636 112.950181 
L 86.300056 106.827879 
L 90.076667 102.402819 
L 94.398182 97.654911 
L 98.719697 93.203586 
L 103.041212 89.021895 
L 107.362727 85.086059 
L 111.684242 81.375016 
L 116.339741 77.611717 
L 122.48803 72.984686 
L 128.970303 68.493566 
L 135.452576 64.366371 
L 141.934848 60.575817 
L 148.417121 57.101656 
L 154.899394 53.924621 
L 161.381667 51.026133 
L 167.863939 48.392186 
L 174.346212 46.016831 
L 180.828485 43.885081 
L 187.310758 41.988726 
L 194.96143 40.048081 
L 200.275303 38.88128 
L 206.757576 37.654648 
L 213.239848 36.644437 
L 219.722121 35.840908 
L 226.204394 35.249819 
L 232.686667 34.862802 
L 239.168939 34.679858 
L 245.651212 34.700987 
L 252.133485 34.926188 
L 256.455 35.189696 
L 256.455 35.189696 
" style="fill:none;stroke:#d4dbe6;"/>
   </g>
   <g id="LineCollection_23">
    <path clip-path="url(#p2ef07e77fc)" d="M 42.54 185.660546 
L 43.921174 179.868283 
L 45.630543 173.607677 
L 47.570763 167.347071 
L 49.749641 161.086465 
L 52.175343 154.825859 
L 54.85641 148.565253 
L 57.803395 142.304646 
L 61.035101 136.04404 
L 64.558995 129.783434 
L 68.469091 123.409391 
L 72.790606 116.947681 
L 77.112121 110.991654 
L 82.033535 104.74101 
L 85.755152 100.333055 
L 90.076667 95.5275 
L 95.278169 90.132929 
L 99.583424 85.959192 
L 105.20197 80.869479 
L 109.523485 77.20472 
L 114.236817 73.43798 
L 120.327273 68.897674 
L 126.809545 64.439209 
L 133.291818 60.333942 
L 139.774091 56.55604 
L 146.256364 53.088306 
L 152.738636 49.908599 
L 159.220909 47.002888 
L 166.051158 44.221818 
L 172.185455 41.960408 
L 178.667727 39.805173 
L 185.15 37.880678 
L 192.913493 35.874343 
L 198.114545 34.703998 
L 204.596818 33.43648 
L 211.079091 32.380693 
L 217.561364 31.528634 
L 224.043636 30.883539 
L 230.525909 30.438176 
L 237.008182 30.192545 
L 243.490455 30.146647 
L 249.972727 30.300481 
L 256.455 30.654048 
L 256.455 30.654048 
" style="fill:none;stroke:#dadce0;"/>
   </g>
   <g id="LineCollection_24">
    <path clip-path="url(#p2ef07e77fc)" d="M 42.54 168.075413 
L 44.162629 163.173333 
L 46.446483 156.912727 
L 49.022273 150.539208 
L 51.759919 144.391515 
L 54.810073 138.130909 
L 58.138672 131.870303 
L 61.986818 125.238564 
L 65.700112 119.349091 
L 68.506677 115.175354 
L 73.016233 108.914747 
L 77.906846 102.654141 
L 81.433636 98.430941 
L 85.755152 93.564304 
L 91.005188 88.046061 
L 95.248514 83.872323 
L 100.880455 78.689152 
L 105.20197 74.962836 
L 109.631085 71.351111 
L 116.005758 66.500775 
L 122.48803 61.948141 
L 128.970303 57.748994 
L 135.452576 53.877792 
L 141.934848 50.311396 
L 148.417121 47.037163 
L 154.899394 44.032168 
L 161.381667 41.290366 
L 167.863939 38.794896 
L 174.346212 36.537642 
L 180.828485 34.510837 
L 187.310758 32.707052 
L 193.79303 31.11917 
L 200.942059 29.613737 
L 206.757576 28.575055 
L 213.864044 27.526869 
L 219.722121 26.844483 
L 226.204394 26.278013 
L 232.686667 25.907117 
L 239.168939 25.731793 
L 245.651212 25.752041 
L 252.133485 25.967862 
L 256.455 26.220395 
L 256.455 26.220395 
" style="fill:none;stroke:#dfdbd9;"/>
   </g>
   <g id="LineCollection_25">
    <path clip-path="url(#p2ef07e77fc)" d="M 42.54 154.644809 
L 45.019453 148.565253 
L 47.820156 142.304646 
L 51.18303 135.452489 
L 54.214508 129.783434 
L 57.835209 123.522828 
L 61.986818 116.923251 
L 66.308333 110.596109 
L 70.629848 104.735275 
L 75.615287 98.480404 
L 79.272879 94.184621 
L 83.594394 89.404373 
L 88.94517 83.872323 
L 94.398182 78.631403 
L 98.719697 74.735227 
L 103.041212 71.04675 
L 107.844257 67.177374 
L 113.845 62.653762 
L 120.327273 58.128168 
L 126.809545 53.946244 
L 133.291818 50.083743 
L 140.179334 46.308687 
L 146.256364 43.243352 
L 153.148862 40.048081 
L 159.220909 37.472746 
L 165.703182 34.959612 
L 172.185455 32.679952 
L 178.667727 30.626316 
L 185.15 28.791571 
L 191.632273 27.168878 
L 199.704985 25.44 
L 199.704985 25.44 
" style="fill:none;stroke:#e5d8d1;"/>
   </g>
   <g id="LineCollection_26">
    <path clip-path="url(#p2ef07e77fc)" d="M 42.54 143.35428 
L 43.014536 142.304646 
L 43.981568 140.217778 
L 44.700758 138.702681 
L 44.97516 138.130909 
L 46.000507 136.04404 
L 46.861515 134.331445 
L 47.051779 133.957172 
L 48.136742 131.870303 
L 49.022273 130.204031 
L 49.248317 129.783434 
L 50.394239 127.696566 
L 51.18303 126.289983 
L 51.568875 125.609697 
L 52.777148 123.522828 
L 53.343788 122.563716 
L 54.017747 121.43596 
L 55.289809 119.349091 
L 55.504545 119.003576 
L 56.599425 117.262222 
L 57.665303 115.598958 
L 57.939969 115.175354 
L 59.318612 113.088485 
L 59.826061 112.334312 
L 60.733484 111.001616 
L 61.986818 109.193747 
L 62.182578 108.914747 
L 63.67296 106.827879 
L 64.147576 106.174761 
L 65.202227 104.74101 
L 66.308333 103.262779 
L 66.769399 102.654141 
L 68.377058 100.567273 
L 68.469091 100.449764 
L 70.03085 98.480404 
L 70.629848 97.737251 
L 71.726677 96.393535 
L 72.790606 95.110802 
L 73.46616 94.306667 
L 74.951364 92.566384 
L 75.251007 92.219798 
L 77.083396 90.132929 
L 77.112121 90.10071 
L 78.968163 88.046061 
L 79.272879 87.71377 
L 80.903399 85.959192 
L 81.433636 85.396998 
L 82.891159 83.872323 
L 83.594394 83.147344 
L 84.933611 81.785455 
L 85.755152 80.961935 
L 87.033044 79.698586 
L 87.915909 78.838056 
L 89.191876 77.611717 
L 90.076667 76.773145 
L 91.412663 75.524848 
L 92.237424 74.764779 
L 93.698112 73.43798 
L 94.398182 72.810668 
L 96.051089 71.351111 
L 96.558939 70.908643 
L 98.47463 69.264242 
L 98.719697 69.056648 
L 100.880455 67.253726 
L 100.973375 67.177374 
L 103.041212 65.500306 
L 103.554434 65.090505 
L 105.20197 63.791826 
L 106.217837 63.003636 
L 107.362727 62.126579 
L 108.967589 60.916768 
L 109.523485 60.502946 
L 111.684242 58.920503 
L 111.81003 58.829899 
L 113.845 57.382222 
L 114.758808 56.74303 
L 116.005758 55.881444 
L 117.809815 54.656162 
L 118.166515 54.416815 
L 120.327273 52.992074 
L 120.979975 52.569293 
L 122.48803 51.60409 
L 124.27259 50.482424 
L 124.648788 50.24875 
L 126.809545 48.931143 
L 127.70453 48.395556 
L 128.970303 47.646881 
L 131.131061 46.3931 
L 131.279408 46.308687 
L 133.291818 45.176733 
L 135.023649 44.221818 
L 135.452576 43.987999 
L 137.613333 42.833817 
L 138.949126 42.134949 
L 139.774091 41.708188 
L 141.934848 40.613846 
L 143.076393 40.048081 
L 144.095606 39.548555 
L 146.256364 38.512725 
L 147.433161 37.961212 
L 148.417121 37.505139 
L 150.577879 36.526535 
L 152.052461 35.874343 
L 152.738636 35.574153 
L 154.899394 34.651532 
L 156.973981 33.787475 
L 157.060152 33.751971 
L 159.220909 32.884129 
L 161.381667 32.038717 
L 162.269387 31.700606 
L 163.542424 31.220893 
L 165.703182 30.428857 
L 167.863939 29.659014 
L 167.994791 29.613737 
L 170.024697 28.918754 
L 172.185455 28.200929 
L 174.278502 27.526869 
L 174.346212 27.50529 
L 176.50697 26.8384 
L 178.667727 26.193241 
L 180.828485 25.569811 
L 181.29465 25.44 
" style="fill:none;stroke:#ead4c8;"/>
   </g>
   <g id="LineCollection_27">
    <path clip-path="url(#p2ef07e77fc)" d="M 42.54 133.412338 
L 43.324216 131.870303 
L 44.409079 129.783434 
L 44.700758 129.234284 
L 45.526514 127.696566 
L 46.670991 125.609697 
L 46.861515 125.269376 
L 47.850196 123.522828 
L 49.022273 121.493686 
L 49.055993 121.43596 
L 50.299368 119.349091 
L 51.18303 117.894464 
L 51.571487 117.262222 
L 52.878324 115.175354 
L 53.343788 114.445816 
L 54.219791 113.088485 
L 55.504545 111.133982 
L 55.592569 111.001616 
L 57.005556 108.914747 
L 57.665303 107.957438 
L 58.452951 106.827879 
L 59.826061 104.892645 
L 59.934936 104.74101 
L 61.459146 102.654141 
L 61.986818 101.943715 
L 63.02154 100.567273 
L 64.147576 99.093901 
L 64.622185 98.480404 
L 66.263066 96.393535 
L 66.308333 96.336877 
L 67.9505 94.306667 
L 68.469091 93.675545 
L 69.680284 92.219798 
L 70.629848 91.096055 
L 71.454033 90.132929 
L 72.790606 88.59469 
L 73.273445 88.046061 
L 74.951364 86.167954 
L 75.140306 85.959192 
L 77.057221 83.872323 
L 77.112121 83.813422 
L 79.027285 81.785455 
L 79.272879 81.529109 
L 81.050103 79.698586 
L 81.433636 79.309111 
L 83.127821 77.611717 
L 83.594394 77.15075 
L 85.262707 75.524848 
L 85.755152 75.051494 
L 87.457152 73.43798 
L 87.915909 73.008947 
L 89.713684 71.351111 
L 90.076667 71.020844 
L 92.034975 69.264242 
L 92.237424 69.085034 
L 94.398182 67.199774 
L 94.424234 67.177374 
L 96.558939 65.365785 
L 96.888182 65.090505 
L 98.719697 63.5788 
L 99.427148 63.003636 
L 100.880455 61.837036 
L 102.044612 60.916768 
L 103.041212 60.138797 
L 104.74427 58.829899 
L 105.20197 58.482471 
L 107.362727 56.86805 
L 107.532768 56.74303 
L 109.523485 55.297224 
L 110.420702 54.656162 
L 111.684242 53.764233 
L 113.405402 52.569293 
L 113.845 52.267727 
L 116.005758 50.810274 
L 116.500238 50.482424 
L 118.166515 49.390646 
L 119.712015 48.395556 
L 120.327273 48.004019 
L 122.48803 46.653214 
L 123.049215 46.308687 
L 124.648788 45.337948 
L 126.52219 44.221818 
L 126.809545 44.052563 
L 128.970303 42.803561 
L 130.149371 42.134949 
L 131.131061 41.584517 
L 133.291818 40.396421 
L 133.938084 40.048081 
L 135.452576 39.24083 
L 137.613333 38.112287 
L 137.908652 37.961212 
L 139.774091 37.017404 
L 141.934848 35.947105 
L 142.084958 35.874343 
L 144.095606 34.91032 
L 146.256364 33.897 
L 146.495255 33.787475 
L 148.417121 32.915825 
L 150.577879 31.958259 
L 151.17322 31.700606 
L 152.738636 31.030328 
L 154.899394 30.12733 
L 156.159318 29.613737 
L 157.060152 29.250388 
L 159.220909 28.400809 
L 161.381667 27.573189 
L 161.505897 27.526869 
L 163.542424 26.775435 
L 165.703182 25.999894 
L 167.308088 25.44 
" style="fill:none;stroke:#eed0c0;"/>
   </g>
   <g id="LineCollection_28">
    <path clip-path="url(#p2ef07e77fc)" d="M 42.54 124.432878 
L 43.043921 123.522828 
L 44.223048 121.43596 
L 44.700758 120.607056 
L 45.433736 119.349091 
L 46.673517 117.262222 
L 46.861515 116.951739 
L 47.949116 115.175354 
L 49.022273 113.454997 
L 49.253481 113.088485 
L 50.594309 111.001616 
L 51.18303 110.10168 
L 51.968355 108.914747 
L 53.343788 106.872378 
L 53.374102 106.827879 
L 54.82064 104.74101 
L 55.504545 103.771077 
L 56.301294 102.654141 
L 57.665303 100.773833 
L 57.816915 100.567273 
L 59.374156 98.480404 
L 59.826061 97.884566 
L 60.970423 96.393535 
L 61.986818 95.090247 
L 62.605299 94.306667 
L 64.147576 92.383203 
L 64.280202 92.219798 
L 66.000435 90.132929 
L 66.308333 89.765064 
L 67.76495 88.046061 
L 68.469091 87.227476 
L 69.57375 85.959192 
L 70.629848 84.764484 
L 71.428524 83.872323 
L 72.790606 82.372847 
L 73.331045 81.785455 
L 74.951364 80.049509 
L 75.283184 79.698586 
L 77.112121 77.791584 
L 77.286904 77.611717 
L 79.272879 75.596349 
L 79.34428 75.524848 
L 81.433636 73.461229 
L 81.457495 73.43798 
L 83.594394 71.383787 
L 83.628853 71.351111 
L 85.755152 69.361718 
L 85.860789 69.264242 
L 87.915909 67.392837 
L 88.155872 67.177374 
L 90.076667 65.475073 
L 90.516821 65.090505 
L 92.237424 63.606459 
L 92.946513 63.003636 
L 94.398182 61.785132 
L 95.447994 60.916768 
L 96.558939 60.009318 
L 98.024494 58.829899 
L 98.719697 58.277332 
L 100.679439 56.74303 
L 100.880455 56.587572 
L 103.041212 54.941953 
L 103.422359 54.656162 
L 105.20197 53.337844 
L 106.255994 52.569293 
L 107.362727 51.771911 
L 109.181496 50.482424 
L 109.523485 50.242809 
L 111.684242 48.753413 
L 112.212105 48.395556 
L 113.845 47.301424 
L 115.351818 46.308687 
L 116.005758 45.882802 
L 118.166515 44.499562 
L 118.608032 44.221818 
L 120.327273 43.152585 
L 121.992932 42.134949 
L 122.48803 41.835866 
L 124.648788 40.554015 
L 125.517502 40.048081 
L 126.809545 39.30396 
L 128.970303 38.082703 
L 129.189414 37.961212 
L 131.131061 36.89645 
L 133.031694 35.874343 
L 133.291818 35.735976 
L 135.452576 34.609282 
L 137.060996 33.787475 
L 137.613333 33.508297 
L 139.774091 32.438575 
L 141.29666 31.700606 
L 141.934848 31.394574 
L 144.095606 30.380613 
L 145.766393 29.613737 
L 146.256364 29.391212 
L 148.417121 28.431838 
L 150.503093 27.526869 
L 150.577879 27.494762 
L 152.738636 26.588839 
L 154.899394 25.704646 
L 155.562421 25.44 
" style="fill:none;stroke:#f2cbb7;"/>
   </g>
   <g id="LineCollection_29">
    <path clip-path="url(#p2ef07e77fc)" d="M 42.54 116.178331 
L 43.140683 115.175354 
L 44.414074 113.088485 
L 44.700758 112.627198 
L 45.722172 111.001616 
L 46.861515 109.22071 
L 47.059439 108.914747 
L 48.4335 106.827879 
L 49.022273 105.949083 
L 49.840779 104.74101 
L 51.18303 102.793476 
L 51.280156 102.654141 
L 52.75948 100.567273 
L 53.343788 99.7565 
L 54.274053 98.480404 
L 55.504545 96.819681 
L 55.823977 96.393535 
L 57.413477 94.306667 
L 57.665303 93.981206 
L 59.044287 92.219798 
L 59.826061 91.236574 
L 60.714068 90.132929 
L 61.986818 88.575069 
L 62.424237 88.046061 
L 64.147576 85.99297 
L 64.176276 85.959192 
L 65.975862 83.872323 
L 66.308333 83.492362 
L 67.820409 81.785455 
L 68.469091 81.063646 
L 69.711249 79.698586 
L 70.629848 78.70331 
L 71.650148 77.611717 
L 72.790606 76.408508 
L 73.638961 75.524848 
L 74.951364 74.176547 
L 75.67964 73.43798 
L 77.112121 72.00488 
L 77.774242 71.351111 
L 79.272879 69.891098 
L 79.924932 69.264242 
L 81.433636 67.832916 
L 82.133995 67.177374 
L 83.594394 65.828169 
L 84.403837 65.090505 
L 85.755152 63.874803 
L 86.737005 63.003636 
L 87.915909 61.970867 
L 89.136184 60.916768 
L 90.076667 60.114509 
L 91.604216 58.829899 
L 92.237424 58.303967 
L 94.14411 56.74303 
L 94.398182 56.537566 
L 96.558939 54.815631 
L 96.762049 54.656162 
L 98.719697 53.137645 
L 99.463563 52.569293 
L 100.880455 51.499595 
L 102.248599 50.482424 
L 103.041212 49.900072 
L 105.121092 48.395556 
L 105.20197 48.337731 
L 107.362727 46.817134 
L 108.096939 46.308687 
L 109.523485 45.332144 
L 111.172187 44.221818 
L 111.684242 43.88089 
L 113.845 42.465953 
L 114.35909 42.134949 
L 116.005758 41.086629 
L 117.665353 40.048081 
L 118.166515 39.737945 
L 120.327273 38.423974 
L 121.101926 37.961212 
L 122.48803 37.142278 
L 124.648788 35.888588 
L 124.673796 35.874343 
L 126.809545 34.671041 
L 128.407555 33.787475 
L 128.970303 33.479667 
L 131.131061 32.320221 
L 132.308564 31.700606 
L 133.291818 31.188709 
L 135.452576 30.085979 
L 136.396919 29.613737 
L 137.613333 29.011841 
L 139.774091 27.964632 
L 140.696695 27.526869 
L 141.934848 26.945499 
L 144.095606 25.952655 
L 145.236279 25.44 
" style="fill:none;stroke:#f4c5ad;"/>
   </g>
   <g id="LineCollection_30">
    <path clip-path="url(#p2ef07e77fc)" d="M 42.54 108.496178 
L 43.614502 106.827879 
L 44.700758 105.17039 
L 44.98526 104.74101 
L 46.391822 102.654141 
L 46.861515 101.968882 
L 47.832922 100.567273 
L 49.022273 98.879316 
L 49.306519 98.480404 
L 50.81789 96.393535 
L 51.18303 95.897355 
L 52.366973 94.306667 
L 53.343788 93.01476 
L 53.951795 92.219798 
L 55.504545 90.220811 
L 55.573606 90.132929 
L 57.238755 88.046061 
L 57.665303 87.519458 
L 58.944043 85.959192 
L 59.826061 84.898807 
L 60.690083 83.872323 
L 61.986818 82.354079 
L 62.478355 81.785455 
L 64.147576 79.882021 
L 64.310409 79.698586 
L 66.189347 77.611717 
L 66.308333 77.481398 
L 68.116876 75.524848 
L 68.469091 75.149027 
L 70.092781 73.43798 
L 70.629848 72.879662 
L 72.118906 71.351111 
L 72.790606 70.670786 
L 74.197191 69.264242 
L 74.951364 68.520011 
L 76.329676 67.177374 
L 77.112121 66.425075 
L 78.518509 65.090505 
L 79.272879 64.383831 
L 80.765954 63.003636 
L 81.433636 62.394242 
L 83.074397 60.916768 
L 83.594394 60.45437 
L 85.446355 58.829899 
L 85.755152 58.562376 
L 87.884486 56.74303 
L 87.915909 56.716509 
L 90.076667 54.918258 
L 90.396117 54.656162 
L 92.237424 53.163639 
L 92.981336 52.569293 
L 94.398182 51.45078 
L 95.64294 50.482424 
L 96.558939 49.778206 
L 98.384365 48.395556 
L 98.719697 48.144514 
L 100.880455 46.551149 
L 101.214339 46.308687 
L 103.041212 44.997282 
L 104.138446 44.221818 
L 105.20197 43.478717 
L 107.155842 42.134949 
L 107.362727 41.994263 
L 109.523485 40.548341 
L 110.283382 40.048081 
L 111.684242 39.1361 
L 113.519181 37.961212 
L 113.845 37.754886 
L 116.005758 36.409501 
L 116.880147 35.874343 
L 118.166515 35.095595 
L 120.327273 33.810178 
L 120.366121 33.787475 
L 122.48803 32.560764 
L 124.003099 31.700606 
L 124.648788 31.337924 
L 126.809545 30.146423 
L 127.793893 29.613737 
L 128.970303 28.983814 
L 131.131061 27.848769 
L 131.755944 27.526869 
L 133.291818 26.743921 
L 135.452576 25.664156 
L 135.910355 25.44 
" style="fill:none;stroke:#f6bfa6;"/>
   </g>
   <g id="LineCollection_31">
    <path clip-path="url(#p2ef07e77fc)" d="M 42.54 101.285652 
L 43.027024 100.567273 
L 44.465377 98.480404 
L 44.700758 98.144402 
L 45.940822 96.393535 
L 46.861515 95.114216 
L 47.449168 94.306667 
L 48.99187 92.219798 
L 49.022273 92.179304 
L 50.575987 90.132929 
L 51.18303 89.34551 
L 52.196235 88.046061 
L 53.343788 86.596263 
L 53.853863 85.959192 
L 55.504545 83.927835 
L 55.550181 83.872323 
L 57.290978 81.785455 
L 57.665303 81.34312 
L 59.073424 79.698586 
L 59.826061 78.83196 
L 60.898466 77.611717 
L 61.986818 76.390521 
L 62.767651 75.524848 
L 64.147576 74.015939 
L 64.682599 73.43798 
L 66.308333 71.705504 
L 66.645012 71.351111 
L 68.469091 69.456651 
L 68.656677 69.264242 
L 70.629848 67.266952 
L 70.71947 67.177374 
L 72.790606 65.134103 
L 72.835367 65.090505 
L 74.951364 63.055917 
L 75.006445 63.003636 
L 77.112121 61.030321 
L 77.234892 60.916768 
L 79.272879 59.055342 
L 79.52301 58.829899 
L 81.433636 57.129107 
L 81.87323 56.74303 
L 83.594394 55.249833 
L 84.288116 54.656162 
L 85.755152 53.415824 
L 86.770371 52.569293 
L 87.915909 51.625464 
L 89.322857 50.482424 
L 90.076667 49.877212 
L 91.948596 48.395556 
L 92.237424 48.169601 
L 94.398182 46.503468 
L 94.654519 46.308687 
L 96.558939 44.878217 
L 97.445924 44.221818 
L 98.719697 43.289889 
L 100.322316 42.134949 
L 100.880455 41.73724 
L 103.041212 40.221001 
L 103.291507 40.048081 
L 105.20197 38.742861 
L 106.364328 37.961212 
L 107.362727 37.297195 
L 109.523485 35.883039 
L 109.53699 35.874343 
L 111.684242 34.506828 
L 112.832684 33.787475 
L 113.845 33.160203 
L 116.005758 31.84374 
L 116.244761 31.700606 
L 118.166515 30.561948 
L 119.795073 29.613737 
L 120.327273 29.30713 
L 122.48803 28.084249 
L 123.490897 27.526869 
L 124.648788 26.890029 
L 126.809545 25.723342 
L 127.344268 25.44 
" style="fill:none;stroke:#f7b89c;"/>
   </g>
   <g id="LineCollection_32">
    <path clip-path="url(#p2ef07e77fc)" d="M 42.54 94.463503 
L 42.65164 94.306667 
L 44.160692 92.219798 
L 44.700758 91.484425 
L 45.704255 90.132929 
L 46.861515 88.597949 
L 47.282237 88.046061 
L 48.897214 85.959192 
L 49.022273 85.799967 
L 50.553354 83.872323 
L 51.18303 83.091039 
L 52.247267 81.785455 
L 53.343788 80.459471 
L 53.980259 79.698586 
L 55.504545 77.901995 
L 55.7537 77.611717 
L 57.570146 75.524848 
L 57.665303 75.417022 
L 59.43243 73.43798 
L 59.826061 73.003099 
L 61.339219 71.351111 
L 61.986818 70.653518 
L 63.292127 69.264242 
L 64.147576 68.36574 
L 65.292848 67.177374 
L 66.308333 66.137357 
L 67.34316 65.090505 
L 68.469091 63.966087 
L 69.444929 63.003636 
L 70.629848 61.849761 
L 71.600118 60.916768 
L 72.790606 59.78632 
L 73.810789 58.829899 
L 74.951364 57.773807 
L 76.079113 56.74303 
L 77.112121 55.810358 
L 78.407374 54.656162 
L 79.272879 53.894201 
L 80.79798 52.569293 
L 81.433636 52.023648 
L 83.25347 50.482424 
L 83.594394 50.19709 
L 85.755152 48.413198 
L 85.776819 48.395556 
L 87.915909 46.674091 
L 88.376384 46.308687 
L 90.076667 44.974948 
L 91.050552 44.221818 
L 92.237424 43.314406 
L 93.802584 42.134949 
L 94.398182 41.691166 
L 96.558939 40.104611 
L 96.637083 40.048081 
L 98.719697 38.558228 
L 99.566949 37.961212 
L 100.880455 37.045818 
L 102.587398 35.874343 
L 103.041212 35.566275 
L 105.20197 34.122135 
L 105.710684 33.787475 
L 107.362727 32.712351 
L 108.942584 31.700606 
L 109.523485 31.332552 
L 111.684242 29.985704 
L 112.290988 29.613737 
L 113.845 28.671073 
L 115.763396 27.526869 
L 116.005758 27.383821 
L 118.166515 26.130213 
L 119.377173 25.44 
" style="fill:none;stroke:#f7b093;"/>
   </g>
   <g id="LineCollection_33">
    <path clip-path="url(#p2ef07e77fc)" d="M 42.54 87.977832 
L 44.068101 85.959192 
L 44.700758 85.135729 
L 45.68212 83.872323 
L 46.861515 82.375965 
L 47.332131 81.785455 
L 49.019383 79.698586 
L 49.022273 79.695062 
L 50.74999 77.611717 
L 51.18303 77.09679 
L 52.520068 75.524848 
L 53.343788 74.569669 
L 54.330983 73.43798 
L 55.504545 72.110817 
L 56.184166 71.351111 
L 57.665303 69.717503 
L 58.081112 69.264242 
L 59.826061 67.387143 
L 60.023392 67.177374 
L 61.986818 65.117284 
L 62.012649 65.090505 
L 64.051782 63.003636 
L 64.147576 62.90684 
L 66.141155 60.916768 
L 66.308333 60.751968 
L 68.282316 58.829899 
L 68.469091 58.65028 
L 70.477215 56.74303 
L 70.629848 56.599831 
L 72.7279 54.656162 
L 72.790606 54.59877 
L 74.951364 52.646248 
L 75.037637 52.569293 
L 77.112121 50.740879 
L 77.409233 50.482424 
L 79.272879 48.880324 
L 79.844336 48.395556 
L 81.433636 47.063019 
L 82.345529 46.308687 
L 83.594394 45.287475 
L 84.915541 44.221818 
L 85.755152 43.552269 
L 87.557252 42.134949 
L 87.915909 41.85604 
L 90.076667 40.199169 
L 90.276531 40.048081 
L 92.237424 38.5822 
L 93.080208 37.961212 
L 94.398182 37.000756 
L 95.966724 35.874343 
L 96.558939 35.453678 
L 98.719697 33.941514 
L 98.943157 33.787475 
L 100.880455 32.466378 
L 102.020767 31.700606 
L 103.041212 31.022617 
L 105.195021 29.613737 
L 105.20197 29.60924 
L 107.362727 28.232646 
L 108.488503 27.526869 
L 109.523485 26.884768 
L 111.684242 25.56597 
L 111.894092 25.44 
" style="fill:none;stroke:#f7a889;"/>
   </g>
   <g id="LineCollection_34">
    <path clip-path="url(#p2ef07e77fc)" d="M 42.54 81.781859 
L 44.187605 79.698586 
L 44.700758 79.058876 
L 45.874419 77.611717 
L 46.861515 76.411496 
L 47.598849 75.524848 
L 49.022273 73.836611 
L 49.362165 73.43798 
L 51.165894 71.351111 
L 51.18303 71.331549 
L 53.014638 69.264242 
L 53.343788 68.897622 
L 54.906034 67.177374 
L 55.504545 66.526886 
L 56.841576 65.090505 
L 57.665303 64.21691 
L 58.822827 63.003636 
L 59.826061 61.965389 
L 60.851426 60.916768 
L 61.986818 59.770131 
L 62.92909 58.829899 
L 64.147576 57.629054 
L 65.057621 56.74303 
L 66.308333 55.540176 
L 67.238911 54.656162 
L 68.469091 53.501611 
L 69.474946 52.569293 
L 70.629848 51.511563 
L 71.767813 50.482424 
L 72.790606 49.568321 
L 74.119707 48.395556 
L 74.951364 47.670252 
L 76.532936 46.308687 
L 77.112121 45.815799 
L 79.009931 44.221818 
L 79.272879 44.003476 
L 81.433636 42.232964 
L 81.554878 42.134949 
L 83.594394 40.504676 
L 84.173465 40.048081 
L 85.755152 38.814779 
L 86.865105 37.961212 
L 87.915909 37.162008 
L 89.632899 35.874343 
L 90.076667 35.545154 
L 92.237424 33.964965 
L 92.483659 33.787475 
L 94.398182 32.422285 
L 95.425206 31.700606 
L 96.558939 30.912415 
L 98.454969 29.613737 
L 98.719697 29.434321 
L 100.880455 27.99185 
L 101.587744 27.526869 
L 103.041212 26.581289 
L 104.823052 25.44 
" style="fill:none;stroke:#f5a081;"/>
   </g>
   <g id="LineCollection_35">
    <path clip-path="url(#p2ef07e77fc)" d="M 42.54 75.842082 
L 42.798056 75.524848 
L 44.519203 73.43798 
L 44.700758 73.22082 
L 46.281152 71.351111 
L 46.861515 70.673654 
L 48.082391 69.264242 
L 49.022273 68.193487 
L 49.924249 67.177374 
L 51.18303 65.777711 
L 51.808115 65.090505 
L 53.343788 63.423851 
L 53.735444 63.003636 
L 55.504545 61.129555 
L 55.707757 60.916768 
L 57.665303 58.892592 
L 57.726648 58.829899 
L 59.794167 56.74303 
L 59.826061 56.711231 
L 61.911829 54.656162 
L 61.986818 54.583166 
L 64.08071 52.569293 
L 64.147576 52.505747 
L 66.302691 50.482424 
L 66.308333 50.47719 
L 68.469091 48.496967 
L 68.581137 48.395556 
L 70.629848 46.562838 
L 70.917564 46.308687 
L 72.790606 44.673155 
L 73.314138 44.221818 
L 74.951364 42.826401 
L 75.773214 42.134949 
L 77.112121 41.021131 
L 78.297267 40.048081 
L 79.272879 39.255963 
L 80.888909 37.961212 
L 81.433636 37.529575 
L 83.55089 35.874343 
L 83.594394 35.840703 
L 85.755152 34.19249 
L 86.29352 33.787475 
L 87.915909 32.580071 
L 89.114363 31.700606 
L 90.076667 31.001946 
L 92.01616 29.613737 
L 92.237424 29.457032 
L 94.398182 27.948685 
L 95.011374 27.526869 
L 96.558939 26.473382 
L 98.099732 25.44 
" style="fill:none;stroke:#f39778;"/>
   </g>
   <g id="LineCollection_36">
    <path clip-path="url(#p2ef07e77fc)" d="M 42.54 70.127006 
L 43.271051 69.264242 
L 44.700758 67.599137 
L 45.066889 67.177374 
L 46.861515 65.136897 
L 46.902772 65.090505 
L 48.782757 63.003636 
L 49.022273 62.741126 
L 50.705601 60.916768 
L 51.18303 60.405804 
L 52.672301 58.829899 
L 53.343788 58.128119 
L 54.684375 56.74303 
L 55.504545 55.905963 
L 56.74341 54.656162 
L 57.665303 53.737331 
L 58.851072 52.569293 
L 59.826061 51.620312 
L 61.009102 50.482424 
L 61.986818 49.553084 
L 63.219328 48.395556 
L 64.147576 47.533912 
L 65.483667 46.308687 
L 66.308333 45.561138 
L 67.80413 44.221818 
L 68.469091 43.633183 
L 70.182832 42.134949 
L 70.629848 41.748536 
L 72.621991 40.048081 
L 72.790606 39.905753 
L 74.951364 38.105035 
L 75.126194 37.961212 
L 77.112121 36.345442 
L 77.698794 35.874343 
L 79.272879 34.624087 
L 80.340283 33.787475 
L 81.433636 32.939735 
L 83.053464 31.700606 
L 83.594394 31.291208 
L 85.755152 29.678051 
L 85.842498 29.613737 
L 87.915909 28.10315 
L 88.718094 27.526869 
L 90.076667 26.561047 
L 91.676216 25.44 
" style="fill:none;stroke:#f18d6f;"/>
   </g>
   <g id="LineCollection_37">
    <path clip-path="url(#p2ef07e77fc)" d="M 42.54 64.61067 
L 43.95614 63.003636 
L 44.700758 62.169336 
L 45.83101 60.916768 
L 46.861515 59.789009 
L 47.747687 58.829899 
L 49.022273 57.46743 
L 49.707587 56.74303 
L 51.18303 55.202451 
L 51.712188 54.656162 
L 53.343788 52.992026 
L 53.763037 52.569293 
L 55.504545 50.834209 
L 55.861753 50.482424 
L 57.665303 48.727143 
L 58.010032 48.395556 
L 59.826061 46.669059 
L 60.20965 46.308687 
L 61.986818 44.658268 
L 62.46247 44.221818 
L 64.147576 42.693158 
L 64.770446 42.134949 
L 66.308333 40.772191 
L 67.135628 40.048081 
L 68.469091 38.893896 
L 69.56017 37.961212 
L 70.629848 37.056866 
L 72.046335 35.874343 
L 72.790606 35.259756 
L 74.596503 33.787475 
L 74.951364 33.501279 
L 77.112121 31.781059 
L 77.214512 31.700606 
L 79.272879 30.100468 
L 79.907377 29.613737 
L 81.433636 28.455245 
L 82.673328 27.526869 
L 83.594394 26.844286 
L 85.515383 25.44 
" style="fill:none;stroke:#ee8468;"/>
   </g>
   <g id="LineCollection_38">
    <path clip-path="url(#p2ef07e77fc)" d="M 42.54 59.276512 
L 42.943648 58.829899 
L 44.700758 56.909752 
L 44.855006 56.74303 
L 46.809564 54.656162 
L 46.861515 54.601361 
L 48.809427 52.569293 
L 49.022273 52.349893 
L 50.854388 50.482424 
L 51.18303 50.151379 
L 52.94599 48.395556 
L 53.343788 48.003973 
L 55.085847 46.308687 
L 55.504545 45.905912 
L 57.275649 44.221818 
L 57.665303 43.855515 
L 59.517164 42.134949 
L 59.826061 41.851177 
L 61.812247 40.048081 
L 61.986818 39.891362 
L 64.147576 37.974753 
L 64.163028 37.961212 
L 66.308333 36.101971 
L 66.57424 35.874343 
L 68.469091 34.269888 
L 69.045966 33.787475 
L 70.629848 32.477188 
L 71.580516 31.700606 
L 72.790606 30.722618 
L 74.180313 29.613737 
L 74.951364 29.004972 
L 76.847911 27.526869 
L 77.112121 27.323097 
L 79.272879 25.678344 
L 79.59019 25.44 
" style="fill:none;stroke:#e97a5f;"/>
   </g>
   <g id="LineCollection_39">
    <path clip-path="url(#p2ef07e77fc)" d="M 42.54 54.107381 
L 43.982228 52.569293 
L 44.700758 51.812124 
L 45.976515 50.482424 
L 46.861515 49.570852 
L 48.015273 48.395556 
L 49.022273 47.381681 
L 50.100006 46.308687 
L 51.18303 45.242815 
L 52.232288 44.221818 
L 53.343788 43.152541 
L 54.413763 42.134949 
L 55.504545 41.10922 
L 56.646153 40.048081 
L 57.665303 39.111289 
L 58.931264 37.961212 
L 59.826061 37.157252 
L 61.270983 35.874343 
L 61.986818 35.245678 
L 63.667293 33.787475 
L 64.147576 33.375198 
L 66.122272 31.700606 
L 66.308333 31.5445 
L 68.469091 29.753802 
L 68.640222 29.613737 
L 70.629848 28.002433 
L 71.224534 27.526869 
L 72.790606 26.287537 
L 73.875375 25.44 
" style="fill:none;stroke:#e46e56;"/>
   </g>
   <g id="LineCollection_40">
    <path clip-path="url(#p2ef07e77fc)" d="M 42.54 49.088489 
L 43.205397 48.395556 
L 44.700758 46.856413 
L 45.23877 46.308687 
L 46.861515 44.675627 
L 47.317486 44.221818 
L 49.022273 42.544386 
L 49.443078 42.134949 
L 51.18303 40.461018 
L 51.61715 40.048081 
L 53.343788 38.42393 
L 53.841379 37.961212 
L 55.504545 36.431596 
L 56.117522 35.874343 
L 57.665303 34.482557 
L 58.447419 33.787475 
L 59.826061 32.575417 
L 60.832994 31.700606 
L 61.986818 30.708839 
L 63.27627 29.613737 
L 64.147576 28.881543 
L 65.779364 27.526869 
L 66.308333 27.092302 
L 68.3445 25.44 
" style="fill:none;stroke:#e0654f;"/>
   </g>
   <g id="LineCollection_41">
    <path clip-path="url(#p2ef07e77fc)" d="M 42.54 44.204548 
L 44.597468 42.134949 
L 44.700758 42.032218 
L 46.717669 40.048081 
L 46.861515 39.908143 
L 48.885148 37.961212 
L 49.022273 37.830734 
L 51.101505 35.874343 
L 51.18303 35.798468 
L 53.343788 33.810135 
L 53.368697 33.787475 
L 55.504545 31.86536 
L 55.689756 31.700606 
L 57.665303 29.961948 
L 58.065629 29.613737 
L 59.826061 28.098594 
L 60.49828 27.526869 
L 61.986818 26.274045 
L 62.98977 25.44 
" style="fill:none;stroke:#d95847;"/>
   </g>
   <g id="LineCollection_42">
    <path clip-path="url(#p2ef07e77fc)" d="M 42.54 39.452568 
L 44.056298 37.961212 
L 44.700758 37.334316 
L 46.218183 35.874343 
L 46.861515 35.262095 
L 48.428276 33.787475 
L 49.022273 33.23442 
L 50.688209 31.700606 
L 51.18303 31.249872 
L 52.999685 29.613737 
L 53.343788 29.307089 
L 55.364489 27.526869 
L 55.504545 27.404765 
L 57.665303 25.542709 
L 57.785895 25.44 
" style="fill:none;stroke:#d24b40;"/>
   </g>
   <g id="LineCollection_43">
    <path clip-path="url(#p2ef07e77fc)" d="M 42.54 34.81642 
L 43.609392 33.787475 
L 44.700758 32.748674 
L 45.814001 31.700606 
L 46.861515 30.724906 
L 48.067771 29.613737 
L 49.022273 28.743729 
L 50.372365 27.526869 
L 51.18303 26.803811 
L 52.729521 25.44 
" style="fill:none;stroke:#cc403a;"/>
   </g>
   <g id="LineCollection_44">
    <path clip-path="url(#p2ef07e77fc)" d="M 42.54 30.28871 
L 43.25675 29.613737 
L 44.700758 28.268205 
L 45.505122 27.526869 
L 46.861515 26.289778 
L 47.803632 25.44 
" style="fill:none;stroke:#c43032;"/>
   </g>
   <g id="LineCollection_45">
    <path clip-path="url(#p2ef07e77fc)" d="M 42.54 25.862666 
L 42.998372 25.44 
" style="fill:none;stroke:#bb1b2c;"/>
   </g>
   <g id="LineCollection_46"/>
   <g id="line2d_11">
    <path clip-path="url(#p2ef07e77fc)" d="M 42.54 128.74 
L 256.455 128.74 
" style="fill:none;stroke:#000000;stroke-linecap:square;stroke-width:0.5;"/>
   </g>
   <g id="line2d_12">
    <path clip-path="url(#p2ef07e77fc)" d="M 149.4975 232.04 
L 149.4975 25.44 
" style="fill:none;stroke:#000000;stroke-linecap:square;stroke-width:0.5;"/>
   </g>
   <g id="line2d_13">
    <path clip-path="url(#p2ef07e77fc)" d="M 170.889 128.74 
L 170.843199 127.388771 
L 170.705993 126.043329 
L 170.477968 124.709434 
L 170.160102 123.392799 
L 169.753756 122.099061 
L 169.260669 120.83376 
L 168.682953 119.602316 
L 168.023082 118.41 
L 167.283882 117.261919 
L 166.468518 116.162989 
L 165.580481 115.117915 
L 164.623575 114.131174 
L 163.601896 113.20699 
L 162.51982 112.34932 
L 161.381981 111.561838 
L 160.19325 110.847915 
L 158.958719 110.210609 
L 157.683673 109.652649 
L 156.373572 109.176424 
L 155.034028 108.783972 
L 153.670775 108.476976 
L 152.289651 108.256749 
L 150.896571 108.124235 
L 149.4975 108.08 
L 149.4975 108.08 
L 148.098429 108.124235 
L 146.705349 108.256749 
L 145.324225 108.476976 
L 143.960972 108.783972 
L 142.621428 109.176424 
L 141.311327 109.652649 
L 140.036281 110.210609 
L 138.80175 110.847915 
L 137.613019 111.561838 
L 136.47518 112.34932 
L 135.393104 113.20699 
L 134.371425 114.131174 
L 133.414519 115.117915 
L 132.526482 116.162989 
L 131.711118 117.261919 
L 130.971918 118.41 
L 130.312047 119.602316 
L 129.734331 120.83376 
L 129.241244 122.099061 
L 128.834898 123.392799 
L 128.517032 124.709434 
L 128.289007 126.043329 
L 128.151801 127.388771 
L 128.106 128.74 
L 128.106 128.74 
L 128.151801 130.091229 
L 128.289007 131.436671 
L 128.517032 132.770566 
L 128.834898 134.087201 
L 129.241244 135.380939 
L 129.734331 136.64624 
L 130.312047 137.877684 
L 130.971918 139.07 
L 131.711118 140.218081 
L 132.526482 141.317011 
L 133.414519 142.362085 
L 134.371425 143.348826 
L 135.393104 144.27301 
L 136.47518 145.13068 
L 137.613019 145.918162 
L 138.80175 146.632085 
L 140.036281 147.269391 
L 141.311327 147.827351 
L 142.621428 148.303576 
L 143.960972 148.696028 
L 145.324225 149.003024 
L 146.705349 149.223251 
L 148.098429 149.355765 
L 149.4975 149.4 
L 149.4975 149.4 
L 150.896571 149.355765 
L 152.289651 149.223251 
L 153.670775 149.003024 
L 155.034028 148.696028 
L 156.373572 148.303576 
L 157.683673 147.827351 
L 158.958719 147.269391 
L 160.19325 146.632085 
L 161.381981 145.918162 
L 162.51982 145.13068 
L 163.601896 144.27301 
L 164.623575 143.348826 
L 165.580481 142.362085 
L 166.468518 141.317011 
L 167.283882 140.218081 
L 168.023082 139.07 
L 168.682953 137.877684 
L 169.260669 136.64624 
L 169.753756 135.380939 
L 170.160102 134.087201 
L 170.477968 132.770566 
L 170.705993 131.436671 
L 170.843199 130.091229 
L 170.889 128.74 
" style="fill:none;stroke:#2d435d;stroke-linecap:square;stroke-width:1.5;"/>
   </g>
   <g id="line2d_14">
    <path clip-path="url(#p2ef07e77fc)" d="M 202.97625 77.09 
L 149.4975 128.74 
" style="fill:none;stroke:#000000;stroke-dasharray:1.5,2.475;stroke-dashoffset:0;stroke-width:1.5;"/>
   </g>
   <g id="patch_3">
    <path d="M 42.54 232.04 
L 42.54 25.44 
" style="fill:none;stroke:#000000;stroke-linecap:square;stroke-linejoin:miter;stroke-width:0.8;"/>
   </g>
   <g id="patch_4">
    <path d="M 256.455 232.04 
L 256.455 25.44 
" style="fill:none;stroke:#000000;stroke-linecap:square;stroke-linejoin:miter;stroke-width:0.8;"/>
   </g>
   <g id="patch_5">
    <path d="M 42.54 232.04 
L 256.455 232.04 
" style="fill:none;stroke:#000000;stroke-linecap:square;stroke-linejoin:miter;stroke-width:0.8;"/>
   </g>
   <g id="patch_6">
    <path d="M 42.54 25.44 
L 256.455 25.44 
" style="fill:none;stroke:#000000;stroke-linecap:square;stroke-linejoin:miter;stroke-width:0.8;"/>
   </g>
   <g id="text_13">
    <!-- l2 constraint w/symmetric loss function -->
    <defs>
     <path d="M 9.421875 75.984375 
L 18.40625 75.984375 
L 18.40625 0 
L 9.421875 0 
z
" id="DejaVuSans-108"/>
     <path id="DejaVuSans-32"/>
     <path d="M 48.78125 52.59375 
L 48.78125 44.1875 
Q 44.96875 46.296875 41.140625 47.34375 
Q 37.3125 48.390625 33.40625 48.390625 
Q 24.65625 48.390625 19.8125 42.84375 
Q 14.984375 37.3125 14.984375 27.296875 
Q 14.984375 17.28125 19.8125 11.734375 
Q 24.65625 6.203125 33.40625 6.203125 
Q 37.3125 6.203125 41.140625 7.25 
Q 44.96875 8.296875 48.78125 10.40625 
L 48.78125 2.09375 
Q 45.015625 0.34375 40.984375 -0.53125 
Q 36.96875 -1.421875 32.421875 -1.421875 
Q 20.0625 -1.421875 12.78125 6.34375 
Q 5.515625 14.109375 5.515625 27.296875 
Q 5.515625 40.671875 12.859375 48.328125 
Q 20.21875 56 33.015625 56 
Q 37.15625 56 41.109375 55.140625 
Q 45.0625 54.296875 48.78125 52.59375 
z
" id="DejaVuSans-99"/>
     <path d="M 30.609375 48.390625 
Q 23.390625 48.390625 19.1875 42.75 
Q 14.984375 37.109375 14.984375 27.296875 
Q 14.984375 17.484375 19.15625 11.84375 
Q 23.34375 6.203125 30.609375 6.203125 
Q 37.796875 6.203125 41.984375 11.859375 
Q 46.1875 17.53125 46.1875 27.296875 
Q 46.1875 37.015625 41.984375 42.703125 
Q 37.796875 48.390625 30.609375 48.390625 
z
M 30.609375 56 
Q 42.328125 56 49.015625 48.375 
Q 55.71875 40.765625 55.71875 27.296875 
Q 55.71875 13.875 49.015625 6.21875 
Q 42.328125 -1.421875 30.609375 -1.421875 
Q 18.84375 -1.421875 12.171875 6.21875 
Q 5.515625 13.875 5.515625 27.296875 
Q 5.515625 40.765625 12.171875 48.375 
Q 18.84375 56 30.609375 56 
z
" id="DejaVuSans-111"/>
     <path d="M 54.890625 33.015625 
L 54.890625 0 
L 45.90625 0 
L 45.90625 32.71875 
Q 45.90625 40.484375 42.875 44.328125 
Q 39.84375 48.1875 33.796875 48.1875 
Q 26.515625 48.1875 22.3125 43.546875 
Q 18.109375 38.921875 18.109375 30.90625 
L 18.109375 0 
L 9.078125 0 
L 9.078125 54.6875 
L 18.109375 54.6875 
L 18.109375 46.1875 
Q 21.34375 51.125 25.703125 53.5625 
Q 30.078125 56 35.796875 56 
Q 45.21875 56 50.046875 50.171875 
Q 54.890625 44.34375 54.890625 33.015625 
z
" id="DejaVuSans-110"/>
     <path d="M 44.28125 53.078125 
L 44.28125 44.578125 
Q 40.484375 46.53125 36.375 47.5 
Q 32.28125 48.484375 27.875 48.484375 
Q 21.1875 48.484375 17.84375 46.4375 
Q 14.5 44.390625 14.5 40.28125 
Q 14.5 37.15625 16.890625 35.375 
Q 19.28125 33.59375 26.515625 31.984375 
L 29.59375 31.296875 
Q 39.15625 29.25 43.1875 25.515625 
Q 47.21875 21.78125 47.21875 15.09375 
Q 47.21875 7.46875 41.1875 3.015625 
Q 35.15625 -1.421875 24.609375 -1.421875 
Q 20.21875 -1.421875 15.453125 -0.5625 
Q 10.6875 0.296875 5.421875 2 
L 5.421875 11.28125 
Q 10.40625 8.6875 15.234375 7.390625 
Q 20.0625 6.109375 24.8125 6.109375 
Q 31.15625 6.109375 34.5625 8.28125 
Q 37.984375 10.453125 37.984375 14.40625 
Q 37.984375 18.0625 35.515625 20.015625 
Q 33.0625 21.96875 24.703125 23.78125 
L 21.578125 24.515625 
Q 13.234375 26.265625 9.515625 29.90625 
Q 5.8125 33.546875 5.8125 39.890625 
Q 5.8125 47.609375 11.28125 51.796875 
Q 16.75 56 26.8125 56 
Q 31.78125 56 36.171875 55.265625 
Q 40.578125 54.546875 44.28125 53.078125 
z
" id="DejaVuSans-115"/>
     <path d="M 18.3125 70.21875 
L 18.3125 54.6875 
L 36.8125 54.6875 
L 36.8125 47.703125 
L 18.3125 47.703125 
L 18.3125 18.015625 
Q 18.3125 11.328125 20.140625 9.421875 
Q 21.96875 7.515625 27.59375 7.515625 
L 36.8125 7.515625 
L 36.8125 0 
L 27.59375 0 
Q 17.1875 0 13.234375 3.875 
Q 9.28125 7.765625 9.28125 18.015625 
L 9.28125 47.703125 
L 2.6875 47.703125 
L 2.6875 54.6875 
L 9.28125 54.6875 
L 9.28125 70.21875 
z
" id="DejaVuSans-116"/>
     <path d="M 41.109375 46.296875 
Q 39.59375 47.171875 37.8125 47.578125 
Q 36.03125 48 33.890625 48 
Q 26.265625 48 22.1875 43.046875 
Q 18.109375 38.09375 18.109375 28.8125 
L 18.109375 0 
L 9.078125 0 
L 9.078125 54.6875 
L 18.109375 54.6875 
L 18.109375 46.1875 
Q 20.953125 51.171875 25.484375 53.578125 
Q 30.03125 56 36.53125 56 
Q 37.453125 56 38.578125 55.875 
Q 39.703125 55.765625 41.0625 55.515625 
z
" id="DejaVuSans-114"/>
     <path d="M 34.28125 27.484375 
Q 23.390625 27.484375 19.1875 25 
Q 14.984375 22.515625 14.984375 16.5 
Q 14.984375 11.71875 18.140625 8.90625 
Q 21.296875 6.109375 26.703125 6.109375 
Q 34.1875 6.109375 38.703125 11.40625 
Q 43.21875 16.703125 43.21875 25.484375 
L 43.21875 27.484375 
z
M 52.203125 31.203125 
L 52.203125 0 
L 43.21875 0 
L 43.21875 8.296875 
Q 40.140625 3.328125 35.546875 0.953125 
Q 30.953125 -1.421875 24.3125 -1.421875 
Q 15.921875 -1.421875 10.953125 3.296875 
Q 6 8.015625 6 15.921875 
Q 6 25.140625 12.171875 29.828125 
Q 18.359375 34.515625 30.609375 34.515625 
L 43.21875 34.515625 
L 43.21875 35.40625 
Q 43.21875 41.609375 39.140625 45 
Q 35.0625 48.390625 27.6875 48.390625 
Q 23 48.390625 18.546875 47.265625 
Q 14.109375 46.140625 10.015625 43.890625 
L 10.015625 52.203125 
Q 14.9375 54.109375 19.578125 55.046875 
Q 24.21875 56 28.609375 56 
Q 40.484375 56 46.34375 49.84375 
Q 52.203125 43.703125 52.203125 31.203125 
z
" id="DejaVuSans-97"/>
     <path d="M 9.421875 54.6875 
L 18.40625 54.6875 
L 18.40625 0 
L 9.421875 0 
z
M 9.421875 75.984375 
L 18.40625 75.984375 
L 18.40625 64.59375 
L 9.421875 64.59375 
z
" id="DejaVuSans-105"/>
     <path d="M 4.203125 54.6875 
L 13.1875 54.6875 
L 24.421875 12.015625 
L 35.59375 54.6875 
L 46.1875 54.6875 
L 57.421875 12.015625 
L 68.609375 54.6875 
L 77.59375 54.6875 
L 63.28125 0 
L 52.6875 0 
L 40.921875 44.828125 
L 29.109375 0 
L 18.5 0 
z
" id="DejaVuSans-119"/>
     <path d="M 25.390625 72.90625 
L 33.6875 72.90625 
L 8.296875 -9.28125 
L 0 -9.28125 
z
" id="DejaVuSans-47"/>
     <path d="M 32.171875 -5.078125 
Q 28.375 -14.84375 24.75 -17.8125 
Q 21.140625 -20.796875 15.09375 -20.796875 
L 7.90625 -20.796875 
L 7.90625 -13.28125 
L 13.1875 -13.28125 
Q 16.890625 -13.28125 18.9375 -11.515625 
Q 21 -9.765625 23.484375 -3.21875 
L 25.09375 0.875 
L 2.984375 54.6875 
L 12.5 54.6875 
L 29.59375 11.921875 
L 46.6875 54.6875 
L 56.203125 54.6875 
z
" id="DejaVuSans-121"/>
     <path d="M 52 44.1875 
Q 55.375 50.25 60.0625 53.125 
Q 64.75 56 71.09375 56 
Q 79.640625 56 84.28125 50.015625 
Q 88.921875 44.046875 88.921875 33.015625 
L 88.921875 0 
L 79.890625 0 
L 79.890625 32.71875 
Q 79.890625 40.578125 77.09375 44.375 
Q 74.3125 48.1875 68.609375 48.1875 
Q 61.625 48.1875 57.5625 43.546875 
Q 53.515625 38.921875 53.515625 30.90625 
L 53.515625 0 
L 44.484375 0 
L 44.484375 32.71875 
Q 44.484375 40.625 41.703125 44.40625 
Q 38.921875 48.1875 33.109375 48.1875 
Q 26.21875 48.1875 22.15625 43.53125 
Q 18.109375 38.875 18.109375 30.90625 
L 18.109375 0 
L 9.078125 0 
L 9.078125 54.6875 
L 18.109375 54.6875 
L 18.109375 46.1875 
Q 21.1875 51.21875 25.484375 53.609375 
Q 29.78125 56 35.6875 56 
Q 41.65625 56 45.828125 52.96875 
Q 50 49.953125 52 44.1875 
z
" id="DejaVuSans-109"/>
     <path d="M 56.203125 29.59375 
L 56.203125 25.203125 
L 14.890625 25.203125 
Q 15.484375 15.921875 20.484375 11.0625 
Q 25.484375 6.203125 34.421875 6.203125 
Q 39.59375 6.203125 44.453125 7.46875 
Q 49.3125 8.734375 54.109375 11.28125 
L 54.109375 2.78125 
Q 49.265625 0.734375 44.1875 -0.34375 
Q 39.109375 -1.421875 33.890625 -1.421875 
Q 20.796875 -1.421875 13.15625 6.1875 
Q 5.515625 13.8125 5.515625 26.8125 
Q 5.515625 40.234375 12.765625 48.109375 
Q 20.015625 56 32.328125 56 
Q 43.359375 56 49.78125 48.890625 
Q 56.203125 41.796875 56.203125 29.59375 
z
M 47.21875 32.234375 
Q 47.125 39.59375 43.09375 43.984375 
Q 39.0625 48.390625 32.421875 48.390625 
Q 24.90625 48.390625 20.390625 44.140625 
Q 15.875 39.890625 15.1875 32.171875 
z
" id="DejaVuSans-101"/>
     <path d="M 37.109375 75.984375 
L 37.109375 68.5 
L 28.515625 68.5 
Q 23.6875 68.5 21.796875 66.546875 
Q 19.921875 64.59375 19.921875 59.515625 
L 19.921875 54.6875 
L 34.71875 54.6875 
L 34.71875 47.703125 
L 19.921875 47.703125 
L 19.921875 0 
L 10.890625 0 
L 10.890625 47.703125 
L 2.296875 47.703125 
L 2.296875 54.6875 
L 10.890625 54.6875 
L 10.890625 58.5 
Q 10.890625 67.625 15.140625 71.796875 
Q 19.390625 75.984375 28.609375 75.984375 
z
" id="DejaVuSans-102"/>
     <path d="M 8.5 21.578125 
L 8.5 54.6875 
L 17.484375 54.6875 
L 17.484375 21.921875 
Q 17.484375 14.15625 20.5 10.265625 
Q 23.53125 6.390625 29.59375 6.390625 
Q 36.859375 6.390625 41.078125 11.03125 
Q 45.3125 15.671875 45.3125 23.6875 
L 45.3125 54.6875 
L 54.296875 54.6875 
L 54.296875 0 
L 45.3125 0 
L 45.3125 8.40625 
Q 42.046875 3.421875 37.71875 1 
Q 33.40625 -1.421875 27.6875 -1.421875 
Q 18.265625 -1.421875 13.375 4.4375 
Q 8.5 10.296875 8.5 21.578125 
z
M 31.109375 56 
z
" id="DejaVuSans-117"/>
    </defs>
    <g transform="translate(41.150937 19.44)scale(0.11 -0.11)">
     <use xlink:href="#DejaVuSans-108"/>
     <use x="27.783203" xlink:href="#DejaVuSans-50"/>
     <use x="91.40625" xlink:href="#DejaVuSans-32"/>
     <use x="123.193359" xlink:href="#DejaVuSans-99"/>
     <use x="178.173828" xlink:href="#DejaVuSans-111"/>
     <use x="239.355469" xlink:href="#DejaVuSans-110"/>
     <use x="302.734375" xlink:href="#DejaVuSans-115"/>
     <use x="354.833984" xlink:href="#DejaVuSans-116"/>
     <use x="394.042969" xlink:href="#DejaVuSans-114"/>
     <use x="435.15625" xlink:href="#DejaVuSans-97"/>
     <use x="496.435547" xlink:href="#DejaVuSans-105"/>
     <use x="524.21875" xlink:href="#DejaVuSans-110"/>
     <use x="587.597656" xlink:href="#DejaVuSans-116"/>
     <use x="626.806641" xlink:href="#DejaVuSans-32"/>
     <use x="658.59375" xlink:href="#DejaVuSans-119"/>
     <use x="740.380859" xlink:href="#DejaVuSans-47"/>
     <use x="774.072266" xlink:href="#DejaVuSans-115"/>
     <use x="826.171875" xlink:href="#DejaVuSans-121"/>
     <use x="885.351562" xlink:href="#DejaVuSans-109"/>
     <use x="982.763672" xlink:href="#DejaVuSans-109"/>
     <use x="1080.175781" xlink:href="#DejaVuSans-101"/>
     <use x="1141.699219" xlink:href="#DejaVuSans-116"/>
     <use x="1180.908203" xlink:href="#DejaVuSans-114"/>
     <use x="1222.021484" xlink:href="#DejaVuSans-105"/>
     <use x="1249.804688" xlink:href="#DejaVuSans-99"/>
     <use x="1304.785156" xlink:href="#DejaVuSans-32"/>
     <use x="1336.572266" xlink:href="#DejaVuSans-108"/>
     <use x="1364.355469" xlink:href="#DejaVuSans-111"/>
     <use x="1425.537109" xlink:href="#DejaVuSans-115"/>
     <use x="1477.636719" xlink:href="#DejaVuSans-115"/>
     <use x="1529.736328" xlink:href="#DejaVuSans-32"/>
     <use x="1561.523438" xlink:href="#DejaVuSans-102"/>
     <use x="1596.728516" xlink:href="#DejaVuSans-117"/>
     <use x="1660.107422" xlink:href="#DejaVuSans-110"/>
     <use x="1723.486328" xlink:href="#DejaVuSans-99"/>
     <use x="1778.466797" xlink:href="#DejaVuSans-116"/>
     <use x="1817.675781" xlink:href="#DejaVuSans-105"/>
     <use x="1845.458984" xlink:href="#DejaVuSans-111"/>
     <use x="1906.640625" xlink:href="#DejaVuSans-110"/>
    </g>
   </g>
  </g>
 </g>
 <defs>
  <clipPath id="p2ef07e77fc">
   <rect height="206.6" width="213.915" x="42.54" y="25.44"/>
  </clipPath>
 </defs>
</svg>
