<?xml version="1.0" encoding="utf-8" standalone="no"?>
<!DOCTYPE svg PUBLIC "-//W3C//DTD SVG 1.1//EN"
  "http://www.w3.org/Graphics/SVG/1.1/DTD/svg11.dtd">
<!-- Created with matplotlib (https://matplotlib.org/) -->
<svg height="273.6pt" version="1.1" viewBox="0 0 273.6 273.6" width="273.6pt" xmlns="http://www.w3.org/2000/svg" xmlns:xlink="http://www.w3.org/1999/xlink">
 <defs>
  <style type="text/css">
*{stroke-linecap:butt;stroke-linejoin:round;}
  </style>
 </defs>
 <g id="figure_1">
  <g id="patch_1">
   <path d="M 0 273.6 
L 273.6 273.6 
L 273.6 0 
L 0 0 
z
" style="fill:#ffffff;"/>
  </g>
  <g id="axes_1">
   <g id="patch_2">
    <path d="M 42.54 232.04 
L 256.455 232.04 
L 256.455 25.44 
L 42.54 25.44 
z
" style="fill:#ffffff;"/>
   </g>
   <g id="PathCollection_1">
    <defs>
     <path d="M 0 4.743416 
C 1.257969 4.743416 2.464584 4.24362 3.354102 3.354102 
C 4.24362 2.464584 4.743416 1.257969 4.743416 0 
C 4.743416 -1.257969 4.24362 -2.464584 3.354102 -3.354102 
C 2.464584 -4.24362 1.257969 -4.743416 0 -4.743416 
C -1.257969 -4.743416 -2.464584 -4.24362 -3.354102 -3.354102 
C -4.24362 -2.464584 -4.743416 -1.257969 -4.743416 0 
C -4.743416 1.257969 -4.24362 2.464584 -3.354102 3.354102 
C -2.464584 4.24362 -1.257969 4.743416 0 4.743416 
z
" id="m1c22bf0a2b" style="stroke:#000000;"/>
    </defs>
    <g clip-path="url(#pc4ed9764af)">
     <use style="stroke:#000000;" x="202.97625" xlink:href="#m1c22bf0a2b" y="77.09"/>
    </g>
   </g>
   <g id="PathCollection_2">
    <defs>
     <path d="M 0 4.743416 
C 1.257969 4.743416 2.464584 4.24362 3.354102 3.354102 
C 4.24362 2.464584 4.743416 1.257969 4.743416 0 
C 4.743416 -1.257969 4.24362 -2.464584 3.354102 -3.354102 
C 2.464584 -4.24362 1.257969 -4.743416 0 -4.743416 
C -1.257969 -4.743416 -2.464584 -4.24362 -3.354102 -3.354102 
C -4.24362 -2.464584 -4.743416 -1.257969 -4.743416 0 
C -4.743416 1.257969 -4.24362 2.464584 -3.354102 3.354102 
C -2.464584 4.24362 -1.257969 4.743416 0 4.743416 
z
" id="m1cad7f745c" style="stroke:#e32ca6;"/>
    </defs>
    <g clip-path="url(#pc4ed9764af)">
     <use style="fill:#e32ca6;stroke:#e32ca6;" x="164.623575" xlink:href="#m1cad7f745c" y="114.131174"/>
    </g>
   </g>
   <g id="matplotlib.axis_1">
    <g id="xtick_1">
     <g id="line2d_1">
      <defs>
       <path d="M 0 0 
L 0 3.5 
" id="mee31786167" style="stroke:#000000;stroke-width:0.8;"/>
      </defs>
      <g>
       <use style="stroke:#000000;stroke-width:0.8;" x="42.54" xlink:href="#mee31786167" y="232.04"/>
      </g>
     </g>
     <g id="text_1">
      <!-- −10 -->
      <defs>
       <path d="M 10.59375 35.5 
L 73.1875 35.5 
L 73.1875 27.203125 
L 10.59375 27.203125 
z
" id="DejaVuSans-8722"/>
       <path d="M 12.40625 8.296875 
L 28.515625 8.296875 
L 28.515625 63.921875 
L 10.984375 60.40625 
L 10.984375 69.390625 
L 28.421875 72.90625 
L 38.28125 72.90625 
L 38.28125 8.296875 
L 54.390625 8.296875 
L 54.390625 0 
L 12.40625 0 
z
" id="DejaVuSans-49"/>
       <path d="M 31.78125 66.40625 
Q 24.171875 66.40625 20.328125 58.90625 
Q 16.5 51.421875 16.5 36.375 
Q 16.5 21.390625 20.328125 13.890625 
Q 24.171875 6.390625 31.78125 6.390625 
Q 39.453125 6.390625 43.28125 13.890625 
Q 47.125 21.390625 47.125 36.375 
Q 47.125 51.421875 43.28125 58.90625 
Q 39.453125 66.40625 31.78125 66.40625 
z
M 31.78125 74.21875 
Q 44.046875 74.21875 50.515625 64.515625 
Q 56.984375 54.828125 56.984375 36.375 
Q 56.984375 17.96875 50.515625 8.265625 
Q 44.046875 -1.421875 31.78125 -1.421875 
Q 19.53125 -1.421875 13.0625 8.265625 
Q 6.59375 17.96875 6.59375 36.375 
Q 6.59375 54.828125 13.0625 64.515625 
Q 19.53125 74.21875 31.78125 74.21875 
z
" id="DejaVuSans-48"/>
      </defs>
      <g transform="translate(31.987656 246.638437)scale(0.1 -0.1)">
       <use xlink:href="#DejaVuSans-8722"/>
       <use x="83.789062" xlink:href="#DejaVuSans-49"/>
       <use x="147.412109" xlink:href="#DejaVuSans-48"/>
      </g>
     </g>
    </g>
    <g id="xtick_2">
     <g id="line2d_2">
      <g>
       <use style="stroke:#000000;stroke-width:0.8;" x="96.01875" xlink:href="#mee31786167" y="232.04"/>
      </g>
     </g>
     <g id="text_2">
      <!-- −5 -->
      <defs>
       <path d="M 10.796875 72.90625 
L 49.515625 72.90625 
L 49.515625 64.59375 
L 19.828125 64.59375 
L 19.828125 46.734375 
Q 21.96875 47.46875 24.109375 47.828125 
Q 26.265625 48.1875 28.421875 48.1875 
Q 40.625 48.1875 47.75 41.5 
Q 54.890625 34.8125 54.890625 23.390625 
Q 54.890625 11.625 47.5625 5.09375 
Q 40.234375 -1.421875 26.90625 -1.421875 
Q 22.3125 -1.421875 17.546875 -0.640625 
Q 12.796875 0.140625 7.71875 1.703125 
L 7.71875 11.625 
Q 12.109375 9.234375 16.796875 8.0625 
Q 21.484375 6.890625 26.703125 6.890625 
Q 35.15625 6.890625 40.078125 11.328125 
Q 45.015625 15.765625 45.015625 23.390625 
Q 45.015625 31 40.078125 35.4375 
Q 35.15625 39.890625 26.703125 39.890625 
Q 22.75 39.890625 18.8125 39.015625 
Q 14.890625 38.140625 10.796875 36.28125 
z
" id="DejaVuSans-53"/>
      </defs>
      <g transform="translate(88.647656 246.638437)scale(0.1 -0.1)">
       <use xlink:href="#DejaVuSans-8722"/>
       <use x="83.789062" xlink:href="#DejaVuSans-53"/>
      </g>
     </g>
    </g>
    <g id="xtick_3">
     <g id="line2d_3">
      <g>
       <use style="stroke:#000000;stroke-width:0.8;" x="149.4975" xlink:href="#mee31786167" y="232.04"/>
      </g>
     </g>
     <g id="text_3">
      <!-- 0 -->
      <g transform="translate(146.31625 246.638437)scale(0.1 -0.1)">
       <use xlink:href="#DejaVuSans-48"/>
      </g>
     </g>
    </g>
    <g id="xtick_4">
     <g id="line2d_4">
      <g>
       <use style="stroke:#000000;stroke-width:0.8;" x="202.97625" xlink:href="#mee31786167" y="232.04"/>
      </g>
     </g>
     <g id="text_4">
      <!-- 5 -->
      <g transform="translate(199.795 246.638437)scale(0.1 -0.1)">
       <use xlink:href="#DejaVuSans-53"/>
      </g>
     </g>
    </g>
    <g id="xtick_5">
     <g id="line2d_5">
      <g>
       <use style="stroke:#000000;stroke-width:0.8;" x="256.455" xlink:href="#mee31786167" y="232.04"/>
      </g>
     </g>
     <g id="text_5">
      <!-- 10 -->
      <g transform="translate(250.0925 246.638437)scale(0.1 -0.1)">
       <use xlink:href="#DejaVuSans-49"/>
       <use x="63.623047" xlink:href="#DejaVuSans-48"/>
      </g>
     </g>
    </g>
    <g id="text_6">
     <!-- $\beta_1$ -->
     <defs>
      <path d="M 13.625 3.375 
L 8.9375 -20.796875 
L -0.09375 -20.796875 
L 14.5 54.34375 
Q 18.84375 76.609375 39.65625 76.609375 
Q 60.75 76.609375 57.171875 57.8125 
Q 54.734375 44.4375 45.21875 39.546875 
Q 58.015625 35.15625 55.515625 22.125 
Q 51.125 -1.078125 27.484375 -1.03125 
Q 17.140625 -0.984375 13.625 3.375 
z
M 15.921875 15.09375 
Q 19.671875 6.59375 29.296875 6.640625 
Q 43.359375 6.640625 46.34375 21.96875 
Q 49.03125 35.75 26.171875 34.671875 
L 27.78125 42.96875 
Q 45.453125 42.671875 48.53125 58.59375 
Q 50.640625 69.34375 39.203125 69.28125 
Q 26.421875 69.28125 23.484375 54.046875 
z
" id="DejaVuSans-Oblique-946"/>
     </defs>
     <g transform="translate(142.7775 257.958125)scale(0.12 -0.12)">
      <use transform="translate(0 0.390625)" xlink:href="#DejaVuSans-Oblique-946"/>
      <use transform="translate(63.818359 -16.015625)scale(0.7)" xlink:href="#DejaVuSans-49"/>
     </g>
    </g>
   </g>
   <g id="matplotlib.axis_2">
    <g id="ytick_1">
     <g id="line2d_6">
      <defs>
       <path d="M 0 0 
L -3.5 0 
" id="medc3b11fae" style="stroke:#000000;stroke-width:0.8;"/>
      </defs>
      <g>
       <use style="stroke:#000000;stroke-width:0.8;" x="42.54" xlink:href="#medc3b11fae" y="232.04"/>
      </g>
     </g>
     <g id="text_7">
      <!-- −10 -->
      <g transform="translate(14.435312 235.839219)scale(0.1 -0.1)">
       <use xlink:href="#DejaVuSans-8722"/>
       <use x="83.789062" xlink:href="#DejaVuSans-49"/>
       <use x="147.412109" xlink:href="#DejaVuSans-48"/>
      </g>
     </g>
    </g>
    <g id="ytick_2">
     <g id="line2d_7">
      <g>
       <use style="stroke:#000000;stroke-width:0.8;" x="42.54" xlink:href="#medc3b11fae" y="180.39"/>
      </g>
     </g>
     <g id="text_8">
      <!-- −5 -->
      <g transform="translate(20.797812 184.189219)scale(0.1 -0.1)">
       <use xlink:href="#DejaVuSans-8722"/>
       <use x="83.789062" xlink:href="#DejaVuSans-53"/>
      </g>
     </g>
    </g>
    <g id="ytick_3">
     <g id="line2d_8">
      <g>
       <use style="stroke:#000000;stroke-width:0.8;" x="42.54" xlink:href="#medc3b11fae" y="128.74"/>
      </g>
     </g>
     <g id="text_9">
      <!-- 0 -->
      <g transform="translate(29.1775 132.539219)scale(0.1 -0.1)">
       <use xlink:href="#DejaVuSans-48"/>
      </g>
     </g>
    </g>
    <g id="ytick_4">
     <g id="line2d_9">
      <g>
       <use style="stroke:#000000;stroke-width:0.8;" x="42.54" xlink:href="#medc3b11fae" y="77.09"/>
      </g>
     </g>
     <g id="text_10">
      <!-- 5 -->
      <g transform="translate(29.1775 80.889219)scale(0.1 -0.1)">
       <use xlink:href="#DejaVuSans-53"/>
      </g>
     </g>
    </g>
    <g id="ytick_5">
     <g id="line2d_10">
      <g>
       <use style="stroke:#000000;stroke-width:0.8;" x="42.54" xlink:href="#medc3b11fae" y="25.44"/>
      </g>
     </g>
     <g id="text_11">
      <!-- 10 -->
      <g transform="translate(22.815 29.239219)scale(0.1 -0.1)">
       <use xlink:href="#DejaVuSans-49"/>
       <use x="63.623047" xlink:href="#DejaVuSans-48"/>
      </g>
     </g>
    </g>
    <g id="text_12">
     <!-- $\beta_2$ -->
     <defs>
      <path d="M 19.1875 8.296875 
L 53.609375 8.296875 
L 53.609375 0 
L 7.328125 0 
L 7.328125 8.296875 
Q 12.9375 14.109375 22.625 23.890625 
Q 32.328125 33.6875 34.8125 36.53125 
Q 39.546875 41.84375 41.421875 45.53125 
Q 43.3125 49.21875 43.3125 52.78125 
Q 43.3125 58.59375 39.234375 62.25 
Q 35.15625 65.921875 28.609375 65.921875 
Q 23.96875 65.921875 18.8125 64.3125 
Q 13.671875 62.703125 7.8125 59.421875 
L 7.8125 69.390625 
Q 13.765625 71.78125 18.9375 73 
Q 24.125 74.21875 28.421875 74.21875 
Q 39.75 74.21875 46.484375 68.546875 
Q 53.21875 62.890625 53.21875 53.421875 
Q 53.21875 48.921875 51.53125 44.890625 
Q 49.859375 40.875 45.40625 35.40625 
Q 44.1875 33.984375 37.640625 27.21875 
Q 31.109375 20.453125 19.1875 8.296875 
z
" id="DejaVuSans-50"/>
     </defs>
     <g transform="translate(21.915312 135.46)rotate(-90)scale(0.12 -0.12)">
      <use transform="translate(0 0.390625)" xlink:href="#DejaVuSans-Oblique-946"/>
      <use transform="translate(63.818359 -16.015625)scale(0.7)" xlink:href="#DejaVuSans-50"/>
     </g>
    </g>
   </g>
   <g id="LineCollection_1"/>
   <g id="LineCollection_2">
    <path clip-path="url(#pc4ed9764af)" d="M 235.717211 25.44 
L 235.920153 27.526869 
L 236.002227 29.613737 
L 235.963433 31.700606 
L 235.803771 33.787475 
L 235.52324 35.874343 
L 235.121841 37.961212 
L 234.847424 39.057721 
L 234.584887 40.048081 
L 233.903644 42.134949 
L 233.09437 44.221818 
L 232.686667 45.129554 
L 232.12371 46.308687 
L 230.991277 48.395556 
L 230.525909 49.161138 
L 229.668763 50.482424 
L 228.365152 52.297234 
L 228.155643 52.569293 
L 226.392874 54.656162 
L 226.204394 54.861186 
L 224.340049 56.74303 
L 224.043636 57.019764 
L 221.94154 58.829899 
L 221.882879 58.876886 
L 219.722121 60.461888 
L 219.039222 60.916768 
L 217.561364 61.836918 
L 215.476395 63.003636 
L 215.400606 63.043448 
L 213.239848 64.050629 
L 211.079091 64.929945 
L 210.61741 65.090505 
L 208.918333 65.647283 
L 206.757576 66.234868 
L 204.596818 66.701972 
L 202.436061 67.048593 
L 201.205559 67.177374 
L 200.275303 67.269418 
L 198.114545 67.369307 
L 195.953788 67.355291 
L 193.79303 67.227368 
L 193.346324 67.177374 
L 191.632273 66.974465 
L 189.471515 66.598192 
L 187.310758 66.101437 
L 185.15 65.4842 
L 183.996878 65.090505 
L 182.989242 64.725403 
L 180.828485 63.814618 
L 179.141355 63.003636 
L 178.667727 62.76111 
L 176.50697 61.518459 
L 175.564084 60.916768 
L 174.346212 60.085329 
L 172.672612 58.829899 
L 172.185455 58.437031 
L 170.25816 56.74303 
L 170.024697 56.521172 
L 168.211679 54.656162 
L 167.863939 54.266852 
L 166.455006 52.569293 
L 165.703182 51.575688 
L 164.93065 50.482424 
L 163.598885 48.395556 
L 163.542424 48.296448 
L 162.480236 46.308687 
L 161.499105 44.221818 
L 161.381667 43.932508 
L 160.694605 42.134949 
L 160.023153 40.048081 
L 159.477891 37.961212 
L 159.220909 36.681511 
L 159.067763 35.874343 
L 158.791041 33.787475 
L 158.633547 31.700606 
L 158.59528 29.613737 
L 158.676239 27.526869 
L 158.876426 25.44 
" style="fill:none;stroke:#4055c8;"/>
   </g>
   <g id="LineCollection_3">
    <path clip-path="url(#pc4ed9764af)" d="M 251.849457 25.44 
L 251.995294 27.526869 
L 252.054274 29.613737 
L 252.026396 31.700606 
L 251.91166 33.787475 
L 251.710067 35.874343 
L 251.421615 37.961212 
L 251.046306 40.048081 
L 250.584138 42.134949 
L 250.035113 44.221818 
L 249.972727 44.42656 
L 249.375212 46.308687 
L 248.622202 48.395556 
L 247.81197 50.400104 
L 247.777242 50.482424 
L 246.802413 52.569293 
L 245.733134 54.656162 
L 245.651212 54.803068 
L 244.519953 56.74303 
L 243.490455 58.375954 
L 243.19055 58.829899 
L 241.708335 60.916768 
L 241.329697 61.415072 
L 240.061893 63.003636 
L 239.168939 64.053957 
L 238.241011 65.090505 
L 237.008182 66.388138 
L 236.216417 67.177374 
L 234.847424 68.467509 
L 233.951898 69.264242 
L 232.686667 70.331635 
L 231.402121 71.351111 
L 230.525909 72.012293 
L 228.509561 73.43798 
L 228.365152 73.535297 
L 226.204394 74.893555 
L 225.122123 75.524848 
L 224.043636 76.125751 
L 221.882879 77.23617 
L 221.084919 77.611717 
L 219.722121 78.225594 
L 217.561364 79.109429 
L 215.958766 79.698586 
L 215.400606 79.895343 
L 213.239848 80.571227 
L 211.079091 81.161306 
L 208.918333 81.66558 
L 208.299361 81.785455 
L 206.757576 82.072256 
L 204.596818 82.391781 
L 202.436061 82.628889 
L 200.275303 82.783581 
L 198.114545 82.855856 
L 195.953788 82.845714 
L 193.79303 82.753156 
L 191.632273 82.578181 
L 189.471515 82.32079 
L 187.310758 81.980982 
L 186.310138 81.785455 
L 185.15 81.549436 
L 182.989242 81.024045 
L 180.828485 80.412849 
L 178.667727 79.715847 
L 178.62008 79.698586 
L 176.50697 78.900214 
L 174.346212 77.994356 
L 173.515553 77.611717 
L 172.185455 76.971564 
L 170.024697 75.838135 
L 169.472962 75.524848 
L 167.863939 74.568361 
L 166.097031 73.43798 
L 165.703182 73.173615 
L 163.542424 71.620548 
L 163.190811 71.351111 
L 161.381667 69.893033 
L 160.647044 69.264242 
L 159.220909 67.976934 
L 158.383999 67.177374 
L 157.060152 65.839589 
L 156.357636 65.090505 
L 154.899394 63.44033 
L 154.53267 63.003636 
L 152.887548 60.916768 
L 152.738636 60.714681 
L 151.415552 58.829899 
L 150.577879 57.547023 
L 150.07663 56.74303 
L 148.873242 54.656162 
L 148.417121 53.795305 
L 147.795617 52.569293 
L 146.831165 50.482424 
L 146.256364 49.105243 
L 145.972437 48.395556 
L 145.227109 46.308687 
L 144.571353 44.221818 
L 144.095606 42.468283 
L 144.00877 42.134949 
L 143.55113 40.048081 
L 143.179497 37.961212 
L 142.893871 35.874343 
L 142.694253 33.787475 
L 142.580641 31.700606 
L 142.553036 29.613737 
L 142.611438 27.526869 
L 142.755847 25.44 
" style="fill:none;stroke:#485fd1;"/>
   </g>
   <g id="LineCollection_4">
    <path clip-path="url(#pc4ed9764af)" d="M 256.455 60.489676 
L 256.219374 60.916768 
L 254.987653 63.003636 
L 254.294242 64.10648 
L 253.651629 65.090505 
L 252.205307 67.177374 
L 252.133485 67.275348 
L 250.616875 69.264242 
L 249.972727 70.065262 
L 248.895392 71.351111 
L 247.81197 72.58059 
L 247.023409 73.43798 
L 245.651212 74.859971 
L 244.980289 75.524848 
L 243.490455 76.935114 
L 242.741439 77.611717 
L 241.329697 78.832293 
L 240.277318 79.698586 
L 239.168939 80.573461 
L 237.552125 81.785455 
L 237.008182 82.177101 
L 234.847424 83.650459 
L 234.502769 83.872323 
L 232.686667 84.996984 
L 231.03503 85.959192 
L 230.525909 86.244938 
L 228.365152 87.381291 
L 227.010011 88.046061 
L 226.204394 88.427305 
L 224.043636 89.376161 
L 222.175205 90.132929 
L 221.882879 90.247292 
L 219.722121 91.021439 
L 217.561364 91.724414 
L 215.867153 92.219798 
L 215.400606 92.351716 
L 213.239848 92.893855 
L 211.079091 93.367167 
L 208.918333 93.771653 
L 206.757576 94.107314 
L 205.143269 94.306667 
L 204.596818 94.371994 
L 202.436061 94.563681 
L 200.275303 94.688739 
L 198.114545 94.747169 
L 195.953788 94.73897 
L 193.79303 94.664142 
L 191.632273 94.522687 
L 189.471515 94.314602 
L 189.409098 94.306667 
L 187.310758 94.031091 
L 185.15 93.678492 
L 182.989242 93.257067 
L 180.828485 92.766816 
L 178.714331 92.219798 
L 178.667727 92.207328 
L 176.50697 91.558011 
L 174.346212 90.83752 
L 172.423111 90.132929 
L 172.185455 90.042782 
L 170.024697 89.149478 
L 167.863939 88.182488 
L 167.580675 88.046061 
L 165.703182 87.108714 
L 163.552952 85.959192 
L 163.542424 85.95335 
L 161.381667 84.675027 
L 160.104091 83.872323 
L 159.220909 83.295504 
L 157.060152 81.801862 
L 157.037657 81.785455 
L 154.899394 80.161677 
L 154.31988 79.698586 
L 152.738636 78.380829 
L 151.859431 77.611717 
L 150.577879 76.440414 
L 149.621415 75.524848 
L 148.417121 74.31798 
L 147.576974 73.43798 
L 146.256364 71.986655 
L 145.702034 71.351111 
L 144.095606 69.414003 
L 143.976354 69.264242 
L 142.400624 67.177374 
L 141.934848 66.524896 
L 140.950097 65.090505 
L 139.774091 63.272576 
L 139.60653 63.003636 
L 138.385986 60.916768 
L 137.613333 59.50345 
L 137.2582 58.829899 
L 136.234721 56.74303 
L 135.452576 55.018805 
L 135.293722 54.656162 
L 134.453774 52.569293 
L 133.68802 50.482424 
L 133.291818 49.286837 
L 133.006265 48.395556 
L 132.409394 46.308687 
L 131.884253 44.221818 
L 131.430844 42.134949 
L 131.131061 40.495847 
L 131.051798 40.048081 
L 130.751809 37.961212 
L 130.521247 35.874343 
L 130.360112 33.787475 
L 130.268402 31.700606 
L 130.246119 29.613737 
L 130.293262 27.526869 
L 130.409831 25.44 
" style="fill:none;stroke:#4e68d8;"/>
   </g>
   <g id="LineCollection_5">
    <path clip-path="url(#pc4ed9764af)" d="M 256.455 78.242658 
L 255.146971 79.698586 
L 254.294242 80.608707 
L 253.149094 81.785455 
L 252.133485 82.787871 
L 250.990595 83.872323 
L 249.972727 84.801452 
L 248.651295 85.959192 
L 247.81197 86.667631 
L 246.107483 88.046061 
L 245.651212 88.402021 
L 243.490455 90.014054 
L 243.323483 90.132929 
L 241.329697 91.503989 
L 240.236404 92.219798 
L 239.168939 92.895646 
L 237.008182 94.19487 
L 236.81185 94.306667 
L 234.847424 95.389553 
L 232.918221 96.393535 
L 232.686667 96.510311 
L 230.525909 97.535438 
L 228.400231 98.480404 
L 228.365152 98.495531 
L 226.204394 99.364634 
L 224.043636 100.171108 
L 222.892839 100.567273 
L 221.882879 100.904823 
L 219.722121 101.56619 
L 217.561364 102.166753 
L 215.610254 102.654141 
L 215.400606 102.705029 
L 213.239848 103.170423 
L 211.079091 103.576733 
L 208.918333 103.923961 
L 206.757576 104.212106 
L 204.596818 104.441167 
L 202.436061 104.611146 
L 200.275303 104.722042 
L 199.484265 104.74101 
L 198.114545 104.77295 
L 195.953788 104.76588 
L 195.120981 104.74101 
L 193.79303 104.700231 
L 191.632273 104.574795 
L 189.471515 104.390275 
L 187.310758 104.146673 
L 185.15 103.843988 
L 182.989242 103.482219 
L 180.828485 103.061368 
L 178.995073 102.654141 
L 178.667727 102.579315 
L 176.50697 102.024592 
L 174.346212 101.409065 
L 172.185455 100.732734 
L 171.700441 100.567273 
L 170.024697 99.978441 
L 167.863939 99.156553 
L 166.212197 98.480404 
L 165.703182 98.265589 
L 163.542424 97.289139 
L 161.683491 96.393535 
L 161.381667 96.243478 
L 159.220909 95.102595 
L 157.796651 94.306667 
L 157.060152 93.881509 
L 154.899394 92.565347 
L 154.360294 92.219798 
L 152.738636 91.144909 
L 151.284169 90.132929 
L 150.577879 89.62416 
L 148.486136 88.046061 
L 148.417121 87.992087 
L 146.256364 86.225869 
L 145.94364 85.959192 
L 144.095606 84.323394 
L 143.606295 83.872323 
L 141.934848 82.270651 
L 141.447898 81.785455 
L 139.774091 80.049103 
L 139.448658 79.698586 
L 137.613333 77.637035 
L 137.591595 77.611717 
L 135.876625 75.524848 
L 135.452576 74.98464 
L 134.280176 73.43798 
L 133.291818 72.069949 
L 132.789722 71.351111 
L 131.403809 69.264242 
L 131.131061 68.831128 
L 130.123089 67.177374 
L 128.970303 65.17683 
L 128.922108 65.090505 
L 127.824278 63.003636 
L 126.809545 60.948826 
L 126.794192 60.916768 
L 125.859975 58.829899 
L 124.990992 56.74303 
L 124.648788 55.854526 
L 124.200769 54.656162 
L 123.483897 52.569293 
L 122.830348 50.482424 
L 122.48803 49.272091 
L 122.247179 48.395556 
L 121.735277 46.308687 
L 121.284894 44.221818 
L 120.89603 42.134949 
L 120.568687 40.048081 
L 120.327273 38.152844 
L 120.303538 37.961212 
L 120.10489 35.874343 
L 119.966058 33.787475 
L 119.887042 31.700606 
L 119.867844 29.613737 
L 119.908461 27.526869 
L 120.008896 25.44 
" style="fill:none;stroke:#5572df;"/>
   </g>
   <g id="LineCollection_6">
    <path clip-path="url(#pc4ed9764af)" d="M 256.455 91.035012 
L 255.116713 92.219798 
L 254.294242 92.923918 
L 252.616659 94.306667 
L 252.133485 94.692208 
L 249.972727 96.349721 
L 249.913218 96.393535 
L 247.81197 97.892741 
L 246.952311 98.480404 
L 245.651212 99.343144 
L 243.720717 100.567273 
L 243.490455 100.709028 
L 241.329697 101.97844 
L 240.121674 102.654141 
L 239.168939 103.17196 
L 237.008182 104.287267 
L 236.079943 104.74101 
L 234.847424 105.326903 
L 232.686667 106.296591 
L 231.42823 106.827879 
L 230.525909 107.198614 
L 228.365152 108.030486 
L 226.204394 108.80644 
L 225.879375 108.914747 
L 224.043636 109.510514 
L 221.882879 110.157305 
L 219.722121 110.749638 
L 218.70987 111.001616 
L 217.561364 111.280242 
L 215.400606 111.751365 
L 213.239848 112.169416 
L 211.079091 112.534394 
L 208.918333 112.846299 
L 206.896547 113.088485 
L 206.757576 113.104719 
L 204.596818 113.305376 
L 202.436061 113.454277 
L 200.275303 113.551421 
L 198.114545 113.596808 
L 195.953788 113.590439 
L 193.79303 113.532314 
L 191.632273 113.422433 
L 189.471515 113.260795 
L 187.726766 113.088485 
L 187.310758 113.046355 
L 185.15 112.774461 
L 182.989242 112.449494 
L 180.828485 112.071455 
L 178.667727 111.640343 
L 176.50697 111.156158 
L 175.885429 111.001616 
L 174.346212 110.608913 
L 172.185455 110.003178 
L 170.024697 109.342986 
L 168.729911 108.914747 
L 167.863939 108.620661 
L 165.703182 107.830945 
L 163.542424 106.985312 
L 163.1651 106.827879 
L 161.381667 106.063276 
L 159.220909 105.079448 
L 158.51862 104.74101 
L 157.060152 104.018266 
L 154.899394 102.888418 
L 154.47362 102.654141 
L 152.738636 101.671672 
L 150.880661 100.567273 
L 150.577879 100.381894 
L 148.417121 98.996343 
L 147.647315 98.480404 
L 146.256364 97.519319 
L 144.694591 96.393535 
L 144.095606 95.94798 
L 141.976928 94.306667 
L 141.934848 94.272993 
L 139.774091 92.475049 
L 139.478641 92.219798 
L 137.613333 90.553319 
L 137.159519 90.132929 
L 135.452576 88.495877 
L 134.99966 88.046061 
L 133.291818 86.287822 
L 132.983204 85.959192 
L 131.131061 83.911989 
L 131.096327 83.872323 
L 129.338387 81.785455 
L 128.970303 81.330532 
L 127.690979 79.698586 
L 126.809545 78.525988 
L 126.143043 77.611717 
L 124.686951 75.524848 
L 124.648788 75.467587 
L 123.335736 73.43798 
L 122.48803 72.063185 
L 122.061462 71.351111 
L 120.872844 69.264242 
L 120.327273 68.254096 
L 119.761843 67.177374 
L 118.725763 65.090505 
L 118.166515 63.895054 
L 117.760732 63.003636 
L 116.868971 60.916768 
L 116.035415 58.829899 
L 116.005758 58.750074 
L 115.279625 56.74303 
L 114.581292 54.656162 
L 113.939636 52.569293 
L 113.845 52.231683 
L 113.367193 50.482424 
L 112.852398 48.395556 
L 112.392834 46.308687 
L 111.988498 44.221818 
L 111.684242 42.403048 
L 111.640511 42.134949 
L 111.35396 40.048081 
L 111.121262 37.961212 
L 110.942417 35.874343 
L 110.817426 33.787475 
L 110.746288 31.700606 
L 110.729003 29.613737 
L 110.765571 27.526869 
L 110.855993 25.44 
" style="fill:none;stroke:#5b7ae5;"/>
   </g>
   <g id="LineCollection_7">
    <path clip-path="url(#pc4ed9764af)" d="M 256.455 101.577785 
L 252.110122 104.74101 
L 247.81197 107.508048 
L 243.490455 109.981947 
L 239.168939 112.170797 
L 234.847424 114.095807 
L 230.525909 115.776132 
L 226.091735 117.262222 
L 221.882879 118.449743 
L 217.561364 119.470265 
L 213.239848 120.277338 
L 208.918333 120.891722 
L 204.596818 121.313417 
L 200.275303 121.540021 
L 195.953788 121.575519 
L 191.632273 121.422368 
L 187.310758 121.073307 
L 182.989242 120.531556 
L 178.667727 119.797117 
L 174.346212 118.858668 
L 170.024697 117.71239 
L 165.703182 116.347251 
L 161.381667 114.759128 
L 157.060152 112.931011 
L 152.738636 110.844109 
L 148.417121 108.477622 
L 144.095606 105.808456 
L 139.56272 102.654141 
L 135.452576 99.422916 
L 131.982944 96.393535 
L 128.970303 93.502905 
L 125.776189 90.132929 
L 122.227401 85.959192 
L 119.085756 81.785455 
L 116.287983 77.611717 
L 113.807992 73.43798 
L 111.620214 69.264242 
L 109.523485 64.669552 
L 108.033884 60.916768 
L 106.600022 56.74303 
L 105.20197 51.838852 
L 104.398788 48.395556 
L 103.615021 44.221818 
L 103.031898 40.048081 
L 102.657664 35.874343 
L 102.479315 31.700606 
L 102.49685 27.526869 
L 102.579075 25.44 
L 102.579075 25.44 
" style="fill:none;stroke:#6384eb;"/>
   </g>
   <g id="LineCollection_8">
    <path clip-path="url(#pc4ed9764af)" d="M 256.455 110.760022 
L 252.133485 113.554115 
L 247.81197 116.055611 
L 243.490455 118.29096 
L 239.168939 120.278592 
L 234.847424 122.035276 
L 230.525909 123.576299 
L 226.204394 124.900313 
L 221.882879 126.030849 
L 217.561364 126.965861 
L 213.239848 127.720154 
L 208.918333 128.282605 
L 204.596818 128.668654 
L 200.275303 128.878303 
L 195.953788 128.91155 
L 191.632273 128.768395 
L 187.310758 128.44884 
L 182.989242 127.952883 
L 178.667727 127.271544 
L 174.346212 126.404461 
L 170.024697 125.351597 
L 165.703182 124.097011 
L 161.381667 122.638732 
L 157.060152 120.968612 
L 152.738636 119.071634 
L 148.417121 116.931327 
L 144.095606 114.529587 
L 139.774091 111.846469 
L 135.452576 108.858476 
L 131.131061 105.51032 
L 127.787288 102.654141 
L 124.648788 99.731938 
L 121.369535 96.393535 
L 118.166515 92.810113 
L 115.961841 90.132929 
L 112.834643 85.959192 
L 110.024885 81.785455 
L 107.362727 77.35072 
L 105.20197 73.307276 
L 103.041212 68.722748 
L 101.528588 65.090505 
L 99.999022 60.916768 
L 98.676325 56.74303 
L 97.568756 52.569293 
L 96.558939 47.91568 
L 95.929439 44.221818 
L 95.395616 40.048081 
L 95.045206 35.874343 
L 94.878212 31.700606 
L 94.894631 27.526869 
L 94.97162 25.44 
L 94.97162 25.44 
" style="fill:none;stroke:#6a8bef;"/>
   </g>
   <g id="LineCollection_9">
    <path clip-path="url(#pc4ed9764af)" d="M 256.455 118.995494 
L 252.133485 121.542472 
L 247.81197 123.831112 
L 243.490455 125.885777 
L 239.168939 127.721302 
L 233.566336 129.783434 
L 230.525909 130.765856 
L 226.204394 132.004884 
L 221.882879 133.052271 
L 217.407408 133.957172 
L 213.239848 134.625745 
L 208.918333 135.154664 
L 204.596818 135.517698 
L 200.275303 135.714848 
L 195.953788 135.746112 
L 191.632273 135.611493 
L 187.310758 135.310988 
L 182.989242 134.844599 
L 177.210518 133.957172 
L 174.346212 133.403158 
L 170.024697 132.419568 
L 165.703182 131.25424 
L 161.027065 129.783434 
L 155.37827 127.696566 
L 152.738636 126.599037 
L 148.417121 124.629537 
L 144.095606 122.429908 
L 139.774091 119.984211 
L 135.433344 117.262222 
L 131.131061 114.261028 
L 126.809545 110.932448 
L 122.04966 106.827879 
L 117.728723 102.654141 
L 113.845 98.475066 
L 110.368273 94.306667 
L 107.217455 90.132929 
L 104.382679 85.959192 
L 101.823311 81.785455 
L 99.52104 77.611717 
L 97.459143 73.43798 
L 95.622318 69.264242 
L 93.996534 65.090505 
L 92.237424 59.818629 
L 91.353027 56.74303 
L 90.076667 51.482466 
L 89.461637 48.395556 
L 88.787328 44.221818 
L 88.285456 40.048081 
L 87.915909 35.037741 
L 87.801306 31.700606 
L 87.816441 27.526869 
L 87.887407 25.44 
L 87.887407 25.44 
" style="fill:none;stroke:#7295f4;"/>
   </g>
   <g id="LineCollection_10">
    <path clip-path="url(#pc4ed9764af)" d="M 256.455 126.529473 
L 252.133485 128.880599 
L 247.81197 131.004849 
L 243.490455 132.916023 
L 239.168939 134.626825 
L 234.847424 136.148966 
L 230.525909 137.480841 
L 226.204394 138.64014 
L 221.882879 139.627472 
L 217.561364 140.450806 
L 213.239848 141.106517 
L 208.918333 141.605677 
L 204.596818 141.948286 
L 200.275303 142.134344 
L 195.953788 142.163849 
L 191.632273 142.036804 
L 187.310758 141.753207 
L 182.989242 141.313058 
L 178.667727 140.716358 
L 174.346212 139.958239 
L 170.024697 139.031047 
L 165.703182 137.940676 
L 159.438773 136.04404 
L 157.060152 135.220858 
L 152.738636 133.585898 
L 148.417121 131.753704 
L 144.095606 129.711773 
L 139.774091 127.446521 
L 135.452576 124.943164 
L 131.131061 122.185586 
L 126.809545 119.151624 
L 121.725725 115.175354 
L 118.166515 112.104841 
L 114.759682 108.914747 
L 111.684242 105.797103 
L 108.810009 102.654141 
L 105.20197 98.349625 
L 102.135569 94.306667 
L 99.251747 90.132929 
L 96.558939 85.832976 
L 94.26676 81.785455 
L 92.129841 77.611717 
L 90.076667 73.126268 
L 87.915909 67.724638 
L 86.980757 65.090505 
L 85.64553 60.916768 
L 84.499636 56.74303 
L 83.52097 52.569293 
L 82.722043 48.395556 
L 82.085815 44.221818 
L 81.612284 40.048081 
L 81.303895 35.874343 
L 81.158498 31.700606 
L 81.172793 27.526869 
L 81.239826 25.44 
L 81.239826 25.44 
" style="fill:none;stroke:#7a9df8;"/>
   </g>
   <g id="LineCollection_11">
    <path clip-path="url(#pc4ed9764af)" d="M 256.455 133.520565 
L 251.44854 136.04404 
L 246.824682 138.130909 
L 241.625396 140.217778 
L 237.008182 141.846339 
L 232.686667 143.18993 
L 228.283679 144.391515 
L 221.882879 145.829046 
L 217.561364 146.609572 
L 211.079091 147.485169 
L 204.596818 148.027288 
L 198.114545 148.235928 
L 193.79303 148.189756 
L 187.310758 147.842599 
L 180.828485 147.161964 
L 176.250289 146.478384 
L 172.185455 145.722282 
L 166.329202 144.391515 
L 163.542424 143.653332 
L 158.999142 142.304646 
L 152.973594 140.217778 
L 150.577879 139.287989 
L 146.256364 137.470689 
L 141.934848 135.456747 
L 137.613333 133.234202 
L 133.291818 130.790103 
L 128.339086 127.696566 
L 124.648788 125.170363 
L 119.677981 121.43596 
L 116.005758 118.408718 
L 111.684242 114.519361 
L 107.362727 110.224027 
L 104.237911 106.827879 
L 100.706347 102.654141 
L 97.494407 98.480404 
L 94.398182 94.069257 
L 91.882476 90.132929 
L 89.447778 85.959192 
L 87.235125 81.785455 
L 85.231739 77.611717 
L 83.4258 73.43798 
L 81.433636 68.200793 
L 80.383431 65.090505 
L 79.122959 60.916768 
L 78.039429 56.74303 
L 77.112121 52.56634 
L 76.356462 48.395556 
L 75.754243 44.221818 
L 75.306025 40.048081 
L 74.951364 34.462725 
L 74.872989 31.700606 
L 74.886534 27.526869 
L 74.950046 25.44 
L 74.950046 25.44 
" style="fill:none;stroke:#81a4fb;"/>
   </g>
   <g id="LineCollection_12">
    <path clip-path="url(#pc4ed9764af)" d="M 256.455 140.068914 
L 251.760057 142.304646 
L 246.880079 144.391515 
L 241.329697 146.494817 
L 234.847424 148.592681 
L 228.365152 150.326764 
L 224.043636 151.289664 
L 217.561364 152.457276 
L 213.239848 153.051415 
L 206.757576 153.671656 
L 200.275303 153.975282 
L 193.79303 153.962296 
L 187.310758 153.632695 
L 180.828485 152.986482 
L 176.50697 152.373617 
L 170.024697 151.179586 
L 165.703182 150.196846 
L 159.220909 148.433586 
L 152.738636 146.304796 
L 147.718779 144.391515 
L 142.844371 142.304646 
L 138.449826 140.217778 
L 134.436282 138.130909 
L 130.730288 136.04404 
L 126.809545 133.654535 
L 122.48803 130.787258 
L 118.166515 127.665848 
L 112.97712 123.522828 
L 109.523485 120.510515 
L 105.20197 116.412983 
L 101.978365 113.088485 
L 98.246566 108.914747 
L 94.398182 104.179436 
L 91.708967 100.567273 
L 88.84664 96.393535 
L 85.755152 91.43182 
L 83.594394 87.621949 
L 81.433636 83.457477 
L 79.272879 78.84717 
L 77.022601 73.43798 
L 74.793816 67.177374 
L 72.941728 60.916768 
L 71.911524 56.74303 
L 70.648935 50.482424 
L 70.003856 46.308687 
L 69.310824 40.048081 
L 68.946712 33.787475 
L 68.911522 27.526869 
L 68.972885 25.44 
L 68.972885 25.44 
" style="fill:none;stroke:#89acfd;"/>
   </g>
   <g id="LineCollection_13">
    <path clip-path="url(#pc4ed9764af)" d="M 256.455 146.246549 
L 251.289853 148.565253 
L 245.651212 150.816617 
L 239.168939 153.052331 
L 232.686667 154.937149 
L 226.204394 156.481201 
L 221.882879 157.33066 
L 215.400606 158.339054 
L 208.918333 159.040494 
L 202.436061 159.429962 
L 195.953788 159.518058 
L 189.471515 159.304782 
L 182.989242 158.786717 
L 176.50697 157.957388 
L 170.024697 156.820265 
L 163.542424 155.354458 
L 159.220909 154.193795 
L 152.738636 152.165929 
L 148.417121 150.617889 
L 143.309968 148.565253 
L 137.613333 145.991245 
L 133.291818 143.821449 
L 128.970303 141.452854 
L 123.468968 138.130909 
L 120.284996 136.04404 
L 116.005758 133.017068 
L 111.684242 129.703059 
L 106.820357 125.609697 
L 102.308158 121.43596 
L 98.187278 117.262222 
L 94.398182 113.075786 
L 90.076667 107.805165 
L 87.760565 104.74101 
L 84.835089 100.567273 
L 81.433636 95.23354 
L 79.272879 91.515821 
L 77.112121 87.48295 
L 74.951364 83.060248 
L 72.568053 77.611717 
L 70.197632 71.351111 
L 68.193576 65.090505 
L 66.541719 58.829899 
L 65.631435 54.656162 
L 64.536867 48.395556 
L 63.986545 44.221818 
L 63.431326 37.961212 
L 63.189143 31.700606 
L 63.259998 25.44 
L 63.259998 25.44 
" style="fill:none;stroke:#90b2fe;"/>
   </g>
   <g id="LineCollection_14">
    <path clip-path="url(#pc4ed9764af)" d="M 256.455 152.110678 
L 252.133485 153.977114 
L 247.81197 155.677878 
L 243.490455 157.221075 
L 237.008182 159.246401 
L 230.525909 160.941817 
L 226.204394 161.891743 
L 219.722121 163.066028 
L 213.239848 163.931724 
L 206.757576 164.50375 
L 200.275303 164.783774 
L 193.79303 164.771797 
L 187.310758 164.467818 
L 180.828485 163.871838 
L 174.346212 162.980864 
L 167.863939 161.782246 
L 161.381667 160.274187 
L 154.899394 158.444687 
L 148.417121 156.277759 
L 144.095606 154.640151 
L 139.551351 152.73899 
L 135.016996 150.652121 
L 130.857128 148.565253 
L 126.809545 146.365989 
L 122.48803 143.818919 
L 116.915614 140.217778 
L 113.845 138.072601 
L 108.42207 133.957172 
L 105.20197 131.31045 
L 100.880455 127.490791 
L 96.558939 123.326405 
L 92.237424 118.768419 
L 87.915909 113.758263 
L 85.70794 111.001616 
L 82.591451 106.827879 
L 79.272879 101.988549 
L 77.051582 98.480404 
L 74.607473 94.306667 
L 72.358991 90.132929 
L 70.296211 85.959192 
L 68.409867 81.785455 
L 65.902231 75.524848 
L 63.753581 69.264242 
L 61.946857 63.003636 
L 60.476199 56.74303 
L 59.321611 50.482424 
L 58.480436 44.221818 
L 57.942534 37.961212 
L 57.707905 31.700606 
L 57.77655 25.44 
L 57.77655 25.44 
" style="fill:none;stroke:#98b9ff;"/>
   </g>
   <g id="LineCollection_15">
    <path clip-path="url(#pc4ed9764af)" d="M 256.455 157.707313 
L 252.133485 159.494557 
L 245.651212 161.880434 
L 239.168939 163.932569 
L 232.686667 165.666287 
L 226.204394 167.09215 
L 219.722121 168.217161 
L 213.239848 169.055132 
L 206.757576 169.607294 
L 200.275303 169.874839 
L 193.79303 169.863396 
L 187.310758 169.572963 
L 180.828485 168.997052 
L 174.346212 168.135849 
L 167.863939 166.986005 
L 161.381667 165.536555 
L 157.060152 164.397305 
L 150.577879 162.427049 
L 144.095606 160.125676 
L 139.774091 158.400038 
L 135.452576 156.513396 
L 131.131061 154.457608 
L 126.809545 152.223974 
L 122.48803 149.803185 
L 117.056092 146.478384 
L 113.845 144.358959 
L 108.07599 140.217778 
L 105.20197 137.9936 
L 100.352797 133.957172 
L 95.760406 129.783434 
L 91.541965 125.609697 
L 87.653586 121.43596 
L 83.594394 116.686596 
L 80.750106 113.088485 
L 77.112121 108.104906 
L 74.836527 104.74101 
L 72.212349 100.567273 
L 69.786581 96.393535 
L 67.549324 92.219798 
L 65.491324 88.046061 
L 63.603926 83.872323 
L 61.080724 77.611717 
L 58.905797 71.351111 
L 57.063101 65.090505 
L 55.504545 58.671606 
L 54.329697 52.569293 
L 53.415931 46.308687 
L 52.804422 40.048081 
L 52.483707 33.787475 
L 52.452711 27.526869 
L 52.506761 25.44 
L 52.506761 25.44 
" style="fill:none;stroke:#9fbfff;"/>
   </g>
   <g id="LineCollection_16">
    <path clip-path="url(#pc4ed9764af)" d="M 256.455 163.072313 
L 250.862557 165.260202 
L 245.651212 167.081187 
L 241.329697 168.430499 
L 234.847424 170.200892 
L 228.365152 171.675099 
L 221.882879 172.855081 
L 215.400606 173.757957 
L 208.918333 174.379037 
L 202.436061 174.729177 
L 195.953788 174.808377 
L 189.471515 174.616637 
L 182.989242 174.153958 
L 176.50697 173.417596 
L 170.024697 172.398332 
L 163.542424 171.097975 
L 156.798972 169.433939 
L 150.577879 167.607085 
L 146.256364 166.165547 
L 141.934848 164.581851 
L 135.452576 161.922412 
L 131.131061 159.951921 
L 125.079891 156.912727 
L 120.327273 154.279395 
L 114.369895 150.652121 
L 109.523485 147.409711 
L 105.20197 144.284321 
L 100.037396 140.217778 
L 95.18327 136.04404 
L 90.724407 131.870303 
L 86.614416 127.696566 
L 82.813896 123.522828 
L 79.272879 119.328611 
L 74.951364 113.725164 
L 71.570492 108.914747 
L 68.469091 104.103867 
L 65.175125 98.480404 
L 62.944997 94.306667 
L 60.888222 90.132929 
L 58.996689 85.959192 
L 56.455826 79.698586 
L 54.949961 75.524848 
L 52.963576 69.264242 
L 51.29084 63.003636 
L 50.349061 58.829899 
L 49.176656 52.569293 
L 48.300314 46.308687 
L 47.707542 40.048081 
L 47.396107 33.787475 
L 47.366007 27.526869 
L 47.418494 25.44 
L 47.418494 25.44 
" style="fill:none;stroke:#a7c5fe;"/>
   </g>
   <g id="LineCollection_17">
    <path clip-path="url(#pc4ed9764af)" d="M 256.455 168.223161 
L 249.972727 170.647609 
L 243.490455 172.756723 
L 237.008182 174.564152 
L 230.525909 176.082765 
L 224.043636 177.318216 
L 217.561364 178.279497 
L 211.079091 178.970941 
L 204.596818 179.399043 
L 198.114545 179.563803 
L 191.632273 179.46522 
L 185.15 179.103296 
L 178.667727 178.478029 
L 172.185455 177.58669 
L 165.703182 176.418357 
L 159.220909 174.972673 
L 152.738636 173.240307 
L 146.256364 171.208485 
L 139.774091 168.86366 
L 133.291818 166.191459 
L 128.970303 164.218831 
L 122.730183 161.086465 
L 118.166515 158.565714 
L 111.986708 154.825859 
L 107.362727 151.758491 
L 102.894584 148.565253 
L 97.530235 144.391515 
L 92.611772 140.217778 
L 90.076667 137.921928 
L 85.755152 133.756464 
L 81.433636 129.238898 
L 77.112121 124.322613 
L 74.740784 121.43596 
L 70.629848 116.048251 
L 67.110504 111.001616 
L 64.147576 106.379632 
L 60.753195 100.567273 
L 57.665303 94.690119 
L 55.495593 90.132929 
L 52.825069 83.872323 
L 50.486696 77.611717 
L 48.466057 71.351111 
L 46.74956 65.090505 
L 45.333269 58.829899 
L 44.201423 52.569293 
L 43.351895 46.308687 
L 42.775792 40.048081 
L 42.54 35.767022 
L 42.54 35.767022 
" style="fill:none;stroke:#afcafc;"/>
   </g>
   <g id="LineCollection_18">
    <path clip-path="url(#pc4ed9764af)" d="M 256.455 173.193143 
L 252.133485 174.787249 
L 245.651212 176.925892 
L 239.168939 178.770481 
L 232.686667 180.333214 
L 226.204394 181.621066 
L 219.722121 182.639751 
L 213.239848 183.397721 
L 206.757576 183.899532 
L 200.275303 184.143796 
L 193.79303 184.13343 
L 187.310758 183.868011 
L 180.828485 183.345186 
L 174.346212 182.566202 
L 167.863939 181.525196 
L 161.381667 180.216039 
L 154.899394 178.63006 
L 148.417121 176.761564 
L 141.934848 174.598323 
L 135.452576 172.127396 
L 129.191732 169.433939 
L 124.648788 167.279515 
L 118.166515 163.892248 
L 113.27983 161.086465 
L 107.362727 157.372357 
L 103.041212 154.424136 
L 97.924387 150.652121 
L 92.720139 146.478384 
L 90.076667 144.216608 
L 85.67875 140.217778 
L 81.424102 136.04404 
L 77.112121 131.465835 
L 72.790606 126.481524 
L 68.770703 121.43596 
L 65.69796 117.262222 
L 61.986818 111.796798 
L 58.899332 106.827879 
L 55.504545 100.823779 
L 53.223477 96.393535 
L 50.308323 90.132929 
L 47.727592 83.872323 
L 45.466978 77.611717 
L 43.512977 71.351111 
L 42.54 67.817026 
L 42.54 67.817026 
" style="fill:none;stroke:#b6cefa;"/>
   </g>
   <g id="LineCollection_19">
    <path clip-path="url(#pc4ed9764af)" d="M 256.455 177.996075 
L 249.972727 180.262051 
L 243.490455 182.238521 
L 236.556846 184.04202 
L 230.525909 185.35884 
L 224.043636 186.522502 
L 217.561364 187.426584 
L 211.079091 188.081308 
L 204.596818 188.483126 
L 198.114545 188.637091 
L 191.632273 188.544967 
L 185.15 188.206634 
L 178.667727 187.614573 
L 172.185455 186.773154 
L 165.703182 185.676371 
L 159.220909 184.318207 
L 152.738636 182.689127 
L 146.256364 180.78415 
L 139.774091 178.591672 
L 133.291818 176.099426 
L 127.509437 173.607677 
L 122.48803 171.231585 
L 116.005758 167.848725 
L 111.467887 165.260202 
L 105.20197 161.359687 
L 100.880455 158.433479 
L 95.927952 154.825859 
L 90.64701 150.652121 
L 87.915909 148.351516 
L 83.487524 144.391515 
L 79.154371 140.217778 
L 74.951364 135.854064 
L 70.629848 130.998555 
L 66.308333 125.723754 
L 63.067579 121.43596 
L 59.826061 116.83023 
L 56.063186 111.001616 
L 53.343788 106.407414 
L 50.183207 100.567273 
L 47.135392 94.306667 
L 44.700758 88.715018 
L 42.795278 83.872323 
L 42.54 83.179802 
L 42.54 83.179802 
" style="fill:none;stroke:#bed2f6;"/>
   </g>
   <g id="LineCollection_20">
    <path clip-path="url(#pc4ed9764af)" d="M 256.455 182.645179 
L 249.972727 184.843781 
L 243.490455 186.762353 
L 237.008182 188.411901 
L 230.525909 189.796317 
L 224.043636 190.926468 
L 217.561364 191.807165 
L 211.079091 192.444246 
L 204.596818 192.834086 
L 198.114545 192.98412 
L 191.632273 192.894348 
L 185.15 192.564771 
L 178.667727 191.990291 
L 172.185455 191.170637 
L 165.703182 190.105527 
L 159.220909 188.782953 
L 152.738636 187.200994 
L 146.256364 185.35183 
L 139.774091 183.22453 
L 133.291818 180.807554 
L 126.809545 178.08872 
L 121.652757 175.694545 
L 116.005758 172.829668 
L 109.911125 169.433939 
L 105.20197 166.576384 
L 100.005455 163.173333 
L 94.398182 159.185287 
L 90.076667 155.861706 
L 85.755152 152.310174 
L 81.433636 148.506407 
L 77.081026 144.391515 
L 72.790606 140.026465 
L 68.469091 135.280942 
L 64.147576 130.142587 
L 60.623233 125.609697 
L 57.591287 121.43596 
L 53.410857 115.175354 
L 50.851051 111.001616 
L 47.324682 104.74101 
L 44.700758 99.609174 
L 42.54 95.009058 
L 42.54 95.009058 
" style="fill:none;stroke:#c4d5f3;"/>
   </g>
   <g id="LineCollection_21">
    <path clip-path="url(#pc4ed9764af)" d="M 256.455 187.158213 
L 249.972727 189.294755 
L 243.490455 191.160115 
L 237.008182 192.76468 
L 230.525909 194.113743 
L 224.043636 195.213588 
L 217.561364 196.072078 
L 211.079091 196.692161 
L 204.596818 197.072294 
L 198.114545 197.218592 
L 191.632273 197.131056 
L 185.15 196.809685 
L 178.667727 196.250587 
L 172.185455 195.4516 
L 165.703182 194.415057 
L 159.220909 193.126257 
L 152.738636 191.58741 
L 146.256364 189.78949 
L 139.774091 187.72218 
L 133.291818 185.374605 
L 126.809545 182.735297 
L 120.327273 179.791088 
L 113.845 176.514637 
L 108.592968 173.607677 
L 103.041212 170.270354 
L 98.529635 167.347071 
L 92.581822 163.173333 
L 87.915909 159.626638 
L 83.594394 156.110114 
L 79.272879 152.352406 
L 74.951364 148.327819 
L 70.629848 144.006877 
L 66.308333 139.355593 
L 61.986818 134.33458 
L 58.356216 129.783434 
L 55.242626 125.609697 
L 51.18303 119.721558 
L 48.295461 115.175354 
L 44.64098 108.914747 
L 42.54 104.998788 
L 42.54 104.998788 
" style="fill:none;stroke:#cbd8ee;"/>
   </g>
   <g id="LineCollection_22">
    <path clip-path="url(#pc4ed9764af)" d="M 256.455 191.545736 
L 249.972727 193.624989 
L 243.490455 195.441343 
L 237.008182 197.004616 
L 230.525909 198.320088 
L 224.043636 199.392482 
L 217.561364 200.229858 
L 211.079091 200.83507 
L 204.596818 201.205967 
L 198.114545 201.348711 
L 191.632273 201.263302 
L 185.15 200.949739 
L 178.667727 200.403977 
L 172.185455 199.62464 
L 165.703182 198.613899 
L 159.220909 197.35719 
L 152.738636 195.857864 
L 146.256364 194.107091 
L 139.774091 192.095115 
L 133.291818 189.811668 
L 126.809545 187.245938 
L 120.327273 184.38653 
L 115.306112 181.955152 
L 109.523485 178.911353 
L 103.91464 175.694545 
L 98.719697 172.466621 
L 94.171912 169.433939 
L 88.376654 165.260202 
L 83.594394 161.538237 
L 79.272879 157.937215 
L 74.951364 154.093377 
L 70.629848 149.981306 
L 66.308333 145.571911 
L 61.986818 140.831734 
L 57.932088 136.04404 
L 54.635259 131.870303 
L 51.18303 127.200878 
L 47.245561 121.43596 
L 44.602532 117.262222 
L 42.54 113.800242 
L 42.54 113.800242 
" style="fill:none;stroke:#d1dae9;"/>
   </g>
   <g id="LineCollection_23">
    <path clip-path="url(#pc4ed9764af)" d="M 256.455 195.817241 
L 249.972727 197.843504 
L 243.490455 199.614635 
L 237.008182 201.139934 
L 230.525909 202.423446 
L 224.043636 203.470943 
L 217.561364 204.28822 
L 210.629523 204.910707 
L 204.596818 205.242545 
L 198.114545 205.381904 
L 191.632273 205.29852 
L 185.15 204.992394 
L 178.667727 204.45816 
L 172.185455 203.697529 
L 165.703182 202.710119 
L 159.220909 201.483942 
L 152.738636 200.020913 
L 146.256364 198.313601 
L 139.774091 196.352768 
L 133.291818 194.128703 
L 126.809545 191.631192 
L 120.327273 188.849486 
L 113.845 185.767469 
L 107.362727 182.365043 
L 102.968923 179.868283 
L 96.558939 175.924505 
L 92.237424 173.052483 
L 87.145843 169.433939 
L 81.433636 165.049064 
L 76.654422 161.086465 
L 71.962186 156.912727 
L 67.582125 152.73899 
L 63.484089 148.565253 
L 59.641689 144.391515 
L 55.504545 139.574309 
L 51.037632 133.957172 
L 46.48248 127.696566 
L 42.54 121.766386 
L 42.54 121.766386 
" style="fill:none;stroke:#d7dce3;"/>
   </g>
   <g id="LineCollection_24">
    <path clip-path="url(#pc4ed9764af)" d="M 256.455 199.981289 
L 249.972727 201.958441 
L 243.490455 203.687765 
L 237.008182 205.178078 
L 230.525909 206.431147 
L 224.043636 207.456036 
L 217.561364 208.254155 
L 211.079091 208.832143 
L 204.596818 209.188776 
L 198.114545 209.324906 
L 191.632273 209.243454 
L 185.15 208.94278 
L 178.667727 208.420111 
L 172.185455 207.67731 
L 165.703182 206.71102 
L 159.220909 205.513926 
L 152.738636 204.08429 
L 146.256364 202.417117 
L 139.774091 200.503645 
L 133.291818 198.334675 
L 126.809545 195.900542 
L 120.327273 193.191091 
L 113.845 190.194237 
L 107.362727 186.885515 
L 102.238887 184.04202 
L 96.558939 180.63747 
L 92.117286 177.781414 
L 85.755152 173.363439 
L 80.539367 169.433939 
L 74.951364 164.892689 
L 70.590801 161.086465 
L 66.115168 156.912727 
L 61.923147 152.73899 
L 57.665303 148.204202 
L 53.343788 143.26403 
L 49.022273 137.942577 
L 44.485504 131.870303 
L 42.54 129.090317 
L 42.54 129.090317 
" style="fill:none;stroke:#dddcdc;"/>
   </g>
   <g id="LineCollection_25">
    <path clip-path="url(#pc4ed9764af)" d="M 256.455 204.045617 
L 249.972727 205.977171 
L 243.490455 207.667775 
L 237.008182 209.125803 
L 230.525909 210.349838 
L 224.043636 211.354174 
L 217.561364 212.134013 
L 211.079091 212.698763 
L 204.596818 213.048423 
L 198.114545 213.182993 
L 191.632273 213.102474 
L 185.15 212.806866 
L 178.667727 212.296168 
L 172.185455 211.570381 
L 165.703182 210.623227 
L 159.220909 209.45387 
L 152.738636 208.055005 
L 146.256364 206.424968 
L 139.774091 204.555435 
L 133.291818 202.437679 
L 126.809545 200.062541 
L 120.327273 197.42041 
L 113.792892 194.476364 
L 107.362727 191.280091 
L 100.880455 187.749406 
L 94.398182 183.883794 
L 87.915909 179.65508 
L 82.329032 175.694545 
L 76.866406 171.520808 
L 71.795119 167.347071 
L 67.061227 163.173333 
L 62.632142 158.999596 
L 58.479343 154.825859 
L 54.577761 150.652121 
L 50.90527 146.478384 
L 46.861515 141.567011 
L 42.54 135.914222 
L 42.54 135.914222 
" style="fill:none;stroke:#e2dad5;"/>
   </g>
   <g id="LineCollection_26">
    <path clip-path="url(#pc4ed9764af)" d="M 256.455 208.017238 
L 249.972727 209.906381 
L 243.490455 211.561063 
L 237.008182 212.986171 
L 230.525909 214.185568 
L 224.043636 215.169231 
L 217.561364 215.933577 
L 211.079091 216.485681 
L 204.596818 216.827512 
L 198.114545 216.959069 
L 191.632273 216.880353 
L 185.15 216.591364 
L 178.667727 216.092101 
L 171.899265 215.345051 
L 165.703182 214.452766 
L 158.960001 213.258182 
L 152.738636 211.939425 
L 146.256364 210.343803 
L 139.774091 208.515106 
L 133.291818 206.445042 
L 126.809545 204.124919 
L 120.327273 201.545626 
L 113.742772 198.650101 
L 107.362727 195.558295 
L 100.880455 192.121636 
L 94.15804 188.215758 
L 87.593799 184.04202 
L 81.433636 179.777395 
L 75.98446 175.694545 
L 70.629848 171.383248 
L 65.956301 167.347071 
L 61.427005 163.173333 
L 57.175908 158.999596 
L 53.178143 154.825859 
L 49.022273 150.198548 
L 44.176442 144.391515 
L 42.54 142.322172 
L 42.54 142.322172 
" style="fill:none;stroke:#e8d6cc;"/>
   </g>
   <g id="LineCollection_27">
    <path clip-path="url(#pc4ed9764af)" d="M 256.455 211.902523 
L 249.972727 213.752152 
L 243.490455 215.373457 
L 237.008182 216.766654 
L 230.525909 217.943847 
L 224.043636 218.905729 
L 217.561364 219.658123 
L 211.079091 220.198135 
L 204.596818 220.53248 
L 198.114545 220.661156 
L 191.632273 220.584164 
L 185.15 220.301503 
L 178.667727 219.813175 
L 172.185455 219.114754 
L 165.703182 218.205128 
L 159.220909 217.083702 
L 152.738636 215.743346 
L 146.256364 214.179669 
L 139.774091 212.388987 
L 133.291818 210.363411 
L 126.809545 208.094682 
L 120.327273 205.574147 
L 113.845 202.792364 
L 107.362727 199.728711 
L 100.880455 196.378621 
L 93.84789 192.389495 
L 87.915909 188.722389 
L 83.594394 185.86504 
L 77.112121 181.259042 
L 72.557442 177.781414 
L 67.438801 173.607677 
L 61.986818 168.834211 
L 57.665303 164.784446 
L 53.343788 160.474752 
L 49.022273 155.879274 
L 44.432048 150.652121 
L 42.54 148.381569 
L 42.54 148.381569 
" style="fill:none;stroke:#ecd3c5;"/>
   </g>
   <g id="LineCollection_28">
    <path clip-path="url(#pc4ed9764af)" d="M 256.455 215.70727 
L 249.972727 217.520028 
L 243.490455 219.105746 
L 237.008182 220.472954 
L 230.525909 221.629708 
L 224.043636 222.570752 
L 217.561364 223.308356 
L 211.079091 223.840912 
L 204.596818 224.168091 
L 198.114545 224.294009 
L 191.632273 224.218667 
L 185.15 223.942065 
L 178.667727 223.461729 
L 172.185455 222.775249 
L 165.703182 221.885329 
L 159.220909 220.783059 
L 152.738636 219.47154 
L 146.256364 217.938079 
L 139.774091 216.182842 
L 133.291818 214.198834 
L 126.809545 211.978193 
L 120.327273 209.512695 
L 113.845 206.791314 
L 107.362727 203.799102 
L 100.880455 200.528862 
L 94.398182 196.957198 
L 90.076667 194.402773 
L 83.594394 190.289252 
L 77.112121 185.813943 
L 71.928897 181.955152 
L 66.308333 177.468394 
L 61.786635 173.607677 
L 57.192698 169.433939 
L 52.872522 165.260202 
L 48.802346 161.086465 
L 44.700758 156.616284 
L 42.54 154.144408 
L 42.54 154.144408 
" style="fill:none;stroke:#f0cdbb;"/>
   </g>
   <g id="LineCollection_29">
    <path clip-path="url(#pc4ed9764af)" d="M 256.455 219.435864 
L 249.972727 221.210794 
L 243.490455 222.766436 
L 237.008182 224.109841 
L 230.525909 225.242062 
L 224.043636 226.168849 
L 217.561364 226.890812 
L 211.079091 227.413649 
L 204.596818 227.737359 
L 198.114545 227.861942 
L 191.632273 227.787399 
L 185.15 227.513729 
L 178.667727 227.040933 
L 172.185455 226.36901 
L 165.703182 225.494944 
L 159.220909 224.4133 
L 152.738636 223.124306 
L 146.183419 221.605657 
L 138.438414 219.518788 
L 133.291818 217.956819 
L 126.809545 215.781246 
L 120.050826 213.258182 
L 113.845 210.701661 
L 107.362727 207.776502 
L 100.880455 204.580047 
L 93.766397 200.73697 
L 87.915909 197.299642 
L 83.41468 194.476364 
L 77.112121 190.239493 
L 70.629848 185.510133 
L 66.083512 181.955152 
L 61.070954 177.781414 
L 55.504545 172.814368 
L 51.18303 168.692095 
L 46.861515 164.313465 
L 42.54 159.653798 
L 42.54 159.653798 
" style="fill:none;stroke:#f2c9b4;"/>
   </g>
   <g id="LineCollection_30">
    <path clip-path="url(#pc4ed9764af)" d="M 256.455 223.089403 
L 249.972727 224.831868 
L 243.490455 226.360384 
L 235.989151 227.866263 
L 230.525909 228.790149 
L 224.043636 229.701576 
L 217.561364 230.41116 
L 211.079091 230.923141 
L 204.596818 231.240129 
L 198.114545 231.362126 
L 191.632273 231.28913 
L 185.15 231.021143 
L 178.667727 230.558163 
L 172.185455 229.899637 
L 165.703182 229.037725 
L 158.608178 227.866263 
L 152.738636 226.710665 
L 146.256364 225.236479 
L 139.774091 223.549521 
L 133.175223 221.605657 
L 126.809545 219.50902 
L 120.327273 217.140552 
L 113.845 214.529424 
L 107.362727 211.6673 
L 100.880455 208.539141 
L 93.995055 204.910707 
L 87.915909 201.427792 
L 83.377769 198.650101 
L 77.012075 194.476364 
L 70.629848 189.943645 
L 65.627221 186.128889 
L 59.826061 181.393618 
L 55.504545 177.631126 
L 51.140795 173.607677 
L 46.861515 169.425361 
L 42.54 164.939753 
L 42.54 164.939753 
" style="fill:none;stroke:#f5c2aa;"/>
   </g>
   <g id="LineCollection_31">
    <path clip-path="url(#pc4ed9764af)" d="M 162.565071 232.04 
L 161.381667 231.848685 
L 159.220909 231.477701 
L 157.060152 231.085051 
L 154.899394 230.670735 
L 152.738636 230.234753 
L 151.408973 229.953131 
L 150.577879 229.775259 
L 148.417121 229.290918 
L 146.256364 228.784683 
L 144.095606 228.256555 
L 142.562341 227.866263 
L 141.934848 227.704841 
L 139.774091 227.126864 
L 137.613333 226.526761 
L 135.452576 225.904533 
L 135.032936 225.779394 
L 133.291818 225.254617 
L 131.131061 224.580997 
L 128.970303 223.885015 
L 128.391301 223.692525 
L 126.809545 223.160974 
L 124.648788 222.412244 
L 122.48803 221.64091 
L 122.392085 221.605657 
L 120.327273 220.838663 
L 118.166515 220.013179 
L 116.907277 219.518788 
L 116.005758 219.160923 
L 113.845 218.280089 
L 111.817554 217.431919 
L 111.684242 217.375525 
L 109.523485 216.438102 
L 107.362727 215.477315 
L 107.072334 215.345051 
L 105.20197 214.483519 
L 103.041212 213.464597 
L 102.613402 213.258182 
L 100.880455 212.412472 
L 98.719697 211.334084 
L 98.400626 211.171313 
L 96.558939 210.220913 
L 94.403424 209.084444 
L 94.398182 209.081648 
L 92.237424 207.904604 
L 90.606243 206.997576 
L 90.076667 206.699609 
L 87.915909 205.459109 
L 86.979365 204.910707 
L 85.755152 204.185255 
L 83.594394 202.879774 
L 83.503556 202.823838 
L 81.433636 201.533763 
L 80.178807 200.73697 
L 79.272879 200.154649 
L 77.112121 198.740074 
L 76.977137 198.650101 
L 74.951364 197.283026 
L 73.903423 196.563232 
L 72.790606 195.789241 
L 70.935475 194.476364 
L 70.629848 194.25731 
L 68.469091 192.681971 
L 68.074599 192.389495 
L 66.308333 191.063051 
L 65.312333 190.302626 
L 64.147576 189.401707 
L 62.638996 188.215758 
L 61.986818 187.69625 
L 60.050362 186.128889 
L 59.826061 185.944898 
L 57.665303 184.144378 
L 57.544353 184.04202 
L 55.504545 182.292235 
L 55.117535 181.955152 
L 53.343788 180.388872 
L 52.763026 179.868283 
L 51.18303 178.432134 
L 50.477642 177.781414 
L 49.022273 176.419745 
L 48.258384 175.694545 
L 46.861515 174.349295 
L 46.102422 173.607677 
L 44.700758 172.218237 
L 44.007085 171.520808 
L 42.54 170.023867 
" style="fill:none;stroke:#f6bda2;"/>
    <path clip-path="url(#pc4ed9764af)" d="M 256.455 226.676502 
L 254.294242 227.271159 
L 252.133485 227.843692 
L 252.044877 227.866263 
L 249.972727 228.388561 
L 247.81197 228.911301 
L 245.651212 229.412148 
L 243.490455 229.891101 
L 243.197207 229.953131 
L 241.329697 230.344061 
L 239.168939 230.77471 
L 237.008182 231.183694 
L 234.847424 231.571012 
L 232.686667 231.936664 
L 232.03756 232.04 
" style="fill:none;stroke:#f6bda2;"/>
   </g>
   <g id="LineCollection_32">
    <path clip-path="url(#pc4ed9764af)" d="M 145.28381 232.04 
L 144.095606 231.752597 
L 141.934848 231.208286 
L 139.774091 230.64231 
L 137.613333 230.054668 
L 137.253259 229.953131 
L 135.452576 229.440033 
L 133.291818 228.80244 
L 131.131061 228.142954 
L 130.25363 227.866263 
L 128.970303 227.457284 
L 126.809545 226.746556 
L 124.648788 226.013702 
L 123.978195 225.779394 
L 122.48803 225.253144 
L 120.327273 224.467713 
L 118.253733 223.692525 
L 118.166515 223.659566 
L 116.005758 222.820418 
L 113.845 221.958666 
L 112.982489 221.605657 
L 111.684242 221.06849 
L 109.523485 220.151598 
L 108.068464 219.518788 
L 107.362727 219.208454 
L 105.20197 218.2352 
L 103.459933 217.431919 
L 103.041212 217.236679 
L 100.880455 216.205801 
L 99.116274 215.345051 
L 98.719697 215.149368 
L 96.558939 214.059562 
L 95.003763 213.258182 
L 94.398182 212.942553 
L 92.237424 211.792469 
L 91.094165 211.171313 
L 90.076667 210.612081 
L 87.915909 209.400322 
L 87.363668 209.084444 
L 85.755152 208.153603 
L 83.795833 206.997576 
L 83.594394 206.877314 
L 81.433636 205.562566 
L 80.382116 204.910707 
L 79.272879 204.214816 
L 77.112121 202.834196 
L 77.0962 202.823838 
L 74.951364 201.41158 
L 73.944749 200.73697 
L 72.790606 199.953977 
L 70.90174 198.650101 
L 70.629848 198.460079 
L 68.469091 196.923966 
L 67.970108 196.563232 
L 66.308333 195.346727 
L 65.138849 194.476364 
L 64.147576 193.72921 
L 62.398741 192.389495 
L 61.986818 192.069855 
L 59.826061 190.366184 
L 59.746708 190.302626 
L 57.665303 188.613679 
L 57.182447 188.215758 
L 55.504545 186.81464 
L 54.695746 186.128889 
L 53.343788 184.967189 
L 52.28314 184.04202 
L 51.18303 183.069344 
L 49.941363 181.955152 
L 49.022273 181.119015 
L 47.667344 179.868283 
L 46.861515 179.113994 
L 45.458183 177.781414 
L 44.700758 177.051948 
L 43.311144 175.694545 
L 42.54 174.93041 
" style="fill:none;stroke:#f7b599;"/>
    <path clip-path="url(#pc4ed9764af)" d="M 256.455 230.2013 
L 254.294242 230.78361 
L 252.133485 231.344254 
L 249.972727 231.883232 
L 249.317926 232.04 
" style="fill:none;stroke:#f7b599;"/>
   </g>
   <g id="LineCollection_33">
    <path clip-path="url(#pc4ed9764af)" d="M 132.454801 232.04 
L 131.131061 231.640175 
L 128.970303 230.96587 
L 126.809545 230.269899 
L 125.855779 229.953131 
L 124.648788 229.548057 
L 122.48803 228.800998 
L 120.327273 228.032047 
L 119.874315 227.866263 
L 118.166515 227.234575 
L 116.005758 226.413221 
L 114.382072 225.779394 
L 113.845 225.567495 
L 111.684242 224.692614 
L 109.523485 223.795372 
L 109.281831 223.692525 
L 107.362727 222.86692 
L 105.20197 221.91475 
L 104.516812 221.605657 
L 103.041212 220.932685 
L 100.880455 219.924384 
L 100.030537 219.518788 
L 98.719697 218.886305 
L 96.558939 217.820631 
L 95.787515 217.431919 
L 94.398182 216.724013 
L 92.237424 215.599681 
L 91.758035 215.345051 
L 90.076667 214.441872 
L 87.917056 213.258182 
L 87.915909 213.257546 
L 85.755152 212.035765 
L 84.255673 211.171313 
L 83.594394 210.785668 
L 81.433636 209.501382 
L 80.745117 209.084444 
L 79.272879 208.182471 
L 77.37393 206.997576 
L 77.112121 206.832277 
L 74.951364 205.443281 
L 74.137381 204.910707 
L 72.790606 204.018961 
L 71.016706 202.823838 
L 70.629848 202.560036 
L 68.469091 201.061244 
L 68.009372 200.73697 
L 66.308333 199.522346 
L 65.106769 198.650101 
L 64.147576 197.94513 
L 62.297614 196.563232 
L 61.986818 196.328145 
L 59.826061 194.66743 
L 59.581341 194.476364 
L 57.665303 192.961306 
L 56.95326 192.389495 
L 55.504545 191.21105 
L 54.404669 190.302626 
L 53.343788 189.414929 
L 51.932017 188.215758 
L 51.18303 187.571115 
L 49.531958 186.128889 
L 49.022273 185.677684 
L 47.201343 184.04202 
L 46.861515 183.732604 
L 44.937199 181.955152 
L 44.700758 181.733735 
L 42.736724 179.868283 
L 42.54 179.678813 
" style="fill:none;stroke:#f7ad90;"/>
   </g>
   <g id="LineCollection_34">
    <path clip-path="url(#pc4ed9764af)" d="M 121.77422 232.04 
L 120.327273 231.530419 
L 118.166515 230.747785 
L 116.031672 229.953131 
L 116.005758 229.943384 
L 113.845 229.108753 
L 111.684242 228.252229 
L 110.734829 227.866263 
L 109.523485 227.368592 
L 107.362727 226.458736 
L 105.7877 225.779394 
L 105.20197 225.524049 
L 103.041212 224.559719 
L 101.142142 223.692525 
L 100.880455 223.571733 
L 98.719697 222.55175 
L 96.758925 221.605657 
L 96.558939 221.508105 
L 94.398182 220.431248 
L 92.60534 219.518788 
L 92.237424 219.329465 
L 90.076667 218.194476 
L 88.653899 217.431919 
L 87.915909 217.031953 
L 85.755152 215.837529 
L 84.881333 215.345051 
L 83.594394 214.611529 
L 81.433636 213.356325 
L 81.267811 213.258182 
L 79.272879 212.063971 
L 77.808743 211.171313 
L 77.112121 210.741674 
L 74.951364 209.384861 
L 74.481318 209.084444 
L 72.790606 207.991207 
L 71.280375 206.997576 
L 70.629848 206.564497 
L 68.469091 205.101254 
L 68.192391 204.910707 
L 66.308333 203.597691 
L 65.216093 202.823838 
L 64.147576 202.057598 
L 62.335614 200.73697 
L 61.986818 200.479628 
L 59.826061 198.859756 
L 59.550761 198.650101 
L 57.665303 197.196346 
L 56.856791 196.563232 
L 55.504545 195.490994 
L 54.244304 194.476364 
L 53.343788 193.742094 
L 51.709659 192.389495 
L 51.18303 191.947957 
L 49.249427 190.302626 
L 49.022273 190.106805 
L 46.861515 188.216751 
L 46.860396 188.215758 
L 44.700758 186.27391 
L 44.541739 186.128889 
L 42.54 184.278788 
" style="fill:none;stroke:#f7a688;"/>
   </g>
   <g id="LineCollection_35">
    <path clip-path="url(#pc4ed9764af)" d="M 112.427795 232.04 
L 111.684242 231.748316 
L 109.523485 230.879019 
L 107.362727 229.988056 
L 107.280039 229.953131 
L 105.20197 229.066219 
L 103.041212 228.122123 
L 102.468895 227.866263 
L 100.880455 227.148605 
L 98.719697 226.150249 
L 97.934451 225.779394 
L 96.558939 225.122807 
L 94.398182 224.069028 
L 93.64221 223.692525 
L 92.237424 222.985309 
L 90.076667 221.874908 
L 89.563178 221.605657 
L 87.915909 220.732443 
L 85.755152 219.564178 
L 85.672812 219.518788 
L 83.594394 218.360375 
L 81.959921 217.431919 
L 81.433636 217.129619 
L 79.272879 215.865104 
L 78.400352 215.345051 
L 77.112121 214.568531 
L 74.97701 213.258182 
L 74.951364 213.242262 
L 72.790606 211.877088 
L 71.692745 211.171313 
L 70.629848 210.480099 
L 68.520014 209.084444 
L 68.469091 209.050364 
L 66.308333 207.579812 
L 65.46682 206.997576 
L 64.147576 206.073976 
L 62.512741 204.910707 
L 61.986818 204.531994 
L 59.826061 202.951005 
L 59.65497 202.823838 
L 57.665303 201.327006 
L 56.89304 200.73697 
L 55.504545 199.663065 
L 54.21465 198.650101 
L 53.343788 197.957693 
L 51.616064 196.563232 
L 51.18303 196.209321 
L 49.09377 194.476364 
L 49.022273 194.416303 
L 46.861515 192.574513 
L 46.64755 192.389495 
L 44.700758 190.684307 
L 44.271125 190.302626 
L 42.54 188.744567 
" style="fill:none;stroke:#f59d7e;"/>
   </g>
   <g id="LineCollection_36">
    <path clip-path="url(#pc4ed9764af)" d="M 104.01357 232.04 
L 103.041212 231.61956 
L 100.880455 230.6636 
L 99.310171 229.953131 
L 98.719697 229.683171 
L 96.558939 228.673396 
L 94.868455 227.866263 
L 94.398182 227.639347 
L 92.237424 226.574616 
L 90.65646 225.779394 
L 90.076667 225.484634 
L 87.915909 224.363769 
L 86.647226 223.692525 
L 85.755152 223.215428 
L 83.594394 222.037213 
L 82.81785 221.605657 
L 81.433636 220.82797 
L 79.272879 219.591149 
L 79.148756 219.518788 
L 77.112121 218.31833 
L 75.635078 217.431919 
L 74.951364 217.017011 
L 72.790606 215.682405 
L 72.253819 215.345051 
L 70.629848 214.312879 
L 68.998504 213.258182 
L 68.469091 212.911986 
L 66.308333 211.475115 
L 65.858951 211.171313 
L 64.147576 210.000943 
L 62.828997 209.084444 
L 61.986818 208.492215 
L 59.895043 206.997576 
L 59.826061 206.947701 
L 57.665303 205.360713 
L 57.062008 204.910707 
L 55.504545 203.735032 
L 54.315706 202.823838 
L 53.343788 202.069856 
L 51.651234 200.73697 
L 51.18303 200.363726 
L 49.064986 198.650101 
L 49.022273 198.615113 
L 46.861515 196.819184 
L 46.55796 196.563232 
L 44.700758 194.977532 
L 44.122033 194.476364 
L 42.54 193.088851 
" style="fill:none;stroke:#f39577;"/>
   </g>
   <g id="LineCollection_37">
    <path clip-path="url(#pc4ed9764af)" d="M 96.294157 232.04 
L 94.398182 231.144152 
L 92.237424 230.101529 
L 91.936143 229.953131 
L 90.076667 229.027631 
L 87.915909 227.930283 
L 87.792313 227.866263 
L 85.755152 226.799855 
L 83.843161 225.779394 
L 83.594394 225.6452 
L 81.433636 224.457248 
L 80.068387 223.692525 
L 79.272879 223.242107 
L 77.112121 221.996079 
L 76.447148 221.605657 
L 74.951364 220.717829 
L 72.966622 219.518788 
L 72.790606 219.411274 
L 70.629848 218.068339 
L 69.623181 217.431919 
L 68.469091 216.69413 
L 66.393886 215.345051 
L 66.308333 215.288803 
L 64.147576 213.844573 
L 63.284379 213.258182 
L 61.986818 212.36662 
L 60.27475 211.171313 
L 59.826061 210.854424 
L 57.665303 209.304206 
L 57.363695 209.084444 
L 55.504545 207.713934 
L 54.547475 206.997576 
L 53.343788 206.085943 
L 51.815167 204.910707 
L 51.18303 204.418874 
L 49.163076 202.823838 
L 49.022273 202.711304 
L 46.861515 200.959008 
L 46.591625 200.73697 
L 44.700758 199.162231 
L 44.094463 198.650101 
L 42.54 197.320715 
" style="fill:none;stroke:#f08b6e;"/>
   </g>
   <g id="LineCollection_38">
    <path clip-path="url(#pc4ed9764af)" d="M 89.130217 232.04 
L 87.915909 231.429712 
L 85.755152 230.322092 
L 85.049189 229.953131 
L 83.594394 229.184829 
L 81.433636 228.021802 
L 81.150003 227.866263 
L 79.272879 226.825968 
L 77.418681 225.779394 
L 77.112121 225.604506 
L 74.951364 224.349467 
L 73.840129 223.692525 
L 72.790606 223.065346 
L 70.629848 221.751503 
L 70.394044 221.605657 
L 68.469091 220.402019 
L 67.080051 219.518788 
L 66.308333 219.022653 
L 64.147576 217.610403 
L 63.87889 217.431919 
L 61.986818 216.160976 
L 60.79138 215.345051 
L 59.826061 214.678728 
L 57.800171 213.258182 
L 57.665303 213.16253 
L 55.504545 211.606166 
L 54.909954 211.171313 
L 53.343788 210.012633 
L 52.107864 209.084444 
L 51.18303 208.381746 
L 49.38804 206.997576 
L 49.022273 206.712177 
L 46.861515 205.001443 
L 46.748545 204.910707 
L 44.700758 203.24622 
L 44.188416 202.823838 
L 42.54 201.448354 
" style="fill:none;stroke:#ed8366;"/>
   </g>
   <g id="LineCollection_39">
    <path clip-path="url(#pc4ed9764af)" d="M 82.409339 232.04 
L 81.433636 231.520281 
L 79.272879 230.347662 
L 78.559073 229.953131 
L 77.112121 229.144988 
L 74.951364 227.916282 
L 74.864941 227.866263 
L 72.790606 226.652955 
L 71.322816 225.779394 
L 70.629848 225.362552 
L 68.469091 224.040426 
L 67.909971 223.692525 
L 66.308333 222.685143 
L 64.620135 221.605657 
L 64.147576 221.300179 
L 61.986818 219.880541 
L 61.444934 219.518788 
L 59.826061 218.426086 
L 58.376138 217.431919 
L 57.665303 216.939065 
L 55.504545 215.417549 
L 55.403145 215.345051 
L 53.343788 213.855998 
L 52.529326 213.258182 
L 51.18303 212.258682 
L 49.739877 211.171313 
L 49.022273 210.624357 
L 47.031139 209.084444 
L 46.861515 208.951722 
L 44.700758 207.23658 
L 44.403891 206.997576 
L 42.54 205.479182 
" style="fill:none;stroke:#e9785d;"/>
   </g>
   <g id="LineCollection_40">
    <path clip-path="url(#pc4ed9764af)" d="M 76.060474 232.04 
L 74.951364 231.415857 
L 72.790606 230.178241 
L 72.404348 229.953131 
L 70.629848 228.908111 
L 68.890659 227.866263 
L 68.469091 227.611048 
L 66.308333 226.280814 
L 65.507179 225.779394 
L 64.147576 224.919337 
L 62.239413 223.692525 
L 61.986818 223.528366 
L 59.826061 222.101501 
L 59.086894 221.605657 
L 57.665303 220.641589 
L 56.035071 219.518788 
L 55.504545 219.14935 
L 53.343788 217.621575 
L 53.079551 217.431919 
L 51.18303 216.055455 
L 50.218589 215.345051 
L 49.022273 214.453871 
L 47.440406 213.258182 
L 46.861515 212.815604 
L 44.74146 211.171313 
L 44.700758 211.139379 
L 42.54 209.41993 
" style="fill:none;stroke:#e36c55;"/>
   </g>
   <g id="LineCollection_41">
    <path clip-path="url(#pc4ed9764af)" d="M 70.026991 232.04 
L 68.469091 231.116441 
L 66.539408 229.953131 
L 66.308333 229.812367 
L 64.147576 228.474195 
L 63.181743 227.866263 
L 61.986818 227.106157 
L 59.934123 225.779394 
L 59.826061 225.708799 
L 57.665303 224.274862 
L 56.801272 223.692525 
L 55.504545 222.809096 
L 53.764813 221.605657 
L 53.343788 221.311229 
L 51.18303 219.777331 
L 50.824174 219.518788 
L 49.022273 218.206208 
L 47.974711 217.431919 
L 46.861515 216.599906 
L 45.206518 215.345051 
L 44.700758 214.95723 
L 42.54 213.276718 
" style="fill:none;stroke:#df634e;"/>
   </g>
   <g id="LineCollection_42">
    <path clip-path="url(#pc4ed9764af)" d="M 64.265091 232.04 
L 64.147576 231.967977 
L 61.986818 230.622033 
L 60.929986 229.953131 
L 59.826061 229.247093 
L 57.700735 227.866263 
L 57.665303 227.842998 
L 55.504545 226.402139 
L 54.584782 225.779394 
L 53.343788 224.93015 
L 51.562199 223.692525 
L 51.18303 223.426273 
L 49.022273 221.886386 
L 48.634054 221.605657 
L 46.861515 220.309858 
L 45.794831 219.518788 
L 44.700758 218.698422 
L 43.035448 217.431919 
L 42.54 217.050903 
" style="fill:none;stroke:#d85646;"/>
   </g>
   <g id="LineCollection_43">
    <path clip-path="url(#pc4ed9764af)" d="M 58.748461 232.04 
L 57.665303 231.343575 
L 55.535937 229.953131 
L 55.504545 229.932418 
L 53.343788 228.484781 
L 52.434334 227.866263 
L 51.18303 227.006229 
L 49.424251 225.779394 
L 49.022273 225.495989 
L 46.861515 223.950241 
L 46.506399 223.692525 
L 44.700758 222.367936 
L 43.67625 221.605657 
L 42.54 220.750978 
" style="fill:none;stroke:#d24b40;"/>
   </g>
   <g id="LineCollection_44">
    <path clip-path="url(#pc4ed9764af)" d="M 53.436616 232.04 
L 53.343788 231.978454 
L 51.18303 230.52418 
L 50.347021 229.953131 
L 49.022273 229.038748 
L 47.348163 227.866263 
L 46.861515 227.521819 
L 44.700758 225.970333 
L 44.438575 225.779394 
L 42.54 224.381906 
" style="fill:none;stroke:#cb3e38;"/>
   </g>
   <g id="LineCollection_45">
    <path clip-path="url(#pc4ed9764af)" d="M 48.320102 232.04 
L 46.861515 231.029064 
L 45.331287 229.953131 
L 44.700758 229.505143 
L 42.54 227.948041 
" style="fill:none;stroke:#c43032;"/>
   </g>
   <g id="LineCollection_46">
    <path clip-path="url(#pc4ed9764af)" d="M 43.371126 232.04 
L 42.54 231.447285 
" style="fill:none;stroke:#bb1b2c;"/>
   </g>
   <g id="LineCollection_47"/>
   <g id="line2d_11">
    <path clip-path="url(#pc4ed9764af)" d="M 42.54 128.74 
L 256.455 128.74 
" style="fill:none;stroke:#000000;stroke-linecap:square;stroke-width:0.5;"/>
   </g>
   <g id="line2d_12">
    <path clip-path="url(#pc4ed9764af)" d="M 149.4975 232.04 
L 149.4975 25.44 
" style="fill:none;stroke:#000000;stroke-linecap:square;stroke-width:0.5;"/>
   </g>
   <g id="line2d_13">
    <path clip-path="url(#pc4ed9764af)" d="M 170.889 128.74 
L 170.843199 127.388771 
L 170.705993 126.043329 
L 170.477968 124.709434 
L 170.160102 123.392799 
L 169.753756 122.099061 
L 169.260669 120.83376 
L 168.682953 119.602316 
L 168.023082 118.41 
L 167.283882 117.261919 
L 166.468518 116.162989 
L 165.580481 115.117915 
L 164.623575 114.131174 
L 163.601896 113.20699 
L 162.51982 112.34932 
L 161.381981 111.561838 
L 160.19325 110.847915 
L 158.958719 110.210609 
L 157.683673 109.652649 
L 156.373572 109.176424 
L 155.034028 108.783972 
L 153.670775 108.476976 
L 152.289651 108.256749 
L 150.896571 108.124235 
L 149.4975 108.08 
L 149.4975 108.08 
L 148.098429 108.124235 
L 146.705349 108.256749 
L 145.324225 108.476976 
L 143.960972 108.783972 
L 142.621428 109.176424 
L 141.311327 109.652649 
L 140.036281 110.210609 
L 138.80175 110.847915 
L 137.613019 111.561838 
L 136.47518 112.34932 
L 135.393104 113.20699 
L 134.371425 114.131174 
L 133.414519 115.117915 
L 132.526482 116.162989 
L 131.711118 117.261919 
L 130.971918 118.41 
L 130.312047 119.602316 
L 129.734331 120.83376 
L 129.241244 122.099061 
L 128.834898 123.392799 
L 128.517032 124.709434 
L 128.289007 126.043329 
L 128.151801 127.388771 
L 128.106 128.74 
L 128.106 128.74 
L 128.151801 130.091229 
L 128.289007 131.436671 
L 128.517032 132.770566 
L 128.834898 134.087201 
L 129.241244 135.380939 
L 129.734331 136.64624 
L 130.312047 137.877684 
L 130.971918 139.07 
L 131.711118 140.218081 
L 132.526482 141.317011 
L 133.414519 142.362085 
L 134.371425 143.348826 
L 135.393104 144.27301 
L 136.47518 145.13068 
L 137.613019 145.918162 
L 138.80175 146.632085 
L 140.036281 147.269391 
L 141.311327 147.827351 
L 142.621428 148.303576 
L 143.960972 148.696028 
L 145.324225 149.003024 
L 146.705349 149.223251 
L 148.098429 149.355765 
L 149.4975 149.4 
L 149.4975 149.4 
L 150.896571 149.355765 
L 152.289651 149.223251 
L 153.670775 149.003024 
L 155.034028 148.696028 
L 156.373572 148.303576 
L 157.683673 147.827351 
L 158.958719 147.269391 
L 160.19325 146.632085 
L 161.381981 145.918162 
L 162.51982 145.13068 
L 163.601896 144.27301 
L 164.623575 143.348826 
L 165.580481 142.362085 
L 166.468518 141.317011 
L 167.283882 140.218081 
L 168.023082 139.07 
L 168.682953 137.877684 
L 169.260669 136.64624 
L 169.753756 135.380939 
L 170.160102 134.087201 
L 170.477968 132.770566 
L 170.705993 131.436671 
L 170.843199 130.091229 
L 170.889 128.74 
" style="fill:none;stroke:#2d435d;stroke-linecap:square;stroke-width:1.5;"/>
   </g>
   <g id="line2d_14">
    <path clip-path="url(#pc4ed9764af)" d="M 202.97625 77.09 
L 149.4975 128.74 
" style="fill:none;stroke:#000000;stroke-dasharray:1.5,2.475;stroke-dashoffset:0;stroke-width:1.5;"/>
   </g>
   <g id="patch_3">
    <path d="M 42.54 232.04 
L 42.54 25.44 
" style="fill:none;stroke:#000000;stroke-linecap:square;stroke-linejoin:miter;stroke-width:0.8;"/>
   </g>
   <g id="patch_4">
    <path d="M 256.455 232.04 
L 256.455 25.44 
" style="fill:none;stroke:#000000;stroke-linecap:square;stroke-linejoin:miter;stroke-width:0.8;"/>
   </g>
   <g id="patch_5">
    <path d="M 42.54 232.04 
L 256.455 232.04 
" style="fill:none;stroke:#000000;stroke-linecap:square;stroke-linejoin:miter;stroke-width:0.8;"/>
   </g>
   <g id="patch_6">
    <path d="M 42.54 25.44 
L 256.455 25.44 
" style="fill:none;stroke:#000000;stroke-linecap:square;stroke-linejoin:miter;stroke-width:0.8;"/>
   </g>
   <g id="text_13">
    <!-- l2 constraint w/symmetric loss function -->
    <defs>
     <path d="M 9.421875 75.984375 
L 18.40625 75.984375 
L 18.40625 0 
L 9.421875 0 
z
" id="DejaVuSans-108"/>
     <path id="DejaVuSans-32"/>
     <path d="M 48.78125 52.59375 
L 48.78125 44.1875 
Q 44.96875 46.296875 41.140625 47.34375 
Q 37.3125 48.390625 33.40625 48.390625 
Q 24.65625 48.390625 19.8125 42.84375 
Q 14.984375 37.3125 14.984375 27.296875 
Q 14.984375 17.28125 19.8125 11.734375 
Q 24.65625 6.203125 33.40625 6.203125 
Q 37.3125 6.203125 41.140625 7.25 
Q 44.96875 8.296875 48.78125 10.40625 
L 48.78125 2.09375 
Q 45.015625 0.34375 40.984375 -0.53125 
Q 36.96875 -1.421875 32.421875 -1.421875 
Q 20.0625 -1.421875 12.78125 6.34375 
Q 5.515625 14.109375 5.515625 27.296875 
Q 5.515625 40.671875 12.859375 48.328125 
Q 20.21875 56 33.015625 56 
Q 37.15625 56 41.109375 55.140625 
Q 45.0625 54.296875 48.78125 52.59375 
z
" id="DejaVuSans-99"/>
     <path d="M 30.609375 48.390625 
Q 23.390625 48.390625 19.1875 42.75 
Q 14.984375 37.109375 14.984375 27.296875 
Q 14.984375 17.484375 19.15625 11.84375 
Q 23.34375 6.203125 30.609375 6.203125 
Q 37.796875 6.203125 41.984375 11.859375 
Q 46.1875 17.53125 46.1875 27.296875 
Q 46.1875 37.015625 41.984375 42.703125 
Q 37.796875 48.390625 30.609375 48.390625 
z
M 30.609375 56 
Q 42.328125 56 49.015625 48.375 
Q 55.71875 40.765625 55.71875 27.296875 
Q 55.71875 13.875 49.015625 6.21875 
Q 42.328125 -1.421875 30.609375 -1.421875 
Q 18.84375 -1.421875 12.171875 6.21875 
Q 5.515625 13.875 5.515625 27.296875 
Q 5.515625 40.765625 12.171875 48.375 
Q 18.84375 56 30.609375 56 
z
" id="DejaVuSans-111"/>
     <path d="M 54.890625 33.015625 
L 54.890625 0 
L 45.90625 0 
L 45.90625 32.71875 
Q 45.90625 40.484375 42.875 44.328125 
Q 39.84375 48.1875 33.796875 48.1875 
Q 26.515625 48.1875 22.3125 43.546875 
Q 18.109375 38.921875 18.109375 30.90625 
L 18.109375 0 
L 9.078125 0 
L 9.078125 54.6875 
L 18.109375 54.6875 
L 18.109375 46.1875 
Q 21.34375 51.125 25.703125 53.5625 
Q 30.078125 56 35.796875 56 
Q 45.21875 56 50.046875 50.171875 
Q 54.890625 44.34375 54.890625 33.015625 
z
" id="DejaVuSans-110"/>
     <path d="M 44.28125 53.078125 
L 44.28125 44.578125 
Q 40.484375 46.53125 36.375 47.5 
Q 32.28125 48.484375 27.875 48.484375 
Q 21.1875 48.484375 17.84375 46.4375 
Q 14.5 44.390625 14.5 40.28125 
Q 14.5 37.15625 16.890625 35.375 
Q 19.28125 33.59375 26.515625 31.984375 
L 29.59375 31.296875 
Q 39.15625 29.25 43.1875 25.515625 
Q 47.21875 21.78125 47.21875 15.09375 
Q 47.21875 7.46875 41.1875 3.015625 
Q 35.15625 -1.421875 24.609375 -1.421875 
Q 20.21875 -1.421875 15.453125 -0.5625 
Q 10.6875 0.296875 5.421875 2 
L 5.421875 11.28125 
Q 10.40625 8.6875 15.234375 7.390625 
Q 20.0625 6.109375 24.8125 6.109375 
Q 31.15625 6.109375 34.5625 8.28125 
Q 37.984375 10.453125 37.984375 14.40625 
Q 37.984375 18.0625 35.515625 20.015625 
Q 33.0625 21.96875 24.703125 23.78125 
L 21.578125 24.515625 
Q 13.234375 26.265625 9.515625 29.90625 
Q 5.8125 33.546875 5.8125 39.890625 
Q 5.8125 47.609375 11.28125 51.796875 
Q 16.75 56 26.8125 56 
Q 31.78125 56 36.171875 55.265625 
Q 40.578125 54.546875 44.28125 53.078125 
z
" id="DejaVuSans-115"/>
     <path d="M 18.3125 70.21875 
L 18.3125 54.6875 
L 36.8125 54.6875 
L 36.8125 47.703125 
L 18.3125 47.703125 
L 18.3125 18.015625 
Q 18.3125 11.328125 20.140625 9.421875 
Q 21.96875 7.515625 27.59375 7.515625 
L 36.8125 7.515625 
L 36.8125 0 
L 27.59375 0 
Q 17.1875 0 13.234375 3.875 
Q 9.28125 7.765625 9.28125 18.015625 
L 9.28125 47.703125 
L 2.6875 47.703125 
L 2.6875 54.6875 
L 9.28125 54.6875 
L 9.28125 70.21875 
z
" id="DejaVuSans-116"/>
     <path d="M 41.109375 46.296875 
Q 39.59375 47.171875 37.8125 47.578125 
Q 36.03125 48 33.890625 48 
Q 26.265625 48 22.1875 43.046875 
Q 18.109375 38.09375 18.109375 28.8125 
L 18.109375 0 
L 9.078125 0 
L 9.078125 54.6875 
L 18.109375 54.6875 
L 18.109375 46.1875 
Q 20.953125 51.171875 25.484375 53.578125 
Q 30.03125 56 36.53125 56 
Q 37.453125 56 38.578125 55.875 
Q 39.703125 55.765625 41.0625 55.515625 
z
" id="DejaVuSans-114"/>
     <path d="M 34.28125 27.484375 
Q 23.390625 27.484375 19.1875 25 
Q 14.984375 22.515625 14.984375 16.5 
Q 14.984375 11.71875 18.140625 8.90625 
Q 21.296875 6.109375 26.703125 6.109375 
Q 34.1875 6.109375 38.703125 11.40625 
Q 43.21875 16.703125 43.21875 25.484375 
L 43.21875 27.484375 
z
M 52.203125 31.203125 
L 52.203125 0 
L 43.21875 0 
L 43.21875 8.296875 
Q 40.140625 3.328125 35.546875 0.953125 
Q 30.953125 -1.421875 24.3125 -1.421875 
Q 15.921875 -1.421875 10.953125 3.296875 
Q 6 8.015625 6 15.921875 
Q 6 25.140625 12.171875 29.828125 
Q 18.359375 34.515625 30.609375 34.515625 
L 43.21875 34.515625 
L 43.21875 35.40625 
Q 43.21875 41.609375 39.140625 45 
Q 35.0625 48.390625 27.6875 48.390625 
Q 23 48.390625 18.546875 47.265625 
Q 14.109375 46.140625 10.015625 43.890625 
L 10.015625 52.203125 
Q 14.9375 54.109375 19.578125 55.046875 
Q 24.21875 56 28.609375 56 
Q 40.484375 56 46.34375 49.84375 
Q 52.203125 43.703125 52.203125 31.203125 
z
" id="DejaVuSans-97"/>
     <path d="M 9.421875 54.6875 
L 18.40625 54.6875 
L 18.40625 0 
L 9.421875 0 
z
M 9.421875 75.984375 
L 18.40625 75.984375 
L 18.40625 64.59375 
L 9.421875 64.59375 
z
" id="DejaVuSans-105"/>
     <path d="M 4.203125 54.6875 
L 13.1875 54.6875 
L 24.421875 12.015625 
L 35.59375 54.6875 
L 46.1875 54.6875 
L 57.421875 12.015625 
L 68.609375 54.6875 
L 77.59375 54.6875 
L 63.28125 0 
L 52.6875 0 
L 40.921875 44.828125 
L 29.109375 0 
L 18.5 0 
z
" id="DejaVuSans-119"/>
     <path d="M 25.390625 72.90625 
L 33.6875 72.90625 
L 8.296875 -9.28125 
L 0 -9.28125 
z
" id="DejaVuSans-47"/>
     <path d="M 32.171875 -5.078125 
Q 28.375 -14.84375 24.75 -17.8125 
Q 21.140625 -20.796875 15.09375 -20.796875 
L 7.90625 -20.796875 
L 7.90625 -13.28125 
L 13.1875 -13.28125 
Q 16.890625 -13.28125 18.9375 -11.515625 
Q 21 -9.765625 23.484375 -3.21875 
L 25.09375 0.875 
L 2.984375 54.6875 
L 12.5 54.6875 
L 29.59375 11.921875 
L 46.6875 54.6875 
L 56.203125 54.6875 
z
" id="DejaVuSans-121"/>
     <path d="M 52 44.1875 
Q 55.375 50.25 60.0625 53.125 
Q 64.75 56 71.09375 56 
Q 79.640625 56 84.28125 50.015625 
Q 88.921875 44.046875 88.921875 33.015625 
L 88.921875 0 
L 79.890625 0 
L 79.890625 32.71875 
Q 79.890625 40.578125 77.09375 44.375 
Q 74.3125 48.1875 68.609375 48.1875 
Q 61.625 48.1875 57.5625 43.546875 
Q 53.515625 38.921875 53.515625 30.90625 
L 53.515625 0 
L 44.484375 0 
L 44.484375 32.71875 
Q 44.484375 40.625 41.703125 44.40625 
Q 38.921875 48.1875 33.109375 48.1875 
Q 26.21875 48.1875 22.15625 43.53125 
Q 18.109375 38.875 18.109375 30.90625 
L 18.109375 0 
L 9.078125 0 
L 9.078125 54.6875 
L 18.109375 54.6875 
L 18.109375 46.1875 
Q 21.1875 51.21875 25.484375 53.609375 
Q 29.78125 56 35.6875 56 
Q 41.65625 56 45.828125 52.96875 
Q 50 49.953125 52 44.1875 
z
" id="DejaVuSans-109"/>
     <path d="M 56.203125 29.59375 
L 56.203125 25.203125 
L 14.890625 25.203125 
Q 15.484375 15.921875 20.484375 11.0625 
Q 25.484375 6.203125 34.421875 6.203125 
Q 39.59375 6.203125 44.453125 7.46875 
Q 49.3125 8.734375 54.109375 11.28125 
L 54.109375 2.78125 
Q 49.265625 0.734375 44.1875 -0.34375 
Q 39.109375 -1.421875 33.890625 -1.421875 
Q 20.796875 -1.421875 13.15625 6.1875 
Q 5.515625 13.8125 5.515625 26.8125 
Q 5.515625 40.234375 12.765625 48.109375 
Q 20.015625 56 32.328125 56 
Q 43.359375 56 49.78125 48.890625 
Q 56.203125 41.796875 56.203125 29.59375 
z
M 47.21875 32.234375 
Q 47.125 39.59375 43.09375 43.984375 
Q 39.0625 48.390625 32.421875 48.390625 
Q 24.90625 48.390625 20.390625 44.140625 
Q 15.875 39.890625 15.1875 32.171875 
z
" id="DejaVuSans-101"/>
     <path d="M 37.109375 75.984375 
L 37.109375 68.5 
L 28.515625 68.5 
Q 23.6875 68.5 21.796875 66.546875 
Q 19.921875 64.59375 19.921875 59.515625 
L 19.921875 54.6875 
L 34.71875 54.6875 
L 34.71875 47.703125 
L 19.921875 47.703125 
L 19.921875 0 
L 10.890625 0 
L 10.890625 47.703125 
L 2.296875 47.703125 
L 2.296875 54.6875 
L 10.890625 54.6875 
L 10.890625 58.5 
Q 10.890625 67.625 15.140625 71.796875 
Q 19.390625 75.984375 28.609375 75.984375 
z
" id="DejaVuSans-102"/>
     <path d="M 8.5 21.578125 
L 8.5 54.6875 
L 17.484375 54.6875 
L 17.484375 21.921875 
Q 17.484375 14.15625 20.5 10.265625 
Q 23.53125 6.390625 29.59375 6.390625 
Q 36.859375 6.390625 41.078125 11.03125 
Q 45.3125 15.671875 45.3125 23.6875 
L 45.3125 54.6875 
L 54.296875 54.6875 
L 54.296875 0 
L 45.3125 0 
L 45.3125 8.40625 
Q 42.046875 3.421875 37.71875 1 
Q 33.40625 -1.421875 27.6875 -1.421875 
Q 18.265625 -1.421875 13.375 4.4375 
Q 8.5 10.296875 8.5 21.578125 
z
M 31.109375 56 
z
" id="DejaVuSans-117"/>
    </defs>
    <g transform="translate(41.150937 19.44)scale(0.11 -0.11)">
     <use xlink:href="#DejaVuSans-108"/>
     <use x="27.783203" xlink:href="#DejaVuSans-50"/>
     <use x="91.40625" xlink:href="#DejaVuSans-32"/>
     <use x="123.193359" xlink:href="#DejaVuSans-99"/>
     <use x="178.173828" xlink:href="#DejaVuSans-111"/>
     <use x="239.355469" xlink:href="#DejaVuSans-110"/>
     <use x="302.734375" xlink:href="#DejaVuSans-115"/>
     <use x="354.833984" xlink:href="#DejaVuSans-116"/>
     <use x="394.042969" xlink:href="#DejaVuSans-114"/>
     <use x="435.15625" xlink:href="#DejaVuSans-97"/>
     <use x="496.435547" xlink:href="#DejaVuSans-105"/>
     <use x="524.21875" xlink:href="#DejaVuSans-110"/>
     <use x="587.597656" xlink:href="#DejaVuSans-116"/>
     <use x="626.806641" xlink:href="#DejaVuSans-32"/>
     <use x="658.59375" xlink:href="#DejaVuSans-119"/>
     <use x="740.380859" xlink:href="#DejaVuSans-47"/>
     <use x="774.072266" xlink:href="#DejaVuSans-115"/>
     <use x="826.171875" xlink:href="#DejaVuSans-121"/>
     <use x="885.351562" xlink:href="#DejaVuSans-109"/>
     <use x="982.763672" xlink:href="#DejaVuSans-109"/>
     <use x="1080.175781" xlink:href="#DejaVuSans-101"/>
     <use x="1141.699219" xlink:href="#DejaVuSans-116"/>
     <use x="1180.908203" xlink:href="#DejaVuSans-114"/>
     <use x="1222.021484" xlink:href="#DejaVuSans-105"/>
     <use x="1249.804688" xlink:href="#DejaVuSans-99"/>
     <use x="1304.785156" xlink:href="#DejaVuSans-32"/>
     <use x="1336.572266" xlink:href="#DejaVuSans-108"/>
     <use x="1364.355469" xlink:href="#DejaVuSans-111"/>
     <use x="1425.537109" xlink:href="#DejaVuSans-115"/>
     <use x="1477.636719" xlink:href="#DejaVuSans-115"/>
     <use x="1529.736328" xlink:href="#DejaVuSans-32"/>
     <use x="1561.523438" xlink:href="#DejaVuSans-102"/>
     <use x="1596.728516" xlink:href="#DejaVuSans-117"/>
     <use x="1660.107422" xlink:href="#DejaVuSans-110"/>
     <use x="1723.486328" xlink:href="#DejaVuSans-99"/>
     <use x="1778.466797" xlink:href="#DejaVuSans-116"/>
     <use x="1817.675781" xlink:href="#DejaVuSans-105"/>
     <use x="1845.458984" xlink:href="#DejaVuSans-111"/>
     <use x="1906.640625" xlink:href="#DejaVuSans-110"/>
    </g>
   </g>
  </g>
 </g>
 <defs>
  <clipPath id="pc4ed9764af">
   <rect height="206.6" width="213.915" x="42.54" y="25.44"/>
  </clipPath>
 </defs>
</svg>
