<?xml version="1.0" encoding="utf-8" standalone="no"?>
<!DOCTYPE svg PUBLIC "-//W3C//DTD SVG 1.1//EN"
  "http://www.w3.org/Graphics/SVG/1.1/DTD/svg11.dtd">
<!-- Created with matplotlib (https://matplotlib.org/) -->
<svg height="273.6pt" version="1.1" viewBox="0 0 273.6 273.6" width="273.6pt" xmlns="http://www.w3.org/2000/svg" xmlns:xlink="http://www.w3.org/1999/xlink">
 <defs>
  <style type="text/css">
*{stroke-linecap:butt;stroke-linejoin:round;}
  </style>
 </defs>
 <g id="figure_1">
  <g id="patch_1">
   <path d="M 0 273.6 
L 273.6 273.6 
L 273.6 0 
L 0 0 
z
" style="fill:#ffffff;"/>
  </g>
  <g id="axes_1">
   <g id="patch_2">
    <path d="M 42.54 232.04 
L 256.455 232.04 
L 256.455 25.44 
L 42.54 25.44 
z
" style="fill:#ffffff;"/>
   </g>
   <g id="PathCollection_1">
    <defs>
     <path d="M 0 4.743416 
C 1.257969 4.743416 2.464584 4.24362 3.354102 3.354102 
C 4.24362 2.464584 4.743416 1.257969 4.743416 0 
C 4.743416 -1.257969 4.24362 -2.464584 3.354102 -3.354102 
C 2.464584 -4.24362 1.257969 -4.743416 0 -4.743416 
C -1.257969 -4.743416 -2.464584 -4.24362 -3.354102 -3.354102 
C -4.24362 -2.464584 -4.743416 -1.257969 -4.743416 0 
C -4.743416 1.257969 -4.24362 2.464584 -3.354102 3.354102 
C -2.464584 4.24362 -1.257969 4.743416 0 4.743416 
z
" id="m365a309bbb" style="stroke:#000000;"/>
    </defs>
    <g clip-path="url(#p015fef2ac7)">
     <use style="stroke:#000000;" x="202.97625" xlink:href="#m365a309bbb" y="77.09"/>
    </g>
   </g>
   <g id="PathCollection_2">
    <defs>
     <path d="M 0 4.743416 
C 1.257969 4.743416 2.464584 4.24362 3.354102 3.354102 
C 4.24362 2.464584 4.743416 1.257969 4.743416 0 
C 4.743416 -1.257969 4.24362 -2.464584 3.354102 -3.354102 
C 2.464584 -4.24362 1.257969 -4.743416 0 -4.743416 
C -1.257969 -4.743416 -2.464584 -4.24362 -3.354102 -3.354102 
C -4.24362 -2.464584 -4.743416 -1.257969 -4.743416 0 
C -4.743416 1.257969 -4.24362 2.464584 -3.354102 3.354102 
C -2.464584 4.24362 -1.257969 4.743416 0 4.743416 
z
" id="m2757992e14" style="stroke:#e32ca6;"/>
    </defs>
    <g clip-path="url(#p015fef2ac7)">
     <use style="fill:#e32ca6;stroke:#e32ca6;" x="164.623575" xlink:href="#m2757992e14" y="114.131174"/>
    </g>
   </g>
   <g id="matplotlib.axis_1">
    <g id="xtick_1">
     <g id="line2d_1">
      <defs>
       <path d="M 0 0 
L 0 3.5 
" id="m71249bcf0c" style="stroke:#000000;stroke-width:0.8;"/>
      </defs>
      <g>
       <use style="stroke:#000000;stroke-width:0.8;" x="42.54" xlink:href="#m71249bcf0c" y="232.04"/>
      </g>
     </g>
     <g id="text_1">
      <!-- −10 -->
      <defs>
       <path d="M 10.59375 35.5 
L 73.1875 35.5 
L 73.1875 27.203125 
L 10.59375 27.203125 
z
" id="DejaVuSans-8722"/>
       <path d="M 12.40625 8.296875 
L 28.515625 8.296875 
L 28.515625 63.921875 
L 10.984375 60.40625 
L 10.984375 69.390625 
L 28.421875 72.90625 
L 38.28125 72.90625 
L 38.28125 8.296875 
L 54.390625 8.296875 
L 54.390625 0 
L 12.40625 0 
z
" id="DejaVuSans-49"/>
       <path d="M 31.78125 66.40625 
Q 24.171875 66.40625 20.328125 58.90625 
Q 16.5 51.421875 16.5 36.375 
Q 16.5 21.390625 20.328125 13.890625 
Q 24.171875 6.390625 31.78125 6.390625 
Q 39.453125 6.390625 43.28125 13.890625 
Q 47.125 21.390625 47.125 36.375 
Q 47.125 51.421875 43.28125 58.90625 
Q 39.453125 66.40625 31.78125 66.40625 
z
M 31.78125 74.21875 
Q 44.046875 74.21875 50.515625 64.515625 
Q 56.984375 54.828125 56.984375 36.375 
Q 56.984375 17.96875 50.515625 8.265625 
Q 44.046875 -1.421875 31.78125 -1.421875 
Q 19.53125 -1.421875 13.0625 8.265625 
Q 6.59375 17.96875 6.59375 36.375 
Q 6.59375 54.828125 13.0625 64.515625 
Q 19.53125 74.21875 31.78125 74.21875 
z
" id="DejaVuSans-48"/>
      </defs>
      <g transform="translate(31.987656 246.638437)scale(0.1 -0.1)">
       <use xlink:href="#DejaVuSans-8722"/>
       <use x="83.789062" xlink:href="#DejaVuSans-49"/>
       <use x="147.412109" xlink:href="#DejaVuSans-48"/>
      </g>
     </g>
    </g>
    <g id="xtick_2">
     <g id="line2d_2">
      <g>
       <use style="stroke:#000000;stroke-width:0.8;" x="96.01875" xlink:href="#m71249bcf0c" y="232.04"/>
      </g>
     </g>
     <g id="text_2">
      <!-- −5 -->
      <defs>
       <path d="M 10.796875 72.90625 
L 49.515625 72.90625 
L 49.515625 64.59375 
L 19.828125 64.59375 
L 19.828125 46.734375 
Q 21.96875 47.46875 24.109375 47.828125 
Q 26.265625 48.1875 28.421875 48.1875 
Q 40.625 48.1875 47.75 41.5 
Q 54.890625 34.8125 54.890625 23.390625 
Q 54.890625 11.625 47.5625 5.09375 
Q 40.234375 -1.421875 26.90625 -1.421875 
Q 22.3125 -1.421875 17.546875 -0.640625 
Q 12.796875 0.140625 7.71875 1.703125 
L 7.71875 11.625 
Q 12.109375 9.234375 16.796875 8.0625 
Q 21.484375 6.890625 26.703125 6.890625 
Q 35.15625 6.890625 40.078125 11.328125 
Q 45.015625 15.765625 45.015625 23.390625 
Q 45.015625 31 40.078125 35.4375 
Q 35.15625 39.890625 26.703125 39.890625 
Q 22.75 39.890625 18.8125 39.015625 
Q 14.890625 38.140625 10.796875 36.28125 
z
" id="DejaVuSans-53"/>
      </defs>
      <g transform="translate(88.647656 246.638437)scale(0.1 -0.1)">
       <use xlink:href="#DejaVuSans-8722"/>
       <use x="83.789062" xlink:href="#DejaVuSans-53"/>
      </g>
     </g>
    </g>
    <g id="xtick_3">
     <g id="line2d_3">
      <g>
       <use style="stroke:#000000;stroke-width:0.8;" x="149.4975" xlink:href="#m71249bcf0c" y="232.04"/>
      </g>
     </g>
     <g id="text_3">
      <!-- 0 -->
      <g transform="translate(146.31625 246.638437)scale(0.1 -0.1)">
       <use xlink:href="#DejaVuSans-48"/>
      </g>
     </g>
    </g>
    <g id="xtick_4">
     <g id="line2d_4">
      <g>
       <use style="stroke:#000000;stroke-width:0.8;" x="202.97625" xlink:href="#m71249bcf0c" y="232.04"/>
      </g>
     </g>
     <g id="text_4">
      <!-- 5 -->
      <g transform="translate(199.795 246.638437)scale(0.1 -0.1)">
       <use xlink:href="#DejaVuSans-53"/>
      </g>
     </g>
    </g>
    <g id="xtick_5">
     <g id="line2d_5">
      <g>
       <use style="stroke:#000000;stroke-width:0.8;" x="256.455" xlink:href="#m71249bcf0c" y="232.04"/>
      </g>
     </g>
     <g id="text_5">
      <!-- 10 -->
      <g transform="translate(250.0925 246.638437)scale(0.1 -0.1)">
       <use xlink:href="#DejaVuSans-49"/>
       <use x="63.623047" xlink:href="#DejaVuSans-48"/>
      </g>
     </g>
    </g>
    <g id="text_6">
     <!-- $\beta_1$ -->
     <defs>
      <path d="M 13.625 3.375 
L 8.9375 -20.796875 
L -0.09375 -20.796875 
L 14.5 54.34375 
Q 18.84375 76.609375 39.65625 76.609375 
Q 60.75 76.609375 57.171875 57.8125 
Q 54.734375 44.4375 45.21875 39.546875 
Q 58.015625 35.15625 55.515625 22.125 
Q 51.125 -1.078125 27.484375 -1.03125 
Q 17.140625 -0.984375 13.625 3.375 
z
M 15.921875 15.09375 
Q 19.671875 6.59375 29.296875 6.640625 
Q 43.359375 6.640625 46.34375 21.96875 
Q 49.03125 35.75 26.171875 34.671875 
L 27.78125 42.96875 
Q 45.453125 42.671875 48.53125 58.59375 
Q 50.640625 69.34375 39.203125 69.28125 
Q 26.421875 69.28125 23.484375 54.046875 
z
" id="DejaVuSans-Oblique-946"/>
     </defs>
     <g transform="translate(142.7775 257.958125)scale(0.12 -0.12)">
      <use transform="translate(0 0.390625)" xlink:href="#DejaVuSans-Oblique-946"/>
      <use transform="translate(63.818359 -16.015625)scale(0.7)" xlink:href="#DejaVuSans-49"/>
     </g>
    </g>
   </g>
   <g id="matplotlib.axis_2">
    <g id="ytick_1">
     <g id="line2d_6">
      <defs>
       <path d="M 0 0 
L -3.5 0 
" id="mf4f3155f56" style="stroke:#000000;stroke-width:0.8;"/>
      </defs>
      <g>
       <use style="stroke:#000000;stroke-width:0.8;" x="42.54" xlink:href="#mf4f3155f56" y="232.04"/>
      </g>
     </g>
     <g id="text_7">
      <!-- −10 -->
      <g transform="translate(14.435312 235.839219)scale(0.1 -0.1)">
       <use xlink:href="#DejaVuSans-8722"/>
       <use x="83.789062" xlink:href="#DejaVuSans-49"/>
       <use x="147.412109" xlink:href="#DejaVuSans-48"/>
      </g>
     </g>
    </g>
    <g id="ytick_2">
     <g id="line2d_7">
      <g>
       <use style="stroke:#000000;stroke-width:0.8;" x="42.54" xlink:href="#mf4f3155f56" y="180.39"/>
      </g>
     </g>
     <g id="text_8">
      <!-- −5 -->
      <g transform="translate(20.797812 184.189219)scale(0.1 -0.1)">
       <use xlink:href="#DejaVuSans-8722"/>
       <use x="83.789062" xlink:href="#DejaVuSans-53"/>
      </g>
     </g>
    </g>
    <g id="ytick_3">
     <g id="line2d_8">
      <g>
       <use style="stroke:#000000;stroke-width:0.8;" x="42.54" xlink:href="#mf4f3155f56" y="128.74"/>
      </g>
     </g>
     <g id="text_9">
      <!-- 0 -->
      <g transform="translate(29.1775 132.539219)scale(0.1 -0.1)">
       <use xlink:href="#DejaVuSans-48"/>
      </g>
     </g>
    </g>
    <g id="ytick_4">
     <g id="line2d_9">
      <g>
       <use style="stroke:#000000;stroke-width:0.8;" x="42.54" xlink:href="#mf4f3155f56" y="77.09"/>
      </g>
     </g>
     <g id="text_10">
      <!-- 5 -->
      <g transform="translate(29.1775 80.889219)scale(0.1 -0.1)">
       <use xlink:href="#DejaVuSans-53"/>
      </g>
     </g>
    </g>
    <g id="ytick_5">
     <g id="line2d_10">
      <g>
       <use style="stroke:#000000;stroke-width:0.8;" x="42.54" xlink:href="#mf4f3155f56" y="25.44"/>
      </g>
     </g>
     <g id="text_11">
      <!-- 10 -->
      <g transform="translate(22.815 29.239219)scale(0.1 -0.1)">
       <use xlink:href="#DejaVuSans-49"/>
       <use x="63.623047" xlink:href="#DejaVuSans-48"/>
      </g>
     </g>
    </g>
    <g id="text_12">
     <!-- $\beta_2$ -->
     <defs>
      <path d="M 19.1875 8.296875 
L 53.609375 8.296875 
L 53.609375 0 
L 7.328125 0 
L 7.328125 8.296875 
Q 12.9375 14.109375 22.625 23.890625 
Q 32.328125 33.6875 34.8125 36.53125 
Q 39.546875 41.84375 41.421875 45.53125 
Q 43.3125 49.21875 43.3125 52.78125 
Q 43.3125 58.59375 39.234375 62.25 
Q 35.15625 65.921875 28.609375 65.921875 
Q 23.96875 65.921875 18.8125 64.3125 
Q 13.671875 62.703125 7.8125 59.421875 
L 7.8125 69.390625 
Q 13.765625 71.78125 18.9375 73 
Q 24.125 74.21875 28.421875 74.21875 
Q 39.75 74.21875 46.484375 68.546875 
Q 53.21875 62.890625 53.21875 53.421875 
Q 53.21875 48.921875 51.53125 44.890625 
Q 49.859375 40.875 45.40625 35.40625 
Q 44.1875 33.984375 37.640625 27.21875 
Q 31.109375 20.453125 19.1875 8.296875 
z
" id="DejaVuSans-50"/>
     </defs>
     <g transform="translate(21.915312 135.46)rotate(-90)scale(0.12 -0.12)">
      <use transform="translate(0 0.390625)" xlink:href="#DejaVuSans-Oblique-946"/>
      <use transform="translate(63.818359 -16.015625)scale(0.7)" xlink:href="#DejaVuSans-50"/>
     </g>
    </g>
   </g>
   <g id="LineCollection_1"/>
   <g id="LineCollection_2">
    <path clip-path="url(#p015fef2ac7)" d="M 42.54 139.789994 
L 44.700758 139.002506 
L 46.861515 138.345662 
L 47.743367 138.130909 
L 49.022273 137.837812 
L 51.18303 137.465563 
L 53.343788 137.216261 
L 55.504545 137.089908 
L 57.665303 137.086502 
L 59.826061 137.206045 
L 61.986818 137.448536 
L 64.147576 137.813974 
L 65.549783 138.130909 
L 66.308333 138.313094 
L 68.469091 138.962701 
L 70.629848 139.742952 
L 71.756194 140.217778 
L 72.790606 140.68297 
L 74.951364 141.79407 
L 75.833617 142.304646 
L 77.112121 143.097489 
L 78.989562 144.391515 
L 79.272879 144.601843 
L 81.433636 146.366795 
L 81.55884 146.478384 
L 83.594394 148.44412 
L 83.71016 148.565253 
L 85.537997 150.652121 
L 85.755152 150.924908 
L 87.095912 152.73899 
L 87.915909 153.972105 
L 88.44572 154.825859 
L 89.596444 156.912727 
L 90.076667 157.908509 
L 90.569908 158.999596 
L 91.378023 161.086465 
L 92.050858 163.173333 
L 92.237424 163.897615 
L 92.567731 165.260202 
L 92.9463 167.347071 
L 93.197559 169.433939 
L 93.321507 171.520808 
L 93.318144 173.607677 
L 93.187471 175.694545 
L 92.929486 177.781414 
L 92.544191 179.868283 
L 92.237424 181.117159 
L 92.018697 181.955152 
L 91.338716 184.04202 
L 90.523454 186.128889 
L 90.076667 187.109786 
L 89.539264 188.215758 
L 88.380916 190.302626 
L 87.915909 191.047567 
L 87.018299 192.389495 
L 85.755152 194.08956 
L 85.445602 194.476364 
L 83.608965 196.563232 
L 83.594394 196.578412 
L 81.439658 198.650101 
L 81.433636 198.655446 
L 79.272879 200.41324 
L 78.835032 200.73697 
L 77.112121 201.920013 
L 75.649141 202.823838 
L 74.951364 203.226235 
L 72.790606 204.333429 
L 71.50243 204.910707 
L 70.629848 205.277343 
L 68.469091 206.055022 
L 66.308333 206.702487 
L 65.075632 206.997576 
L 64.147576 207.206689 
L 61.986818 207.570994 
L 59.826061 207.812732 
L 57.665303 207.931904 
L 55.504545 207.928509 
L 53.343788 207.802548 
L 51.18303 207.55402 
L 49.022273 207.182925 
L 48.210998 206.997576 
L 46.861515 206.670026 
L 44.700758 206.015348 
L 42.54 205.230455 
" style="fill:none;stroke:#4055c8;"/>
   </g>
   <g id="LineCollection_3">
    <path clip-path="url(#p015fef2ac7)" d="M 42.54 124.269382 
L 44.700758 123.721839 
L 45.642317 123.522828 
L 46.861515 123.275884 
L 49.022273 122.925278 
L 51.18303 122.661721 
L 53.343788 122.485212 
L 55.504545 122.395753 
L 57.665303 122.393341 
L 59.826061 122.477979 
L 61.986818 122.649665 
L 64.147576 122.9084 
L 66.308333 123.254184 
L 67.649444 123.522828 
L 68.469091 123.694163 
L 70.629848 124.236673 
L 72.790606 124.870021 
L 74.951364 125.594207 
L 74.992429 125.609697 
L 77.112121 126.445617 
L 79.272879 127.392703 
L 79.902952 127.696566 
L 81.433636 128.469958 
L 83.594394 129.6612 
L 83.799019 129.783434 
L 85.755152 131.010445 
L 87.027851 131.870303 
L 87.915909 132.501913 
L 89.825375 133.957172 
L 90.076667 134.159344 
L 92.237424 136.013848 
L 92.27053 136.04404 
L 94.398182 138.09878 
L 94.4296 138.130909 
L 96.350057 140.217778 
L 96.558939 140.459919 
L 98.066411 142.304646 
L 98.719697 143.161299 
L 99.61089 144.391515 
L 100.880455 146.279123 
L 101.008083 146.478384 
L 102.241711 148.565253 
L 103.041212 150.040979 
L 103.35724 150.652121 
L 104.338044 152.73899 
L 105.20197 154.782022 
L 105.2197 154.825859 
L 105.969689 156.912727 
L 106.625619 158.999596 
L 107.18749 161.086465 
L 107.362727 161.868181 
L 107.643097 163.173333 
L 108.001259 165.260202 
L 108.269285 167.347071 
L 108.447175 169.433939 
L 108.53493 171.520808 
L 108.532549 173.607677 
L 108.440033 175.694545 
L 108.25738 177.781414 
L 107.984593 179.868283 
L 107.62167 181.955152 
L 107.362727 183.147886 
L 107.160161 184.04202 
L 106.593321 186.128889 
L 105.932421 188.215758 
L 105.20197 190.234884 
L 105.176348 190.302626 
L 104.288689 192.389495 
L 103.302691 194.476364 
L 103.041212 194.979594 
L 102.179117 196.563232 
L 100.940047 198.650101 
L 100.880455 198.742762 
L 99.533732 200.73697 
L 98.719697 201.856443 
L 97.979169 202.823838 
L 96.558939 204.555696 
L 96.25161 204.910707 
L 94.398182 206.918099 
L 94.320477 206.997576 
L 92.237424 209.003003 
L 92.147534 209.084444 
L 90.076667 210.856591 
L 89.68433 211.171313 
L 87.915909 212.515335 
L 86.868541 213.258182 
L 85.755152 214.008423 
L 83.618629 215.345051 
L 83.594394 215.359491 
L 81.433636 216.54774 
L 79.679277 217.431919 
L 79.272879 217.627441 
L 77.112121 218.572256 
L 74.951364 219.422327 
L 74.675418 219.518788 
L 72.790606 220.14904 
L 70.629848 220.780935 
L 68.469091 221.322201 
L 67.10995 221.605657 
L 66.308333 221.765879 
L 64.147576 222.110903 
L 61.986818 222.369069 
L 59.826061 222.540377 
L 57.665303 222.624829 
L 55.504545 222.622423 
L 53.343788 222.53316 
L 51.18303 222.35704 
L 49.022273 222.094062 
L 46.861515 221.744227 
L 46.175866 221.605657 
L 44.700758 221.294588 
L 42.54 220.748302 
" style="fill:none;stroke:#465ecf;"/>
   </g>
   <g id="LineCollection_4">
    <path clip-path="url(#p015fef2ac7)" d="M 42.54 112.641252 
L 44.700758 112.207097 
L 46.861515 111.844969 
L 49.022273 111.554868 
L 51.18303 111.336793 
L 53.343788 111.190745 
L 55.504545 111.116723 
L 57.665303 111.114728 
L 59.826061 111.18476 
L 61.986818 111.326818 
L 64.147576 111.540903 
L 66.308333 111.827014 
L 68.469091 112.185152 
L 70.629848 112.615316 
L 72.665731 113.088485 
L 72.790606 113.118545 
L 74.951364 113.71329 
L 77.112121 114.382636 
L 79.272879 115.126584 
L 79.401618 115.175354 
L 81.433636 115.973671 
L 83.594394 116.899934 
L 84.37438 117.262222 
L 85.755152 117.928255 
L 87.915909 119.050871 
L 88.451571 119.349091 
L 90.076667 120.290061 
L 91.93178 121.43596 
L 92.237424 121.63263 
L 94.398182 123.110046 
L 94.968295 123.522828 
L 96.558939 124.724642 
L 97.668599 125.609697 
L 98.719697 126.486195 
L 100.098499 127.696566 
L 100.880455 128.415727 
L 102.296674 129.783434 
L 103.041212 130.538467 
L 104.294763 131.870303 
L 105.20197 132.884965 
L 106.118896 133.957172 
L 107.362727 135.492568 
L 107.790842 136.04404 
L 109.320766 138.130909 
L 109.523485 138.424735 
L 110.711017 140.217778 
L 111.684242 141.785378 
L 111.994211 142.304646 
L 113.156739 144.391515 
L 113.845 145.722253 
L 114.221574 146.478384 
L 115.180781 148.565253 
L 116.005758 150.523648 
L 116.057942 150.652121 
L 116.828365 152.73899 
L 117.521542 154.825859 
L 118.137472 156.912727 
L 118.166515 157.02524 
L 118.658565 158.999596 
L 119.104076 161.086465 
L 119.475007 163.173333 
L 119.771357 165.260202 
L 119.993127 167.347071 
L 120.140318 169.433939 
L 120.212928 171.520808 
L 120.210958 173.607677 
L 120.134408 175.694545 
L 119.983278 177.781414 
L 119.757567 179.868283 
L 119.457277 181.955152 
L 119.082406 184.04202 
L 118.632956 186.128889 
L 118.166515 187.986413 
L 118.106866 188.215758 
L 117.486855 190.302626 
L 116.789598 192.389495 
L 116.015094 194.476364 
L 116.005758 194.499238 
L 115.132111 196.563232 
L 114.168672 198.650101 
L 113.845 199.297374 
L 113.097406 200.73697 
L 111.930483 202.823838 
L 111.684242 203.234897 
L 110.640165 204.910707 
L 109.523485 206.591214 
L 109.242197 206.997576 
L 107.707511 209.084444 
L 107.362727 209.527274 
L 106.026969 211.171313 
L 105.20197 212.133346 
L 104.193457 213.258182 
L 103.041212 214.479156 
L 102.185095 215.345051 
L 100.880455 216.601835 
L 99.975618 217.431919 
L 98.719697 218.531775 
L 97.533225 219.518788 
L 96.558939 220.294086 
L 94.819036 221.605657 
L 94.398182 221.9097 
L 92.237424 223.383868 
L 91.756685 223.692525 
L 90.076667 224.728078 
L 88.257157 225.779394 
L 87.915909 225.968992 
L 85.755152 227.089329 
L 84.141193 227.866263 
L 83.594394 228.119744 
L 81.433636 229.044196 
L 79.272879 229.891432 
L 79.099744 229.953131 
L 77.112121 230.636179 
L 74.951364 231.304263 
L 72.790606 231.897887 
L 72.199132 232.04 
" style="fill:none;stroke:#4e68d8;"/>
   </g>
   <g id="LineCollection_5">
    <path clip-path="url(#p015fef2ac7)" d="M 42.54 102.930266 
L 44.103976 102.654141 
L 44.700758 102.551879 
L 46.861515 102.243047 
L 49.022273 101.995641 
L 51.18303 101.80966 
L 53.343788 101.685107 
L 55.504545 101.621979 
L 57.665303 101.620278 
L 59.826061 101.680002 
L 61.986818 101.801153 
L 64.147576 101.983731 
L 66.308333 102.227734 
L 68.469091 102.533164 
L 69.181641 102.654141 
L 70.629848 102.907477 
L 72.790606 103.348747 
L 74.951364 103.853307 
L 77.112121 104.421156 
L 78.20717 104.74101 
L 79.272879 105.06203 
L 81.433636 105.778176 
L 83.594394 106.55959 
L 84.279074 106.827879 
L 85.755152 107.424947 
L 87.915909 108.366341 
L 89.09058 108.914747 
L 90.076667 109.39047 
L 92.237424 110.502519 
L 93.150052 111.001616 
L 94.398182 111.70775 
L 96.558939 113.002234 
L 96.695321 113.088485 
L 98.719697 114.414511 
L 99.823078 115.175354 
L 100.880455 115.931504 
L 102.652561 117.262222 
L 103.041212 117.565307 
L 105.20197 119.330689 
L 105.223513 119.349091 
L 107.362727 121.249587 
L 107.563758 121.43596 
L 109.523485 123.32857 
L 109.716577 123.522828 
L 111.684242 125.588542 
L 111.703617 125.609697 
L 113.531703 127.696566 
L 113.845 128.071265 
L 115.223518 129.783434 
L 116.005758 130.803648 
L 116.794369 131.870303 
L 118.166515 133.82405 
L 118.256781 133.957172 
L 119.597253 136.04404 
L 120.327273 137.247504 
L 120.845266 138.130909 
L 121.996831 140.217778 
L 122.48803 141.167378 
L 123.057311 142.304646 
L 124.032167 144.391515 
L 124.648788 145.813258 
L 124.928236 146.478384 
L 125.737437 148.565253 
L 126.479055 150.652121 
L 126.809545 151.675344 
L 127.142673 152.73899 
L 127.730734 154.825859 
L 128.253263 156.912727 
L 128.71026 158.999596 
L 128.970303 160.385869 
L 129.097855 161.086465 
L 129.414193 163.173333 
L 129.666927 165.260202 
L 129.856057 167.347071 
L 129.981584 169.433939 
L 130.043508 171.520808 
L 130.041828 173.607677 
L 129.976544 175.694545 
L 129.847657 177.781414 
L 129.655167 179.868283 
L 129.399073 181.955152 
L 129.079375 184.04202 
L 128.970303 184.635858 
L 128.687757 186.128889 
L 128.227298 188.215758 
L 127.701307 190.302626 
L 127.109784 192.389495 
L 126.809545 193.343079 
L 126.441568 194.476364 
L 125.696378 196.563232 
L 124.883607 198.650101 
L 124.648788 199.206738 
L 123.982412 200.73697 
L 123.00387 202.823838 
L 122.48803 203.850724 
L 121.937799 204.910707 
L 120.782426 206.997576 
L 120.327273 207.771402 
L 119.528304 209.084444 
L 118.183892 211.171313 
L 118.166515 211.196869 
L 116.714793 213.258182 
L 116.005758 214.214675 
L 115.136759 215.345051 
L 113.845 216.945432 
L 113.437209 217.431919 
L 111.684242 219.428236 
L 111.601544 219.518788 
L 109.609157 221.605657 
L 109.523485 221.691657 
L 107.447096 223.692525 
L 107.362727 223.770577 
L 105.20197 225.68616 
L 105.092016 225.779394 
L 103.041212 227.451541 
L 102.508324 227.866263 
L 100.880455 229.086281 
L 99.665905 229.953131 
L 98.719697 230.604364 
L 96.558939 232.017056 
L 96.521894 232.04 
" style="fill:none;stroke:#5470de;"/>
   </g>
   <g id="LineCollection_6">
    <path clip-path="url(#p015fef2ac7)" d="M 42.54 94.417378 
L 43.243141 94.306667 
L 44.700758 94.083205 
L 46.861515 93.806904 
L 49.022273 93.585559 
L 51.18303 93.419169 
L 53.343788 93.307735 
L 55.504545 93.251257 
L 57.665303 93.249735 
L 59.826061 93.303169 
L 61.986818 93.411558 
L 64.147576 93.574903 
L 66.308333 93.793204 
L 68.469091 94.066461 
L 70.050461 94.306667 
L 70.629848 94.397054 
L 72.790606 94.790586 
L 74.951364 95.24056 
L 77.112121 95.746976 
L 79.272879 96.309834 
L 79.564916 96.393535 
L 81.433636 96.944023 
L 83.594394 97.63855 
L 85.755152 98.391088 
L 85.993251 98.480404 
L 87.915909 99.222259 
L 90.076667 100.115654 
L 91.100562 100.567273 
L 92.237424 101.083479 
L 94.398182 102.126023 
L 95.431847 102.654141 
L 96.558939 103.247457 
L 98.719697 104.448197 
L 99.220237 104.74101 
L 100.880455 105.742602 
L 102.593609 106.827879 
L 103.041212 107.120588 
L 105.20197 108.600988 
L 105.63999 108.914747 
L 107.362727 110.189935 
L 108.413541 111.001616 
L 109.523485 111.888563 
L 110.964961 113.088485 
L 111.684242 113.708637 
L 113.319909 115.175354 
L 113.845 115.663663 
L 115.500237 117.262222 
L 116.005758 117.769229 
L 117.524673 119.349091 
L 118.166515 120.043418 
L 119.40936 121.43596 
L 120.327273 122.507332 
L 121.168284 123.522828 
L 122.48803 125.185746 
L 122.813629 125.609697 
L 124.346598 127.696566 
L 124.648788 128.127558 
L 125.77349 129.783434 
L 126.809545 131.385166 
L 127.113831 131.870303 
L 128.357218 133.957172 
L 128.970303 135.043408 
L 129.518448 136.04404 
L 130.598027 138.130909 
L 131.131061 139.225788 
L 131.600194 140.217778 
L 132.525334 142.304646 
L 133.291818 144.157361 
L 133.385997 144.391515 
L 134.165285 146.478384 
L 134.884505 148.565253 
L 135.452576 150.363755 
L 135.541195 150.652121 
L 136.124077 152.73899 
L 136.648517 154.825859 
L 137.114514 156.912727 
L 137.522069 158.999596 
L 137.613333 159.545145 
L 137.86439 161.086465 
L 138.147405 163.173333 
L 138.373516 165.260202 
L 138.542723 167.347071 
L 138.655027 169.433939 
L 138.710427 171.520808 
L 138.708924 173.607677 
L 138.650518 175.694545 
L 138.535208 177.781414 
L 138.362994 179.868283 
L 138.133877 181.955152 
L 137.847856 184.04202 
L 137.613333 185.469212 
L 137.502 186.128889 
L 137.091358 188.215758 
L 136.622274 190.302626 
L 136.094746 192.389495 
L 135.508777 194.476364 
L 135.452576 194.658365 
L 134.848013 196.563232 
L 134.125619 198.650101 
L 133.343158 200.73697 
L 133.291818 200.864134 
L 132.478006 202.823838 
L 131.549602 204.910707 
L 131.131061 205.792802 
L 130.542586 206.997576 
L 129.459646 209.084444 
L 128.970303 209.975117 
L 128.293171 211.171313 
L 127.046322 213.258182 
L 126.809545 213.63469 
L 125.700299 215.345051 
L 124.648788 216.88928 
L 124.267359 217.431919 
L 122.730704 219.518788 
L 122.48803 219.83404 
L 121.078784 221.605657 
L 120.327273 222.511089 
L 119.312831 223.692525 
L 118.166515 224.974199 
L 117.420612 225.779394 
L 116.005758 227.248032 
L 115.388086 227.866263 
L 113.845 229.353598 
L 113.199045 229.953131 
L 111.684242 231.308907 
L 110.834686 232.04 
" style="fill:none;stroke:#5b7ae5;"/>
   </g>
   <g id="LineCollection_7">
    <path clip-path="url(#p015fef2ac7)" d="M 42.54 86.751699 
L 46.861515 86.188625 
L 51.18303 85.832375 
L 55.504545 85.680464 
L 59.826061 85.727429 
L 64.147576 85.973611 
L 68.469091 86.429178 
L 72.790606 87.088473 
L 77.514416 88.046061 
L 81.433636 89.042569 
L 85.755152 90.350269 
L 90.884301 92.219798 
L 94.398182 93.702207 
L 98.719697 95.771092 
L 103.041212 98.129032 
L 106.994575 100.567273 
L 110.050191 102.654141 
L 113.845 105.516647 
L 117.866706 108.914747 
L 120.327273 111.209047 
L 124.168995 115.175354 
L 126.809545 118.216415 
L 129.358208 121.43596 
L 132.309524 125.609697 
L 134.91655 129.783434 
L 137.207222 133.957172 
L 139.206534 138.130909 
L 140.936914 142.304646 
L 142.418546 146.478384 
L 143.658987 150.652121 
L 144.668861 154.825859 
L 145.45713 158.999596 
L 146.034451 163.173333 
L 146.397383 167.347071 
L 146.549105 171.520808 
L 146.494905 175.694545 
L 146.234255 179.868283 
L 145.756836 184.04202 
L 145.068469 188.215758 
L 144.095606 192.679763 
L 143.032954 196.563232 
L 141.672116 200.73697 
L 139.774091 205.585311 
L 137.613333 210.253716 
L 135.452576 214.302289 
L 133.291818 217.899872 
L 130.80405 221.605657 
L 127.64511 225.779394 
L 124.648788 229.309912 
L 122.099869 232.04 
L 122.099869 232.04 
" style="fill:none;stroke:#6282ea;"/>
   </g>
   <g id="LineCollection_8">
    <path clip-path="url(#p015fef2ac7)" d="M 42.54 79.70737 
L 46.861515 79.194181 
L 51.18303 78.866796 
L 55.504545 78.725019 
L 59.826061 78.768851 
L 64.147576 78.998291 
L 68.469091 79.413339 
L 72.790606 80.021169 
L 77.112121 80.825314 
L 81.433636 81.820076 
L 85.755152 83.031428 
L 90.076667 84.45048 
L 94.398182 86.091594 
L 98.87434 88.046061 
L 103.086289 90.132929 
L 107.362727 92.522749 
L 111.684242 95.23704 
L 116.277581 98.480404 
L 120.327273 101.700716 
L 123.780256 104.74101 
L 126.809545 107.666589 
L 129.95785 111.001616 
L 133.503807 115.175354 
L 136.650886 119.349091 
L 139.461498 123.522828 
L 141.960876 127.696566 
L 144.17241 131.870303 
L 146.256364 136.359865 
L 147.820261 140.217778 
L 149.289688 144.391515 
L 150.577879 148.693021 
L 151.574189 152.73899 
L 152.406957 156.912727 
L 153.036397 161.086465 
L 153.466276 165.260202 
L 153.70397 169.433939 
L 153.749478 173.607677 
L 153.602801 177.781414 
L 153.263938 181.955152 
L 152.732758 186.128889 
L 151.993077 190.302626 
L 151.056839 194.476364 
L 149.908829 198.650101 
L 148.417121 203.186825 
L 146.953057 206.997576 
L 145.121479 211.171313 
L 143.03609 215.345051 
L 140.677351 219.518788 
L 138.023667 223.692525 
L 135.452576 227.315448 
L 133.291818 230.107741 
L 131.688501 232.04 
L 131.688501 232.04 
" style="fill:none;stroke:#6a8bef;"/>
   </g>
   <g id="LineCollection_9">
    <path clip-path="url(#p015fef2ac7)" d="M 42.54 73.168717 
L 46.861515 72.687804 
L 51.18303 72.380891 
L 55.504545 72.24798 
L 59.826061 72.289071 
L 64.147576 72.504163 
L 68.469091 72.893256 
L 72.790606 73.456743 
L 77.112121 74.209531 
L 82.99696 75.524848 
L 85.755152 76.263959 
L 90.177644 77.611717 
L 95.934132 79.698586 
L 98.719697 80.845591 
L 103.041212 82.812058 
L 107.362727 85.021382 
L 111.684242 87.491343 
L 116.005758 90.244287 
L 120.327273 93.3217 
L 124.648788 96.744394 
L 128.970303 100.570072 
L 133.291818 104.874353 
L 136.909659 108.914747 
L 140.269447 113.088485 
L 143.281355 117.262222 
L 146.256364 121.878874 
L 148.417121 125.620453 
L 150.577879 129.797893 
L 152.738636 134.556694 
L 154.169634 138.130909 
L 155.640065 142.304646 
L 157.060152 147.047718 
L 157.965471 150.652121 
L 158.837054 154.825859 
L 159.518302 158.999596 
L 160.011382 163.173333 
L 160.324295 167.347071 
L 160.457041 171.520808 
L 160.40962 175.694545 
L 160.182032 179.868283 
L 159.774276 184.04202 
L 159.185618 188.215758 
L 158.401176 192.389495 
L 157.060152 197.96868 
L 156.263321 200.73697 
L 154.897765 204.910707 
L 152.738636 210.460405 
L 151.501941 213.258182 
L 149.459203 217.431919 
L 147.164686 221.605657 
L 144.599955 225.779394 
L 141.739851 229.953131 
L 140.18597 232.04 
L 140.18597 232.04 
" style="fill:none;stroke:#7093f3;"/>
   </g>
   <g id="LineCollection_10">
    <path clip-path="url(#p015fef2ac7)" d="M 42.54 67.031427 
L 46.861515 66.578817 
L 51.18303 66.289967 
L 55.504545 66.164879 
L 59.826061 66.203551 
L 64.147576 66.405984 
L 68.469091 66.772178 
L 72.790606 67.304629 
L 77.112121 68.012226 
L 83.064638 69.264242 
L 85.755152 69.942098 
L 90.634218 71.351111 
L 94.398182 72.60493 
L 98.719697 74.228513 
L 103.041212 76.058905 
L 107.362727 78.109901 
L 111.684242 80.396553 
L 116.005758 82.935311 
L 120.639019 85.959192 
L 124.648788 88.862917 
L 128.970303 92.310154 
L 133.553616 96.393535 
L 137.747681 100.567273 
L 141.934848 105.23943 
L 144.904509 108.914747 
L 148.417121 113.73446 
L 150.740817 117.262222 
L 153.233069 121.43596 
L 155.475893 125.609697 
L 157.485219 129.783434 
L 159.27565 133.957172 
L 161.381667 139.6738 
L 162.226046 142.304646 
L 163.542424 146.981689 
L 164.409775 150.652121 
L 165.229034 154.825859 
L 165.871959 158.999596 
L 166.336018 163.173333 
L 166.630515 167.347071 
L 166.755448 171.520808 
L 166.710817 175.694545 
L 166.496624 179.868283 
L 166.112867 184.04202 
L 165.556673 188.215758 
L 164.819324 192.389495 
L 163.542424 198.034419 
L 162.811122 200.73697 
L 161.381667 205.346266 
L 160.043571 209.084444 
L 158.356629 213.258182 
L 156.455295 217.431919 
L 154.325265 221.605657 
L 151.950938 225.779394 
L 149.315257 229.953131 
L 147.89384 232.04 
L 147.89384 232.04 
" style="fill:none;stroke:#799cf8;"/>
   </g>
   <g id="LineCollection_11">
    <path clip-path="url(#p015fef2ac7)" d="M 42.54 61.234293 
L 46.861515 60.800957 
L 51.18303 60.528163 
L 55.504545 60.410027 
L 59.826061 60.446549 
L 64.147576 60.637731 
L 68.469091 60.984832 
L 72.790606 61.494778 
L 77.112121 62.162302 
L 81.507999 63.003636 
L 85.755152 63.98868 
L 90.076667 65.152063 
L 94.398182 66.500821 
L 98.719697 68.030069 
L 103.041212 69.749605 
L 107.362727 71.671328 
L 111.684242 73.808153 
L 116.005758 76.174114 
L 120.327273 78.784498 
L 124.83317 81.785455 
L 128.970303 84.829046 
L 133.291818 88.319631 
L 137.656716 92.219798 
L 141.934848 96.465182 
L 146.256364 101.257242 
L 149.108124 104.74101 
L 152.738636 109.62874 
L 155.074231 113.088485 
L 157.644116 117.262222 
L 159.971736 121.43596 
L 162.071931 125.609697 
L 163.958354 129.783434 
L 165.703182 134.120399 
L 167.125027 138.130909 
L 168.425878 142.304646 
L 169.546212 146.478384 
L 170.491267 150.652121 
L 171.264129 154.825859 
L 171.873829 158.999596 
L 172.317868 163.173333 
L 172.595995 167.347071 
L 172.713983 171.520808 
L 172.671834 175.694545 
L 172.469546 179.868283 
L 172.105641 184.04202 
L 171.573212 188.215758 
L 170.877621 192.389495 
L 170.018758 196.563232 
L 168.977182 200.73697 
L 167.767449 204.910707 
L 165.703182 210.895422 
L 164.777451 213.258182 
L 162.991336 217.431919 
L 160.995631 221.605657 
L 158.77695 225.779394 
L 156.320742 229.953131 
L 155.003465 232.04 
L 155.003465 232.04 
" style="fill:none;stroke:#80a3fa;"/>
   </g>
   <g id="LineCollection_12">
    <path clip-path="url(#p015fef2ac7)" d="M 42.54 55.725632 
L 46.861515 55.313453 
L 51.18303 55.050406 
L 55.504545 54.936491 
L 59.826061 54.971709 
L 64.147576 55.156059 
L 68.469091 55.489542 
L 72.790606 55.972157 
L 77.920673 56.74303 
L 81.433636 57.396458 
L 87.737092 58.829899 
L 90.076667 59.453506 
L 94.98734 60.916768 
L 98.719697 62.179134 
L 103.041212 63.807298 
L 107.362727 65.622165 
L 111.684242 67.634944 
L 116.005758 69.857757 
L 120.327273 72.303739 
L 125.466752 75.524848 
L 128.970303 77.930396 
L 134.08079 81.785455 
L 137.613333 84.709396 
L 141.934848 88.611644 
L 146.256364 92.92494 
L 149.430003 96.393535 
L 152.937854 100.567273 
L 156.127126 104.74101 
L 159.220909 109.184623 
L 161.694874 113.088485 
L 164.107712 117.262222 
L 166.298705 121.43596 
L 168.280659 125.609697 
L 170.065412 129.783434 
L 172.185455 135.469703 
L 173.06302 138.130909 
L 174.346212 142.469663 
L 175.361974 146.478384 
L 176.50697 151.945829 
L 176.999722 154.825859 
L 177.576744 158.999596 
L 177.999349 163.173333 
L 178.267538 167.347071 
L 178.38131 171.520808 
L 178.340667 175.694545 
L 178.145607 179.868283 
L 177.796131 184.04202 
L 177.292239 188.215758 
L 176.50697 193.074019 
L 175.808732 196.563232 
L 174.346212 202.545475 
L 173.669733 204.910707 
L 172.185455 209.550072 
L 170.83812 213.258182 
L 169.146993 217.431919 
L 167.262338 221.605657 
L 165.172538 225.779394 
L 162.865026 229.953131 
L 161.628443 232.04 
L 161.628443 232.04 
" style="fill:none;stroke:#86a9fc;"/>
   </g>
   <g id="LineCollection_13">
    <path clip-path="url(#p015fef2ac7)" d="M 42.54 50.458948 
L 49.022273 49.92521 
L 55.504545 49.70995 
L 61.986818 49.813169 
L 68.469091 50.234867 
L 72.790606 50.696562 
L 79.272879 51.665487 
L 83.954727 52.569293 
L 90.076667 54.025416 
L 94.398182 55.242425 
L 99.077187 56.74303 
L 105.20197 59.009263 
L 109.730284 60.916768 
L 114.199007 63.003636 
L 118.274506 65.090505 
L 122.48803 67.449772 
L 126.809545 70.094926 
L 131.780327 73.43798 
L 135.452576 76.135949 
L 139.914921 79.698586 
L 144.651593 83.872323 
L 148.947361 88.046061 
L 152.861047 92.219798 
L 157.060152 97.173766 
L 159.694983 100.567273 
L 162.68327 104.74101 
L 165.703182 109.367117 
L 167.925367 113.088485 
L 170.206311 117.262222 
L 172.282628 121.43596 
L 174.346212 126.046365 
L 176.50697 131.52023 
L 178.062626 136.04404 
L 179.322816 140.217778 
L 180.828485 146.121113 
L 181.766562 150.652121 
L 182.769959 156.912727 
L 183.248064 161.086465 
L 183.684843 167.347071 
L 183.79186 173.607677 
L 183.569116 179.868283 
L 183.016609 186.128889 
L 182.456028 190.302626 
L 181.334908 196.563232 
L 180.393631 200.73697 
L 178.683935 206.997576 
L 177.331044 211.171313 
L 175.811012 215.345051 
L 174.114551 219.518788 
L 172.185455 223.786998 
L 170.024697 228.101958 
L 167.862748 232.04 
L 167.862748 232.04 
" style="fill:none;stroke:#8fb1fe;"/>
   </g>
   <g id="LineCollection_14">
    <path clip-path="url(#p015fef2ac7)" d="M 42.54 45.418405 
L 49.022273 44.902175 
L 55.504545 44.693976 
L 61.986818 44.793809 
L 68.469091 45.201675 
L 74.951364 45.917572 
L 79.272879 46.570256 
L 85.755152 47.820037 
L 90.076667 48.834526 
L 96.558939 50.638952 
L 103.041212 52.799749 
L 107.879863 54.656162 
L 112.74633 56.74303 
L 117.148638 58.829899 
L 121.179705 60.916768 
L 124.909198 63.003636 
L 128.970303 65.463789 
L 133.291818 68.308587 
L 137.613333 71.398363 
L 142.849284 75.524848 
L 146.256364 78.449492 
L 150.577879 82.467849 
L 154.899394 86.878492 
L 157.838728 90.132929 
L 161.381667 94.367179 
L 164.532719 98.480404 
L 167.863939 103.229735 
L 170.182972 106.827879 
L 172.660067 111.001616 
L 174.929122 115.175354 
L 177.001287 119.349091 
L 178.88693 123.522828 
L 180.828485 128.317987 
L 182.829084 133.957172 
L 184.112271 138.130909 
L 185.244578 142.304646 
L 186.646864 148.565253 
L 187.400086 152.73899 
L 188.247798 158.999596 
L 188.776565 165.260202 
L 188.986387 171.520808 
L 188.877264 177.781414 
L 188.449195 184.04202 
L 187.702182 190.302626 
L 187.022249 194.476364 
L 185.722341 200.73697 
L 184.667544 204.910707 
L 182.792656 211.171313 
L 180.548539 217.431919 
L 178.667727 221.999833 
L 176.50697 226.698102 
L 174.346212 230.949204 
L 173.759735 232.04 
L 173.759735 232.04 
" style="fill:none;stroke:#96b7ff;"/>
   </g>
   <g id="LineCollection_15">
    <path clip-path="url(#p015fef2ac7)" d="M 42.54 40.565477 
L 49.022273 40.065641 
L 55.504545 39.866931 
L 61.986818 39.962083 
L 68.469091 40.355629 
L 74.951364 41.04879 
L 81.433636 42.0402 
L 85.755152 42.878644 
L 92.237424 44.393932 
L 98.939093 46.308687 
L 105.20197 48.427948 
L 111.684242 50.981295 
L 116.005758 52.892715 
L 120.327273 54.984281 
L 124.648788 57.265825 
L 128.970303 59.747905 
L 134.148364 63.003636 
L 137.613333 65.365265 
L 142.869555 69.264242 
L 146.256364 71.989683 
L 150.577879 75.737156 
L 154.899394 79.825513 
L 159.220909 84.303482 
L 163.542424 89.229545 
L 165.970475 92.219798 
L 170.024697 97.651912 
L 172.185455 100.795601 
L 174.7101 104.74101 
L 177.172219 108.914747 
L 179.434126 113.088485 
L 181.506182 117.262222 
L 183.398046 121.43596 
L 185.15 125.692122 
L 187.384489 131.870303 
L 189.295352 138.130909 
L 190.377214 142.304646 
L 191.732626 148.565253 
L 192.759291 154.825859 
L 193.477141 161.086465 
L 193.88472 167.347071 
L 193.983373 173.607677 
L 193.7778 179.868283 
L 193.260388 186.128889 
L 192.434161 192.389495 
L 191.293743 198.650101 
L 189.826587 204.910707 
L 188.661073 209.084444 
L 187.310758 213.36764 
L 185.074648 219.518788 
L 182.424066 225.779394 
L 180.439966 229.953131 
L 179.377023 232.04 
L 179.377023 232.04 
" style="fill:none;stroke:#9ebeff;"/>
   </g>
   <g id="LineCollection_16">
    <path clip-path="url(#p015fef2ac7)" d="M 42.54 35.882836 
L 49.022273 35.405601 
L 55.504545 35.213181 
L 61.986818 35.305448 
L 68.469091 35.682402 
L 74.951364 36.351273 
L 81.433636 37.312165 
L 87.915909 38.57152 
L 94.398182 40.135981 
L 100.880455 42.022139 
L 105.20197 43.466414 
L 109.523485 45.060741 
L 113.845 46.812625 
L 118.166515 48.730081 
L 122.48803 50.821676 
L 126.809545 53.096581 
L 131.131061 55.564621 
L 136.366387 58.829899 
L 139.774091 61.126936 
L 145.185554 65.090505 
L 148.417121 67.649398 
L 152.772228 71.351111 
L 157.276434 75.524848 
L 161.412741 79.698586 
L 165.703182 84.433803 
L 168.723786 88.046061 
L 172.185455 92.511927 
L 174.961716 96.393535 
L 177.728171 100.567273 
L 180.828485 105.678488 
L 183.743483 111.001616 
L 185.8187 115.175354 
L 187.719532 119.349091 
L 190.255428 125.609697 
L 192.436281 131.870303 
L 194.278741 138.130909 
L 195.796005 144.391515 
L 196.628092 148.565253 
L 197.623154 154.825859 
L 198.31581 161.086465 
L 198.706244 167.347071 
L 198.801906 173.607677 
L 198.602796 179.868283 
L 198.108826 186.128889 
L 197.308033 192.389495 
L 196.20793 198.650101 
L 195.298154 202.823838 
L 193.67232 209.084444 
L 191.632273 215.580782 
L 189.410143 221.605657 
L 186.740099 227.866263 
L 184.749915 232.04 
L 184.749915 232.04 
" style="fill:none;stroke:#a5c3fe;"/>
   </g>
   <g id="LineCollection_17">
    <path clip-path="url(#p015fef2ac7)" d="M 42.54 31.36031 
L 49.022273 30.897241 
L 55.504545 30.710483 
L 61.986818 30.800035 
L 68.469091 31.165898 
L 74.951364 31.809676 
L 81.433636 32.741874 
L 87.915909 33.95704 
L 94.398182 35.472742 
L 98.719697 36.653175 
L 105.20197 38.685127 
L 111.684242 41.046724 
L 116.005758 42.811995 
L 120.327273 44.737847 
L 124.648788 46.832311 
L 128.970303 49.103966 
L 134.972701 52.569293 
L 139.774091 55.62403 
L 144.414274 58.829899 
L 149.927869 63.003636 
L 152.738636 65.292171 
L 157.293684 69.264242 
L 161.694019 73.43798 
L 165.749042 77.611717 
L 170.024697 82.412657 
L 172.948485 85.959192 
L 176.50697 90.611529 
L 179.124237 94.306667 
L 181.87254 98.480404 
L 185.15 103.919027 
L 187.876446 108.914747 
L 189.957467 113.088485 
L 191.869455 117.262222 
L 194.430082 123.522828 
L 196.645833 129.783434 
L 198.532393 136.04404 
L 200.101917 142.304646 
L 200.973915 146.478384 
L 202.036052 152.73899 
L 202.802349 158.999596 
L 203.276662 165.260202 
L 203.464875 171.520808 
L 203.36699 177.781414 
L 202.983005 184.04202 
L 202.311083 190.302626 
L 201.340623 196.563232 
L 200.076828 202.823838 
L 198.502113 209.084444 
L 197.275827 213.258182 
L 195.1659 219.518788 
L 192.714458 225.779394 
L 190.882154 229.953131 
L 189.904971 232.04 
L 189.904971 232.04 
" style="fill:none;stroke:#adc9fd;"/>
   </g>
   <g id="LineCollection_18">
    <path clip-path="url(#p015fef2ac7)" d="M 42.54 26.977137 
L 49.022273 26.527304 
L 55.504545 26.345884 
L 61.986818 26.432877 
L 68.469091 26.788282 
L 74.951364 27.412101 
L 81.433636 28.315605 
L 87.915909 29.493077 
L 94.398182 30.962407 
L 100.880455 32.724891 
L 107.362727 34.793861 
L 113.845 37.183467 
L 118.166515 38.963646 
L 122.48803 40.899778 
L 126.809545 42.999414 
L 131.131061 45.270597 
L 136.584002 48.395556 
L 141.934848 51.763327 
L 146.256364 54.715111 
L 151.777925 58.829899 
L 154.899394 61.332363 
L 159.286354 65.090505 
L 163.778317 69.264242 
L 167.924561 73.43798 
L 172.185455 78.100763 
L 176.50697 83.26837 
L 178.667727 86.038741 
L 181.663867 90.132929 
L 185.15 95.29917 
L 188.386808 100.567273 
L 191.632273 106.414065 
L 193.938777 111.001616 
L 196.760709 117.262222 
L 199.235072 123.522828 
L 201.377436 129.783434 
L 203.202452 136.04404 
L 204.723925 142.304646 
L 205.943231 148.565253 
L 206.878828 154.825859 
L 207.524865 161.086465 
L 207.89298 167.347071 
L 207.983173 173.607677 
L 207.795445 179.868283 
L 207.329795 186.128889 
L 206.58374 192.389495 
L 205.547436 198.650101 
L 204.223773 204.910707 
L 202.600026 211.171313 
L 201.342495 215.345051 
L 199.194411 221.605657 
L 197.579701 225.779394 
L 194.866548 232.04 
L 194.866548 232.04 
" style="fill:none;stroke:#b3cdfb;"/>
   </g>
   <g id="LineCollection_19">
    <path clip-path="url(#p015fef2ac7)" d="M 89.263333 25.44 
L 94.398182 26.590607 
L 100.880455 28.299114 
L 107.362727 30.3035 
L 113.845 32.617019 
L 120.327273 35.253727 
L 126.247035 37.961212 
L 131.131061 40.422363 
L 135.452576 42.783683 
L 141.367378 46.308687 
L 146.256364 49.499832 
L 150.617014 52.569293 
L 156.064979 56.74303 
L 161.058684 60.916768 
L 163.542424 63.130898 
L 167.863939 67.226102 
L 172.185455 71.662762 
L 176.50697 76.485439 
L 179.19161 79.698586 
L 182.989242 84.577548 
L 185.502746 88.046061 
L 189.471515 93.989753 
L 192.206724 98.480404 
L 194.560311 102.654141 
L 196.74168 106.827879 
L 198.758662 111.001616 
L 201.488881 117.262222 
L 203.884457 123.522828 
L 205.959944 129.783434 
L 207.729067 136.04404 
L 209.204775 142.304646 
L 210.38972 148.565253 
L 211.297582 154.825859 
L 211.925666 161.086465 
L 212.283552 167.347071 
L 212.371239 173.607677 
L 212.188728 179.868283 
L 211.736018 186.128889 
L 211.012179 192.389495 
L 210.005079 198.650101 
L 208.721195 204.910707 
L 207.143859 211.171313 
L 205.267303 217.431919 
L 203.081221 223.692525 
L 201.443714 227.866263 
L 199.658307 232.04 
L 199.658307 232.04 
" style="fill:none;stroke:#bbd1f8;"/>
   </g>
   <g id="LineCollection_20">
    <path clip-path="url(#p015fef2ac7)" d="M 105.752582 25.44 
L 112.009581 27.526869 
L 118.166515 29.860352 
L 124.648788 32.634648 
L 128.970303 34.671494 
L 135.337438 37.961212 
L 139.774091 40.475168 
L 145.841979 44.221818 
L 150.577879 47.416209 
L 154.899394 50.548155 
L 160.129697 54.656162 
L 165.020299 58.829899 
L 169.5345 63.003636 
L 173.714145 67.177374 
L 177.595095 71.351111 
L 181.208266 75.524848 
L 185.15 80.448793 
L 189.193966 85.959192 
L 192.01462 90.132929 
L 194.641422 94.306667 
L 198.114545 100.322984 
L 200.438842 104.74101 
L 203.422064 111.001616 
L 206.068158 117.262222 
L 208.391577 123.522828 
L 210.405962 129.783434 
L 212.124194 136.04404 
L 213.558447 142.304646 
L 214.710917 148.565253 
L 215.594236 154.825859 
L 216.205339 161.086465 
L 216.553549 167.347071 
L 216.638865 173.607677 
L 216.461288 179.868283 
L 216.020818 186.128889 
L 215.316315 192.389495 
L 214.336817 198.650101 
L 213.088753 204.910707 
L 211.555248 211.171313 
L 209.73284 217.431919 
L 207.6113 223.692525 
L 205.177619 229.953131 
L 204.295238 232.04 
L 204.295238 232.04 
" style="fill:none;stroke:#c1d4f4;"/>
   </g>
   <g id="LineCollection_21">
    <path clip-path="url(#p015fef2ac7)" d="M 117.959173 25.44 
L 123.070199 27.526869 
L 128.970303 30.184733 
L 135.452576 33.431266 
L 139.910523 35.874343 
L 146.256364 39.673235 
L 150.577879 42.487848 
L 156.004985 46.308687 
L 159.220909 48.729903 
L 163.998774 52.569293 
L 168.801737 56.74303 
L 173.248742 60.916768 
L 177.377947 65.090505 
L 181.222243 69.264242 
L 185.15 73.857057 
L 189.471515 79.34857 
L 192.748056 83.872323 
L 195.953788 88.645359 
L 199.440006 94.306667 
L 202.436061 99.645663 
L 205.048567 104.74101 
L 207.942401 111.001616 
L 210.511127 117.262222 
L 212.768294 123.522828 
L 214.726713 129.783434 
L 216.398499 136.04404 
L 217.795122 142.304646 
L 218.916847 148.565253 
L 219.778434 154.825859 
L 220.373449 161.086465 
L 220.712492 167.347071 
L 220.795563 173.607677 
L 220.622661 179.868283 
L 220.193786 186.128889 
L 219.506095 192.389495 
L 218.552727 198.650101 
L 217.336979 204.910707 
L 215.844936 211.171313 
L 214.072039 217.431919 
L 212.0097 223.692525 
L 209.645683 229.953131 
L 208.790617 232.04 
L 208.790617 232.04 
" style="fill:none;stroke:#c7d7f0;"/>
   </g>
   <g id="LineCollection_22">
    <path clip-path="url(#p015fef2ac7)" d="M 128.102002 25.44 
L 133.291818 27.896626 
L 139.774091 31.276644 
L 144.192553 33.787475 
L 150.577879 37.740603 
L 154.899394 40.647974 
L 159.846995 44.221818 
L 165.181302 48.395556 
L 170.024697 52.499713 
L 174.346212 56.44717 
L 178.667727 60.687174 
L 182.837942 65.090505 
L 186.516068 69.264242 
L 189.95679 73.43798 
L 193.79303 78.450636 
L 197.612265 83.872323 
L 200.33569 88.046061 
L 204.08336 94.306667 
L 206.757576 99.207021 
L 209.520268 104.74101 
L 212.3316 111.001616 
L 214.828995 117.262222 
L 217.025185 123.522828 
L 218.932222 129.783434 
L 220.561524 136.04404 
L 221.923917 142.304646 
L 223.016496 148.565253 
L 223.856428 154.825859 
L 224.438582 161.086465 
L 224.768928 167.347071 
L 224.849868 173.607677 
L 224.681401 179.868283 
L 224.263527 186.128889 
L 223.590434 192.389495 
L 222.661837 198.650101 
L 221.475299 204.910707 
L 220.022534 211.171313 
L 218.295013 217.431919 
L 216.287101 223.692525 
L 213.987272 229.953131 
L 213.156246 232.04 
L 213.156246 232.04 
" style="fill:none;stroke:#cedaeb;"/>
   </g>
   <g id="LineCollection_23">
    <path clip-path="url(#p015fef2ac7)" d="M 136.979617 25.44 
L 141.934848 28.065862 
L 148.417121 31.818518 
L 154.899394 35.962794 
L 160.718489 40.048081 
L 165.703182 43.842016 
L 170.024697 47.376662 
L 174.346212 51.155188 
L 178.667727 55.203736 
L 182.989242 59.552323 
L 187.310758 64.235586 
L 191.632273 69.294311 
L 195.953788 74.802007 
L 199.498187 79.698586 
L 202.436061 84.05887 
L 206.200694 90.132929 
L 208.918333 94.916299 
L 211.864091 100.567273 
L 214.812053 106.827879 
L 217.446627 113.088485 
L 219.779587 119.349091 
L 221.882879 125.802588 
L 223.592168 131.870303 
L 225.092202 138.130909 
L 226.335361 144.391515 
L 227.318187 150.652121 
L 228.054764 156.912727 
L 228.542843 163.173333 
L 228.783872 169.433939 
L 228.781731 175.694545 
L 228.53642 181.955152 
L 228.043924 188.215758 
L 227.30301 194.476364 
L 226.204394 201.343021 
L 225.068047 206.997576 
L 223.563249 213.258182 
L 221.791306 219.518788 
L 219.722121 225.833387 
L 217.402647 232.04 
L 217.402647 232.04 
" style="fill:none;stroke:#d4dbe6;"/>
   </g>
   <g id="LineCollection_24">
    <path clip-path="url(#p015fef2ac7)" d="M 144.967637 25.44 
L 150.577879 28.719195 
L 155.303356 31.700606 
L 161.409242 35.874343 
L 167.001508 40.048081 
L 172.185455 44.23353 
L 176.957107 48.395556 
L 181.412278 52.569293 
L 185.5703 56.74303 
L 189.471515 60.929844 
L 193.79303 65.922793 
L 198.13573 71.351111 
L 202.436061 77.220298 
L 205.524056 81.785455 
L 208.918333 87.201914 
L 211.816098 92.219798 
L 215.120045 98.480404 
L 217.561364 103.571842 
L 219.90552 108.914747 
L 222.371239 115.175354 
L 224.552017 121.43596 
L 226.458678 127.696566 
L 228.098167 133.957172 
L 229.477325 140.217778 
L 230.608936 146.478384 
L 231.487431 152.73899 
L 232.12576 158.999596 
L 232.523923 165.260202 
L 232.681919 171.520808 
L 232.599749 177.781414 
L 232.277413 184.04202 
L 231.71491 190.302626 
L 230.912241 196.563232 
L 229.861197 202.823838 
L 228.562152 209.084444 
L 227.002904 215.345051 
L 225.181966 221.605657 
L 223.089139 227.866263 
L 221.539238 232.04 
L 221.539238 232.04 
" style="fill:none;stroke:#dadce0;"/>
   </g>
   <g id="LineCollection_25">
    <path clip-path="url(#p015fef2ac7)" d="M 152.293534 25.44 
L 157.060152 28.435429 
L 161.909964 31.700606 
L 167.863939 36.034815 
L 172.946367 40.048081 
L 177.858457 44.221818 
L 182.43162 48.395556 
L 186.699766 52.569293 
L 190.692423 56.74303 
L 194.435432 60.916768 
L 198.114545 65.294314 
L 202.436061 70.839853 
L 205.817755 75.524848 
L 208.918333 80.12687 
L 212.547886 85.959192 
L 215.400606 90.940056 
L 218.278276 96.393535 
L 221.281372 102.654141 
L 224.043636 109.067957 
L 226.389024 115.175354 
L 228.519061 121.43596 
L 230.525909 128.229404 
L 231.982 133.957172 
L 233.332847 140.217778 
L 234.437862 146.478384 
L 235.300118 152.73899 
L 235.92306 158.999596 
L 236.311625 165.260202 
L 236.465813 171.520808 
L 236.385623 177.781414 
L 236.071057 184.04202 
L 235.522113 190.302626 
L 234.737467 196.563232 
L 233.707353 202.823838 
L 232.436957 209.084444 
L 230.913789 215.345051 
L 229.133256 221.605657 
L 227.088742 227.866263 
L 225.574468 232.04 
L 225.574468 232.04 
" style="fill:none;stroke:#dfdbd9;"/>
   </g>
   <g id="LineCollection_26">
    <path clip-path="url(#p015fef2ac7)" d="M 159.097666 25.44 
L 163.542424 28.423966 
L 168.128041 31.700606 
L 173.56084 35.874343 
L 178.667727 40.101593 
L 183.296573 44.221818 
L 187.678975 48.395556 
L 191.783006 52.569293 
L 195.953788 57.10763 
L 200.275303 62.161711 
L 204.259037 67.177374 
L 207.355079 71.351111 
L 211.079091 76.734491 
L 214.314718 81.785455 
L 217.561364 87.268009 
L 220.26965 92.219798 
L 223.404363 98.480404 
L 226.236563 104.74101 
L 228.77379 111.001616 
L 231.034866 117.262222 
L 233.029898 123.522828 
L 234.847424 130.100059 
L 236.250831 136.04404 
L 237.492937 142.304646 
L 238.494438 148.565253 
L 239.26323 154.825859 
L 239.795223 161.086465 
L 240.098355 167.347071 
L 240.172627 173.607677 
L 240.018038 179.868283 
L 239.634589 186.128889 
L 239.020532 192.389495 
L 238.169344 198.650101 
L 237.008182 205.307385 
L 235.757313 211.171313 
L 234.184748 217.431919 
L 232.35986 223.692525 
L 230.273182 229.953131 
L 229.515942 232.04 
L 229.515942 232.04 
" style="fill:none;stroke:#e5d8d1;"/>
   </g>
   <g id="LineCollection_27">
    <path clip-path="url(#p015fef2ac7)" d="M 165.474001 25.44 
L 170.024697 28.684808 
L 174.346212 31.958257 
L 179.188602 35.874343 
L 184.005509 40.048081 
L 188.50641 44.221818 
L 192.721413 48.395556 
L 196.676922 52.569293 
L 200.396182 56.74303 
L 204.596818 61.793327 
L 208.918333 67.39764 
L 213.239848 73.495667 
L 217.259845 79.698586 
L 219.769122 83.872323 
L 223.2472 90.132929 
L 226.411712 96.393535 
L 229.270974 102.654141 
L 231.846131 108.914747 
L 234.147582 115.175354 
L 236.185223 121.43596 
L 237.968477 127.696566 
L 239.506328 133.957172 
L 240.80119 140.217778 
L 241.860939 146.478384 
L 242.688343 152.73899 
L 243.289547 158.999596 
L 243.662552 165.260202 
L 243.809648 171.520808 
L 243.733147 177.781414 
L 243.43238 184.04202 
L 242.902592 190.302626 
L 242.146604 196.563232 
L 241.162474 202.823838 
L 239.939868 209.084444 
L 238.480298 215.345051 
L 236.77721 221.605657 
L 234.821693 227.866263 
L 233.370522 232.04 
L 233.370522 232.04 
" style="fill:none;stroke:#ead5c9;"/>
   </g>
   <g id="LineCollection_28">
    <path clip-path="url(#p015fef2ac7)" d="M 171.495222 25.44 
L 176.50697 29.217955 
L 180.828485 32.694283 
L 185.15 36.384625 
L 189.471515 40.309373 
L 193.79303 44.491593 
L 198.114545 48.957481 
L 202.436061 53.736909 
L 206.757576 58.864733 
L 211.591724 65.090505 
L 215.400606 70.411455 
L 218.801412 75.524848 
L 221.882879 80.503993 
L 225.012921 85.959192 
L 228.365152 92.332269 
L 231.29716 98.480404 
L 234.000702 104.74101 
L 236.430741 111.001616 
L 238.597049 117.262222 
L 240.508936 123.522828 
L 242.175282 129.783434 
L 243.604554 136.04404 
L 244.795107 142.304646 
L 245.760802 148.565253 
L 246.49571 154.825859 
L 247.009561 161.086465 
L 247.302356 167.347071 
L 247.374095 173.607677 
L 247.224778 179.868283 
L 246.854405 186.128889 
L 246.262976 192.389495 
L 245.448182 198.650101 
L 244.402757 204.910707 
L 243.129585 211.171313 
L 241.619602 217.431919 
L 239.8664 223.692525 
L 237.865587 229.953131 
L 237.144418 232.04 
L 237.144418 232.04 
" style="fill:none;stroke:#eed0c0;"/>
   </g>
   <g id="LineCollection_29">
    <path clip-path="url(#p015fef2ac7)" d="M 177.218429 25.44 
L 182.989242 30.029433 
L 187.398024 33.787475 
L 191.991359 37.961212 
L 196.301906 42.134949 
L 200.355 46.308687 
L 204.596818 50.969362 
L 209.480012 56.74303 
L 213.239848 61.529294 
L 217.561364 67.451831 
L 221.882879 73.908731 
L 225.438991 79.698586 
L 228.968439 85.959192 
L 232.187776 92.219798 
L 235.114432 98.480404 
L 237.759588 104.74101 
L 240.139053 111.001616 
L 242.262097 117.262222 
L 244.137568 123.522828 
L 245.773906 129.783434 
L 247.171981 136.04404 
L 248.342965 142.304646 
L 249.288184 148.565253 
L 250.014364 154.825859 
L 250.516793 161.086465 
L 250.803079 167.347071 
L 250.873224 173.607677 
L 250.727226 179.868283 
L 250.365086 186.128889 
L 249.784714 192.389495 
L 248.98136 198.650101 
L 247.81197 205.701379 
L 246.706513 211.171313 
L 245.226026 217.431919 
L 243.490455 223.757479 
L 241.329697 230.598856 
L 240.837535 232.04 
L 240.837535 232.04 
" style="fill:none;stroke:#f1ccb8;"/>
   </g>
   <g id="LineCollection_30">
    <path clip-path="url(#p015fef2ac7)" d="M 182.683927 25.44 
L 187.729323 29.613737 
L 192.449386 33.787475 
L 196.87886 37.961212 
L 201.043779 42.134949 
L 204.967156 46.308687 
L 208.918333 50.776738 
L 213.826141 56.74303 
L 217.561364 61.633644 
L 221.506849 67.177374 
L 224.286217 71.351111 
L 228.365152 77.949069 
L 231.718155 83.872323 
L 234.968634 90.132929 
L 237.924308 96.393535 
L 240.606981 102.654141 
L 243.026182 108.914747 
L 245.190997 115.175354 
L 247.110102 121.43596 
L 248.791781 127.696566 
L 250.243952 133.957172 
L 251.466856 140.217778 
L 252.469878 146.478384 
L 253.251805 152.73899 
L 253.819967 158.999596 
L 254.174362 165.260202 
L 254.314765 171.520808 
L 254.241853 177.781414 
L 253.954949 184.04202 
L 253.454279 190.302626 
L 252.739842 196.563232 
L 251.808062 202.823838 
L 250.6534 209.084444 
L 249.274839 215.345051 
L 247.668443 221.605657 
L 245.651212 228.410601 
L 244.458609 232.04 
L 244.458609 232.04 
" style="fill:none;stroke:#f3c7b1;"/>
   </g>
   <g id="LineCollection_31">
    <path clip-path="url(#p015fef2ac7)" d="M 256.455 194.040616 
L 256.405815 194.476364 
L 256.146765 196.563232 
L 255.864222 198.650101 
L 255.558185 200.73697 
L 255.228654 202.823838 
L 254.87563 204.910707 
L 254.499112 206.997576 
L 254.294242 208.066387 
L 254.096956 209.084444 
L 253.668796 211.171313 
L 253.216884 213.258182 
L 252.74122 215.345051 
L 252.241805 217.431919 
L 252.133485 217.863997 
L 251.714026 219.518788 
L 251.161028 221.605657 
L 250.584015 223.692525 
L 249.982985 225.779394 
L 249.972727 225.813642 
L 249.35103 227.866263 
L 248.694674 229.953131 
L 248.014032 232.04 
" style="fill:none;stroke:#f5c0a7;"/>
    <path clip-path="url(#p015fef2ac7)" d="M 187.918867 25.44 
L 189.471515 26.746654 
L 190.383656 27.526869 
L 191.632273 28.610379 
L 192.770162 29.613737 
L 193.79303 30.528942 
L 195.082058 31.700606 
L 195.953788 32.504797 
L 197.322789 33.787475 
L 198.114545 34.540551 
L 199.49559 35.874343 
L 200.275303 36.638969 
L 201.603504 37.961212 
L 202.436061 38.80299 
L 203.649396 40.048081 
L 204.596818 41.035738 
L 205.635962 42.134949 
L 206.757576 43.340542 
L 207.565747 44.221818 
L 208.918333 45.720945 
L 209.441151 46.308687 
L 211.079091 48.18073 
L 211.26444 48.395556 
L 213.03495 50.482424 
L 213.239848 50.728101 
L 214.754393 52.569293 
L 215.400606 53.368665 
L 216.427348 54.656162 
L 217.561364 56.10358 
L 218.055674 56.74303 
L 219.640054 58.829899 
L 219.722121 58.939997 
L 221.176218 60.916768 
L 221.882879 61.895572 
L 222.672467 63.003636 
L 224.043636 64.964882 
L 224.130337 65.090505 
L 225.54291 67.177374 
L 226.204394 68.174174 
L 226.918611 69.264242 
L 228.258575 71.351111 
L 228.365152 71.520554 
L 229.556098 73.43798 
L 230.525909 75.032618 
L 230.821572 75.524848 
L 232.048384 77.611717 
L 232.686667 78.721611 
L 233.241656 79.698586 
L 234.400783 81.785455 
L 234.847424 82.608292 
L 235.52528 83.872323 
L 236.618353 85.959192 
L 237.008182 86.721609 
L 237.677319 88.046061 
L 238.70591 90.132929 
L 239.168939 91.096454 
L 239.702418 92.219798 
L 240.668046 94.306667 
L 241.329697 95.775267 
L 241.605006 96.393535 
L 242.509137 98.480404 
L 243.388135 100.567273 
L 243.490455 100.817345 
L 244.233358 102.654141 
L 245.05256 104.74101 
L 245.651212 106.313736 
L 245.844694 106.827879 
L 246.605461 108.914747 
L 247.341666 111.001616 
L 247.81197 112.380766 
L 248.050597 113.088485 
L 248.729956 115.175354 
L 249.385029 117.262222 
L 249.972727 119.206537 
L 250.015338 119.349091 
L 250.615098 121.43596 
L 251.190843 123.522828 
L 251.742573 125.609697 
L 252.133485 127.155578 
L 252.268782 127.696566 
L 252.766943 129.783434 
L 253.241352 131.870303 
L 253.692009 133.957172 
L 254.118915 136.04404 
L 254.294242 136.951601 
L 254.519591 138.130909 
L 254.894868 140.217778 
L 255.246651 142.304646 
L 255.57494 144.391515 
L 255.879736 146.478384 
L 256.161038 148.565253 
L 256.418847 150.652121 
L 256.455 150.974112 
" style="fill:none;stroke:#f5c0a7;"/>
   </g>
   <g id="LineCollection_32">
    <path clip-path="url(#p015fef2ac7)" d="M 256.455 213.983919 
L 256.148128 215.345051 
L 255.654142 217.431919 
L 255.136663 219.518788 
L 254.595691 221.605657 
L 254.294242 222.720131 
L 254.028333 223.692525 
L 253.433911 225.779394 
L 252.815736 227.866263 
L 252.173809 229.953131 
L 252.133485 230.079547 
L 251.501181 232.04 
" style="fill:none;stroke:#f7ba9f;"/>
    <path clip-path="url(#p015fef2ac7)" d="M 192.953687 25.44 
L 193.79303 26.169532 
L 195.330267 27.526869 
L 195.953788 28.085402 
L 197.63369 29.613737 
L 198.114545 30.057644 
L 199.867284 31.700606 
L 200.275303 32.088781 
L 202.034175 33.787475 
L 202.436061 34.181493 
L 204.137308 35.874343 
L 204.596818 36.338622 
L 206.179457 37.961212 
L 206.757576 38.56319 
L 208.163235 40.048081 
L 208.918333 40.858408 
L 210.09111 42.134949 
L 211.079091 43.227697 
L 211.965413 44.221818 
L 213.239848 45.674701 
L 213.788345 46.308687 
L 215.400606 48.203308 
L 215.561991 48.395556 
L 217.284631 50.482424 
L 217.561364 50.823451 
L 218.959164 52.569293 
L 219.722121 53.538947 
L 220.589614 54.656162 
L 221.882879 56.35147 
L 222.1777 56.74303 
L 223.720912 58.829899 
L 224.043636 59.274401 
L 225.220759 60.916768 
L 226.204394 62.315079 
L 226.682623 63.003636 
L 228.10467 65.090505 
L 228.365152 65.480264 
L 229.485173 67.177374 
L 230.525909 68.785902 
L 230.831578 69.264242 
L 232.138446 71.351111 
L 232.686667 72.244785 
L 233.409698 73.43798 
L 234.647904 75.524848 
L 234.847424 75.868435 
L 235.847548 77.611717 
L 237.008182 79.679761 
L 237.018621 79.698586 
L 238.15014 81.785455 
L 239.168939 83.708158 
L 239.254903 83.872323 
L 240.322248 85.959192 
L 241.329697 87.977026 
L 241.363763 88.046061 
L 242.368427 90.132929 
L 243.347957 92.219798 
L 243.490455 92.531381 
L 244.293019 94.306667 
L 245.211598 96.393535 
L 245.651212 97.420033 
L 246.100171 98.480404 
L 246.959185 100.567273 
L 247.793637 102.654141 
L 247.81197 102.701379 
L 248.594631 104.74101 
L 249.371133 106.827879 
L 249.972727 108.496878 
L 250.121675 108.914747 
L 250.841515 111.001616 
L 251.537339 113.088485 
L 252.133485 114.940319 
L 252.208316 115.175354 
L 252.848987 117.262222 
L 253.465907 119.349091 
L 254.059075 121.43596 
L 254.294242 122.297829 
L 254.624857 123.522828 
L 255.164589 125.609697 
L 255.680827 127.696566 
L 256.173571 129.783434 
L 256.455 131.035014 
" style="fill:none;stroke:#f7ba9f;"/>
   </g>
   <g id="LineCollection_33">
    <path clip-path="url(#p015fef2ac7)" d="M 256.455 227.070473 
L 256.221833 227.866263 
L 255.586887 229.953131 
L 254.928446 232.04 
" style="fill:none;stroke:#f7b396;"/>
    <path clip-path="url(#p015fef2ac7)" d="M 197.811566 25.44 
L 198.114545 25.711704 
L 200.107968 27.526869 
L 200.275303 27.681449 
L 202.335792 29.613737 
L 202.436061 29.70915 
L 204.498066 31.700606 
L 204.596818 31.797404 
L 206.59764 33.787475 
L 206.757576 33.948963 
L 208.637202 35.874343 
L 208.918333 36.16675 
L 210.619289 37.961212 
L 211.079091 38.453873 
L 212.546297 40.048081 
L 213.239848 40.813632 
L 214.420491 42.134949 
L 215.400606 43.249546 
L 216.244011 44.221818 
L 217.561364 45.76536 
L 218.018887 46.308687 
L 219.722121 48.365072 
L 219.747038 48.395556 
L 221.424328 50.482424 
L 221.882879 51.06279 
L 223.057713 52.569293 
L 224.043636 53.855743 
L 224.649202 54.656162 
L 226.200334 56.74303 
L 226.204394 56.748592 
L 227.704515 58.829899 
L 228.365152 59.763465 
L 229.171079 60.916768 
L 230.525909 62.892163 
L 230.601419 63.003636 
L 231.988342 65.090505 
L 232.686667 66.161872 
L 233.340504 67.177374 
L 234.657788 69.264242 
L 234.847424 69.570802 
L 235.93544 71.351111 
L 237.008182 73.143018 
L 237.182661 73.43798 
L 238.391375 75.524848 
L 239.168939 76.896529 
L 239.569587 77.611717 
L 240.713218 79.698586 
L 241.329697 80.849102 
L 241.825585 81.785455 
L 242.905648 83.872323 
L 243.490455 85.029191 
L 243.955173 85.959192 
L 244.973129 88.046061 
L 245.651212 89.470947 
L 245.96266 90.132929 
L 246.919921 92.219798 
L 247.81197 94.215713 
L 247.852163 94.306667 
L 248.750094 96.393535 
L 249.623739 98.480404 
L 249.972727 99.337866 
L 250.467537 100.567273 
L 251.28344 102.654141 
L 252.075327 104.74101 
L 252.133485 104.899067 
L 252.835397 106.827879 
L 253.571076 108.914747 
L 254.283003 111.001616 
L 254.294242 111.035699 
L 254.963818 113.088485 
L 255.621018 115.175354 
L 256.254724 117.262222 
L 256.455 117.947149 
" style="fill:none;stroke:#f7b396;"/>
   </g>
   <g id="LineCollection_34">
    <path clip-path="url(#p015fef2ac7)" d="M 202.507292 25.44 
L 204.596818 27.400355 
L 204.729713 27.526869 
L 206.757576 29.48535 
L 206.888611 29.613737 
L 208.918333 31.631693 
L 208.986671 31.700606 
L 211.025688 33.787475 
L 211.079091 33.84296 
L 213.007093 35.874343 
L 213.239848 36.123353 
L 214.934193 37.961212 
L 215.400606 38.475039 
L 216.80919 40.048081 
L 217.561364 40.901412 
L 218.634169 42.134949 
L 219.722121 43.406089 
L 220.411104 44.221818 
L 221.882879 45.992922 
L 222.141868 46.308687 
L 223.825439 48.395556 
L 224.043636 48.670607 
L 225.462506 50.482424 
L 226.204394 51.446115 
L 227.058113 52.569293 
L 228.365152 54.319054 
L 228.613816 54.656162 
L 230.126156 56.74303 
L 230.525909 57.304681 
L 231.598071 58.829899 
L 232.686667 60.407187 
L 233.034074 60.916768 
L 234.430436 63.003636 
L 234.847424 63.638817 
L 235.788954 65.090505 
L 237.008182 67.00724 
L 237.115115 67.177374 
L 238.401024 69.264242 
L 239.168939 70.535918 
L 239.655409 71.351111 
L 240.875328 73.43798 
L 241.329697 74.231799 
L 242.061209 75.524848 
L 243.216671 77.611717 
L 243.490455 78.117189 
L 244.337152 79.698586 
L 245.429641 81.785455 
L 245.651212 82.218549 
L 246.487668 83.872323 
L 247.518614 85.959192 
L 247.81197 86.567502 
L 248.516985 88.046061 
L 249.487773 90.132929 
L 249.972727 91.202168 
L 250.429145 92.219798 
L 251.341111 94.306667 
L 252.133485 96.168909 
L 252.228011 96.393535 
L 253.082449 98.480404 
L 253.913136 100.567273 
L 254.294242 101.552879 
L 254.71544 102.654141 
L 255.490107 104.74101 
L 256.241281 106.827879 
L 256.455 107.44079 
" style="fill:none;stroke:#f7ac8e;"/>
   </g>
   <g id="LineCollection_35">
    <path clip-path="url(#p015fef2ac7)" d="M 207.053776 25.44 
L 208.918333 27.240764 
L 209.210399 27.526869 
L 211.079091 29.383958 
L 211.307093 29.613737 
L 213.239848 31.590211 
L 213.346322 31.700606 
L 215.329454 33.787475 
L 215.400606 33.863484 
L 217.257528 35.874343 
L 217.561364 36.208431 
L 219.134167 37.961212 
L 219.722121 38.626688 
L 220.961404 40.048081 
L 221.882879 41.121747 
L 222.741163 42.134949 
L 224.043636 43.697327 
L 224.47527 44.221818 
L 226.164962 46.308687 
L 226.204394 46.3582 
L 227.806396 48.395556 
L 228.365152 49.118206 
L 229.40678 50.482424 
L 230.525909 51.973428 
L 230.967634 52.569293 
L 232.487983 54.656162 
L 232.686667 54.933753 
L 233.965848 56.74303 
L 234.847424 58.012616 
L 235.40809 58.829899 
L 236.813666 60.916768 
L 237.008182 61.211019 
L 238.179087 63.003636 
L 239.168939 64.548224 
L 239.512371 65.090505 
L 240.808576 67.177374 
L 241.329697 68.033158 
L 242.070633 69.264242 
L 243.301495 71.351111 
L 243.490455 71.678161 
L 244.495533 73.43798 
L 245.651212 75.504565 
L 245.662426 75.524848 
L 246.79162 77.611717 
L 247.81197 79.539361 
L 247.895304 79.698586 
L 248.963235 81.785455 
L 249.972727 83.804031 
L 250.006501 83.872323 
L 251.01453 85.959192 
L 251.998544 88.046061 
L 252.133485 88.339399 
L 252.949473 90.132929 
L 253.875166 92.219798 
L 254.294242 93.189436 
L 254.771858 94.306667 
L 255.640499 96.393535 
L 256.455 98.404729 
" style="fill:none;stroke:#f6a385;"/>
   </g>
   <g id="LineCollection_36">
    <path clip-path="url(#p015fef2ac7)" d="M 211.467669 25.44 
L 213.239848 27.200468 
L 213.563918 27.526869 
L 215.400606 29.40359 
L 215.603491 29.613737 
L 217.561364 31.671534 
L 217.588655 31.700606 
L 219.518883 33.787475 
L 219.722121 34.010536 
L 221.397939 35.874343 
L 221.882879 36.421984 
L 223.22817 37.961212 
L 224.043636 38.908821 
L 225.011455 40.048081 
L 226.204394 41.474638 
L 226.749579 42.134949 
L 228.365152 44.123258 
L 228.444234 44.221818 
L 230.091668 46.308687 
L 230.525909 46.867928 
L 231.697435 48.395556 
L 232.686667 49.707351 
L 233.264023 50.482424 
L 234.792184 52.569293 
L 234.847424 52.646053 
L 236.276551 54.656162 
L 237.008182 55.703606 
L 237.725564 56.74303 
L 239.140133 58.829899 
L 239.168939 58.873183 
L 240.512965 60.916768 
L 241.329697 62.182048 
L 241.853859 63.003636 
L 243.160121 65.090505 
L 243.490455 65.628595 
L 244.430317 67.177374 
L 245.651212 69.229518 
L 245.671636 69.264242 
L 246.874515 71.351111 
L 247.81197 73.011397 
L 248.050126 73.43798 
L 249.190914 75.524848 
L 249.972727 76.986146 
L 250.303696 77.611717 
L 251.383773 79.698586 
L 252.133485 81.180082 
L 252.436467 81.785455 
L 253.457167 83.872323 
L 254.294242 85.624535 
L 254.452378 85.959192 
L 255.414994 88.046061 
L 256.354116 90.132929 
L 256.455 90.36286 
" style="fill:none;stroke:#f59c7d;"/>
   </g>
   <g id="LineCollection_37">
    <path clip-path="url(#p015fef2ac7)" d="M 215.759725 25.44 
L 217.561364 27.279467 
L 217.800446 27.526869 
L 219.722121 29.544246 
L 219.787445 29.613737 
L 221.720708 31.700606 
L 221.882879 31.878276 
L 223.60289 33.787475 
L 224.043636 34.284116 
L 225.436793 35.874343 
L 226.204394 36.764012 
L 227.224252 37.961212 
L 228.365152 39.321436 
L 228.967009 40.048081 
L 230.525909 41.960083 
L 230.666721 42.134949 
L 232.320495 44.221818 
L 232.686667 44.691462 
L 233.932202 46.308687 
L 234.847424 47.516842 
L 235.505059 48.395556 
L 237.008182 50.438042 
L 237.040455 50.482424 
L 238.532219 52.569293 
L 239.168939 53.475652 
L 239.988492 54.656162 
L 241.329697 56.622592 
L 241.410887 56.74303 
L 242.792548 58.829899 
L 243.490455 59.903551 
L 244.141503 60.916768 
L 245.45759 63.003636 
L 245.651212 63.316563 
L 246.736355 65.090505 
L 247.81197 66.883366 
L 247.986375 67.177374 
L 249.200021 69.264242 
L 249.972727 70.620046 
L 250.384749 71.351111 
L 251.536874 73.43798 
L 252.133485 74.541641 
L 252.65914 75.524848 
L 253.751096 77.611717 
L 254.294242 78.67282 
L 254.813592 79.698586 
L 255.846688 81.785455 
L 256.455 83.042847 
" style="fill:none;stroke:#f29274;"/>
   </g>
   <g id="LineCollection_38">
    <path clip-path="url(#p015fef2ac7)" d="M 219.939566 25.44 
L 221.882879 27.47776 
L 221.929103 27.526869 
L 223.865322 29.613737 
L 224.043636 29.808753 
L 225.751283 31.700606 
L 226.204394 32.21009 
L 227.589482 33.787475 
L 228.365152 34.684223 
L 229.38171 35.874343 
L 230.525909 37.234514 
L 231.12967 37.961212 
L 232.686667 39.864535 
L 232.834983 40.048081 
L 234.494942 42.134949 
L 234.847424 42.585234 
L 236.113101 44.221818 
L 237.008182 45.398185 
L 237.69272 46.308687 
L 239.168939 48.304943 
L 239.235159 48.395556 
L 240.734796 50.482424 
L 241.329697 51.324558 
L 242.198776 52.569293 
L 243.490455 54.451765 
L 243.629091 54.656162 
L 245.01971 56.74303 
L 245.651212 57.707949 
L 246.377139 58.829899 
L 247.702827 60.916768 
L 247.81197 61.091821 
L 248.990556 63.003636 
L 249.972727 64.627496 
L 250.24966 65.090505 
L 251.473832 67.177374 
L 252.133485 68.324399 
L 252.668046 69.264242 
L 253.831258 71.351111 
L 254.294242 72.199046 
L 254.963363 73.43798 
L 256.06694 75.524848 
L 256.455 76.274633 
" style="fill:none;stroke:#f08a6c;"/>
   </g>
   <g id="LineCollection_39">
    <path clip-path="url(#p015fef2ac7)" d="M 224.015466 25.44 
L 224.043636 25.469928 
L 225.954926 27.526869 
L 226.204394 27.79924 
L 227.845268 29.613737 
L 228.365152 30.197088 
L 229.688335 31.700606 
L 230.525909 32.666542 
L 231.485879 33.787475 
L 232.686667 35.210858 
L 233.239565 35.874343 
L 234.847424 37.833492 
L 234.95098 37.961212 
L 236.616975 40.048081 
L 237.008182 40.545899 
L 238.242057 42.134949 
L 239.168939 43.347901 
L 239.828889 44.221818 
L 241.329697 46.241811 
L 241.378806 46.308687 
L 242.886133 48.395556 
L 243.490455 49.246416 
L 244.358233 50.482424 
L 245.651212 52.355828 
L 245.796866 52.569293 
L 247.19624 54.656162 
L 247.81197 55.590797 
L 248.56252 56.74303 
L 249.897593 58.829899 
L 249.972727 58.949518 
L 251.194648 60.916768 
L 252.133485 62.456796 
L 252.463187 63.003636 
L 253.697654 65.090505 
L 254.294242 66.118824 
L 254.901692 67.177374 
L 256.07575 69.264242 
L 256.455 69.952118 
" style="fill:none;stroke:#ec8165;"/>
   </g>
   <g id="LineCollection_40">
    <path clip-path="url(#p015fef2ac7)" d="M 227.99161 25.44 
L 228.365152 25.847163 
L 229.886885 27.526869 
L 230.525909 28.242457 
L 231.735347 29.613737 
L 232.686667 30.708227 
L 233.538709 31.700606 
L 234.847424 33.247632 
L 235.298603 33.787475 
L 237.008182 35.86402 
L 237.01658 35.874343 
L 238.688467 37.961212 
L 239.168939 38.570319 
L 240.320903 40.048081 
L 241.329697 41.362732 
L 241.915364 42.134949 
L 243.472957 44.221818 
L 243.490455 44.245646 
L 244.987998 46.308687 
L 245.651212 47.237575 
L 246.468596 48.395556 
L 247.81197 50.330971 
L 247.915912 50.482424 
L 249.323843 52.569293 
L 249.972727 53.547966 
L 250.699321 54.656162 
L 252.043572 56.74303 
L 252.133485 56.885153 
L 253.350283 58.829899 
L 254.294242 60.366532 
L 254.628579 60.916768 
L 255.873118 63.003636 
L 256.455 63.998122 
" style="fill:none;stroke:#e8765c;"/>
   </g>
   <g id="LineCollection_41">
    <path clip-path="url(#p015fef2ac7)" d="M 231.878075 25.44 
L 232.686667 26.343693 
L 233.732415 27.526869 
L 234.847424 28.806698 
L 235.542057 29.613737 
L 237.008182 31.342172 
L 237.308599 31.700606 
L 239.031949 33.787475 
L 239.168939 33.955876 
L 240.711201 35.874343 
L 241.329697 36.655551 
L 242.351388 37.961212 
L 243.490455 39.439625 
L 243.953858 40.048081 
L 245.518387 42.134949 
L 245.651212 42.314979 
L 247.042079 44.221818 
L 247.81197 45.294627 
L 248.53152 46.308687 
L 249.972727 48.37364 
L 249.987853 48.395556 
L 251.404151 50.482424 
L 252.133485 51.57561 
L 252.789146 52.569293 
L 254.142373 54.656162 
L 254.294242 54.894551 
L 255.459043 56.74303 
L 256.455 58.352314 
" style="fill:none;stroke:#e36c55;"/>
   </g>
   <g id="LineCollection_42">
    <path clip-path="url(#p015fef2ac7)" d="M 235.681345 25.44 
L 237.008182 26.959518 
L 237.497691 27.526869 
L 239.168939 29.491963 
L 239.271286 29.613737 
L 240.999784 31.700606 
L 241.329697 32.104868 
L 242.686881 33.787475 
L 243.490455 34.798829 
L 244.335181 35.874343 
L 245.651212 37.575715 
L 245.946009 37.961212 
L 247.517315 40.048081 
L 247.81197 40.445629 
L 249.049986 42.134949 
L 249.972727 43.414381 
L 250.548588 44.221818 
L 252.012918 46.308687 
L 252.133485 46.483376 
L 253.438725 48.395556 
L 254.294242 49.670143 
L 254.833527 50.482424 
L 256.195533 52.569293 
L 256.455 52.973826 
" style="fill:none;stroke:#de614d;"/>
   </g>
   <g id="LineCollection_43">
    <path clip-path="url(#p015fef2ac7)" d="M 239.407295 25.44 
L 241.186651 27.526869 
L 241.329697 27.697069 
L 242.92184 29.613737 
L 243.490455 30.308322 
L 244.617128 31.700606 
L 245.651212 32.997554 
L 246.273874 33.787475 
L 247.81197 35.76831 
L 247.893378 35.874343 
L 249.471309 37.961212 
L 249.972727 38.634721 
L 251.01326 40.048081 
L 252.133485 41.593851 
L 252.521311 42.134949 
L 253.993296 44.221818 
L 254.294242 44.655475 
L 255.429055 46.308687 
L 256.455 47.82822 
" style="fill:none;stroke:#d85646;"/>
   </g>
   <g id="LineCollection_44">
    <path clip-path="url(#p015fef2ac7)" d="M 243.056267 25.44 
L 243.490455 25.955218 
L 244.799697 27.526869 
L 245.651212 28.563871 
L 246.503492 29.613737 
L 247.81197 31.249278 
L 248.168986 31.700606 
L 249.795489 33.787475 
L 249.972727 34.018325 
L 251.381868 35.874343 
L 252.133485 36.879555 
L 252.933371 37.961212 
L 254.294242 39.830235 
L 254.451135 40.048081 
L 255.930609 42.134949 
L 256.455 42.886563 
" style="fill:none;stroke:#d1493f;"/>
   </g>
   <g id="LineCollection_45">
    <path clip-path="url(#p015fef2ac7)" d="M 246.634862 25.44 
L 247.81197 26.869279 
L 248.347452 27.526869 
L 249.972727 29.551696 
L 250.021973 29.613737 
L 251.654413 31.700606 
L 252.133485 32.322183 
L 253.250424 33.787475 
L 254.294242 35.177598 
L 254.811728 35.874343 
L 256.338189 37.961212 
L 256.455 38.123403 
" style="fill:none;stroke:#cb3e38;"/>
   </g>
   <g id="LineCollection_46">
    <path clip-path="url(#p015fef2ac7)" d="M 250.150423 25.44 
L 251.830895 27.526869 
L 252.133485 27.908083 
L 253.47247 29.613737 
L 254.294242 30.675946 
L 255.078347 31.700606 
L 256.455 33.526465 
" style="fill:none;stroke:#c32e31;"/>
   </g>
   <g id="LineCollection_47">
    <path clip-path="url(#p015fef2ac7)" d="M 253.599508 25.44 
L 254.294242 26.312334 
L 255.250991 27.526869 
L 256.455 29.077445 
" style="fill:none;stroke:#bb1b2c;"/>
   </g>
   <g id="LineCollection_48"/>
   <g id="line2d_11">
    <path clip-path="url(#p015fef2ac7)" d="M 42.54 128.74 
L 256.455 128.74 
" style="fill:none;stroke:#000000;stroke-linecap:square;stroke-width:0.5;"/>
   </g>
   <g id="line2d_12">
    <path clip-path="url(#p015fef2ac7)" d="M 149.4975 232.04 
L 149.4975 25.44 
" style="fill:none;stroke:#000000;stroke-linecap:square;stroke-width:0.5;"/>
   </g>
   <g id="line2d_13">
    <path clip-path="url(#p015fef2ac7)" d="M 170.889 128.74 
L 170.843199 127.388771 
L 170.705993 126.043329 
L 170.477968 124.709434 
L 170.160102 123.392799 
L 169.753756 122.099061 
L 169.260669 120.83376 
L 168.682953 119.602316 
L 168.023082 118.41 
L 167.283882 117.261919 
L 166.468518 116.162989 
L 165.580481 115.117915 
L 164.623575 114.131174 
L 163.601896 113.20699 
L 162.51982 112.34932 
L 161.381981 111.561838 
L 160.19325 110.847915 
L 158.958719 110.210609 
L 157.683673 109.652649 
L 156.373572 109.176424 
L 155.034028 108.783972 
L 153.670775 108.476976 
L 152.289651 108.256749 
L 150.896571 108.124235 
L 149.4975 108.08 
L 149.4975 108.08 
L 148.098429 108.124235 
L 146.705349 108.256749 
L 145.324225 108.476976 
L 143.960972 108.783972 
L 142.621428 109.176424 
L 141.311327 109.652649 
L 140.036281 110.210609 
L 138.80175 110.847915 
L 137.613019 111.561838 
L 136.47518 112.34932 
L 135.393104 113.20699 
L 134.371425 114.131174 
L 133.414519 115.117915 
L 132.526482 116.162989 
L 131.711118 117.261919 
L 130.971918 118.41 
L 130.312047 119.602316 
L 129.734331 120.83376 
L 129.241244 122.099061 
L 128.834898 123.392799 
L 128.517032 124.709434 
L 128.289007 126.043329 
L 128.151801 127.388771 
L 128.106 128.74 
L 128.106 128.74 
L 128.151801 130.091229 
L 128.289007 131.436671 
L 128.517032 132.770566 
L 128.834898 134.087201 
L 129.241244 135.380939 
L 129.734331 136.64624 
L 130.312047 137.877684 
L 130.971918 139.07 
L 131.711118 140.218081 
L 132.526482 141.317011 
L 133.414519 142.362085 
L 134.371425 143.348826 
L 135.393104 144.27301 
L 136.47518 145.13068 
L 137.613019 145.918162 
L 138.80175 146.632085 
L 140.036281 147.269391 
L 141.311327 147.827351 
L 142.621428 148.303576 
L 143.960972 148.696028 
L 145.324225 149.003024 
L 146.705349 149.223251 
L 148.098429 149.355765 
L 149.4975 149.4 
L 149.4975 149.4 
L 150.896571 149.355765 
L 152.289651 149.223251 
L 153.670775 149.003024 
L 155.034028 148.696028 
L 156.373572 148.303576 
L 157.683673 147.827351 
L 158.958719 147.269391 
L 160.19325 146.632085 
L 161.381981 145.918162 
L 162.51982 145.13068 
L 163.601896 144.27301 
L 164.623575 143.348826 
L 165.580481 142.362085 
L 166.468518 141.317011 
L 167.283882 140.218081 
L 168.023082 139.07 
L 168.682953 137.877684 
L 169.260669 136.64624 
L 169.753756 135.380939 
L 170.160102 134.087201 
L 170.477968 132.770566 
L 170.705993 131.436671 
L 170.843199 130.091229 
L 170.889 128.74 
" style="fill:none;stroke:#2d435d;stroke-linecap:square;stroke-width:1.5;"/>
   </g>
   <g id="line2d_14">
    <path clip-path="url(#p015fef2ac7)" d="M 202.97625 77.09 
L 149.4975 128.74 
" style="fill:none;stroke:#000000;stroke-dasharray:1.5,2.475;stroke-dashoffset:0;stroke-width:1.5;"/>
   </g>
   <g id="patch_3">
    <path d="M 42.54 232.04 
L 42.54 25.44 
" style="fill:none;stroke:#000000;stroke-linecap:square;stroke-linejoin:miter;stroke-width:0.8;"/>
   </g>
   <g id="patch_4">
    <path d="M 256.455 232.04 
L 256.455 25.44 
" style="fill:none;stroke:#000000;stroke-linecap:square;stroke-linejoin:miter;stroke-width:0.8;"/>
   </g>
   <g id="patch_5">
    <path d="M 42.54 232.04 
L 256.455 232.04 
" style="fill:none;stroke:#000000;stroke-linecap:square;stroke-linejoin:miter;stroke-width:0.8;"/>
   </g>
   <g id="patch_6">
    <path d="M 42.54 25.44 
L 256.455 25.44 
" style="fill:none;stroke:#000000;stroke-linecap:square;stroke-linejoin:miter;stroke-width:0.8;"/>
   </g>
   <g id="text_13">
    <!-- l2 constraint w/symmetric loss function -->
    <defs>
     <path d="M 9.421875 75.984375 
L 18.40625 75.984375 
L 18.40625 0 
L 9.421875 0 
z
" id="DejaVuSans-108"/>
     <path id="DejaVuSans-32"/>
     <path d="M 48.78125 52.59375 
L 48.78125 44.1875 
Q 44.96875 46.296875 41.140625 47.34375 
Q 37.3125 48.390625 33.40625 48.390625 
Q 24.65625 48.390625 19.8125 42.84375 
Q 14.984375 37.3125 14.984375 27.296875 
Q 14.984375 17.28125 19.8125 11.734375 
Q 24.65625 6.203125 33.40625 6.203125 
Q 37.3125 6.203125 41.140625 7.25 
Q 44.96875 8.296875 48.78125 10.40625 
L 48.78125 2.09375 
Q 45.015625 0.34375 40.984375 -0.53125 
Q 36.96875 -1.421875 32.421875 -1.421875 
Q 20.0625 -1.421875 12.78125 6.34375 
Q 5.515625 14.109375 5.515625 27.296875 
Q 5.515625 40.671875 12.859375 48.328125 
Q 20.21875 56 33.015625 56 
Q 37.15625 56 41.109375 55.140625 
Q 45.0625 54.296875 48.78125 52.59375 
z
" id="DejaVuSans-99"/>
     <path d="M 30.609375 48.390625 
Q 23.390625 48.390625 19.1875 42.75 
Q 14.984375 37.109375 14.984375 27.296875 
Q 14.984375 17.484375 19.15625 11.84375 
Q 23.34375 6.203125 30.609375 6.203125 
Q 37.796875 6.203125 41.984375 11.859375 
Q 46.1875 17.53125 46.1875 27.296875 
Q 46.1875 37.015625 41.984375 42.703125 
Q 37.796875 48.390625 30.609375 48.390625 
z
M 30.609375 56 
Q 42.328125 56 49.015625 48.375 
Q 55.71875 40.765625 55.71875 27.296875 
Q 55.71875 13.875 49.015625 6.21875 
Q 42.328125 -1.421875 30.609375 -1.421875 
Q 18.84375 -1.421875 12.171875 6.21875 
Q 5.515625 13.875 5.515625 27.296875 
Q 5.515625 40.765625 12.171875 48.375 
Q 18.84375 56 30.609375 56 
z
" id="DejaVuSans-111"/>
     <path d="M 54.890625 33.015625 
L 54.890625 0 
L 45.90625 0 
L 45.90625 32.71875 
Q 45.90625 40.484375 42.875 44.328125 
Q 39.84375 48.1875 33.796875 48.1875 
Q 26.515625 48.1875 22.3125 43.546875 
Q 18.109375 38.921875 18.109375 30.90625 
L 18.109375 0 
L 9.078125 0 
L 9.078125 54.6875 
L 18.109375 54.6875 
L 18.109375 46.1875 
Q 21.34375 51.125 25.703125 53.5625 
Q 30.078125 56 35.796875 56 
Q 45.21875 56 50.046875 50.171875 
Q 54.890625 44.34375 54.890625 33.015625 
z
" id="DejaVuSans-110"/>
     <path d="M 44.28125 53.078125 
L 44.28125 44.578125 
Q 40.484375 46.53125 36.375 47.5 
Q 32.28125 48.484375 27.875 48.484375 
Q 21.1875 48.484375 17.84375 46.4375 
Q 14.5 44.390625 14.5 40.28125 
Q 14.5 37.15625 16.890625 35.375 
Q 19.28125 33.59375 26.515625 31.984375 
L 29.59375 31.296875 
Q 39.15625 29.25 43.1875 25.515625 
Q 47.21875 21.78125 47.21875 15.09375 
Q 47.21875 7.46875 41.1875 3.015625 
Q 35.15625 -1.421875 24.609375 -1.421875 
Q 20.21875 -1.421875 15.453125 -0.5625 
Q 10.6875 0.296875 5.421875 2 
L 5.421875 11.28125 
Q 10.40625 8.6875 15.234375 7.390625 
Q 20.0625 6.109375 24.8125 6.109375 
Q 31.15625 6.109375 34.5625 8.28125 
Q 37.984375 10.453125 37.984375 14.40625 
Q 37.984375 18.0625 35.515625 20.015625 
Q 33.0625 21.96875 24.703125 23.78125 
L 21.578125 24.515625 
Q 13.234375 26.265625 9.515625 29.90625 
Q 5.8125 33.546875 5.8125 39.890625 
Q 5.8125 47.609375 11.28125 51.796875 
Q 16.75 56 26.8125 56 
Q 31.78125 56 36.171875 55.265625 
Q 40.578125 54.546875 44.28125 53.078125 
z
" id="DejaVuSans-115"/>
     <path d="M 18.3125 70.21875 
L 18.3125 54.6875 
L 36.8125 54.6875 
L 36.8125 47.703125 
L 18.3125 47.703125 
L 18.3125 18.015625 
Q 18.3125 11.328125 20.140625 9.421875 
Q 21.96875 7.515625 27.59375 7.515625 
L 36.8125 7.515625 
L 36.8125 0 
L 27.59375 0 
Q 17.1875 0 13.234375 3.875 
Q 9.28125 7.765625 9.28125 18.015625 
L 9.28125 47.703125 
L 2.6875 47.703125 
L 2.6875 54.6875 
L 9.28125 54.6875 
L 9.28125 70.21875 
z
" id="DejaVuSans-116"/>
     <path d="M 41.109375 46.296875 
Q 39.59375 47.171875 37.8125 47.578125 
Q 36.03125 48 33.890625 48 
Q 26.265625 48 22.1875 43.046875 
Q 18.109375 38.09375 18.109375 28.8125 
L 18.109375 0 
L 9.078125 0 
L 9.078125 54.6875 
L 18.109375 54.6875 
L 18.109375 46.1875 
Q 20.953125 51.171875 25.484375 53.578125 
Q 30.03125 56 36.53125 56 
Q 37.453125 56 38.578125 55.875 
Q 39.703125 55.765625 41.0625 55.515625 
z
" id="DejaVuSans-114"/>
     <path d="M 34.28125 27.484375 
Q 23.390625 27.484375 19.1875 25 
Q 14.984375 22.515625 14.984375 16.5 
Q 14.984375 11.71875 18.140625 8.90625 
Q 21.296875 6.109375 26.703125 6.109375 
Q 34.1875 6.109375 38.703125 11.40625 
Q 43.21875 16.703125 43.21875 25.484375 
L 43.21875 27.484375 
z
M 52.203125 31.203125 
L 52.203125 0 
L 43.21875 0 
L 43.21875 8.296875 
Q 40.140625 3.328125 35.546875 0.953125 
Q 30.953125 -1.421875 24.3125 -1.421875 
Q 15.921875 -1.421875 10.953125 3.296875 
Q 6 8.015625 6 15.921875 
Q 6 25.140625 12.171875 29.828125 
Q 18.359375 34.515625 30.609375 34.515625 
L 43.21875 34.515625 
L 43.21875 35.40625 
Q 43.21875 41.609375 39.140625 45 
Q 35.0625 48.390625 27.6875 48.390625 
Q 23 48.390625 18.546875 47.265625 
Q 14.109375 46.140625 10.015625 43.890625 
L 10.015625 52.203125 
Q 14.9375 54.109375 19.578125 55.046875 
Q 24.21875 56 28.609375 56 
Q 40.484375 56 46.34375 49.84375 
Q 52.203125 43.703125 52.203125 31.203125 
z
" id="DejaVuSans-97"/>
     <path d="M 9.421875 54.6875 
L 18.40625 54.6875 
L 18.40625 0 
L 9.421875 0 
z
M 9.421875 75.984375 
L 18.40625 75.984375 
L 18.40625 64.59375 
L 9.421875 64.59375 
z
" id="DejaVuSans-105"/>
     <path d="M 4.203125 54.6875 
L 13.1875 54.6875 
L 24.421875 12.015625 
L 35.59375 54.6875 
L 46.1875 54.6875 
L 57.421875 12.015625 
L 68.609375 54.6875 
L 77.59375 54.6875 
L 63.28125 0 
L 52.6875 0 
L 40.921875 44.828125 
L 29.109375 0 
L 18.5 0 
z
" id="DejaVuSans-119"/>
     <path d="M 25.390625 72.90625 
L 33.6875 72.90625 
L 8.296875 -9.28125 
L 0 -9.28125 
z
" id="DejaVuSans-47"/>
     <path d="M 32.171875 -5.078125 
Q 28.375 -14.84375 24.75 -17.8125 
Q 21.140625 -20.796875 15.09375 -20.796875 
L 7.90625 -20.796875 
L 7.90625 -13.28125 
L 13.1875 -13.28125 
Q 16.890625 -13.28125 18.9375 -11.515625 
Q 21 -9.765625 23.484375 -3.21875 
L 25.09375 0.875 
L 2.984375 54.6875 
L 12.5 54.6875 
L 29.59375 11.921875 
L 46.6875 54.6875 
L 56.203125 54.6875 
z
" id="DejaVuSans-121"/>
     <path d="M 52 44.1875 
Q 55.375 50.25 60.0625 53.125 
Q 64.75 56 71.09375 56 
Q 79.640625 56 84.28125 50.015625 
Q 88.921875 44.046875 88.921875 33.015625 
L 88.921875 0 
L 79.890625 0 
L 79.890625 32.71875 
Q 79.890625 40.578125 77.09375 44.375 
Q 74.3125 48.1875 68.609375 48.1875 
Q 61.625 48.1875 57.5625 43.546875 
Q 53.515625 38.921875 53.515625 30.90625 
L 53.515625 0 
L 44.484375 0 
L 44.484375 32.71875 
Q 44.484375 40.625 41.703125 44.40625 
Q 38.921875 48.1875 33.109375 48.1875 
Q 26.21875 48.1875 22.15625 43.53125 
Q 18.109375 38.875 18.109375 30.90625 
L 18.109375 0 
L 9.078125 0 
L 9.078125 54.6875 
L 18.109375 54.6875 
L 18.109375 46.1875 
Q 21.1875 51.21875 25.484375 53.609375 
Q 29.78125 56 35.6875 56 
Q 41.65625 56 45.828125 52.96875 
Q 50 49.953125 52 44.1875 
z
" id="DejaVuSans-109"/>
     <path d="M 56.203125 29.59375 
L 56.203125 25.203125 
L 14.890625 25.203125 
Q 15.484375 15.921875 20.484375 11.0625 
Q 25.484375 6.203125 34.421875 6.203125 
Q 39.59375 6.203125 44.453125 7.46875 
Q 49.3125 8.734375 54.109375 11.28125 
L 54.109375 2.78125 
Q 49.265625 0.734375 44.1875 -0.34375 
Q 39.109375 -1.421875 33.890625 -1.421875 
Q 20.796875 -1.421875 13.15625 6.1875 
Q 5.515625 13.8125 5.515625 26.8125 
Q 5.515625 40.234375 12.765625 48.109375 
Q 20.015625 56 32.328125 56 
Q 43.359375 56 49.78125 48.890625 
Q 56.203125 41.796875 56.203125 29.59375 
z
M 47.21875 32.234375 
Q 47.125 39.59375 43.09375 43.984375 
Q 39.0625 48.390625 32.421875 48.390625 
Q 24.90625 48.390625 20.390625 44.140625 
Q 15.875 39.890625 15.1875 32.171875 
z
" id="DejaVuSans-101"/>
     <path d="M 37.109375 75.984375 
L 37.109375 68.5 
L 28.515625 68.5 
Q 23.6875 68.5 21.796875 66.546875 
Q 19.921875 64.59375 19.921875 59.515625 
L 19.921875 54.6875 
L 34.71875 54.6875 
L 34.71875 47.703125 
L 19.921875 47.703125 
L 19.921875 0 
L 10.890625 0 
L 10.890625 47.703125 
L 2.296875 47.703125 
L 2.296875 54.6875 
L 10.890625 54.6875 
L 10.890625 58.5 
Q 10.890625 67.625 15.140625 71.796875 
Q 19.390625 75.984375 28.609375 75.984375 
z
" id="DejaVuSans-102"/>
     <path d="M 8.5 21.578125 
L 8.5 54.6875 
L 17.484375 54.6875 
L 17.484375 21.921875 
Q 17.484375 14.15625 20.5 10.265625 
Q 23.53125 6.390625 29.59375 6.390625 
Q 36.859375 6.390625 41.078125 11.03125 
Q 45.3125 15.671875 45.3125 23.6875 
L 45.3125 54.6875 
L 54.296875 54.6875 
L 54.296875 0 
L 45.3125 0 
L 45.3125 8.40625 
Q 42.046875 3.421875 37.71875 1 
Q 33.40625 -1.421875 27.6875 -1.421875 
Q 18.265625 -1.421875 13.375 4.4375 
Q 8.5 10.296875 8.5 21.578125 
z
M 31.109375 56 
z
" id="DejaVuSans-117"/>
    </defs>
    <g transform="translate(41.150937 19.44)scale(0.11 -0.11)">
     <use xlink:href="#DejaVuSans-108"/>
     <use x="27.783203" xlink:href="#DejaVuSans-50"/>
     <use x="91.40625" xlink:href="#DejaVuSans-32"/>
     <use x="123.193359" xlink:href="#DejaVuSans-99"/>
     <use x="178.173828" xlink:href="#DejaVuSans-111"/>
     <use x="239.355469" xlink:href="#DejaVuSans-110"/>
     <use x="302.734375" xlink:href="#DejaVuSans-115"/>
     <use x="354.833984" xlink:href="#DejaVuSans-116"/>
     <use x="394.042969" xlink:href="#DejaVuSans-114"/>
     <use x="435.15625" xlink:href="#DejaVuSans-97"/>
     <use x="496.435547" xlink:href="#DejaVuSans-105"/>
     <use x="524.21875" xlink:href="#DejaVuSans-110"/>
     <use x="587.597656" xlink:href="#DejaVuSans-116"/>
     <use x="626.806641" xlink:href="#DejaVuSans-32"/>
     <use x="658.59375" xlink:href="#DejaVuSans-119"/>
     <use x="740.380859" xlink:href="#DejaVuSans-47"/>
     <use x="774.072266" xlink:href="#DejaVuSans-115"/>
     <use x="826.171875" xlink:href="#DejaVuSans-121"/>
     <use x="885.351562" xlink:href="#DejaVuSans-109"/>
     <use x="982.763672" xlink:href="#DejaVuSans-109"/>
     <use x="1080.175781" xlink:href="#DejaVuSans-101"/>
     <use x="1141.699219" xlink:href="#DejaVuSans-116"/>
     <use x="1180.908203" xlink:href="#DejaVuSans-114"/>
     <use x="1222.021484" xlink:href="#DejaVuSans-105"/>
     <use x="1249.804688" xlink:href="#DejaVuSans-99"/>
     <use x="1304.785156" xlink:href="#DejaVuSans-32"/>
     <use x="1336.572266" xlink:href="#DejaVuSans-108"/>
     <use x="1364.355469" xlink:href="#DejaVuSans-111"/>
     <use x="1425.537109" xlink:href="#DejaVuSans-115"/>
     <use x="1477.636719" xlink:href="#DejaVuSans-115"/>
     <use x="1529.736328" xlink:href="#DejaVuSans-32"/>
     <use x="1561.523438" xlink:href="#DejaVuSans-102"/>
     <use x="1596.728516" xlink:href="#DejaVuSans-117"/>
     <use x="1660.107422" xlink:href="#DejaVuSans-110"/>
     <use x="1723.486328" xlink:href="#DejaVuSans-99"/>
     <use x="1778.466797" xlink:href="#DejaVuSans-116"/>
     <use x="1817.675781" xlink:href="#DejaVuSans-105"/>
     <use x="1845.458984" xlink:href="#DejaVuSans-111"/>
     <use x="1906.640625" xlink:href="#DejaVuSans-110"/>
    </g>
   </g>
  </g>
 </g>
 <defs>
  <clipPath id="p015fef2ac7">
   <rect height="206.6" width="213.915" x="42.54" y="25.44"/>
  </clipPath>
 </defs>
</svg>
