<?xml version="1.0" encoding="utf-8" standalone="no"?>
<!DOCTYPE svg PUBLIC "-//W3C//DTD SVG 1.1//EN"
  "http://www.w3.org/Graphics/SVG/1.1/DTD/svg11.dtd">
<!-- Created with matplotlib (https://matplotlib.org/) -->
<svg height="252pt" version="1.1" viewBox="0 0 252 252" width="252pt" xmlns="http://www.w3.org/2000/svg" xmlns:xlink="http://www.w3.org/1999/xlink">
 <defs>
  <style type="text/css">
*{stroke-linecap:butt;stroke-linejoin:round;}
  </style>
 </defs>
 <g id="figure_1">
  <g id="patch_1">
   <path d="M 0 252 
L 252 252 
L 252 0 
L 0 0 
z
" style="fill:#ffffff;"/>
  </g>
  <g id="axes_1">
   <g id="patch_2">
    <path d="M 58.97 207.16 
L 234.855 207.16 
L 234.855 14.76 
L 58.97 14.76 
z
" style="fill:#ffffff;"/>
   </g>
   <g id="PathCollection_1">
    <defs>
     <path d="M 0 4.743416 
C 1.257969 4.743416 2.464584 4.24362 3.354102 3.354102 
C 4.24362 2.464584 4.743416 1.257969 4.743416 0 
C 4.743416 -1.257969 4.24362 -2.464584 3.354102 -3.354102 
C 2.464584 -4.24362 1.257969 -4.743416 0 -4.743416 
C -1.257969 -4.743416 -2.464584 -4.24362 -3.354102 -3.354102 
C -4.24362 -2.464584 -4.743416 -1.257969 -4.743416 0 
C -4.743416 1.257969 -4.24362 2.464584 -3.354102 3.354102 
C -2.464584 4.24362 -1.257969 4.743416 0 4.743416 
z
" id="m0ce8ecd87f" style="stroke:#000000;"/>
    </defs>
    <g clip-path="url(#pa7ce5eb5d2)">
     <use style="stroke:#000000;" x="145.417158" xlink:href="#m0ce8ecd87f" y="109.921076"/>
    </g>
   </g>
   <g id="matplotlib.axis_1">
    <g id="xtick_1">
     <g id="line2d_1">
      <defs>
       <path d="M 0 0 
L 0 3.5 
" id="meeb8b1686c" style="stroke:#000000;stroke-width:0.8;"/>
      </defs>
      <g>
       <use style="stroke:#000000;stroke-width:0.8;" x="58.97" xlink:href="#meeb8b1686c" y="207.16"/>
      </g>
     </g>
     <g id="text_1">
      <!-- −10 -->
      <defs>
       <path d="M 10.59375 35.5 
L 73.1875 35.5 
L 73.1875 27.203125 
L 10.59375 27.203125 
z
" id="DejaVuSans-8722"/>
       <path d="M 12.40625 8.296875 
L 28.515625 8.296875 
L 28.515625 63.921875 
L 10.984375 60.40625 
L 10.984375 69.390625 
L 28.421875 72.90625 
L 38.28125 72.90625 
L 38.28125 8.296875 
L 54.390625 8.296875 
L 54.390625 0 
L 12.40625 0 
z
" id="DejaVuSans-49"/>
       <path d="M 31.78125 66.40625 
Q 24.171875 66.40625 20.328125 58.90625 
Q 16.5 51.421875 16.5 36.375 
Q 16.5 21.390625 20.328125 13.890625 
Q 24.171875 6.390625 31.78125 6.390625 
Q 39.453125 6.390625 43.28125 13.890625 
Q 47.125 21.390625 47.125 36.375 
Q 47.125 51.421875 43.28125 58.90625 
Q 39.453125 66.40625 31.78125 66.40625 
z
M 31.78125 74.21875 
Q 44.046875 74.21875 50.515625 64.515625 
Q 56.984375 54.828125 56.984375 36.375 
Q 56.984375 17.96875 50.515625 8.265625 
Q 44.046875 -1.421875 31.78125 -1.421875 
Q 19.53125 -1.421875 13.0625 8.265625 
Q 6.59375 17.96875 6.59375 36.375 
Q 6.59375 54.828125 13.0625 64.515625 
Q 19.53125 74.21875 31.78125 74.21875 
z
" id="DejaVuSans-48"/>
      </defs>
      <g transform="translate(48.417656 221.758438)scale(0.1 -0.1)">
       <use xlink:href="#DejaVuSans-8722"/>
       <use x="83.789062" xlink:href="#DejaVuSans-49"/>
       <use x="147.412109" xlink:href="#DejaVuSans-48"/>
      </g>
     </g>
    </g>
    <g id="xtick_2">
     <g id="line2d_2">
      <g>
       <use style="stroke:#000000;stroke-width:0.8;" x="102.94125" xlink:href="#meeb8b1686c" y="207.16"/>
      </g>
     </g>
     <g id="text_2">
      <!-- −5 -->
      <defs>
       <path d="M 10.796875 72.90625 
L 49.515625 72.90625 
L 49.515625 64.59375 
L 19.828125 64.59375 
L 19.828125 46.734375 
Q 21.96875 47.46875 24.109375 47.828125 
Q 26.265625 48.1875 28.421875 48.1875 
Q 40.625 48.1875 47.75 41.5 
Q 54.890625 34.8125 54.890625 23.390625 
Q 54.890625 11.625 47.5625 5.09375 
Q 40.234375 -1.421875 26.90625 -1.421875 
Q 22.3125 -1.421875 17.546875 -0.640625 
Q 12.796875 0.140625 7.71875 1.703125 
L 7.71875 11.625 
Q 12.109375 9.234375 16.796875 8.0625 
Q 21.484375 6.890625 26.703125 6.890625 
Q 35.15625 6.890625 40.078125 11.328125 
Q 45.015625 15.765625 45.015625 23.390625 
Q 45.015625 31 40.078125 35.4375 
Q 35.15625 39.890625 26.703125 39.890625 
Q 22.75 39.890625 18.8125 39.015625 
Q 14.890625 38.140625 10.796875 36.28125 
z
" id="DejaVuSans-53"/>
      </defs>
      <g transform="translate(95.570156 221.758438)scale(0.1 -0.1)">
       <use xlink:href="#DejaVuSans-8722"/>
       <use x="83.789062" xlink:href="#DejaVuSans-53"/>
      </g>
     </g>
    </g>
    <g id="xtick_3">
     <g id="line2d_3">
      <g>
       <use style="stroke:#000000;stroke-width:0.8;" x="146.9125" xlink:href="#meeb8b1686c" y="207.16"/>
      </g>
     </g>
     <g id="text_3">
      <!-- 0 -->
      <g transform="translate(143.73125 221.758438)scale(0.1 -0.1)">
       <use xlink:href="#DejaVuSans-48"/>
      </g>
     </g>
    </g>
    <g id="xtick_4">
     <g id="line2d_4">
      <g>
       <use style="stroke:#000000;stroke-width:0.8;" x="190.88375" xlink:href="#meeb8b1686c" y="207.16"/>
      </g>
     </g>
     <g id="text_4">
      <!-- 5 -->
      <g transform="translate(187.7025 221.758438)scale(0.1 -0.1)">
       <use xlink:href="#DejaVuSans-53"/>
      </g>
     </g>
    </g>
    <g id="xtick_5">
     <g id="line2d_5">
      <g>
       <use style="stroke:#000000;stroke-width:0.8;" x="234.855" xlink:href="#meeb8b1686c" y="207.16"/>
      </g>
     </g>
     <g id="text_5">
      <!-- 10 -->
      <g transform="translate(228.4925 221.758438)scale(0.1 -0.1)">
       <use xlink:href="#DejaVuSans-49"/>
       <use x="63.623047" xlink:href="#DejaVuSans-48"/>
      </g>
     </g>
    </g>
    <g id="text_6">
     <!-- $\beta_0$ -->
     <defs>
      <path d="M 13.625 3.375 
L 8.9375 -20.796875 
L -0.09375 -20.796875 
L 14.5 54.34375 
Q 18.84375 76.609375 39.65625 76.609375 
Q 60.75 76.609375 57.171875 57.8125 
Q 54.734375 44.4375 45.21875 39.546875 
Q 58.015625 35.15625 55.515625 22.125 
Q 51.125 -1.078125 27.484375 -1.03125 
Q 17.140625 -0.984375 13.625 3.375 
z
M 15.921875 15.09375 
Q 19.671875 6.59375 29.296875 6.640625 
Q 43.359375 6.640625 46.34375 21.96875 
Q 49.03125 35.75 26.171875 34.671875 
L 27.78125 42.96875 
Q 45.453125 42.671875 48.53125 58.59375 
Q 50.640625 69.34375 39.203125 69.28125 
Q 26.421875 69.28125 23.484375 54.046875 
z
" id="DejaVuSans-Oblique-946"/>
     </defs>
     <g transform="translate(141.3125 235.538125)scale(0.1 -0.1)">
      <use transform="translate(0 0.390625)" xlink:href="#DejaVuSans-Oblique-946"/>
      <use transform="translate(63.818359 -16.015625)scale(0.7)" xlink:href="#DejaVuSans-48"/>
     </g>
    </g>
   </g>
   <g id="matplotlib.axis_2">
    <g id="ytick_1">
     <g id="line2d_6">
      <defs>
       <path d="M 0 0 
L -3.5 0 
" id="m0e8ce84133" style="stroke:#000000;stroke-width:0.8;"/>
      </defs>
      <g>
       <use style="stroke:#000000;stroke-width:0.8;" x="58.97" xlink:href="#m0e8ce84133" y="207.16"/>
      </g>
     </g>
     <g id="text_7">
      <!-- −1.0 -->
      <defs>
       <path d="M 10.6875 12.40625 
L 21 12.40625 
L 21 0 
L 10.6875 0 
z
" id="DejaVuSans-46"/>
      </defs>
      <g transform="translate(27.687188 210.959219)scale(0.1 -0.1)">
       <use xlink:href="#DejaVuSans-8722"/>
       <use x="83.789062" xlink:href="#DejaVuSans-49"/>
       <use x="147.412109" xlink:href="#DejaVuSans-46"/>
       <use x="179.199219" xlink:href="#DejaVuSans-48"/>
      </g>
     </g>
    </g>
    <g id="ytick_2">
     <g id="line2d_7">
      <g>
       <use style="stroke:#000000;stroke-width:0.8;" x="58.97" xlink:href="#m0e8ce84133" y="183.11"/>
      </g>
     </g>
     <g id="text_8">
      <!-- −0.5 -->
      <g transform="translate(27.687188 186.909219)scale(0.1 -0.1)">
       <use xlink:href="#DejaVuSans-8722"/>
       <use x="83.789062" xlink:href="#DejaVuSans-48"/>
       <use x="147.412109" xlink:href="#DejaVuSans-46"/>
       <use x="179.199219" xlink:href="#DejaVuSans-53"/>
      </g>
     </g>
    </g>
    <g id="ytick_3">
     <g id="line2d_8">
      <g>
       <use style="stroke:#000000;stroke-width:0.8;" x="58.97" xlink:href="#m0e8ce84133" y="159.06"/>
      </g>
     </g>
     <g id="text_9">
      <!-- 0.0 -->
      <g transform="translate(36.066875 162.859219)scale(0.1 -0.1)">
       <use xlink:href="#DejaVuSans-48"/>
       <use x="63.623047" xlink:href="#DejaVuSans-46"/>
       <use x="95.410156" xlink:href="#DejaVuSans-48"/>
      </g>
     </g>
    </g>
    <g id="ytick_4">
     <g id="line2d_9">
      <g>
       <use style="stroke:#000000;stroke-width:0.8;" x="58.97" xlink:href="#m0e8ce84133" y="135.01"/>
      </g>
     </g>
     <g id="text_10">
      <!-- 0.5 -->
      <g transform="translate(36.066875 138.809219)scale(0.1 -0.1)">
       <use xlink:href="#DejaVuSans-48"/>
       <use x="63.623047" xlink:href="#DejaVuSans-46"/>
       <use x="95.410156" xlink:href="#DejaVuSans-53"/>
      </g>
     </g>
    </g>
    <g id="ytick_5">
     <g id="line2d_10">
      <g>
       <use style="stroke:#000000;stroke-width:0.8;" x="58.97" xlink:href="#m0e8ce84133" y="110.96"/>
      </g>
     </g>
     <g id="text_11">
      <!-- 1.0 -->
      <g transform="translate(36.066875 114.759219)scale(0.1 -0.1)">
       <use xlink:href="#DejaVuSans-49"/>
       <use x="63.623047" xlink:href="#DejaVuSans-46"/>
       <use x="95.410156" xlink:href="#DejaVuSans-48"/>
      </g>
     </g>
    </g>
    <g id="ytick_6">
     <g id="line2d_11">
      <g>
       <use style="stroke:#000000;stroke-width:0.8;" x="58.97" xlink:href="#m0e8ce84133" y="86.91"/>
      </g>
     </g>
     <g id="text_12">
      <!-- 1.5 -->
      <g transform="translate(36.066875 90.709219)scale(0.1 -0.1)">
       <use xlink:href="#DejaVuSans-49"/>
       <use x="63.623047" xlink:href="#DejaVuSans-46"/>
       <use x="95.410156" xlink:href="#DejaVuSans-53"/>
      </g>
     </g>
    </g>
    <g id="ytick_7">
     <g id="line2d_12">
      <g>
       <use style="stroke:#000000;stroke-width:0.8;" x="58.97" xlink:href="#m0e8ce84133" y="62.86"/>
      </g>
     </g>
     <g id="text_13">
      <!-- 2.0 -->
      <defs>
       <path d="M 19.1875 8.296875 
L 53.609375 8.296875 
L 53.609375 0 
L 7.328125 0 
L 7.328125 8.296875 
Q 12.9375 14.109375 22.625 23.890625 
Q 32.328125 33.6875 34.8125 36.53125 
Q 39.546875 41.84375 41.421875 45.53125 
Q 43.3125 49.21875 43.3125 52.78125 
Q 43.3125 58.59375 39.234375 62.25 
Q 35.15625 65.921875 28.609375 65.921875 
Q 23.96875 65.921875 18.8125 64.3125 
Q 13.671875 62.703125 7.8125 59.421875 
L 7.8125 69.390625 
Q 13.765625 71.78125 18.9375 73 
Q 24.125 74.21875 28.421875 74.21875 
Q 39.75 74.21875 46.484375 68.546875 
Q 53.21875 62.890625 53.21875 53.421875 
Q 53.21875 48.921875 51.53125 44.890625 
Q 49.859375 40.875 45.40625 35.40625 
Q 44.1875 33.984375 37.640625 27.21875 
Q 31.109375 20.453125 19.1875 8.296875 
z
" id="DejaVuSans-50"/>
      </defs>
      <g transform="translate(36.066875 66.659219)scale(0.1 -0.1)">
       <use xlink:href="#DejaVuSans-50"/>
       <use x="63.623047" xlink:href="#DejaVuSans-46"/>
       <use x="95.410156" xlink:href="#DejaVuSans-48"/>
      </g>
     </g>
    </g>
    <g id="ytick_8">
     <g id="line2d_13">
      <g>
       <use style="stroke:#000000;stroke-width:0.8;" x="58.97" xlink:href="#m0e8ce84133" y="38.81"/>
      </g>
     </g>
     <g id="text_14">
      <!-- 2.5 -->
      <g transform="translate(36.066875 42.609219)scale(0.1 -0.1)">
       <use xlink:href="#DejaVuSans-50"/>
       <use x="63.623047" xlink:href="#DejaVuSans-46"/>
       <use x="95.410156" xlink:href="#DejaVuSans-53"/>
      </g>
     </g>
    </g>
    <g id="ytick_9">
     <g id="line2d_14">
      <g>
       <use style="stroke:#000000;stroke-width:0.8;" x="58.97" xlink:href="#m0e8ce84133" y="14.76"/>
      </g>
     </g>
     <g id="text_15">
      <!-- 3.0 -->
      <defs>
       <path d="M 40.578125 39.3125 
Q 47.65625 37.796875 51.625 33 
Q 55.609375 28.21875 55.609375 21.1875 
Q 55.609375 10.40625 48.1875 4.484375 
Q 40.765625 -1.421875 27.09375 -1.421875 
Q 22.515625 -1.421875 17.65625 -0.515625 
Q 12.796875 0.390625 7.625 2.203125 
L 7.625 11.71875 
Q 11.71875 9.328125 16.59375 8.109375 
Q 21.484375 6.890625 26.8125 6.890625 
Q 36.078125 6.890625 40.9375 10.546875 
Q 45.796875 14.203125 45.796875 21.1875 
Q 45.796875 27.640625 41.28125 31.265625 
Q 36.765625 34.90625 28.71875 34.90625 
L 20.21875 34.90625 
L 20.21875 43.015625 
L 29.109375 43.015625 
Q 36.375 43.015625 40.234375 45.921875 
Q 44.09375 48.828125 44.09375 54.296875 
Q 44.09375 59.90625 40.109375 62.90625 
Q 36.140625 65.921875 28.71875 65.921875 
Q 24.65625 65.921875 20.015625 65.03125 
Q 15.375 64.15625 9.8125 62.3125 
L 9.8125 71.09375 
Q 15.4375 72.65625 20.34375 73.4375 
Q 25.25 74.21875 29.59375 74.21875 
Q 40.828125 74.21875 47.359375 69.109375 
Q 53.90625 64.015625 53.90625 55.328125 
Q 53.90625 49.265625 50.4375 45.09375 
Q 46.96875 40.921875 40.578125 39.3125 
z
" id="DejaVuSans-51"/>
      </defs>
      <g transform="translate(36.066875 18.559219)scale(0.1 -0.1)">
       <use xlink:href="#DejaVuSans-51"/>
       <use x="63.623047" xlink:href="#DejaVuSans-46"/>
       <use x="95.410156" xlink:href="#DejaVuSans-48"/>
      </g>
     </g>
    </g>
    <g id="text_16">
     <!-- $\beta_1$ -->
     <g transform="translate(21.587188 116.56)rotate(-90)scale(0.1 -0.1)">
      <use transform="translate(0 0.390625)" xlink:href="#DejaVuSans-Oblique-946"/>
      <use transform="translate(63.818359 -16.015625)scale(0.7)" xlink:href="#DejaVuSans-49"/>
     </g>
    </g>
   </g>
   <g id="LineCollection_1"/>
   <g id="LineCollection_2">
    <path clip-path="url(#pa7ce5eb5d2)" d="M 187.63755 164.41936 
L 184.096242 163.217374 
L 180.554933 161.811711 
L 175.833188 159.643604 
L 171.111443 157.197908 
L 166.682634 154.687273 
L 161.667953 151.586095 
L 156.946208 148.472115 
L 151.044027 144.298604 
L 145.141846 139.840173 
L 140.420101 136.06758 
L 135.698356 132.111986 
L 130.976611 127.969389 
L 126.208175 123.592323 
L 119.172248 116.696529 
L 114.582756 111.931717 
L 108.548322 105.210923 
L 105.007013 101.009223 
L 102.646141 98.084201 
L 98.419709 92.497374 
L 94.383087 86.619707 
L 92.00207 82.780202 
L 89.661342 78.553592 
L 87.933569 75.006465 
L 86.36273 71.119596 
L 85.219494 67.232727 
L 84.850392 65.289293 
L 84.668478 63.345859 
L 84.713677 61.402424 
L 85.077959 59.45899 
L 86.120034 57.268654 
L 87.796894 55.572121 
L 88.480906 55.160011 
L 89.661342 54.633655 
L 90.841779 54.273979 
L 93.202651 53.930147 
L 95.563523 53.948409 
L 97.924396 54.220478 
L 100.285268 54.677329 
L 103.826577 55.616016 
L 108.548322 57.307166 
L 112.089631 58.824397 
L 115.63094 60.509843 
L 120.352685 62.986226 
L 124.376399 65.289293 
L 130.976611 69.420069 
L 136.878792 73.44594 
L 142.780973 77.767956 
L 147.502718 81.425223 
L 153.404899 86.253808 
L 158.126644 90.324969 
L 162.6862 94.440808 
L 168.80175 100.271111 
L 175.833188 107.476858 
L 179.924483 111.931717 
L 185.276678 118.158399 
L 189.617675 123.592323 
L 193.891605 129.422626 
L 197.73246 135.252929 
L 200.622349 140.263027 
L 202.055747 143.026667 
L 203.786094 146.913535 
L 205.144772 150.800404 
L 205.644789 152.743838 
L 205.996752 154.687273 
L 206.169577 156.630707 
L 206.103741 158.574141 
L 205.710064 160.517576 
L 204.796885 162.46101 
L 204.163658 163.236328 
L 202.853385 164.404444 
L 201.802785 164.955083 
L 200.622349 165.393845 
L 199.441913 165.684827 
L 197.08104 165.92979 
L 194.720168 165.845719 
L 192.359295 165.528098 
L 188.817987 164.743232 
L 187.63755 164.41936 
L 187.63755 164.41936 
" style="fill:none;stroke:#445acc;"/>
   </g>
   <g id="LineCollection_3">
    <path clip-path="url(#pa7ce5eb5d2)" d="M 58.97 35.311999 
L 59.567945 34.194343 
L 60.150436 33.404349 
L 61.330872 32.123129 
L 62.511309 31.248653 
L 64.226378 30.307475 
L 66.052617 29.683727 
L 68.41349 29.215756 
L 70.774362 29.033847 
L 73.135235 29.073472 
L 75.496107 29.288155 
L 79.037416 29.865704 
L 82.578725 30.70321 
L 87.30047 32.135356 
L 90.841779 33.425454 
L 95.563523 35.359072 
L 100.285268 37.518004 
L 105.299952 40.024646 
L 112.374256 43.911515 
L 119.172248 47.984869 
L 126.254866 52.554825 
L 132.157047 56.591468 
L 138.059228 60.830403 
L 143.997066 65.289293 
L 153.404899 72.781487 
L 158.389038 76.949899 
L 167.245063 84.723636 
L 175.833188 92.731211 
L 183.468054 100.271111 
L 191.178859 108.349828 
L 197.08104 114.900391 
L 201.802785 120.401774 
L 206.52453 126.185701 
L 210.542516 131.366061 
L 214.801002 137.196364 
L 218.757958 143.026667 
L 222.394394 148.85697 
L 225.666947 154.687273 
L 227.772383 158.91736 
L 229.348944 162.46101 
L 230.833966 166.347879 
L 232.021432 170.234747 
L 232.494128 172.216871 
L 232.838248 174.121616 
L 233.071452 176.065051 
L 233.162521 178.008485 
L 233.07942 179.951919 
L 232.779704 181.895354 
L 232.187931 183.838788 
L 231.18576 185.782222 
L 229.493131 187.725657 
L 228.952819 188.156878 
L 227.772383 188.933419 
L 226.290526 189.669091 
L 224.231074 190.299347 
L 221.870201 190.690921 
L 219.509329 190.81551 
L 217.148456 190.73198 
L 213.607148 190.306873 
L 210.065839 189.604534 
L 206.52453 188.645308 
L 202.983221 187.515967 
L 198.261477 185.748314 
L 192.359295 183.176547 
L 186.457114 180.291729 
L 181.735369 177.774739 
L 174.652752 173.683214 
L 167.570134 169.252169 
L 161.667953 165.321992 
L 155.765772 161.184951 
L 149.568763 156.630707 
L 141.600537 150.441025 
L 134.517919 144.640599 
L 127.435302 138.545726 
L 121.533121 133.246594 
L 113.270067 125.44053 
L 105.597759 117.76202 
L 97.924396 109.606762 
L 92.022215 102.954958 
L 88.096104 98.327677 
L 81.875259 90.553939 
L 76.676544 83.536488 
L 73.451846 78.893333 
L 69.593926 72.895959 
L 66.287787 67.232727 
L 63.283705 61.402424 
L 61.330872 56.987457 
L 60.04381 53.628687 
L 58.97 50.167978 
L 58.97 50.167978 
" style="fill:none;stroke:#4f69d9;"/>
   </g>
   <g id="LineCollection_4">
    <path clip-path="url(#pa7ce5eb5d2)" d="M 221.288018 207.16 
L 217.148456 205.852668 
L 212.426711 204.14019 
L 207.704966 202.216978 
L 202.983221 200.10692 
L 197.482598 197.442828 
L 191.178859 194.12403 
L 185.276678 190.797502 
L 179.374497 187.2757 
L 172.291879 182.798198 
L 166.389698 178.875042 
L 159.546479 174.121616 
L 151.044027 167.896239 
L 142.780973 161.527463 
L 135.698356 155.821716 
L 128.615738 149.882408 
L 122.713557 144.756468 
L 114.353224 137.196364 
L 105.007013 128.29938 
L 99.104832 122.430445 
L 93.202651 116.346254 
L 88.480906 111.306367 
L 82.578725 104.771326 
L 77.85698 99.329824 
L 73.135235 93.675014 
L 68.41349 87.770097 
L 64.587078 82.780202 
L 58.97 75.014925 
L 58.97 75.014925 
" style="fill:none;stroke:#5977e3;"/>
    <path clip-path="url(#pa7ce5eb5d2)" d="M 75.90867 14.76 
L 81.398289 16.890156 
L 87.30047 19.480571 
L 93.617367 22.533737 
L 100.942699 26.420606 
L 107.721228 30.307475 
L 115.63094 35.173021 
L 121.533121 39.010382 
L 128.726167 43.911515 
L 138.059228 50.655162 
L 145.141846 56.033577 
L 153.404899 62.60422 
L 159.307081 67.484978 
L 168.032033 75.006465 
L 177.013624 83.144345 
L 185.276678 91.003172 
L 192.638932 98.327677 
L 200.622349 106.669404 
L 206.52453 113.126069 
L 211.246275 118.493759 
L 215.96802 124.064362 
L 220.689765 129.872455 
L 225.41151 135.96095 
L 229.206467 141.083232 
L 233.674564 147.475343 
L 234.855 149.232679 
L 234.855 149.232679 
" style="fill:none;stroke:#5977e3;"/>
   </g>
   <g id="LineCollection_5">
    <path clip-path="url(#pa7ce5eb5d2)" d="M 197.844777 207.16 
L 189.998423 202.691485 
L 182.915805 198.403412 
L 175.833188 193.891186 
L 168.75057 189.156265 
L 160.487517 183.370034 
L 152.224463 177.305482 
L 143.961409 170.970529 
L 136.878792 165.324949 
L 129.796174 159.479715 
L 122.713557 153.431657 
L 115.335324 146.913535 
L 105.007013 137.382341 
L 98.746338 131.366061 
L 89.040782 121.648889 
L 79.819583 111.931717 
L 71.954799 103.208625 
L 66.052617 96.37746 
L 58.97 87.760538 
L 58.97 87.760538 
" style="fill:none;stroke:#6485ec;"/>
    <path clip-path="url(#pa7ce5eb5d2)" d="M 96.713618 14.76 
L 103.826577 18.929279 
L 112.730652 24.477172 
L 121.537731 30.307475 
L 130.976611 36.926374 
L 138.059228 42.119321 
L 147.987302 49.741818 
L 158.126644 57.932756 
L 166.83149 65.289293 
L 177.013624 74.301976 
L 184.10751 80.836768 
L 194.204571 90.553939 
L 202.983221 99.424802 
L 209.334236 106.101414 
L 218.167525 115.818586 
L 225.41151 124.219936 
L 231.313691 131.3852 
L 234.855 135.866013 
L 234.855 135.866013 
" style="fill:none;stroke:#6485ec;"/>
   </g>
   <g id="LineCollection_6">
    <path clip-path="url(#pa7ce5eb5d2)" d="M 184.411538 207.16 
L 175.460957 201.329697 
L 166.389698 195.108284 
L 156.946208 188.31317 
L 149.863591 183.007595 
L 141.600537 176.595652 
L 133.691841 170.234747 
L 123.893993 162.03674 
L 114.450503 153.802899 
L 106.825204 146.913535 
L 96.487771 137.196364 
L 86.608042 127.479192 
L 77.165804 117.76202 
L 68.151366 108.044848 
L 59.564498 98.327677 
L 58.97 97.631297 
L 58.97 97.631297 
" style="fill:none;stroke:#6f92f3;"/>
    <path clip-path="url(#pa7ce5eb5d2)" d="M 109.670042 14.76 
L 118.454084 20.590303 
L 127.435302 26.850871 
L 136.878792 33.74627 
L 143.961409 39.127957 
L 151.044027 44.684831 
L 159.6662 51.685253 
L 169.931007 60.378611 
L 177.727239 67.232727 
L 187.63755 76.293778 
L 194.720168 83.00682 
L 204.163658 92.300425 
L 210.075538 98.327677 
L 219.509329 108.325521 
L 226.591946 116.163725 
L 233.674564 124.331582 
L 234.855 125.722304 
L 234.855 125.722304 
" style="fill:none;stroke:#6f92f3;"/>
   </g>
   <g id="LineCollection_7">
    <path clip-path="url(#pa7ce5eb5d2)" d="M 173.895566 207.16 
L 164.028826 200.24428 
L 156.946208 195.086857 
L 147.202696 187.725657 
L 136.878792 179.586828 
L 127.435302 171.842201 
L 117.991812 163.802075 
L 109.728758 156.525469 
L 99.104832 146.811851 
L 88.480906 136.674471 
L 80.217852 128.479509 
L 73.135235 121.223889 
L 64.872181 112.457241 
L 58.97 105.984624 
L 58.97 105.984624 
" style="fill:none;stroke:#7b9ff9;"/>
    <path clip-path="url(#pa7ce5eb5d2)" d="M 119.954497 14.76 
L 129.796174 21.756295 
L 138.059228 27.870706 
L 146.322282 34.202613 
L 156.946208 42.678632 
L 165.477806 49.741818 
L 176.760485 59.45899 
L 187.63755 69.240329 
L 198.261477 79.211399 
L 207.878613 88.610505 
L 217.422815 98.327677 
L 226.591946 108.061643 
L 234.855 117.218181 
L 234.855 117.218181 
" style="fill:none;stroke:#7b9ff9;"/>
   </g>
   <g id="LineCollection_8">
    <path clip-path="url(#pa7ce5eb5d2)" d="M 164.955244 207.16 
L 154.373132 199.386263 
L 142.780973 190.481042 
L 134.446005 183.838788 
L 122.70558 174.121616 
L 110.909195 163.927542 
L 101.465705 155.450361 
L 93.202651 147.791081 
L 84.939597 139.894469 
L 77.85698 132.927965 
L 68.41349 123.330758 
L 59.455945 113.875152 
L 58.97 113.348363 
L 58.97 113.348363 
" style="fill:none;stroke:#86a9fc;"/>
    <path clip-path="url(#pa7ce5eb5d2)" d="M 128.753648 14.76 
L 139.239664 22.551904 
L 151.044027 31.721389 
L 159.307081 38.382934 
L 169.931007 47.254009 
L 178.19406 54.393268 
L 186.457114 61.74545 
L 196.644492 71.119596 
L 206.813674 80.836768 
L 217.148456 91.110111 
L 225.41151 99.631585 
L 232.494128 107.17534 
L 234.855 109.738622 
L 234.855 109.738622 
" style="fill:none;stroke:#86a9fc;"/>
   </g>
   <g id="LineCollection_9">
    <path clip-path="url(#pa7ce5eb5d2)" d="M 157.042249 207.16 
L 146.322282 199.012374 
L 135.698356 190.622525 
L 127.378915 183.838788 
L 115.63094 173.91625 
L 104.787611 164.404444 
L 93.202651 153.843734 
L 84.939597 146.054263 
L 76.676544 138.036167 
L 68.41349 129.777905 
L 61.330872 122.48929 
L 58.97 120.018593 
L 58.97 120.018593 
" style="fill:none;stroke:#93b5fe;"/>
    <path clip-path="url(#pa7ce5eb5d2)" d="M 136.56631 14.76 
L 147.502718 23.160529 
L 156.946208 30.678232 
L 167.570134 39.437473 
L 175.833188 46.471625 
L 185.276678 54.754936 
L 193.539732 62.222176 
L 201.802785 69.902365 
L 210.065839 77.805998 
L 218.328893 85.944273 
L 226.591946 94.32915 
L 233.674564 101.736997 
L 234.855 102.992755 
L 234.855 102.992755 
" style="fill:none;stroke:#93b5fe;"/>
   </g>
   <g id="LineCollection_10">
    <path clip-path="url(#pa7ce5eb5d2)" d="M 149.867738 207.16 
L 149.863591 207.156814 
L 148.683154 206.246292 
L 147.502718 205.340905 
L 147.341058 205.216566 
L 146.322282 204.424396 
L 145.141846 203.510588 
L 144.83556 203.273131 
L 143.961409 202.587986 
L 142.780973 201.665879 
L 142.350758 201.329697 
L 141.600537 200.737013 
L 140.420101 199.806729 
L 139.886239 199.386263 
L 139.239664 198.871424 
L 138.059228 197.933088 
L 137.441597 197.442828 
L 136.878792 196.99117 
L 135.698356 196.044904 
L 135.01644 195.499394 
L 134.517919 195.096198 
L 133.337483 194.142129 
L 132.610384 193.55596 
L 132.157047 193.186458 
L 130.976611 192.224712 
L 130.223055 191.612525 
L 129.796174 191.261897 
L 128.615738 190.292601 
L 127.854091 189.669091 
L 127.435302 189.322464 
L 126.254866 188.345747 
L 125.503137 187.725657 
L 125.07443 187.368106 
L 123.893993 186.384096 
L 123.169848 185.782222 
L 122.713557 185.398771 
L 121.533121 184.407599 
L 120.853888 183.838788 
L 120.352685 183.414406 
L 119.172248 182.416202 
L 118.554928 181.895354 
L 117.991812 181.414958 
L 116.811376 180.409855 
L 116.27265 179.951919 
L 115.63094 179.400374 
L 114.450503 178.388505 
L 114.006741 178.008485 
L 113.270067 177.3706 
L 112.089631 176.3521 
L 111.756897 176.065051 
L 110.909195 175.325584 
L 109.728758 174.300586 
L 109.522822 174.121616 
L 108.548322 173.265269 
L 107.367886 172.23391 
L 107.304227 172.178182 
L 106.18745 171.189604 
L 105.101995 170.234747 
L 105.007013 170.150249 
L 103.826577 169.098532 
L 102.915642 168.291313 
L 102.646141 168.049794 
L 101.465705 166.992 
L 100.744096 166.347879 
L 100.285268 165.93368 
L 99.104832 164.869952 
L 98.587089 164.404444 
L 97.924396 163.801851 
L 96.74396 162.732332 
L 96.44436 162.46101 
L 95.563523 161.654251 
L 94.383087 160.579087 
L 94.315651 160.517576 
L 93.202651 159.490822 
L 92.202881 158.574141 
L 92.022215 158.406585 
L 90.841779 157.311508 
L 90.104589 156.630707 
L 89.661342 156.216651 
L 88.480906 155.116251 
L 88.019709 154.687273 
L 87.30047 154.010564 
L 86.120034 152.904993 
L 85.948005 152.743838 
L 84.939597 151.788265 
L 83.890803 150.800404 
L 83.759161 150.674962 
L 82.578725 149.549695 
L 81.848503 148.85697 
L 81.398289 148.424879 
L 80.217852 147.294794 
L 79.818802 146.913535 
L 79.037416 146.158245 
L 77.85698 145.023502 
L 77.801481 144.970101 
L 76.676544 143.875 
L 75.799882 143.026667 
L 75.496107 142.729221 
L 74.315671 141.57508 
L 73.81099 141.083232 
L 73.135235 140.416839 
L 71.954799 139.258424 
L 71.833933 139.139798 
L 70.774362 138.08749 
L 69.871744 137.196364 
L 69.593926 136.918781 
L 68.41349 135.741111 
L 67.922499 135.252929 
L 67.233054 134.559168 
L 66.052617 133.377636 
L 65.984565 133.309495 
L 64.872181 132.182219 
L 64.062038 131.366061 
L 63.691745 130.988462 
L 62.511309 129.787869 
L 62.151308 129.422626 
L 61.330872 128.580063 
L 60.252568 127.479192 
L 60.150436 127.373632 
L 58.97 126.153946 
" style="fill:none;stroke:#9ebeff;"/>
    <path clip-path="url(#pa7ce5eb5d2)" d="M 143.666707 14.76 
L 143.961409 14.988723 
L 145.141846 15.906308 
L 146.171959 16.703434 
L 146.322282 16.821042 
L 147.502718 17.747019 
L 148.656355 18.646869 
L 148.683154 18.668003 
L 149.863591 19.60225 
L 151.044027 20.530904 
L 151.119293 20.590303 
L 152.224463 21.47205 
L 153.404899 22.408684 
L 153.56213 22.533737 
L 154.585336 23.356471 
L 155.765772 24.300961 
L 155.985617 24.477172 
L 156.946208 25.255562 
L 158.126644 26.207783 
L 158.390133 26.420606 
L 159.307081 27.169375 
L 160.487517 28.129203 
L 160.776047 28.36404 
L 161.667953 29.097961 
L 162.848389 30.06527 
L 163.143717 30.307475 
L 164.028826 31.041373 
L 165.209262 32.016034 
L 165.493493 32.250909 
L 166.389698 32.999662 
L 167.570134 33.981547 
L 167.825716 34.194343 
L 168.75057 34.97288 
L 169.931007 35.961859 
L 170.140719 36.137778 
L 171.111443 36.961079 
L 172.291879 37.957023 
L 172.438826 38.081212 
L 173.472315 38.964312 
L 174.652752 39.96709 
L 174.720353 40.024646 
L 175.833188 40.982633 
L 176.985252 41.968081 
L 177.013624 41.992621 
L 178.19406 43.016093 
L 179.233132 43.911515 
L 179.374497 44.034703 
L 180.554933 45.064747 
L 181.465155 45.854949 
L 181.735369 46.09217 
L 182.915805 47.128647 
L 183.681613 47.798384 
L 184.096242 48.165076 
L 185.276678 49.207848 
L 185.882793 49.741818 
L 186.457114 50.253476 
L 187.63755 51.302405 
L 188.068973 51.685253 
L 188.817987 52.357426 
L 189.998423 53.41237 
L 190.240426 53.628687 
L 191.178859 54.476982 
L 192.359295 55.537799 
L 192.397417 55.572121 
L 193.539732 56.6122 
L 194.538006 57.515556 
L 194.720168 57.682281 
L 195.900604 58.763135 
L 196.66404 59.45899 
L 197.08104 59.843427 
L 198.261477 60.929844 
L 198.776238 61.402424 
L 199.441913 62.020552 
L 200.622349 63.112385 
L 200.874849 63.345859 
L 201.802785 64.213716 
L 202.959833 65.289293 
L 202.983221 65.311286 
L 204.163658 66.422975 
L 205.028521 67.232727 
L 205.344094 67.531624 
L 206.52453 68.64839 
L 207.084213 69.176162 
L 207.704966 69.768332 
L 208.885403 70.890019 
L 209.127138 71.119596 
L 210.065839 72.021471 
L 211.15646 73.06303 
L 211.246275 73.149816 
L 212.426711 74.291101 
L 213.170457 75.006465 
L 213.607148 75.431447 
L 214.787584 76.577284 
L 215.172246 76.949899 
L 215.96802 77.729857 
L 217.148456 78.880081 
L 217.162041 78.893333 
L 218.328893 80.045107 
L 219.135694 80.836768 
L 219.509329 81.20778 
L 220.689765 82.377262 
L 221.097518 82.780202 
L 221.870201 83.552919 
L 223.047843 84.723636 
L 223.050638 84.726448 
L 224.231074 85.915262 
L 224.981987 86.667071 
L 225.41151 87.10233 
L 226.591946 88.294875 
L 226.904984 88.610505 
L 227.772383 89.495726 
L 228.815432 90.553939 
L 228.952819 90.69504 
L 230.133255 91.906706 
L 230.711355 92.497374 
L 231.313691 93.120393 
L 232.494128 94.335335 
L 232.596632 94.440808 
L 233.674564 95.563652 
L 234.466971 96.384242 
L 234.855 96.791094 
" style="fill:none;stroke:#9ebeff;"/>
   </g>
   <g id="LineCollection_11">
    <path clip-path="url(#pa7ce5eb5d2)" d="M 143.259162 207.16 
L 142.780973 206.783943 
L 141.600537 205.855746 
L 140.785416 205.216566 
L 140.420101 204.927109 
L 139.239664 203.99118 
L 138.330769 203.273131 
L 138.059228 203.056364 
L 136.878792 202.112814 
L 135.894861 201.329697 
L 135.698356 201.17166 
L 134.517919 200.220602 
L 133.477338 199.386263 
L 133.337483 199.272952 
L 132.157047 198.314499 
L 131.077858 197.442828 
L 130.976611 197.360192 
L 129.796174 196.394459 
L 128.696086 195.499394 
L 128.615738 195.433334 
L 127.435302 194.460436 
L 126.331695 193.55596 
L 126.254866 193.492331 
L 125.07443 192.512384 
L 123.984367 191.612525 
L 123.893993 191.537135 
L 122.713557 190.550256 
L 121.653791 189.669091 
L 121.533121 189.5677 
L 120.352685 188.574007 
L 119.339662 187.725657 
L 119.172248 187.583977 
L 117.991812 186.583588 
L 117.041686 185.782222 
L 116.811376 185.585919 
L 115.63094 184.578953 
L 114.759574 183.838788 
L 114.450503 183.573478 
L 113.270067 182.560056 
L 112.493042 181.895354 
L 112.089631 181.546604 
L 110.909195 180.526847 
L 110.241815 179.951919 
L 109.728758 179.505251 
L 108.548322 178.47928 
L 108.005625 178.008485 
L 107.367886 177.449368 
L 106.18745 176.417307 
L 105.784209 176.065051 
L 105.007013 175.378908 
L 103.826577 174.34088 
L 103.57731 174.121616 
L 102.646141 173.293821 
L 101.465705 172.24995 
L 101.384676 172.178182 
L 100.285268 171.194057 
L 99.207248 170.234747 
L 99.104832 170.142628 
L 97.924396 169.079567 
L 97.044692 168.291313 
L 96.74396 168.018941 
L 95.563523 166.950301 
L 94.895814 166.347879 
L 94.383087 165.880296 
L 93.202651 164.806209 
L 92.76038 164.404444 
L 92.022215 163.726645 
L 90.841779 162.647241 
L 90.638163 162.46101 
L 89.661342 161.557934 
L 88.529491 160.517576 
L 88.480906 160.47243 
L 87.30047 159.374113 
L 86.436063 158.574141 
L 86.120034 158.27847 
L 84.939597 157.175129 
L 84.355305 156.630707 
L 83.759161 156.069158 
L 82.578725 154.96093 
L 82.287005 154.687273 
L 81.398289 153.844439 
L 80.231103 152.743838 
L 80.217852 152.731205 
L 79.037416 151.604262 
L 78.190683 150.800404 
L 77.85698 150.480082 
L 76.676544 149.348572 
L 76.162202 148.85697 
L 75.496107 148.213248 
L 74.315671 147.077314 
L 74.145463 146.913535 
L 73.135235 145.930647 
L 72.14236 144.970101 
L 71.954799 144.786605 
L 70.774362 143.632224 
L 70.152622 143.026667 
L 69.593926 142.476382 
L 68.41349 141.317923 
L 68.174137 141.083232 
L 67.233054 140.150072 
L 66.208443 139.139798 
L 66.052617 138.9844 
L 64.872181 137.807619 
L 64.256401 137.196364 
L 63.691745 136.629454 
L 62.511309 135.448966 
L 62.315138 135.252929 
L 61.330872 134.258091 
L 60.387081 133.309495 
L 60.150436 133.068893 
L 58.97 131.870253 
" style="fill:none;stroke:#aac7fd;"/>
    <path clip-path="url(#pa7ce5eb5d2)" d="M 150.219286 14.76 
L 151.044027 15.414732 
L 152.224463 16.349066 
L 152.67216 16.703434 
L 153.404899 17.289468 
L 154.585336 18.231357 
L 155.106419 18.646869 
L 155.765772 19.178121 
L 156.946208 20.127453 
L 157.522412 20.590303 
L 158.126644 21.080736 
L 159.307081 22.037398 
L 159.920479 22.533737 
L 160.487517 22.997361 
L 161.667953 23.961239 
L 162.300949 24.477172 
L 162.848389 24.928041 
L 164.028826 25.899021 
L 164.664147 26.420606 
L 165.209262 26.872823 
L 166.389698 27.850789 
L 167.010386 28.36404 
L 167.570134 28.831755 
L 168.75057 29.816591 
L 169.339975 30.307475 
L 169.931007 30.804883 
L 171.111443 31.796472 
L 171.653213 32.250909 
L 172.291879 32.792254 
L 173.472315 33.790479 
L 173.950393 34.194343 
L 174.652752 34.793917 
L 175.833188 35.798659 
L 176.231801 36.137778 
L 177.013624 36.809919 
L 178.19406 37.821058 
L 178.497716 38.081212 
L 179.374497 38.840308 
L 180.554933 39.857724 
L 180.748411 40.024646 
L 181.735369 40.885132 
L 182.915805 41.908704 
L 182.984151 41.968081 
L 184.096242 42.944439 
L 185.204351 43.911515 
L 185.276678 43.975311 
L 186.457114 45.018279 
L 187.409145 45.854949 
L 187.63755 46.057826 
L 188.817987 47.1067 
L 189.599602 47.798384 
L 189.998423 48.155097 
L 191.178859 49.209751 
L 191.77597 49.741818 
L 192.359295 50.267175 
L 193.539732 51.327481 
L 193.938491 51.685253 
L 194.720168 52.39411 
L 195.900604 53.45994 
L 196.087402 53.628687 
L 197.08104 54.535954 
L 198.222487 55.572121 
L 198.261477 55.607899 
L 199.441913 56.692756 
L 200.342123 57.515556 
L 200.622349 57.774469 
L 201.802785 58.864569 
L 202.448711 59.45899 
L 202.983221 59.956236 
L 204.163658 61.051442 
L 204.54247 61.402424 
L 205.344094 62.153251 
L 206.52453 63.253429 
L 206.623617 63.345859 
L 207.704966 64.365567 
L 208.690164 65.289293 
L 208.885403 65.474369 
L 210.065839 66.593237 
L 210.743281 67.232727 
L 211.246275 67.712787 
L 212.426711 68.836315 
L 212.784307 69.176162 
L 213.607148 69.966808 
L 214.787584 71.094854 
L 214.813444 71.119596 
L 215.96802 72.236487 
L 216.827311 73.06303 
L 217.148456 73.375395 
L 218.328893 74.521879 
L 218.8293 75.006465 
L 219.509329 75.672375 
L 220.689765 76.823038 
L 220.819893 76.949899 
L 221.870201 77.985328 
L 222.796463 78.893333 
L 223.050638 79.145325 
L 224.231074 80.314311 
L 224.760469 80.836768 
L 225.41151 81.486577 
L 226.591946 82.659381 
L 226.713557 82.780202 
L 227.772383 83.844128 
L 228.652598 84.723636 
L 228.952819 85.027067 
L 230.133255 86.218037 
L 230.579648 86.667071 
L 231.313691 87.413963 
L 232.494128 88.608364 
L 232.496242 88.610505 
L 233.674564 89.817496 
L 234.397537 90.553939 
L 234.855 91.025363 
" style="fill:none;stroke:#aac7fd;"/>
   </g>
   <g id="LineCollection_12">
    <path clip-path="url(#pa7ce5eb5d2)" d="M 137.096466 207.16 
L 136.878792 206.985833 
L 135.698356 206.039809 
L 134.666516 205.216566 
L 134.517919 205.096826 
L 133.337483 204.143677 
L 132.253993 203.273131 
L 132.157047 203.194461 
L 130.976611 202.234291 
L 129.858587 201.329697 
L 129.796174 201.278694 
L 128.615738 200.311607 
L 127.479995 199.386263 
L 127.435302 199.349484 
L 126.254866 198.375585 
L 125.117923 197.442828 
L 125.07443 197.406788 
L 123.893993 196.426182 
L 122.772081 195.499394 
L 122.713557 195.450563 
L 121.533121 194.463356 
L 120.442189 193.55596 
L 120.352685 193.480766 
L 119.172248 192.487064 
L 118.12797 191.612525 
L 117.991812 191.497353 
L 116.811376 190.497265 
L 115.829155 189.669091 
L 115.63094 189.500281 
L 114.450503 188.493915 
L 113.545481 187.725657 
L 113.270067 187.489506 
L 112.089631 186.476972 
L 111.276692 185.782222 
L 110.909195 185.464985 
L 109.728758 184.446392 
L 109.022536 183.838788 
L 108.548322 183.426674 
L 107.367886 182.402132 
L 106.782768 181.895354 
L 106.18745 181.374527 
L 105.007013 180.344149 
L 104.557148 179.951919 
L 103.826577 179.308502 
L 102.646141 178.272399 
L 102.34544 178.008485 
L 101.465705 177.228553 
L 100.285268 176.186838 
L 100.147415 176.065051 
L 99.104832 175.134635 
L 97.963278 174.121616 
L 97.924396 174.086758 
L 96.74396 173.026704 
L 95.794055 172.178182 
L 95.563523 171.970142 
L 94.383087 170.904715 
L 93.637977 170.234747 
L 93.202651 169.839304 
L 92.022215 168.768621 
L 91.494829 168.291313 
L 90.841779 167.694198 
L 89.661342 166.618378 
L 89.364401 166.347879 
L 88.480906 165.534777 
L 87.30047 164.453939 
L 87.246487 164.404444 
L 86.120034 163.360995 
L 85.143089 162.46101 
L 84.939597 162.271597 
L 83.759161 161.172804 
L 83.052503 160.517576 
L 82.578725 160.073701 
L 81.398289 158.970158 
L 80.973939 158.574141 
L 80.217852 157.861177 
L 79.037416 156.753008 
L 78.907206 156.630707 
L 77.85698 155.633976 
L 76.854014 154.687273 
L 76.676544 154.51799 
L 75.496107 153.392051 
L 74.813785 152.743838 
L 74.315671 152.265627 
L 73.135235 151.135352 
L 72.784918 150.800404 
L 71.954799 149.99831 
L 70.774362 148.86383 
L 70.767233 148.85697 
L 69.593926 147.71599 
L 68.764272 146.913535 
L 68.41349 146.570622 
L 67.233054 145.418616 
L 66.772298 144.970101 
L 66.052617 144.262035 
L 64.872181 143.106136 
L 64.791062 143.026667 
L 63.691745 141.938156 
L 62.823688 141.083232 
L 62.511309 140.772243 
L 61.330872 139.598933 
L 60.867656 139.139798 
L 60.150436 138.421182 
L 58.97 137.244313 
" style="fill:none;stroke:#b5cdfa;"/>
    <path clip-path="url(#pa7ce5eb5d2)" d="M 156.334201 14.76 
L 156.946208 15.254017 
L 158.126644 16.205502 
L 158.745298 16.703434 
L 159.307081 17.160096 
L 160.487517 18.118544 
L 161.139381 18.646869 
L 161.667953 19.079537 
L 162.848389 20.044844 
L 163.516751 20.590303 
L 164.028826 21.012383 
L 165.209262 21.984446 
L 165.8777 22.533737 
L 166.389698 22.958676 
L 167.570134 23.937389 
L 168.222513 24.477172 
L 168.75057 24.918459 
L 169.931007 25.903717 
L 170.551468 26.420606 
L 171.111443 26.891775 
L 172.291879 27.883471 
L 172.864838 28.36404 
L 173.472315 28.878667 
L 174.652752 29.876694 
L 175.16289 30.307475 
L 175.833188 30.879177 
L 177.013624 31.883428 
L 177.445884 32.250909 
L 178.19406 32.89335 
L 179.374497 33.903716 
L 179.714073 34.194343 
L 180.554933 34.921229 
L 181.735369 35.937601 
L 181.967707 36.137778 
L 182.915805 36.962858 
L 184.096242 37.985125 
L 184.207029 38.081212 
L 185.276678 39.01828 
L 186.431995 40.024646 
L 186.457114 40.04675 
L 187.63755 41.087539 
L 188.64172 41.968081 
L 188.817987 42.124221 
L 189.998423 43.170681 
L 190.837696 43.911515 
L 191.178859 44.215733 
L 192.359295 45.267749 
L 193.020152 45.854949 
L 193.539732 46.321333 
L 194.720168 47.378788 
L 195.189308 47.798384 
L 195.900604 48.441064 
L 197.08104 49.503843 
L 197.345382 49.741818 
L 198.261477 50.574974 
L 199.441913 51.642959 
L 199.488588 51.685253 
L 200.622349 52.723108 
L 201.61711 53.628687 
L 201.802785 53.799465 
L 202.983221 54.885512 
L 203.73255 55.572121 
L 204.163658 55.971237 
L 205.344094 57.062233 
L 205.835626 57.515556 
L 206.52453 58.157496 
L 207.704966 59.253318 
L 207.926538 59.45899 
L 208.885403 60.358288 
L 210.004822 61.402424 
L 210.065839 61.459935 
L 211.246275 62.573661 
L 212.068807 63.345859 
L 212.426711 63.68539 
L 213.607148 64.803665 
L 214.121107 65.289293 
L 214.787584 65.925652 
L 215.96802 67.048346 
L 216.16191 67.232727 
L 217.148456 68.180769 
L 218.189914 69.176162 
L 218.328893 69.310406 
L 219.509329 70.45079 
L 220.204599 71.119596 
L 220.689765 71.591265 
L 221.870201 72.735767 
L 222.208242 73.06303 
L 223.050638 73.887262 
L 224.200695 75.006465 
L 224.231074 75.036347 
L 225.41151 76.19845 
L 226.178736 76.949899 
L 226.591946 77.358979 
L 227.772383 78.524879 
L 228.146176 78.893333 
L 228.952819 79.697044 
L 230.102861 80.836768 
L 230.133255 80.867218 
L 231.313691 82.050594 
L 232.045204 82.780202 
L 232.494128 83.232852 
L 233.674564 84.419682 
L 233.977373 84.723636 
L 234.855 85.614222 
" style="fill:none;stroke:#b5cdfa;"/>
   </g>
   <g id="LineCollection_13">
    <path clip-path="url(#pa7ce5eb5d2)" d="M 131.30276 207.16 
L 130.976611 206.89495 
L 129.796174 205.935086 
L 128.909516 205.216566 
L 128.615738 204.976223 
L 127.435302 204.009774 
L 126.532296 203.273131 
L 126.254866 203.044649 
L 125.07443 202.07171 
L 124.170832 201.329697 
L 123.893993 201.100188 
L 122.713557 200.120856 
L 121.82486 199.386263 
L 121.533121 199.142801 
L 120.352685 198.157174 
L 119.494124 197.442828 
L 119.172248 197.17245 
L 117.991812 196.180624 
L 117.178373 195.499394 
L 116.811376 195.189094 
L 115.63094 194.191168 
L 114.87736 193.55596 
L 114.450503 193.192694 
L 113.270067 192.188767 
L 112.590846 191.612525 
L 112.089631 191.18321 
L 110.909195 190.173382 
L 110.318594 189.669091 
L 109.728758 189.160603 
L 108.548322 188.144973 
L 108.060374 187.725657 
L 107.367886 187.124832 
L 106.18745 186.103501 
L 105.815962 185.782222 
L 105.007013 185.075856 
L 103.826577 184.048926 
L 103.585137 183.838788 
L 102.646141 183.013636 
L 101.465705 181.981208 
L 101.367683 181.895354 
L 100.285268 180.93813 
L 99.164018 179.951919 
L 99.104832 179.899353 
L 97.924396 178.849298 
L 96.974486 178.008485 
L 96.74396 177.802439 
L 95.563523 176.747099 
L 94.797822 176.065051 
L 94.383087 175.69201 
L 93.202651 174.631492 
L 92.633822 174.121616 
L 92.022215 173.568025 
L 90.841779 172.502436 
L 90.482289 172.178182 
L 89.661342 171.430441 
L 88.480906 170.359888 
L 88.343028 170.234747 
L 87.30047 169.279216 
L 86.216859 168.291313 
L 86.120034 168.202165 
L 84.939597 167.114307 
L 84.104146 166.347879 
L 83.759161 166.028256 
L 82.578725 164.935672 
L 82.003242 164.404444 
L 81.398289 163.840465 
L 80.217852 162.743267 
L 79.913967 162.46101 
L 79.037416 161.638749 
L 77.85698 160.537051 
L 77.836142 160.517576 
L 76.676544 159.423064 
L 75.772428 158.574141 
L 75.496107 158.31208 
L 74.315671 157.193365 
L 73.72012 156.630707 
L 73.135235 156.072564 
L 71.954799 154.949608 
L 71.678829 154.687273 
L 70.774362 153.818827 
L 69.64895 152.743838 
L 69.593926 152.690745 
L 68.41349 151.550825 
L 67.632695 150.800404 
L 67.233054 150.412395 
L 66.052617 149.26851 
L 65.627039 148.85697 
L 64.872181 148.119565 
L 63.691745 146.971839 
L 63.63182 146.913535 
L 62.511309 145.812208 
L 61.650112 144.970101 
L 61.330872 144.654717 
L 60.150436 143.490278 
L 59.679211 143.026667 
L 58.97 142.321709 
" style="fill:none;stroke:#c0d4f5;"/>
    <path clip-path="url(#pa7ce5eb5d2)" d="M 162.089436 14.76 
L 162.848389 15.381898 
L 164.028826 16.346649 
L 164.465491 16.703434 
L 165.209262 17.316938 
L 166.389698 18.288127 
L 166.825879 18.646869 
L 167.570134 19.264829 
L 168.75057 20.242359 
L 169.170862 20.590303 
L 169.931007 21.22561 
L 171.111443 22.209385 
L 171.500691 22.533737 
L 172.291879 23.19932 
L 173.472315 24.189243 
L 173.815618 24.477172 
L 174.652752 25.185998 
L 175.833188 26.181971 
L 176.115885 26.420606 
L 177.013624 27.185684 
L 178.19406 28.187608 
L 178.401729 28.36404 
L 179.374497 29.198417 
L 180.554933 30.206193 
L 180.673385 30.307475 
L 181.735369 31.224236 
L 182.915805 32.237765 
L 182.93108 32.250909 
L 184.096242 33.263182 
L 185.173931 34.194343 
L 185.276678 34.283982 
L 186.457114 35.315295 
L 187.402963 36.137778 
L 187.63755 36.34375 
L 188.817987 37.380614 
L 189.618561 38.081212 
L 189.998423 38.416869 
L 191.178859 39.459182 
L 191.820938 40.024646 
L 192.359295 40.50338 
L 193.539732 41.551036 
L 194.010304 41.968081 
L 194.720168 42.603325 
L 195.900604 43.65622 
L 196.186864 43.911515 
L 197.08104 44.716746 
L 198.261477 45.774773 
L 198.350818 45.854949 
L 199.441913 46.843683 
L 200.50109 47.798384 
L 200.622349 47.90876 
L 201.802785 48.984179 
L 202.638087 49.741818 
L 202.983221 50.057953 
L 204.163658 51.138276 
L 204.762953 51.685253 
L 205.344094 52.2209 
L 206.52453 53.306017 
L 206.875875 53.628687 
L 207.704966 54.397644 
L 208.885403 55.487443 
L 208.977038 55.572121 
L 210.065839 56.588227 
L 211.064747 57.515556 
L 211.246275 57.685761 
L 212.426711 58.792694 
L 213.140004 59.45899 
L 213.607148 59.899723 
L 214.787584 61.011088 
L 215.203945 61.402424 
L 215.96802 62.127773 
L 217.148456 63.243453 
L 217.256743 63.345859 
L 218.328893 64.369954 
L 219.29639 65.289293 
L 219.509329 65.493682 
L 220.689765 66.626312 
L 221.324028 67.232727 
L 221.870201 67.760217 
L 223.050638 68.896891 
L 223.340946 69.176162 
L 224.231074 70.04114 
L 225.346645 71.119596 
L 225.41151 71.182946 
L 226.591946 72.336498 
L 227.338877 73.06303 
L 227.772383 73.489027 
L 228.952819 74.646336 
L 229.320798 75.006465 
L 230.133255 75.809762 
L 231.292347 76.949899 
L 231.313691 76.971112 
L 232.494128 78.145198 
L 233.250049 78.893333 
L 233.674564 79.317845 
L 234.855 80.495383 
" style="fill:none;stroke:#c0d4f5;"/>
   </g>
   <g id="LineCollection_14">
    <path clip-path="url(#pa7ce5eb5d2)" d="M 125.817907 207.16 
L 125.07443 206.547245 
L 123.893993 205.576749 
L 123.45575 205.216566 
L 122.713557 204.600984 
L 121.533121 203.624384 
L 121.108425 203.273131 
L 120.352685 202.642349 
L 119.172248 201.659734 
L 118.775697 201.329697 
L 117.991812 200.671304 
L 116.811376 199.682764 
L 116.457335 199.386263 
L 115.63094 198.687813 
L 114.450503 197.693438 
L 114.153114 197.442828 
L 113.270067 196.69184 
L 112.089631 195.69172 
L 111.862813 195.499394 
L 110.909195 194.683348 
L 109.728758 193.677574 
L 109.586214 193.55596 
L 108.548322 192.6623 
L 107.367886 191.650964 
L 107.323107 191.612525 
L 106.18745 190.62866 
L 105.073978 189.669091 
L 105.007013 189.610845 
L 103.826577 188.582391 
L 102.838524 187.725657 
L 102.646141 187.557288 
L 101.465705 186.523456 
L 100.616072 185.782222 
L 100.285268 185.490932 
L 99.104832 184.451818 
L 98.406421 183.838788 
L 97.924396 183.411739 
L 96.74396 182.367439 
L 96.209378 181.895354 
L 95.563523 181.319672 
L 94.383087 180.270282 
L 94.024751 179.951919 
L 93.202651 179.214692 
L 92.022215 178.160309 
L 91.852353 178.008485 
L 90.841779 177.096761 
L 89.692313 176.065051 
L 89.661342 176.03699 
L 88.480906 174.96584 
L 87.545982 174.121616 
L 87.30047 173.897824 
L 86.120034 172.82189 
L 85.411436 172.178182 
L 84.939597 171.745491 
L 83.759161 170.664874 
L 83.2885 170.234747 
L 82.578725 169.579949 
L 81.398289 168.494751 
L 81.177001 168.291313 
L 80.217852 167.40116 
L 79.077167 166.347879 
L 79.037416 166.310822 
L 77.85698 165.209083 
L 76.990756 164.404444 
L 76.676544 164.109771 
L 75.496107 163.003679 
L 74.915368 162.46101 
L 74.315671 161.895246 
L 73.135235 160.784906 
L 72.850839 160.517576 
L 71.954799 159.667206 
L 70.797237 158.574141 
L 70.774362 158.552332 
L 69.593926 157.425609 
L 68.7571 156.630707 
L 68.41349 156.30114 
L 67.233054 155.170415 
L 66.727428 154.687273 
L 66.052617 154.036198 
L 64.872181 152.901581 
L 64.708067 152.743838 
L 63.691745 151.757463 
L 62.700717 150.800404 
L 62.511309 150.61569 
L 61.330872 149.464895 
L 60.705073 148.85697 
L 60.150436 148.312871 
L 58.97 147.158448 
" style="fill:none;stroke:#cad8ef;"/>
    <path clip-path="url(#pa7ce5eb5d2)" d="M 167.542732 14.76 
L 167.570134 14.782701 
L 168.75057 15.763015 
L 169.888938 16.703434 
L 169.931007 16.738508 
L 171.111443 17.724894 
L 172.220468 18.646869 
L 172.291879 18.706783 
L 173.472315 19.69915 
L 174.537558 20.590303 
L 174.652752 20.687561 
L 175.833188 21.685819 
L 176.840434 22.533737 
L 177.013624 22.68088 
L 178.19406 23.684937 
L 179.129321 24.477172 
L 179.374497 24.686776 
L 180.554933 25.69654 
L 181.404437 26.420606 
L 181.735369 26.705285 
L 182.915805 27.720665 
L 183.665996 28.36404 
L 184.096242 28.736447 
L 185.276678 29.757348 
L 185.914209 30.307475 
L 186.457114 30.780296 
L 187.63755 31.806625 
L 188.149281 32.250909 
L 188.817987 32.836872 
L 189.998423 33.868534 
L 190.371413 34.194343 
L 191.178859 34.906211 
L 192.359295 35.943112 
L 192.580803 36.137778 
L 193.539732 36.988351 
L 194.720168 38.030395 
L 194.777643 38.081212 
L 195.900604 39.08333 
L 196.960903 40.024646 
L 197.08104 40.132306 
L 198.261477 41.191185 
L 199.131289 41.968081 
L 199.441913 42.248135 
L 200.622349 43.311956 
L 201.28958 43.911515 
L 201.802785 44.377016 
L 202.983221 45.44568 
L 203.435958 45.854949 
L 204.163658 46.51899 
L 205.344094 47.592396 
L 205.5706 47.798384 
L 206.52453 48.674094 
L 207.693567 49.741818 
L 207.704966 49.752329 
L 208.885403 50.842368 
L 209.802752 51.685253 
L 210.065839 51.92929 
L 211.246275 53.023852 
L 211.900627 53.628687 
L 212.426711 54.119606 
L 213.607148 55.218586 
L 213.98736 55.572121 
L 214.787584 56.323315 
L 215.96802 57.426609 
L 216.063114 57.515556 
L 217.148456 58.540459 
L 218.126049 59.45899 
L 218.328893 59.65142 
L 219.509329 60.771078 
L 220.177296 61.402424 
L 220.689765 61.891483 
L 221.870201 63.015214 
L 222.217963 63.345859 
L 223.050638 64.145213 
L 224.231074 65.272908 
L 224.248206 65.289293 
L 225.41151 66.412651 
L 226.26498 67.232727 
L 226.591946 67.549976 
L 227.772383 68.693841 
L 228.271392 69.176162 
L 228.952819 69.841254 
L 230.133255 70.988824 
L 230.267759 71.119596 
L 231.313691 72.146481 
L 232.251872 73.06303 
L 232.494128 73.302045 
L 233.674564 74.465701 
L 234.224841 75.006465 
L 234.855 75.631871 
" style="fill:none;stroke:#cad8ef;"/>
   </g>
   <g id="LineCollection_15">
    <path clip-path="url(#pa7ce5eb5d2)" d="M 120.596679 207.16 
L 120.352685 206.956819 
L 119.172248 205.973012 
L 118.261346 205.216566 
L 117.991812 204.990749 
L 116.811376 204.001174 
L 115.93996 203.273131 
L 115.63094 203.012661 
L 114.450503 202.017402 
L 113.632309 201.329697 
L 113.270067 201.022521 
L 112.089631 200.021662 
L 111.338184 199.386263 
L 110.909195 199.020296 
L 109.728758 198.013921 
L 109.057383 197.442828 
L 108.548322 197.00595 
L 107.367886 195.994146 
L 106.789704 195.499394 
L 106.18745 194.979449 
L 105.007013 193.962302 
L 104.534953 193.55596 
L 103.826577 192.94076 
L 102.646141 191.918356 
L 102.292937 191.612525 
L 101.465705 190.889848 
L 100.285268 189.862274 
L 100.063468 189.669091 
L 99.104832 188.826678 
L 97.924396 187.794022 
L 97.846361 187.725657 
L 96.74396 186.751215 
L 95.642212 185.782222 
L 95.563523 185.71239 
L 94.383087 184.663425 
L 93.450952 183.838788 
L 93.202651 183.617138 
L 92.022215 182.563271 
L 91.271622 181.895354 
L 90.841779 181.509396 
L 89.661342 180.45072 
L 89.104049 179.951919 
L 88.480906 179.389131 
L 87.30047 178.325736 
L 86.948062 178.008485 
L 86.120034 177.256304 
L 84.939597 176.188283 
L 84.803496 176.065051 
L 83.759161 175.110881 
L 82.671078 174.121616 
L 82.578725 174.036882 
L 81.398289 172.952824 
L 80.551175 172.178182 
L 80.217852 171.870581 
L 79.037416 170.782099 
L 78.442294 170.234747 
L 77.85698 169.691479 
L 76.676544 168.598667 
L 76.344276 168.291313 
L 75.496107 167.499538 
L 74.315671 166.402492 
L 74.256967 166.347879 
L 73.135235 165.29472 
L 72.182384 164.404444 
L 71.954799 164.189833 
L 70.774362 163.076988 
L 70.118851 162.46101 
L 69.593926 161.963163 
L 68.41349 160.846305 
L 68.065652 160.517576 
L 67.233054 159.723404 
L 66.052617 158.602632 
L 66.022641 158.574141 
L 64.872181 157.470517 
L 63.992516 156.630707 
L 63.691745 156.340866 
L 62.511309 155.204463 
L 61.972648 154.687273 
L 61.330872 154.065285 
L 60.150436 152.925203 
L 59.962611 152.743838 
L 58.97 151.776354 
" style="fill:none;stroke:#d4dbe6;"/>
    <path clip-path="url(#pa7ce5eb5d2)" d="M 172.733622 14.76 
L 173.472315 15.37973 
L 174.652752 16.36756 
L 175.054217 16.703434 
L 175.833188 17.360906 
L 177.013624 18.354377 
L 177.361146 18.646869 
L 178.19406 19.354103 
L 179.374497 20.353131 
L 179.654614 20.590303 
L 180.554933 21.359354 
L 181.735369 22.363855 
L 181.934823 22.533737 
L 182.915805 23.376694 
L 184.096242 24.386582 
L 184.201972 24.477172 
L 185.276678 25.406156 
L 186.456246 26.420606 
L 186.457114 26.421359 
L 187.63755 27.447775 
L 188.696653 28.36404 
L 188.817987 28.469952 
L 189.998423 29.501586 
L 190.924457 30.307475 
L 191.178859 30.530859 
L 192.359295 31.567622 
L 193.139845 32.250909 
L 193.539732 32.604115 
L 194.720168 33.645918 
L 195.342999 34.194343 
L 195.900604 34.689755 
L 197.08104 35.736508 
L 197.534098 36.137778 
L 198.261477 36.787814 
L 199.441913 37.839429 
L 199.713318 38.081212 
L 200.622349 38.898329 
L 201.802785 39.954714 
L 201.880832 40.024646 
L 202.983221 41.021335 
L 204.035563 41.968081 
L 204.163658 42.084372 
L 205.344094 43.156867 
L 206.178061 43.911515 
L 206.52453 44.22789 
L 207.704966 45.304961 
L 208.30926 45.854949 
L 208.885403 46.384102 
L 210.065839 47.465654 
L 210.429324 47.798384 
L 211.246275 48.553042 
L 212.426711 49.638982 
L 212.53841 49.741818 
L 213.607148 50.734749 
L 214.635217 51.685253 
L 214.787584 51.827424 
L 215.96802 52.92926 
L 216.720191 53.628687 
L 217.148456 54.0306 
L 218.328893 55.13661 
L 218.794573 55.572121 
L 219.509329 56.246751 
L 220.689765 57.356839 
L 220.858512 57.515556 
L 221.870201 58.475917 
L 222.910828 59.45899 
L 223.050638 59.592301 
L 224.231074 60.718136 
L 224.951299 61.402424 
L 225.41151 61.843761 
L 226.591946 62.973445 
L 226.981694 63.345859 
L 227.772383 64.108452 
L 228.952819 65.241884 
L 229.002154 65.289293 
L 230.133255 66.386415 
L 231.009962 67.232727 
L 231.313691 67.5287 
L 232.494128 68.677688 
L 233.007579 69.176162 
L 233.674564 69.82982 
L 234.855 70.982312 
" style="fill:none;stroke:#d4dbe6;"/>
   </g>
   <g id="LineCollection_16">
    <path clip-path="url(#pa7ce5eb5d2)" d="M 115.604458 207.16 
L 114.450503 206.187582 
L 113.292423 205.216566 
L 113.270067 205.19766 
L 112.089631 204.197296 
L 110.993817 203.273131 
L 110.909195 203.20115 
L 109.728758 202.195406 
L 108.708183 201.329697 
L 108.548322 201.192926 
L 107.367886 200.181883 
L 106.435331 199.386263 
L 106.18745 199.172956 
L 105.007013 198.156693 
L 104.175077 197.442828 
L 103.826577 197.141208 
L 102.646141 196.119806 
L 101.927239 195.499394 
L 101.465705 195.097649 
L 100.285268 194.07119 
L 99.691639 193.55596 
L 99.104832 193.042247 
L 97.924396 192.010813 
L 97.468102 191.612525 
L 96.74396 190.97497 
L 95.563523 189.938642 
L 95.256457 189.669091 
L 94.383087 188.895785 
L 93.202651 187.854646 
L 93.056535 187.725657 
L 92.022215 186.804659 
L 90.868424 185.782222 
L 90.841779 185.758403 
L 89.661342 184.701559 
L 88.693208 183.838788 
L 88.480906 183.647934 
L 87.30047 182.586453 
L 86.52932 181.895354 
L 86.120034 181.52534 
L 84.939597 180.459306 
L 84.376601 179.951919 
L 83.759161 179.390586 
L 82.578725 178.320087 
L 82.234895 178.008485 
L 81.398289 177.243639 
L 80.217852 176.168762 
L 80.104049 176.065051 
L 79.037416 175.084465 
L 77.985106 174.121616 
L 77.85698 174.003343 
L 76.676544 172.91303 
L 75.877878 172.178182 
L 75.496107 171.8238 
L 74.315671 170.7293 
L 73.781144 170.234747 
L 73.135235 169.631837 
L 71.954799 168.533239 
L 71.694758 168.291313 
L 70.774362 167.427419 
L 69.61881 166.347879 
L 69.593926 166.324423 
L 68.41349 165.21051 
L 67.555431 164.404444 
L 67.233054 164.098882 
L 66.052617 162.981077 
L 65.502051 162.46101 
L 64.872181 161.860686 
L 63.691745 160.739083 
L 63.458533 160.517576 
L 62.511309 159.609801 
L 61.425609 158.574141 
L 61.330872 158.482952 
L 60.150436 157.346189 
L 59.404503 156.630707 
L 58.97 156.210156 
" style="fill:none;stroke:#dddcdc;"/>
    <path clip-path="url(#pa7ce5eb5d2)" d="M 177.699997 14.76 
L 178.19406 15.17836 
L 179.374497 16.176958 
L 179.997952 16.703434 
L 180.554933 17.177813 
L 181.735369 18.181751 
L 182.282996 18.646869 
L 182.915805 19.188951 
L 184.096242 20.198149 
L 184.555317 20.590303 
L 185.276678 21.211805 
L 186.457114 22.226184 
L 186.815098 22.533737 
L 187.63755 23.246408 
L 188.817987 24.265886 
L 189.062519 24.477172 
L 189.998423 25.292791 
L 191.178859 26.317289 
L 191.297757 26.420606 
L 192.359295 27.350987 
L 193.520804 28.36404 
L 193.539732 28.380693 
L 194.720168 29.421029 
L 195.730753 30.307475 
L 195.900604 30.457758 
L 197.08104 31.502947 
L 197.928932 32.250909 
L 198.261477 32.546817 
L 199.441913 33.596776 
L 200.115505 34.194343 
L 200.622349 34.647902 
L 201.802785 35.702548 
L 202.290637 36.137778 
L 202.983221 36.761049 
L 204.163658 37.820295 
L 204.454488 38.081212 
L 205.344094 38.886289 
L 206.52453 39.95005 
L 206.607216 40.024646 
L 207.704966 41.023656 
L 208.747686 41.968081 
L 208.885403 42.093916 
L 210.065839 43.173185 
L 210.876471 43.911515 
L 211.246275 44.251309 
L 212.426711 45.334908 
L 212.994509 45.854949 
L 213.607148 46.421019 
L 214.787584 47.50886 
L 215.101946 47.798384 
L 215.96802 48.603082 
L 217.148456 49.695075 
L 217.19893 49.741818 
L 218.328893 50.79753 
L 219.283519 51.685253 
L 219.509329 51.897112 
L 220.689765 53.004401 
L 221.357396 53.628687 
L 221.870201 54.112487 
L 223.050638 55.223727 
L 223.421172 55.572121 
L 224.231074 56.340446 
L 225.41151 57.455545 
L 225.474985 57.515556 
L 226.591946 58.581025 
L 227.516632 59.45899 
L 227.772383 59.704014 
L 228.952819 60.834259 
L 229.547933 61.402424 
L 230.133255 61.966296 
L 231.313691 63.100185 
L 231.56961 63.345859 
L 232.494128 64.241403 
L 233.58094 65.289293 
L 233.674564 65.380388 
L 234.855 66.52937 
" style="fill:none;stroke:#dddcdc;"/>
   </g>
   <g id="LineCollection_17">
    <path clip-path="url(#pa7ce5eb5d2)" d="M 110.814971 207.16 
L 109.728758 206.236591 
L 108.548322 205.23775 
L 108.523336 205.216566 
L 107.367886 204.228805 
L 106.244595 203.273131 
L 106.18745 203.224107 
L 105.007013 202.209728 
L 103.978385 201.329697 
L 103.826577 201.198734 
L 102.646141 200.179332 
L 101.724294 199.386263 
L 101.465705 199.161936 
L 100.285268 198.137588 
L 99.482153 197.442828 
L 99.104832 197.113683 
L 97.924396 196.084464 
L 97.251796 195.499394 
L 96.74396 195.053944 
L 95.563523 194.019932 
L 95.033061 193.55596 
L 94.383087 192.982689 
L 93.202651 191.94396 
L 92.825787 191.612525 
L 92.022215 190.899887 
L 90.841779 189.85652 
L 90.629819 189.669091 
L 89.661342 188.805507 
L 88.480906 187.757579 
L 88.445001 187.725657 
L 87.30047 186.699518 
L 86.272576 185.782222 
L 86.120034 185.644938 
L 84.939597 184.58189 
L 84.111419 183.838788 
L 83.759161 183.520034 
L 82.578725 182.452591 
L 81.961049 181.895354 
L 81.398289 181.383346 
L 80.217852 180.31159 
L 79.821319 179.951919 
L 79.037416 179.234844 
L 77.85698 178.158855 
L 77.692088 178.008485 
L 76.676544 177.074495 
L 75.573915 176.065051 
L 75.496107 175.993207 
L 74.315671 174.902267 
L 73.467541 174.121616 
L 73.135235 173.813121 
L 71.954799 172.718129 
L 71.371322 172.178182 
L 70.774362 171.621007 
L 69.593926 170.522048 
L 69.285122 170.234747 
L 68.41349 169.416833 
L 67.233054 168.313991 
L 67.208808 168.291313 
L 66.052617 167.200566 
L 65.144673 166.347879 
L 64.872181 166.089746 
L 63.691745 164.972173 
L 63.090448 164.404444 
L 62.511309 163.852881 
L 61.330872 162.73162 
L 61.045784 162.46101 
L 60.150436 161.603735 
L 59.010919 160.517576 
L 58.97 160.47823 
" style="fill:none;stroke:#e5d8d1;"/>
    <path clip-path="url(#pa7ce5eb5d2)" d="M 182.467786 14.76 
L 182.915805 15.142665 
L 184.096242 16.150172 
L 184.74575 16.703434 
L 185.276678 17.159453 
L 186.457114 18.172021 
L 187.011478 18.646869 
L 187.63755 19.187608 
L 188.817987 20.205162 
L 189.265141 20.590303 
L 189.998423 21.227159 
L 191.178859 22.249624 
L 191.506905 22.533737 
L 192.359295 23.278138 
L 193.539732 24.305437 
L 193.736935 24.477172 
L 194.720168 25.340574 
L 195.900604 26.372631 
L 195.955393 26.420606 
L 197.08104 27.414498 
L 198.161516 28.36404 
L 198.261477 28.452629 
L 199.441913 29.49994 
L 200.355776 30.307475 
L 200.622349 30.54502 
L 201.802785 31.59693 
L 202.538843 32.250909 
L 202.983221 32.64907 
L 204.163658 33.705501 
L 204.710868 34.194343 
L 205.344094 34.76481 
L 206.52453 35.825682 
L 206.872002 36.137778 
L 207.704966 36.892272 
L 208.885403 37.957504 
L 209.022391 38.081212 
L 210.065839 39.031487 
L 211.161412 40.024646 
L 211.246275 40.102234 
L 212.426711 41.182486 
L 213.28864 41.968081 
L 213.607148 42.260864 
L 214.787584 43.345301 
L 215.405475 43.911515 
L 215.96802 44.431424 
L 217.148456 45.519965 
L 217.512056 45.854949 
L 218.328893 46.613948 
L 219.509329 47.706509 
L 219.60852 47.798384 
L 220.689765 48.808469 
L 221.69342 49.741818 
L 221.870201 49.907638 
L 223.050638 51.015018 
L 223.767505 51.685253 
L 224.231074 52.122418 
L 225.41151 53.233629 
L 225.831803 53.628687 
L 226.591946 54.349379 
L 227.772383 55.464334 
L 227.886446 55.572121 
L 228.952819 56.588555 
L 229.929755 57.515556 
L 230.133255 57.710343 
L 231.313691 58.83998 
L 231.962577 59.45899 
L 232.494128 59.970507 
L 233.674564 61.103686 
L 233.98606 61.402424 
L 234.855 62.243077 
" style="fill:none;stroke:#e5d8d1;"/>
   </g>
   <g id="LineCollection_18">
    <path clip-path="url(#pa7ce5eb5d2)" d="M 106.203819 207.16 
L 106.18745 207.145997 
L 105.007013 206.134316 
L 103.931299 205.216566 
L 103.826577 205.126498 
L 102.646141 204.109907 
L 101.670621 203.273131 
L 101.465705 203.095934 
L 100.285268 202.074505 
L 99.421624 201.329697 
L 99.104832 201.054279 
L 97.924396 200.028083 
L 97.18415 199.386263 
L 96.74396 199.001502 
L 95.563523 197.970611 
L 94.958045 197.442828 
L 94.383087 196.937575 
L 93.202651 195.902062 
L 92.743157 195.499394 
L 92.022215 194.86247 
L 90.841779 193.822408 
L 90.539337 193.55596 
L 89.661342 192.776157 
L 88.480906 191.731619 
L 88.346436 191.612525 
L 87.30047 190.678609 
L 86.16471 189.669091 
L 86.120034 189.629054 
L 84.939597 188.569794 
L 83.99491 187.725657 
L 83.759161 187.513267 
L 82.578725 186.449686 
L 81.835685 185.782222 
L 81.398289 185.386081 
L 80.217852 184.318253 
L 79.686894 183.838788 
L 79.037416 183.247465 
L 77.85698 182.175467 
L 77.548403 181.895354 
L 76.676544 181.097389 
L 75.496107 180.021299 
L 75.420075 179.951919 
L 74.315671 178.935825 
L 73.303249 178.008485 
L 73.135235 177.85331 
L 71.954799 176.762741 
L 71.197066 176.065051 
L 70.774362 175.6726 
L 69.593926 174.578107 
L 69.100725 174.121616 
L 68.41349 173.480231 
L 67.233054 172.381893 
L 67.014099 172.178182 
L 66.052617 171.276172 
L 64.93763 170.234747 
L 64.872181 170.173102 
L 63.691745 169.060391 
L 62.872611 168.291313 
L 62.511309 167.949234 
L 61.330872 166.832858 
L 60.816996 166.347879 
L 60.150436 165.713499 
L 58.97 164.593542 
" style="fill:none;stroke:#edd2c3;"/>
    <path clip-path="url(#pa7ce5eb5d2)" d="M 187.058859 14.76 
L 187.63755 15.258285 
L 188.817987 16.273103 
L 189.319093 16.703434 
L 189.998423 17.291534 
L 191.178859 18.311156 
L 191.567695 18.646869 
L 192.359295 19.335849 
L 193.539732 20.360204 
L 193.804822 20.590303 
L 194.720168 21.391258 
L 195.900604 22.420274 
L 196.030628 22.533737 
L 197.08104 23.45779 
L 198.245116 24.477172 
L 198.261477 24.491616 
L 199.441913 25.535474 
L 200.447311 26.420606 
L 200.622349 26.575966 
L 201.802785 27.624338 
L 202.638544 28.36404 
L 202.983221 28.6716 
L 204.163658 29.724411 
L 204.818961 30.307475 
L 205.344094 30.778546 
L 206.52453 31.835723 
L 206.988703 32.250909 
L 207.704966 32.896835 
L 208.885403 33.958301 
L 209.147913 34.194343 
L 210.065839 35.026495 
L 211.246275 36.092175 
L 211.296726 36.137778 
L 212.426711 37.167557 
L 213.433758 38.081212 
L 213.607148 38.239825 
L 214.787584 39.320049 
L 215.560142 40.024646 
L 215.96802 40.399728 
L 217.148456 41.484002 
L 217.67646 41.968081 
L 218.328893 42.5712 
L 219.509329 43.659446 
L 219.782842 43.911515 
L 220.689765 44.754272 
L 221.870201 45.846411 
L 221.879418 45.854949 
L 223.050638 46.948973 
L 223.963999 47.798384 
L 224.231074 48.048841 
L 225.41151 49.155335 
L 226.038879 49.741818 
L 226.591946 50.263179 
L 227.772383 51.373389 
L 228.104264 51.685253 
L 228.952819 52.48932 
L 230.133255 53.603165 
L 230.160275 53.628687 
L 231.313691 54.727297 
L 232.204544 55.572121 
L 232.494128 55.84907 
L 233.674564 56.977141 
L 234.239385 57.515556 
L 234.855 58.107367 
" style="fill:none;stroke:#edd2c3;"/>
   </g>
   <g id="LineCollection_19">
    <path clip-path="url(#pa7ce5eb5d2)" d="M 101.754189 207.16 
L 101.465705 206.911291 
L 100.285268 205.893438 
L 99.498099 205.216566 
L 99.104832 204.875741 
L 97.924396 203.853222 
L 97.253288 203.273131 
L 96.74396 202.829411 
L 95.563523 201.802295 
L 95.019608 201.329697 
L 94.383087 200.772275 
L 93.202651 199.740629 
L 92.796914 199.386263 
L 92.022215 198.704307 
L 90.841779 197.6682 
L 90.585065 197.442828 
L 89.661342 196.625478 
L 88.480906 195.584979 
L 88.383919 195.499394 
L 87.30047 194.535762 
L 86.19398 193.55596 
L 86.120034 193.489958 
L 84.939597 192.435132 
L 84.0154 191.612525 
L 83.759161 191.382634 
L 82.578725 190.323559 
L 81.847194 189.669091 
L 81.398289 189.264269 
L 80.217852 188.201017 
L 79.689229 187.725657 
L 79.037416 187.134836 
L 77.85698 186.067478 
L 77.541374 185.782222 
L 76.676544 184.994306 
L 75.496107 183.922914 
L 75.403502 183.838788 
L 74.315671 182.842651 
L 73.276689 181.895354 
L 73.135235 181.765341 
L 71.954799 180.679843 
L 71.160474 179.951919 
L 70.774362 179.595228 
L 69.593926 178.505854 
L 69.053932 178.008485 
L 68.41349 177.413831 
L 67.233054 176.320654 
L 66.956943 176.065051 
L 66.052617 175.22112 
L 64.872181 174.124216 
L 64.869387 174.121616 
L 63.691745 173.017067 
L 62.793518 172.178182 
L 62.511309 171.912466 
L 61.330872 170.801642 
L 60.72693 170.234747 
L 60.150436 169.689199 
L 58.97 168.574817 
" style="fill:none;stroke:#f2cbb7;"/>
    <path clip-path="url(#pa7ce5eb5d2)" d="M 191.491989 14.76 
L 192.359295 15.51247 
L 193.539732 16.533226 
L 193.736432 16.703434 
L 194.720168 17.56137 
L 195.900604 18.586691 
L 195.969788 18.646869 
L 197.08104 19.62105 
L 198.191592 20.590303 
L 198.261477 20.651779 
L 199.441913 21.691538 
L 200.401898 22.533737 
L 200.622349 22.728674 
L 201.802785 23.772861 
L 202.601461 24.477172 
L 202.983221 24.8165 
L 204.163658 25.865045 
L 204.790418 26.420606 
L 205.344094 26.915285 
L 206.52453 27.968119 
L 206.968906 28.36404 
L 207.704966 29.025057 
L 208.885403 30.082108 
L 209.13706 30.307475 
L 210.065839 31.145843 
L 211.246275 32.207041 
L 211.295012 32.250909 
L 212.426711 33.277671 
L 213.441473 34.194343 
L 213.607148 34.345206 
L 214.787584 35.420569 
L 215.577496 36.137778 
L 215.96802 36.495208 
L 217.148456 37.574566 
L 217.70363 38.081212 
L 218.328893 38.65641 
L 219.509329 39.739689 
L 219.820002 40.024646 
L 220.689765 40.82884 
L 221.870201 41.915966 
L 221.926733 41.968081 
L 223.050638 43.012527 
L 224.02218 43.911515 
L 224.231074 44.106379 
L 225.41151 45.207499 
L 226.107683 45.854949 
L 226.591946 46.308983 
L 227.772383 47.413786 
L 228.183842 47.798384 
L 228.952819 48.523007 
L 230.133255 49.631416 
L 230.250776 49.741818 
L 231.313691 50.748481 
L 232.307031 51.685253 
L 232.494128 51.863144 
L 233.674564 52.985433 
L 234.353236 53.628687 
L 234.855 54.108174 
" style="fill:none;stroke:#f2cbb7;"/>
   </g>
   <g id="LineCollection_20">
    <path clip-path="url(#pa7ce5eb5d2)" d="M 97.448564 207.16 
L 96.74396 206.548076 
L 95.563523 205.525259 
L 95.207164 205.216566 
L 94.383087 204.497249 
L 93.202651 203.469993 
L 92.976534 203.273131 
L 92.022215 202.435914 
L 90.841779 201.404284 
L 90.756537 201.329697 
L 89.661342 200.364045 
L 88.547604 199.386263 
L 88.480906 199.327254 
L 87.30047 198.281617 
L 86.349847 197.442828 
L 86.120034 197.238482 
L 84.939597 196.188603 
L 84.162404 195.499394 
L 83.759161 195.139032 
L 82.578725 194.084979 
L 81.985146 193.55596 
L 81.398289 193.028879 
L 80.217852 191.970718 
L 79.817944 191.612525 
L 79.037416 190.907996 
L 77.85698 189.845794 
L 77.660675 189.669091 
L 76.676544 188.776356 
L 75.513359 187.725657 
L 75.496107 187.709951 
L 74.315671 186.633933 
L 73.377454 185.782222 
L 73.135235 185.560615 
L 71.954799 184.480701 
L 71.251183 183.838788 
L 70.774362 183.400373 
L 69.593926 182.316633 
L 69.134428 181.895354 
L 68.41349 181.229198 
L 67.233054 180.141702 
L 67.02707 179.951919 
L 66.052617 179.047063 
L 64.929468 178.008485 
L 64.872181 177.955093 
L 63.691745 176.853941 
L 62.842811 176.065051 
L 62.511309 175.754556 
L 61.330872 174.649804 
L 60.76527 174.121616 
L 60.150436 173.542905 
L 58.97 172.434625 
" style="fill:none;stroke:#f5c1a9;"/>
    <path clip-path="url(#pa7ce5eb5d2)" d="M 195.782369 14.76 
L 195.900604 14.863132 
L 197.08104 15.893865 
L 198.011577 16.703434 
L 198.261477 16.922521 
L 199.441913 17.957662 
L 200.230112 18.646869 
L 200.622349 18.992485 
L 201.802785 20.03197 
L 202.438109 20.590303 
L 202.983221 21.07305 
L 204.163658 22.116812 
L 204.635701 22.533737 
L 205.344094 23.164242 
L 206.52453 24.212216 
L 206.823018 24.477172 
L 207.704966 25.266086 
L 208.885403 26.318206 
L 209.000189 26.420606 
L 210.065839 27.37861 
L 211.166673 28.36404 
L 211.246275 28.435853 
L 212.426711 29.501839 
L 213.322217 30.307475 
L 213.607148 30.565808 
L 214.787584 31.635799 
L 215.46792 32.250909 
L 215.96802 32.70659 
L 217.148456 33.780517 
L 217.603903 34.194343 
L 218.328893 34.858225 
L 219.509329 35.936019 
L 219.730285 36.137778 
L 220.689765 37.020739 
L 221.846993 38.081212 
L 221.870201 38.102647 
L 223.050638 39.194161 
L 223.952424 40.024646 
L 224.231074 40.283287 
L 225.41151 41.378517 
L 226.048543 41.968081 
L 226.591946 42.474959 
L 227.772383 43.573833 
L 228.135464 43.911515 
L 228.952819 44.677691 
L 230.133255 45.780138 
L 230.2133 45.854949 
L 231.313691 46.89151 
L 232.280415 47.798384 
L 232.494128 48.000462 
L 233.674564 49.116445 
L 234.337947 49.741818 
L 234.855 50.233131 
" style="fill:none;stroke:#f5c1a9;"/>
   </g>
   <g id="LineCollection_21">
    <path clip-path="url(#pa7ce5eb5d2)" d="M 93.273135 207.16 
L 93.202651 207.098467 
L 92.022215 206.066621 
L 91.046027 205.216566 
L 90.841779 205.037374 
L 89.661342 204.001239 
L 88.8293 203.273131 
L 88.480906 202.965968 
L 87.30047 201.925607 
L 86.622827 201.329697 
L 86.120034 200.884224 
L 84.939597 199.839699 
L 84.426483 199.386263 
L 83.759161 198.792119 
L 82.578725 197.743492 
L 82.240143 197.442828 
L 81.398289 196.689626 
L 80.217852 195.636961 
L 80.063686 195.499394 
L 79.037416 194.576722 
L 77.897322 193.55596 
L 77.85698 193.519566 
L 76.676544 192.453382 
L 75.741942 191.612525 
L 75.496107 191.389669 
L 74.315671 190.31958 
L 73.596156 189.669091 
L 73.135235 189.24922 
L 71.954799 188.175291 
L 71.459848 187.725657 
L 70.774362 187.098194 
L 69.593926 186.020491 
L 69.332903 185.782222 
L 68.41349 184.936565 
L 67.233054 183.855154 
L 67.21521 183.838788 
L 66.052617 182.764308 
L 65.108557 181.895354 
L 64.872181 181.676112 
L 63.691745 180.581398 
L 63.011139 179.951919 
L 62.511309 179.486084 
L 61.330872 178.387808 
L 60.922701 178.008485 
L 60.150436 177.285283 
L 58.97 176.183512 
" style="fill:none;stroke:#f7b89c;"/>
    <path clip-path="url(#pa7ce5eb5d2)" d="M 199.941465 14.76 
L 200.622349 15.357949 
L 201.802785 16.392321 
L 202.157955 16.703434 
L 202.983221 17.431746 
L 204.163658 18.470315 
L 204.36423 18.646869 
L 205.344094 19.515856 
L 206.52453 20.558562 
L 206.560414 20.590303 
L 207.704966 21.610306 
L 208.745483 22.533737 
L 208.885403 22.658851 
L 210.065839 23.715119 
L 210.920337 24.477172 
L 211.246275 24.770047 
L 212.426711 25.83032 
L 213.085395 26.420606 
L 213.607148 26.891719 
L 214.787584 27.955934 
L 215.240777 28.36404 
L 215.96802 29.023894 
L 217.148456 30.091986 
L 217.386599 30.307475 
L 218.328893 31.166596 
L 219.509329 32.238501 
L 219.522975 32.250909 
L 220.689765 33.319851 
L 221.648229 34.194343 
L 221.870201 34.398417 
L 223.050638 35.483684 
L 223.764091 36.137778 
L 224.231074 36.569183 
L 225.41151 37.658121 
L 225.870785 38.081212 
L 226.591946 38.750646 
L 227.772383 39.843187 
L 227.968419 40.024646 
L 228.952819 40.94283 
L 230.056488 41.968081 
L 230.133255 42.039945 
L 231.313691 43.145763 
L 232.134068 43.911515 
L 232.494128 44.250198 
L 233.674564 45.35947 
L 234.202856 45.854949 
L 234.855 46.471321 
" style="fill:none;stroke:#f7b89c;"/>
   </g>
   <g id="LineCollection_22">
    <path clip-path="url(#pa7ce5eb5d2)" d="M 89.219558 207.16 
L 88.480906 206.510897 
L 87.30047 205.476131 
L 87.004359 205.216566 
L 86.120034 204.43572 
L 84.939597 203.396866 
L 84.799112 203.273131 
L 83.759161 202.350479 
L 82.603901 201.329697 
L 82.578725 201.307287 
L 81.398289 200.255149 
L 80.419616 199.386263 
L 80.217852 199.205812 
L 79.037416 198.149708 
L 78.244999 197.442828 
L 77.85698 197.09414 
L 76.676544 196.034132 
L 76.079935 195.499394 
L 75.496107 194.972249 
L 74.315671 193.908397 
L 73.92431 193.55596 
L 73.135235 192.840114 
L 71.954799 191.772479 
L 71.778014 191.612525 
L 70.774362 190.697711 
L 69.641311 189.669091 
L 69.593926 189.625753 
L 68.41349 188.545017 
L 67.515193 187.725657 
L 67.233054 187.466392 
L 66.052617 186.382006 
L 65.398136 185.782222 
L 64.872181 185.296627 
L 63.691745 184.208656 
L 63.290035 183.838788 
L 62.511309 183.116435 
L 61.330872 182.024941 
L 61.190785 181.895354 
L 60.150436 180.925789 
L 59.101311 179.951919 
L 58.97 179.82911 
" style="fill:none;stroke:#f7ac8e;"/>
    <path clip-path="url(#pa7ce5eb5d2)" d="M 203.983054 14.76 
L 204.163658 14.919372 
L 205.344094 15.961625 
L 206.18685 16.703434 
L 206.52453 17.002849 
L 207.704966 18.049161 
L 208.380779 18.646869 
L 208.885403 19.096452 
L 210.065839 20.146763 
L 210.564958 20.590303 
L 211.246275 21.200204 
L 212.426711 22.254455 
L 212.739504 22.533737 
L 213.607148 23.31413 
L 214.787584 24.372259 
L 214.90453 24.477172 
L 215.96802 25.438253 
L 217.059443 26.420606 
L 217.148456 26.501319 
L 218.328893 27.572597 
L 219.204057 28.36404 
L 219.509329 28.642159 
L 220.689765 29.717186 
L 221.339424 30.307475 
L 221.870201 30.79333 
L 223.050638 31.872044 
L 223.465652 32.250909 
L 224.231074 32.954856 
L 225.41151 34.037194 
L 225.582848 34.194343 
L 226.591946 35.126763 
L 227.690475 36.137778 
L 227.772383 36.213726 
L 228.952819 37.309074 
L 229.787863 38.081212 
L 230.133255 38.402981 
L 231.313691 39.501814 
L 231.876478 40.024646 
L 232.494128 40.602755 
L 233.674564 41.705009 
L 233.956422 41.968081 
L 234.855 42.813072 
" style="fill:none;stroke:#f7ac8e;"/>
   </g>
   <g id="LineCollection_23">
    <path clip-path="url(#pa7ce5eb5d2)" d="M 85.275217 207.16 
L 84.939597 206.863681 
L 83.759161 205.821773 
L 83.071993 205.216566 
L 82.578725 204.779017 
L 81.398289 203.733155 
L 80.878393 203.273131 
L 80.217852 202.684467 
L 79.037416 201.634707 
L 78.694305 201.329697 
L 77.85698 200.58001 
L 76.676544 199.526409 
L 76.519618 199.386263 
L 75.496107 198.465622 
L 74.354526 197.442828 
L 74.315671 197.407764 
L 73.135235 196.34128 
L 72.199916 195.499394 
L 71.954799 195.277165 
L 70.774362 194.206963 
L 70.054444 193.55596 
L 69.593926 193.136508 
L 68.41349 192.062646 
L 67.918006 191.612525 
L 67.233054 190.98577 
L 66.052617 189.908308 
L 65.790498 189.669091 
L 64.872181 188.824928 
L 63.691745 187.743926 
L 63.671818 187.725657 
L 62.511309 186.653959 
L 61.563649 185.782222 
L 61.330872 185.566528 
L 60.150436 184.472839 
L 59.464316 183.838788 
L 58.97 183.378642 
" style="fill:none;stroke:#f5a081;"/>
    <path clip-path="url(#pa7ce5eb5d2)" d="M 207.914805 14.76 
L 208.885403 15.621743 
L 210.065839 16.665862 
L 210.108262 16.703434 
L 211.246275 17.718523 
L 212.291182 18.646869 
L 212.426711 18.768147 
L 213.607148 19.825189 
L 214.464334 20.590303 
L 214.787584 20.880912 
L 215.96802 21.941764 
L 216.628164 22.533737 
L 217.148456 23.003667 
L 218.328893 24.068272 
L 218.78278 24.477172 
L 219.509329 25.136435 
L 220.689765 26.204734 
L 220.928287 26.420606 
L 221.870201 27.279239 
L 223.050638 28.351173 
L 223.06479 28.36404 
L 224.231074 29.432103 
L 225.190692 30.307475 
L 225.41151 30.510374 
L 226.591946 31.595048 
L 227.30763 32.250909 
L 227.772383 32.679919 
L 228.952819 33.768099 
L 229.415816 34.194343 
L 230.133255 34.859652 
L 231.313691 35.951278 
L 231.515349 36.137778 
L 232.494128 37.049599 
L 233.605801 38.081212 
L 233.674564 38.145492 
L 234.855 39.249781 
" style="fill:none;stroke:#f5a081;"/>
   </g>
   <g id="LineCollection_24">
    <path clip-path="url(#pa7ce5eb5d2)" d="M 81.431949 207.16 
L 81.398289 207.130147 
L 80.217852 206.081905 
L 79.239759 205.216566 
L 79.037416 205.03629 
L 77.85698 203.98422 
L 77.056887 203.273131 
L 76.676544 202.932719 
L 75.496107 201.876877 
L 74.883227 201.329697 
L 74.315671 200.819415 
L 73.135235 199.759854 
L 72.718674 199.386263 
L 71.954799 198.696354 
L 70.774362 197.633132 
L 70.563126 197.442828 
L 69.593926 196.563516 
L 68.416504 195.499394 
L 68.41349 195.496651 
L 67.233054 194.420877 
L 66.280358 193.55596 
L 66.052617 193.347733 
L 64.872181 192.268417 
L 64.15297 191.612525 
L 63.691745 191.188914 
L 62.511309 190.106114 
L 62.034243 189.669091 
L 61.330872 189.020171 
L 60.150436 187.933944 
L 59.92408 187.725657 
L 58.97 186.841483 
" style="fill:none;stroke:#f29274;"/>
    <path clip-path="url(#pa7ce5eb5d2)" d="M 211.745394 14.76 
L 212.426711 15.367548 
L 213.607148 16.417873 
L 213.928169 16.703434 
L 214.787584 17.473286 
L 215.96802 18.52736 
L 216.101762 18.646869 
L 217.148456 19.588738 
L 218.265798 20.590303 
L 218.328893 20.64726 
L 219.509329 21.713926 
L 220.419774 22.533737 
L 220.689765 22.778573 
L 221.870201 23.848871 
L 222.564819 24.477172 
L 223.050638 24.919721 
L 224.231074 25.993596 
L 224.701035 26.420606 
L 225.41151 27.070727 
L 226.591946 28.148121 
L 226.82852 28.36404 
L 227.772383 29.231613 
L 228.94733 30.307475 
L 228.952819 30.312536 
L 230.133255 31.402402 
L 231.055754 32.250909 
L 231.313691 32.489855 
L 232.494128 33.583114 
L 233.155685 34.194343 
L 233.674564 34.677179 
L 234.855 35.773774 
" style="fill:none;stroke:#f29274;"/>
   </g>
   <g id="LineCollection_25">
    <path clip-path="url(#pa7ce5eb5d2)" d="M 77.684172 207.16 
L 76.676544 206.261242 
L 75.500857 205.216566 
L 75.496107 205.212317 
L 74.315671 204.154765 
L 73.327882 203.273131 
L 73.135235 203.100001 
L 71.954799 202.038796 
L 71.163838 201.329697 
L 70.774362 200.978118 
L 69.593926 199.913313 
L 69.008627 199.386263 
L 68.41349 198.846648 
L 67.233054 197.778296 
L 66.862151 197.442828 
L 66.052617 196.705569 
L 64.872181 195.633725 
L 64.724313 195.499394 
L 63.691745 194.55486 
L 62.595642 193.55596 
L 62.511309 193.478569 
L 61.330872 192.394501 
L 60.476576 191.612525 
L 60.150436 191.311912 
L 58.97 190.224469 
" style="fill:none;stroke:#ee8468;"/>
    <path clip-path="url(#pa7ce5eb5d2)" d="M 215.483028 14.76 
L 215.96802 15.194291 
L 217.148456 16.250099 
L 217.655944 16.703434 
L 218.328893 17.308716 
L 219.509329 18.368155 
L 219.819958 18.646869 
L 220.689765 19.432688 
L 221.870201 20.495705 
L 221.975168 20.590303 
L 223.050638 21.566228 
L 224.120853 22.533737 
L 224.231074 22.634072 
L 225.41151 23.709357 
L 226.257089 24.477172 
L 226.591946 24.783348 
L 227.772383 25.862095 
L 228.384755 26.420606 
L 228.952819 26.942309 
L 230.133255 28.024464 
L 230.503948 28.36404 
L 231.313691 29.110978 
L 232.494128 30.196485 
L 232.614758 30.307475 
L 233.674564 31.289374 
L 234.71626 32.250909 
L 234.855 32.379871 
" style="fill:none;stroke:#ee8468;"/>
   </g>
   <g id="LineCollection_26">
    <path clip-path="url(#pa7ce5eb5d2)" d="M 74.023845 207.16 
L 73.135235 206.364162 
L 71.954799 205.310324 
L 71.849862 205.216566 
L 70.774362 204.249156 
L 69.685256 203.273131 
L 69.593926 203.190729 
L 68.41349 202.124818 
L 67.530093 201.329697 
L 67.233054 201.060526 
L 66.052617 199.991126 
L 65.383505 199.386263 
L 64.872181 198.920898 
L 63.691745 197.848062 
L 63.2454 197.442828 
L 62.511309 196.771824 
L 61.330872 195.695604 
L 61.115685 195.499394 
L 60.150436 194.613285 
L 58.994448 193.55596 
L 58.97 193.533445 
" style="fill:none;stroke:#e7745b;"/>
    <path clip-path="url(#pa7ce5eb5d2)" d="M 219.133859 14.76 
L 219.509329 15.097569 
L 220.689765 16.158203 
L 221.297665 16.703434 
L 221.870201 17.220421 
L 223.050638 18.284573 
L 223.45283 18.646869 
L 224.231074 19.352658 
L 225.41151 20.420277 
L 225.599446 20.590303 
L 226.591946 21.494301 
L 227.737353 22.533737 
L 227.772383 22.565743 
L 228.952819 23.64537 
L 229.865468 24.477172 
L 230.133255 24.722903 
L 231.313691 25.805885 
L 231.985259 26.420606 
L 232.494128 26.889582 
L 233.674564 27.975866 
L 234.096815 28.36404 
L 234.855 29.065802 
" style="fill:none;stroke:#e7745b;"/>
   </g>
   <g id="LineCollection_27">
    <path clip-path="url(#pa7ce5eb5d2)" d="M 70.445064 207.16 
L 69.593926 206.394729 
L 68.41349 205.336526 
L 68.279757 205.216566 
L 67.233054 204.271447 
L 66.123419 203.273131 
L 66.052617 203.209008 
L 64.872181 202.138986 
L 63.976468 201.329697 
L 63.691745 201.070731 
L 62.511309 199.997328 
L 61.837851 199.386263 
L 61.330872 198.923186 
L 60.150436 197.846451 
L 59.707479 197.442828 
L 58.97 196.766353 
" style="fill:none;stroke:#e0654f;"/>
    <path clip-path="url(#pa7ce5eb5d2)" d="M 222.703509 14.76 
L 223.050638 15.073293 
L 224.231074 16.138155 
L 224.858885 16.703434 
L 225.41151 17.204322 
L 226.591946 18.272593 
L 227.005865 18.646869 
L 227.772383 19.34458 
L 228.952819 20.416212 
L 229.144537 20.590303 
L 230.133255 21.494087 
L 231.274712 22.533737 
L 231.313691 22.569478 
L 232.494128 23.652863 
L 233.395332 24.477172 
L 233.674564 24.73429 
L 234.855 25.820927 
" style="fill:none;stroke:#e0654f;"/>
   </g>
   <g id="LineCollection_28">
    <path clip-path="url(#pa7ce5eb5d2)" d="M 66.942662 207.16 
L 66.052617 206.356726 
L 64.872181 205.294704 
L 64.785402 205.216566 
L 63.691745 204.225409 
L 62.637251 203.273131 
L 62.511309 203.158653 
L 61.330872 202.085063 
L 60.497904 201.329697 
L 60.150436 201.012538 
L 58.97 199.935668 
" style="fill:none;stroke:#d65244;"/>
    <path clip-path="url(#pa7ce5eb5d2)" d="M 226.197125 14.76 
L 226.591946 15.11766 
L 227.772383 16.186203 
L 228.344691 16.703434 
L 228.952819 17.256626 
L 230.133255 18.328477 
L 230.48409 18.646869 
L 231.313691 19.404671 
L 232.494128 20.479781 
L 232.615408 20.590303 
L 233.674564 21.561814 
L 234.737914 22.533737 
L 234.855 22.641461 
" style="fill:none;stroke:#d65244;"/>
   </g>
   <g id="LineCollection_29">
    <path clip-path="url(#pa7ce5eb5d2)" d="M 63.5119 207.16 
L 62.511309 206.253676 
L 61.362326 205.216566 
L 61.330872 205.187992 
L 60.150436 204.114556 
L 59.222056 203.273131 
L 58.97 203.043215 
" style="fill:none;stroke:#cc403a;"/>
    <path clip-path="url(#pa7ce5eb5d2)" d="M 229.619427 14.76 
L 230.133255 15.227126 
L 231.313691 16.298855 
L 231.759748 16.703434 
L 232.494128 17.373801 
L 233.674564 18.448738 
L 233.892118 18.646869 
L 234.855 19.529409 
" style="fill:none;stroke:#cc403a;"/>
   </g>
   <g id="LineCollection_30">
    <path clip-path="url(#pa7ce5eb5d2)" d="M 60.148423 207.16 
L 58.97 206.088866 
" style="fill:none;stroke:#c0282f;"/>
    <path clip-path="url(#pa7ce5eb5d2)" d="M 232.974754 14.76 
L 233.674564 15.398391 
L 234.855 16.472851 
" style="fill:none;stroke:#c0282f;"/>
   </g>
   <g id="LineCollection_31"/>
   <g id="patch_3">
    <path d="M 58.97 207.16 
L 58.97 14.76 
" style="fill:none;stroke:#000000;stroke-linecap:square;stroke-linejoin:miter;stroke-width:0.8;"/>
   </g>
   <g id="patch_4">
    <path d="M 234.855 207.16 
L 234.855 14.76 
" style="fill:none;stroke:#000000;stroke-linecap:square;stroke-linejoin:miter;stroke-width:0.8;"/>
   </g>
   <g id="patch_5">
    <path d="M 58.97 207.16 
L 234.855 207.16 
" style="fill:none;stroke:#000000;stroke-linecap:square;stroke-linejoin:miter;stroke-width:0.8;"/>
   </g>
   <g id="patch_6">
    <path d="M 58.97 14.76 
L 234.855 14.76 
" style="fill:none;stroke:#000000;stroke-linecap:square;stroke-linejoin:miter;stroke-width:0.8;"/>
   </g>
  </g>
 </g>
 <defs>
  <clipPath id="pa7ce5eb5d2">
   <rect height="192.4" width="175.885" x="58.97" y="14.76"/>
  </clipPath>
 </defs>
</svg>
