<?xml version="1.0" encoding="utf-8" standalone="no"?>
<!DOCTYPE svg PUBLIC "-//W3C//DTD SVG 1.1//EN"
  "http://www.w3.org/Graphics/SVG/1.1/DTD/svg11.dtd">
<!-- Created with matplotlib (https://matplotlib.org/) -->
<svg height="252pt" version="1.1" viewBox="0 0 252 252" width="252pt" xmlns="http://www.w3.org/2000/svg" xmlns:xlink="http://www.w3.org/1999/xlink">
 <defs>
  <style type="text/css">
*{stroke-linecap:butt;stroke-linejoin:round;}
  </style>
 </defs>
 <g id="figure_1">
  <g id="patch_1">
   <path d="M 0 252 
L 252 252 
L 252 0 
L 0 0 
z
" style="fill:#ffffff;"/>
  </g>
  <g id="axes_1">
   <g id="patch_2">
    <path d="M 47.45 207.16 
L 238.05 207.16 
L 238.05 14.76 
L 47.45 14.76 
z
" style="fill:#ffffff;"/>
   </g>
   <g id="PathCollection_1">
    <defs>
     <path d="M 0 4.743416 
C 1.257969 4.743416 2.464584 4.24362 3.354102 3.354102 
C 4.24362 2.464584 4.743416 1.257969 4.743416 0 
C 4.743416 -1.257969 4.24362 -2.464584 3.354102 -3.354102 
C 2.464584 -4.24362 1.257969 -4.743416 0 -4.743416 
C -1.257969 -4.743416 -2.464584 -4.24362 -3.354102 -3.354102 
C -4.24362 -2.464584 -4.743416 -1.257969 -4.743416 0 
C -4.743416 1.257969 -4.24362 2.464584 -3.354102 3.354102 
C -2.464584 4.24362 -1.257969 4.743416 0 4.743416 
z
" id="m81c24bf868" style="stroke:#000000;"/>
    </defs>
    <g clip-path="url(#pf0ae35409c)">
     <use style="stroke:#000000;" x="112.730344" xlink:href="#m81c24bf868" y="103.21893"/>
    </g>
   </g>
   <g id="matplotlib.axis_1">
    <g id="xtick_1">
     <g id="line2d_1">
      <defs>
       <path d="M 0 0 
L 0 3.5 
" id="m2b7fb5885c" style="stroke:#000000;stroke-width:0.8;"/>
      </defs>
      <g>
       <use style="stroke:#000000;stroke-width:0.8;" x="47.45" xlink:href="#m2b7fb5885c" y="207.16"/>
      </g>
     </g>
     <g id="text_1">
      <!-- −20 -->
      <defs>
       <path d="M 10.59375 35.5 
L 73.1875 35.5 
L 73.1875 27.203125 
L 10.59375 27.203125 
z
" id="DejaVuSans-8722"/>
       <path d="M 19.1875 8.296875 
L 53.609375 8.296875 
L 53.609375 0 
L 7.328125 0 
L 7.328125 8.296875 
Q 12.9375 14.109375 22.625 23.890625 
Q 32.328125 33.6875 34.8125 36.53125 
Q 39.546875 41.84375 41.421875 45.53125 
Q 43.3125 49.21875 43.3125 52.78125 
Q 43.3125 58.59375 39.234375 62.25 
Q 35.15625 65.921875 28.609375 65.921875 
Q 23.96875 65.921875 18.8125 64.3125 
Q 13.671875 62.703125 7.8125 59.421875 
L 7.8125 69.390625 
Q 13.765625 71.78125 18.9375 73 
Q 24.125 74.21875 28.421875 74.21875 
Q 39.75 74.21875 46.484375 68.546875 
Q 53.21875 62.890625 53.21875 53.421875 
Q 53.21875 48.921875 51.53125 44.890625 
Q 49.859375 40.875 45.40625 35.40625 
Q 44.1875 33.984375 37.640625 27.21875 
Q 31.109375 20.453125 19.1875 8.296875 
z
" id="DejaVuSans-50"/>
       <path d="M 31.78125 66.40625 
Q 24.171875 66.40625 20.328125 58.90625 
Q 16.5 51.421875 16.5 36.375 
Q 16.5 21.390625 20.328125 13.890625 
Q 24.171875 6.390625 31.78125 6.390625 
Q 39.453125 6.390625 43.28125 13.890625 
Q 47.125 21.390625 47.125 36.375 
Q 47.125 51.421875 43.28125 58.90625 
Q 39.453125 66.40625 31.78125 66.40625 
z
M 31.78125 74.21875 
Q 44.046875 74.21875 50.515625 64.515625 
Q 56.984375 54.828125 56.984375 36.375 
Q 56.984375 17.96875 50.515625 8.265625 
Q 44.046875 -1.421875 31.78125 -1.421875 
Q 19.53125 -1.421875 13.0625 8.265625 
Q 6.59375 17.96875 6.59375 36.375 
Q 6.59375 54.828125 13.0625 64.515625 
Q 19.53125 74.21875 31.78125 74.21875 
z
" id="DejaVuSans-48"/>
      </defs>
      <g transform="translate(36.897656 221.758438)scale(0.1 -0.1)">
       <use xlink:href="#DejaVuSans-8722"/>
       <use x="83.789062" xlink:href="#DejaVuSans-50"/>
       <use x="147.412109" xlink:href="#DejaVuSans-48"/>
      </g>
     </g>
    </g>
    <g id="xtick_2">
     <g id="line2d_2">
      <g>
       <use style="stroke:#000000;stroke-width:0.8;" x="95.1" xlink:href="#m2b7fb5885c" y="207.16"/>
      </g>
     </g>
     <g id="text_2">
      <!-- −15 -->
      <defs>
       <path d="M 12.40625 8.296875 
L 28.515625 8.296875 
L 28.515625 63.921875 
L 10.984375 60.40625 
L 10.984375 69.390625 
L 28.421875 72.90625 
L 38.28125 72.90625 
L 38.28125 8.296875 
L 54.390625 8.296875 
L 54.390625 0 
L 12.40625 0 
z
" id="DejaVuSans-49"/>
       <path d="M 10.796875 72.90625 
L 49.515625 72.90625 
L 49.515625 64.59375 
L 19.828125 64.59375 
L 19.828125 46.734375 
Q 21.96875 47.46875 24.109375 47.828125 
Q 26.265625 48.1875 28.421875 48.1875 
Q 40.625 48.1875 47.75 41.5 
Q 54.890625 34.8125 54.890625 23.390625 
Q 54.890625 11.625 47.5625 5.09375 
Q 40.234375 -1.421875 26.90625 -1.421875 
Q 22.3125 -1.421875 17.546875 -0.640625 
Q 12.796875 0.140625 7.71875 1.703125 
L 7.71875 11.625 
Q 12.109375 9.234375 16.796875 8.0625 
Q 21.484375 6.890625 26.703125 6.890625 
Q 35.15625 6.890625 40.078125 11.328125 
Q 45.015625 15.765625 45.015625 23.390625 
Q 45.015625 31 40.078125 35.4375 
Q 35.15625 39.890625 26.703125 39.890625 
Q 22.75 39.890625 18.8125 39.015625 
Q 14.890625 38.140625 10.796875 36.28125 
z
" id="DejaVuSans-53"/>
      </defs>
      <g transform="translate(84.547656 221.758438)scale(0.1 -0.1)">
       <use xlink:href="#DejaVuSans-8722"/>
       <use x="83.789062" xlink:href="#DejaVuSans-49"/>
       <use x="147.412109" xlink:href="#DejaVuSans-53"/>
      </g>
     </g>
    </g>
    <g id="xtick_3">
     <g id="line2d_3">
      <g>
       <use style="stroke:#000000;stroke-width:0.8;" x="142.75" xlink:href="#m2b7fb5885c" y="207.16"/>
      </g>
     </g>
     <g id="text_3">
      <!-- −10 -->
      <g transform="translate(132.197656 221.758438)scale(0.1 -0.1)">
       <use xlink:href="#DejaVuSans-8722"/>
       <use x="83.789062" xlink:href="#DejaVuSans-49"/>
       <use x="147.412109" xlink:href="#DejaVuSans-48"/>
      </g>
     </g>
    </g>
    <g id="xtick_4">
     <g id="line2d_4">
      <g>
       <use style="stroke:#000000;stroke-width:0.8;" x="190.4" xlink:href="#m2b7fb5885c" y="207.16"/>
      </g>
     </g>
     <g id="text_4">
      <!-- −5 -->
      <g transform="translate(183.028906 221.758438)scale(0.1 -0.1)">
       <use xlink:href="#DejaVuSans-8722"/>
       <use x="83.789062" xlink:href="#DejaVuSans-53"/>
      </g>
     </g>
    </g>
    <g id="xtick_5">
     <g id="line2d_5">
      <g>
       <use style="stroke:#000000;stroke-width:0.8;" x="238.05" xlink:href="#m2b7fb5885c" y="207.16"/>
      </g>
     </g>
     <g id="text_5">
      <!-- 0 -->
      <g transform="translate(234.86875 221.758438)scale(0.1 -0.1)">
       <use xlink:href="#DejaVuSans-48"/>
      </g>
     </g>
    </g>
    <g id="text_6">
     <!-- $\beta_0$ -->
     <defs>
      <path d="M 13.625 3.375 
L 8.9375 -20.796875 
L -0.09375 -20.796875 
L 14.5 54.34375 
Q 18.84375 76.609375 39.65625 76.609375 
Q 60.75 76.609375 57.171875 57.8125 
Q 54.734375 44.4375 45.21875 39.546875 
Q 58.015625 35.15625 55.515625 22.125 
Q 51.125 -1.078125 27.484375 -1.03125 
Q 17.140625 -0.984375 13.625 3.375 
z
M 15.921875 15.09375 
Q 19.671875 6.59375 29.296875 6.640625 
Q 43.359375 6.640625 46.34375 21.96875 
Q 49.03125 35.75 26.171875 34.671875 
L 27.78125 42.96875 
Q 45.453125 42.671875 48.53125 58.59375 
Q 50.640625 69.34375 39.203125 69.28125 
Q 26.421875 69.28125 23.484375 54.046875 
z
" id="DejaVuSans-Oblique-946"/>
     </defs>
     <g transform="translate(137.15 235.538125)scale(0.1 -0.1)">
      <use transform="translate(0 0.390625)" xlink:href="#DejaVuSans-Oblique-946"/>
      <use transform="translate(63.818359 -16.015625)scale(0.7)" xlink:href="#DejaVuSans-48"/>
     </g>
    </g>
   </g>
   <g id="matplotlib.axis_2">
    <g id="ytick_1">
     <g id="line2d_6">
      <defs>
       <path d="M 0 0 
L -3.5 0 
" id="m2fe7183459" style="stroke:#000000;stroke-width:0.8;"/>
      </defs>
      <g>
       <use style="stroke:#000000;stroke-width:0.8;" x="47.45" xlink:href="#m2fe7183459" y="207.16"/>
      </g>
     </g>
     <g id="text_7">
      <!-- 0 -->
      <g transform="translate(34.0875 210.959219)scale(0.1 -0.1)">
       <use xlink:href="#DejaVuSans-48"/>
      </g>
     </g>
    </g>
    <g id="ytick_2">
     <g id="line2d_7">
      <g>
       <use style="stroke:#000000;stroke-width:0.8;" x="47.45" xlink:href="#m2fe7183459" y="168.68"/>
      </g>
     </g>
     <g id="text_8">
      <!-- 2 -->
      <g transform="translate(34.0875 172.479219)scale(0.1 -0.1)">
       <use xlink:href="#DejaVuSans-50"/>
      </g>
     </g>
    </g>
    <g id="ytick_3">
     <g id="line2d_8">
      <g>
       <use style="stroke:#000000;stroke-width:0.8;" x="47.45" xlink:href="#m2fe7183459" y="130.2"/>
      </g>
     </g>
     <g id="text_9">
      <!-- 4 -->
      <defs>
       <path d="M 37.796875 64.3125 
L 12.890625 25.390625 
L 37.796875 25.390625 
z
M 35.203125 72.90625 
L 47.609375 72.90625 
L 47.609375 25.390625 
L 58.015625 25.390625 
L 58.015625 17.1875 
L 47.609375 17.1875 
L 47.609375 0 
L 37.796875 0 
L 37.796875 17.1875 
L 4.890625 17.1875 
L 4.890625 26.703125 
z
" id="DejaVuSans-52"/>
      </defs>
      <g transform="translate(34.0875 133.999219)scale(0.1 -0.1)">
       <use xlink:href="#DejaVuSans-52"/>
      </g>
     </g>
    </g>
    <g id="ytick_4">
     <g id="line2d_9">
      <g>
       <use style="stroke:#000000;stroke-width:0.8;" x="47.45" xlink:href="#m2fe7183459" y="91.72"/>
      </g>
     </g>
     <g id="text_10">
      <!-- 6 -->
      <defs>
       <path d="M 33.015625 40.375 
Q 26.375 40.375 22.484375 35.828125 
Q 18.609375 31.296875 18.609375 23.390625 
Q 18.609375 15.53125 22.484375 10.953125 
Q 26.375 6.390625 33.015625 6.390625 
Q 39.65625 6.390625 43.53125 10.953125 
Q 47.40625 15.53125 47.40625 23.390625 
Q 47.40625 31.296875 43.53125 35.828125 
Q 39.65625 40.375 33.015625 40.375 
z
M 52.59375 71.296875 
L 52.59375 62.3125 
Q 48.875 64.0625 45.09375 64.984375 
Q 41.3125 65.921875 37.59375 65.921875 
Q 27.828125 65.921875 22.671875 59.328125 
Q 17.53125 52.734375 16.796875 39.40625 
Q 19.671875 43.65625 24.015625 45.921875 
Q 28.375 48.1875 33.59375 48.1875 
Q 44.578125 48.1875 50.953125 41.515625 
Q 57.328125 34.859375 57.328125 23.390625 
Q 57.328125 12.15625 50.6875 5.359375 
Q 44.046875 -1.421875 33.015625 -1.421875 
Q 20.359375 -1.421875 13.671875 8.265625 
Q 6.984375 17.96875 6.984375 36.375 
Q 6.984375 53.65625 15.1875 63.9375 
Q 23.390625 74.21875 37.203125 74.21875 
Q 40.921875 74.21875 44.703125 73.484375 
Q 48.484375 72.75 52.59375 71.296875 
z
" id="DejaVuSans-54"/>
      </defs>
      <g transform="translate(34.0875 95.519219)scale(0.1 -0.1)">
       <use xlink:href="#DejaVuSans-54"/>
      </g>
     </g>
    </g>
    <g id="ytick_5">
     <g id="line2d_10">
      <g>
       <use style="stroke:#000000;stroke-width:0.8;" x="47.45" xlink:href="#m2fe7183459" y="53.24"/>
      </g>
     </g>
     <g id="text_11">
      <!-- 8 -->
      <defs>
       <path d="M 31.78125 34.625 
Q 24.75 34.625 20.71875 30.859375 
Q 16.703125 27.09375 16.703125 20.515625 
Q 16.703125 13.921875 20.71875 10.15625 
Q 24.75 6.390625 31.78125 6.390625 
Q 38.8125 6.390625 42.859375 10.171875 
Q 46.921875 13.96875 46.921875 20.515625 
Q 46.921875 27.09375 42.890625 30.859375 
Q 38.875 34.625 31.78125 34.625 
z
M 21.921875 38.8125 
Q 15.578125 40.375 12.03125 44.71875 
Q 8.5 49.078125 8.5 55.328125 
Q 8.5 64.0625 14.71875 69.140625 
Q 20.953125 74.21875 31.78125 74.21875 
Q 42.671875 74.21875 48.875 69.140625 
Q 55.078125 64.0625 55.078125 55.328125 
Q 55.078125 49.078125 51.53125 44.71875 
Q 48 40.375 41.703125 38.8125 
Q 48.828125 37.15625 52.796875 32.3125 
Q 56.78125 27.484375 56.78125 20.515625 
Q 56.78125 9.90625 50.3125 4.234375 
Q 43.84375 -1.421875 31.78125 -1.421875 
Q 19.734375 -1.421875 13.25 4.234375 
Q 6.78125 9.90625 6.78125 20.515625 
Q 6.78125 27.484375 10.78125 32.3125 
Q 14.796875 37.15625 21.921875 38.8125 
z
M 18.3125 54.390625 
Q 18.3125 48.734375 21.84375 45.5625 
Q 25.390625 42.390625 31.78125 42.390625 
Q 38.140625 42.390625 41.71875 45.5625 
Q 45.3125 48.734375 45.3125 54.390625 
Q 45.3125 60.0625 41.71875 63.234375 
Q 38.140625 66.40625 31.78125 66.40625 
Q 25.390625 66.40625 21.84375 63.234375 
Q 18.3125 60.0625 18.3125 54.390625 
z
" id="DejaVuSans-56"/>
      </defs>
      <g transform="translate(34.0875 57.039219)scale(0.1 -0.1)">
       <use xlink:href="#DejaVuSans-56"/>
      </g>
     </g>
    </g>
    <g id="ytick_6">
     <g id="line2d_11">
      <g>
       <use style="stroke:#000000;stroke-width:0.8;" x="47.45" xlink:href="#m2fe7183459" y="14.76"/>
      </g>
     </g>
     <g id="text_12">
      <!-- 10 -->
      <g transform="translate(27.725 18.559219)scale(0.1 -0.1)">
       <use xlink:href="#DejaVuSans-49"/>
       <use x="63.623047" xlink:href="#DejaVuSans-48"/>
      </g>
     </g>
    </g>
    <g id="text_13">
     <!-- $\beta_1$ -->
     <g transform="translate(21.625 116.56)rotate(-90)scale(0.1 -0.1)">
      <use transform="translate(0 0.390625)" xlink:href="#DejaVuSans-Oblique-946"/>
      <use transform="translate(63.818359 -16.015625)scale(0.7)" xlink:href="#DejaVuSans-49"/>
     </g>
    </g>
   </g>
   <g id="LineCollection_1"/>
   <g id="LineCollection_2">
    <path clip-path="url(#pf0ae35409c)" d="M 47.45 80.944225 
L 47.72015 80.836768 
L 50.008389 80.416664 
L 52.566779 80.174911 
L 56.404362 80.102385 
L 60.241946 80.254772 
L 65.358725 80.676306 
L 69.196309 81.158444 
L 78.150671 82.564855 
L 81.988255 83.297606 
L 92.221812 85.474499 
L 101.176174 87.646306 
L 108.851342 89.686866 
L 116.52651 91.883265 
L 121.643289 93.444467 
L 130.830358 96.384242 
L 147.227181 102.369148 
L 160.532858 108.044848 
L 171.678226 113.875152 
L 177.294916 117.76202 
L 179.207047 119.592598 
L 179.338882 119.705455 
L 180.621094 121.648889 
L 180.691995 123.592323 
L 180.486242 123.816611 
L 179.207047 124.86633 
L 177.927852 125.545367 
L 175.369463 126.026024 
L 172.811074 126.264796 
L 168.97349 126.33231 
L 165.135906 126.175117 
L 160.019128 125.747933 
L 156.181544 125.272398 
L 147.227181 123.85495 
L 143.389597 123.126393 
L 133.15604 120.945365 
L 122.922483 118.444638 
L 116.52651 116.727804 
L 108.851342 114.528895 
L 103.734564 112.967755 
L 94.437929 109.988283 
L 78.150671 104.038768 
L 64.788307 98.327677 
L 53.674668 92.497374 
L 48.087445 88.610505 
L 47.45 87.942979 
L 47.45 87.942979 
" style="fill:none;stroke:#445acc;"/>
   </g>
   <g id="LineCollection_3">
    <path clip-path="url(#pf0ae35409c)" d="M 238.05 151.588893 
L 232.933221 151.713935 
L 227.816443 151.620124 
L 221.42047 151.279627 
L 215.024497 150.752612 
L 206.070134 149.711433 
L 197.115772 148.459973 
L 185.60302 146.554993 
L 172.811074 144.114618 
L 161.298322 141.684629 
L 151.064765 139.357719 
L 142.106713 137.196364 
L 121.643289 131.821629 
L 112.688926 129.312889 
L 92.221812 123.160706 
L 75.560864 117.76202 
L 53.534288 109.988283 
L 47.45 107.690596 
L 47.45 107.690596 
" style="fill:none;stroke:#4e68d8;"/>
    <path clip-path="url(#pf0ae35409c)" d="M 47.45 61.282687 
L 55.125168 62.823938 
L 64.07953 64.734229 
L 74.313087 67.059246 
L 83.26745 69.221695 
L 102.455369 74.246558 
L 112.688926 77.10259 
L 131.876846 82.840951 
L 152.34396 89.520854 
L 163.856711 93.532677 
L 172.811074 96.790441 
L 186.939094 102.214545 
L 204.79094 109.704571 
L 209.907718 111.995488 
L 222.699664 118.168302 
L 230.374832 122.246139 
L 236.770805 125.954943 
L 238.05 126.754912 
L 238.05 126.754912 
" style="fill:none;stroke:#4e68d8;"/>
   </g>
   <g id="LineCollection_4">
    <path clip-path="url(#pf0ae35409c)" d="M 238.05 165.252937 
L 227.816443 163.856316 
L 215.024497 161.824607 
L 202.23255 159.526556 
L 189.440604 157.004774 
L 178.504274 154.687273 
L 160.019128 150.433893 
L 142.110403 145.968008 
L 128.039262 142.237385 
L 112.688926 137.946977 
L 99.89698 134.196857 
L 87.105034 130.28817 
L 74.313087 126.217908 
L 62.800336 122.409357 
L 51.287584 118.459173 
L 47.45 117.109577 
L 47.45 117.109577 
" style="fill:none;stroke:#5875e1;"/>
    <path clip-path="url(#pf0ae35409c)" d="M 47.45 51.863032 
L 65.358725 55.984911 
L 83.26745 60.448474 
L 97.338591 64.178142 
L 112.688926 68.466832 
L 124.201678 71.833378 
L 140.953595 76.949899 
L 165.135906 84.855818 
L 186.882215 92.502604 
L 207.430399 100.271111 
L 226.537248 108.059277 
L 238.05 113.091594 
L 238.05 113.091594 
" style="fill:none;stroke:#5875e1;"/>
   </g>
   <g id="LineCollection_5">
    <path clip-path="url(#pf0ae35409c)" d="M 238.05 173.911457 
L 222.699664 171.201094 
L 208.628523 168.481832 
L 197.115772 166.088414 
L 177.927852 161.803749 
L 161.298322 157.819802 
L 144.668792 153.596748 
L 130.597651 149.843769 
L 113.968121 145.207485 
L 102.455369 141.856607 
L 88.384228 137.62587 
L 76.871477 134.038343 
L 62.800336 129.514856 
L 52.566779 126.103574 
L 47.45 124.365073 
L 47.45 124.365073 
" style="fill:none;stroke:#6282ea;"/>
    <path clip-path="url(#pf0ae35409c)" d="M 47.45 44.615231 
L 64.07953 48.59783 
L 80.70906 52.819354 
L 94.780201 56.571519 
L 110.130537 60.846126 
L 122.922483 64.556591 
L 136.993624 68.78606 
L 147.227181 71.970231 
L 163.856711 77.321258 
L 184.323826 84.246408 
L 194.557383 87.856835 
L 207.349329 92.50199 
L 229.095638 100.841098 
L 238.05 104.434861 
L 238.05 104.434861 
" style="fill:none;stroke:#6282ea;"/>
   </g>
   <g id="LineCollection_6">
    <path clip-path="url(#pf0ae35409c)" d="M 238.05 180.79309 
L 223.589102 178.008485 
L 203.511745 173.794032 
L 184.323826 169.442974 
L 166.415101 165.121529 
L 151.064765 161.224208 
L 135.71443 157.156178 
L 121.643289 153.27785 
L 107.572148 149.260937 
L 94.780201 145.485387 
L 80.70906 141.204616 
L 69.196309 137.587362 
L 57.683557 133.874692 
L 47.45 130.490405 
L 47.45 130.490405 
" style="fill:none;stroke:#6c8ff1;"/>
    <path clip-path="url(#pf0ae35409c)" d="M 47.45 38.486921 
L 67.917114 43.544303 
L 80.70906 46.867427 
L 97.338591 51.354576 
L 110.130537 54.946325 
L 124.201678 59.025527 
L 136.993624 62.857738 
L 149.78557 66.805742 
L 162.577517 70.871131 
L 174.090268 74.638257 
L 185.60302 78.50593 
L 197.115772 82.478012 
L 208.628523 86.558564 
L 219.59147 90.553939 
L 238.05 97.551574 
L 238.05 97.551574 
" style="fill:none;stroke:#6c8ff1;"/>
   </g>
   <g id="LineCollection_7">
    <path clip-path="url(#pf0ae35409c)" d="M 238.05 186.694089 
L 222.699664 183.552599 
L 202.23255 179.059602 
L 184.323826 174.877279 
L 168.97349 171.112617 
L 152.34396 166.857483 
L 138.272819 163.112736 
L 121.792985 158.574141 
L 96.059396 151.124261 
L 81.988255 146.878963 
L 55.125168 138.400331 
L 47.45 135.892182 
L 47.45 135.892182 
" style="fill:none;stroke:#779af7;"/>
    <path clip-path="url(#pf0ae35409c)" d="M 47.45 33.089429 
L 66.637919 37.896159 
L 79.429866 41.24559 
L 96.462948 45.854949 
L 122.922483 53.398279 
L 136.760347 57.515556 
L 162.577517 65.537686 
L 186.882215 73.494171 
L 208.628523 80.95937 
L 231.654027 89.266858 
L 238.05 91.650703 
L 238.05 91.650703 
" style="fill:none;stroke:#779af7;"/>
   </g>
   <g id="LineCollection_8">
    <path clip-path="url(#pf0ae35409c)" d="M 238.05 191.943232 
L 223.978859 188.950318 
L 204.79094 184.647067 
L 188.161409 180.718669 
L 171.531879 176.615 
L 156.181544 172.675158 
L 140.831208 168.595376 
L 126.760067 164.731342 
L 111.858633 160.517576 
L 84.546644 152.446353 
L 60.241946 144.900136 
L 47.45 140.780017 
L 47.45 140.780017 
" style="fill:none;stroke:#82a6fb;"/>
    <path clip-path="url(#pf0ae35409c)" d="M 47.45 28.198883 
L 61.521141 31.753442 
L 76.871477 35.76288 
L 92.221812 39.910303 
L 106.562775 43.911515 
L 134.435235 52.038928 
L 158.739933 59.490101 
L 185.60302 68.153312 
L 203.511745 74.175999 
L 218.862081 79.506727 
L 238.05 86.400864 
L 238.05 86.400864 
" style="fill:none;stroke:#82a6fb;"/>
   </g>
   <g id="LineCollection_9">
    <path clip-path="url(#pf0ae35409c)" d="M 238.05 196.708899 
L 218.862081 192.48352 
L 200.953356 188.330633 
L 184.323826 184.301294 
L 168.97349 180.4382 
L 152.178883 176.065051 
L 124.201678 168.423763 
L 108.851342 164.048766 
L 83.26745 156.479947 
L 56.404362 148.138766 
L 47.45 145.273312 
L 47.45 145.273312 
" style="fill:none;stroke:#8db0fe;"/>
    <path clip-path="url(#pf0ae35409c)" d="M 47.45 23.710726 
L 65.651681 28.36404 
L 92.221812 35.504459 
L 108.851342 40.160794 
L 135.71443 48.007682 
L 161.298322 55.846953 
L 186.882215 64.055043 
L 208.03553 71.119596 
L 235.845351 80.836768 
L 238.05 81.636253 
L 238.05 81.636253 
" style="fill:none;stroke:#8db0fe;"/>
   </g>
   <g id="LineCollection_10">
    <path clip-path="url(#pf0ae35409c)" d="M 238.05 201.115997 
L 213.745302 195.615849 
L 198.394966 191.962393 
L 183.044631 188.180154 
L 166.003594 183.838788 
L 138.272819 176.437342 
L 122.922483 172.177264 
L 94.780201 164.043623 
L 69.196309 156.303084 
L 47.45 149.454214 
L 47.45 149.454214 
" style="fill:none;stroke:#98b9ff;"/>
    <path clip-path="url(#pf0ae35409c)" d="M 47.45 19.527509 
L 67.917114 24.817452 
L 93.501007 31.740947 
L 110.130537 36.417652 
L 135.79789 43.911515 
L 165.135906 52.900676 
L 181.765436 58.191561 
L 203.511745 65.329454 
L 231.758822 75.006465 
L 238.05 77.229696 
L 238.05 77.229696 
" style="fill:none;stroke:#98b9ff;"/>
   </g>
   <g id="LineCollection_11">
    <path clip-path="url(#pf0ae35409c)" d="M 238.05 205.228424 
L 222.699664 201.730525 
L 206.070134 197.801238 
L 189.440604 193.727944 
L 172.811074 189.511727 
L 145.947987 182.407468 
L 129.318456 177.838708 
L 101.176174 169.796265 
L 75.592282 162.158073 
L 48.729195 153.79033 
L 47.45 153.383857 
L 47.45 153.383857 
" style="fill:none;stroke:#a3c2fe;"/>
    <path clip-path="url(#pf0ae35409c)" d="M 47.45 15.597519 
L 69.196309 21.262395 
L 92.221812 27.513818 
L 111.409732 32.917659 
L 134.435235 39.634432 
L 149.78557 44.25492 
L 175.369463 52.213445 
L 199.674161 60.076311 
L 222.699664 67.807796 
L 238.05 73.117095 
L 238.05 73.117095 
" style="fill:none;stroke:#a3c2fe;"/>
   </g>
   <g id="LineCollection_12">
    <path clip-path="url(#pf0ae35409c)" d="M 229.593428 207.16 
L 203.511745 200.951458 
L 179.207047 194.865351 
L 156.181544 188.841242 
L 134.435235 182.926247 
L 112.688926 176.795138 
L 93.501007 171.205534 
L 71.754698 164.670781 
L 56.404362 159.921526 
L 47.45 157.102314 
L 47.45 157.102314 
" style="fill:none;stroke:#aec9fc;"/>
    <path clip-path="url(#pf0ae35409c)" d="M 58.577115 14.76 
L 87.105034 22.424182 
L 103.734564 27.068122 
L 128.46032 34.194343 
L 157.460738 42.921436 
L 179.305667 49.741818 
L 209.907718 59.691114 
L 236.770805 68.808521 
L 238.05 69.248792 
L 238.05 69.248792 
" style="fill:none;stroke:#aec9fc;"/>
   </g>
   <g id="LineCollection_13">
    <path clip-path="url(#pf0ae35409c)" d="M 214.274643 207.16 
L 186.882215 200.366337 
L 165.135906 194.733469 
L 142.110403 188.539198 
L 121.643289 182.837848 
L 99.89698 176.581737 
L 81.988255 171.272487 
L 59.470494 164.404444 
L 47.45 160.641566 
L 47.45 160.641566 
" style="fill:none;stroke:#b9d0f9;"/>
    <path clip-path="url(#pf0ae35409c)" d="M 71.813752 14.76 
L 101.176174 22.851251 
L 128.039262 30.579678 
L 156.181544 39.017503 
L 178.200522 45.854949 
L 208.628523 55.67455 
L 238.05 65.585716 
L 238.05 65.585716 
" style="fill:none;stroke:#b9d0f9;"/>
   </g>
   <g id="LineCollection_14">
    <path clip-path="url(#pf0ae35409c)" d="M 200.332141 207.16 
L 171.531879 199.785792 
L 153.623154 195.022087 
L 126.760067 187.626777 
L 97.338591 179.173048 
L 73.033893 171.923333 
L 47.45 164.018167 
L 47.45 164.018167 
" style="fill:none;stroke:#c3d5f4;"/>
    <path clip-path="url(#pf0ae35409c)" d="M 84.13131 14.76 
L 113.968121 23.154491 
L 139.552013 30.64242 
L 167.694295 39.200889 
L 188.866386 45.854949 
L 218.862081 55.626801 
L 238.05 62.096707 
L 238.05 62.096707 
" style="fill:none;stroke:#c3d5f4;"/>
   </g>
   <g id="LineCollection_15">
    <path clip-path="url(#pf0ae35409c)" d="M 187.450508 207.16 
L 157.460738 199.280018 
L 128.039262 191.191588 
L 101.176174 183.505569 
L 73.033893 175.139505 
L 50.008389 168.060947 
L 47.45 167.257353 
L 47.45 167.257353 
" style="fill:none;stroke:#ccd9ed;"/>
    <path clip-path="url(#pf0ae35409c)" d="M 95.700113 14.76 
L 125.480872 23.283496 
L 149.78557 30.496149 
L 179.207047 39.55418 
L 197.115772 45.242173 
L 216.303691 51.483315 
L 232.933221 57.026133 
L 238.05 58.756609 
L 238.05 58.756609 
" style="fill:none;stroke:#ccd9ed;"/>
   </g>
   <g id="LineCollection_16">
    <path clip-path="url(#pf0ae35409c)" d="M 175.418271 207.16 
L 175.369463 207.147086 
L 174.090268 206.807913 
L 172.811074 206.469433 
L 171.531879 206.131636 
L 170.252685 205.794515 
L 168.97349 205.458061 
L 168.054619 205.216566 
L 167.694295 205.120115 
L 166.415101 204.777371 
L 165.135906 204.435348 
L 163.856711 204.094038 
L 162.577517 203.75343 
L 161.298322 203.413516 
L 160.770251 203.273131 
L 160.019128 203.069768 
L 158.739933 202.723575 
L 157.460738 202.37813 
L 156.181544 202.033423 
L 154.902349 201.689446 
L 153.623154 201.34619 
L 153.561809 201.329697 
L 152.34396 200.996257 
L 151.064765 200.646733 
L 149.78557 200.297984 
L 148.506376 199.949999 
L 147.227181 199.602769 
L 146.429115 199.386263 
L 145.947987 199.253336 
L 144.668792 198.89979 
L 143.389597 198.547053 
L 142.110403 198.195116 
L 140.831208 197.843968 
L 139.552013 197.493599 
L 139.366907 197.442828 
L 138.272819 197.13724 
L 136.993624 196.780573 
L 135.71443 196.424739 
L 134.435235 196.069728 
L 133.15604 195.71553 
L 132.374962 195.499394 
L 131.876846 195.359026 
L 130.597651 194.998484 
L 129.318456 194.63881 
L 128.039262 194.279993 
L 126.760067 193.922021 
L 125.480872 193.564884 
L 125.448963 193.55596 
L 124.201678 193.200728 
L 122.922483 192.837271 
L 121.643289 192.474704 
L 120.364094 192.113014 
L 119.084899 191.752192 
L 118.589842 191.612525 
L 117.805705 191.387246 
L 116.52651 191.020063 
L 115.247315 190.653802 
L 113.968121 190.288452 
L 112.688926 189.924 
L 111.793154 189.669091 
L 111.409732 189.557977 
L 110.130537 189.187126 
L 108.851342 188.817229 
L 107.572148 188.448275 
L 106.292953 188.080251 
L 105.057529 187.725657 
L 105.013758 187.712862 
L 103.734564 187.338402 
L 102.455369 186.964927 
L 101.176174 186.592426 
L 99.89698 186.220887 
L 98.617785 185.850296 
L 98.383015 185.782222 
L 97.338591 185.473829 
L 96.059396 185.096835 
L 94.780201 184.720846 
L 93.501007 184.345848 
L 92.221812 183.97183 
L 91.766836 183.838788 
L 90.942617 183.59335 
L 89.663423 183.212895 
L 88.384228 182.833475 
L 87.105034 182.455078 
L 85.825839 182.077689 
L 85.207496 181.895354 
L 84.546644 181.696902 
L 83.26745 181.313046 
L 81.988255 180.930255 
L 80.70906 180.548516 
L 79.429866 180.167815 
L 78.703789 179.951919 
L 78.150671 179.784426 
L 76.871477 179.397228 
L 75.592282 179.011125 
L 74.313087 178.626103 
L 73.033893 178.242149 
L 72.254544 178.008485 
L 71.754698 177.85586 
L 70.475503 177.465381 
L 69.196309 177.076026 
L 67.917114 176.687781 
L 66.637919 176.300632 
L 65.858623 176.065051 
L 65.358725 175.911144 
L 64.07953 175.517443 
L 62.800336 175.124897 
L 61.521141 174.733488 
L 60.241946 174.343204 
L 59.514919 174.121616 
L 58.962752 173.950215 
L 57.683557 173.553355 
L 56.404362 173.157677 
L 55.125168 172.763166 
L 53.845973 172.369807 
L 53.222355 172.178182 
L 52.566779 171.973012 
L 51.287584 171.573055 
L 50.008389 171.174307 
L 48.729195 170.776754 
L 47.45 170.380379 
" style="fill:none;stroke:#d5dbe5;"/>
    <path clip-path="url(#pf0ae35409c)" d="M 106.641413 14.76 
L 107.572148 15.027366 
L 108.851342 15.394329 
L 110.130537 15.760372 
L 111.409732 16.125507 
L 112.688926 16.489745 
L 113.439929 16.703434 
L 113.968121 16.856484 
L 115.247315 17.227113 
L 116.52651 17.596791 
L 117.805705 17.965528 
L 119.084899 18.333338 
L 120.177377 18.646869 
L 120.364094 18.701439 
L 121.643289 19.075678 
L 122.922483 19.448932 
L 124.201678 19.821215 
L 125.480872 20.192538 
L 126.760067 20.562915 
L 126.854533 20.590303 
L 128.039262 20.940081 
L 129.318456 21.316854 
L 130.597651 21.692624 
L 131.876846 22.067404 
L 133.15604 22.441208 
L 133.472509 22.533737 
L 134.435235 22.820384 
L 135.71443 23.200617 
L 136.993624 23.579816 
L 138.272819 23.957995 
L 139.552013 24.335167 
L 140.033641 24.477172 
L 140.831208 24.716647 
L 142.110403 25.10028 
L 143.389597 25.482849 
L 144.668792 25.864369 
L 145.947987 26.244852 
L 146.539134 26.420606 
L 147.227181 26.628931 
L 148.506376 27.015904 
L 149.78557 27.401784 
L 151.064765 27.786585 
L 152.34396 28.170322 
L 152.990159 28.36404 
L 153.623154 28.557295 
L 154.902349 28.947549 
L 156.181544 29.33668 
L 157.460738 29.724704 
L 158.739933 30.111634 
L 159.387854 30.307475 
L 160.019128 30.501802 
L 161.298322 30.895275 
L 162.577517 31.287598 
L 163.856711 31.678784 
L 165.135906 32.068848 
L 165.733325 32.250909 
L 166.415101 32.462513 
L 167.694295 32.859145 
L 168.97349 33.254597 
L 170.252685 33.648885 
L 171.531879 34.042024 
L 172.02765 34.194343 
L 172.811074 34.439489 
L 174.090268 34.839218 
L 175.369463 35.237739 
L 176.648658 35.635069 
L 177.927852 36.031222 
L 178.271875 36.137778 
L 179.207047 36.432794 
L 180.486242 36.835557 
L 181.765436 37.237085 
L 183.044631 37.637395 
L 184.323826 38.036501 
L 184.467019 38.081212 
L 185.60302 38.442489 
L 186.882215 38.848224 
L 188.161409 39.252697 
L 189.440604 39.655925 
L 190.613495 40.024646 
L 190.719799 40.058688 
L 191.998993 40.468636 
L 193.278188 40.87728 
L 194.557383 41.284636 
L 195.836577 41.69072 
L 196.711819 41.968081 
L 197.115772 42.098481 
L 198.394966 42.5113 
L 199.674161 42.922789 
L 200.953356 43.332964 
L 202.23255 43.741841 
L 202.763729 43.911515 
L 203.511745 44.154917 
L 204.79094 44.570544 
L 206.070134 44.984813 
L 207.349329 45.397743 
L 208.628523 45.809351 
L 208.770148 45.854949 
L 209.907718 46.228063 
L 211.186913 46.646431 
L 212.466107 47.063416 
L 213.745302 47.479037 
L 214.730411 47.798384 
L 215.024497 47.895512 
L 216.303691 48.317982 
L 217.582886 48.739025 
L 218.862081 49.158662 
L 220.141275 49.576908 
L 220.645992 49.741818 
L 221.42047 49.999635 
L 222.699664 50.424739 
L 223.978859 50.848392 
L 225.258054 51.270613 
L 226.518419 51.685253 
L 226.537248 51.691564 
L 227.816443 52.120729 
L 229.095638 52.548399 
L 230.374832 52.974594 
L 231.654027 53.399334 
L 232.345744 53.628687 
L 232.933221 53.827172 
L 234.212416 54.258859 
L 235.491611 54.689028 
L 236.770805 55.117699 
L 238.05 55.54489 
" style="fill:none;stroke:#d5dbe5;"/>
   </g>
   <g id="LineCollection_17">
    <path clip-path="url(#pf0ae35409c)" d="M 164.088689 207.16 
L 163.856711 207.097413 
L 162.577517 206.75184 
L 161.298322 206.406986 
L 160.019128 206.062844 
L 158.739933 205.719404 
L 157.460738 205.376657 
L 156.863343 205.216566 
L 156.181544 205.030603 
L 154.902349 204.681774 
L 153.623154 204.33369 
L 152.34396 203.986341 
L 151.064765 203.639719 
L 149.78557 203.293814 
L 149.709218 203.273131 
L 148.506376 202.941517 
L 147.227181 202.589544 
L 145.947987 202.238339 
L 144.668792 201.887892 
L 143.389597 201.538195 
L 142.62654 201.329697 
L 142.110403 201.186161 
L 140.831208 200.830351 
L 139.552013 200.475342 
L 138.272819 200.121123 
L 136.993624 199.767685 
L 135.71443 199.415019 
L 135.610285 199.386263 
L 134.435235 199.056057 
L 133.15604 198.697296 
L 131.876846 198.339357 
L 130.597651 197.982231 
L 129.318456 197.625907 
L 128.661034 197.442828 
L 128.039262 197.266605 
L 126.760067 196.904146 
L 125.480872 196.542541 
L 124.201678 196.181779 
L 122.922483 195.821849 
L 121.774321 195.499394 
L 121.643289 195.461941 
L 120.364094 195.095837 
L 119.084899 194.730618 
L 117.805705 194.366273 
L 116.52651 194.002791 
L 115.247315 193.640162 
L 114.950519 193.55596 
L 113.968121 193.272314 
L 112.688926 192.903535 
L 111.409732 192.53566 
L 110.130537 192.168678 
L 108.851342 191.802578 
L 108.186983 191.612525 
L 107.572148 191.43352 
L 106.292953 191.061236 
L 105.013758 190.689885 
L 103.734564 190.319457 
L 102.455369 189.949939 
L 101.481696 189.669091 
L 101.176174 189.579401 
L 99.89698 189.203665 
L 98.617785 188.828893 
L 97.338591 188.455072 
L 96.059396 188.08219 
L 94.833437 187.725657 
L 94.780201 187.709899 
L 93.501007 187.330767 
L 92.221812 186.952628 
L 90.942617 186.575468 
L 89.663423 186.199276 
L 88.384228 185.824041 
L 88.241819 185.782222 
L 87.105034 185.442486 
L 85.825839 185.061034 
L 84.546644 184.680591 
L 83.26745 184.301143 
L 81.988255 183.92268 
L 81.704868 183.838788 
L 80.70906 183.538765 
L 79.429866 183.154056 
L 78.150671 182.770384 
L 76.871477 182.387736 
L 75.592282 182.006098 
L 75.221178 181.895354 
L 74.313087 181.619547 
L 73.033893 181.231638 
L 71.754698 180.844793 
L 70.475503 180.458998 
L 69.196309 180.074241 
L 68.789668 179.951919 
L 67.917114 179.684777 
L 66.637919 179.293723 
L 65.358725 178.90376 
L 64.07953 178.514875 
L 62.800336 178.127054 
L 62.409287 178.008485 
L 61.521141 177.734396 
L 60.241946 177.340254 
L 58.962752 176.947231 
L 57.683557 176.555311 
L 56.404362 176.164481 
L 56.079012 176.065051 
L 55.125168 175.768346 
L 53.845973 175.371175 
L 52.566779 174.975147 
L 51.287584 174.580249 
L 50.008389 174.186467 
L 49.797848 174.121616 
L 48.729195 173.786572 
L 47.45 173.386427 
" style="fill:none;stroke:#dddcdc;"/>
    <path clip-path="url(#pf0ae35409c)" d="M 117.047308 14.76 
L 117.805705 14.980776 
L 119.084899 15.352847 
L 120.364094 15.723986 
L 121.643289 16.094205 
L 122.922483 16.463515 
L 123.754351 16.703434 
L 124.201678 16.834738 
L 125.480872 17.210258 
L 126.760067 17.584818 
L 128.039262 17.958428 
L 129.318456 18.331101 
L 130.40436 18.646869 
L 130.597651 18.704074 
L 131.876846 19.08299 
L 133.15604 19.460915 
L 134.435235 19.837863 
L 135.71443 20.213845 
L 136.993624 20.588873 
L 136.998495 20.590303 
L 138.272819 20.971097 
L 139.552013 21.352333 
L 140.831208 21.732564 
L 142.110403 22.111801 
L 143.389597 22.490056 
L 143.537171 22.533737 
L 144.668792 22.874636 
L 145.947987 23.259128 
L 147.227181 23.642586 
L 148.506376 24.025023 
L 149.78557 24.406452 
L 150.022582 24.477172 
L 151.064765 24.793664 
L 152.34396 25.181356 
L 153.623154 25.567986 
L 154.902349 25.953568 
L 156.181544 26.338115 
L 156.455807 26.420606 
L 157.460738 26.728237 
L 158.739933 27.119073 
L 160.019128 27.50882 
L 161.298322 27.897491 
L 162.577517 28.285101 
L 162.837897 28.36404 
L 163.856711 28.678413 
L 165.135906 29.072335 
L 166.415101 29.465142 
L 167.694295 29.856848 
L 168.97349 30.247465 
L 169.169874 30.307475 
L 170.252685 30.644249 
L 171.531879 31.041201 
L 172.811074 31.437011 
L 174.090268 31.831694 
L 175.369463 32.225263 
L 175.452734 32.250909 
L 176.648658 32.625803 
L 177.927852 33.025727 
L 179.207047 33.424483 
L 180.486242 33.822086 
L 181.68703 34.194343 
L 181.765436 34.219086 
L 183.044631 34.623132 
L 184.323826 35.02597 
L 185.60302 35.427615 
L 186.882215 35.828082 
L 187.873434 36.137778 
L 188.161409 36.229369 
L 189.440604 36.636295 
L 190.719799 37.041989 
L 191.998993 37.446464 
L 193.278188 37.849736 
L 194.013325 38.081212 
L 194.557383 38.255604 
L 195.836577 38.665351 
L 197.115772 39.073841 
L 198.394966 39.481088 
L 199.674161 39.887108 
L 200.107606 40.024646 
L 200.953356 40.297849 
L 202.23255 40.710359 
L 203.511745 41.121585 
L 204.79094 41.531545 
L 206.070134 41.940253 
L 206.157159 41.968081 
L 207.349329 42.356166 
L 208.628523 42.771376 
L 209.907718 43.18528 
L 211.186913 43.597893 
L 212.161267 43.911515 
L 212.466107 44.011415 
L 213.745302 44.430613 
L 215.024497 44.848464 
L 216.303691 45.264984 
L 217.582886 45.68019 
L 218.121691 45.854949 
L 218.862081 46.099451 
L 220.141275 46.521251 
L 221.42047 46.941681 
L 222.699664 47.360757 
L 223.978859 47.778496 
L 224.039711 47.798384 
L 225.258054 48.2038 
L 226.537248 48.628141 
L 227.816443 49.051087 
L 229.095638 49.472658 
L 229.913779 49.741818 
L 230.374832 49.896272 
L 231.654027 50.324525 
L 232.933221 50.751342 
L 234.212416 51.176744 
L 235.491611 51.600747 
L 235.746539 51.685253 
L 236.770805 52.030997 
L 238.05 52.461685 
" style="fill:none;stroke:#dddcdc;"/>
   </g>
   <g id="LineCollection_18">
    <path clip-path="url(#pf0ae35409c)" d="M 153.350012 207.16 
L 152.34396 206.88371 
L 151.064765 206.532851 
L 149.78557 206.182727 
L 148.506376 205.833332 
L 147.227181 205.484654 
L 146.242525 205.216566 
L 145.947987 205.134991 
L 144.668792 204.780386 
L 143.389597 204.426548 
L 142.110403 204.073468 
L 140.831208 203.721136 
L 139.552013 203.369544 
L 139.201503 203.273131 
L 138.272819 203.013294 
L 136.993624 202.655791 
L 135.71443 202.299076 
L 134.435235 201.943138 
L 133.15604 201.58797 
L 132.224828 201.329697 
L 131.876846 201.231523 
L 130.597651 200.870405 
L 129.318456 200.510104 
L 128.039262 200.15061 
L 126.760067 199.791914 
L 125.480872 199.434007 
L 125.310436 199.386263 
L 124.201678 199.070337 
L 122.922483 198.7065 
L 121.643289 198.3435 
L 120.364094 197.981326 
L 119.084899 197.619969 
L 118.457675 197.442828 
L 117.805705 197.255536 
L 116.52651 196.888214 
L 115.247315 196.521757 
L 113.968121 196.156155 
L 112.688926 195.791397 
L 111.663327 195.499394 
L 111.409732 195.42595 
L 110.130537 195.055193 
L 108.851342 194.68533 
L 107.572148 194.316349 
L 106.292953 193.948241 
L 105.013758 193.580995 
L 104.926672 193.55596 
L 103.734564 193.207385 
L 102.455369 192.834166 
L 101.176174 192.461858 
L 99.89698 192.090449 
L 98.617785 191.719929 
L 98.247134 191.612525 
L 97.338591 191.344738 
L 96.059396 190.968215 
L 94.780201 190.592629 
L 93.501007 190.21797 
L 92.221812 189.844226 
L 91.62218 189.669091 
L 90.942617 189.467199 
L 89.663423 189.087423 
L 88.384228 188.708611 
L 87.105034 188.330753 
L 85.825839 187.953836 
L 85.050717 187.725657 
L 84.546644 187.574715 
L 83.26745 187.191738 
L 81.988255 186.809752 
L 80.70906 186.428745 
L 79.429866 186.048707 
L 78.531679 185.782222 
L 78.150671 185.667233 
L 76.871477 185.281107 
L 75.592282 184.895999 
L 74.313087 184.511896 
L 73.033893 184.128787 
L 72.064028 183.838788 
L 71.754698 183.7447 
L 70.475503 183.355478 
L 69.196309 182.9673 
L 67.917114 182.580153 
L 66.637919 182.194024 
L 65.646756 181.895354 
L 65.358725 181.807062 
L 64.07953 181.414797 
L 62.800336 181.023602 
L 61.521141 180.633463 
L 60.241946 180.244367 
L 59.278877 179.951919 
L 58.962752 179.854264 
L 57.683557 179.459011 
L 56.404362 179.064852 
L 55.125168 178.671773 
L 53.845973 178.279763 
L 52.959434 178.008485 
L 52.566779 177.886254 
L 51.287584 177.488066 
L 50.008389 177.090996 
L 48.729195 176.695031 
L 47.45 176.300159 
" style="fill:none;stroke:#e5d8d1;"/>
    <path clip-path="url(#pf0ae35409c)" d="M 126.990085 14.76 
L 128.039262 15.069203 
L 129.318456 15.445519 
L 130.597651 15.820899 
L 131.876846 16.195354 
L 133.15604 16.568896 
L 133.616724 16.703434 
L 134.435235 16.946578 
L 135.71443 17.326146 
L 136.993624 17.704751 
L 138.272819 18.082405 
L 139.552013 18.459119 
L 140.189869 18.646869 
L 140.831208 18.838891 
L 142.110403 19.221658 
L 143.389597 19.603437 
L 144.668792 19.984238 
L 145.947987 20.364073 
L 146.710584 20.590303 
L 147.227181 20.746194 
L 148.506376 21.132109 
L 149.78557 21.517009 
L 151.064765 21.900906 
L 152.34396 22.283811 
L 153.179905 22.533737 
L 153.623154 22.668542 
L 154.902349 23.057552 
L 156.181544 23.445521 
L 157.460738 23.832461 
L 158.739933 24.218385 
L 159.598844 24.477172 
L 160.019128 24.605987 
L 161.298322 24.998039 
L 162.577517 25.389024 
L 163.856711 25.778956 
L 165.135906 26.167846 
L 165.968383 26.420606 
L 166.415101 26.558584 
L 167.694295 26.953624 
L 168.97349 27.347573 
L 170.252685 27.740443 
L 171.531879 28.132246 
L 172.28948 28.36404 
L 172.811074 28.526387 
L 174.090268 28.924361 
L 175.369463 29.321219 
L 176.648658 29.716974 
L 177.927852 30.111639 
L 178.56307 30.307475 
L 179.207047 30.50945 
L 180.486242 30.910304 
L 181.765436 31.310018 
L 183.044631 31.708604 
L 184.323826 32.106077 
L 184.790061 32.250909 
L 185.60302 32.507827 
L 186.882215 32.911507 
L 188.161409 33.314022 
L 189.440604 33.715386 
L 190.719799 34.115613 
L 190.971341 34.194343 
L 191.998993 34.521574 
L 193.278188 34.928024 
L 194.557383 35.333285 
L 195.836577 35.737373 
L 197.107732 36.137778 
L 197.115772 36.140354 
L 198.394966 36.550745 
L 199.674161 36.95991 
L 200.953356 37.367863 
L 202.23255 37.774619 
L 203.198616 38.081212 
L 203.511745 38.182324 
L 204.79094 38.595397 
L 206.070134 39.00722 
L 207.349329 39.417809 
L 208.628523 39.827178 
L 209.246117 40.024646 
L 209.907718 40.239887 
L 211.186913 40.655584 
L 212.466107 41.07001 
L 213.745302 41.483178 
L 215.024497 41.895105 
L 215.251046 41.968081 
L 216.303691 42.313098 
L 217.582886 42.731363 
L 218.862081 43.148334 
L 220.141275 43.564026 
L 221.213155 43.911515 
L 221.42047 43.979908 
L 222.699664 44.402015 
L 223.978859 44.82279 
L 225.258054 45.242249 
L 226.537248 45.660407 
L 227.132928 45.854949 
L 227.816443 46.082114 
L 229.095638 46.506695 
L 230.374832 46.929922 
L 231.654027 47.351811 
L 232.933221 47.772378 
L 233.012266 47.798384 
L 234.212416 48.200198 
L 235.491611 48.627194 
L 236.770805 49.052814 
L 238.05 49.477076 
" style="fill:none;stroke:#e5d8d1;"/>
   </g>
   <g id="LineCollection_19">
    <path clip-path="url(#pf0ae35409c)" d="M 143.118634 207.16 
L 142.110403 206.879068 
L 140.831208 206.523102 
L 139.552013 206.167889 
L 138.272819 205.81342 
L 136.993624 205.459687 
L 136.113669 205.216566 
L 135.71443 205.104419 
L 134.435235 204.744918 
L 133.15604 204.386199 
L 131.876846 204.028251 
L 130.597651 203.671066 
L 129.318456 203.314635 
L 129.169691 203.273131 
L 128.039262 202.952502 
L 126.760067 202.590322 
L 125.480872 202.228942 
L 124.201678 201.868352 
L 122.922483 201.508543 
L 122.286499 201.329697 
L 121.643289 201.145804 
L 120.364094 200.780212 
L 119.084899 200.415446 
L 117.805705 200.051498 
L 116.52651 199.688357 
L 115.460689 199.386263 
L 115.247315 199.324775 
L 113.968121 198.955818 
L 112.688926 198.587714 
L 111.409732 198.220454 
L 110.130537 197.854028 
L 108.851342 197.488427 
L 108.691974 197.442828 
L 107.572148 197.117092 
L 106.292953 196.745698 
L 105.013758 196.375174 
L 103.734564 196.00551 
L 102.455369 195.636696 
L 101.979203 195.499394 
L 101.176174 195.263984 
L 99.89698 194.889348 
L 98.617785 194.515608 
L 97.338591 194.142753 
L 96.059396 193.770773 
L 95.320143 193.55596 
L 94.780201 193.396445 
L 93.501007 193.018615 
L 92.221812 192.641707 
L 90.942617 192.265709 
L 89.663423 191.890612 
L 88.713742 191.612525 
L 88.384228 191.514426 
L 87.105034 191.133451 
L 85.825839 190.753422 
L 84.546644 190.37433 
L 83.26745 189.996162 
L 82.158976 189.669091 
L 81.988255 189.617875 
L 80.70906 189.233804 
L 79.429866 188.850705 
L 78.150671 188.468566 
L 76.871477 188.087377 
L 75.654847 187.725657 
L 75.592282 187.706744 
L 74.313087 187.319626 
L 73.033893 186.933505 
L 71.754698 186.548369 
L 70.475503 186.164206 
L 69.200385 185.782222 
L 69.196309 185.780981 
L 67.917114 185.390867 
L 66.637919 185.001773 
L 65.358725 184.613689 
L 64.07953 184.226602 
L 62.800336 183.8405 
L 62.794669 183.838788 
L 61.521141 183.447475 
L 60.241946 183.055459 
L 58.962752 182.664476 
L 57.683557 182.274514 
L 56.436691 181.895354 
L 56.404362 181.885358 
L 55.125168 181.489401 
L 53.845973 181.094513 
L 52.566779 180.700681 
L 51.287584 180.307893 
L 50.125636 179.951919 
L 50.008389 179.915395 
L 48.729195 179.516594 
L 47.45 179.118885 
" style="fill:none;stroke:#ecd3c5;"/>
    <path clip-path="url(#pf0ae35409c)" d="M 136.525563 14.76 
L 136.993624 14.899331 
L 138.272819 15.280103 
L 139.552013 15.65993 
L 140.831208 16.038823 
L 142.110403 16.416793 
L 143.081963 16.703434 
L 143.389597 16.795713 
L 144.668792 17.17958 
L 145.947987 17.562477 
L 147.227181 17.944416 
L 148.506376 18.325407 
L 149.58772 18.646869 
L 149.78557 18.70667 
L 151.064765 19.093582 
L 152.34396 19.4795 
L 153.623154 19.864436 
L 154.902349 20.248399 
L 156.043806 20.590303 
L 156.181544 20.632251 
L 157.460738 21.022159 
L 158.739933 21.411049 
L 160.019128 21.798931 
L 161.298322 22.185819 
L 162.451169 22.533737 
L 162.577517 22.572507 
L 163.856711 22.965361 
L 165.135906 23.357172 
L 166.415101 23.747953 
L 167.694295 24.137715 
L 168.810732 24.477172 
L 168.97349 24.52749 
L 170.252685 24.923239 
L 171.531879 25.317921 
L 172.811074 25.71155 
L 174.090268 26.104137 
L 175.123394 26.420606 
L 175.369463 26.497249 
L 176.648658 26.895842 
L 177.927852 27.293346 
L 179.207047 27.689772 
L 180.486242 28.085134 
L 181.390033 28.36404 
L 181.765436 28.481837 
L 183.044631 28.883223 
L 184.323826 29.283497 
L 185.60302 29.68267 
L 186.882215 30.080757 
L 187.611506 30.307475 
L 188.161409 30.481305 
L 189.440604 30.885432 
L 190.719799 31.288424 
L 191.998993 31.690294 
L 193.278188 32.091055 
L 193.788646 32.250909 
L 194.557383 32.495705 
L 195.836577 32.902521 
L 197.115772 33.30818 
L 198.394966 33.712695 
L 199.674161 34.116079 
L 199.922269 34.194343 
L 200.953356 34.525089 
L 202.23255 34.934542 
L 203.511745 35.342815 
L 204.79094 35.749923 
L 206.012886 36.137778 
L 206.070134 36.156257 
L 207.349329 36.569509 
L 208.628523 36.981546 
L 209.907718 37.392381 
L 211.186913 37.80203 
L 212.060133 38.081212 
L 212.466107 38.213214 
L 213.745302 38.629018 
L 215.024497 39.043585 
L 216.303691 39.45693 
L 217.582886 39.869067 
L 218.066009 40.024646 
L 218.862081 40.285366 
L 220.141275 40.703668 
L 221.42047 41.120712 
L 222.699664 41.536513 
L 223.978859 41.951086 
L 224.031257 41.968081 
L 225.258054 42.372767 
L 226.537248 42.793512 
L 227.816443 43.212979 
L 229.095638 43.631183 
L 229.954578 43.911515 
L 230.374832 44.051021 
L 231.654027 44.47547 
L 232.933221 44.898604 
L 234.212416 45.32044 
L 235.491611 45.740992 
L 235.838294 45.854949 
L 236.770805 46.166727 
L 238.05 46.59353 
" style="fill:none;stroke:#ecd3c5;"/>
   </g>
   <g id="LineCollection_20">
    <path clip-path="url(#pf0ae35409c)" d="M 133.328696 207.16 
L 133.15604 207.11132 
L 131.876846 206.750248 
L 130.597651 206.389949 
L 129.318456 206.030411 
L 128.039262 205.671628 
L 126.760067 205.31359 
L 126.413638 205.216566 
L 125.480872 204.951095 
L 124.201678 204.587454 
L 122.922483 204.224601 
L 121.643289 203.862528 
L 120.364094 203.501225 
L 119.555919 203.273131 
L 119.084899 203.138039 
L 117.805705 202.771101 
L 116.52651 202.404977 
L 115.247315 202.039657 
L 113.968121 201.675134 
L 112.753507 201.329697 
L 112.688926 201.311032 
L 111.409732 200.940843 
L 110.130537 200.571492 
L 108.851342 200.202972 
L 107.572148 199.835272 
L 106.292953 199.468384 
L 106.006824 199.386263 
L 105.013758 199.096633 
L 103.734564 198.724102 
L 102.455369 198.352425 
L 101.176174 197.981593 
L 99.89698 197.611597 
L 99.313361 197.442828 
L 98.617785 197.238425 
L 97.338591 196.862758 
L 96.059396 196.487971 
L 94.780201 196.114052 
L 93.501007 195.740993 
L 92.671769 195.499394 
L 92.221812 195.366172 
L 90.942617 194.987416 
L 89.663423 194.609563 
L 88.384228 194.232603 
L 87.105034 193.856526 
L 86.081062 193.55596 
L 85.825839 193.479828 
L 84.546644 193.098028 
L 83.26745 192.717155 
L 81.988255 192.337199 
L 80.70906 191.958149 
L 79.540279 191.612525 
L 79.429866 191.579344 
L 78.150671 191.194547 
L 76.871477 190.810701 
L 75.592282 190.427795 
L 74.313087 190.045818 
L 73.048486 189.669091 
L 73.033893 189.664673 
L 71.754698 189.276926 
L 70.475503 188.890153 
L 69.196309 188.504343 
L 67.917114 188.119485 
L 66.637919 187.735568 
L 66.604933 187.725657 
L 65.358725 187.345118 
L 64.07953 186.955465 
L 62.800336 186.566798 
L 61.521141 186.179105 
L 60.241946 185.792376 
L 60.2084 185.782222 
L 58.962752 185.399075 
L 57.683557 185.006589 
L 56.404362 184.615112 
L 55.125168 184.224631 
L 53.858014 183.838788 
L 53.845973 183.835061 
L 52.566779 183.438749 
L 51.287584 183.043478 
L 50.008389 182.649238 
L 48.729195 182.256015 
L 47.553264 181.895354 
L 47.45 181.863164 
" style="fill:none;stroke:#f1ccb8;"/>
    <path clip-path="url(#pf0ae35409c)" d="M 145.701076 14.76 
L 145.947987 14.834193 
L 147.227181 15.218791 
L 148.506376 15.602441 
L 149.78557 15.985152 
L 151.064765 16.366936 
L 152.194453 16.703434 
L 152.34396 16.748692 
L 153.623154 17.13624 
L 154.902349 17.522815 
L 156.181544 17.908429 
L 157.460738 18.293094 
L 158.639749 18.646869 
L 158.739933 18.677419 
L 160.019128 19.067869 
L 161.298322 19.457323 
L 162.577517 19.845794 
L 163.856711 20.233293 
L 165.037856 20.590303 
L 165.135906 20.620423 
L 166.415101 21.013726 
L 167.694295 21.406013 
L 168.97349 21.797293 
L 170.252685 22.187579 
L 171.389642 22.533737 
L 171.531879 22.57775 
L 172.811074 22.97386 
L 174.090268 23.368931 
L 175.369463 23.762974 
L 176.648658 24.156 
L 177.695955 24.477172 
L 177.927852 24.549449 
L 179.207047 24.948318 
L 180.486242 25.346126 
L 181.765436 25.742883 
L 183.044631 26.138603 
L 183.957621 26.420606 
L 184.323826 26.535569 
L 185.60302 26.937148 
L 186.882215 27.337644 
L 188.161409 27.737069 
L 189.440604 28.135434 
L 190.175447 28.36404 
L 190.719799 28.536159 
L 191.998993 28.940399 
L 193.278188 29.343535 
L 194.557383 29.745578 
L 195.836577 30.146542 
L 196.35022 30.307475 
L 197.115772 30.551267 
L 198.394966 30.95812 
L 199.674161 31.363846 
L 200.953356 31.76846 
L 202.23255 32.171973 
L 202.482711 32.250909 
L 203.511745 32.580944 
L 204.79094 32.990358 
L 206.070134 33.398626 
L 207.349329 33.805761 
L 208.573405 34.194343 
L 208.628523 34.212129 
L 209.907718 34.625237 
L 211.186913 35.037164 
L 212.466107 35.447924 
L 213.745302 35.857531 
L 214.621912 36.137778 
L 215.024497 36.268607 
L 216.303691 36.684197 
L 217.582886 37.098586 
L 218.862081 37.511788 
L 220.141275 37.923817 
L 220.630165 38.081212 
L 221.42047 38.339852 
L 222.699664 38.757873 
L 223.978859 39.174674 
L 225.258054 39.590268 
L 226.537248 40.004669 
L 226.598868 40.024646 
L 227.816443 40.425916 
L 229.095638 40.846317 
L 230.374832 41.265478 
L 231.654027 41.683413 
L 232.526803 41.968081 
L 232.933221 42.102845 
L 234.212416 42.526848 
L 235.491611 42.949577 
L 236.770805 43.371048 
L 238.05 43.791273 
" style="fill:none;stroke:#f1ccb8;"/>
   </g>
   <g id="LineCollection_21">
    <path clip-path="url(#pf0ae35409c)" d="M 123.92804 207.16 
L 122.922483 206.872889 
L 121.643289 206.508144 
L 120.364094 206.144175 
L 119.084899 205.780973 
L 117.805705 205.41853 
L 117.092557 205.216566 
L 116.52651 205.053731 
L 115.247315 204.685799 
L 113.968121 204.318667 
L 112.688926 203.952325 
L 111.409732 203.586766 
L 110.310467 203.273131 
L 110.130537 203.220984 
L 108.851342 202.849907 
L 107.572148 202.479654 
L 106.292953 202.110215 
L 105.013758 201.741582 
L 103.734564 201.373745 
L 103.581538 201.329697 
L 102.455369 201.000425 
L 101.176174 200.627094 
L 99.89698 200.2546 
L 98.617785 199.882935 
L 97.338591 199.51209 
L 96.904645 199.386263 
L 96.059396 199.137309 
L 94.780201 198.760942 
L 93.501007 198.385437 
L 92.221812 198.010783 
L 90.942617 197.636971 
L 90.277923 197.442828 
L 89.663423 197.260513 
L 88.384228 196.881155 
L 87.105034 196.502682 
L 85.825839 196.125082 
L 84.546644 195.748346 
L 83.700446 195.499394 
L 83.26745 195.369993 
L 81.988255 194.987688 
L 80.70906 194.60629 
L 79.429866 194.225787 
L 78.150671 193.846171 
L 77.17131 193.55596 
L 76.871477 193.465705 
L 75.592282 193.080497 
L 74.313087 192.696217 
L 73.033893 192.312856 
L 71.754698 191.930402 
L 70.689636 191.612525 
L 70.475503 191.547604 
L 69.196309 191.159537 
L 67.917114 190.77242 
L 66.637919 190.386243 
L 65.358725 190.000996 
L 64.254562 189.669091 
L 64.07953 189.615643 
L 62.800336 189.224762 
L 61.521141 188.834853 
L 60.241946 188.445905 
L 58.962752 188.057908 
L 57.86525 187.725657 
L 57.683557 187.669779 
L 56.404362 187.276129 
L 55.125168 186.883472 
L 53.845973 186.491798 
L 52.566779 186.101095 
L 51.520881 185.782222 
L 51.287584 185.709965 
L 50.008389 185.313591 
L 48.729195 184.918232 
L 47.45 184.523876 
" style="fill:none;stroke:#f5c4ac;"/>
    <path clip-path="url(#pf0ae35409c)" d="M 154.553728 14.76 
L 154.902349 14.865685 
L 156.181544 15.253557 
L 157.460738 15.640482 
L 158.739933 16.026468 
L 160.019128 16.411527 
L 160.990335 16.703434 
L 161.298322 16.79747 
L 162.577517 17.188156 
L 163.856711 17.577873 
L 165.135906 17.966629 
L 166.415101 18.354437 
L 167.381176 18.646869 
L 167.694295 18.743154 
L 168.97349 19.136608 
L 170.252685 19.529071 
L 171.531879 19.920554 
L 172.811074 20.311067 
L 173.727069 20.590303 
L 174.090268 20.702781 
L 175.369463 21.098958 
L 176.648658 21.494123 
L 177.927852 21.888287 
L 179.207047 22.281461 
L 180.028815 22.533737 
L 180.486242 22.676397 
L 181.765436 23.075252 
L 183.044631 23.473073 
L 184.323826 23.869873 
L 185.60302 24.265662 
L 186.287193 24.477172 
L 186.882215 24.664048 
L 188.161409 25.065535 
L 189.440604 25.465967 
L 190.719799 25.865358 
L 191.998993 26.263717 
L 192.502966 26.420606 
L 193.278188 26.665781 
L 194.557383 27.069852 
L 195.836577 27.47285 
L 197.115772 27.874785 
L 198.394966 28.27567 
L 198.676879 28.36404 
L 199.674161 28.681642 
L 200.953356 29.088251 
L 202.23255 29.493767 
L 203.511745 29.898202 
L 204.79094 30.301566 
L 204.809659 30.307475 
L 206.070134 30.711676 
L 207.349329 31.120778 
L 208.628523 31.528766 
L 209.907718 31.935652 
L 210.900685 32.250909 
L 211.186913 32.343242 
L 212.466107 32.755932 
L 213.745302 33.167478 
L 215.024497 33.577891 
L 216.303691 33.987183 
L 216.951727 34.194343 
L 217.582886 34.39935 
L 218.862081 34.814456 
L 220.141275 35.228398 
L 221.42047 35.641189 
L 222.699664 36.052841 
L 222.963557 36.137778 
L 223.978859 36.469821 
L 225.258054 36.887295 
L 226.537248 37.303586 
L 227.816443 37.718707 
L 228.936111 38.081212 
L 229.095638 38.133695 
L 230.374832 38.554704 
L 231.654027 38.974497 
L 232.933221 39.393088 
L 234.212416 39.810491 
L 234.869399 40.024646 
L 235.491611 40.230749 
L 236.770805 40.654046 
L 238.05 41.076109 
" style="fill:none;stroke:#f5c4ac;"/>
   </g>
   <g id="LineCollection_22">
    <path clip-path="url(#pf0ae35409c)" d="M 114.873288 207.16 
L 113.968121 206.898873 
L 112.688926 206.53025 
L 111.409732 206.16241 
L 110.130537 205.795347 
L 108.851342 205.42905 
L 108.108851 205.216566 
L 107.572148 205.060611 
L 106.292953 204.688944 
L 105.013758 204.318083 
L 103.734564 203.94802 
L 102.455369 203.578746 
L 101.395089 203.273131 
L 101.176174 203.20906 
L 99.89698 202.83439 
L 98.617785 202.460549 
L 97.338591 202.087527 
L 96.059396 201.715316 
L 94.780201 201.343908 
L 94.731316 201.329697 
L 93.501007 200.966547 
L 92.221812 200.589766 
L 90.942617 200.213826 
L 89.663423 199.838719 
L 88.384228 199.464436 
L 88.117216 199.386263 
L 87.105034 199.085371 
L 85.825839 198.705692 
L 84.546644 198.326876 
L 83.26745 197.948913 
L 81.988255 197.571795 
L 81.550837 197.442828 
L 80.70906 197.190821 
L 79.429866 196.808286 
L 78.150671 196.426634 
L 76.871477 196.045857 
L 75.592282 195.665946 
L 75.031331 195.499394 
L 74.313087 195.282855 
L 73.033893 194.897504 
L 71.754698 194.513059 
L 70.475503 194.129509 
L 69.196309 193.746845 
L 68.557866 193.55596 
L 67.917114 193.361429 
L 66.637919 192.973306 
L 65.358725 192.586109 
L 64.07953 192.199828 
L 62.800336 191.814453 
L 62.12963 191.612525 
L 61.521141 191.4265 
L 60.241946 191.035648 
L 58.962752 190.645741 
L 57.683557 190.256771 
L 56.404362 189.868726 
L 55.745832 189.669091 
L 55.125168 189.478027 
L 53.845973 189.084486 
L 52.566779 188.691913 
L 51.287584 188.300295 
L 50.008389 187.909624 
L 49.405698 187.725657 
L 48.729195 187.515964 
L 47.45 187.11978 
" style="fill:none;stroke:#f7ba9f;"/>
    <path clip-path="url(#pf0ae35409c)" d="M 163.115693 14.76 
L 163.856711 14.986515 
L 165.135906 15.377179 
L 166.415101 15.766898 
L 167.694295 16.155683 
L 168.97349 16.543543 
L 169.500977 16.703434 
L 170.252685 16.934812 
L 171.531879 17.328162 
L 172.811074 17.720547 
L 174.090268 18.111978 
L 175.369463 18.502465 
L 175.842593 18.646869 
L 176.648658 18.896691 
L 177.927852 19.292685 
L 179.207047 19.687694 
L 180.486242 20.081729 
L 181.765436 20.4748 
L 182.141297 20.590303 
L 183.044631 20.872197 
L 184.323826 21.270791 
L 185.60302 21.66838 
L 186.882215 22.064977 
L 188.161409 22.46059 
L 188.397828 22.533737 
L 189.440604 22.861372 
L 190.719799 23.262523 
L 191.998993 23.66265 
L 193.278188 24.061764 
L 194.557383 24.459876 
L 194.612906 24.477172 
L 195.836577 24.864261 
L 197.115772 25.267925 
L 198.394966 25.670545 
L 199.674161 26.072134 
L 200.786473 26.420606 
L 200.953356 26.473703 
L 202.23255 26.880908 
L 203.511745 27.28704 
L 204.79094 27.69211 
L 206.070134 28.096129 
L 206.919554 28.36404 
L 207.349329 28.501709 
L 208.628523 28.911356 
L 209.907718 29.319912 
L 211.186913 29.727387 
L 212.466107 30.133794 
L 213.013086 30.307475 
L 213.745302 30.543605 
L 215.024497 30.95565 
L 216.303691 31.366585 
L 217.582886 31.776422 
L 218.862081 32.185171 
L 219.067733 32.250909 
L 220.141275 32.599438 
L 221.42047 33.013835 
L 222.699664 33.427104 
L 223.978859 33.839256 
L 225.08336 34.194343 
L 225.258054 34.251388 
L 226.537248 34.669251 
L 227.816443 35.085955 
L 229.095638 35.501513 
L 230.374832 35.915936 
L 231.060302 36.137778 
L 231.654027 36.33295 
L 232.933221 36.753091 
L 234.212416 37.172056 
L 235.491611 37.589856 
L 236.770805 38.006505 
L 237.000122 38.081212 
L 238.05 38.42863 
" style="fill:none;stroke:#f7ba9f;"/>
   </g>
   <g id="LineCollection_23">
    <path clip-path="url(#pf0ae35409c)" d="M 106.128475 207.16 
L 105.013758 206.835282 
L 103.734564 206.463281 
L 102.455369 206.092068 
L 101.176174 205.721634 
L 99.89698 205.351973 
L 99.428458 205.216566 
L 98.617785 204.978758 
L 97.338591 204.603846 
L 96.059396 204.229745 
L 94.780201 203.856443 
L 93.501007 203.483935 
L 92.776659 203.273131 
L 92.221812 203.109231 
L 90.942617 202.73145 
L 89.663423 202.354499 
L 88.384228 201.978369 
L 87.105034 201.603051 
L 86.172227 201.329697 
L 85.825839 201.226664 
L 84.546644 200.846052 
L 83.26745 200.46629 
L 81.988255 200.08737 
L 80.70906 199.709283 
L 79.61433 199.386263 
L 79.429866 199.331014 
L 78.150671 198.947611 
L 76.871477 198.565078 
L 75.592282 198.183408 
L 74.313087 197.80259 
L 73.102159 197.442828 
L 73.033893 197.422241 
L 71.754698 197.036087 
L 70.475503 196.650824 
L 69.196309 196.266443 
L 67.917114 195.882934 
L 66.637919 195.500288 
L 66.634934 195.499394 
L 65.358725 195.11144 
L 64.07953 194.723487 
L 62.800336 194.336434 
L 61.521141 193.950273 
L 60.241946 193.564995 
L 60.211979 193.55596 
L 58.962752 193.173629 
L 57.683557 192.783025 
L 56.404362 192.393342 
L 55.125168 192.00457 
L 53.845973 191.616699 
L 53.832224 191.612525 
L 52.566779 191.222613 
L 51.287584 190.8294 
L 50.008389 190.437126 
L 48.729195 190.045782 
L 47.495144 189.669091 
L 47.45 189.655102 
" style="fill:none;stroke:#f7b093;"/>
    <path clip-path="url(#pf0ae35409c)" d="M 171.414468 14.76 
L 171.531879 14.796133 
L 172.811074 15.19011 
L 174.090268 15.583139 
L 175.369463 15.97523 
L 176.648658 16.366393 
L 177.752935 16.703434 
L 177.927852 16.757629 
L 179.207047 17.154193 
L 180.486242 17.54979 
L 181.765436 17.94443 
L 183.044631 18.338123 
L 184.049459 18.646869 
L 184.323826 18.732447 
L 185.60302 19.131557 
L 186.882215 19.529681 
L 188.161409 19.92683 
L 189.440604 20.323013 
L 190.304744 20.590303 
L 190.719799 20.720631 
L 191.998993 21.122244 
L 193.278188 21.522854 
L 194.557383 21.92247 
L 195.836577 22.321102 
L 196.519482 22.533737 
L 197.115772 22.722221 
L 198.394966 23.126296 
L 199.674161 23.52935 
L 200.953356 23.931391 
L 202.23255 24.332431 
L 202.694347 24.477172 
L 203.511745 24.737259 
L 204.79094 25.143755 
L 206.070134 25.54921 
L 207.349329 25.953635 
L 208.628523 26.357041 
L 208.830001 26.420606 
L 209.907718 26.765788 
L 211.186913 27.174661 
L 212.466107 27.582476 
L 213.745302 27.989243 
L 214.926654 28.36404 
L 215.024497 28.395556 
L 216.303691 28.807851 
L 217.582886 29.219059 
L 218.862081 29.62919 
L 220.141275 30.038257 
L 220.984317 30.307475 
L 221.42047 30.448886 
L 222.699664 30.863489 
L 223.978859 31.276988 
L 225.258054 31.689394 
L 226.537248 32.100718 
L 227.004515 32.250909 
L 227.816443 32.515877 
L 229.095638 32.932746 
L 230.374832 33.348493 
L 231.654027 33.76313 
L 232.933221 34.176668 
L 232.987858 34.194343 
L 234.212416 34.596574 
L 235.491611 35.015665 
L 236.770805 35.433616 
L 238.05 35.85044 
" style="fill:none;stroke:#f7b093;"/>
   </g>
   <g id="LineCollection_24">
    <path clip-path="url(#pf0ae35409c)" d="M 97.664679 207.16 
L 97.338591 207.064258 
L 96.059396 206.688524 
L 94.780201 206.313587 
L 93.501007 205.939439 
L 92.221812 205.566073 
L 91.022124 205.216566 
L 90.942617 205.193062 
L 89.663423 204.814524 
L 88.384228 204.436803 
L 87.105034 204.059891 
L 85.825839 203.68378 
L 84.546644 203.308462 
L 84.42634 203.273131 
L 83.26745 202.927799 
L 81.988255 202.547331 
L 80.70906 202.167693 
L 79.429866 201.788874 
L 78.150671 201.410867 
L 77.876127 201.329697 
L 76.871477 201.028309 
L 75.592282 200.645133 
L 74.313087 200.262805 
L 73.033893 199.881316 
L 71.754698 199.500658 
L 71.370347 199.386263 
L 70.475503 199.116015 
L 69.196309 198.73017 
L 67.917114 198.34519 
L 66.637919 197.961069 
L 65.358725 197.577797 
L 64.90825 197.442828 
L 64.07953 197.19088 
L 62.800336 196.802403 
L 61.521141 196.41481 
L 60.241946 196.028095 
L 58.962752 195.642247 
L 58.489104 195.499394 
L 57.683557 195.252864 
L 56.404362 194.861793 
L 55.125168 194.471626 
L 53.845973 194.082355 
L 52.566779 193.693968 
L 52.112191 193.55596 
L 51.287584 193.301927 
L 50.008389 192.908302 
L 48.729195 192.5156 
L 47.45 192.12381 
" style="fill:none;stroke:#f6a586;"/>
    <path clip-path="url(#pf0ae35409c)" d="M 179.4717 14.76 
L 180.486242 15.074567 
L 181.765436 15.470525 
L 183.044631 15.865545 
L 184.323826 16.259635 
L 185.60302 16.652805 
L 185.76764 16.703434 
L 186.882215 17.051281 
L 188.161409 17.449715 
L 189.440604 17.847191 
L 190.719799 18.243721 
L 191.998993 18.639314 
L 192.023399 18.646869 
L 193.278188 19.041029 
L 194.557383 19.441898 
L 195.836577 19.841792 
L 197.115772 20.240722 
L 198.238947 20.590303 
L 198.394966 20.639584 
L 199.674161 21.04385 
L 200.953356 21.447114 
L 202.23255 21.849387 
L 203.511745 22.250678 
L 204.415341 22.533737 
L 204.79094 22.653145 
L 206.070134 23.059784 
L 207.349329 23.465403 
L 208.628523 23.870014 
L 209.907718 24.273626 
L 210.553322 24.477172 
L 211.186913 24.6799 
L 212.466107 25.088871 
L 213.745302 25.496805 
L 215.024497 25.903714 
L 216.303691 26.309607 
L 216.65351 26.420606 
L 217.582886 26.719889 
L 218.862081 27.131151 
L 220.141275 27.54136 
L 221.42047 27.950526 
L 222.699664 28.358661 
L 222.716511 28.36404 
L 223.978859 28.773154 
L 225.258054 29.186665 
L 226.537248 29.599107 
L 227.816443 30.01049 
L 228.741396 30.307475 
L 229.095638 30.422917 
L 230.374832 30.839734 
L 231.654027 31.255454 
L 232.933221 31.670088 
L 234.212416 32.083647 
L 234.730058 32.250909 
L 235.491611 32.500672 
L 236.770805 32.919672 
L 238.05 33.337558 
" style="fill:none;stroke:#f6a586;"/>
   </g>
   <g id="LineCollection_25">
    <path clip-path="url(#pf0ae35409c)" d="M 89.455592 207.16 
L 88.384228 206.842682 
L 87.105034 206.464407 
L 85.825839 206.086927 
L 84.546644 205.710236 
L 83.26745 205.334324 
L 82.866808 205.216566 
L 81.988255 204.954632 
L 80.70906 204.573671 
L 79.429866 204.193525 
L 78.150671 203.814186 
L 76.871477 203.435645 
L 76.322182 203.273131 
L 75.592282 203.054082 
L 74.313087 202.670473 
L 73.033893 202.287697 
L 71.754698 201.905746 
L 70.475503 201.524611 
L 69.82098 201.329697 
L 69.196309 201.140998 
L 67.917114 200.754777 
L 66.637919 200.369407 
L 65.358725 199.98488 
L 64.07953 199.601187 
L 63.362486 199.386263 
L 62.800336 199.21534 
L 61.521141 198.826544 
L 60.241946 198.438617 
L 58.962752 198.051551 
L 57.683557 197.665336 
L 56.945998 197.442828 
L 56.404362 197.277072 
L 55.125168 196.885739 
L 53.845973 196.495292 
L 52.566779 196.105722 
L 51.287584 195.717023 
L 50.570829 195.499394 
L 50.008389 195.326157 
L 48.729195 194.932323 
L 47.45 194.539392 
" style="fill:none;stroke:#f4987a;"/>
    <path clip-path="url(#pf0ae35409c)" d="M 187.308007 14.76 
L 188.161409 15.026218 
L 189.440604 15.424763 
L 190.719799 15.82237 
L 191.998993 16.21905 
L 193.278188 16.614811 
L 193.564564 16.703434 
L 194.557383 17.015121 
L 195.836577 17.416053 
L 197.115772 17.81603 
L 198.394966 18.215063 
L 199.674161 18.613161 
L 199.782398 18.646869 
L 200.953356 19.016818 
L 202.23255 19.420098 
L 203.511745 19.822408 
L 204.79094 20.223756 
L 205.96166 20.590303 
L 206.070134 20.62476 
L 207.349329 21.031347 
L 208.628523 21.436938 
L 209.907718 21.841541 
L 211.186913 22.245167 
L 212.102799 22.533737 
L 212.466107 22.649872 
L 213.745302 23.058747 
L 215.024497 23.466609 
L 216.303691 23.873468 
L 217.582886 24.279333 
L 218.206877 24.477172 
L 218.862081 24.687933 
L 220.141275 25.099057 
L 221.42047 25.509151 
L 222.699664 25.918226 
L 223.978859 26.326292 
L 224.274478 26.420606 
L 225.258054 26.738981 
L 226.537248 27.152314 
L 227.816443 27.564602 
L 229.095638 27.975855 
L 230.305881 28.36404 
L 230.374832 28.38648 
L 231.654027 28.803056 
L 232.933221 29.218559 
L 234.212416 29.633 
L 235.491611 30.046391 
L 236.300546 30.307475 
L 236.770805 30.461476 
L 238.05 30.880196 
" style="fill:none;stroke:#f4987a;"/>
   </g>
   <g id="LineCollection_26">
    <path clip-path="url(#pf0ae35409c)" d="M 81.4803 207.16 
L 80.70906 206.929944 
L 79.429866 206.548679 
L 78.150671 206.168213 
L 76.871477 205.78854 
L 75.592282 205.409651 
L 74.940084 205.216566 
L 74.313087 205.028329 
L 73.033893 204.644473 
L 71.754698 204.261435 
L 70.475503 203.879205 
L 69.196309 203.497778 
L 68.442339 203.273131 
L 67.917114 203.114436 
L 66.637919 202.728024 
L 65.358725 202.342447 
L 64.07953 201.957697 
L 62.800336 201.573765 
L 61.986377 201.329697 
L 61.521141 201.188228 
L 60.241946 200.799295 
L 58.962752 200.411215 
L 57.683557 200.023979 
L 56.404362 199.637578 
L 55.571527 199.386263 
L 55.125168 199.249669 
L 53.845973 198.858252 
L 52.566779 198.467704 
L 51.287584 198.078017 
L 50.008389 197.689182 
L 49.19713 197.442828 
L 48.729195 197.298724 
L 47.45 196.904858 
" style="fill:none;stroke:#f08b6e;"/>
    <path clip-path="url(#pf0ae35409c)" d="M 194.940756 14.76 
L 195.836577 15.041077 
L 197.115772 15.441899 
L 198.394966 15.841786 
L 199.674161 16.24075 
L 200.953356 16.638797 
L 201.160988 16.703434 
L 202.23255 17.041748 
L 203.511745 17.444873 
L 204.79094 17.847048 
L 206.070134 18.248282 
L 207.343825 18.646869 
L 207.349329 18.648615 
L 208.628523 19.054982 
L 209.907718 19.460373 
L 211.186913 19.864799 
L 212.466107 20.268268 
L 213.488847 20.590303 
L 213.745302 20.672205 
L 215.024497 21.080816 
L 216.303691 21.488437 
L 217.582886 21.895076 
L 218.862081 22.300744 
L 219.597505 22.533737 
L 220.141275 22.708469 
L 221.42047 23.119288 
L 222.699664 23.5291 
L 223.978859 23.937916 
L 225.258054 24.345745 
L 225.67036 24.477172 
L 226.537248 24.757445 
L 227.816443 25.170434 
L 229.095638 25.582401 
L 230.374832 25.993356 
L 231.654027 26.403309 
L 231.70796 26.420606 
L 232.933221 26.819171 
L 234.212416 27.234291 
L 235.491611 27.648375 
L 236.770805 28.061432 
L 237.709444 28.36404 
L 238.05 28.475409 
" style="fill:none;stroke:#f08b6e;"/>
   </g>
   <g id="LineCollection_27">
    <path clip-path="url(#pf0ae35409c)" d="M 73.719241 207.16 
L 73.033893 206.954173 
L 71.754698 206.570234 
L 70.475503 206.187097 
L 69.196309 205.804754 
L 67.917114 205.423198 
L 67.223954 205.216566 
L 66.637919 205.039457 
L 65.358725 204.653017 
L 64.07953 204.267395 
L 62.800336 203.882584 
L 61.521141 203.498575 
L 60.769576 203.273131 
L 60.241946 203.112675 
L 58.962752 202.723767 
L 57.683557 202.335694 
L 56.404362 201.948447 
L 55.125168 201.56202 
L 54.35546 201.329697 
L 53.845973 201.173791 
L 52.566779 200.78245 
L 51.287584 200.391959 
L 50.008389 200.002312 
L 48.729195 199.613499 
L 47.980976 199.386263 
L 47.45 199.222772 
" style="fill:none;stroke:#eb7d62;"/>
    <path clip-path="url(#pf0ae35409c)" d="M 202.385106 14.76 
L 203.511745 15.115467 
L 204.79094 15.518285 
L 206.070134 15.920175 
L 207.349329 16.321145 
L 208.57153 16.703434 
L 208.628523 16.72151 
L 209.907718 17.127505 
L 211.186913 17.532547 
L 212.466107 17.936646 
L 213.745302 18.33981 
L 214.721069 18.646869 
L 215.024497 18.743685 
L 216.303691 19.151884 
L 217.582886 19.559115 
L 218.862081 19.965387 
L 220.141275 20.370709 
L 220.834907 20.590303 
L 221.42047 20.778274 
L 222.699664 21.18864 
L 223.978859 21.598023 
L 225.258054 22.006433 
L 226.537248 22.413878 
L 226.913584 22.533737 
L 227.816443 22.82531 
L 229.095638 23.237808 
L 230.374832 23.649308 
L 231.654027 24.059819 
L 232.933221 24.469352 
L 232.957627 24.477172 
L 234.212416 24.884831 
L 235.491611 25.299424 
L 236.770805 25.713004 
L 238.05 26.125581 
" style="fill:none;stroke:#eb7d62;"/>
   </g>
   <g id="LineCollection_28">
    <path clip-path="url(#pf0ae35409c)" d="M 66.156196 207.16 
L 65.358725 206.918941 
L 64.07953 206.532617 
L 62.800336 206.147094 
L 61.521141 205.762364 
L 60.241946 205.378422 
L 59.702557 205.216566 
L 58.962752 204.991565 
L 57.683557 204.602823 
L 56.404362 204.214899 
L 55.125168 203.827785 
L 53.845973 203.441472 
L 53.288376 203.273131 
L 52.566779 203.052326 
L 51.287584 202.661201 
L 50.008389 202.270908 
L 48.729195 201.881441 
L 47.45 201.492791 
" style="fill:none;stroke:#e46e56;"/>
    <path clip-path="url(#pf0ae35409c)" d="M 209.653719 14.76 
L 209.907718 14.840496 
L 211.186913 15.245989 
L 212.466107 15.650551 
L 213.745302 16.054191 
L 215.024497 16.456918 
L 215.808328 16.703434 
L 216.303691 16.861358 
L 217.582886 17.269014 
L 218.862081 17.675725 
L 220.141275 18.081499 
L 221.42047 18.486346 
L 221.927868 18.646869 
L 222.699664 18.894381 
L 223.978859 19.304166 
L 225.258054 19.712991 
L 226.537248 20.120865 
L 227.816443 20.527798 
L 228.012858 20.590303 
L 229.095638 20.9396 
L 230.374832 21.351478 
L 231.654027 21.762383 
L 232.933221 22.172323 
L 234.063216 22.533737 
L 234.212416 22.582114 
L 235.491611 22.997049 
L 236.770805 23.410986 
L 238.05 23.823935 
" style="fill:none;stroke:#e46e56;"/>
   </g>
   <g id="LineCollection_29">
    <path clip-path="url(#pf0ae35409c)" d="M 58.776543 207.16 
L 57.683557 206.827556 
L 56.404362 206.439107 
L 55.125168 206.051457 
L 53.845973 205.6646 
L 52.566779 205.278528 
L 52.361587 205.216566 
L 51.287584 204.887938 
L 50.008389 204.497152 
L 48.729195 204.107181 
L 47.45 203.718017 
" style="fill:none;stroke:#dd5f4b;"/>
    <path clip-path="url(#pf0ae35409c)" d="M 216.758819 14.76 
L 217.582886 15.0225 
L 218.862081 15.429499 
L 220.141275 15.835575 
L 221.42047 16.240738 
L 222.699664 16.644994 
L 222.884513 16.703434 
L 223.978859 17.05406 
L 225.258054 17.46315 
L 226.537248 17.871303 
L 227.816443 18.278528 
L 228.975772 18.646869 
L 229.095638 18.685465 
L 230.374832 19.097572 
L 231.654027 19.50872 
L 232.933221 19.918917 
L 234.212416 20.328172 
L 235.032709 20.590303 
L 235.491611 20.738926 
L 236.770805 21.15307 
L 238.05 21.566242 
" style="fill:none;stroke:#dd5f4b;"/>
   </g>
   <g id="LineCollection_30">
    <path clip-path="url(#pf0ae35409c)" d="M 51.56819 207.16 
L 51.287584 207.074225 
L 50.008389 206.683085 
L 48.729195 206.292748 
L 47.45 205.903209 
" style="fill:none;stroke:#d44e41;"/>
    <path clip-path="url(#pf0ae35409c)" d="M 223.711336 14.76 
L 223.978859 14.845568 
L 225.258054 15.254787 
L 226.537248 15.663084 
L 227.816443 16.070467 
L 229.095638 16.476944 
L 229.809028 16.703434 
L 230.374832 16.885442 
L 231.654027 17.296696 
L 232.933221 17.707015 
L 234.212416 18.116407 
L 235.491611 18.52488 
L 235.873675 18.646869 
L 236.770805 18.9371 
L 238.05 19.350357 
" style="fill:none;stroke:#d44e41;"/>
   </g>
   <g id="LineCollection_31">
    <path clip-path="url(#pf0ae35409c)" d="M 230.520395 14.76 
L 231.654027 15.124317 
L 232.933221 15.534634 
L 234.212416 15.944039 
L 235.491611 16.35254 
L 236.592371 16.703434 
L 236.770805 16.761055 
L 238.05 17.174275 
" style="fill:none;stroke:#ca3b37;"/>
   </g>
   <g id="LineCollection_32">
    <path clip-path="url(#pf0ae35409c)" d="M 237.194083 14.76 
L 238.05 15.036116 
" style="fill:none;stroke:#be242e;"/>
   </g>
   <g id="LineCollection_33"/>
   <g id="patch_3">
    <path d="M 47.45 207.16 
L 47.45 14.76 
" style="fill:none;stroke:#000000;stroke-linecap:square;stroke-linejoin:miter;stroke-width:0.8;"/>
   </g>
   <g id="patch_4">
    <path d="M 238.05 207.16 
L 238.05 14.76 
" style="fill:none;stroke:#000000;stroke-linecap:square;stroke-linejoin:miter;stroke-width:0.8;"/>
   </g>
   <g id="patch_5">
    <path d="M 47.45 207.16 
L 238.05 207.16 
" style="fill:none;stroke:#000000;stroke-linecap:square;stroke-linejoin:miter;stroke-width:0.8;"/>
   </g>
   <g id="patch_6">
    <path d="M 47.45 14.76 
L 238.05 14.76 
" style="fill:none;stroke:#000000;stroke-linecap:square;stroke-linejoin:miter;stroke-width:0.8;"/>
   </g>
  </g>
 </g>
 <defs>
  <clipPath id="pf0ae35409c">
   <rect height="192.4" width="190.6" x="47.45" y="14.76"/>
  </clipPath>
 </defs>
</svg>
